%TF.GenerationSoftware,KiCad,Pcbnew,9.0.0*%
%TF.CreationDate,2025-06-23T21:15:43-05:00*%
%TF.ProjectId,ptSolar,7074536f-6c61-4722-9e6b-696361645f70,rev?*%
%TF.SameCoordinates,Original*%
%TF.FileFunction,Soldermask,Bot*%
%TF.FilePolarity,Negative*%
%FSLAX46Y46*%
G04 Gerber Fmt 4.6, Leading zero omitted, Abs format (unit mm)*
G04 Created by KiCad (PCBNEW 9.0.0) date 2025-06-23 21:15:43*
%MOMM*%
%LPD*%
G01*
G04 APERTURE LIST*
G04 Aperture macros list*
%AMRoundRect*
0 Rectangle with rounded corners*
0 $1 Rounding radius*
0 $2 $3 $4 $5 $6 $7 $8 $9 X,Y pos of 4 corners*
0 Add a 4 corners polygon primitive as box body*
4,1,4,$2,$3,$4,$5,$6,$7,$8,$9,$2,$3,0*
0 Add four circle primitives for the rounded corners*
1,1,$1+$1,$2,$3*
1,1,$1+$1,$4,$5*
1,1,$1+$1,$6,$7*
1,1,$1+$1,$8,$9*
0 Add four rect primitives between the rounded corners*
20,1,$1+$1,$2,$3,$4,$5,0*
20,1,$1+$1,$4,$5,$6,$7,0*
20,1,$1+$1,$6,$7,$8,$9,0*
20,1,$1+$1,$8,$9,$2,$3,0*%
G04 Aperture macros list end*
%ADD10O,4.000000X3.000000*%
%ADD11C,1.400000*%
%ADD12RoundRect,0.250000X0.425000X1.600000X-0.425000X1.600000X-0.425000X-1.600000X0.425000X-1.600000X0*%
%ADD13R,1.700000X1.700000*%
%ADD14O,1.700000X1.700000*%
%ADD15R,1.524000X1.524000*%
%ADD16C,1.524000*%
%ADD17RoundRect,0.115000X-1.135000X-1.035000X1.135000X-1.035000X1.135000X1.035000X-1.135000X1.035000X0*%
%ADD18RoundRect,0.115000X-1.035000X-1.135000X1.035000X-1.135000X1.035000X1.135000X-1.035000X1.135000X0*%
%ADD19RoundRect,0.270000X-3.480000X-0.630000X3.480000X-0.630000X3.480000X0.630000X-3.480000X0.630000X0*%
%ADD20RoundRect,0.270000X-2.980000X-0.630000X2.980000X-0.630000X2.980000X0.630000X-2.980000X0.630000X0*%
%ADD21RoundRect,0.750000X-1.750000X-2.250000X1.750000X-2.250000X1.750000X2.250000X-1.750000X2.250000X0*%
G04 APERTURE END LIST*
D10*
%TO.C,PV1*%
X137250000Y-72000000D03*
X137250000Y-137500000D03*
%TD*%
D11*
%TO.C,ANT2b1*%
X150500000Y-72750000D03*
%TD*%
D10*
%TO.C,PV2*%
X167250000Y-72000000D03*
X167250000Y-137500000D03*
%TD*%
D11*
%TO.C,ANT2a1*%
X144750000Y-73500000D03*
%TD*%
D12*
%TO.C,ANT2*%
X142425000Y-70350000D03*
X148075000Y-70350000D03*
%TD*%
D13*
%TO.C,J1*%
X155700000Y-139000000D03*
D14*
X155700000Y-136460000D03*
X158240000Y-139000000D03*
X158240000Y-136460000D03*
X160780000Y-139000000D03*
X160780000Y-136460000D03*
%TD*%
D13*
%TO.C,J2*%
X155720000Y-90740000D03*
D14*
X158260000Y-90740000D03*
X160800000Y-90740000D03*
%TD*%
D15*
%TO.C,C1*%
X160250000Y-71000000D03*
D16*
X160250000Y-82500000D03*
%TD*%
D17*
%TO.C,U3*%
X162065000Y-125860000D03*
X162065000Y-121460000D03*
X162065000Y-117060000D03*
X162065000Y-112660000D03*
X162065000Y-108260000D03*
X162065000Y-103860000D03*
X162065000Y-99460000D03*
D18*
X160065000Y-95560000D03*
X155431666Y-95560000D03*
X150798333Y-95560000D03*
X146165000Y-95560000D03*
D17*
X144265000Y-99460000D03*
X144265000Y-103860000D03*
X144265000Y-108260000D03*
X144265000Y-112660000D03*
X144265000Y-117060000D03*
X144265000Y-121460000D03*
X144265000Y-125860000D03*
D19*
X146815000Y-129910000D03*
D20*
X160065000Y-129910000D03*
D21*
X154165000Y-101660000D03*
%TD*%
M02*
