%TF.GenerationSoftware,KiCad,Pcbnew,9.0.0*%
%TF.CreationDate,2025-06-23T21:15:42-05:00*%
%TF.ProjectId,ptSolar,7074536f-6c61-4722-9e6b-696361645f70,rev?*%
%TF.SameCoordinates,Original*%
%TF.FileFunction,Copper,L2,Inr*%
%TF.FilePolarity,Positive*%
%FSLAX46Y46*%
G04 Gerber Fmt 4.6, Leading zero omitted, Abs format (unit mm)*
G04 Created by KiCad (PCBNEW 9.0.0) date 2025-06-23 21:15:42*
%MOMM*%
%LPD*%
G01*
G04 APERTURE LIST*
%TA.AperFunction,ComponentPad*%
%ADD10O,4.000000X3.000000*%
%TD*%
%TA.AperFunction,ComponentPad*%
%ADD11C,1.400000*%
%TD*%
%TA.AperFunction,ComponentPad*%
%ADD12R,1.700000X1.700000*%
%TD*%
%TA.AperFunction,ComponentPad*%
%ADD13O,1.700000X1.700000*%
%TD*%
%TA.AperFunction,ComponentPad*%
%ADD14R,1.524000X1.524000*%
%TD*%
%TA.AperFunction,ComponentPad*%
%ADD15C,1.524000*%
%TD*%
%TA.AperFunction,ViaPad*%
%ADD16C,0.600000*%
%TD*%
%TA.AperFunction,Conductor*%
%ADD17C,0.600000*%
%TD*%
G04 APERTURE END LIST*
D10*
%TO.N,Net-(D1-A)*%
%TO.C,PV1*%
X137250000Y-72000000D03*
%TO.N,GND*%
X137250000Y-137500000D03*
%TD*%
D11*
%TO.N,GND*%
%TO.C,ANT2b1*%
X150500000Y-72750000D03*
%TD*%
D10*
%TO.N,Net-(D2-A)*%
%TO.C,PV2*%
X167250000Y-72000000D03*
%TO.N,GND*%
X167250000Y-137500000D03*
%TD*%
D11*
%TO.N,Net-(ANT2-In)*%
%TO.C,ANT2a1*%
X144750000Y-73500000D03*
%TD*%
D12*
%TO.N,MISO*%
%TO.C,J1*%
X155700000Y-139000000D03*
D13*
%TO.N,+BATT*%
X155700000Y-136460000D03*
%TO.N,SCK*%
X158240000Y-139000000D03*
%TO.N,MOSI*%
X158240000Y-136460000D03*
%TO.N,RESET*%
X160780000Y-139000000D03*
%TO.N,GND*%
X160780000Y-136460000D03*
%TD*%
D12*
%TO.N,Net-(J2-Pin_1)*%
%TO.C,J2*%
X155720000Y-90740000D03*
D13*
%TO.N,Net-(J2-Pin_2)*%
X158260000Y-90740000D03*
%TO.N,GND*%
X160800000Y-90740000D03*
%TD*%
D14*
%TO.N,Net-(D1-K)*%
%TO.C,C1*%
X160250000Y-71000000D03*
D15*
%TO.N,GND*%
X160250000Y-82500000D03*
%TD*%
D16*
%TO.N,+BATT*%
X139000000Y-105750000D03*
X139000000Y-96000000D03*
X151750000Y-78750000D03*
X166000000Y-81500000D03*
X139000000Y-100750000D03*
X166000000Y-108500000D03*
X139000000Y-111000000D03*
X139000000Y-92000000D03*
X139000000Y-88000000D03*
%TO.N,GND*%
X151000000Y-85000000D03*
X151000000Y-81500000D03*
X142500000Y-85500000D03*
X165250000Y-69000000D03*
X161300000Y-119300000D03*
X147000000Y-118900000D03*
X152900000Y-132300000D03*
X140750000Y-94000000D03*
X139750000Y-69000000D03*
X165750000Y-77000000D03*
X144250000Y-90500000D03*
X151250000Y-92500000D03*
X157600000Y-103300000D03*
X151750000Y-69000000D03*
X151250000Y-89750000D03*
X160000000Y-109500000D03*
X157750000Y-109500000D03*
X162750000Y-96360000D03*
X155250000Y-113250000D03*
X150500000Y-114500000D03*
X164500000Y-93250000D03*
X151000000Y-76750000D03*
X158000000Y-132100000D03*
X138700000Y-119400000D03*
X150500000Y-112750000D03*
X139000000Y-113750000D03*
X153000000Y-123250000D03*
X159400000Y-123800000D03*
%TO.N,MOSI*%
X157250000Y-133750000D03*
%TO.N,RESET*%
X156650000Y-131900000D03*
X152750000Y-111250000D03*
X155500000Y-121000000D03*
%TO.N,+3.3V*%
X140100000Y-126100000D03*
X148800000Y-119100000D03*
X163500000Y-135000000D03*
X151500000Y-114000000D03*
X158250000Y-118250000D03*
X148531250Y-86250000D03*
X146000000Y-106750000D03*
X146000000Y-97500000D03*
X147300000Y-101768750D03*
%TO.N,Net-(D1-K)*%
X139750000Y-81500000D03*
X151750000Y-74750000D03*
%TO.N,Net-(J2-Pin_2)*%
X153250000Y-106750000D03*
%TO.N,Net-(Q1-D)*%
X148912766Y-103814237D03*
X146100000Y-104200000D03*
%TO.N,Net-(Q3-D)*%
X140750000Y-97250000D03*
%TO.N,XMIT-TX*%
X147100000Y-104400000D03*
X153350000Y-116250000D03*
%TO.N,Net-(U3-MIC-IN)*%
X157850000Y-122900000D03*
%TO.N,Net-(U3-ANTENNA)*%
X145750000Y-85750000D03*
%TO.N,Net-(J2-Pin_1)*%
X153925735Y-107400000D03*
%TO.N,Net-(Q2-D)*%
X140750000Y-102000000D03*
%TO.N,XMIT-RX*%
X154250000Y-116500000D03*
X147800000Y-103900000D03*
%TO.N,Net-(Q4-C)*%
X164500000Y-105000000D03*
%TO.N,Net-(U3-HIGH{slash}LOW)*%
X164250000Y-97250000D03*
%TO.N,Net-(C15-Pad2)*%
X159250000Y-108250000D03*
X164500000Y-119750000D03*
%TO.N,XMIT-TX-AUDIO*%
X148750000Y-109750000D03*
X159400000Y-120900000D03*
%TD*%
D17*
%TO.N,+BATT*%
X139000000Y-84500000D02*
X139000000Y-96000000D01*
X139000000Y-105750000D02*
X139000000Y-111000000D01*
X139000000Y-100750000D02*
X139000000Y-105750000D01*
X151750000Y-78750000D02*
X144750000Y-78750000D01*
X139000000Y-96000000D02*
X139000000Y-100750000D01*
X144750000Y-78750000D02*
X139000000Y-84500000D01*
%TD*%
%TA.AperFunction,Conductor*%
%TO.N,+3.3V*%
G36*
X139135098Y-68270185D02*
G01*
X139180853Y-68322989D01*
X139190797Y-68392147D01*
X139161772Y-68455703D01*
X139155740Y-68462181D01*
X139128213Y-68489707D01*
X139128210Y-68489711D01*
X139040609Y-68620814D01*
X139040602Y-68620827D01*
X138980264Y-68766498D01*
X138980261Y-68766510D01*
X138949500Y-68921153D01*
X138949500Y-69078846D01*
X138980261Y-69233489D01*
X138980264Y-69233501D01*
X139040602Y-69379172D01*
X139040609Y-69379185D01*
X139128210Y-69510288D01*
X139128213Y-69510292D01*
X139239707Y-69621786D01*
X139239711Y-69621789D01*
X139370814Y-69709390D01*
X139370827Y-69709397D01*
X139454148Y-69743909D01*
X139516503Y-69769737D01*
X139671153Y-69800499D01*
X139671156Y-69800500D01*
X139671158Y-69800500D01*
X139828844Y-69800500D01*
X139828845Y-69800499D01*
X139983497Y-69769737D01*
X140129179Y-69709394D01*
X140260289Y-69621789D01*
X140371789Y-69510289D01*
X140459394Y-69379179D01*
X140519737Y-69233497D01*
X140550500Y-69078842D01*
X140550500Y-68921158D01*
X140550500Y-68921155D01*
X140550499Y-68921153D01*
X140519738Y-68766510D01*
X140519737Y-68766503D01*
X140501153Y-68721637D01*
X140459397Y-68620827D01*
X140459390Y-68620814D01*
X140371789Y-68489711D01*
X140371786Y-68489707D01*
X140344260Y-68462181D01*
X140310775Y-68400858D01*
X140315759Y-68331166D01*
X140357631Y-68275233D01*
X140423095Y-68250816D01*
X140431941Y-68250500D01*
X151068059Y-68250500D01*
X151135098Y-68270185D01*
X151180853Y-68322989D01*
X151190797Y-68392147D01*
X151161772Y-68455703D01*
X151155740Y-68462181D01*
X151128213Y-68489707D01*
X151128210Y-68489711D01*
X151040609Y-68620814D01*
X151040602Y-68620827D01*
X150980264Y-68766498D01*
X150980261Y-68766510D01*
X150949500Y-68921153D01*
X150949500Y-69078846D01*
X150980261Y-69233489D01*
X150980264Y-69233501D01*
X151040602Y-69379172D01*
X151040609Y-69379185D01*
X151128210Y-69510288D01*
X151128213Y-69510292D01*
X151239707Y-69621786D01*
X151239711Y-69621789D01*
X151370814Y-69709390D01*
X151370827Y-69709397D01*
X151454148Y-69743909D01*
X151516503Y-69769737D01*
X151671153Y-69800499D01*
X151671156Y-69800500D01*
X151671158Y-69800500D01*
X151828844Y-69800500D01*
X151828845Y-69800499D01*
X151983497Y-69769737D01*
X152129179Y-69709394D01*
X152260289Y-69621789D01*
X152371789Y-69510289D01*
X152459394Y-69379179D01*
X152519737Y-69233497D01*
X152550500Y-69078842D01*
X152550500Y-68921158D01*
X152550500Y-68921155D01*
X152550499Y-68921153D01*
X152519738Y-68766510D01*
X152519737Y-68766503D01*
X152501153Y-68721637D01*
X152459397Y-68620827D01*
X152459390Y-68620814D01*
X152371789Y-68489711D01*
X152371786Y-68489707D01*
X152344260Y-68462181D01*
X152310775Y-68400858D01*
X152315759Y-68331166D01*
X152357631Y-68275233D01*
X152423095Y-68250816D01*
X152431941Y-68250500D01*
X164568059Y-68250500D01*
X164635098Y-68270185D01*
X164680853Y-68322989D01*
X164690797Y-68392147D01*
X164661772Y-68455703D01*
X164655740Y-68462181D01*
X164628213Y-68489707D01*
X164628210Y-68489711D01*
X164540609Y-68620814D01*
X164540602Y-68620827D01*
X164480264Y-68766498D01*
X164480261Y-68766510D01*
X164449500Y-68921153D01*
X164449500Y-69078846D01*
X164480261Y-69233489D01*
X164480264Y-69233501D01*
X164540602Y-69379172D01*
X164540609Y-69379185D01*
X164628210Y-69510288D01*
X164628213Y-69510292D01*
X164739707Y-69621786D01*
X164739711Y-69621789D01*
X164870814Y-69709390D01*
X164870827Y-69709397D01*
X164954148Y-69743909D01*
X165016503Y-69769737D01*
X165171153Y-69800499D01*
X165171156Y-69800500D01*
X165171158Y-69800500D01*
X165328844Y-69800500D01*
X165328845Y-69800499D01*
X165483497Y-69769737D01*
X165629179Y-69709394D01*
X165760289Y-69621789D01*
X165871789Y-69510289D01*
X165959394Y-69379179D01*
X166019737Y-69233497D01*
X166050500Y-69078842D01*
X166050500Y-68921158D01*
X166050500Y-68921155D01*
X166050499Y-68921153D01*
X166019738Y-68766510D01*
X166019737Y-68766503D01*
X166001153Y-68721637D01*
X165959397Y-68620827D01*
X165959390Y-68620814D01*
X165871789Y-68489711D01*
X165871786Y-68489707D01*
X165844260Y-68462181D01*
X165810775Y-68400858D01*
X165815759Y-68331166D01*
X165857631Y-68275233D01*
X165923095Y-68250816D01*
X165931941Y-68250500D01*
X167126000Y-68250500D01*
X167193039Y-68270185D01*
X167238794Y-68322989D01*
X167250000Y-68374500D01*
X167250000Y-69875500D01*
X167230315Y-69942539D01*
X167177511Y-69988294D01*
X167126000Y-69999500D01*
X166618872Y-69999500D01*
X166387772Y-70029926D01*
X166358884Y-70033730D01*
X166105581Y-70101602D01*
X166105571Y-70101605D01*
X165863309Y-70201953D01*
X165863299Y-70201958D01*
X165636196Y-70333075D01*
X165428148Y-70492718D01*
X165242718Y-70678148D01*
X165083075Y-70886196D01*
X164951958Y-71113299D01*
X164951953Y-71113309D01*
X164851605Y-71355571D01*
X164851602Y-71355581D01*
X164791722Y-71579060D01*
X164783730Y-71608885D01*
X164749500Y-71868872D01*
X164749500Y-72131127D01*
X164766797Y-72262500D01*
X164783730Y-72391116D01*
X164851602Y-72644418D01*
X164851605Y-72644428D01*
X164951953Y-72886690D01*
X164951958Y-72886700D01*
X165083075Y-73113803D01*
X165242718Y-73321851D01*
X165242726Y-73321860D01*
X165428140Y-73507274D01*
X165428148Y-73507281D01*
X165636196Y-73666924D01*
X165863299Y-73798041D01*
X165863309Y-73798046D01*
X166019024Y-73862545D01*
X166105581Y-73898398D01*
X166358884Y-73966270D01*
X166618880Y-74000500D01*
X166618887Y-74000500D01*
X167126000Y-74000500D01*
X167193039Y-74020185D01*
X167238794Y-74072989D01*
X167250000Y-74124500D01*
X167250000Y-75636696D01*
X167230315Y-75703735D01*
X167177511Y-75749490D01*
X167158097Y-75756469D01*
X167116853Y-75767520D01*
X167056812Y-75783608D01*
X166942686Y-75849500D01*
X166942683Y-75849502D01*
X166849502Y-75942683D01*
X166849500Y-75942686D01*
X166783608Y-76056812D01*
X166749500Y-76184108D01*
X166749500Y-76697809D01*
X166729815Y-76764848D01*
X166677011Y-76810603D01*
X166607853Y-76820547D01*
X166544297Y-76791522D01*
X166510939Y-76745261D01*
X166459397Y-76620827D01*
X166459390Y-76620814D01*
X166371789Y-76489711D01*
X166371786Y-76489707D01*
X166260292Y-76378213D01*
X166260288Y-76378210D01*
X166129185Y-76290609D01*
X166129172Y-76290602D01*
X165983501Y-76230264D01*
X165983489Y-76230261D01*
X165828845Y-76199500D01*
X165828842Y-76199500D01*
X165671158Y-76199500D01*
X165671155Y-76199500D01*
X165516510Y-76230261D01*
X165516498Y-76230264D01*
X165370827Y-76290602D01*
X165370814Y-76290609D01*
X165239711Y-76378210D01*
X165239707Y-76378213D01*
X165128213Y-76489707D01*
X165128210Y-76489711D01*
X165040609Y-76620814D01*
X165040602Y-76620827D01*
X164980264Y-76766498D01*
X164980261Y-76766510D01*
X164949500Y-76921153D01*
X164949500Y-77078846D01*
X164980261Y-77233489D01*
X164980264Y-77233501D01*
X165040602Y-77379172D01*
X165040609Y-77379185D01*
X165128210Y-77510288D01*
X165128213Y-77510292D01*
X165239707Y-77621786D01*
X165239711Y-77621789D01*
X165370814Y-77709390D01*
X165370827Y-77709397D01*
X165516498Y-77769735D01*
X165516503Y-77769737D01*
X165671153Y-77800499D01*
X165671156Y-77800500D01*
X165671158Y-77800500D01*
X165828844Y-77800500D01*
X165828845Y-77800499D01*
X165983497Y-77769737D01*
X166129179Y-77709394D01*
X166260289Y-77621789D01*
X166371789Y-77510289D01*
X166459394Y-77379179D01*
X166508638Y-77260292D01*
X166510939Y-77254738D01*
X166554779Y-77200334D01*
X166621074Y-77178269D01*
X166688773Y-77195548D01*
X166736384Y-77246685D01*
X166749500Y-77302190D01*
X166749500Y-80818059D01*
X166729815Y-80885098D01*
X166677011Y-80930853D01*
X166607853Y-80940797D01*
X166544297Y-80911772D01*
X166537819Y-80905740D01*
X166510292Y-80878213D01*
X166510288Y-80878210D01*
X166379185Y-80790609D01*
X166379172Y-80790602D01*
X166233501Y-80730264D01*
X166233489Y-80730261D01*
X166078845Y-80699500D01*
X166078842Y-80699500D01*
X165921158Y-80699500D01*
X165921155Y-80699500D01*
X165766510Y-80730261D01*
X165766498Y-80730264D01*
X165620827Y-80790602D01*
X165620814Y-80790609D01*
X165489711Y-80878210D01*
X165489707Y-80878213D01*
X165378213Y-80989707D01*
X165378210Y-80989711D01*
X165290609Y-81120814D01*
X165290602Y-81120827D01*
X165230264Y-81266498D01*
X165230261Y-81266510D01*
X165199500Y-81421153D01*
X165199500Y-81578846D01*
X165230261Y-81733489D01*
X165230264Y-81733501D01*
X165290602Y-81879172D01*
X165290609Y-81879185D01*
X165378210Y-82010288D01*
X165378213Y-82010292D01*
X165489707Y-82121786D01*
X165489711Y-82121789D01*
X165620814Y-82209390D01*
X165620827Y-82209397D01*
X165766498Y-82269735D01*
X165766503Y-82269737D01*
X165921153Y-82300499D01*
X165921156Y-82300500D01*
X165921158Y-82300500D01*
X166078844Y-82300500D01*
X166078845Y-82300499D01*
X166233497Y-82269737D01*
X166379179Y-82209394D01*
X166510289Y-82121789D01*
X166510292Y-82121786D01*
X166537819Y-82094260D01*
X166599142Y-82060775D01*
X166668834Y-82065759D01*
X166724767Y-82107631D01*
X166749184Y-82173095D01*
X166749500Y-82181941D01*
X166749500Y-107818059D01*
X166729815Y-107885098D01*
X166677011Y-107930853D01*
X166607853Y-107940797D01*
X166544297Y-107911772D01*
X166537819Y-107905740D01*
X166510292Y-107878213D01*
X166510288Y-107878210D01*
X166379185Y-107790609D01*
X166379172Y-107790602D01*
X166233501Y-107730264D01*
X166233489Y-107730261D01*
X166078845Y-107699500D01*
X166078842Y-107699500D01*
X165921158Y-107699500D01*
X165921155Y-107699500D01*
X165766510Y-107730261D01*
X165766498Y-107730264D01*
X165620827Y-107790602D01*
X165620814Y-107790609D01*
X165489711Y-107878210D01*
X165489707Y-107878213D01*
X165378213Y-107989707D01*
X165378210Y-107989711D01*
X165290609Y-108120814D01*
X165290602Y-108120827D01*
X165230264Y-108266498D01*
X165230261Y-108266510D01*
X165199500Y-108421153D01*
X165199500Y-108578846D01*
X165230261Y-108733489D01*
X165230264Y-108733501D01*
X165290602Y-108879172D01*
X165290609Y-108879185D01*
X165378210Y-109010288D01*
X165378213Y-109010292D01*
X165489707Y-109121786D01*
X165489711Y-109121789D01*
X165620814Y-109209390D01*
X165620827Y-109209397D01*
X165694013Y-109239711D01*
X165766503Y-109269737D01*
X165921153Y-109300499D01*
X165921156Y-109300500D01*
X165921158Y-109300500D01*
X166078844Y-109300500D01*
X166078845Y-109300499D01*
X166233497Y-109269737D01*
X166379179Y-109209394D01*
X166510289Y-109121789D01*
X166511264Y-109120814D01*
X166537819Y-109094260D01*
X166599142Y-109060775D01*
X166668834Y-109065759D01*
X166724767Y-109107631D01*
X166749184Y-109173095D01*
X166749500Y-109181941D01*
X166749500Y-133684433D01*
X166749500Y-133816217D01*
X166752884Y-133828846D01*
X166783608Y-133943512D01*
X166806689Y-133983489D01*
X166849500Y-134057639D01*
X166942686Y-134150825D01*
X167056814Y-134216717D01*
X167158095Y-134243854D01*
X167217753Y-134280217D01*
X167248283Y-134343064D01*
X167250000Y-134363628D01*
X167250000Y-135375500D01*
X167230315Y-135442539D01*
X167177511Y-135488294D01*
X167126000Y-135499500D01*
X166618872Y-135499500D01*
X166387772Y-135529926D01*
X166358884Y-135533730D01*
X166105581Y-135601602D01*
X166105571Y-135601605D01*
X165863309Y-135701953D01*
X165863299Y-135701958D01*
X165636196Y-135833075D01*
X165428148Y-135992718D01*
X165242718Y-136178148D01*
X165083075Y-136386196D01*
X164951958Y-136613299D01*
X164951953Y-136613309D01*
X164851605Y-136855571D01*
X164851602Y-136855581D01*
X164783898Y-137108259D01*
X164783730Y-137108885D01*
X164749500Y-137368872D01*
X164749500Y-137631127D01*
X164776123Y-137833339D01*
X164783730Y-137891116D01*
X164845115Y-138120208D01*
X164851602Y-138144418D01*
X164851605Y-138144428D01*
X164951953Y-138386690D01*
X164951958Y-138386700D01*
X165083075Y-138613803D01*
X165242718Y-138821851D01*
X165242726Y-138821860D01*
X165428140Y-139007274D01*
X165428148Y-139007281D01*
X165636196Y-139166924D01*
X165863299Y-139298041D01*
X165863309Y-139298046D01*
X166105571Y-139398394D01*
X166105581Y-139398398D01*
X166358884Y-139466270D01*
X166618880Y-139500500D01*
X166618887Y-139500500D01*
X167126000Y-139500500D01*
X167193039Y-139520185D01*
X167238794Y-139572989D01*
X167250000Y-139624500D01*
X167250000Y-140625500D01*
X167230315Y-140692539D01*
X167177511Y-140738294D01*
X167126000Y-140749500D01*
X154124000Y-140749500D01*
X154056961Y-140729815D01*
X154011206Y-140677011D01*
X154000000Y-140625500D01*
X154000000Y-136353713D01*
X154349500Y-136353713D01*
X154349500Y-136566286D01*
X154369844Y-136694737D01*
X154382754Y-136776243D01*
X154447103Y-136974289D01*
X154448444Y-136978414D01*
X154544951Y-137167820D01*
X154669890Y-137339786D01*
X154783430Y-137453326D01*
X154816915Y-137514649D01*
X154811931Y-137584341D01*
X154770059Y-137640274D01*
X154739083Y-137657189D01*
X154607669Y-137706203D01*
X154607664Y-137706206D01*
X154492455Y-137792452D01*
X154492452Y-137792455D01*
X154406206Y-137907664D01*
X154406202Y-137907671D01*
X154355908Y-138042517D01*
X154349501Y-138102116D01*
X154349500Y-138102135D01*
X154349500Y-139897870D01*
X154349501Y-139897876D01*
X154355908Y-139957483D01*
X154406202Y-140092328D01*
X154406206Y-140092335D01*
X154492452Y-140207544D01*
X154492455Y-140207547D01*
X154607664Y-140293793D01*
X154607671Y-140293797D01*
X154742517Y-140344091D01*
X154742516Y-140344091D01*
X154749444Y-140344835D01*
X154802127Y-140350500D01*
X156597872Y-140350499D01*
X156657483Y-140344091D01*
X156792331Y-140293796D01*
X156907546Y-140207546D01*
X156993796Y-140092331D01*
X157042810Y-139960916D01*
X157084681Y-139904984D01*
X157150145Y-139880566D01*
X157218418Y-139895417D01*
X157246673Y-139916569D01*
X157360213Y-140030109D01*
X157532179Y-140155048D01*
X157532181Y-140155049D01*
X157532184Y-140155051D01*
X157721588Y-140251557D01*
X157923757Y-140317246D01*
X158133713Y-140350500D01*
X158133714Y-140350500D01*
X158346286Y-140350500D01*
X158346287Y-140350500D01*
X158556243Y-140317246D01*
X158758412Y-140251557D01*
X158947816Y-140155051D01*
X159034138Y-140092335D01*
X159119786Y-140030109D01*
X159119788Y-140030106D01*
X159119792Y-140030104D01*
X159270104Y-139879792D01*
X159270106Y-139879788D01*
X159270109Y-139879786D01*
X159395048Y-139707820D01*
X159395047Y-139707820D01*
X159395051Y-139707816D01*
X159399514Y-139699054D01*
X159447488Y-139648259D01*
X159515308Y-139631463D01*
X159581444Y-139653999D01*
X159620486Y-139699056D01*
X159624951Y-139707820D01*
X159749890Y-139879786D01*
X159900213Y-140030109D01*
X160072179Y-140155048D01*
X160072181Y-140155049D01*
X160072184Y-140155051D01*
X160261588Y-140251557D01*
X160463757Y-140317246D01*
X160673713Y-140350500D01*
X160673714Y-140350500D01*
X160886286Y-140350500D01*
X160886287Y-140350500D01*
X161096243Y-140317246D01*
X161298412Y-140251557D01*
X161487816Y-140155051D01*
X161574138Y-140092335D01*
X161659786Y-140030109D01*
X161659788Y-140030106D01*
X161659792Y-140030104D01*
X161810104Y-139879792D01*
X161810106Y-139879788D01*
X161810109Y-139879786D01*
X161935048Y-139707820D01*
X161935047Y-139707820D01*
X161935051Y-139707816D01*
X162031557Y-139518412D01*
X162097246Y-139316243D01*
X162130500Y-139106287D01*
X162130500Y-138893713D01*
X162097246Y-138683757D01*
X162031557Y-138481588D01*
X161935051Y-138292184D01*
X161935049Y-138292181D01*
X161935048Y-138292179D01*
X161810109Y-138120213D01*
X161659786Y-137969890D01*
X161487820Y-137844951D01*
X161487115Y-137844591D01*
X161479054Y-137840485D01*
X161428259Y-137792512D01*
X161411463Y-137724692D01*
X161433999Y-137658556D01*
X161479054Y-137619515D01*
X161487816Y-137615051D01*
X161577554Y-137549853D01*
X161659786Y-137490109D01*
X161659788Y-137490106D01*
X161659792Y-137490104D01*
X161810104Y-137339792D01*
X161810106Y-137339788D01*
X161810109Y-137339786D01*
X161935048Y-137167820D01*
X161935047Y-137167820D01*
X161935051Y-137167816D01*
X162031557Y-136978412D01*
X162097246Y-136776243D01*
X162130500Y-136566287D01*
X162130500Y-136353713D01*
X162097246Y-136143757D01*
X162031557Y-135941588D01*
X161935051Y-135752184D01*
X161935049Y-135752181D01*
X161935048Y-135752179D01*
X161810109Y-135580213D01*
X161659786Y-135429890D01*
X161487820Y-135304951D01*
X161298414Y-135208444D01*
X161298413Y-135208443D01*
X161298412Y-135208443D01*
X161096243Y-135142754D01*
X161096241Y-135142753D01*
X161096240Y-135142753D01*
X160934957Y-135117208D01*
X160886287Y-135109500D01*
X160673713Y-135109500D01*
X160625042Y-135117208D01*
X160463760Y-135142753D01*
X160261585Y-135208444D01*
X160072179Y-135304951D01*
X159900213Y-135429890D01*
X159749890Y-135580213D01*
X159624949Y-135752182D01*
X159620484Y-135760946D01*
X159572509Y-135811742D01*
X159504688Y-135828536D01*
X159438553Y-135805998D01*
X159399516Y-135760946D01*
X159395050Y-135752182D01*
X159270109Y-135580213D01*
X159119786Y-135429890D01*
X158947820Y-135304951D01*
X158758414Y-135208444D01*
X158758413Y-135208443D01*
X158758412Y-135208443D01*
X158556243Y-135142754D01*
X158556241Y-135142753D01*
X158556240Y-135142753D01*
X158394957Y-135117208D01*
X158346287Y-135109500D01*
X158133713Y-135109500D01*
X158085042Y-135117208D01*
X157923760Y-135142753D01*
X157721585Y-135208444D01*
X157532179Y-135304951D01*
X157360213Y-135429890D01*
X157209890Y-135580213D01*
X157084949Y-135752182D01*
X157080484Y-135760946D01*
X157032509Y-135811742D01*
X156964688Y-135828536D01*
X156898553Y-135805998D01*
X156859516Y-135760946D01*
X156855050Y-135752182D01*
X156730109Y-135580213D01*
X156579786Y-135429890D01*
X156407820Y-135304951D01*
X156218414Y-135208444D01*
X156218413Y-135208443D01*
X156218412Y-135208443D01*
X156016243Y-135142754D01*
X156016241Y-135142753D01*
X156016240Y-135142753D01*
X155854957Y-135117208D01*
X155806287Y-135109500D01*
X155593713Y-135109500D01*
X155545042Y-135117208D01*
X155383760Y-135142753D01*
X155181585Y-135208444D01*
X154992179Y-135304951D01*
X154820213Y-135429890D01*
X154669890Y-135580213D01*
X154544951Y-135752179D01*
X154448444Y-135941585D01*
X154382753Y-136143760D01*
X154349500Y-136353713D01*
X154000000Y-136353713D01*
X154000000Y-132750000D01*
X153765638Y-132750000D01*
X153698599Y-132730315D01*
X153652844Y-132677511D01*
X153642900Y-132608353D01*
X153651077Y-132578548D01*
X153669735Y-132533501D01*
X153669737Y-132533497D01*
X153700500Y-132378842D01*
X153700500Y-132221158D01*
X153700500Y-132221155D01*
X153700499Y-132221153D01*
X153669737Y-132066503D01*
X153650955Y-132021158D01*
X153609397Y-131920827D01*
X153609390Y-131920814D01*
X153584763Y-131883957D01*
X153542798Y-131821153D01*
X155849500Y-131821153D01*
X155849500Y-131978846D01*
X155880261Y-132133489D01*
X155880264Y-132133501D01*
X155940602Y-132279172D01*
X155940609Y-132279185D01*
X156028210Y-132410288D01*
X156028213Y-132410292D01*
X156139707Y-132521786D01*
X156139711Y-132521789D01*
X156270814Y-132609390D01*
X156270827Y-132609397D01*
X156364068Y-132648018D01*
X156416503Y-132669737D01*
X156571153Y-132700499D01*
X156571156Y-132700500D01*
X156571158Y-132700500D01*
X156728844Y-132700500D01*
X156728845Y-132700499D01*
X156883497Y-132669737D01*
X157029179Y-132609394D01*
X157160289Y-132521789D01*
X157160288Y-132521789D01*
X157165354Y-132518405D01*
X157166659Y-132520358D01*
X157221368Y-132497110D01*
X157290238Y-132508887D01*
X157338850Y-132551382D01*
X157378210Y-132610288D01*
X157378213Y-132610292D01*
X157489710Y-132721789D01*
X157524818Y-132745247D01*
X157569623Y-132798859D01*
X157578330Y-132868184D01*
X157548176Y-132931211D01*
X157488733Y-132967931D01*
X157431736Y-132969966D01*
X157328846Y-132949500D01*
X157328842Y-132949500D01*
X157171158Y-132949500D01*
X157171155Y-132949500D01*
X157016510Y-132980261D01*
X157016498Y-132980264D01*
X156870827Y-133040602D01*
X156870814Y-133040609D01*
X156739711Y-133128210D01*
X156739707Y-133128213D01*
X156628213Y-133239707D01*
X156628210Y-133239711D01*
X156540609Y-133370814D01*
X156540602Y-133370827D01*
X156480264Y-133516498D01*
X156480261Y-133516510D01*
X156449500Y-133671153D01*
X156449500Y-133828846D01*
X156480261Y-133983489D01*
X156480264Y-133983501D01*
X156540602Y-134129172D01*
X156540609Y-134129185D01*
X156628210Y-134260288D01*
X156628213Y-134260292D01*
X156739707Y-134371786D01*
X156739711Y-134371789D01*
X156870814Y-134459390D01*
X156870827Y-134459397D01*
X157016498Y-134519735D01*
X157016503Y-134519737D01*
X157171153Y-134550499D01*
X157171156Y-134550500D01*
X157171158Y-134550500D01*
X157328844Y-134550500D01*
X157328845Y-134550499D01*
X157483497Y-134519737D01*
X157629179Y-134459394D01*
X157760289Y-134371789D01*
X157871789Y-134260289D01*
X157959394Y-134129179D01*
X158019737Y-133983497D01*
X158050500Y-133828842D01*
X158050500Y-133671158D01*
X158050500Y-133671155D01*
X158050499Y-133671153D01*
X158019738Y-133516510D01*
X158019737Y-133516503D01*
X158004214Y-133479027D01*
X157959397Y-133370827D01*
X157959390Y-133370814D01*
X157871789Y-133239711D01*
X157871786Y-133239707D01*
X157760292Y-133128213D01*
X157760288Y-133128210D01*
X157725181Y-133104752D01*
X157680376Y-133051139D01*
X157671669Y-132981814D01*
X157701824Y-132918787D01*
X157761267Y-132882068D01*
X157818264Y-132880033D01*
X157921155Y-132900500D01*
X157921158Y-132900500D01*
X158078844Y-132900500D01*
X158078845Y-132900499D01*
X158233497Y-132869737D01*
X158379179Y-132809394D01*
X158510289Y-132721789D01*
X158621789Y-132610289D01*
X158709394Y-132479179D01*
X158769737Y-132333497D01*
X158800500Y-132178842D01*
X158800500Y-132021158D01*
X158800500Y-132021155D01*
X158800499Y-132021153D01*
X158769737Y-131866503D01*
X158737929Y-131789711D01*
X158709397Y-131720827D01*
X158709390Y-131720814D01*
X158621789Y-131589711D01*
X158621786Y-131589707D01*
X158510292Y-131478213D01*
X158510288Y-131478210D01*
X158379185Y-131390609D01*
X158379172Y-131390602D01*
X158233501Y-131330264D01*
X158233489Y-131330261D01*
X158078845Y-131299500D01*
X158078842Y-131299500D01*
X157921158Y-131299500D01*
X157921155Y-131299500D01*
X157766510Y-131330261D01*
X157766498Y-131330264D01*
X157620827Y-131390602D01*
X157620814Y-131390609D01*
X157484646Y-131481595D01*
X157483350Y-131479655D01*
X157428542Y-131502900D01*
X157359681Y-131491073D01*
X157311149Y-131448617D01*
X157271789Y-131389710D01*
X157160292Y-131278213D01*
X157160288Y-131278210D01*
X157029185Y-131190609D01*
X157029172Y-131190602D01*
X156883501Y-131130264D01*
X156883489Y-131130261D01*
X156728845Y-131099500D01*
X156728842Y-131099500D01*
X156571158Y-131099500D01*
X156571155Y-131099500D01*
X156416510Y-131130261D01*
X156416498Y-131130264D01*
X156270827Y-131190602D01*
X156270814Y-131190609D01*
X156139711Y-131278210D01*
X156139707Y-131278213D01*
X156028213Y-131389707D01*
X156028210Y-131389711D01*
X155940609Y-131520814D01*
X155940602Y-131520827D01*
X155880264Y-131666498D01*
X155880261Y-131666510D01*
X155849500Y-131821153D01*
X153542798Y-131821153D01*
X153521789Y-131789711D01*
X153521786Y-131789707D01*
X153410292Y-131678213D01*
X153410288Y-131678210D01*
X153279185Y-131590609D01*
X153279172Y-131590602D01*
X153133501Y-131530264D01*
X153133489Y-131530261D01*
X152978845Y-131499500D01*
X152978842Y-131499500D01*
X152821158Y-131499500D01*
X152821155Y-131499500D01*
X152666510Y-131530261D01*
X152666498Y-131530264D01*
X152520827Y-131590602D01*
X152520814Y-131590609D01*
X152389711Y-131678210D01*
X152389707Y-131678213D01*
X152278213Y-131789707D01*
X152278210Y-131789711D01*
X152190609Y-131920814D01*
X152190602Y-131920827D01*
X152130264Y-132066498D01*
X152130261Y-132066510D01*
X152099500Y-132221153D01*
X152099500Y-132378846D01*
X152130261Y-132533489D01*
X152130264Y-132533501D01*
X152148923Y-132578548D01*
X152156392Y-132648018D01*
X152125116Y-132710497D01*
X152065027Y-132746148D01*
X152034362Y-132750000D01*
X140250000Y-132750000D01*
X140250000Y-140625500D01*
X140230315Y-140692539D01*
X140177511Y-140738294D01*
X140126000Y-140749500D01*
X137374000Y-140749500D01*
X137306961Y-140729815D01*
X137261206Y-140677011D01*
X137250000Y-140625500D01*
X137250000Y-139624500D01*
X137269685Y-139557461D01*
X137322489Y-139511706D01*
X137374000Y-139500500D01*
X137881113Y-139500500D01*
X137881120Y-139500500D01*
X138141116Y-139466270D01*
X138394419Y-139398398D01*
X138636697Y-139298043D01*
X138863803Y-139166924D01*
X139071851Y-139007282D01*
X139071855Y-139007277D01*
X139071860Y-139007274D01*
X139257274Y-138821860D01*
X139257277Y-138821855D01*
X139257282Y-138821851D01*
X139416924Y-138613803D01*
X139548043Y-138386697D01*
X139555272Y-138369246D01*
X139648394Y-138144428D01*
X139648398Y-138144419D01*
X139716270Y-137891116D01*
X139750500Y-137631120D01*
X139750500Y-137368880D01*
X139716270Y-137108884D01*
X139648398Y-136855581D01*
X139615535Y-136776243D01*
X139548046Y-136613309D01*
X139548041Y-136613299D01*
X139416924Y-136386196D01*
X139257281Y-136178148D01*
X139257274Y-136178140D01*
X139071860Y-135992726D01*
X139071851Y-135992718D01*
X138863803Y-135833075D01*
X138636700Y-135701958D01*
X138636690Y-135701953D01*
X138394428Y-135601605D01*
X138394421Y-135601603D01*
X138394419Y-135601602D01*
X138141116Y-135533730D01*
X138083339Y-135526123D01*
X137881127Y-135499500D01*
X137881120Y-135499500D01*
X137374000Y-135499500D01*
X137306961Y-135479815D01*
X137261206Y-135427011D01*
X137250000Y-135375500D01*
X137250000Y-134363303D01*
X137269685Y-134296264D01*
X137322489Y-134250509D01*
X137341895Y-134243532D01*
X137443186Y-134216392D01*
X137557314Y-134150500D01*
X137650500Y-134057314D01*
X137716392Y-133943186D01*
X137750500Y-133815892D01*
X137750500Y-133684108D01*
X137750500Y-123171153D01*
X152199500Y-123171153D01*
X152199500Y-123328846D01*
X152230261Y-123483489D01*
X152230264Y-123483501D01*
X152290602Y-123629172D01*
X152290609Y-123629185D01*
X152378210Y-123760288D01*
X152378213Y-123760292D01*
X152489707Y-123871786D01*
X152489711Y-123871789D01*
X152620814Y-123959390D01*
X152620827Y-123959397D01*
X152766498Y-124019735D01*
X152766503Y-124019737D01*
X152921153Y-124050499D01*
X152921156Y-124050500D01*
X152921158Y-124050500D01*
X153078844Y-124050500D01*
X153078845Y-124050499D01*
X153233497Y-124019737D01*
X153379179Y-123959394D01*
X153510289Y-123871789D01*
X153621789Y-123760289D01*
X153709394Y-123629179D01*
X153769737Y-123483497D01*
X153800500Y-123328842D01*
X153800500Y-123171158D01*
X153800500Y-123171155D01*
X153800499Y-123171153D01*
X153797970Y-123158439D01*
X153769737Y-123016503D01*
X153754138Y-122978844D01*
X153709394Y-122870820D01*
X153676207Y-122821153D01*
X157049500Y-122821153D01*
X157049500Y-122978846D01*
X157080261Y-123133489D01*
X157080264Y-123133501D01*
X157140602Y-123279172D01*
X157140609Y-123279185D01*
X157228210Y-123410288D01*
X157228213Y-123410292D01*
X157339707Y-123521786D01*
X157339711Y-123521789D01*
X157470814Y-123609390D01*
X157470827Y-123609397D01*
X157616498Y-123669735D01*
X157616503Y-123669737D01*
X157771153Y-123700499D01*
X157771156Y-123700500D01*
X157771158Y-123700500D01*
X157928844Y-123700500D01*
X157928845Y-123700499D01*
X158083497Y-123669737D01*
X158229179Y-123609394D01*
X158360289Y-123521789D01*
X158419355Y-123462722D01*
X158480676Y-123429239D01*
X158550368Y-123434223D01*
X158606302Y-123476094D01*
X158630719Y-123541558D01*
X158628652Y-123574596D01*
X158599500Y-123721153D01*
X158599500Y-123878846D01*
X158630261Y-124033489D01*
X158630264Y-124033501D01*
X158690602Y-124179172D01*
X158690609Y-124179185D01*
X158778210Y-124310288D01*
X158778213Y-124310292D01*
X158889707Y-124421786D01*
X158889711Y-124421789D01*
X159020814Y-124509390D01*
X159020827Y-124509397D01*
X159166498Y-124569735D01*
X159166503Y-124569737D01*
X159321153Y-124600499D01*
X159321156Y-124600500D01*
X159321158Y-124600500D01*
X159478844Y-124600500D01*
X159478845Y-124600499D01*
X159633497Y-124569737D01*
X159779179Y-124509394D01*
X159910289Y-124421789D01*
X160021789Y-124310289D01*
X160109394Y-124179179D01*
X160169737Y-124033497D01*
X160200500Y-123878842D01*
X160200500Y-123721158D01*
X160200500Y-123721155D01*
X160200499Y-123721153D01*
X160182204Y-123629179D01*
X160169737Y-123566503D01*
X160159405Y-123541558D01*
X160109397Y-123420827D01*
X160109390Y-123420814D01*
X160021789Y-123289711D01*
X160021786Y-123289707D01*
X159910292Y-123178213D01*
X159910288Y-123178210D01*
X159779185Y-123090609D01*
X159779172Y-123090602D01*
X159633501Y-123030264D01*
X159633489Y-123030261D01*
X159478845Y-122999500D01*
X159478842Y-122999500D01*
X159321158Y-122999500D01*
X159321155Y-122999500D01*
X159166510Y-123030261D01*
X159166498Y-123030264D01*
X159020827Y-123090602D01*
X159020814Y-123090609D01*
X158889711Y-123178210D01*
X158830645Y-123237276D01*
X158769321Y-123270760D01*
X158699630Y-123265775D01*
X158643696Y-123223904D01*
X158619280Y-123158439D01*
X158621347Y-123125402D01*
X158650500Y-122978844D01*
X158650500Y-122821155D01*
X158650499Y-122821153D01*
X158619738Y-122666510D01*
X158619737Y-122666503D01*
X158603876Y-122628210D01*
X158559397Y-122520827D01*
X158559390Y-122520814D01*
X158471789Y-122389711D01*
X158471786Y-122389707D01*
X158360292Y-122278213D01*
X158360288Y-122278210D01*
X158229185Y-122190609D01*
X158229172Y-122190602D01*
X158083501Y-122130264D01*
X158083489Y-122130261D01*
X157928845Y-122099500D01*
X157928842Y-122099500D01*
X157771158Y-122099500D01*
X157771155Y-122099500D01*
X157616510Y-122130261D01*
X157616498Y-122130264D01*
X157470827Y-122190602D01*
X157470814Y-122190609D01*
X157339711Y-122278210D01*
X157339707Y-122278213D01*
X157228213Y-122389707D01*
X157228210Y-122389711D01*
X157140609Y-122520814D01*
X157140602Y-122520827D01*
X157080264Y-122666498D01*
X157080261Y-122666510D01*
X157049500Y-122821153D01*
X153676207Y-122821153D01*
X153621789Y-122739711D01*
X153621786Y-122739707D01*
X153510292Y-122628213D01*
X153510288Y-122628210D01*
X153379185Y-122540609D01*
X153379172Y-122540602D01*
X153233501Y-122480264D01*
X153233489Y-122480261D01*
X153078845Y-122449500D01*
X153078842Y-122449500D01*
X152921158Y-122449500D01*
X152921155Y-122449500D01*
X152766510Y-122480261D01*
X152766498Y-122480264D01*
X152620827Y-122540602D01*
X152620814Y-122540609D01*
X152489711Y-122628210D01*
X152489707Y-122628213D01*
X152378213Y-122739707D01*
X152378210Y-122739711D01*
X152290609Y-122870814D01*
X152290602Y-122870827D01*
X152230264Y-123016498D01*
X152230261Y-123016510D01*
X152199500Y-123171153D01*
X137750500Y-123171153D01*
X137750500Y-120921153D01*
X154699500Y-120921153D01*
X154699500Y-121078846D01*
X154730261Y-121233489D01*
X154730264Y-121233501D01*
X154790602Y-121379172D01*
X154790609Y-121379185D01*
X154878210Y-121510288D01*
X154878213Y-121510292D01*
X154989707Y-121621786D01*
X154989711Y-121621789D01*
X155120814Y-121709390D01*
X155120827Y-121709397D01*
X155266498Y-121769735D01*
X155266503Y-121769737D01*
X155421153Y-121800499D01*
X155421156Y-121800500D01*
X155421158Y-121800500D01*
X155578844Y-121800500D01*
X155578845Y-121800499D01*
X155733497Y-121769737D01*
X155879179Y-121709394D01*
X156010289Y-121621789D01*
X156121789Y-121510289D01*
X156209394Y-121379179D01*
X156269737Y-121233497D01*
X156300500Y-121078842D01*
X156300500Y-120921158D01*
X156300500Y-120921155D01*
X156284209Y-120839258D01*
X156284209Y-120839257D01*
X156280608Y-120821153D01*
X158599500Y-120821153D01*
X158599500Y-120978846D01*
X158630261Y-121133489D01*
X158630264Y-121133501D01*
X158690602Y-121279172D01*
X158690609Y-121279185D01*
X158778210Y-121410288D01*
X158778213Y-121410292D01*
X158889707Y-121521786D01*
X158889711Y-121521789D01*
X159020814Y-121609390D01*
X159020827Y-121609397D01*
X159166498Y-121669735D01*
X159166503Y-121669737D01*
X159321153Y-121700499D01*
X159321156Y-121700500D01*
X159321158Y-121700500D01*
X159478844Y-121700500D01*
X159478845Y-121700499D01*
X159633497Y-121669737D01*
X159779179Y-121609394D01*
X159910289Y-121521789D01*
X160021789Y-121410289D01*
X160109394Y-121279179D01*
X160169737Y-121133497D01*
X160200500Y-120978842D01*
X160200500Y-120821158D01*
X160200500Y-120821155D01*
X160200499Y-120821153D01*
X160169738Y-120666510D01*
X160169737Y-120666503D01*
X160150812Y-120620814D01*
X160109397Y-120520827D01*
X160109390Y-120520814D01*
X160021789Y-120389711D01*
X160021786Y-120389707D01*
X159910292Y-120278213D01*
X159910288Y-120278210D01*
X159779185Y-120190609D01*
X159779172Y-120190602D01*
X159633501Y-120130264D01*
X159633489Y-120130261D01*
X159478845Y-120099500D01*
X159478842Y-120099500D01*
X159321158Y-120099500D01*
X159321155Y-120099500D01*
X159166510Y-120130261D01*
X159166498Y-120130264D01*
X159020827Y-120190602D01*
X159020814Y-120190609D01*
X158889711Y-120278210D01*
X158889707Y-120278213D01*
X158778213Y-120389707D01*
X158778210Y-120389711D01*
X158690609Y-120520814D01*
X158690602Y-120520827D01*
X158630264Y-120666498D01*
X158630261Y-120666510D01*
X158599500Y-120821153D01*
X156280608Y-120821153D01*
X156269738Y-120766510D01*
X156269737Y-120766503D01*
X156228314Y-120666498D01*
X156209397Y-120620827D01*
X156209390Y-120620814D01*
X156121789Y-120489711D01*
X156121786Y-120489707D01*
X156010292Y-120378213D01*
X156010288Y-120378210D01*
X155879185Y-120290609D01*
X155879172Y-120290602D01*
X155733501Y-120230264D01*
X155733489Y-120230261D01*
X155578845Y-120199500D01*
X155578842Y-120199500D01*
X155421158Y-120199500D01*
X155421155Y-120199500D01*
X155266510Y-120230261D01*
X155266498Y-120230264D01*
X155120827Y-120290602D01*
X155120814Y-120290609D01*
X154989711Y-120378210D01*
X154989707Y-120378213D01*
X154878213Y-120489707D01*
X154878210Y-120489711D01*
X154790609Y-120620814D01*
X154790602Y-120620827D01*
X154730264Y-120766498D01*
X154730261Y-120766510D01*
X154699500Y-120921153D01*
X137750500Y-120921153D01*
X137750500Y-119822902D01*
X137770185Y-119755863D01*
X137822989Y-119710108D01*
X137892147Y-119700164D01*
X137955703Y-119729189D01*
X137989062Y-119775451D01*
X137990605Y-119779178D01*
X137990609Y-119779185D01*
X138078210Y-119910288D01*
X138078213Y-119910292D01*
X138189707Y-120021786D01*
X138189711Y-120021789D01*
X138320814Y-120109390D01*
X138320827Y-120109397D01*
X138466498Y-120169735D01*
X138466503Y-120169737D01*
X138616131Y-120199500D01*
X138621153Y-120200499D01*
X138621156Y-120200500D01*
X138621158Y-120200500D01*
X138778844Y-120200500D01*
X138778845Y-120200499D01*
X138933497Y-120169737D01*
X139079179Y-120109394D01*
X139210289Y-120021789D01*
X139321789Y-119910289D01*
X139409394Y-119779179D01*
X139469737Y-119633497D01*
X139500500Y-119478842D01*
X139500500Y-119321158D01*
X139500500Y-119321155D01*
X139500499Y-119321153D01*
X139484298Y-119239707D01*
X139469737Y-119166503D01*
X139453876Y-119128210D01*
X139409397Y-119020827D01*
X139409390Y-119020814D01*
X139321790Y-118889712D01*
X139321784Y-118889705D01*
X139253232Y-118821153D01*
X146199500Y-118821153D01*
X146199500Y-118978846D01*
X146230261Y-119133489D01*
X146230264Y-119133501D01*
X146290602Y-119279172D01*
X146290609Y-119279185D01*
X146378210Y-119410288D01*
X146378213Y-119410292D01*
X146489707Y-119521786D01*
X146489711Y-119521789D01*
X146620814Y-119609390D01*
X146620827Y-119609397D01*
X146766498Y-119669735D01*
X146766503Y-119669737D01*
X146919469Y-119700164D01*
X146921153Y-119700499D01*
X146921156Y-119700500D01*
X146921158Y-119700500D01*
X147078844Y-119700500D01*
X147078845Y-119700499D01*
X147233497Y-119669737D01*
X147359334Y-119617614D01*
X147379172Y-119609397D01*
X147379172Y-119609396D01*
X147379179Y-119609394D01*
X147510289Y-119521789D01*
X147621789Y-119410289D01*
X147709394Y-119279179D01*
X147733429Y-119221153D01*
X160499500Y-119221153D01*
X160499500Y-119378846D01*
X160530261Y-119533489D01*
X160530264Y-119533501D01*
X160590602Y-119679172D01*
X160590609Y-119679185D01*
X160678210Y-119810288D01*
X160678213Y-119810292D01*
X160789707Y-119921786D01*
X160789711Y-119921789D01*
X160920814Y-120009390D01*
X160920827Y-120009397D01*
X161066498Y-120069735D01*
X161066503Y-120069737D01*
X161216131Y-120099500D01*
X161221153Y-120100499D01*
X161221156Y-120100500D01*
X161221158Y-120100500D01*
X161378844Y-120100500D01*
X161378845Y-120100499D01*
X161533497Y-120069737D01*
X161679179Y-120009394D01*
X161810289Y-119921789D01*
X161921789Y-119810289D01*
X162009394Y-119679179D01*
X162009395Y-119679176D01*
X162009397Y-119679173D01*
X162012719Y-119671153D01*
X163699500Y-119671153D01*
X163699500Y-119828846D01*
X163730261Y-119983489D01*
X163730264Y-119983501D01*
X163790602Y-120129172D01*
X163790609Y-120129185D01*
X163878210Y-120260288D01*
X163878213Y-120260292D01*
X163989707Y-120371786D01*
X163989711Y-120371789D01*
X164120814Y-120459390D01*
X164120827Y-120459397D01*
X164194013Y-120489711D01*
X164266503Y-120519737D01*
X164421153Y-120550499D01*
X164421156Y-120550500D01*
X164421158Y-120550500D01*
X164578844Y-120550500D01*
X164578845Y-120550499D01*
X164733497Y-120519737D01*
X164879179Y-120459394D01*
X165010289Y-120371789D01*
X165121789Y-120260289D01*
X165209394Y-120129179D01*
X165269737Y-119983497D01*
X165300500Y-119828842D01*
X165300500Y-119671158D01*
X165300500Y-119671155D01*
X165300499Y-119671153D01*
X165300217Y-119669735D01*
X165269737Y-119516503D01*
X165254138Y-119478844D01*
X165209397Y-119370827D01*
X165209390Y-119370814D01*
X165121789Y-119239711D01*
X165121786Y-119239707D01*
X165010292Y-119128213D01*
X165010288Y-119128210D01*
X164879185Y-119040609D01*
X164879172Y-119040602D01*
X164733501Y-118980264D01*
X164733489Y-118980261D01*
X164578845Y-118949500D01*
X164578842Y-118949500D01*
X164421158Y-118949500D01*
X164421155Y-118949500D01*
X164266510Y-118980261D01*
X164266498Y-118980264D01*
X164120827Y-119040602D01*
X164120814Y-119040609D01*
X163989711Y-119128210D01*
X163989707Y-119128213D01*
X163878213Y-119239707D01*
X163878210Y-119239711D01*
X163790609Y-119370814D01*
X163790602Y-119370827D01*
X163730264Y-119516498D01*
X163730261Y-119516510D01*
X163699500Y-119671153D01*
X162012719Y-119671153D01*
X162034895Y-119617614D01*
X162034895Y-119617613D01*
X162038298Y-119609397D01*
X162069737Y-119533497D01*
X162100500Y-119378842D01*
X162100500Y-119221158D01*
X162100500Y-119221155D01*
X162100499Y-119221153D01*
X162082012Y-119128213D01*
X162069737Y-119066503D01*
X162069735Y-119066498D01*
X162009397Y-118920827D01*
X162009390Y-118920814D01*
X161921789Y-118789711D01*
X161921786Y-118789707D01*
X161810292Y-118678213D01*
X161810288Y-118678210D01*
X161679185Y-118590609D01*
X161679172Y-118590602D01*
X161533501Y-118530264D01*
X161533489Y-118530261D01*
X161378845Y-118499500D01*
X161378842Y-118499500D01*
X161221158Y-118499500D01*
X161221155Y-118499500D01*
X161066510Y-118530261D01*
X161066498Y-118530264D01*
X160920827Y-118590602D01*
X160920814Y-118590609D01*
X160789711Y-118678210D01*
X160789707Y-118678213D01*
X160678213Y-118789707D01*
X160678210Y-118789711D01*
X160590609Y-118920814D01*
X160590602Y-118920827D01*
X160530264Y-119066498D01*
X160530261Y-119066510D01*
X160499500Y-119221153D01*
X147733429Y-119221153D01*
X147755603Y-119167621D01*
X147755605Y-119167614D01*
X147769737Y-119133497D01*
X147800500Y-118978842D01*
X147800500Y-118821158D01*
X147800500Y-118821155D01*
X147800499Y-118821153D01*
X147774531Y-118690606D01*
X147769737Y-118666503D01*
X147769735Y-118666498D01*
X147709397Y-118520827D01*
X147709390Y-118520814D01*
X147621789Y-118389711D01*
X147621786Y-118389707D01*
X147510292Y-118278213D01*
X147510288Y-118278210D01*
X147379185Y-118190609D01*
X147379172Y-118190602D01*
X147233501Y-118130264D01*
X147233489Y-118130261D01*
X147078845Y-118099500D01*
X147078842Y-118099500D01*
X146921158Y-118099500D01*
X146921155Y-118099500D01*
X146766510Y-118130261D01*
X146766498Y-118130264D01*
X146620827Y-118190602D01*
X146620814Y-118190609D01*
X146489711Y-118278210D01*
X146489707Y-118278213D01*
X146378213Y-118389707D01*
X146378210Y-118389711D01*
X146290609Y-118520814D01*
X146290602Y-118520827D01*
X146230264Y-118666498D01*
X146230261Y-118666510D01*
X146199500Y-118821153D01*
X139253232Y-118821153D01*
X139210292Y-118778213D01*
X139210288Y-118778210D01*
X139079185Y-118690609D01*
X139079172Y-118690602D01*
X138933501Y-118630264D01*
X138933489Y-118630261D01*
X138778845Y-118599500D01*
X138778842Y-118599500D01*
X138621158Y-118599500D01*
X138621155Y-118599500D01*
X138466510Y-118630261D01*
X138466498Y-118630264D01*
X138320827Y-118690602D01*
X138320814Y-118690609D01*
X138189711Y-118778210D01*
X138189707Y-118778213D01*
X138078213Y-118889707D01*
X138078210Y-118889711D01*
X137990609Y-119020814D01*
X137990603Y-119020826D01*
X137989060Y-119024552D01*
X137945218Y-119078954D01*
X137878924Y-119101018D01*
X137811225Y-119083738D01*
X137763615Y-119032599D01*
X137750500Y-118977097D01*
X137750500Y-116171153D01*
X152549500Y-116171153D01*
X152549500Y-116328846D01*
X152580261Y-116483489D01*
X152580264Y-116483501D01*
X152640602Y-116629172D01*
X152640609Y-116629185D01*
X152728210Y-116760288D01*
X152728213Y-116760292D01*
X152839707Y-116871786D01*
X152839711Y-116871789D01*
X152970814Y-116959390D01*
X152970827Y-116959397D01*
X153116498Y-117019735D01*
X153116503Y-117019737D01*
X153271153Y-117050499D01*
X153271156Y-117050500D01*
X153271158Y-117050500D01*
X153428844Y-117050500D01*
X153428845Y-117050499D01*
X153465803Y-117043147D01*
X153563667Y-117023682D01*
X153633258Y-117029909D01*
X153675539Y-117057618D01*
X153739707Y-117121786D01*
X153739711Y-117121789D01*
X153870814Y-117209390D01*
X153870827Y-117209397D01*
X154016498Y-117269735D01*
X154016503Y-117269737D01*
X154171153Y-117300499D01*
X154171156Y-117300500D01*
X154171158Y-117300500D01*
X154328844Y-117300500D01*
X154328845Y-117300499D01*
X154483497Y-117269737D01*
X154629179Y-117209394D01*
X154760289Y-117121789D01*
X154871789Y-117010289D01*
X154959394Y-116879179D01*
X155019737Y-116733497D01*
X155050500Y-116578842D01*
X155050500Y-116421158D01*
X155050500Y-116421155D01*
X155050499Y-116421153D01*
X155019738Y-116266510D01*
X155019737Y-116266503D01*
X154980242Y-116171153D01*
X154959397Y-116120827D01*
X154959390Y-116120814D01*
X154871789Y-115989711D01*
X154871786Y-115989707D01*
X154760292Y-115878213D01*
X154760288Y-115878210D01*
X154629185Y-115790609D01*
X154629172Y-115790602D01*
X154483501Y-115730264D01*
X154483489Y-115730261D01*
X154328845Y-115699500D01*
X154328842Y-115699500D01*
X154171158Y-115699500D01*
X154171155Y-115699500D01*
X154036333Y-115726318D01*
X153966742Y-115720091D01*
X153924461Y-115692382D01*
X153860292Y-115628213D01*
X153860288Y-115628210D01*
X153729185Y-115540609D01*
X153729172Y-115540602D01*
X153583501Y-115480264D01*
X153583489Y-115480261D01*
X153428845Y-115449500D01*
X153428842Y-115449500D01*
X153271158Y-115449500D01*
X153271155Y-115449500D01*
X153116510Y-115480261D01*
X153116498Y-115480264D01*
X152970827Y-115540602D01*
X152970814Y-115540609D01*
X152839711Y-115628210D01*
X152839707Y-115628213D01*
X152728213Y-115739707D01*
X152728210Y-115739711D01*
X152640609Y-115870814D01*
X152640602Y-115870827D01*
X152580264Y-116016498D01*
X152580261Y-116016510D01*
X152549500Y-116171153D01*
X137750500Y-116171153D01*
X137750500Y-113671153D01*
X138199500Y-113671153D01*
X138199500Y-113828846D01*
X138230261Y-113983489D01*
X138230264Y-113983501D01*
X138290602Y-114129172D01*
X138290609Y-114129185D01*
X138378210Y-114260288D01*
X138378213Y-114260292D01*
X138489707Y-114371786D01*
X138489711Y-114371789D01*
X138620814Y-114459390D01*
X138620827Y-114459397D01*
X138766498Y-114519735D01*
X138766503Y-114519737D01*
X138921153Y-114550499D01*
X138921156Y-114550500D01*
X138921158Y-114550500D01*
X139078844Y-114550500D01*
X139078845Y-114550499D01*
X139233497Y-114519737D01*
X139379179Y-114459394D01*
X139510289Y-114371789D01*
X139621789Y-114260289D01*
X139709394Y-114129179D01*
X139712854Y-114120827D01*
X139741984Y-114050499D01*
X139769737Y-113983497D01*
X139800500Y-113828842D01*
X139800500Y-113671158D01*
X139800500Y-113671155D01*
X139800499Y-113671153D01*
X139790438Y-113620574D01*
X139769737Y-113516503D01*
X139709794Y-113371786D01*
X139709397Y-113370827D01*
X139709390Y-113370814D01*
X139621789Y-113239711D01*
X139621786Y-113239707D01*
X139510292Y-113128213D01*
X139510288Y-113128210D01*
X139379185Y-113040609D01*
X139379172Y-113040602D01*
X139233501Y-112980264D01*
X139233489Y-112980261D01*
X139078845Y-112949500D01*
X139078842Y-112949500D01*
X138921158Y-112949500D01*
X138921155Y-112949500D01*
X138766510Y-112980261D01*
X138766498Y-112980264D01*
X138620827Y-113040602D01*
X138620814Y-113040609D01*
X138489711Y-113128210D01*
X138489707Y-113128213D01*
X138378213Y-113239707D01*
X138378210Y-113239711D01*
X138290609Y-113370814D01*
X138290602Y-113370827D01*
X138230264Y-113516498D01*
X138230261Y-113516510D01*
X138199500Y-113671153D01*
X137750500Y-113671153D01*
X137750500Y-112671153D01*
X149699500Y-112671153D01*
X149699500Y-112828846D01*
X149730261Y-112983489D01*
X149730264Y-112983501D01*
X149790602Y-113129172D01*
X149790609Y-113129185D01*
X149878210Y-113260288D01*
X149878213Y-113260292D01*
X149989707Y-113371786D01*
X149989711Y-113371789D01*
X150120814Y-113459390D01*
X150120827Y-113459397D01*
X150244054Y-113510439D01*
X150298458Y-113554280D01*
X150320523Y-113620574D01*
X150303244Y-113688273D01*
X150252107Y-113735884D01*
X150244054Y-113739561D01*
X150120827Y-113790602D01*
X150120814Y-113790609D01*
X149989711Y-113878210D01*
X149989707Y-113878213D01*
X149878213Y-113989707D01*
X149878210Y-113989711D01*
X149790609Y-114120814D01*
X149790602Y-114120827D01*
X149730264Y-114266498D01*
X149730261Y-114266510D01*
X149699500Y-114421153D01*
X149699500Y-114578846D01*
X149730261Y-114733489D01*
X149730264Y-114733501D01*
X149790602Y-114879172D01*
X149790609Y-114879185D01*
X149878210Y-115010288D01*
X149878213Y-115010292D01*
X149989707Y-115121786D01*
X149989711Y-115121789D01*
X150120814Y-115209390D01*
X150120827Y-115209397D01*
X150266498Y-115269735D01*
X150266503Y-115269737D01*
X150421153Y-115300499D01*
X150421156Y-115300500D01*
X150421158Y-115300500D01*
X150578844Y-115300500D01*
X150578845Y-115300499D01*
X150733497Y-115269737D01*
X150879179Y-115209394D01*
X151010289Y-115121789D01*
X151121789Y-115010289D01*
X151209394Y-114879179D01*
X151269737Y-114733497D01*
X151300500Y-114578842D01*
X151300500Y-114421158D01*
X151300500Y-114421155D01*
X151300499Y-114421153D01*
X151269738Y-114266510D01*
X151269737Y-114266503D01*
X151267163Y-114260288D01*
X151209397Y-114120827D01*
X151209390Y-114120814D01*
X151121789Y-113989711D01*
X151121786Y-113989707D01*
X151010292Y-113878213D01*
X151010288Y-113878210D01*
X150879185Y-113790609D01*
X150879172Y-113790602D01*
X150755945Y-113739561D01*
X150701541Y-113695721D01*
X150679476Y-113629427D01*
X150696755Y-113561727D01*
X150747892Y-113514116D01*
X150755945Y-113510439D01*
X150879172Y-113459397D01*
X150879172Y-113459396D01*
X150879179Y-113459394D01*
X151010289Y-113371789D01*
X151121789Y-113260289D01*
X151181348Y-113171153D01*
X154449500Y-113171153D01*
X154449500Y-113328846D01*
X154480261Y-113483489D01*
X154480264Y-113483501D01*
X154540602Y-113629172D01*
X154540609Y-113629185D01*
X154628210Y-113760288D01*
X154628213Y-113760292D01*
X154739707Y-113871786D01*
X154739711Y-113871789D01*
X154870814Y-113959390D01*
X154870827Y-113959397D01*
X154944013Y-113989711D01*
X155016503Y-114019737D01*
X155171153Y-114050499D01*
X155171156Y-114050500D01*
X155171158Y-114050500D01*
X155328844Y-114050500D01*
X155328845Y-114050499D01*
X155483497Y-114019737D01*
X155629179Y-113959394D01*
X155760289Y-113871789D01*
X155871789Y-113760289D01*
X155959394Y-113629179D01*
X156019737Y-113483497D01*
X156050500Y-113328842D01*
X156050500Y-113171158D01*
X156050500Y-113171155D01*
X156050499Y-113171153D01*
X156024531Y-113040606D01*
X156019737Y-113016503D01*
X156006062Y-112983489D01*
X155959397Y-112870827D01*
X155959390Y-112870814D01*
X155871789Y-112739711D01*
X155871786Y-112739707D01*
X155760292Y-112628213D01*
X155760288Y-112628210D01*
X155629185Y-112540609D01*
X155629172Y-112540602D01*
X155483501Y-112480264D01*
X155483489Y-112480261D01*
X155328845Y-112449500D01*
X155328842Y-112449500D01*
X155171158Y-112449500D01*
X155171155Y-112449500D01*
X155016510Y-112480261D01*
X155016498Y-112480264D01*
X154870827Y-112540602D01*
X154870814Y-112540609D01*
X154739711Y-112628210D01*
X154739707Y-112628213D01*
X154628213Y-112739707D01*
X154628210Y-112739711D01*
X154540609Y-112870814D01*
X154540602Y-112870827D01*
X154480264Y-113016498D01*
X154480261Y-113016510D01*
X154449500Y-113171153D01*
X151181348Y-113171153D01*
X151209394Y-113129179D01*
X151269737Y-112983497D01*
X151300500Y-112828842D01*
X151300500Y-112671158D01*
X151300500Y-112671155D01*
X151300499Y-112671153D01*
X151274531Y-112540606D01*
X151269737Y-112516503D01*
X151269735Y-112516498D01*
X151209397Y-112370827D01*
X151209390Y-112370814D01*
X151121789Y-112239711D01*
X151121786Y-112239707D01*
X151010292Y-112128213D01*
X151010288Y-112128210D01*
X150879185Y-112040609D01*
X150879172Y-112040602D01*
X150733501Y-111980264D01*
X150733489Y-111980261D01*
X150578845Y-111949500D01*
X150578842Y-111949500D01*
X150421158Y-111949500D01*
X150421155Y-111949500D01*
X150266510Y-111980261D01*
X150266498Y-111980264D01*
X150120827Y-112040602D01*
X150120814Y-112040609D01*
X149989711Y-112128210D01*
X149989707Y-112128213D01*
X149878213Y-112239707D01*
X149878210Y-112239711D01*
X149790609Y-112370814D01*
X149790602Y-112370827D01*
X149730264Y-112516498D01*
X149730261Y-112516510D01*
X149699500Y-112671153D01*
X137750500Y-112671153D01*
X137750500Y-84421153D01*
X138199500Y-84421153D01*
X138199500Y-111078846D01*
X138230261Y-111233489D01*
X138230264Y-111233501D01*
X138290602Y-111379172D01*
X138290609Y-111379185D01*
X138378210Y-111510288D01*
X138378213Y-111510292D01*
X138489707Y-111621786D01*
X138489711Y-111621789D01*
X138620814Y-111709390D01*
X138620827Y-111709397D01*
X138766498Y-111769735D01*
X138766503Y-111769737D01*
X138921153Y-111800499D01*
X138921156Y-111800500D01*
X138921158Y-111800500D01*
X139078844Y-111800500D01*
X139078845Y-111800499D01*
X139233497Y-111769737D01*
X139379179Y-111709394D01*
X139510289Y-111621789D01*
X139621789Y-111510289D01*
X139709394Y-111379179D01*
X139769737Y-111233497D01*
X139782138Y-111171153D01*
X151949500Y-111171153D01*
X151949500Y-111328846D01*
X151980261Y-111483489D01*
X151980264Y-111483501D01*
X152040602Y-111629172D01*
X152040609Y-111629185D01*
X152128210Y-111760288D01*
X152128213Y-111760292D01*
X152239707Y-111871786D01*
X152239711Y-111871789D01*
X152370814Y-111959390D01*
X152370827Y-111959397D01*
X152516498Y-112019735D01*
X152516503Y-112019737D01*
X152671153Y-112050499D01*
X152671156Y-112050500D01*
X152671158Y-112050500D01*
X152828844Y-112050500D01*
X152828845Y-112050499D01*
X152983497Y-112019737D01*
X153129179Y-111959394D01*
X153260289Y-111871789D01*
X153371789Y-111760289D01*
X153459394Y-111629179D01*
X153519737Y-111483497D01*
X153550500Y-111328842D01*
X153550500Y-111171158D01*
X153550500Y-111171155D01*
X153550499Y-111171153D01*
X153519738Y-111016510D01*
X153519737Y-111016503D01*
X153519735Y-111016498D01*
X153459397Y-110870827D01*
X153459390Y-110870814D01*
X153371789Y-110739711D01*
X153371786Y-110739707D01*
X153260292Y-110628213D01*
X153260288Y-110628210D01*
X153129185Y-110540609D01*
X153129172Y-110540602D01*
X152983501Y-110480264D01*
X152983489Y-110480261D01*
X152828845Y-110449500D01*
X152828842Y-110449500D01*
X152671158Y-110449500D01*
X152671155Y-110449500D01*
X152516510Y-110480261D01*
X152516498Y-110480264D01*
X152370827Y-110540602D01*
X152370814Y-110540609D01*
X152239711Y-110628210D01*
X152239707Y-110628213D01*
X152128213Y-110739707D01*
X152128210Y-110739711D01*
X152040609Y-110870814D01*
X152040602Y-110870827D01*
X151980264Y-111016498D01*
X151980261Y-111016510D01*
X151949500Y-111171153D01*
X139782138Y-111171153D01*
X139788161Y-111140874D01*
X139800500Y-111078844D01*
X139800500Y-109671153D01*
X147949500Y-109671153D01*
X147949500Y-109828846D01*
X147980261Y-109983489D01*
X147980264Y-109983501D01*
X148040602Y-110129172D01*
X148040609Y-110129185D01*
X148128210Y-110260288D01*
X148128213Y-110260292D01*
X148239707Y-110371786D01*
X148239711Y-110371789D01*
X148370814Y-110459390D01*
X148370827Y-110459397D01*
X148516498Y-110519735D01*
X148516503Y-110519737D01*
X148671153Y-110550499D01*
X148671156Y-110550500D01*
X148671158Y-110550500D01*
X148828844Y-110550500D01*
X148828845Y-110550499D01*
X148983497Y-110519737D01*
X149129179Y-110459394D01*
X149260289Y-110371789D01*
X149371789Y-110260289D01*
X149459394Y-110129179D01*
X149519737Y-109983497D01*
X149550500Y-109828842D01*
X149550500Y-109671158D01*
X149550500Y-109671155D01*
X149550499Y-109671153D01*
X149519738Y-109516510D01*
X149519737Y-109516503D01*
X149480242Y-109421153D01*
X156949500Y-109421153D01*
X156949500Y-109578846D01*
X156980261Y-109733489D01*
X156980264Y-109733501D01*
X157040602Y-109879172D01*
X157040609Y-109879185D01*
X157128210Y-110010288D01*
X157128213Y-110010292D01*
X157239707Y-110121786D01*
X157239711Y-110121789D01*
X157370814Y-110209390D01*
X157370827Y-110209397D01*
X157516498Y-110269735D01*
X157516503Y-110269737D01*
X157671153Y-110300499D01*
X157671156Y-110300500D01*
X157671158Y-110300500D01*
X157828844Y-110300500D01*
X157828845Y-110300499D01*
X157983497Y-110269737D01*
X158129179Y-110209394D01*
X158260289Y-110121789D01*
X158371789Y-110010289D01*
X158459394Y-109879179D01*
X158519737Y-109733497D01*
X158550500Y-109578842D01*
X158550500Y-109421158D01*
X158550500Y-109421155D01*
X158550499Y-109421153D01*
X158519738Y-109266510D01*
X158519737Y-109266503D01*
X158519735Y-109266498D01*
X158459397Y-109120827D01*
X158459390Y-109120814D01*
X158371789Y-108989711D01*
X158371786Y-108989707D01*
X158260292Y-108878213D01*
X158260288Y-108878210D01*
X158129185Y-108790609D01*
X158129172Y-108790602D01*
X157983501Y-108730264D01*
X157983489Y-108730261D01*
X157828845Y-108699500D01*
X157828842Y-108699500D01*
X157671158Y-108699500D01*
X157671155Y-108699500D01*
X157516510Y-108730261D01*
X157516498Y-108730264D01*
X157370827Y-108790602D01*
X157370814Y-108790609D01*
X157239711Y-108878210D01*
X157239707Y-108878213D01*
X157128213Y-108989707D01*
X157128210Y-108989711D01*
X157040609Y-109120814D01*
X157040602Y-109120827D01*
X156980264Y-109266498D01*
X156980261Y-109266510D01*
X156949500Y-109421153D01*
X149480242Y-109421153D01*
X149479933Y-109420408D01*
X149459397Y-109370827D01*
X149459390Y-109370814D01*
X149371789Y-109239711D01*
X149371786Y-109239707D01*
X149260292Y-109128213D01*
X149260288Y-109128210D01*
X149129185Y-109040609D01*
X149129172Y-109040602D01*
X148983501Y-108980264D01*
X148983489Y-108980261D01*
X148828845Y-108949500D01*
X148828842Y-108949500D01*
X148671158Y-108949500D01*
X148671155Y-108949500D01*
X148516510Y-108980261D01*
X148516498Y-108980264D01*
X148370827Y-109040602D01*
X148370814Y-109040609D01*
X148239711Y-109128210D01*
X148239707Y-109128213D01*
X148128213Y-109239707D01*
X148128210Y-109239711D01*
X148040609Y-109370814D01*
X148040602Y-109370827D01*
X147980264Y-109516498D01*
X147980261Y-109516510D01*
X147949500Y-109671153D01*
X139800500Y-109671153D01*
X139800500Y-106671153D01*
X152449500Y-106671153D01*
X152449500Y-106828846D01*
X152480261Y-106983489D01*
X152480264Y-106983501D01*
X152540602Y-107129172D01*
X152540609Y-107129185D01*
X152628210Y-107260288D01*
X152628213Y-107260292D01*
X152739707Y-107371786D01*
X152739711Y-107371789D01*
X152870814Y-107459390D01*
X152870827Y-107459397D01*
X153016498Y-107519735D01*
X153016503Y-107519737D01*
X153039020Y-107524216D01*
X153056921Y-107527777D01*
X153118832Y-107560161D01*
X153153406Y-107620877D01*
X153154346Y-107625197D01*
X153155995Y-107633488D01*
X153155999Y-107633501D01*
X153216337Y-107779172D01*
X153216344Y-107779185D01*
X153303945Y-107910288D01*
X153303948Y-107910292D01*
X153415442Y-108021786D01*
X153415446Y-108021789D01*
X153546549Y-108109390D01*
X153546562Y-108109397D01*
X153692233Y-108169735D01*
X153692238Y-108169737D01*
X153846888Y-108200499D01*
X153846891Y-108200500D01*
X153846893Y-108200500D01*
X154004579Y-108200500D01*
X154004580Y-108200499D01*
X154152113Y-108171153D01*
X158449500Y-108171153D01*
X158449500Y-108328846D01*
X158480261Y-108483489D01*
X158480264Y-108483501D01*
X158540602Y-108629172D01*
X158540609Y-108629185D01*
X158628210Y-108760288D01*
X158628213Y-108760292D01*
X158739707Y-108871786D01*
X158739711Y-108871789D01*
X158870814Y-108959390D01*
X158870827Y-108959397D01*
X159016498Y-109019735D01*
X159016503Y-109019737D01*
X159121398Y-109040602D01*
X159160233Y-109048327D01*
X159222144Y-109080712D01*
X159256718Y-109141427D01*
X159252979Y-109211197D01*
X159250603Y-109217396D01*
X159230264Y-109266498D01*
X159230261Y-109266510D01*
X159199500Y-109421153D01*
X159199500Y-109578846D01*
X159230261Y-109733489D01*
X159230264Y-109733501D01*
X159290602Y-109879172D01*
X159290609Y-109879185D01*
X159378210Y-110010288D01*
X159378213Y-110010292D01*
X159489707Y-110121786D01*
X159489711Y-110121789D01*
X159620814Y-110209390D01*
X159620827Y-110209397D01*
X159766498Y-110269735D01*
X159766503Y-110269737D01*
X159921153Y-110300499D01*
X159921156Y-110300500D01*
X159921158Y-110300500D01*
X160078844Y-110300500D01*
X160078845Y-110300499D01*
X160233497Y-110269737D01*
X160379179Y-110209394D01*
X160510289Y-110121789D01*
X160621789Y-110010289D01*
X160709394Y-109879179D01*
X160769737Y-109733497D01*
X160800500Y-109578842D01*
X160800500Y-109421158D01*
X160800500Y-109421155D01*
X160800499Y-109421153D01*
X160769738Y-109266510D01*
X160769737Y-109266503D01*
X160769735Y-109266498D01*
X160709397Y-109120827D01*
X160709390Y-109120814D01*
X160621789Y-108989711D01*
X160621786Y-108989707D01*
X160510292Y-108878213D01*
X160510288Y-108878210D01*
X160379185Y-108790609D01*
X160379172Y-108790602D01*
X160233501Y-108730264D01*
X160233491Y-108730261D01*
X160089765Y-108701672D01*
X160027854Y-108669287D01*
X159993280Y-108608571D01*
X159997020Y-108538802D01*
X159999389Y-108532620D01*
X160019737Y-108483497D01*
X160050500Y-108328842D01*
X160050500Y-108171158D01*
X160050500Y-108171155D01*
X160050499Y-108171153D01*
X160020788Y-108021789D01*
X160019737Y-108016503D01*
X160019735Y-108016498D01*
X159959397Y-107870827D01*
X159959390Y-107870814D01*
X159871789Y-107739711D01*
X159871786Y-107739707D01*
X159760292Y-107628213D01*
X159760288Y-107628210D01*
X159629185Y-107540609D01*
X159629172Y-107540602D01*
X159483501Y-107480264D01*
X159483489Y-107480261D01*
X159328845Y-107449500D01*
X159328842Y-107449500D01*
X159171158Y-107449500D01*
X159171155Y-107449500D01*
X159016510Y-107480261D01*
X159016498Y-107480264D01*
X158870827Y-107540602D01*
X158870814Y-107540609D01*
X158739711Y-107628210D01*
X158739707Y-107628213D01*
X158628213Y-107739707D01*
X158628210Y-107739711D01*
X158540609Y-107870814D01*
X158540602Y-107870827D01*
X158480264Y-108016498D01*
X158480261Y-108016510D01*
X158449500Y-108171153D01*
X154152113Y-108171153D01*
X154159232Y-108169737D01*
X154277327Y-108120821D01*
X154304907Y-108109397D01*
X154304907Y-108109396D01*
X154304914Y-108109394D01*
X154304920Y-108109390D01*
X154375899Y-108061964D01*
X154406959Y-108041209D01*
X154436024Y-108021789D01*
X154547524Y-107910289D01*
X154635129Y-107779179D01*
X154695472Y-107633497D01*
X154726235Y-107478842D01*
X154726235Y-107321158D01*
X154726235Y-107321155D01*
X154726234Y-107321153D01*
X154695473Y-107166510D01*
X154695472Y-107166503D01*
X154695470Y-107166498D01*
X154635132Y-107020827D01*
X154635125Y-107020814D01*
X154547524Y-106889711D01*
X154547521Y-106889707D01*
X154436027Y-106778213D01*
X154436023Y-106778210D01*
X154304920Y-106690609D01*
X154304907Y-106690602D01*
X154159236Y-106630264D01*
X154159226Y-106630261D01*
X154118811Y-106622222D01*
X154056900Y-106589836D01*
X154022326Y-106529120D01*
X154021397Y-106524849D01*
X154019737Y-106516503D01*
X153995599Y-106458230D01*
X153959397Y-106370827D01*
X153959390Y-106370814D01*
X153871789Y-106239711D01*
X153871786Y-106239707D01*
X153760292Y-106128213D01*
X153760288Y-106128210D01*
X153629185Y-106040609D01*
X153629172Y-106040602D01*
X153483501Y-105980264D01*
X153483489Y-105980261D01*
X153328845Y-105949500D01*
X153328842Y-105949500D01*
X153171158Y-105949500D01*
X153171155Y-105949500D01*
X153016510Y-105980261D01*
X153016498Y-105980264D01*
X152870827Y-106040602D01*
X152870814Y-106040609D01*
X152739711Y-106128210D01*
X152739707Y-106128213D01*
X152628213Y-106239707D01*
X152628210Y-106239711D01*
X152540609Y-106370814D01*
X152540602Y-106370827D01*
X152480264Y-106516498D01*
X152480261Y-106516510D01*
X152449500Y-106671153D01*
X139800500Y-106671153D01*
X139800500Y-104121153D01*
X145299500Y-104121153D01*
X145299500Y-104278846D01*
X145330261Y-104433489D01*
X145330264Y-104433501D01*
X145390602Y-104579172D01*
X145390609Y-104579185D01*
X145478210Y-104710288D01*
X145478213Y-104710292D01*
X145589707Y-104821786D01*
X145589711Y-104821789D01*
X145720814Y-104909390D01*
X145720827Y-104909397D01*
X145856158Y-104965452D01*
X145866503Y-104969737D01*
X146021153Y-105000499D01*
X146021156Y-105000500D01*
X146021158Y-105000500D01*
X146178844Y-105000500D01*
X146178845Y-105000499D01*
X146333497Y-104969737D01*
X146401315Y-104941645D01*
X146470782Y-104934177D01*
X146533261Y-104965452D01*
X146536447Y-104968526D01*
X146589707Y-105021786D01*
X146589711Y-105021789D01*
X146720814Y-105109390D01*
X146720827Y-105109397D01*
X146866498Y-105169735D01*
X146866503Y-105169737D01*
X147021153Y-105200499D01*
X147021156Y-105200500D01*
X147021158Y-105200500D01*
X147178844Y-105200500D01*
X147178845Y-105200499D01*
X147333497Y-105169737D01*
X147479179Y-105109394D01*
X147610289Y-105021789D01*
X147710925Y-104921153D01*
X163699500Y-104921153D01*
X163699500Y-105078846D01*
X163730261Y-105233489D01*
X163730264Y-105233501D01*
X163790602Y-105379172D01*
X163790609Y-105379185D01*
X163878210Y-105510288D01*
X163878213Y-105510292D01*
X163989707Y-105621786D01*
X163989711Y-105621789D01*
X164120814Y-105709390D01*
X164120827Y-105709397D01*
X164266498Y-105769735D01*
X164266503Y-105769737D01*
X164421153Y-105800499D01*
X164421156Y-105800500D01*
X164421158Y-105800500D01*
X164578844Y-105800500D01*
X164578845Y-105800499D01*
X164733497Y-105769737D01*
X164879179Y-105709394D01*
X165010289Y-105621789D01*
X165121789Y-105510289D01*
X165209394Y-105379179D01*
X165269737Y-105233497D01*
X165300500Y-105078842D01*
X165300500Y-104921158D01*
X165300500Y-104921155D01*
X165300499Y-104921153D01*
X165280734Y-104821789D01*
X165269737Y-104766503D01*
X165242398Y-104700500D01*
X165209397Y-104620827D01*
X165209390Y-104620814D01*
X165121789Y-104489711D01*
X165121786Y-104489707D01*
X165010292Y-104378213D01*
X165010288Y-104378210D01*
X164879185Y-104290609D01*
X164879172Y-104290602D01*
X164733501Y-104230264D01*
X164733489Y-104230261D01*
X164578845Y-104199500D01*
X164578842Y-104199500D01*
X164421158Y-104199500D01*
X164421155Y-104199500D01*
X164266510Y-104230261D01*
X164266498Y-104230264D01*
X164120827Y-104290602D01*
X164120814Y-104290609D01*
X163989711Y-104378210D01*
X163989707Y-104378213D01*
X163878213Y-104489707D01*
X163878210Y-104489711D01*
X163790609Y-104620814D01*
X163790602Y-104620827D01*
X163730264Y-104766498D01*
X163730261Y-104766510D01*
X163699500Y-104921153D01*
X147710925Y-104921153D01*
X147721789Y-104910289D01*
X147809394Y-104779179D01*
X147817074Y-104760635D01*
X147822217Y-104752266D01*
X147841146Y-104735179D01*
X147857145Y-104715324D01*
X147868473Y-104710512D01*
X147874082Y-104705450D01*
X147884383Y-104703754D01*
X147903678Y-104695559D01*
X148033497Y-104669737D01*
X148151592Y-104620821D01*
X148179172Y-104609397D01*
X148179172Y-104609396D01*
X148179179Y-104609394D01*
X148310289Y-104521789D01*
X148326665Y-104505412D01*
X148387986Y-104471926D01*
X148457678Y-104476909D01*
X148483237Y-104489989D01*
X148533582Y-104523628D01*
X148533593Y-104523634D01*
X148667676Y-104579172D01*
X148679269Y-104583974D01*
X148833919Y-104614736D01*
X148833922Y-104614737D01*
X148833924Y-104614737D01*
X148991610Y-104614737D01*
X148991611Y-104614736D01*
X149146263Y-104583974D01*
X149291945Y-104523631D01*
X149423055Y-104436026D01*
X149534555Y-104324526D01*
X149622160Y-104193416D01*
X149682503Y-104047734D01*
X149713266Y-103893079D01*
X149713266Y-103735395D01*
X149713266Y-103735392D01*
X149713265Y-103735390D01*
X149682503Y-103580740D01*
X149681456Y-103578213D01*
X149622163Y-103435064D01*
X149622156Y-103435051D01*
X149534555Y-103303948D01*
X149534552Y-103303944D01*
X149451761Y-103221153D01*
X156799500Y-103221153D01*
X156799500Y-103378846D01*
X156830261Y-103533489D01*
X156830264Y-103533501D01*
X156890602Y-103679172D01*
X156890609Y-103679185D01*
X156978210Y-103810288D01*
X156978213Y-103810292D01*
X157089707Y-103921786D01*
X157089711Y-103921789D01*
X157220814Y-104009390D01*
X157220827Y-104009397D01*
X157313392Y-104047738D01*
X157366503Y-104069737D01*
X157521153Y-104100499D01*
X157521156Y-104100500D01*
X157521158Y-104100500D01*
X157678844Y-104100500D01*
X157678845Y-104100499D01*
X157833497Y-104069737D01*
X157979179Y-104009394D01*
X158110289Y-103921789D01*
X158221789Y-103810289D01*
X158309394Y-103679179D01*
X158369737Y-103533497D01*
X158400500Y-103378842D01*
X158400500Y-103221158D01*
X158400500Y-103221155D01*
X158400499Y-103221153D01*
X158377363Y-103104843D01*
X158369737Y-103066503D01*
X158347881Y-103013737D01*
X158309397Y-102920827D01*
X158309390Y-102920814D01*
X158221789Y-102789711D01*
X158221786Y-102789707D01*
X158110292Y-102678213D01*
X158110288Y-102678210D01*
X157979185Y-102590609D01*
X157979172Y-102590602D01*
X157833501Y-102530264D01*
X157833489Y-102530261D01*
X157678845Y-102499500D01*
X157678842Y-102499500D01*
X157521158Y-102499500D01*
X157521155Y-102499500D01*
X157366510Y-102530261D01*
X157366498Y-102530264D01*
X157220827Y-102590602D01*
X157220814Y-102590609D01*
X157089711Y-102678210D01*
X157089707Y-102678213D01*
X156978213Y-102789707D01*
X156978210Y-102789711D01*
X156890609Y-102920814D01*
X156890602Y-102920827D01*
X156830264Y-103066498D01*
X156830261Y-103066510D01*
X156799500Y-103221153D01*
X149451761Y-103221153D01*
X149423058Y-103192450D01*
X149423054Y-103192447D01*
X149291951Y-103104846D01*
X149291938Y-103104839D01*
X149146267Y-103044501D01*
X149146255Y-103044498D01*
X148991611Y-103013737D01*
X148991608Y-103013737D01*
X148833924Y-103013737D01*
X148833921Y-103013737D01*
X148679276Y-103044498D01*
X148679264Y-103044501D01*
X148533593Y-103104839D01*
X148533580Y-103104846D01*
X148402480Y-103192445D01*
X148402473Y-103192450D01*
X148386094Y-103208829D01*
X148324769Y-103242311D01*
X148255078Y-103237324D01*
X148229526Y-103224246D01*
X148179185Y-103190609D01*
X148179172Y-103190602D01*
X148033501Y-103130264D01*
X148033489Y-103130261D01*
X147878845Y-103099500D01*
X147878842Y-103099500D01*
X147721158Y-103099500D01*
X147721155Y-103099500D01*
X147566510Y-103130261D01*
X147566498Y-103130264D01*
X147420827Y-103190602D01*
X147420814Y-103190609D01*
X147289711Y-103278210D01*
X147289707Y-103278213D01*
X147178213Y-103389707D01*
X147178210Y-103389711D01*
X147090609Y-103520814D01*
X147090603Y-103520826D01*
X147086688Y-103530278D01*
X147084596Y-103532873D01*
X147084068Y-103536166D01*
X147062829Y-103559884D01*
X147042846Y-103584681D01*
X147039019Y-103586473D01*
X147037458Y-103588217D01*
X147023798Y-103593603D01*
X147005119Y-103602354D01*
X147000755Y-103603558D01*
X146866503Y-103630263D01*
X146791614Y-103661281D01*
X146784223Y-103663322D01*
X146756637Y-103662872D01*
X146729213Y-103665820D01*
X146722202Y-103662310D01*
X146714362Y-103662183D01*
X146691400Y-103646891D01*
X146666734Y-103634544D01*
X146663551Y-103631472D01*
X146610292Y-103578213D01*
X146610288Y-103578210D01*
X146479185Y-103490609D01*
X146479172Y-103490602D01*
X146333501Y-103430264D01*
X146333489Y-103430261D01*
X146178845Y-103399500D01*
X146178842Y-103399500D01*
X146021158Y-103399500D01*
X146021155Y-103399500D01*
X145866510Y-103430261D01*
X145866498Y-103430264D01*
X145720827Y-103490602D01*
X145720814Y-103490609D01*
X145589711Y-103578210D01*
X145589707Y-103578213D01*
X145478213Y-103689707D01*
X145478210Y-103689711D01*
X145390609Y-103820814D01*
X145390602Y-103820827D01*
X145330264Y-103966498D01*
X145330261Y-103966510D01*
X145299500Y-104121153D01*
X139800500Y-104121153D01*
X139800500Y-102422902D01*
X139820185Y-102355863D01*
X139872989Y-102310108D01*
X139942147Y-102300164D01*
X140005703Y-102329189D01*
X140039062Y-102375451D01*
X140040605Y-102379178D01*
X140040609Y-102379185D01*
X140128210Y-102510288D01*
X140128213Y-102510292D01*
X140239707Y-102621786D01*
X140239711Y-102621789D01*
X140370814Y-102709390D01*
X140370827Y-102709397D01*
X140516498Y-102769735D01*
X140516503Y-102769737D01*
X140671153Y-102800499D01*
X140671156Y-102800500D01*
X140671158Y-102800500D01*
X140828844Y-102800500D01*
X140828845Y-102800499D01*
X140983497Y-102769737D01*
X141129179Y-102709394D01*
X141260289Y-102621789D01*
X141371789Y-102510289D01*
X141459394Y-102379179D01*
X141519737Y-102233497D01*
X141550500Y-102078842D01*
X141550500Y-101921158D01*
X141550500Y-101921155D01*
X141550499Y-101921153D01*
X141519738Y-101766510D01*
X141519737Y-101766503D01*
X141519735Y-101766498D01*
X141459397Y-101620827D01*
X141459390Y-101620814D01*
X141371789Y-101489711D01*
X141371786Y-101489707D01*
X141260292Y-101378213D01*
X141260288Y-101378210D01*
X141129185Y-101290609D01*
X141129172Y-101290602D01*
X140983501Y-101230264D01*
X140983489Y-101230261D01*
X140828845Y-101199500D01*
X140828842Y-101199500D01*
X140671158Y-101199500D01*
X140671155Y-101199500D01*
X140516510Y-101230261D01*
X140516498Y-101230264D01*
X140370827Y-101290602D01*
X140370814Y-101290609D01*
X140239711Y-101378210D01*
X140239707Y-101378213D01*
X140128213Y-101489707D01*
X140128210Y-101489711D01*
X140040609Y-101620814D01*
X140040603Y-101620826D01*
X140039060Y-101624552D01*
X139995218Y-101678954D01*
X139928924Y-101701018D01*
X139861225Y-101683738D01*
X139813615Y-101632599D01*
X139800500Y-101577097D01*
X139800500Y-97672902D01*
X139820185Y-97605863D01*
X139872989Y-97560108D01*
X139942147Y-97550164D01*
X140005703Y-97579189D01*
X140039062Y-97625451D01*
X140040605Y-97629178D01*
X140040609Y-97629185D01*
X140128210Y-97760288D01*
X140128213Y-97760292D01*
X140239707Y-97871786D01*
X140239711Y-97871789D01*
X140370814Y-97959390D01*
X140370827Y-97959397D01*
X140516498Y-98019735D01*
X140516503Y-98019737D01*
X140671153Y-98050499D01*
X140671156Y-98050500D01*
X140671158Y-98050500D01*
X140828844Y-98050500D01*
X140828845Y-98050499D01*
X140983497Y-98019737D01*
X141129179Y-97959394D01*
X141260289Y-97871789D01*
X141371789Y-97760289D01*
X141459394Y-97629179D01*
X141519737Y-97483497D01*
X141550500Y-97328842D01*
X141550500Y-97171158D01*
X141550500Y-97171155D01*
X141550499Y-97171153D01*
X141530258Y-97069397D01*
X141519737Y-97016503D01*
X141492941Y-96951811D01*
X141459397Y-96870827D01*
X141459390Y-96870814D01*
X141371789Y-96739711D01*
X141371786Y-96739707D01*
X141260292Y-96628213D01*
X141260288Y-96628210D01*
X141129185Y-96540609D01*
X141129172Y-96540602D01*
X140983501Y-96480264D01*
X140983489Y-96480261D01*
X140828845Y-96449500D01*
X140828842Y-96449500D01*
X140671158Y-96449500D01*
X140671155Y-96449500D01*
X140516510Y-96480261D01*
X140516498Y-96480264D01*
X140370827Y-96540602D01*
X140370814Y-96540609D01*
X140239711Y-96628210D01*
X140239707Y-96628213D01*
X140128213Y-96739707D01*
X140128210Y-96739711D01*
X140040609Y-96870814D01*
X140040603Y-96870826D01*
X140039060Y-96874552D01*
X139995218Y-96928954D01*
X139928924Y-96951018D01*
X139861225Y-96933738D01*
X139813615Y-96882599D01*
X139800500Y-96827097D01*
X139800500Y-96281153D01*
X161949500Y-96281153D01*
X161949500Y-96438846D01*
X161980261Y-96593489D01*
X161980264Y-96593501D01*
X162040602Y-96739172D01*
X162040609Y-96739185D01*
X162128210Y-96870288D01*
X162128213Y-96870292D01*
X162239707Y-96981786D01*
X162239711Y-96981789D01*
X162370814Y-97069390D01*
X162370827Y-97069397D01*
X162516498Y-97129735D01*
X162516503Y-97129737D01*
X162671153Y-97160499D01*
X162671156Y-97160500D01*
X162671158Y-97160500D01*
X162828844Y-97160500D01*
X162828845Y-97160499D01*
X162983497Y-97129737D01*
X163129179Y-97069394D01*
X163260289Y-96981789D01*
X163260297Y-96981780D01*
X163263531Y-96979128D01*
X163327839Y-96951811D01*
X163396708Y-96963598D01*
X163448271Y-97010746D01*
X163466158Y-97078288D01*
X163463819Y-97099167D01*
X163449500Y-97171153D01*
X163449500Y-97328846D01*
X163480261Y-97483489D01*
X163480264Y-97483501D01*
X163540602Y-97629172D01*
X163540609Y-97629185D01*
X163628210Y-97760288D01*
X163628213Y-97760292D01*
X163739707Y-97871786D01*
X163739711Y-97871789D01*
X163870814Y-97959390D01*
X163870827Y-97959397D01*
X164016498Y-98019735D01*
X164016503Y-98019737D01*
X164171153Y-98050499D01*
X164171156Y-98050500D01*
X164171158Y-98050500D01*
X164328844Y-98050500D01*
X164328845Y-98050499D01*
X164483497Y-98019737D01*
X164629179Y-97959394D01*
X164760289Y-97871789D01*
X164871789Y-97760289D01*
X164959394Y-97629179D01*
X165019737Y-97483497D01*
X165050500Y-97328842D01*
X165050500Y-97171158D01*
X165050500Y-97171155D01*
X165050499Y-97171153D01*
X165030258Y-97069397D01*
X165019737Y-97016503D01*
X164992941Y-96951811D01*
X164959397Y-96870827D01*
X164959390Y-96870814D01*
X164871789Y-96739711D01*
X164871786Y-96739707D01*
X164760292Y-96628213D01*
X164760288Y-96628210D01*
X164629185Y-96540609D01*
X164629172Y-96540602D01*
X164483501Y-96480264D01*
X164483489Y-96480261D01*
X164328845Y-96449500D01*
X164328842Y-96449500D01*
X164171158Y-96449500D01*
X164171155Y-96449500D01*
X164016510Y-96480261D01*
X164016498Y-96480264D01*
X163870827Y-96540602D01*
X163870814Y-96540609D01*
X163739708Y-96628212D01*
X163736455Y-96630882D01*
X163672143Y-96658190D01*
X163603276Y-96646394D01*
X163551720Y-96599238D01*
X163533842Y-96531694D01*
X163536179Y-96510836D01*
X163550500Y-96438842D01*
X163550500Y-96281158D01*
X163550500Y-96281155D01*
X163550499Y-96281153D01*
X163519738Y-96126510D01*
X163519737Y-96126503D01*
X163519735Y-96126498D01*
X163459397Y-95980827D01*
X163459390Y-95980814D01*
X163371789Y-95849711D01*
X163371786Y-95849707D01*
X163260292Y-95738213D01*
X163260288Y-95738210D01*
X163129185Y-95650609D01*
X163129172Y-95650602D01*
X162983501Y-95590264D01*
X162983489Y-95590261D01*
X162828845Y-95559500D01*
X162828842Y-95559500D01*
X162671158Y-95559500D01*
X162671155Y-95559500D01*
X162516510Y-95590261D01*
X162516498Y-95590264D01*
X162370827Y-95650602D01*
X162370814Y-95650609D01*
X162239711Y-95738210D01*
X162239707Y-95738213D01*
X162128213Y-95849707D01*
X162128210Y-95849711D01*
X162040609Y-95980814D01*
X162040602Y-95980827D01*
X161980264Y-96126498D01*
X161980261Y-96126510D01*
X161949500Y-96281153D01*
X139800500Y-96281153D01*
X139800500Y-94422902D01*
X139820185Y-94355863D01*
X139872989Y-94310108D01*
X139942147Y-94300164D01*
X140005703Y-94329189D01*
X140039062Y-94375451D01*
X140040605Y-94379178D01*
X140040609Y-94379185D01*
X140128210Y-94510288D01*
X140128213Y-94510292D01*
X140239707Y-94621786D01*
X140239711Y-94621789D01*
X140370814Y-94709390D01*
X140370827Y-94709397D01*
X140516498Y-94769735D01*
X140516503Y-94769737D01*
X140671153Y-94800499D01*
X140671156Y-94800500D01*
X140671158Y-94800500D01*
X140828844Y-94800500D01*
X140828845Y-94800499D01*
X140983497Y-94769737D01*
X141129179Y-94709394D01*
X141260289Y-94621789D01*
X141371789Y-94510289D01*
X141459394Y-94379179D01*
X141519737Y-94233497D01*
X141550500Y-94078842D01*
X141550500Y-93921158D01*
X141550500Y-93921155D01*
X141550499Y-93921153D01*
X141519738Y-93766510D01*
X141519737Y-93766503D01*
X141517163Y-93760288D01*
X141459397Y-93620827D01*
X141459390Y-93620814D01*
X141371789Y-93489711D01*
X141371786Y-93489707D01*
X141260292Y-93378213D01*
X141260288Y-93378210D01*
X141129185Y-93290609D01*
X141129172Y-93290602D01*
X140983501Y-93230264D01*
X140983489Y-93230261D01*
X140828845Y-93199500D01*
X140828842Y-93199500D01*
X140671158Y-93199500D01*
X140671155Y-93199500D01*
X140516510Y-93230261D01*
X140516498Y-93230264D01*
X140370827Y-93290602D01*
X140370814Y-93290609D01*
X140239711Y-93378210D01*
X140239707Y-93378213D01*
X140128213Y-93489707D01*
X140128210Y-93489711D01*
X140040609Y-93620814D01*
X140040603Y-93620826D01*
X140039060Y-93624552D01*
X139995218Y-93678954D01*
X139928924Y-93701018D01*
X139861225Y-93683738D01*
X139813615Y-93632599D01*
X139800500Y-93577097D01*
X139800500Y-92421153D01*
X150449500Y-92421153D01*
X150449500Y-92578846D01*
X150480261Y-92733489D01*
X150480264Y-92733501D01*
X150540602Y-92879172D01*
X150540609Y-92879185D01*
X150628210Y-93010288D01*
X150628213Y-93010292D01*
X150739707Y-93121786D01*
X150739711Y-93121789D01*
X150870814Y-93209390D01*
X150870827Y-93209397D01*
X151016498Y-93269735D01*
X151016503Y-93269737D01*
X151171153Y-93300499D01*
X151171156Y-93300500D01*
X151171158Y-93300500D01*
X151328844Y-93300500D01*
X151328845Y-93300499D01*
X151483497Y-93269737D01*
X151629179Y-93209394D01*
X151686411Y-93171153D01*
X163699500Y-93171153D01*
X163699500Y-93328846D01*
X163730261Y-93483489D01*
X163730264Y-93483501D01*
X163790602Y-93629172D01*
X163790609Y-93629185D01*
X163878210Y-93760288D01*
X163878213Y-93760292D01*
X163989707Y-93871786D01*
X163989711Y-93871789D01*
X164120814Y-93959390D01*
X164120827Y-93959397D01*
X164266498Y-94019735D01*
X164266503Y-94019737D01*
X164421153Y-94050499D01*
X164421156Y-94050500D01*
X164421158Y-94050500D01*
X164578844Y-94050500D01*
X164578845Y-94050499D01*
X164733497Y-94019737D01*
X164879179Y-93959394D01*
X165010289Y-93871789D01*
X165121789Y-93760289D01*
X165209394Y-93629179D01*
X165212854Y-93620827D01*
X165267163Y-93489711D01*
X165269737Y-93483497D01*
X165300500Y-93328842D01*
X165300500Y-93171158D01*
X165300500Y-93171155D01*
X165300499Y-93171153D01*
X165269738Y-93016510D01*
X165269737Y-93016503D01*
X165267163Y-93010288D01*
X165209397Y-92870827D01*
X165209390Y-92870814D01*
X165121789Y-92739711D01*
X165121786Y-92739707D01*
X165010292Y-92628213D01*
X165010288Y-92628210D01*
X164879185Y-92540609D01*
X164879172Y-92540602D01*
X164733501Y-92480264D01*
X164733489Y-92480261D01*
X164578845Y-92449500D01*
X164578842Y-92449500D01*
X164421158Y-92449500D01*
X164421155Y-92449500D01*
X164266510Y-92480261D01*
X164266498Y-92480264D01*
X164120827Y-92540602D01*
X164120814Y-92540609D01*
X163989711Y-92628210D01*
X163989707Y-92628213D01*
X163878213Y-92739707D01*
X163878210Y-92739711D01*
X163790609Y-92870814D01*
X163790602Y-92870827D01*
X163730264Y-93016498D01*
X163730261Y-93016510D01*
X163699500Y-93171153D01*
X151686411Y-93171153D01*
X151760289Y-93121789D01*
X151760292Y-93121786D01*
X151804694Y-93077385D01*
X151871786Y-93010292D01*
X151871789Y-93010289D01*
X151959394Y-92879179D01*
X151962854Y-92870827D01*
X152017163Y-92739711D01*
X152019737Y-92733497D01*
X152050500Y-92578842D01*
X152050500Y-92421158D01*
X152050500Y-92421155D01*
X152050499Y-92421153D01*
X152019738Y-92266510D01*
X152019737Y-92266503D01*
X152019735Y-92266498D01*
X151959397Y-92120827D01*
X151959390Y-92120814D01*
X151871789Y-91989711D01*
X151871786Y-91989707D01*
X151760292Y-91878213D01*
X151760288Y-91878210D01*
X151629185Y-91790609D01*
X151629172Y-91790602D01*
X151483501Y-91730264D01*
X151483489Y-91730261D01*
X151328845Y-91699500D01*
X151328842Y-91699500D01*
X151171158Y-91699500D01*
X151171155Y-91699500D01*
X151016510Y-91730261D01*
X151016498Y-91730264D01*
X150870827Y-91790602D01*
X150870814Y-91790609D01*
X150739711Y-91878210D01*
X150739707Y-91878213D01*
X150628213Y-91989707D01*
X150628210Y-91989711D01*
X150540609Y-92120814D01*
X150540602Y-92120827D01*
X150480264Y-92266498D01*
X150480261Y-92266510D01*
X150449500Y-92421153D01*
X139800500Y-92421153D01*
X139800500Y-90421153D01*
X143449500Y-90421153D01*
X143449500Y-90578846D01*
X143480261Y-90733489D01*
X143480264Y-90733501D01*
X143540602Y-90879172D01*
X143540609Y-90879185D01*
X143628210Y-91010288D01*
X143628213Y-91010292D01*
X143739707Y-91121786D01*
X143739711Y-91121789D01*
X143870814Y-91209390D01*
X143870827Y-91209397D01*
X144016498Y-91269735D01*
X144016503Y-91269737D01*
X144171153Y-91300499D01*
X144171156Y-91300500D01*
X144171158Y-91300500D01*
X144328844Y-91300500D01*
X144328845Y-91300499D01*
X144483497Y-91269737D01*
X144629179Y-91209394D01*
X144760289Y-91121789D01*
X144871789Y-91010289D01*
X144959394Y-90879179D01*
X145019737Y-90733497D01*
X145050500Y-90578842D01*
X145050500Y-90421158D01*
X145050500Y-90421155D01*
X145050499Y-90421153D01*
X145019738Y-90266510D01*
X145019737Y-90266503D01*
X145001133Y-90221588D01*
X144959397Y-90120827D01*
X144959390Y-90120814D01*
X144871789Y-89989711D01*
X144871786Y-89989707D01*
X144760292Y-89878213D01*
X144760288Y-89878210D01*
X144629185Y-89790609D01*
X144629173Y-89790602D01*
X144602674Y-89779627D01*
X144483501Y-89730264D01*
X144483489Y-89730261D01*
X144328845Y-89699500D01*
X144328842Y-89699500D01*
X144171158Y-89699500D01*
X144171155Y-89699500D01*
X144016510Y-89730261D01*
X144016498Y-89730264D01*
X143870827Y-89790602D01*
X143870814Y-89790609D01*
X143739711Y-89878210D01*
X143739707Y-89878213D01*
X143628213Y-89989707D01*
X143628210Y-89989711D01*
X143540609Y-90120814D01*
X143540602Y-90120827D01*
X143480264Y-90266498D01*
X143480261Y-90266510D01*
X143449500Y-90421153D01*
X139800500Y-90421153D01*
X139800500Y-89671153D01*
X150449500Y-89671153D01*
X150449500Y-89828846D01*
X150480261Y-89983489D01*
X150480264Y-89983501D01*
X150540602Y-90129172D01*
X150540609Y-90129185D01*
X150628210Y-90260288D01*
X150628213Y-90260292D01*
X150739707Y-90371786D01*
X150739711Y-90371789D01*
X150870814Y-90459390D01*
X150870827Y-90459397D01*
X151016498Y-90519735D01*
X151016503Y-90519737D01*
X151171153Y-90550499D01*
X151171156Y-90550500D01*
X151171158Y-90550500D01*
X151328844Y-90550500D01*
X151328845Y-90550499D01*
X151483497Y-90519737D01*
X151629179Y-90459394D01*
X151760289Y-90371789D01*
X151871789Y-90260289D01*
X151959394Y-90129179D01*
X151962854Y-90120827D01*
X152017163Y-89989711D01*
X152019737Y-89983497D01*
X152047856Y-89842135D01*
X154369500Y-89842135D01*
X154369500Y-91637870D01*
X154369501Y-91637876D01*
X154375908Y-91697483D01*
X154426202Y-91832328D01*
X154426206Y-91832335D01*
X154512452Y-91947544D01*
X154512455Y-91947547D01*
X154627664Y-92033793D01*
X154627671Y-92033797D01*
X154762517Y-92084091D01*
X154762516Y-92084091D01*
X154769444Y-92084835D01*
X154822127Y-92090500D01*
X156617872Y-92090499D01*
X156677483Y-92084091D01*
X156812331Y-92033796D01*
X156927546Y-91947546D01*
X157013796Y-91832331D01*
X157062810Y-91700916D01*
X157104681Y-91644984D01*
X157170145Y-91620566D01*
X157238418Y-91635417D01*
X157266673Y-91656569D01*
X157380213Y-91770109D01*
X157552179Y-91895048D01*
X157552181Y-91895049D01*
X157552184Y-91895051D01*
X157741588Y-91991557D01*
X157943757Y-92057246D01*
X158153713Y-92090500D01*
X158153714Y-92090500D01*
X158366286Y-92090500D01*
X158366287Y-92090500D01*
X158576243Y-92057246D01*
X158778412Y-91991557D01*
X158967816Y-91895051D01*
X159054138Y-91832335D01*
X159139786Y-91770109D01*
X159139788Y-91770106D01*
X159139792Y-91770104D01*
X159290104Y-91619792D01*
X159290106Y-91619788D01*
X159290109Y-91619786D01*
X159415048Y-91447820D01*
X159415047Y-91447820D01*
X159415051Y-91447816D01*
X159419514Y-91439054D01*
X159467488Y-91388259D01*
X159535308Y-91371463D01*
X159601444Y-91393999D01*
X159640486Y-91439056D01*
X159644951Y-91447820D01*
X159769890Y-91619786D01*
X159920213Y-91770109D01*
X160092179Y-91895048D01*
X160092181Y-91895049D01*
X160092184Y-91895051D01*
X160281588Y-91991557D01*
X160483757Y-92057246D01*
X160693713Y-92090500D01*
X160693714Y-92090500D01*
X160906286Y-92090500D01*
X160906287Y-92090500D01*
X161116243Y-92057246D01*
X161318412Y-91991557D01*
X161507816Y-91895051D01*
X161594138Y-91832335D01*
X161679786Y-91770109D01*
X161679788Y-91770106D01*
X161679792Y-91770104D01*
X161830104Y-91619792D01*
X161830106Y-91619788D01*
X161830109Y-91619786D01*
X161955048Y-91447820D01*
X161955047Y-91447820D01*
X161955051Y-91447816D01*
X162051557Y-91258412D01*
X162117246Y-91056243D01*
X162150500Y-90846287D01*
X162150500Y-90633713D01*
X162117246Y-90423757D01*
X162051557Y-90221588D01*
X161955051Y-90032184D01*
X161955049Y-90032181D01*
X161955048Y-90032179D01*
X161830109Y-89860213D01*
X161679786Y-89709890D01*
X161507820Y-89584951D01*
X161318414Y-89488444D01*
X161318413Y-89488443D01*
X161318412Y-89488443D01*
X161116243Y-89422754D01*
X161116241Y-89422753D01*
X161116240Y-89422753D01*
X160954957Y-89397208D01*
X160906287Y-89389500D01*
X160693713Y-89389500D01*
X160645042Y-89397208D01*
X160483760Y-89422753D01*
X160281585Y-89488444D01*
X160092179Y-89584951D01*
X159920213Y-89709890D01*
X159769890Y-89860213D01*
X159644949Y-90032182D01*
X159640484Y-90040946D01*
X159592509Y-90091742D01*
X159524688Y-90108536D01*
X159458553Y-90085998D01*
X159419516Y-90040946D01*
X159415050Y-90032182D01*
X159290109Y-89860213D01*
X159139786Y-89709890D01*
X158967820Y-89584951D01*
X158778414Y-89488444D01*
X158778413Y-89488443D01*
X158778412Y-89488443D01*
X158576243Y-89422754D01*
X158576241Y-89422753D01*
X158576240Y-89422753D01*
X158414957Y-89397208D01*
X158366287Y-89389500D01*
X158153713Y-89389500D01*
X158105042Y-89397208D01*
X157943760Y-89422753D01*
X157741585Y-89488444D01*
X157552179Y-89584951D01*
X157380215Y-89709889D01*
X157266673Y-89823431D01*
X157205350Y-89856915D01*
X157135658Y-89851931D01*
X157079725Y-89810059D01*
X157062810Y-89779082D01*
X157013797Y-89647671D01*
X157013793Y-89647664D01*
X156927547Y-89532455D01*
X156927544Y-89532452D01*
X156812335Y-89446206D01*
X156812328Y-89446202D01*
X156677482Y-89395908D01*
X156677483Y-89395908D01*
X156617883Y-89389501D01*
X156617881Y-89389500D01*
X156617873Y-89389500D01*
X156617864Y-89389500D01*
X154822129Y-89389500D01*
X154822123Y-89389501D01*
X154762516Y-89395908D01*
X154627671Y-89446202D01*
X154627664Y-89446206D01*
X154512455Y-89532452D01*
X154512452Y-89532455D01*
X154426206Y-89647664D01*
X154426202Y-89647671D01*
X154375908Y-89782517D01*
X154369501Y-89842116D01*
X154369500Y-89842135D01*
X152047856Y-89842135D01*
X152047857Y-89842128D01*
X152050499Y-89828848D01*
X152050500Y-89828842D01*
X152050500Y-89671155D01*
X152050499Y-89671153D01*
X152019738Y-89516510D01*
X152019737Y-89516503D01*
X152008114Y-89488443D01*
X151959397Y-89370827D01*
X151959390Y-89370814D01*
X151871789Y-89239711D01*
X151871786Y-89239707D01*
X151760292Y-89128213D01*
X151760288Y-89128210D01*
X151629185Y-89040609D01*
X151629172Y-89040602D01*
X151483501Y-88980264D01*
X151483489Y-88980261D01*
X151328845Y-88949500D01*
X151328842Y-88949500D01*
X151171158Y-88949500D01*
X151171155Y-88949500D01*
X151016510Y-88980261D01*
X151016498Y-88980264D01*
X150870827Y-89040602D01*
X150870814Y-89040609D01*
X150739711Y-89128210D01*
X150739707Y-89128213D01*
X150628213Y-89239707D01*
X150628210Y-89239711D01*
X150540609Y-89370814D01*
X150540602Y-89370827D01*
X150480264Y-89516498D01*
X150480261Y-89516510D01*
X150449500Y-89671153D01*
X139800500Y-89671153D01*
X139800500Y-85421153D01*
X141699500Y-85421153D01*
X141699500Y-85578846D01*
X141730261Y-85733489D01*
X141730264Y-85733501D01*
X141790602Y-85879172D01*
X141790609Y-85879185D01*
X141878210Y-86010288D01*
X141878213Y-86010292D01*
X141989707Y-86121786D01*
X141989711Y-86121789D01*
X142120814Y-86209390D01*
X142120827Y-86209397D01*
X142266498Y-86269735D01*
X142266503Y-86269737D01*
X142421153Y-86300499D01*
X142421156Y-86300500D01*
X142421158Y-86300500D01*
X142578844Y-86300500D01*
X142578845Y-86300499D01*
X142733497Y-86269737D01*
X142879179Y-86209394D01*
X143010289Y-86121789D01*
X143121789Y-86010289D01*
X143209394Y-85879179D01*
X143269737Y-85733497D01*
X143282138Y-85671153D01*
X144949500Y-85671153D01*
X144949500Y-85828846D01*
X144980261Y-85983489D01*
X144980264Y-85983501D01*
X145040602Y-86129172D01*
X145040609Y-86129185D01*
X145128210Y-86260288D01*
X145128213Y-86260292D01*
X145239707Y-86371786D01*
X145239711Y-86371789D01*
X145370814Y-86459390D01*
X145370827Y-86459397D01*
X145516498Y-86519735D01*
X145516503Y-86519737D01*
X145671153Y-86550499D01*
X145671156Y-86550500D01*
X145671158Y-86550500D01*
X145828844Y-86550500D01*
X145828845Y-86550499D01*
X145983497Y-86519737D01*
X146129179Y-86459394D01*
X146260289Y-86371789D01*
X146371789Y-86260289D01*
X146459394Y-86129179D01*
X146519737Y-85983497D01*
X146550500Y-85828842D01*
X146550500Y-85671158D01*
X146550500Y-85671155D01*
X146550499Y-85671153D01*
X146519738Y-85516510D01*
X146519737Y-85516503D01*
X146480242Y-85421153D01*
X146459397Y-85370827D01*
X146459390Y-85370814D01*
X146371789Y-85239711D01*
X146371786Y-85239707D01*
X146260292Y-85128213D01*
X146260288Y-85128210D01*
X146129185Y-85040609D01*
X146129173Y-85040602D01*
X146102674Y-85029627D01*
X145983501Y-84980264D01*
X145983489Y-84980261D01*
X145828845Y-84949500D01*
X145828842Y-84949500D01*
X145671158Y-84949500D01*
X145671155Y-84949500D01*
X145516510Y-84980261D01*
X145516498Y-84980264D01*
X145370827Y-85040602D01*
X145370814Y-85040609D01*
X145239711Y-85128210D01*
X145239707Y-85128213D01*
X145128213Y-85239707D01*
X145128210Y-85239711D01*
X145040609Y-85370814D01*
X145040602Y-85370827D01*
X144980264Y-85516498D01*
X144980261Y-85516510D01*
X144949500Y-85671153D01*
X143282138Y-85671153D01*
X143291958Y-85621786D01*
X143300500Y-85578844D01*
X143300500Y-85421155D01*
X143300499Y-85421153D01*
X143269738Y-85266510D01*
X143269737Y-85266503D01*
X143269735Y-85266498D01*
X143209397Y-85120827D01*
X143209390Y-85120814D01*
X143121789Y-84989711D01*
X143121786Y-84989707D01*
X143053232Y-84921153D01*
X150199500Y-84921153D01*
X150199500Y-85078846D01*
X150230261Y-85233489D01*
X150230264Y-85233501D01*
X150290602Y-85379172D01*
X150290609Y-85379185D01*
X150378210Y-85510288D01*
X150378213Y-85510292D01*
X150489707Y-85621786D01*
X150489711Y-85621789D01*
X150620814Y-85709390D01*
X150620827Y-85709397D01*
X150766498Y-85769735D01*
X150766503Y-85769737D01*
X150921153Y-85800499D01*
X150921156Y-85800500D01*
X150921158Y-85800500D01*
X151078844Y-85800500D01*
X151078845Y-85800499D01*
X151233497Y-85769737D01*
X151379179Y-85709394D01*
X151510289Y-85621789D01*
X151621789Y-85510289D01*
X151709394Y-85379179D01*
X151712854Y-85370827D01*
X151723067Y-85346166D01*
X151769737Y-85233497D01*
X151800500Y-85078842D01*
X151800500Y-84921158D01*
X151800500Y-84921155D01*
X151800499Y-84921153D01*
X151774531Y-84790606D01*
X151769737Y-84766503D01*
X151769735Y-84766498D01*
X151709397Y-84620827D01*
X151709390Y-84620814D01*
X151621789Y-84489711D01*
X151621786Y-84489707D01*
X151510292Y-84378213D01*
X151510288Y-84378210D01*
X151379185Y-84290609D01*
X151379172Y-84290602D01*
X151233501Y-84230264D01*
X151233489Y-84230261D01*
X151078845Y-84199500D01*
X151078842Y-84199500D01*
X150921158Y-84199500D01*
X150921155Y-84199500D01*
X150766510Y-84230261D01*
X150766498Y-84230264D01*
X150620827Y-84290602D01*
X150620814Y-84290609D01*
X150489711Y-84378210D01*
X150489707Y-84378213D01*
X150378213Y-84489707D01*
X150378210Y-84489711D01*
X150290609Y-84620814D01*
X150290602Y-84620827D01*
X150230264Y-84766498D01*
X150230261Y-84766510D01*
X150199500Y-84921153D01*
X143053232Y-84921153D01*
X143010292Y-84878213D01*
X143010288Y-84878210D01*
X142879185Y-84790609D01*
X142879172Y-84790602D01*
X142733501Y-84730264D01*
X142733489Y-84730261D01*
X142578845Y-84699500D01*
X142578842Y-84699500D01*
X142421158Y-84699500D01*
X142421155Y-84699500D01*
X142266510Y-84730261D01*
X142266498Y-84730264D01*
X142120827Y-84790602D01*
X142120814Y-84790609D01*
X141989711Y-84878210D01*
X141989707Y-84878213D01*
X141878213Y-84989707D01*
X141878210Y-84989711D01*
X141790609Y-85120814D01*
X141790602Y-85120827D01*
X141730264Y-85266498D01*
X141730261Y-85266510D01*
X141699500Y-85421153D01*
X139800500Y-85421153D01*
X139800500Y-84882940D01*
X139820185Y-84815901D01*
X139836819Y-84795259D01*
X142231439Y-82400639D01*
X158987500Y-82400639D01*
X158987500Y-82599360D01*
X159018587Y-82795637D01*
X159079993Y-82984629D01*
X159079994Y-82984632D01*
X159170213Y-83161694D01*
X159287019Y-83322464D01*
X159427536Y-83462981D01*
X159588306Y-83579787D01*
X159675149Y-83624035D01*
X159765367Y-83670005D01*
X159765370Y-83670006D01*
X159859866Y-83700709D01*
X159954364Y-83731413D01*
X160150639Y-83762500D01*
X160150640Y-83762500D01*
X160349360Y-83762500D01*
X160349361Y-83762500D01*
X160545636Y-83731413D01*
X160734632Y-83670005D01*
X160911694Y-83579787D01*
X161072464Y-83462981D01*
X161212981Y-83322464D01*
X161329787Y-83161694D01*
X161420005Y-82984632D01*
X161481413Y-82795636D01*
X161512500Y-82599361D01*
X161512500Y-82400639D01*
X161481413Y-82204364D01*
X161420005Y-82015368D01*
X161420005Y-82015367D01*
X161329786Y-81838305D01*
X161212981Y-81677536D01*
X161072464Y-81537019D01*
X160911694Y-81420213D01*
X160734632Y-81329994D01*
X160734629Y-81329993D01*
X160545637Y-81268587D01*
X160447498Y-81253043D01*
X160349361Y-81237500D01*
X160150639Y-81237500D01*
X160085214Y-81247862D01*
X159954362Y-81268587D01*
X159765370Y-81329993D01*
X159765367Y-81329994D01*
X159588305Y-81420213D01*
X159427533Y-81537021D01*
X159287021Y-81677533D01*
X159170213Y-81838305D01*
X159079994Y-82015367D01*
X159079993Y-82015370D01*
X159018587Y-82204362D01*
X158987500Y-82400639D01*
X142231439Y-82400639D01*
X143210925Y-81421153D01*
X150199500Y-81421153D01*
X150199500Y-81578846D01*
X150230261Y-81733489D01*
X150230264Y-81733501D01*
X150290602Y-81879172D01*
X150290609Y-81879185D01*
X150378210Y-82010288D01*
X150378213Y-82010292D01*
X150489707Y-82121786D01*
X150489711Y-82121789D01*
X150620814Y-82209390D01*
X150620827Y-82209397D01*
X150766498Y-82269735D01*
X150766503Y-82269737D01*
X150921153Y-82300499D01*
X150921156Y-82300500D01*
X150921158Y-82300500D01*
X151078844Y-82300500D01*
X151211313Y-82274150D01*
X151211313Y-82274149D01*
X151233497Y-82269737D01*
X151379179Y-82209394D01*
X151510289Y-82121789D01*
X151621789Y-82010289D01*
X151709394Y-81879179D01*
X151769737Y-81733497D01*
X151800500Y-81578842D01*
X151800500Y-81421158D01*
X151800500Y-81421155D01*
X151800499Y-81421153D01*
X151782366Y-81329993D01*
X151769737Y-81266503D01*
X151749500Y-81217646D01*
X151709397Y-81120827D01*
X151709390Y-81120814D01*
X151621789Y-80989711D01*
X151621786Y-80989707D01*
X151510292Y-80878213D01*
X151510288Y-80878210D01*
X151379185Y-80790609D01*
X151379172Y-80790602D01*
X151233501Y-80730264D01*
X151233489Y-80730261D01*
X151078845Y-80699500D01*
X151078842Y-80699500D01*
X150921158Y-80699500D01*
X150921155Y-80699500D01*
X150766510Y-80730261D01*
X150766498Y-80730264D01*
X150620827Y-80790602D01*
X150620814Y-80790609D01*
X150489711Y-80878210D01*
X150489707Y-80878213D01*
X150378213Y-80989707D01*
X150378210Y-80989711D01*
X150290609Y-81120814D01*
X150290602Y-81120827D01*
X150230264Y-81266498D01*
X150230261Y-81266510D01*
X150199500Y-81421153D01*
X143210925Y-81421153D01*
X145045259Y-79586819D01*
X145106582Y-79553334D01*
X145132940Y-79550500D01*
X151828844Y-79550500D01*
X151828845Y-79550499D01*
X151983497Y-79519737D01*
X152129179Y-79459394D01*
X152260289Y-79371789D01*
X152371789Y-79260289D01*
X152459394Y-79129179D01*
X152519737Y-78983497D01*
X152550500Y-78828842D01*
X152550500Y-78671158D01*
X152550500Y-78671155D01*
X152550499Y-78671153D01*
X152519738Y-78516510D01*
X152519737Y-78516503D01*
X152519735Y-78516498D01*
X152459397Y-78370827D01*
X152459390Y-78370814D01*
X152371789Y-78239711D01*
X152371786Y-78239707D01*
X152260292Y-78128213D01*
X152260288Y-78128210D01*
X152129185Y-78040609D01*
X152129172Y-78040602D01*
X151983501Y-77980264D01*
X151983489Y-77980261D01*
X151828845Y-77949500D01*
X151828842Y-77949500D01*
X144828842Y-77949500D01*
X144671158Y-77949500D01*
X144671155Y-77949500D01*
X144516510Y-77980261D01*
X144516498Y-77980264D01*
X144370827Y-78040602D01*
X144370814Y-78040609D01*
X144239711Y-78128210D01*
X144239707Y-78128213D01*
X140762181Y-81605740D01*
X140700858Y-81639225D01*
X140631166Y-81634241D01*
X140575233Y-81592369D01*
X140550816Y-81526905D01*
X140550500Y-81518059D01*
X140550500Y-81421155D01*
X140550499Y-81421153D01*
X140532366Y-81329993D01*
X140519737Y-81266503D01*
X140499500Y-81217646D01*
X140459397Y-81120827D01*
X140459390Y-81120814D01*
X140371789Y-80989711D01*
X140371786Y-80989707D01*
X140260292Y-80878213D01*
X140260288Y-80878210D01*
X140129185Y-80790609D01*
X140129172Y-80790602D01*
X139983501Y-80730264D01*
X139983489Y-80730261D01*
X139828845Y-80699500D01*
X139828842Y-80699500D01*
X139671158Y-80699500D01*
X139671155Y-80699500D01*
X139516510Y-80730261D01*
X139516498Y-80730264D01*
X139370827Y-80790602D01*
X139370814Y-80790609D01*
X139239711Y-80878210D01*
X139239707Y-80878213D01*
X139128213Y-80989707D01*
X139128210Y-80989711D01*
X139040609Y-81120814D01*
X139040602Y-81120827D01*
X138980264Y-81266498D01*
X138980261Y-81266510D01*
X138949500Y-81421153D01*
X138949500Y-81578846D01*
X138980261Y-81733489D01*
X138980264Y-81733501D01*
X139040602Y-81879172D01*
X139040609Y-81879185D01*
X139128210Y-82010288D01*
X139128213Y-82010292D01*
X139239707Y-82121786D01*
X139239711Y-82121789D01*
X139370814Y-82209390D01*
X139370827Y-82209397D01*
X139516498Y-82269735D01*
X139516503Y-82269737D01*
X139671153Y-82300499D01*
X139671156Y-82300500D01*
X139768059Y-82300500D01*
X139835098Y-82320185D01*
X139880853Y-82372989D01*
X139890797Y-82442147D01*
X139861772Y-82505703D01*
X139855740Y-82512181D01*
X139045458Y-83322464D01*
X138489711Y-83878211D01*
X138433960Y-83933962D01*
X138378209Y-83989712D01*
X138290609Y-84120814D01*
X138290602Y-84120827D01*
X138230264Y-84266498D01*
X138230261Y-84266510D01*
X138199500Y-84421153D01*
X137750500Y-84421153D01*
X137750500Y-76671153D01*
X150199500Y-76671153D01*
X150199500Y-76828846D01*
X150230261Y-76983489D01*
X150230264Y-76983501D01*
X150290602Y-77129172D01*
X150290609Y-77129185D01*
X150378210Y-77260288D01*
X150378213Y-77260292D01*
X150489707Y-77371786D01*
X150489711Y-77371789D01*
X150620814Y-77459390D01*
X150620827Y-77459397D01*
X150766498Y-77519735D01*
X150766503Y-77519737D01*
X150921153Y-77550499D01*
X150921156Y-77550500D01*
X150921158Y-77550500D01*
X151078844Y-77550500D01*
X151078845Y-77550499D01*
X151233497Y-77519737D01*
X151379179Y-77459394D01*
X151510289Y-77371789D01*
X151621789Y-77260289D01*
X151709394Y-77129179D01*
X151769737Y-76983497D01*
X151800500Y-76828842D01*
X151800500Y-76671158D01*
X151800500Y-76671155D01*
X151800499Y-76671153D01*
X151769738Y-76516510D01*
X151769737Y-76516503D01*
X151769735Y-76516498D01*
X151709397Y-76370827D01*
X151709390Y-76370814D01*
X151621789Y-76239711D01*
X151621786Y-76239707D01*
X151510292Y-76128213D01*
X151510288Y-76128210D01*
X151379185Y-76040609D01*
X151379172Y-76040602D01*
X151233501Y-75980264D01*
X151233489Y-75980261D01*
X151078845Y-75949500D01*
X151078842Y-75949500D01*
X150921158Y-75949500D01*
X150921155Y-75949500D01*
X150766510Y-75980261D01*
X150766498Y-75980264D01*
X150620827Y-76040602D01*
X150620814Y-76040609D01*
X150489711Y-76128210D01*
X150489707Y-76128213D01*
X150378213Y-76239707D01*
X150378210Y-76239711D01*
X150290609Y-76370814D01*
X150290602Y-76370827D01*
X150230264Y-76516498D01*
X150230261Y-76516510D01*
X150199500Y-76671153D01*
X137750500Y-76671153D01*
X137750500Y-76184110D01*
X137750500Y-76184108D01*
X137716392Y-76056814D01*
X137650500Y-75942686D01*
X137557314Y-75849500D01*
X137500250Y-75816554D01*
X137443187Y-75783608D01*
X137400519Y-75772175D01*
X137341905Y-75756470D01*
X137282246Y-75720106D01*
X137251717Y-75657259D01*
X137250000Y-75636696D01*
X137250000Y-74124500D01*
X137269685Y-74057461D01*
X137322489Y-74011706D01*
X137374000Y-74000500D01*
X137881113Y-74000500D01*
X137881120Y-74000500D01*
X138141116Y-73966270D01*
X138394419Y-73898398D01*
X138636697Y-73798043D01*
X138863803Y-73666924D01*
X139071851Y-73507282D01*
X139071855Y-73507277D01*
X139071860Y-73507274D01*
X139173620Y-73405513D01*
X143549500Y-73405513D01*
X143549500Y-73594486D01*
X143579059Y-73781118D01*
X143637454Y-73960836D01*
X143720846Y-74124500D01*
X143723240Y-74129199D01*
X143834310Y-74282073D01*
X143967927Y-74415690D01*
X144120801Y-74526760D01*
X144175403Y-74554581D01*
X144289163Y-74612545D01*
X144289165Y-74612545D01*
X144289168Y-74612547D01*
X144385497Y-74643846D01*
X144468881Y-74670940D01*
X144655514Y-74700500D01*
X144655519Y-74700500D01*
X144844486Y-74700500D01*
X145029773Y-74671153D01*
X150949500Y-74671153D01*
X150949500Y-74828846D01*
X150980261Y-74983489D01*
X150980264Y-74983501D01*
X151040602Y-75129172D01*
X151040609Y-75129185D01*
X151128210Y-75260288D01*
X151128213Y-75260292D01*
X151239707Y-75371786D01*
X151239711Y-75371789D01*
X151370814Y-75459390D01*
X151370827Y-75459397D01*
X151516498Y-75519735D01*
X151516503Y-75519737D01*
X151671153Y-75550499D01*
X151671156Y-75550500D01*
X151671158Y-75550500D01*
X151828844Y-75550500D01*
X151828845Y-75550499D01*
X151983497Y-75519737D01*
X152129179Y-75459394D01*
X152260289Y-75371789D01*
X152371789Y-75260289D01*
X152459394Y-75129179D01*
X152519737Y-74983497D01*
X152550500Y-74828842D01*
X152550500Y-74671158D01*
X152550500Y-74671155D01*
X152550499Y-74671153D01*
X152519738Y-74516510D01*
X152519737Y-74516503D01*
X152487628Y-74438984D01*
X152459397Y-74370827D01*
X152459390Y-74370814D01*
X152371789Y-74239711D01*
X152371786Y-74239707D01*
X152260292Y-74128213D01*
X152260288Y-74128210D01*
X152129185Y-74040609D01*
X152129172Y-74040602D01*
X151983501Y-73980264D01*
X151983489Y-73980261D01*
X151828845Y-73949500D01*
X151828842Y-73949500D01*
X151671158Y-73949500D01*
X151671155Y-73949500D01*
X151516510Y-73980261D01*
X151516498Y-73980264D01*
X151370827Y-74040602D01*
X151370814Y-74040609D01*
X151239711Y-74128210D01*
X151239707Y-74128213D01*
X151128213Y-74239707D01*
X151128210Y-74239711D01*
X151040609Y-74370814D01*
X151040602Y-74370827D01*
X150980264Y-74516498D01*
X150980261Y-74516510D01*
X150949500Y-74671153D01*
X145029773Y-74671153D01*
X145031118Y-74670940D01*
X145210832Y-74612547D01*
X145379199Y-74526760D01*
X145532073Y-74415690D01*
X145665690Y-74282073D01*
X145776760Y-74129199D01*
X145862547Y-73960832D01*
X145920940Y-73781118D01*
X145921630Y-73776759D01*
X145950500Y-73594486D01*
X145950500Y-73405513D01*
X145920940Y-73218881D01*
X145893846Y-73135497D01*
X145862547Y-73039168D01*
X145862545Y-73039165D01*
X145862545Y-73039163D01*
X145784859Y-72886697D01*
X145776760Y-72870801D01*
X145665690Y-72717927D01*
X145603276Y-72655513D01*
X149299500Y-72655513D01*
X149299500Y-72844486D01*
X149329059Y-73031118D01*
X149387454Y-73210836D01*
X149444024Y-73321859D01*
X149473240Y-73379199D01*
X149584310Y-73532073D01*
X149717927Y-73665690D01*
X149870801Y-73776760D01*
X149950347Y-73817290D01*
X150039163Y-73862545D01*
X150039165Y-73862545D01*
X150039168Y-73862547D01*
X150135497Y-73893846D01*
X150218881Y-73920940D01*
X150405514Y-73950500D01*
X150405519Y-73950500D01*
X150594486Y-73950500D01*
X150781118Y-73920940D01*
X150960832Y-73862547D01*
X151129199Y-73776760D01*
X151282073Y-73665690D01*
X151415690Y-73532073D01*
X151526760Y-73379199D01*
X151612547Y-73210832D01*
X151670940Y-73031118D01*
X151685400Y-72939822D01*
X151700500Y-72844486D01*
X151700500Y-72655513D01*
X151670940Y-72468881D01*
X151612545Y-72289163D01*
X151532021Y-72131127D01*
X151526760Y-72120801D01*
X151415690Y-71967927D01*
X151282073Y-71834310D01*
X151129199Y-71723240D01*
X150960836Y-71637454D01*
X150781118Y-71579059D01*
X150594486Y-71549500D01*
X150594481Y-71549500D01*
X150405519Y-71549500D01*
X150405514Y-71549500D01*
X150218881Y-71579059D01*
X150039163Y-71637454D01*
X149870800Y-71723240D01*
X149783579Y-71786610D01*
X149717927Y-71834310D01*
X149717925Y-71834312D01*
X149717924Y-71834312D01*
X149584312Y-71967924D01*
X149584312Y-71967925D01*
X149584310Y-71967927D01*
X149557863Y-72004328D01*
X149473240Y-72120800D01*
X149387454Y-72289163D01*
X149329059Y-72468881D01*
X149299500Y-72655513D01*
X145603276Y-72655513D01*
X145532073Y-72584310D01*
X145379199Y-72473240D01*
X145370644Y-72468881D01*
X145210836Y-72387454D01*
X145031118Y-72329059D01*
X144844486Y-72299500D01*
X144844481Y-72299500D01*
X144655519Y-72299500D01*
X144655514Y-72299500D01*
X144468881Y-72329059D01*
X144289163Y-72387454D01*
X144120800Y-72473240D01*
X144033579Y-72536610D01*
X143967927Y-72584310D01*
X143967925Y-72584312D01*
X143967924Y-72584312D01*
X143834312Y-72717924D01*
X143834312Y-72717925D01*
X143834310Y-72717927D01*
X143830237Y-72723533D01*
X143723240Y-72870800D01*
X143637454Y-73039163D01*
X143579059Y-73218881D01*
X143549500Y-73405513D01*
X139173620Y-73405513D01*
X139257274Y-73321859D01*
X139257282Y-73321851D01*
X139416924Y-73113803D01*
X139548043Y-72886697D01*
X139565530Y-72844481D01*
X139643800Y-72655519D01*
X139648398Y-72644419D01*
X139716270Y-72391116D01*
X139750500Y-72131120D01*
X139750500Y-71868880D01*
X139716270Y-71608884D01*
X139648398Y-71355581D01*
X139563621Y-71150911D01*
X139548046Y-71113309D01*
X139548041Y-71113299D01*
X139416924Y-70886196D01*
X139257281Y-70678148D01*
X139257274Y-70678140D01*
X139071860Y-70492726D01*
X139071851Y-70492718D01*
X138863803Y-70333075D01*
X138796456Y-70294193D01*
X138636700Y-70201958D01*
X138636690Y-70201953D01*
X138608159Y-70190135D01*
X158987500Y-70190135D01*
X158987500Y-71809870D01*
X158987501Y-71809876D01*
X158993908Y-71869483D01*
X159044202Y-72004328D01*
X159044206Y-72004335D01*
X159130452Y-72119544D01*
X159130455Y-72119547D01*
X159245664Y-72205793D01*
X159245671Y-72205797D01*
X159380517Y-72256091D01*
X159380516Y-72256091D01*
X159387444Y-72256835D01*
X159440127Y-72262500D01*
X161059872Y-72262499D01*
X161119483Y-72256091D01*
X161254331Y-72205796D01*
X161369546Y-72119546D01*
X161455796Y-72004331D01*
X161506091Y-71869483D01*
X161512500Y-71809873D01*
X161512499Y-70190128D01*
X161506091Y-70130517D01*
X161495306Y-70101602D01*
X161455797Y-69995671D01*
X161455793Y-69995664D01*
X161369547Y-69880455D01*
X161369544Y-69880452D01*
X161254335Y-69794206D01*
X161254328Y-69794202D01*
X161119482Y-69743908D01*
X161119483Y-69743908D01*
X161059883Y-69737501D01*
X161059881Y-69737500D01*
X161059873Y-69737500D01*
X161059864Y-69737500D01*
X159440129Y-69737500D01*
X159440123Y-69737501D01*
X159380516Y-69743908D01*
X159245671Y-69794202D01*
X159245664Y-69794206D01*
X159130455Y-69880452D01*
X159130452Y-69880455D01*
X159044206Y-69995664D01*
X159044202Y-69995671D01*
X158993908Y-70130517D01*
X158987501Y-70190116D01*
X158987501Y-70190123D01*
X158987500Y-70190135D01*
X138608159Y-70190135D01*
X138394428Y-70101605D01*
X138394421Y-70101603D01*
X138394419Y-70101602D01*
X138141116Y-70033730D01*
X138083339Y-70026123D01*
X137881127Y-69999500D01*
X137881120Y-69999500D01*
X137374000Y-69999500D01*
X137306961Y-69979815D01*
X137261206Y-69927011D01*
X137250000Y-69875500D01*
X137250000Y-68374500D01*
X137269685Y-68307461D01*
X137322489Y-68261706D01*
X137374000Y-68250500D01*
X139068059Y-68250500D01*
X139135098Y-68270185D01*
G37*
%TD.AperFunction*%
%TD*%
M02*
