%TF.GenerationSoftware,KiCad,Pcbnew,9.0.0*%
%TF.CreationDate,2025-06-23T21:15:42-05:00*%
%TF.ProjectId,ptSolar,7074536f-6c61-4722-9e6b-696361645f70,rev?*%
%TF.SameCoordinates,Original*%
%TF.FileFunction,Copper,L3,Inr*%
%TF.FilePolarity,Positive*%
%FSLAX46Y46*%
G04 Gerber Fmt 4.6, Leading zero omitted, Abs format (unit mm)*
G04 Created by KiCad (PCBNEW 9.0.0) date 2025-06-23 21:15:42*
%MOMM*%
%LPD*%
G01*
G04 APERTURE LIST*
%TA.AperFunction,ComponentPad*%
%ADD10O,4.000000X3.000000*%
%TD*%
%TA.AperFunction,ComponentPad*%
%ADD11C,1.400000*%
%TD*%
%TA.AperFunction,ComponentPad*%
%ADD12R,1.700000X1.700000*%
%TD*%
%TA.AperFunction,ComponentPad*%
%ADD13O,1.700000X1.700000*%
%TD*%
%TA.AperFunction,ComponentPad*%
%ADD14R,1.524000X1.524000*%
%TD*%
%TA.AperFunction,ComponentPad*%
%ADD15C,1.524000*%
%TD*%
%TA.AperFunction,ViaPad*%
%ADD16C,0.600000*%
%TD*%
G04 APERTURE END LIST*
D10*
%TO.N,Net-(D1-A)*%
%TO.C,PV1*%
X137250000Y-72000000D03*
%TO.N,GND*%
X137250000Y-137500000D03*
%TD*%
D11*
%TO.N,GND*%
%TO.C,ANT2b1*%
X150500000Y-72750000D03*
%TD*%
D10*
%TO.N,Net-(D2-A)*%
%TO.C,PV2*%
X167250000Y-72000000D03*
%TO.N,GND*%
X167250000Y-137500000D03*
%TD*%
D11*
%TO.N,Net-(ANT2-In)*%
%TO.C,ANT2a1*%
X144750000Y-73500000D03*
%TD*%
D12*
%TO.N,MISO*%
%TO.C,J1*%
X155700000Y-139000000D03*
D13*
%TO.N,+BATT*%
X155700000Y-136460000D03*
%TO.N,SCK*%
X158240000Y-139000000D03*
%TO.N,MOSI*%
X158240000Y-136460000D03*
%TO.N,RESET*%
X160780000Y-139000000D03*
%TO.N,GND*%
X160780000Y-136460000D03*
%TD*%
D12*
%TO.N,Net-(J2-Pin_1)*%
%TO.C,J2*%
X155720000Y-90740000D03*
D13*
%TO.N,Net-(J2-Pin_2)*%
X158260000Y-90740000D03*
%TO.N,GND*%
X160800000Y-90740000D03*
%TD*%
D14*
%TO.N,Net-(D1-K)*%
%TO.C,C1*%
X160250000Y-71000000D03*
D15*
%TO.N,GND*%
X160250000Y-82500000D03*
%TD*%
D16*
%TO.N,+BATT*%
X139000000Y-105750000D03*
X139000000Y-96000000D03*
X151750000Y-78750000D03*
X166000000Y-81500000D03*
X139000000Y-100750000D03*
X166000000Y-108500000D03*
X139000000Y-111000000D03*
X139000000Y-92000000D03*
X139000000Y-88000000D03*
%TO.N,GND*%
X151000000Y-85000000D03*
X151000000Y-81500000D03*
X142500000Y-85500000D03*
X165250000Y-69000000D03*
X161300000Y-119300000D03*
X147000000Y-118900000D03*
X152900000Y-132300000D03*
X140750000Y-94000000D03*
X139750000Y-69000000D03*
X165750000Y-77000000D03*
X144250000Y-90500000D03*
X151250000Y-92500000D03*
X157600000Y-103300000D03*
X151750000Y-69000000D03*
X151250000Y-89750000D03*
X160000000Y-109500000D03*
X157750000Y-109500000D03*
X162750000Y-96360000D03*
X155250000Y-113250000D03*
X150500000Y-114500000D03*
X164500000Y-93250000D03*
X151000000Y-76750000D03*
X158000000Y-132100000D03*
X138700000Y-119400000D03*
X150500000Y-112750000D03*
X139000000Y-113750000D03*
X153000000Y-123250000D03*
X159400000Y-123800000D03*
%TO.N,MOSI*%
X157250000Y-133750000D03*
%TO.N,RESET*%
X156650000Y-131900000D03*
X152750000Y-111250000D03*
X155500000Y-121000000D03*
%TO.N,+3.3V*%
X140100000Y-126100000D03*
X148800000Y-119100000D03*
X163500000Y-135000000D03*
X151500000Y-114000000D03*
X158250000Y-118250000D03*
X148531250Y-86250000D03*
X146000000Y-106750000D03*
X146000000Y-97500000D03*
X147300000Y-101768750D03*
%TO.N,Net-(D1-K)*%
X139750000Y-81500000D03*
X151750000Y-74750000D03*
%TO.N,Net-(J2-Pin_2)*%
X153250000Y-106750000D03*
%TO.N,Net-(Q1-D)*%
X148912766Y-103814237D03*
X146100000Y-104200000D03*
%TO.N,Net-(Q3-D)*%
X140750000Y-97250000D03*
%TO.N,XMIT-TX*%
X147100000Y-104400000D03*
X153350000Y-116250000D03*
%TO.N,Net-(U3-MIC-IN)*%
X157850000Y-122900000D03*
%TO.N,Net-(U3-ANTENNA)*%
X145750000Y-85750000D03*
%TO.N,Net-(J2-Pin_1)*%
X153925735Y-107400000D03*
%TO.N,Net-(Q2-D)*%
X140750000Y-102000000D03*
%TO.N,XMIT-RX*%
X154250000Y-116500000D03*
X147800000Y-103900000D03*
%TO.N,Net-(Q4-C)*%
X164500000Y-105000000D03*
%TO.N,Net-(U3-HIGH{slash}LOW)*%
X164250000Y-97250000D03*
%TO.N,Net-(C15-Pad2)*%
X159250000Y-108250000D03*
X164500000Y-119750000D03*
%TO.N,XMIT-TX-AUDIO*%
X148750000Y-109750000D03*
X159400000Y-120900000D03*
%TD*%
%TA.AperFunction,Conductor*%
%TO.N,GND*%
G36*
X167143430Y-68270185D02*
G01*
X167189185Y-68322989D01*
X167200391Y-68374415D01*
X167201358Y-69794206D01*
X167201414Y-69875415D01*
X167181775Y-69942468D01*
X167129002Y-69988259D01*
X167077414Y-69999500D01*
X166618872Y-69999500D01*
X166387772Y-70029926D01*
X166358884Y-70033730D01*
X166105581Y-70101602D01*
X166105571Y-70101605D01*
X165863309Y-70201953D01*
X165863299Y-70201958D01*
X165636196Y-70333075D01*
X165428148Y-70492718D01*
X165242718Y-70678148D01*
X165083075Y-70886196D01*
X164951958Y-71113299D01*
X164951953Y-71113309D01*
X164851605Y-71355571D01*
X164851602Y-71355581D01*
X164783730Y-71608885D01*
X164749500Y-71868872D01*
X164749500Y-72131127D01*
X164766797Y-72262500D01*
X164783730Y-72391116D01*
X164838523Y-72595606D01*
X164851602Y-72644418D01*
X164851605Y-72644428D01*
X164951953Y-72886690D01*
X164951958Y-72886700D01*
X165083075Y-73113803D01*
X165242718Y-73321851D01*
X165242726Y-73321860D01*
X165428140Y-73507274D01*
X165428148Y-73507281D01*
X165636196Y-73666924D01*
X165863299Y-73798041D01*
X165863309Y-73798046D01*
X166105571Y-73898394D01*
X166105581Y-73898398D01*
X166358884Y-73966270D01*
X166618880Y-74000500D01*
X166618887Y-74000500D01*
X167080308Y-74000500D01*
X167147347Y-74020185D01*
X167193102Y-74072989D01*
X167204308Y-74124416D01*
X167205346Y-75648576D01*
X167185707Y-75715628D01*
X167132934Y-75761419D01*
X167113441Y-75768434D01*
X167056815Y-75783607D01*
X167056814Y-75783607D01*
X166942686Y-75849500D01*
X166942683Y-75849502D01*
X166849502Y-75942683D01*
X166849500Y-75942686D01*
X166783608Y-76056812D01*
X166749500Y-76184108D01*
X166749500Y-80818059D01*
X166729815Y-80885098D01*
X166677011Y-80930853D01*
X166607853Y-80940797D01*
X166544297Y-80911772D01*
X166537819Y-80905740D01*
X166510292Y-80878213D01*
X166510288Y-80878210D01*
X166379185Y-80790609D01*
X166379172Y-80790602D01*
X166233501Y-80730264D01*
X166233489Y-80730261D01*
X166078845Y-80699500D01*
X166078842Y-80699500D01*
X165921158Y-80699500D01*
X165921155Y-80699500D01*
X165766510Y-80730261D01*
X165766498Y-80730264D01*
X165620827Y-80790602D01*
X165620814Y-80790609D01*
X165489711Y-80878210D01*
X165489707Y-80878213D01*
X165378213Y-80989707D01*
X165378210Y-80989711D01*
X165290609Y-81120814D01*
X165290602Y-81120827D01*
X165230264Y-81266498D01*
X165230261Y-81266510D01*
X165199500Y-81421153D01*
X165199500Y-81578846D01*
X165230261Y-81733489D01*
X165230264Y-81733501D01*
X165290602Y-81879172D01*
X165290609Y-81879185D01*
X165378210Y-82010288D01*
X165378213Y-82010292D01*
X165489707Y-82121786D01*
X165489711Y-82121789D01*
X165620814Y-82209390D01*
X165620827Y-82209397D01*
X165757626Y-82266060D01*
X165766503Y-82269737D01*
X165921153Y-82300499D01*
X165921156Y-82300500D01*
X165921158Y-82300500D01*
X166078844Y-82300500D01*
X166078845Y-82300499D01*
X166233497Y-82269737D01*
X166379179Y-82209394D01*
X166510289Y-82121789D01*
X166513078Y-82119000D01*
X166537819Y-82094260D01*
X166599142Y-82060775D01*
X166668834Y-82065759D01*
X166724767Y-82107631D01*
X166749184Y-82173095D01*
X166749500Y-82181941D01*
X166749500Y-107818059D01*
X166729815Y-107885098D01*
X166677011Y-107930853D01*
X166607853Y-107940797D01*
X166544297Y-107911772D01*
X166537819Y-107905740D01*
X166510292Y-107878213D01*
X166510288Y-107878210D01*
X166379185Y-107790609D01*
X166379172Y-107790602D01*
X166233501Y-107730264D01*
X166233489Y-107730261D01*
X166078845Y-107699500D01*
X166078842Y-107699500D01*
X165921158Y-107699500D01*
X165921155Y-107699500D01*
X165766510Y-107730261D01*
X165766498Y-107730264D01*
X165620827Y-107790602D01*
X165620814Y-107790609D01*
X165489711Y-107878210D01*
X165489707Y-107878213D01*
X165378213Y-107989707D01*
X165378210Y-107989711D01*
X165290609Y-108120814D01*
X165290602Y-108120827D01*
X165230264Y-108266498D01*
X165230261Y-108266510D01*
X165199500Y-108421153D01*
X165199500Y-108578846D01*
X165230261Y-108733489D01*
X165230264Y-108733501D01*
X165290602Y-108879172D01*
X165290609Y-108879185D01*
X165378210Y-109010288D01*
X165378213Y-109010292D01*
X165489707Y-109121786D01*
X165489711Y-109121789D01*
X165620814Y-109209390D01*
X165620827Y-109209397D01*
X165694013Y-109239711D01*
X165766503Y-109269737D01*
X165921153Y-109300499D01*
X165921156Y-109300500D01*
X165921158Y-109300500D01*
X166078844Y-109300500D01*
X166078845Y-109300499D01*
X166233497Y-109269737D01*
X166379179Y-109209394D01*
X166510289Y-109121789D01*
X166510292Y-109121786D01*
X166537819Y-109094260D01*
X166599142Y-109060775D01*
X166668834Y-109065759D01*
X166724767Y-109107631D01*
X166749184Y-109173095D01*
X166749500Y-109181941D01*
X166749500Y-133684433D01*
X166749500Y-133816217D01*
X166752884Y-133828846D01*
X166783608Y-133943512D01*
X166806689Y-133983489D01*
X166849500Y-134057639D01*
X166942686Y-134150825D01*
X167056814Y-134216717D01*
X167153436Y-134242606D01*
X167213094Y-134278969D01*
X167243624Y-134341816D01*
X167245341Y-134362295D01*
X167246032Y-135375915D01*
X167226393Y-135442968D01*
X167173620Y-135488759D01*
X167122032Y-135500000D01*
X166618905Y-135500000D01*
X166358990Y-135534220D01*
X166358979Y-135534222D01*
X166105744Y-135602075D01*
X165863528Y-135702404D01*
X165863517Y-135702409D01*
X165636471Y-135833496D01*
X165428480Y-135993092D01*
X165428473Y-135993098D01*
X165243098Y-136178473D01*
X165243092Y-136178480D01*
X165083496Y-136386471D01*
X164952409Y-136613517D01*
X164952404Y-136613528D01*
X164852075Y-136855744D01*
X164784221Y-137108983D01*
X164765654Y-137249999D01*
X164765655Y-137250000D01*
X166024015Y-137250000D01*
X166000000Y-137401623D01*
X166000000Y-137598377D01*
X166024015Y-137750000D01*
X164765655Y-137750000D01*
X164784221Y-137891016D01*
X164852075Y-138144255D01*
X164952404Y-138386471D01*
X164952409Y-138386482D01*
X165083496Y-138613528D01*
X165243092Y-138821519D01*
X165243098Y-138821526D01*
X165428473Y-139006901D01*
X165428480Y-139006907D01*
X165636471Y-139166503D01*
X165863517Y-139297590D01*
X165863528Y-139297595D01*
X166105744Y-139397924D01*
X166358979Y-139465777D01*
X166358990Y-139465779D01*
X166618905Y-139499999D01*
X166618920Y-139500000D01*
X167124926Y-139500000D01*
X167191965Y-139519685D01*
X167237720Y-139572489D01*
X167248926Y-139623915D01*
X167249156Y-139960917D01*
X167249421Y-140350500D01*
X167249609Y-140625415D01*
X167229970Y-140692468D01*
X167177197Y-140738259D01*
X167125609Y-140749500D01*
X154124000Y-140749500D01*
X154056961Y-140729815D01*
X154011206Y-140677011D01*
X154000000Y-140625500D01*
X154000000Y-136353713D01*
X154349500Y-136353713D01*
X154349500Y-136566286D01*
X154369844Y-136694737D01*
X154382754Y-136776243D01*
X154447103Y-136974289D01*
X154448444Y-136978414D01*
X154544951Y-137167820D01*
X154669890Y-137339786D01*
X154783430Y-137453326D01*
X154816915Y-137514649D01*
X154811931Y-137584341D01*
X154770059Y-137640274D01*
X154739083Y-137657189D01*
X154607669Y-137706203D01*
X154607664Y-137706206D01*
X154492455Y-137792452D01*
X154492452Y-137792455D01*
X154406206Y-137907664D01*
X154406202Y-137907671D01*
X154355908Y-138042517D01*
X154349501Y-138102116D01*
X154349500Y-138102135D01*
X154349500Y-139897870D01*
X154349501Y-139897876D01*
X154355908Y-139957483D01*
X154406202Y-140092328D01*
X154406206Y-140092335D01*
X154492452Y-140207544D01*
X154492455Y-140207547D01*
X154607664Y-140293793D01*
X154607671Y-140293797D01*
X154742517Y-140344091D01*
X154742516Y-140344091D01*
X154749444Y-140344835D01*
X154802127Y-140350500D01*
X156597872Y-140350499D01*
X156657483Y-140344091D01*
X156792331Y-140293796D01*
X156907546Y-140207546D01*
X156993796Y-140092331D01*
X157042810Y-139960916D01*
X157084681Y-139904984D01*
X157150145Y-139880566D01*
X157218418Y-139895417D01*
X157246673Y-139916569D01*
X157360213Y-140030109D01*
X157532179Y-140155048D01*
X157532181Y-140155049D01*
X157532184Y-140155051D01*
X157721588Y-140251557D01*
X157923757Y-140317246D01*
X158133713Y-140350500D01*
X158133714Y-140350500D01*
X158346286Y-140350500D01*
X158346287Y-140350500D01*
X158556243Y-140317246D01*
X158758412Y-140251557D01*
X158947816Y-140155051D01*
X159034138Y-140092335D01*
X159119786Y-140030109D01*
X159119788Y-140030106D01*
X159119792Y-140030104D01*
X159270104Y-139879792D01*
X159270106Y-139879788D01*
X159270109Y-139879786D01*
X159395048Y-139707820D01*
X159395047Y-139707820D01*
X159395051Y-139707816D01*
X159399514Y-139699054D01*
X159447488Y-139648259D01*
X159515308Y-139631463D01*
X159581444Y-139653999D01*
X159620486Y-139699056D01*
X159624951Y-139707820D01*
X159749890Y-139879786D01*
X159900213Y-140030109D01*
X160072179Y-140155048D01*
X160072181Y-140155049D01*
X160072184Y-140155051D01*
X160261588Y-140251557D01*
X160463757Y-140317246D01*
X160673713Y-140350500D01*
X160673714Y-140350500D01*
X160886286Y-140350500D01*
X160886287Y-140350500D01*
X161096243Y-140317246D01*
X161298412Y-140251557D01*
X161487816Y-140155051D01*
X161574138Y-140092335D01*
X161659786Y-140030109D01*
X161659788Y-140030106D01*
X161659792Y-140030104D01*
X161810104Y-139879792D01*
X161810106Y-139879788D01*
X161810109Y-139879786D01*
X161935048Y-139707820D01*
X161935047Y-139707820D01*
X161935051Y-139707816D01*
X162031557Y-139518412D01*
X162097246Y-139316243D01*
X162130500Y-139106287D01*
X162130500Y-138893713D01*
X162097246Y-138683757D01*
X162031557Y-138481588D01*
X161935051Y-138292184D01*
X161935049Y-138292181D01*
X161935048Y-138292179D01*
X161810109Y-138120213D01*
X161659786Y-137969890D01*
X161487817Y-137844949D01*
X161478504Y-137840204D01*
X161427707Y-137792230D01*
X161410912Y-137724409D01*
X161433449Y-137658274D01*
X161478507Y-137619232D01*
X161487558Y-137614620D01*
X161659459Y-137489727D01*
X161659464Y-137489723D01*
X161809723Y-137339464D01*
X161809727Y-137339459D01*
X161934620Y-137167557D01*
X162031095Y-136978217D01*
X162096757Y-136776129D01*
X162096757Y-136776126D01*
X162107231Y-136710000D01*
X161213012Y-136710000D01*
X161245925Y-136652993D01*
X161280000Y-136525826D01*
X161280000Y-136394174D01*
X161245925Y-136267007D01*
X161213012Y-136210000D01*
X162107231Y-136210000D01*
X162096757Y-136143873D01*
X162096757Y-136143870D01*
X162031095Y-135941782D01*
X161934620Y-135752442D01*
X161809727Y-135580540D01*
X161809723Y-135580535D01*
X161659464Y-135430276D01*
X161659459Y-135430272D01*
X161487557Y-135305379D01*
X161298215Y-135208903D01*
X161096124Y-135143241D01*
X161030000Y-135132768D01*
X161030000Y-136026988D01*
X160972993Y-135994075D01*
X160845826Y-135960000D01*
X160714174Y-135960000D01*
X160587007Y-135994075D01*
X160530000Y-136026988D01*
X160530000Y-135132768D01*
X160529999Y-135132768D01*
X160463875Y-135143241D01*
X160261784Y-135208903D01*
X160072442Y-135305379D01*
X159900540Y-135430272D01*
X159900535Y-135430276D01*
X159750276Y-135580535D01*
X159750272Y-135580540D01*
X159625378Y-135752443D01*
X159620762Y-135761502D01*
X159572784Y-135812295D01*
X159504963Y-135829087D01*
X159438829Y-135806546D01*
X159399794Y-135761493D01*
X159395051Y-135752184D01*
X159395049Y-135752181D01*
X159395048Y-135752179D01*
X159270109Y-135580213D01*
X159119786Y-135429890D01*
X158947820Y-135304951D01*
X158758414Y-135208444D01*
X158758413Y-135208443D01*
X158758412Y-135208443D01*
X158556243Y-135142754D01*
X158556241Y-135142753D01*
X158556240Y-135142753D01*
X158394957Y-135117208D01*
X158346287Y-135109500D01*
X158133713Y-135109500D01*
X158085042Y-135117208D01*
X157923760Y-135142753D01*
X157721585Y-135208444D01*
X157532179Y-135304951D01*
X157360213Y-135429890D01*
X157209890Y-135580213D01*
X157084949Y-135752182D01*
X157080484Y-135760946D01*
X157032509Y-135811742D01*
X156964688Y-135828536D01*
X156898553Y-135805998D01*
X156859516Y-135760946D01*
X156855050Y-135752182D01*
X156730109Y-135580213D01*
X156579786Y-135429890D01*
X156407820Y-135304951D01*
X156218414Y-135208444D01*
X156218413Y-135208443D01*
X156218412Y-135208443D01*
X156016243Y-135142754D01*
X156016241Y-135142753D01*
X156016240Y-135142753D01*
X155854957Y-135117208D01*
X155806287Y-135109500D01*
X155593713Y-135109500D01*
X155545042Y-135117208D01*
X155383760Y-135142753D01*
X155181585Y-135208444D01*
X154992179Y-135304951D01*
X154820213Y-135429890D01*
X154669890Y-135580213D01*
X154544951Y-135752179D01*
X154448444Y-135941585D01*
X154382753Y-136143760D01*
X154349500Y-136353713D01*
X154000000Y-136353713D01*
X154000000Y-134921153D01*
X162699500Y-134921153D01*
X162699500Y-135078846D01*
X162730261Y-135233489D01*
X162730264Y-135233501D01*
X162790602Y-135379172D01*
X162790609Y-135379185D01*
X162878210Y-135510288D01*
X162878213Y-135510292D01*
X162989707Y-135621786D01*
X162989711Y-135621789D01*
X163120814Y-135709390D01*
X163120827Y-135709397D01*
X163266498Y-135769735D01*
X163266503Y-135769737D01*
X163421153Y-135800499D01*
X163421156Y-135800500D01*
X163421158Y-135800500D01*
X163578844Y-135800500D01*
X163578845Y-135800499D01*
X163733497Y-135769737D01*
X163879179Y-135709394D01*
X164010289Y-135621789D01*
X164121789Y-135510289D01*
X164209394Y-135379179D01*
X164269737Y-135233497D01*
X164300500Y-135078842D01*
X164300500Y-134921158D01*
X164300500Y-134921155D01*
X164300499Y-134921153D01*
X164269738Y-134766510D01*
X164269737Y-134766503D01*
X164269735Y-134766498D01*
X164209397Y-134620827D01*
X164209390Y-134620814D01*
X164121789Y-134489711D01*
X164121786Y-134489707D01*
X164010292Y-134378213D01*
X164010288Y-134378210D01*
X163879185Y-134290609D01*
X163879172Y-134290602D01*
X163733501Y-134230264D01*
X163733489Y-134230261D01*
X163578845Y-134199500D01*
X163578842Y-134199500D01*
X163421158Y-134199500D01*
X163421155Y-134199500D01*
X163266510Y-134230261D01*
X163266498Y-134230264D01*
X163120827Y-134290602D01*
X163120814Y-134290609D01*
X162989711Y-134378210D01*
X162989707Y-134378213D01*
X162878213Y-134489707D01*
X162878210Y-134489711D01*
X162790609Y-134620814D01*
X162790602Y-134620827D01*
X162730264Y-134766498D01*
X162730261Y-134766510D01*
X162699500Y-134921153D01*
X154000000Y-134921153D01*
X154000000Y-133671153D01*
X156449500Y-133671153D01*
X156449500Y-133828846D01*
X156480261Y-133983489D01*
X156480264Y-133983501D01*
X156540602Y-134129172D01*
X156540609Y-134129185D01*
X156628210Y-134260288D01*
X156628213Y-134260292D01*
X156739707Y-134371786D01*
X156739711Y-134371789D01*
X156870814Y-134459390D01*
X156870827Y-134459397D01*
X156944013Y-134489711D01*
X157016503Y-134519737D01*
X157171153Y-134550499D01*
X157171156Y-134550500D01*
X157171158Y-134550500D01*
X157328844Y-134550500D01*
X157328845Y-134550499D01*
X157483497Y-134519737D01*
X157629179Y-134459394D01*
X157760289Y-134371789D01*
X157871789Y-134260289D01*
X157959394Y-134129179D01*
X158019737Y-133983497D01*
X158050500Y-133828842D01*
X158050500Y-133671158D01*
X158050500Y-133671155D01*
X158050499Y-133671153D01*
X158019738Y-133516510D01*
X158019737Y-133516503D01*
X158004214Y-133479027D01*
X157959397Y-133370827D01*
X157959390Y-133370814D01*
X157871789Y-133239711D01*
X157871786Y-133239707D01*
X157760292Y-133128213D01*
X157760288Y-133128210D01*
X157629185Y-133040609D01*
X157629172Y-133040602D01*
X157483501Y-132980264D01*
X157483489Y-132980261D01*
X157328845Y-132949500D01*
X157328842Y-132949500D01*
X157171158Y-132949500D01*
X157171155Y-132949500D01*
X157016510Y-132980261D01*
X157016498Y-132980264D01*
X156870827Y-133040602D01*
X156870814Y-133040609D01*
X156739711Y-133128210D01*
X156739707Y-133128213D01*
X156628213Y-133239707D01*
X156628210Y-133239711D01*
X156540609Y-133370814D01*
X156540602Y-133370827D01*
X156480264Y-133516498D01*
X156480261Y-133516510D01*
X156449500Y-133671153D01*
X154000000Y-133671153D01*
X154000000Y-132700000D01*
X140200000Y-132700000D01*
X140200000Y-140625500D01*
X140180315Y-140692539D01*
X140127511Y-140738294D01*
X140076000Y-140749500D01*
X137424000Y-140749500D01*
X137356961Y-140729815D01*
X137311206Y-140677011D01*
X137300000Y-140625500D01*
X137300000Y-139624000D01*
X137319685Y-139556961D01*
X137372489Y-139511206D01*
X137424000Y-139500000D01*
X137881080Y-139500000D01*
X137881094Y-139499999D01*
X138141009Y-139465779D01*
X138141020Y-139465777D01*
X138394255Y-139397924D01*
X138636471Y-139297595D01*
X138636482Y-139297590D01*
X138863528Y-139166503D01*
X139071519Y-139006907D01*
X139071526Y-139006901D01*
X139256901Y-138821526D01*
X139256907Y-138821519D01*
X139416503Y-138613528D01*
X139547590Y-138386482D01*
X139547595Y-138386471D01*
X139647924Y-138144255D01*
X139715778Y-137891016D01*
X139734345Y-137750000D01*
X138475985Y-137750000D01*
X138500000Y-137598377D01*
X138500000Y-137401623D01*
X138475985Y-137250000D01*
X139734345Y-137250000D01*
X139734345Y-137249999D01*
X139715778Y-137108983D01*
X139647924Y-136855744D01*
X139547595Y-136613528D01*
X139547590Y-136613517D01*
X139416503Y-136386471D01*
X139256907Y-136178480D01*
X139256901Y-136178473D01*
X139071526Y-135993098D01*
X139071519Y-135993092D01*
X138863528Y-135833496D01*
X138636482Y-135702409D01*
X138636471Y-135702404D01*
X138394255Y-135602075D01*
X138141020Y-135534222D01*
X138141009Y-135534220D01*
X137881094Y-135500000D01*
X137424000Y-135500000D01*
X137356961Y-135480315D01*
X137311206Y-135427511D01*
X137300000Y-135376000D01*
X137300000Y-134349906D01*
X137319685Y-134282867D01*
X137372489Y-134237112D01*
X137391899Y-134230134D01*
X137443186Y-134216392D01*
X137557314Y-134150500D01*
X137650500Y-134057314D01*
X137716392Y-133943186D01*
X137750500Y-133815892D01*
X137750500Y-133684108D01*
X137750500Y-131821153D01*
X155849500Y-131821153D01*
X155849500Y-131978846D01*
X155880261Y-132133489D01*
X155880264Y-132133501D01*
X155940602Y-132279172D01*
X155940609Y-132279185D01*
X156028210Y-132410288D01*
X156028213Y-132410292D01*
X156139707Y-132521786D01*
X156139711Y-132521789D01*
X156270814Y-132609390D01*
X156270827Y-132609397D01*
X156416498Y-132669735D01*
X156416503Y-132669737D01*
X156568644Y-132700000D01*
X156571153Y-132700499D01*
X156571156Y-132700500D01*
X156571158Y-132700500D01*
X156728844Y-132700500D01*
X156728845Y-132700499D01*
X156883497Y-132669737D01*
X157029179Y-132609394D01*
X157160289Y-132521789D01*
X157271789Y-132410289D01*
X157359394Y-132279179D01*
X157419737Y-132133497D01*
X157450500Y-131978842D01*
X157450500Y-131821158D01*
X157450500Y-131821155D01*
X157450499Y-131821153D01*
X157419738Y-131666510D01*
X157419737Y-131666503D01*
X157419735Y-131666498D01*
X157359397Y-131520827D01*
X157359390Y-131520814D01*
X157271789Y-131389711D01*
X157271786Y-131389707D01*
X157160292Y-131278213D01*
X157160288Y-131278210D01*
X157029185Y-131190609D01*
X157029172Y-131190602D01*
X156883501Y-131130264D01*
X156883489Y-131130261D01*
X156728845Y-131099500D01*
X156728842Y-131099500D01*
X156571158Y-131099500D01*
X156571155Y-131099500D01*
X156416510Y-131130261D01*
X156416498Y-131130264D01*
X156270827Y-131190602D01*
X156270814Y-131190609D01*
X156139711Y-131278210D01*
X156139707Y-131278213D01*
X156028213Y-131389707D01*
X156028210Y-131389711D01*
X155940609Y-131520814D01*
X155940602Y-131520827D01*
X155880264Y-131666498D01*
X155880261Y-131666510D01*
X155849500Y-131821153D01*
X137750500Y-131821153D01*
X137750500Y-126021153D01*
X139299500Y-126021153D01*
X139299500Y-126178846D01*
X139330261Y-126333489D01*
X139330264Y-126333501D01*
X139390602Y-126479172D01*
X139390609Y-126479185D01*
X139478210Y-126610288D01*
X139478213Y-126610292D01*
X139589707Y-126721786D01*
X139589711Y-126721789D01*
X139720814Y-126809390D01*
X139720827Y-126809397D01*
X139866498Y-126869735D01*
X139866503Y-126869737D01*
X140021153Y-126900499D01*
X140021156Y-126900500D01*
X140021158Y-126900500D01*
X140178844Y-126900500D01*
X140178845Y-126900499D01*
X140333497Y-126869737D01*
X140479179Y-126809394D01*
X140610289Y-126721789D01*
X140721789Y-126610289D01*
X140809394Y-126479179D01*
X140869737Y-126333497D01*
X140900500Y-126178842D01*
X140900500Y-126021158D01*
X140900500Y-126021155D01*
X140900499Y-126021153D01*
X140869738Y-125866510D01*
X140869737Y-125866503D01*
X140869735Y-125866498D01*
X140809397Y-125720827D01*
X140809390Y-125720814D01*
X140721789Y-125589711D01*
X140721786Y-125589707D01*
X140610292Y-125478213D01*
X140610288Y-125478210D01*
X140479185Y-125390609D01*
X140479172Y-125390602D01*
X140333501Y-125330264D01*
X140333489Y-125330261D01*
X140178845Y-125299500D01*
X140178842Y-125299500D01*
X140021158Y-125299500D01*
X140021155Y-125299500D01*
X139866510Y-125330261D01*
X139866498Y-125330264D01*
X139720827Y-125390602D01*
X139720814Y-125390609D01*
X139589711Y-125478210D01*
X139589707Y-125478213D01*
X139478213Y-125589707D01*
X139478210Y-125589711D01*
X139390609Y-125720814D01*
X139390602Y-125720827D01*
X139330264Y-125866498D01*
X139330261Y-125866510D01*
X139299500Y-126021153D01*
X137750500Y-126021153D01*
X137750500Y-122821153D01*
X157049500Y-122821153D01*
X157049500Y-122978846D01*
X157080261Y-123133489D01*
X157080264Y-123133501D01*
X157140602Y-123279172D01*
X157140609Y-123279185D01*
X157228210Y-123410288D01*
X157228213Y-123410292D01*
X157339707Y-123521786D01*
X157339711Y-123521789D01*
X157470814Y-123609390D01*
X157470827Y-123609397D01*
X157616498Y-123669735D01*
X157616503Y-123669737D01*
X157771153Y-123700499D01*
X157771156Y-123700500D01*
X157771158Y-123700500D01*
X157928844Y-123700500D01*
X157928845Y-123700499D01*
X158083497Y-123669737D01*
X158229179Y-123609394D01*
X158360289Y-123521789D01*
X158471789Y-123410289D01*
X158559394Y-123279179D01*
X158619737Y-123133497D01*
X158650500Y-122978842D01*
X158650500Y-122821158D01*
X158650500Y-122821155D01*
X158650499Y-122821153D01*
X158619738Y-122666510D01*
X158619737Y-122666503D01*
X158619735Y-122666498D01*
X158559397Y-122520827D01*
X158559390Y-122520814D01*
X158471789Y-122389711D01*
X158471786Y-122389707D01*
X158360292Y-122278213D01*
X158360288Y-122278210D01*
X158229185Y-122190609D01*
X158229172Y-122190602D01*
X158083501Y-122130264D01*
X158083489Y-122130261D01*
X157928845Y-122099500D01*
X157928842Y-122099500D01*
X157771158Y-122099500D01*
X157771155Y-122099500D01*
X157616510Y-122130261D01*
X157616498Y-122130264D01*
X157470827Y-122190602D01*
X157470814Y-122190609D01*
X157339711Y-122278210D01*
X157339707Y-122278213D01*
X157228213Y-122389707D01*
X157228210Y-122389711D01*
X157140609Y-122520814D01*
X157140602Y-122520827D01*
X157080264Y-122666498D01*
X157080261Y-122666510D01*
X157049500Y-122821153D01*
X137750500Y-122821153D01*
X137750500Y-120921153D01*
X154699500Y-120921153D01*
X154699500Y-121078846D01*
X154730261Y-121233489D01*
X154730264Y-121233501D01*
X154790602Y-121379172D01*
X154790609Y-121379185D01*
X154878210Y-121510288D01*
X154878213Y-121510292D01*
X154989707Y-121621786D01*
X154989711Y-121621789D01*
X155120814Y-121709390D01*
X155120827Y-121709397D01*
X155266498Y-121769735D01*
X155266503Y-121769737D01*
X155421153Y-121800499D01*
X155421156Y-121800500D01*
X155421158Y-121800500D01*
X155578844Y-121800500D01*
X155578845Y-121800499D01*
X155733497Y-121769737D01*
X155879179Y-121709394D01*
X156010289Y-121621789D01*
X156121789Y-121510289D01*
X156209394Y-121379179D01*
X156269737Y-121233497D01*
X156300500Y-121078842D01*
X156300500Y-120921158D01*
X156300500Y-120921155D01*
X156284209Y-120839258D01*
X156284209Y-120839257D01*
X156280608Y-120821153D01*
X158599500Y-120821153D01*
X158599500Y-120978846D01*
X158630261Y-121133489D01*
X158630264Y-121133501D01*
X158690602Y-121279172D01*
X158690609Y-121279185D01*
X158778210Y-121410288D01*
X158778213Y-121410292D01*
X158889707Y-121521786D01*
X158889711Y-121521789D01*
X159020814Y-121609390D01*
X159020827Y-121609397D01*
X159166498Y-121669735D01*
X159166503Y-121669737D01*
X159321153Y-121700499D01*
X159321156Y-121700500D01*
X159321158Y-121700500D01*
X159478844Y-121700500D01*
X159478845Y-121700499D01*
X159633497Y-121669737D01*
X159779179Y-121609394D01*
X159910289Y-121521789D01*
X160021789Y-121410289D01*
X160109394Y-121279179D01*
X160169737Y-121133497D01*
X160200500Y-120978842D01*
X160200500Y-120821158D01*
X160200500Y-120821155D01*
X160200499Y-120821153D01*
X160169738Y-120666510D01*
X160169737Y-120666503D01*
X160150812Y-120620814D01*
X160109397Y-120520827D01*
X160109390Y-120520814D01*
X160021789Y-120389711D01*
X160021786Y-120389707D01*
X159910292Y-120278213D01*
X159910288Y-120278210D01*
X159779185Y-120190609D01*
X159779172Y-120190602D01*
X159633501Y-120130264D01*
X159633489Y-120130261D01*
X159478845Y-120099500D01*
X159478842Y-120099500D01*
X159321158Y-120099500D01*
X159321155Y-120099500D01*
X159166510Y-120130261D01*
X159166498Y-120130264D01*
X159020827Y-120190602D01*
X159020814Y-120190609D01*
X158889711Y-120278210D01*
X158889707Y-120278213D01*
X158778213Y-120389707D01*
X158778210Y-120389711D01*
X158690609Y-120520814D01*
X158690602Y-120520827D01*
X158630264Y-120666498D01*
X158630261Y-120666510D01*
X158599500Y-120821153D01*
X156280608Y-120821153D01*
X156269738Y-120766510D01*
X156269737Y-120766503D01*
X156228314Y-120666498D01*
X156209397Y-120620827D01*
X156209390Y-120620814D01*
X156121789Y-120489711D01*
X156121786Y-120489707D01*
X156010292Y-120378213D01*
X156010288Y-120378210D01*
X155879185Y-120290609D01*
X155879172Y-120290602D01*
X155733501Y-120230264D01*
X155733489Y-120230261D01*
X155578845Y-120199500D01*
X155578842Y-120199500D01*
X155421158Y-120199500D01*
X155421155Y-120199500D01*
X155266510Y-120230261D01*
X155266498Y-120230264D01*
X155120827Y-120290602D01*
X155120814Y-120290609D01*
X154989711Y-120378210D01*
X154989707Y-120378213D01*
X154878213Y-120489707D01*
X154878210Y-120489711D01*
X154790609Y-120620814D01*
X154790602Y-120620827D01*
X154730264Y-120766498D01*
X154730261Y-120766510D01*
X154699500Y-120921153D01*
X137750500Y-120921153D01*
X137750500Y-119021153D01*
X147999500Y-119021153D01*
X147999500Y-119178846D01*
X148030261Y-119333489D01*
X148030264Y-119333501D01*
X148090602Y-119479172D01*
X148090609Y-119479185D01*
X148178210Y-119610288D01*
X148178213Y-119610292D01*
X148289707Y-119721786D01*
X148289711Y-119721789D01*
X148420814Y-119809390D01*
X148420827Y-119809397D01*
X148566498Y-119869735D01*
X148566503Y-119869737D01*
X148721153Y-119900499D01*
X148721156Y-119900500D01*
X148721158Y-119900500D01*
X148878844Y-119900500D01*
X148878845Y-119900499D01*
X149033497Y-119869737D01*
X149179179Y-119809394D01*
X149310289Y-119721789D01*
X149360925Y-119671153D01*
X163699500Y-119671153D01*
X163699500Y-119828846D01*
X163730261Y-119983489D01*
X163730264Y-119983501D01*
X163790602Y-120129172D01*
X163790609Y-120129185D01*
X163878210Y-120260288D01*
X163878213Y-120260292D01*
X163989707Y-120371786D01*
X163989711Y-120371789D01*
X164120814Y-120459390D01*
X164120827Y-120459397D01*
X164194013Y-120489711D01*
X164266503Y-120519737D01*
X164421153Y-120550499D01*
X164421156Y-120550500D01*
X164421158Y-120550500D01*
X164578844Y-120550500D01*
X164578845Y-120550499D01*
X164733497Y-120519737D01*
X164879179Y-120459394D01*
X165010289Y-120371789D01*
X165121789Y-120260289D01*
X165209394Y-120129179D01*
X165269737Y-119983497D01*
X165300500Y-119828842D01*
X165300500Y-119671158D01*
X165300500Y-119671155D01*
X165300499Y-119671153D01*
X165269738Y-119516510D01*
X165269737Y-119516503D01*
X165269735Y-119516498D01*
X165209397Y-119370827D01*
X165209390Y-119370814D01*
X165121789Y-119239711D01*
X165121786Y-119239707D01*
X165010292Y-119128213D01*
X165010288Y-119128210D01*
X164879185Y-119040609D01*
X164879172Y-119040602D01*
X164733501Y-118980264D01*
X164733489Y-118980261D01*
X164578845Y-118949500D01*
X164578842Y-118949500D01*
X164421158Y-118949500D01*
X164421155Y-118949500D01*
X164266510Y-118980261D01*
X164266498Y-118980264D01*
X164120827Y-119040602D01*
X164120814Y-119040609D01*
X163989711Y-119128210D01*
X163989707Y-119128213D01*
X163878213Y-119239707D01*
X163878210Y-119239711D01*
X163790609Y-119370814D01*
X163790602Y-119370827D01*
X163730264Y-119516498D01*
X163730261Y-119516510D01*
X163699500Y-119671153D01*
X149360925Y-119671153D01*
X149421789Y-119610289D01*
X149509394Y-119479179D01*
X149569737Y-119333497D01*
X149600500Y-119178842D01*
X149600500Y-119021158D01*
X149600500Y-119021155D01*
X149600499Y-119021153D01*
X149570788Y-118871789D01*
X149569737Y-118866503D01*
X149569735Y-118866498D01*
X149509397Y-118720827D01*
X149509390Y-118720814D01*
X149421789Y-118589711D01*
X149421786Y-118589707D01*
X149310292Y-118478213D01*
X149310288Y-118478210D01*
X149179185Y-118390609D01*
X149179172Y-118390602D01*
X149033501Y-118330264D01*
X149033489Y-118330261D01*
X148878845Y-118299500D01*
X148878842Y-118299500D01*
X148721158Y-118299500D01*
X148721155Y-118299500D01*
X148566510Y-118330261D01*
X148566498Y-118330264D01*
X148420827Y-118390602D01*
X148420814Y-118390609D01*
X148289711Y-118478210D01*
X148289707Y-118478213D01*
X148178213Y-118589707D01*
X148178210Y-118589711D01*
X148090609Y-118720814D01*
X148090602Y-118720827D01*
X148030264Y-118866498D01*
X148030261Y-118866510D01*
X147999500Y-119021153D01*
X137750500Y-119021153D01*
X137750500Y-118171153D01*
X157449500Y-118171153D01*
X157449500Y-118328846D01*
X157480261Y-118483489D01*
X157480264Y-118483501D01*
X157540602Y-118629172D01*
X157540609Y-118629185D01*
X157628210Y-118760288D01*
X157628213Y-118760292D01*
X157739707Y-118871786D01*
X157739711Y-118871789D01*
X157870814Y-118959390D01*
X157870827Y-118959397D01*
X158016498Y-119019735D01*
X158016503Y-119019737D01*
X158171153Y-119050499D01*
X158171156Y-119050500D01*
X158171158Y-119050500D01*
X158328844Y-119050500D01*
X158328845Y-119050499D01*
X158483497Y-119019737D01*
X158629179Y-118959394D01*
X158760289Y-118871789D01*
X158871789Y-118760289D01*
X158959394Y-118629179D01*
X159019737Y-118483497D01*
X159050500Y-118328842D01*
X159050500Y-118171158D01*
X159050500Y-118171155D01*
X159050499Y-118171153D01*
X159019738Y-118016510D01*
X159019737Y-118016503D01*
X159019735Y-118016498D01*
X158959397Y-117870827D01*
X158959390Y-117870814D01*
X158871789Y-117739711D01*
X158871786Y-117739707D01*
X158760292Y-117628213D01*
X158760288Y-117628210D01*
X158629185Y-117540609D01*
X158629172Y-117540602D01*
X158483501Y-117480264D01*
X158483489Y-117480261D01*
X158328845Y-117449500D01*
X158328842Y-117449500D01*
X158171158Y-117449500D01*
X158171155Y-117449500D01*
X158016510Y-117480261D01*
X158016498Y-117480264D01*
X157870827Y-117540602D01*
X157870814Y-117540609D01*
X157739711Y-117628210D01*
X157739707Y-117628213D01*
X157628213Y-117739707D01*
X157628210Y-117739711D01*
X157540609Y-117870814D01*
X157540602Y-117870827D01*
X157480264Y-118016498D01*
X157480261Y-118016510D01*
X157449500Y-118171153D01*
X137750500Y-118171153D01*
X137750500Y-116171153D01*
X152549500Y-116171153D01*
X152549500Y-116328846D01*
X152580261Y-116483489D01*
X152580264Y-116483501D01*
X152640602Y-116629172D01*
X152640609Y-116629185D01*
X152728210Y-116760288D01*
X152728213Y-116760292D01*
X152839707Y-116871786D01*
X152839711Y-116871789D01*
X152970814Y-116959390D01*
X152970827Y-116959397D01*
X153116498Y-117019735D01*
X153116503Y-117019737D01*
X153271153Y-117050499D01*
X153271156Y-117050500D01*
X153271158Y-117050500D01*
X153428844Y-117050500D01*
X153428845Y-117050499D01*
X153465803Y-117043147D01*
X153563667Y-117023682D01*
X153633258Y-117029909D01*
X153675539Y-117057618D01*
X153739707Y-117121786D01*
X153739711Y-117121789D01*
X153870814Y-117209390D01*
X153870827Y-117209397D01*
X154016498Y-117269735D01*
X154016503Y-117269737D01*
X154171153Y-117300499D01*
X154171156Y-117300500D01*
X154171158Y-117300500D01*
X154328844Y-117300500D01*
X154328845Y-117300499D01*
X154483497Y-117269737D01*
X154629179Y-117209394D01*
X154760289Y-117121789D01*
X154871789Y-117010289D01*
X154959394Y-116879179D01*
X155019737Y-116733497D01*
X155050500Y-116578842D01*
X155050500Y-116421158D01*
X155050500Y-116421155D01*
X155050499Y-116421153D01*
X155019738Y-116266510D01*
X155019737Y-116266503D01*
X154980242Y-116171153D01*
X154959397Y-116120827D01*
X154959390Y-116120814D01*
X154871789Y-115989711D01*
X154871786Y-115989707D01*
X154760292Y-115878213D01*
X154760288Y-115878210D01*
X154629185Y-115790609D01*
X154629172Y-115790602D01*
X154483501Y-115730264D01*
X154483489Y-115730261D01*
X154328845Y-115699500D01*
X154328842Y-115699500D01*
X154171158Y-115699500D01*
X154171155Y-115699500D01*
X154036333Y-115726318D01*
X153966742Y-115720091D01*
X153924461Y-115692382D01*
X153860292Y-115628213D01*
X153860288Y-115628210D01*
X153729185Y-115540609D01*
X153729172Y-115540602D01*
X153583501Y-115480264D01*
X153583489Y-115480261D01*
X153428845Y-115449500D01*
X153428842Y-115449500D01*
X153271158Y-115449500D01*
X153271155Y-115449500D01*
X153116510Y-115480261D01*
X153116498Y-115480264D01*
X152970827Y-115540602D01*
X152970814Y-115540609D01*
X152839711Y-115628210D01*
X152839707Y-115628213D01*
X152728213Y-115739707D01*
X152728210Y-115739711D01*
X152640609Y-115870814D01*
X152640602Y-115870827D01*
X152580264Y-116016498D01*
X152580261Y-116016510D01*
X152549500Y-116171153D01*
X137750500Y-116171153D01*
X137750500Y-113921153D01*
X150699500Y-113921153D01*
X150699500Y-114078846D01*
X150730261Y-114233489D01*
X150730264Y-114233501D01*
X150790602Y-114379172D01*
X150790609Y-114379185D01*
X150878210Y-114510288D01*
X150878213Y-114510292D01*
X150989707Y-114621786D01*
X150989711Y-114621789D01*
X151120814Y-114709390D01*
X151120827Y-114709397D01*
X151266498Y-114769735D01*
X151266503Y-114769737D01*
X151421153Y-114800499D01*
X151421156Y-114800500D01*
X151421158Y-114800500D01*
X151578844Y-114800500D01*
X151578845Y-114800499D01*
X151733497Y-114769737D01*
X151879179Y-114709394D01*
X152010289Y-114621789D01*
X152121789Y-114510289D01*
X152209394Y-114379179D01*
X152269737Y-114233497D01*
X152300500Y-114078842D01*
X152300500Y-113921158D01*
X152300500Y-113921155D01*
X152300499Y-113921153D01*
X152269738Y-113766510D01*
X152269737Y-113766503D01*
X152269735Y-113766498D01*
X152209397Y-113620827D01*
X152209390Y-113620814D01*
X152121789Y-113489711D01*
X152121786Y-113489707D01*
X152010292Y-113378213D01*
X152010288Y-113378210D01*
X151879185Y-113290609D01*
X151879172Y-113290602D01*
X151733501Y-113230264D01*
X151733489Y-113230261D01*
X151578845Y-113199500D01*
X151578842Y-113199500D01*
X151421158Y-113199500D01*
X151421155Y-113199500D01*
X151266510Y-113230261D01*
X151266498Y-113230264D01*
X151120827Y-113290602D01*
X151120814Y-113290609D01*
X150989711Y-113378210D01*
X150989707Y-113378213D01*
X150878213Y-113489707D01*
X150878210Y-113489711D01*
X150790609Y-113620814D01*
X150790602Y-113620827D01*
X150730264Y-113766498D01*
X150730261Y-113766510D01*
X150699500Y-113921153D01*
X137750500Y-113921153D01*
X137750500Y-110921153D01*
X138199500Y-110921153D01*
X138199500Y-111078846D01*
X138230261Y-111233489D01*
X138230264Y-111233501D01*
X138290602Y-111379172D01*
X138290609Y-111379185D01*
X138378210Y-111510288D01*
X138378213Y-111510292D01*
X138489707Y-111621786D01*
X138489711Y-111621789D01*
X138620814Y-111709390D01*
X138620827Y-111709397D01*
X138766498Y-111769735D01*
X138766503Y-111769737D01*
X138921153Y-111800499D01*
X138921156Y-111800500D01*
X138921158Y-111800500D01*
X139078844Y-111800500D01*
X139078845Y-111800499D01*
X139233497Y-111769737D01*
X139379179Y-111709394D01*
X139510289Y-111621789D01*
X139621789Y-111510289D01*
X139709394Y-111379179D01*
X139769737Y-111233497D01*
X139782138Y-111171153D01*
X151949500Y-111171153D01*
X151949500Y-111328846D01*
X151980261Y-111483489D01*
X151980264Y-111483501D01*
X152040602Y-111629172D01*
X152040609Y-111629185D01*
X152128210Y-111760288D01*
X152128213Y-111760292D01*
X152239707Y-111871786D01*
X152239711Y-111871789D01*
X152370814Y-111959390D01*
X152370827Y-111959397D01*
X152516498Y-112019735D01*
X152516503Y-112019737D01*
X152671153Y-112050499D01*
X152671156Y-112050500D01*
X152671158Y-112050500D01*
X152828844Y-112050500D01*
X152828845Y-112050499D01*
X152983497Y-112019737D01*
X153129179Y-111959394D01*
X153260289Y-111871789D01*
X153371789Y-111760289D01*
X153459394Y-111629179D01*
X153519737Y-111483497D01*
X153550500Y-111328842D01*
X153550500Y-111171158D01*
X153550500Y-111171155D01*
X153550499Y-111171153D01*
X153519738Y-111016510D01*
X153519737Y-111016503D01*
X153480242Y-110921153D01*
X153459397Y-110870827D01*
X153459390Y-110870814D01*
X153371789Y-110739711D01*
X153371786Y-110739707D01*
X153260292Y-110628213D01*
X153260288Y-110628210D01*
X153129185Y-110540609D01*
X153129172Y-110540602D01*
X152983501Y-110480264D01*
X152983489Y-110480261D01*
X152828845Y-110449500D01*
X152828842Y-110449500D01*
X152671158Y-110449500D01*
X152671155Y-110449500D01*
X152516510Y-110480261D01*
X152516498Y-110480264D01*
X152370827Y-110540602D01*
X152370814Y-110540609D01*
X152239711Y-110628210D01*
X152239707Y-110628213D01*
X152128213Y-110739707D01*
X152128210Y-110739711D01*
X152040609Y-110870814D01*
X152040602Y-110870827D01*
X151980264Y-111016498D01*
X151980261Y-111016510D01*
X151949500Y-111171153D01*
X139782138Y-111171153D01*
X139788161Y-111140874D01*
X139800500Y-111078844D01*
X139800500Y-110921155D01*
X139800499Y-110921153D01*
X139769738Y-110766510D01*
X139769737Y-110766503D01*
X139769735Y-110766498D01*
X139709397Y-110620827D01*
X139709390Y-110620814D01*
X139621789Y-110489711D01*
X139621786Y-110489707D01*
X139510292Y-110378213D01*
X139510288Y-110378210D01*
X139379185Y-110290609D01*
X139379172Y-110290602D01*
X139233501Y-110230264D01*
X139233489Y-110230261D01*
X139078845Y-110199500D01*
X139078842Y-110199500D01*
X138921158Y-110199500D01*
X138921155Y-110199500D01*
X138766510Y-110230261D01*
X138766498Y-110230264D01*
X138620827Y-110290602D01*
X138620814Y-110290609D01*
X138489711Y-110378210D01*
X138489707Y-110378213D01*
X138378213Y-110489707D01*
X138378210Y-110489711D01*
X138290609Y-110620814D01*
X138290602Y-110620827D01*
X138230264Y-110766498D01*
X138230261Y-110766510D01*
X138199500Y-110921153D01*
X137750500Y-110921153D01*
X137750500Y-109671153D01*
X147949500Y-109671153D01*
X147949500Y-109828846D01*
X147980261Y-109983489D01*
X147980264Y-109983501D01*
X148040602Y-110129172D01*
X148040609Y-110129185D01*
X148128210Y-110260288D01*
X148128213Y-110260292D01*
X148239707Y-110371786D01*
X148239711Y-110371789D01*
X148370814Y-110459390D01*
X148370827Y-110459397D01*
X148444013Y-110489711D01*
X148516503Y-110519737D01*
X148671153Y-110550499D01*
X148671156Y-110550500D01*
X148671158Y-110550500D01*
X148828844Y-110550500D01*
X148828845Y-110550499D01*
X148983497Y-110519737D01*
X149129179Y-110459394D01*
X149260289Y-110371789D01*
X149371789Y-110260289D01*
X149459394Y-110129179D01*
X149519737Y-109983497D01*
X149550500Y-109828842D01*
X149550500Y-109671158D01*
X149550500Y-109671155D01*
X149550499Y-109671153D01*
X149519738Y-109516510D01*
X149519737Y-109516503D01*
X149519735Y-109516498D01*
X149459397Y-109370827D01*
X149459390Y-109370814D01*
X149371789Y-109239711D01*
X149371786Y-109239707D01*
X149260292Y-109128213D01*
X149260288Y-109128210D01*
X149129185Y-109040609D01*
X149129172Y-109040602D01*
X148983501Y-108980264D01*
X148983489Y-108980261D01*
X148828845Y-108949500D01*
X148828842Y-108949500D01*
X148671158Y-108949500D01*
X148671155Y-108949500D01*
X148516510Y-108980261D01*
X148516498Y-108980264D01*
X148370827Y-109040602D01*
X148370814Y-109040609D01*
X148239711Y-109128210D01*
X148239707Y-109128213D01*
X148128213Y-109239707D01*
X148128210Y-109239711D01*
X148040609Y-109370814D01*
X148040602Y-109370827D01*
X147980264Y-109516498D01*
X147980261Y-109516510D01*
X147949500Y-109671153D01*
X137750500Y-109671153D01*
X137750500Y-106671153D01*
X145199500Y-106671153D01*
X145199500Y-106828846D01*
X145230261Y-106983489D01*
X145230264Y-106983501D01*
X145290602Y-107129172D01*
X145290609Y-107129185D01*
X145378210Y-107260288D01*
X145378213Y-107260292D01*
X145489707Y-107371786D01*
X145489711Y-107371789D01*
X145620814Y-107459390D01*
X145620827Y-107459397D01*
X145766498Y-107519735D01*
X145766503Y-107519737D01*
X145888184Y-107543941D01*
X145921153Y-107550499D01*
X145921156Y-107550500D01*
X145921158Y-107550500D01*
X146078844Y-107550500D01*
X146078845Y-107550499D01*
X146233497Y-107519737D01*
X146379179Y-107459394D01*
X146510289Y-107371789D01*
X146621789Y-107260289D01*
X146709394Y-107129179D01*
X146769737Y-106983497D01*
X146800500Y-106828842D01*
X146800500Y-106671158D01*
X146800500Y-106671155D01*
X146800499Y-106671153D01*
X152449500Y-106671153D01*
X152449500Y-106828846D01*
X152480261Y-106983489D01*
X152480264Y-106983501D01*
X152540602Y-107129172D01*
X152540609Y-107129185D01*
X152628210Y-107260288D01*
X152628213Y-107260292D01*
X152739707Y-107371786D01*
X152739711Y-107371789D01*
X152870814Y-107459390D01*
X152870827Y-107459397D01*
X153016498Y-107519735D01*
X153016503Y-107519737D01*
X153039020Y-107524216D01*
X153056921Y-107527777D01*
X153118832Y-107560161D01*
X153153406Y-107620877D01*
X153154346Y-107625197D01*
X153155995Y-107633488D01*
X153155999Y-107633501D01*
X153216337Y-107779172D01*
X153216344Y-107779185D01*
X153303945Y-107910288D01*
X153303948Y-107910292D01*
X153415442Y-108021786D01*
X153415446Y-108021789D01*
X153546549Y-108109390D01*
X153546562Y-108109397D01*
X153692233Y-108169735D01*
X153692238Y-108169737D01*
X153846888Y-108200499D01*
X153846891Y-108200500D01*
X153846893Y-108200500D01*
X154004579Y-108200500D01*
X154004580Y-108200499D01*
X154152113Y-108171153D01*
X158449500Y-108171153D01*
X158449500Y-108328846D01*
X158480261Y-108483489D01*
X158480264Y-108483501D01*
X158540602Y-108629172D01*
X158540609Y-108629185D01*
X158628210Y-108760288D01*
X158628213Y-108760292D01*
X158739707Y-108871786D01*
X158739711Y-108871789D01*
X158870814Y-108959390D01*
X158870827Y-108959397D01*
X159016498Y-109019735D01*
X159016503Y-109019737D01*
X159171153Y-109050499D01*
X159171156Y-109050500D01*
X159171158Y-109050500D01*
X159328844Y-109050500D01*
X159328845Y-109050499D01*
X159483497Y-109019737D01*
X159629179Y-108959394D01*
X159760289Y-108871789D01*
X159871789Y-108760289D01*
X159959394Y-108629179D01*
X160019737Y-108483497D01*
X160050500Y-108328842D01*
X160050500Y-108171158D01*
X160050500Y-108171155D01*
X160050499Y-108171153D01*
X160020788Y-108021789D01*
X160019737Y-108016503D01*
X160019735Y-108016498D01*
X159959397Y-107870827D01*
X159959390Y-107870814D01*
X159871789Y-107739711D01*
X159871786Y-107739707D01*
X159760292Y-107628213D01*
X159760288Y-107628210D01*
X159629185Y-107540609D01*
X159629172Y-107540602D01*
X159483501Y-107480264D01*
X159483489Y-107480261D01*
X159328845Y-107449500D01*
X159328842Y-107449500D01*
X159171158Y-107449500D01*
X159171155Y-107449500D01*
X159016510Y-107480261D01*
X159016498Y-107480264D01*
X158870827Y-107540602D01*
X158870814Y-107540609D01*
X158739711Y-107628210D01*
X158739707Y-107628213D01*
X158628213Y-107739707D01*
X158628210Y-107739711D01*
X158540609Y-107870814D01*
X158540602Y-107870827D01*
X158480264Y-108016498D01*
X158480261Y-108016510D01*
X158449500Y-108171153D01*
X154152113Y-108171153D01*
X154159232Y-108169737D01*
X154277327Y-108120821D01*
X154304907Y-108109397D01*
X154304907Y-108109396D01*
X154304914Y-108109394D01*
X154304920Y-108109390D01*
X154375899Y-108061964D01*
X154406959Y-108041209D01*
X154436024Y-108021789D01*
X154547524Y-107910289D01*
X154635129Y-107779179D01*
X154695472Y-107633497D01*
X154726235Y-107478842D01*
X154726235Y-107321158D01*
X154726235Y-107321155D01*
X154726234Y-107321153D01*
X154695473Y-107166510D01*
X154695472Y-107166503D01*
X154695470Y-107166498D01*
X154635132Y-107020827D01*
X154635125Y-107020814D01*
X154547524Y-106889711D01*
X154547521Y-106889707D01*
X154436027Y-106778213D01*
X154436023Y-106778210D01*
X154304920Y-106690609D01*
X154304907Y-106690602D01*
X154159236Y-106630264D01*
X154159226Y-106630261D01*
X154118811Y-106622222D01*
X154056900Y-106589836D01*
X154022326Y-106529120D01*
X154021397Y-106524849D01*
X154019737Y-106516503D01*
X153959794Y-106371786D01*
X153959397Y-106370827D01*
X153959390Y-106370814D01*
X153871789Y-106239711D01*
X153871786Y-106239707D01*
X153760292Y-106128213D01*
X153760288Y-106128210D01*
X153629185Y-106040609D01*
X153629172Y-106040602D01*
X153483501Y-105980264D01*
X153483489Y-105980261D01*
X153328845Y-105949500D01*
X153328842Y-105949500D01*
X153171158Y-105949500D01*
X153171155Y-105949500D01*
X153016510Y-105980261D01*
X153016498Y-105980264D01*
X152870827Y-106040602D01*
X152870814Y-106040609D01*
X152739711Y-106128210D01*
X152739707Y-106128213D01*
X152628213Y-106239707D01*
X152628210Y-106239711D01*
X152540609Y-106370814D01*
X152540602Y-106370827D01*
X152480264Y-106516498D01*
X152480261Y-106516510D01*
X152449500Y-106671153D01*
X146800499Y-106671153D01*
X146775097Y-106543449D01*
X146769737Y-106516503D01*
X146709794Y-106371786D01*
X146709397Y-106370827D01*
X146709390Y-106370814D01*
X146621789Y-106239711D01*
X146621786Y-106239707D01*
X146510292Y-106128213D01*
X146510288Y-106128210D01*
X146379185Y-106040609D01*
X146379172Y-106040602D01*
X146233501Y-105980264D01*
X146233489Y-105980261D01*
X146078845Y-105949500D01*
X146078842Y-105949500D01*
X145921158Y-105949500D01*
X145921155Y-105949500D01*
X145766510Y-105980261D01*
X145766498Y-105980264D01*
X145620827Y-106040602D01*
X145620814Y-106040609D01*
X145489711Y-106128210D01*
X145489707Y-106128213D01*
X145378213Y-106239707D01*
X145378210Y-106239711D01*
X145290609Y-106370814D01*
X145290602Y-106370827D01*
X145230264Y-106516498D01*
X145230261Y-106516510D01*
X145199500Y-106671153D01*
X137750500Y-106671153D01*
X137750500Y-105671153D01*
X138199500Y-105671153D01*
X138199500Y-105828846D01*
X138230261Y-105983489D01*
X138230264Y-105983501D01*
X138290602Y-106129172D01*
X138290609Y-106129185D01*
X138378210Y-106260288D01*
X138378213Y-106260292D01*
X138489707Y-106371786D01*
X138489711Y-106371789D01*
X138620814Y-106459390D01*
X138620827Y-106459397D01*
X138758695Y-106516503D01*
X138766503Y-106519737D01*
X138921153Y-106550499D01*
X138921156Y-106550500D01*
X138921158Y-106550500D01*
X139078844Y-106550500D01*
X139078845Y-106550499D01*
X139089179Y-106548443D01*
X139114287Y-106543450D01*
X139114292Y-106543449D01*
X139208099Y-106524789D01*
X139233497Y-106519737D01*
X139379179Y-106459394D01*
X139510289Y-106371789D01*
X139621789Y-106260289D01*
X139709394Y-106129179D01*
X139769737Y-105983497D01*
X139800500Y-105828842D01*
X139800500Y-105671158D01*
X139800500Y-105671155D01*
X139800499Y-105671153D01*
X139769738Y-105516510D01*
X139769737Y-105516503D01*
X139767163Y-105510288D01*
X139709397Y-105370827D01*
X139709390Y-105370814D01*
X139621789Y-105239711D01*
X139621786Y-105239707D01*
X139510292Y-105128213D01*
X139510288Y-105128210D01*
X139379185Y-105040609D01*
X139379172Y-105040602D01*
X139233501Y-104980264D01*
X139233489Y-104980261D01*
X139078845Y-104949500D01*
X139078842Y-104949500D01*
X138921158Y-104949500D01*
X138921155Y-104949500D01*
X138766510Y-104980261D01*
X138766498Y-104980264D01*
X138620827Y-105040602D01*
X138620814Y-105040609D01*
X138489711Y-105128210D01*
X138489707Y-105128213D01*
X138378213Y-105239707D01*
X138378210Y-105239711D01*
X138290609Y-105370814D01*
X138290602Y-105370827D01*
X138230264Y-105516498D01*
X138230261Y-105516510D01*
X138199500Y-105671153D01*
X137750500Y-105671153D01*
X137750500Y-104121153D01*
X145299500Y-104121153D01*
X145299500Y-104278846D01*
X145330261Y-104433489D01*
X145330264Y-104433501D01*
X145390602Y-104579172D01*
X145390609Y-104579185D01*
X145478210Y-104710288D01*
X145478213Y-104710292D01*
X145589707Y-104821786D01*
X145589711Y-104821789D01*
X145720814Y-104909390D01*
X145720827Y-104909397D01*
X145817646Y-104949500D01*
X145866503Y-104969737D01*
X146021153Y-105000499D01*
X146021156Y-105000500D01*
X146021158Y-105000500D01*
X146178844Y-105000500D01*
X146178845Y-105000499D01*
X146333497Y-104969737D01*
X146401315Y-104941645D01*
X146470782Y-104934177D01*
X146533261Y-104965452D01*
X146536447Y-104968526D01*
X146589707Y-105021786D01*
X146589711Y-105021789D01*
X146720814Y-105109390D01*
X146720827Y-105109397D01*
X146766254Y-105128213D01*
X146866503Y-105169737D01*
X147021153Y-105200499D01*
X147021156Y-105200500D01*
X147021158Y-105200500D01*
X147178844Y-105200500D01*
X147178845Y-105200499D01*
X147333497Y-105169737D01*
X147479179Y-105109394D01*
X147610289Y-105021789D01*
X147710925Y-104921153D01*
X163699500Y-104921153D01*
X163699500Y-105078846D01*
X163730261Y-105233489D01*
X163730264Y-105233501D01*
X163790602Y-105379172D01*
X163790609Y-105379185D01*
X163878210Y-105510288D01*
X163878213Y-105510292D01*
X163989707Y-105621786D01*
X163989711Y-105621789D01*
X164120814Y-105709390D01*
X164120827Y-105709397D01*
X164266498Y-105769735D01*
X164266503Y-105769737D01*
X164421153Y-105800499D01*
X164421156Y-105800500D01*
X164421158Y-105800500D01*
X164578844Y-105800500D01*
X164578845Y-105800499D01*
X164733497Y-105769737D01*
X164879179Y-105709394D01*
X165010289Y-105621789D01*
X165121789Y-105510289D01*
X165209394Y-105379179D01*
X165212854Y-105370827D01*
X165267163Y-105239711D01*
X165269737Y-105233497D01*
X165300500Y-105078842D01*
X165300500Y-104921158D01*
X165300500Y-104921155D01*
X165300499Y-104921153D01*
X165280734Y-104821789D01*
X165269737Y-104766503D01*
X165242398Y-104700500D01*
X165209397Y-104620827D01*
X165209390Y-104620814D01*
X165121789Y-104489711D01*
X165121786Y-104489707D01*
X165010292Y-104378213D01*
X165010288Y-104378210D01*
X164879185Y-104290609D01*
X164879172Y-104290602D01*
X164733501Y-104230264D01*
X164733489Y-104230261D01*
X164578845Y-104199500D01*
X164578842Y-104199500D01*
X164421158Y-104199500D01*
X164421155Y-104199500D01*
X164266510Y-104230261D01*
X164266498Y-104230264D01*
X164120827Y-104290602D01*
X164120814Y-104290609D01*
X163989711Y-104378210D01*
X163989707Y-104378213D01*
X163878213Y-104489707D01*
X163878210Y-104489711D01*
X163790609Y-104620814D01*
X163790602Y-104620827D01*
X163730264Y-104766498D01*
X163730261Y-104766510D01*
X163699500Y-104921153D01*
X147710925Y-104921153D01*
X147721789Y-104910289D01*
X147809394Y-104779179D01*
X147817074Y-104760635D01*
X147822217Y-104752266D01*
X147841146Y-104735179D01*
X147857145Y-104715324D01*
X147868473Y-104710512D01*
X147874082Y-104705450D01*
X147884383Y-104703754D01*
X147903678Y-104695559D01*
X148033497Y-104669737D01*
X148151592Y-104620821D01*
X148179172Y-104609397D01*
X148179172Y-104609396D01*
X148179179Y-104609394D01*
X148310289Y-104521789D01*
X148326665Y-104505412D01*
X148387986Y-104471926D01*
X148457678Y-104476909D01*
X148483237Y-104489989D01*
X148533582Y-104523628D01*
X148533593Y-104523634D01*
X148667676Y-104579172D01*
X148679269Y-104583974D01*
X148833919Y-104614736D01*
X148833922Y-104614737D01*
X148833924Y-104614737D01*
X148991610Y-104614737D01*
X148991611Y-104614736D01*
X149146263Y-104583974D01*
X149291945Y-104523631D01*
X149423055Y-104436026D01*
X149534555Y-104324526D01*
X149622160Y-104193416D01*
X149682503Y-104047734D01*
X149713266Y-103893079D01*
X149713266Y-103735395D01*
X149713266Y-103735392D01*
X149713265Y-103735390D01*
X149682503Y-103580740D01*
X149681456Y-103578213D01*
X149622163Y-103435064D01*
X149622156Y-103435051D01*
X149534555Y-103303948D01*
X149534552Y-103303944D01*
X149423058Y-103192450D01*
X149423054Y-103192447D01*
X149291951Y-103104846D01*
X149291938Y-103104839D01*
X149146267Y-103044501D01*
X149146255Y-103044498D01*
X148991611Y-103013737D01*
X148991608Y-103013737D01*
X148833924Y-103013737D01*
X148833921Y-103013737D01*
X148679276Y-103044498D01*
X148679264Y-103044501D01*
X148533593Y-103104839D01*
X148533580Y-103104846D01*
X148402480Y-103192445D01*
X148402473Y-103192450D01*
X148386094Y-103208829D01*
X148324769Y-103242311D01*
X148255078Y-103237324D01*
X148229526Y-103224246D01*
X148179185Y-103190609D01*
X148179172Y-103190602D01*
X148033501Y-103130264D01*
X148033489Y-103130261D01*
X147878845Y-103099500D01*
X147878842Y-103099500D01*
X147721158Y-103099500D01*
X147721155Y-103099500D01*
X147566510Y-103130261D01*
X147566498Y-103130264D01*
X147420827Y-103190602D01*
X147420814Y-103190609D01*
X147289711Y-103278210D01*
X147289707Y-103278213D01*
X147178213Y-103389707D01*
X147178210Y-103389711D01*
X147090609Y-103520814D01*
X147090603Y-103520826D01*
X147086688Y-103530278D01*
X147084596Y-103532873D01*
X147084068Y-103536166D01*
X147062829Y-103559884D01*
X147042846Y-103584681D01*
X147039019Y-103586473D01*
X147037458Y-103588217D01*
X147023798Y-103593603D01*
X147005119Y-103602354D01*
X147000755Y-103603558D01*
X146866503Y-103630263D01*
X146791614Y-103661281D01*
X146784223Y-103663322D01*
X146756637Y-103662872D01*
X146729213Y-103665820D01*
X146722202Y-103662310D01*
X146714362Y-103662183D01*
X146691400Y-103646891D01*
X146666734Y-103634544D01*
X146663551Y-103631472D01*
X146610292Y-103578213D01*
X146610288Y-103578210D01*
X146479185Y-103490609D01*
X146479172Y-103490602D01*
X146333501Y-103430264D01*
X146333489Y-103430261D01*
X146178845Y-103399500D01*
X146178842Y-103399500D01*
X146021158Y-103399500D01*
X146021155Y-103399500D01*
X145866510Y-103430261D01*
X145866498Y-103430264D01*
X145720827Y-103490602D01*
X145720814Y-103490609D01*
X145589711Y-103578210D01*
X145589707Y-103578213D01*
X145478213Y-103689707D01*
X145478210Y-103689711D01*
X145390609Y-103820814D01*
X145390602Y-103820827D01*
X145330264Y-103966498D01*
X145330261Y-103966510D01*
X145299500Y-104121153D01*
X137750500Y-104121153D01*
X137750500Y-101921153D01*
X139949500Y-101921153D01*
X139949500Y-102078846D01*
X139980261Y-102233489D01*
X139980264Y-102233501D01*
X140040602Y-102379172D01*
X140040609Y-102379185D01*
X140128210Y-102510288D01*
X140128213Y-102510292D01*
X140239707Y-102621786D01*
X140239711Y-102621789D01*
X140370814Y-102709390D01*
X140370827Y-102709397D01*
X140516498Y-102769735D01*
X140516503Y-102769737D01*
X140671153Y-102800499D01*
X140671156Y-102800500D01*
X140671158Y-102800500D01*
X140828844Y-102800500D01*
X140828845Y-102800499D01*
X140983497Y-102769737D01*
X141129179Y-102709394D01*
X141260289Y-102621789D01*
X141371789Y-102510289D01*
X141459394Y-102379179D01*
X141519737Y-102233497D01*
X141550500Y-102078842D01*
X141550500Y-101921158D01*
X141550500Y-101921155D01*
X141550499Y-101921153D01*
X141519737Y-101766503D01*
X141488008Y-101689903D01*
X146499500Y-101689903D01*
X146499500Y-101847596D01*
X146530261Y-102002239D01*
X146530264Y-102002251D01*
X146590602Y-102147922D01*
X146590609Y-102147935D01*
X146678210Y-102279038D01*
X146678213Y-102279042D01*
X146789707Y-102390536D01*
X146789711Y-102390539D01*
X146920814Y-102478140D01*
X146920827Y-102478147D01*
X147066498Y-102538485D01*
X147066503Y-102538487D01*
X147221153Y-102569249D01*
X147221156Y-102569250D01*
X147221158Y-102569250D01*
X147378844Y-102569250D01*
X147378845Y-102569249D01*
X147533497Y-102538487D01*
X147679179Y-102478144D01*
X147810289Y-102390539D01*
X147921789Y-102279039D01*
X148009394Y-102147929D01*
X148069737Y-102002247D01*
X148100500Y-101847592D01*
X148100500Y-101689908D01*
X148100500Y-101689905D01*
X148100499Y-101689903D01*
X148086758Y-101620823D01*
X148069737Y-101535253D01*
X148050873Y-101489711D01*
X148009397Y-101389577D01*
X148009390Y-101389564D01*
X147921789Y-101258461D01*
X147921786Y-101258457D01*
X147810292Y-101146963D01*
X147810288Y-101146960D01*
X147679185Y-101059359D01*
X147679172Y-101059352D01*
X147533501Y-100999014D01*
X147533489Y-100999011D01*
X147378845Y-100968250D01*
X147378842Y-100968250D01*
X147221158Y-100968250D01*
X147221155Y-100968250D01*
X147066510Y-100999011D01*
X147066498Y-100999014D01*
X146920827Y-101059352D01*
X146920814Y-101059359D01*
X146789711Y-101146960D01*
X146789707Y-101146963D01*
X146678213Y-101258457D01*
X146678210Y-101258461D01*
X146590609Y-101389564D01*
X146590602Y-101389577D01*
X146530264Y-101535248D01*
X146530261Y-101535260D01*
X146499500Y-101689903D01*
X141488008Y-101689903D01*
X141471666Y-101650450D01*
X141459395Y-101620823D01*
X141459390Y-101620814D01*
X141371789Y-101489711D01*
X141371786Y-101489707D01*
X141260292Y-101378213D01*
X141260288Y-101378210D01*
X141129185Y-101290609D01*
X141129172Y-101290602D01*
X140983501Y-101230264D01*
X140983489Y-101230261D01*
X140828845Y-101199500D01*
X140828842Y-101199500D01*
X140671158Y-101199500D01*
X140671155Y-101199500D01*
X140516510Y-101230261D01*
X140516498Y-101230264D01*
X140370827Y-101290602D01*
X140370814Y-101290609D01*
X140239711Y-101378210D01*
X140239707Y-101378213D01*
X140128213Y-101489707D01*
X140128210Y-101489711D01*
X140040609Y-101620814D01*
X140040602Y-101620827D01*
X139980264Y-101766498D01*
X139980261Y-101766510D01*
X139949500Y-101921153D01*
X137750500Y-101921153D01*
X137750500Y-100671153D01*
X138199500Y-100671153D01*
X138199500Y-100828846D01*
X138230261Y-100983489D01*
X138230264Y-100983501D01*
X138290602Y-101129172D01*
X138290609Y-101129185D01*
X138378210Y-101260288D01*
X138378213Y-101260292D01*
X138489707Y-101371786D01*
X138489711Y-101371789D01*
X138620814Y-101459390D01*
X138620827Y-101459397D01*
X138694013Y-101489711D01*
X138766503Y-101519737D01*
X138921153Y-101550499D01*
X138921156Y-101550500D01*
X138921158Y-101550500D01*
X139078844Y-101550500D01*
X139078845Y-101550499D01*
X139233497Y-101519737D01*
X139379179Y-101459394D01*
X139510289Y-101371789D01*
X139621789Y-101260289D01*
X139709394Y-101129179D01*
X139769737Y-100983497D01*
X139800500Y-100828842D01*
X139800500Y-100671158D01*
X139800500Y-100671155D01*
X139800499Y-100671153D01*
X139769738Y-100516510D01*
X139769737Y-100516503D01*
X139769735Y-100516498D01*
X139709397Y-100370827D01*
X139709390Y-100370814D01*
X139621789Y-100239711D01*
X139621786Y-100239707D01*
X139510292Y-100128213D01*
X139510288Y-100128210D01*
X139379185Y-100040609D01*
X139379172Y-100040602D01*
X139233501Y-99980264D01*
X139233489Y-99980261D01*
X139078845Y-99949500D01*
X139078842Y-99949500D01*
X138921158Y-99949500D01*
X138921155Y-99949500D01*
X138766510Y-99980261D01*
X138766498Y-99980264D01*
X138620827Y-100040602D01*
X138620814Y-100040609D01*
X138489711Y-100128210D01*
X138489707Y-100128213D01*
X138378213Y-100239707D01*
X138378210Y-100239711D01*
X138290609Y-100370814D01*
X138290602Y-100370827D01*
X138230264Y-100516498D01*
X138230261Y-100516510D01*
X138199500Y-100671153D01*
X137750500Y-100671153D01*
X137750500Y-97171153D01*
X139949500Y-97171153D01*
X139949500Y-97328846D01*
X139980261Y-97483489D01*
X139980264Y-97483501D01*
X140040602Y-97629172D01*
X140040609Y-97629185D01*
X140128210Y-97760288D01*
X140128213Y-97760292D01*
X140239707Y-97871786D01*
X140239711Y-97871789D01*
X140370814Y-97959390D01*
X140370827Y-97959397D01*
X140516498Y-98019735D01*
X140516503Y-98019737D01*
X140671153Y-98050499D01*
X140671156Y-98050500D01*
X140671158Y-98050500D01*
X140828844Y-98050500D01*
X140828845Y-98050499D01*
X140983497Y-98019737D01*
X141129179Y-97959394D01*
X141260289Y-97871789D01*
X141371789Y-97760289D01*
X141459394Y-97629179D01*
X141519737Y-97483497D01*
X141532138Y-97421153D01*
X145199500Y-97421153D01*
X145199500Y-97578846D01*
X145230261Y-97733489D01*
X145230264Y-97733501D01*
X145290602Y-97879172D01*
X145290609Y-97879185D01*
X145378210Y-98010288D01*
X145378213Y-98010292D01*
X145489707Y-98121786D01*
X145489711Y-98121789D01*
X145620814Y-98209390D01*
X145620827Y-98209397D01*
X145766498Y-98269735D01*
X145766503Y-98269737D01*
X145921153Y-98300499D01*
X145921156Y-98300500D01*
X145921158Y-98300500D01*
X146078844Y-98300500D01*
X146078845Y-98300499D01*
X146233497Y-98269737D01*
X146379179Y-98209394D01*
X146510289Y-98121789D01*
X146621789Y-98010289D01*
X146709394Y-97879179D01*
X146769737Y-97733497D01*
X146800500Y-97578842D01*
X146800500Y-97421158D01*
X146800500Y-97421155D01*
X146800499Y-97421153D01*
X146769738Y-97266510D01*
X146769737Y-97266503D01*
X146730242Y-97171153D01*
X163449500Y-97171153D01*
X163449500Y-97328846D01*
X163480261Y-97483489D01*
X163480264Y-97483501D01*
X163540602Y-97629172D01*
X163540609Y-97629185D01*
X163628210Y-97760288D01*
X163628213Y-97760292D01*
X163739707Y-97871786D01*
X163739711Y-97871789D01*
X163870814Y-97959390D01*
X163870827Y-97959397D01*
X164016498Y-98019735D01*
X164016503Y-98019737D01*
X164171153Y-98050499D01*
X164171156Y-98050500D01*
X164171158Y-98050500D01*
X164328844Y-98050500D01*
X164328845Y-98050499D01*
X164483497Y-98019737D01*
X164629179Y-97959394D01*
X164760289Y-97871789D01*
X164871789Y-97760289D01*
X164959394Y-97629179D01*
X165019737Y-97483497D01*
X165050500Y-97328842D01*
X165050500Y-97171158D01*
X165050500Y-97171155D01*
X165050499Y-97171153D01*
X165019738Y-97016510D01*
X165019737Y-97016503D01*
X165019735Y-97016498D01*
X164959397Y-96870827D01*
X164959390Y-96870814D01*
X164871789Y-96739711D01*
X164871786Y-96739707D01*
X164760292Y-96628213D01*
X164760288Y-96628210D01*
X164629185Y-96540609D01*
X164629172Y-96540602D01*
X164483501Y-96480264D01*
X164483489Y-96480261D01*
X164328845Y-96449500D01*
X164328842Y-96449500D01*
X164171158Y-96449500D01*
X164171155Y-96449500D01*
X164016510Y-96480261D01*
X164016498Y-96480264D01*
X163870827Y-96540602D01*
X163870814Y-96540609D01*
X163739711Y-96628210D01*
X163739707Y-96628213D01*
X163628213Y-96739707D01*
X163628210Y-96739711D01*
X163540609Y-96870814D01*
X163540602Y-96870827D01*
X163480264Y-97016498D01*
X163480261Y-97016510D01*
X163449500Y-97171153D01*
X146730242Y-97171153D01*
X146729933Y-97170408D01*
X146709397Y-97120827D01*
X146709390Y-97120814D01*
X146621789Y-96989711D01*
X146621786Y-96989707D01*
X146510292Y-96878213D01*
X146510288Y-96878210D01*
X146379185Y-96790609D01*
X146379172Y-96790602D01*
X146233501Y-96730264D01*
X146233489Y-96730261D01*
X146078845Y-96699500D01*
X146078842Y-96699500D01*
X145921158Y-96699500D01*
X145921155Y-96699500D01*
X145766510Y-96730261D01*
X145766498Y-96730264D01*
X145620827Y-96790602D01*
X145620814Y-96790609D01*
X145489711Y-96878210D01*
X145489707Y-96878213D01*
X145378213Y-96989707D01*
X145378210Y-96989711D01*
X145290609Y-97120814D01*
X145290602Y-97120827D01*
X145230264Y-97266498D01*
X145230261Y-97266510D01*
X145199500Y-97421153D01*
X141532138Y-97421153D01*
X141538161Y-97390874D01*
X141550500Y-97328844D01*
X141550500Y-97171155D01*
X141550499Y-97171153D01*
X141519738Y-97016510D01*
X141519737Y-97016503D01*
X141519735Y-97016498D01*
X141459397Y-96870827D01*
X141459390Y-96870814D01*
X141371789Y-96739711D01*
X141371786Y-96739707D01*
X141260292Y-96628213D01*
X141260288Y-96628210D01*
X141129185Y-96540609D01*
X141129172Y-96540602D01*
X140983501Y-96480264D01*
X140983489Y-96480261D01*
X140828845Y-96449500D01*
X140828842Y-96449500D01*
X140671158Y-96449500D01*
X140671155Y-96449500D01*
X140516510Y-96480261D01*
X140516498Y-96480264D01*
X140370827Y-96540602D01*
X140370814Y-96540609D01*
X140239711Y-96628210D01*
X140239707Y-96628213D01*
X140128213Y-96739707D01*
X140128210Y-96739711D01*
X140040609Y-96870814D01*
X140040602Y-96870827D01*
X139980264Y-97016498D01*
X139980261Y-97016510D01*
X139949500Y-97171153D01*
X137750500Y-97171153D01*
X137750500Y-95921153D01*
X138199500Y-95921153D01*
X138199500Y-96078846D01*
X138230261Y-96233489D01*
X138230264Y-96233501D01*
X138290602Y-96379172D01*
X138290609Y-96379185D01*
X138378210Y-96510288D01*
X138378213Y-96510292D01*
X138489707Y-96621786D01*
X138489711Y-96621789D01*
X138620814Y-96709390D01*
X138620827Y-96709397D01*
X138694013Y-96739711D01*
X138766503Y-96769737D01*
X138921153Y-96800499D01*
X138921156Y-96800500D01*
X138921158Y-96800500D01*
X139078844Y-96800500D01*
X139078845Y-96800499D01*
X139233497Y-96769737D01*
X139379179Y-96709394D01*
X139510289Y-96621789D01*
X139621789Y-96510289D01*
X139709394Y-96379179D01*
X139769737Y-96233497D01*
X139800500Y-96078842D01*
X139800500Y-95921158D01*
X139800500Y-95921155D01*
X139800499Y-95921153D01*
X139769738Y-95766510D01*
X139769737Y-95766503D01*
X139769735Y-95766498D01*
X139709397Y-95620827D01*
X139709390Y-95620814D01*
X139621789Y-95489711D01*
X139621786Y-95489707D01*
X139510292Y-95378213D01*
X139510288Y-95378210D01*
X139379185Y-95290609D01*
X139379172Y-95290602D01*
X139233501Y-95230264D01*
X139233489Y-95230261D01*
X139078845Y-95199500D01*
X139078842Y-95199500D01*
X138921158Y-95199500D01*
X138921155Y-95199500D01*
X138766510Y-95230261D01*
X138766498Y-95230264D01*
X138620827Y-95290602D01*
X138620814Y-95290609D01*
X138489711Y-95378210D01*
X138489707Y-95378213D01*
X138378213Y-95489707D01*
X138378210Y-95489711D01*
X138290609Y-95620814D01*
X138290602Y-95620827D01*
X138230264Y-95766498D01*
X138230261Y-95766510D01*
X138199500Y-95921153D01*
X137750500Y-95921153D01*
X137750500Y-91921153D01*
X138199500Y-91921153D01*
X138199500Y-92078846D01*
X138230261Y-92233489D01*
X138230264Y-92233501D01*
X138290602Y-92379172D01*
X138290609Y-92379185D01*
X138378210Y-92510288D01*
X138378213Y-92510292D01*
X138489707Y-92621786D01*
X138489711Y-92621789D01*
X138620814Y-92709390D01*
X138620827Y-92709397D01*
X138766498Y-92769735D01*
X138766503Y-92769737D01*
X138921153Y-92800499D01*
X138921156Y-92800500D01*
X138921158Y-92800500D01*
X139078844Y-92800500D01*
X139078845Y-92800499D01*
X139233497Y-92769737D01*
X139379179Y-92709394D01*
X139510289Y-92621789D01*
X139621789Y-92510289D01*
X139709394Y-92379179D01*
X139769737Y-92233497D01*
X139800500Y-92078842D01*
X139800500Y-91921158D01*
X139800500Y-91921155D01*
X139800499Y-91921153D01*
X139770378Y-91769727D01*
X139769737Y-91766503D01*
X139741148Y-91697483D01*
X139709397Y-91620827D01*
X139709390Y-91620814D01*
X139621789Y-91489711D01*
X139621786Y-91489707D01*
X139510292Y-91378213D01*
X139510288Y-91378210D01*
X139379185Y-91290609D01*
X139379172Y-91290602D01*
X139233501Y-91230264D01*
X139233489Y-91230261D01*
X139078845Y-91199500D01*
X139078842Y-91199500D01*
X138921158Y-91199500D01*
X138921155Y-91199500D01*
X138766510Y-91230261D01*
X138766498Y-91230264D01*
X138620827Y-91290602D01*
X138620814Y-91290609D01*
X138489711Y-91378210D01*
X138489707Y-91378213D01*
X138378213Y-91489707D01*
X138378210Y-91489711D01*
X138290609Y-91620814D01*
X138290602Y-91620827D01*
X138230264Y-91766498D01*
X138230261Y-91766510D01*
X138199500Y-91921153D01*
X137750500Y-91921153D01*
X137750500Y-89842135D01*
X154369500Y-89842135D01*
X154369500Y-91637870D01*
X154369501Y-91637876D01*
X154375908Y-91697483D01*
X154426202Y-91832328D01*
X154426206Y-91832335D01*
X154512452Y-91947544D01*
X154512455Y-91947547D01*
X154627664Y-92033793D01*
X154627671Y-92033797D01*
X154762517Y-92084091D01*
X154762516Y-92084091D01*
X154769444Y-92084835D01*
X154822127Y-92090500D01*
X156617872Y-92090499D01*
X156677483Y-92084091D01*
X156812331Y-92033796D01*
X156927546Y-91947546D01*
X157013796Y-91832331D01*
X157062810Y-91700916D01*
X157104681Y-91644984D01*
X157170145Y-91620566D01*
X157238418Y-91635417D01*
X157266673Y-91656569D01*
X157380213Y-91770109D01*
X157552179Y-91895048D01*
X157552181Y-91895049D01*
X157552184Y-91895051D01*
X157741588Y-91991557D01*
X157943757Y-92057246D01*
X158153713Y-92090500D01*
X158153714Y-92090500D01*
X158366286Y-92090500D01*
X158366287Y-92090500D01*
X158576243Y-92057246D01*
X158778412Y-91991557D01*
X158967816Y-91895051D01*
X159054138Y-91832335D01*
X159139786Y-91770109D01*
X159139788Y-91770106D01*
X159139792Y-91770104D01*
X159290104Y-91619792D01*
X159290106Y-91619788D01*
X159290109Y-91619786D01*
X159357515Y-91527007D01*
X159415051Y-91447816D01*
X159419793Y-91438508D01*
X159467763Y-91387711D01*
X159535583Y-91370911D01*
X159601719Y-91393445D01*
X159640763Y-91438500D01*
X159645377Y-91447555D01*
X159770272Y-91619459D01*
X159770276Y-91619464D01*
X159920535Y-91769723D01*
X159920540Y-91769727D01*
X160092442Y-91894620D01*
X160281782Y-91991095D01*
X160483871Y-92056757D01*
X160550000Y-92067231D01*
X160550000Y-91173012D01*
X160607007Y-91205925D01*
X160734174Y-91240000D01*
X160865826Y-91240000D01*
X160992993Y-91205925D01*
X161050000Y-91173012D01*
X161050000Y-92067230D01*
X161116126Y-92056757D01*
X161116129Y-92056757D01*
X161318217Y-91991095D01*
X161507557Y-91894620D01*
X161679459Y-91769727D01*
X161679464Y-91769723D01*
X161829723Y-91619464D01*
X161829727Y-91619459D01*
X161954620Y-91447557D01*
X162051095Y-91258217D01*
X162116757Y-91056129D01*
X162116757Y-91056126D01*
X162127231Y-90990000D01*
X161233012Y-90990000D01*
X161265925Y-90932993D01*
X161300000Y-90805826D01*
X161300000Y-90674174D01*
X161265925Y-90547007D01*
X161233012Y-90490000D01*
X162127231Y-90490000D01*
X162116757Y-90423873D01*
X162116757Y-90423870D01*
X162051095Y-90221782D01*
X161954620Y-90032442D01*
X161829727Y-89860540D01*
X161829723Y-89860535D01*
X161679464Y-89710276D01*
X161679459Y-89710272D01*
X161507557Y-89585379D01*
X161318215Y-89488903D01*
X161116124Y-89423241D01*
X161050000Y-89412768D01*
X161050000Y-90306988D01*
X160992993Y-90274075D01*
X160865826Y-90240000D01*
X160734174Y-90240000D01*
X160607007Y-90274075D01*
X160550000Y-90306988D01*
X160550000Y-89412768D01*
X160549999Y-89412768D01*
X160483875Y-89423241D01*
X160281784Y-89488903D01*
X160092442Y-89585379D01*
X159920540Y-89710272D01*
X159920535Y-89710276D01*
X159770276Y-89860535D01*
X159770272Y-89860540D01*
X159645378Y-90032443D01*
X159640762Y-90041502D01*
X159592784Y-90092295D01*
X159524963Y-90109087D01*
X159458829Y-90086546D01*
X159419794Y-90041493D01*
X159415051Y-90032184D01*
X159415049Y-90032181D01*
X159415048Y-90032179D01*
X159290109Y-89860213D01*
X159139786Y-89709890D01*
X158967820Y-89584951D01*
X158778414Y-89488444D01*
X158778413Y-89488443D01*
X158778412Y-89488443D01*
X158576243Y-89422754D01*
X158576241Y-89422753D01*
X158576240Y-89422753D01*
X158414957Y-89397208D01*
X158366287Y-89389500D01*
X158153713Y-89389500D01*
X158105042Y-89397208D01*
X157943760Y-89422753D01*
X157741585Y-89488444D01*
X157552179Y-89584951D01*
X157380215Y-89709889D01*
X157266673Y-89823431D01*
X157205350Y-89856915D01*
X157135658Y-89851931D01*
X157079725Y-89810059D01*
X157062810Y-89779082D01*
X157013797Y-89647671D01*
X157013793Y-89647664D01*
X156927547Y-89532455D01*
X156927544Y-89532452D01*
X156812335Y-89446206D01*
X156812328Y-89446202D01*
X156677482Y-89395908D01*
X156677483Y-89395908D01*
X156617883Y-89389501D01*
X156617881Y-89389500D01*
X156617873Y-89389500D01*
X156617864Y-89389500D01*
X154822129Y-89389500D01*
X154822123Y-89389501D01*
X154762516Y-89395908D01*
X154627671Y-89446202D01*
X154627664Y-89446206D01*
X154512455Y-89532452D01*
X154512452Y-89532455D01*
X154426206Y-89647664D01*
X154426202Y-89647671D01*
X154375908Y-89782517D01*
X154369501Y-89842116D01*
X154369500Y-89842135D01*
X137750500Y-89842135D01*
X137750500Y-87921153D01*
X138199500Y-87921153D01*
X138199500Y-88078846D01*
X138230261Y-88233489D01*
X138230264Y-88233501D01*
X138290602Y-88379172D01*
X138290609Y-88379185D01*
X138378210Y-88510288D01*
X138378213Y-88510292D01*
X138489707Y-88621786D01*
X138489711Y-88621789D01*
X138620814Y-88709390D01*
X138620827Y-88709397D01*
X138766498Y-88769735D01*
X138766503Y-88769737D01*
X138921153Y-88800499D01*
X138921156Y-88800500D01*
X138921158Y-88800500D01*
X139078844Y-88800500D01*
X139078845Y-88800499D01*
X139233497Y-88769737D01*
X139379179Y-88709394D01*
X139510289Y-88621789D01*
X139621789Y-88510289D01*
X139709394Y-88379179D01*
X139769737Y-88233497D01*
X139800500Y-88078842D01*
X139800500Y-87921158D01*
X139800500Y-87921155D01*
X139800499Y-87921153D01*
X139769738Y-87766510D01*
X139769737Y-87766503D01*
X139769735Y-87766498D01*
X139709397Y-87620827D01*
X139709390Y-87620814D01*
X139621789Y-87489711D01*
X139621786Y-87489707D01*
X139510292Y-87378213D01*
X139510288Y-87378210D01*
X139379185Y-87290609D01*
X139379172Y-87290602D01*
X139233501Y-87230264D01*
X139233489Y-87230261D01*
X139078845Y-87199500D01*
X139078842Y-87199500D01*
X138921158Y-87199500D01*
X138921155Y-87199500D01*
X138766510Y-87230261D01*
X138766498Y-87230264D01*
X138620827Y-87290602D01*
X138620814Y-87290609D01*
X138489711Y-87378210D01*
X138489707Y-87378213D01*
X138378213Y-87489707D01*
X138378210Y-87489711D01*
X138290609Y-87620814D01*
X138290602Y-87620827D01*
X138230264Y-87766498D01*
X138230261Y-87766510D01*
X138199500Y-87921153D01*
X137750500Y-87921153D01*
X137750500Y-85671153D01*
X144949500Y-85671153D01*
X144949500Y-85828846D01*
X144980261Y-85983489D01*
X144980264Y-85983501D01*
X145040602Y-86129172D01*
X145040609Y-86129185D01*
X145128210Y-86260288D01*
X145128213Y-86260292D01*
X145239707Y-86371786D01*
X145239711Y-86371789D01*
X145370814Y-86459390D01*
X145370827Y-86459397D01*
X145516498Y-86519735D01*
X145516503Y-86519737D01*
X145671153Y-86550499D01*
X145671156Y-86550500D01*
X145671158Y-86550500D01*
X145828844Y-86550500D01*
X145828845Y-86550499D01*
X145983497Y-86519737D01*
X146129179Y-86459394D01*
X146260289Y-86371789D01*
X146371789Y-86260289D01*
X146431348Y-86171153D01*
X147730750Y-86171153D01*
X147730750Y-86328846D01*
X147761511Y-86483489D01*
X147761514Y-86483501D01*
X147821852Y-86629172D01*
X147821859Y-86629185D01*
X147909460Y-86760288D01*
X147909463Y-86760292D01*
X148020957Y-86871786D01*
X148020961Y-86871789D01*
X148152064Y-86959390D01*
X148152077Y-86959397D01*
X148297748Y-87019735D01*
X148297753Y-87019737D01*
X148452403Y-87050499D01*
X148452406Y-87050500D01*
X148452408Y-87050500D01*
X148610094Y-87050500D01*
X148610095Y-87050499D01*
X148764747Y-87019737D01*
X148910429Y-86959394D01*
X149041539Y-86871789D01*
X149153039Y-86760289D01*
X149240644Y-86629179D01*
X149300987Y-86483497D01*
X149331750Y-86328842D01*
X149331750Y-86171158D01*
X149331750Y-86171155D01*
X149331749Y-86171153D01*
X149300988Y-86016510D01*
X149300987Y-86016503D01*
X149287312Y-85983489D01*
X149240647Y-85870827D01*
X149240640Y-85870814D01*
X149153039Y-85739711D01*
X149153036Y-85739707D01*
X149041542Y-85628213D01*
X149041538Y-85628210D01*
X148910435Y-85540609D01*
X148910422Y-85540602D01*
X148764751Y-85480264D01*
X148764739Y-85480261D01*
X148610095Y-85449500D01*
X148610092Y-85449500D01*
X148452408Y-85449500D01*
X148452405Y-85449500D01*
X148297760Y-85480261D01*
X148297748Y-85480264D01*
X148152077Y-85540602D01*
X148152064Y-85540609D01*
X148020961Y-85628210D01*
X148020957Y-85628213D01*
X147909463Y-85739707D01*
X147909460Y-85739711D01*
X147821859Y-85870814D01*
X147821852Y-85870827D01*
X147761514Y-86016498D01*
X147761511Y-86016510D01*
X147730750Y-86171153D01*
X146431348Y-86171153D01*
X146459394Y-86129179D01*
X146519737Y-85983497D01*
X146550500Y-85828842D01*
X146550500Y-85671158D01*
X146550500Y-85671155D01*
X146550499Y-85671153D01*
X146524531Y-85540606D01*
X146519737Y-85516503D01*
X146519735Y-85516498D01*
X146459397Y-85370827D01*
X146459390Y-85370814D01*
X146371789Y-85239711D01*
X146371786Y-85239707D01*
X146260292Y-85128213D01*
X146260288Y-85128210D01*
X146129185Y-85040609D01*
X146129172Y-85040602D01*
X145983501Y-84980264D01*
X145983489Y-84980261D01*
X145828845Y-84949500D01*
X145828842Y-84949500D01*
X145671158Y-84949500D01*
X145671155Y-84949500D01*
X145516510Y-84980261D01*
X145516498Y-84980264D01*
X145370827Y-85040602D01*
X145370814Y-85040609D01*
X145239711Y-85128210D01*
X145239707Y-85128213D01*
X145128213Y-85239707D01*
X145128210Y-85239711D01*
X145040609Y-85370814D01*
X145040602Y-85370827D01*
X144980264Y-85516498D01*
X144980261Y-85516510D01*
X144949500Y-85671153D01*
X137750500Y-85671153D01*
X137750500Y-82400678D01*
X158988000Y-82400678D01*
X158988000Y-82599321D01*
X159019075Y-82795520D01*
X159019075Y-82795523D01*
X159080457Y-82984437D01*
X159170641Y-83161432D01*
X159197730Y-83198715D01*
X159197731Y-83198716D01*
X159869000Y-82527447D01*
X159869000Y-82550160D01*
X159894964Y-82647061D01*
X159945124Y-82733940D01*
X160016060Y-82804876D01*
X160102939Y-82855036D01*
X160199840Y-82881000D01*
X160222553Y-82881000D01*
X159551283Y-83552268D01*
X159551283Y-83552269D01*
X159588567Y-83579358D01*
X159765562Y-83669542D01*
X159954477Y-83730924D01*
X160150679Y-83762000D01*
X160349321Y-83762000D01*
X160545520Y-83730924D01*
X160545523Y-83730924D01*
X160734437Y-83669542D01*
X160911425Y-83579362D01*
X160948716Y-83552268D01*
X160277448Y-82881000D01*
X160300160Y-82881000D01*
X160397061Y-82855036D01*
X160483940Y-82804876D01*
X160554876Y-82733940D01*
X160605036Y-82647061D01*
X160631000Y-82550160D01*
X160631000Y-82527447D01*
X161302268Y-83198715D01*
X161329362Y-83161425D01*
X161419542Y-82984437D01*
X161480924Y-82795523D01*
X161480924Y-82795520D01*
X161512000Y-82599321D01*
X161512000Y-82400678D01*
X161480924Y-82204479D01*
X161480924Y-82204476D01*
X161419542Y-82015562D01*
X161329358Y-81838567D01*
X161302268Y-81801283D01*
X160631000Y-82472551D01*
X160631000Y-82449840D01*
X160605036Y-82352939D01*
X160554876Y-82266060D01*
X160483940Y-82195124D01*
X160397061Y-82144964D01*
X160300160Y-82119000D01*
X160277447Y-82119000D01*
X160948716Y-81447731D01*
X160948715Y-81447730D01*
X160911432Y-81420641D01*
X160734437Y-81330457D01*
X160545522Y-81269075D01*
X160349321Y-81238000D01*
X160150679Y-81238000D01*
X159954479Y-81269075D01*
X159954476Y-81269075D01*
X159765562Y-81330457D01*
X159588564Y-81420643D01*
X159551283Y-81447729D01*
X159551282Y-81447730D01*
X160222554Y-82119000D01*
X160199840Y-82119000D01*
X160102939Y-82144964D01*
X160016060Y-82195124D01*
X159945124Y-82266060D01*
X159894964Y-82352939D01*
X159869000Y-82449840D01*
X159869000Y-82472552D01*
X159197730Y-81801282D01*
X159197729Y-81801283D01*
X159170643Y-81838564D01*
X159080457Y-82015562D01*
X159019075Y-82204476D01*
X159019075Y-82204479D01*
X158988000Y-82400678D01*
X137750500Y-82400678D01*
X137750500Y-81421153D01*
X138949500Y-81421153D01*
X138949500Y-81578846D01*
X138980261Y-81733489D01*
X138980264Y-81733501D01*
X139040602Y-81879172D01*
X139040609Y-81879185D01*
X139128210Y-82010288D01*
X139128213Y-82010292D01*
X139239707Y-82121786D01*
X139239711Y-82121789D01*
X139370814Y-82209390D01*
X139370827Y-82209397D01*
X139507626Y-82266060D01*
X139516503Y-82269737D01*
X139671153Y-82300499D01*
X139671156Y-82300500D01*
X139671158Y-82300500D01*
X139828844Y-82300500D01*
X139961117Y-82274189D01*
X139961117Y-82274188D01*
X139983497Y-82269737D01*
X140129179Y-82209394D01*
X140260289Y-82121789D01*
X140371789Y-82010289D01*
X140459394Y-81879179D01*
X140519737Y-81733497D01*
X140550500Y-81578842D01*
X140550500Y-81421158D01*
X140550500Y-81421155D01*
X140550499Y-81421153D01*
X140532458Y-81330457D01*
X140519737Y-81266503D01*
X140499500Y-81217646D01*
X140459397Y-81120827D01*
X140459390Y-81120814D01*
X140371789Y-80989711D01*
X140371786Y-80989707D01*
X140260292Y-80878213D01*
X140260288Y-80878210D01*
X140129185Y-80790609D01*
X140129172Y-80790602D01*
X139983501Y-80730264D01*
X139983489Y-80730261D01*
X139828845Y-80699500D01*
X139828842Y-80699500D01*
X139671158Y-80699500D01*
X139671155Y-80699500D01*
X139516510Y-80730261D01*
X139516498Y-80730264D01*
X139370827Y-80790602D01*
X139370814Y-80790609D01*
X139239711Y-80878210D01*
X139239707Y-80878213D01*
X139128213Y-80989707D01*
X139128210Y-80989711D01*
X139040609Y-81120814D01*
X139040602Y-81120827D01*
X138980264Y-81266498D01*
X138980261Y-81266510D01*
X138949500Y-81421153D01*
X137750500Y-81421153D01*
X137750500Y-78671153D01*
X150949500Y-78671153D01*
X150949500Y-78828846D01*
X150980261Y-78983489D01*
X150980264Y-78983501D01*
X151040602Y-79129172D01*
X151040609Y-79129185D01*
X151128210Y-79260288D01*
X151128213Y-79260292D01*
X151239707Y-79371786D01*
X151239711Y-79371789D01*
X151370814Y-79459390D01*
X151370827Y-79459397D01*
X151516498Y-79519735D01*
X151516503Y-79519737D01*
X151671153Y-79550499D01*
X151671156Y-79550500D01*
X151671158Y-79550500D01*
X151828844Y-79550500D01*
X151828845Y-79550499D01*
X151983497Y-79519737D01*
X152129179Y-79459394D01*
X152260289Y-79371789D01*
X152371789Y-79260289D01*
X152459394Y-79129179D01*
X152519737Y-78983497D01*
X152550500Y-78828842D01*
X152550500Y-78671158D01*
X152550500Y-78671155D01*
X152550499Y-78671153D01*
X152519738Y-78516510D01*
X152519737Y-78516503D01*
X152519735Y-78516498D01*
X152459397Y-78370827D01*
X152459390Y-78370814D01*
X152371789Y-78239711D01*
X152371786Y-78239707D01*
X152260292Y-78128213D01*
X152260288Y-78128210D01*
X152129185Y-78040609D01*
X152129172Y-78040602D01*
X151983501Y-77980264D01*
X151983489Y-77980261D01*
X151828845Y-77949500D01*
X151828842Y-77949500D01*
X151671158Y-77949500D01*
X151671155Y-77949500D01*
X151516510Y-77980261D01*
X151516498Y-77980264D01*
X151370827Y-78040602D01*
X151370814Y-78040609D01*
X151239711Y-78128210D01*
X151239707Y-78128213D01*
X151128213Y-78239707D01*
X151128210Y-78239711D01*
X151040609Y-78370814D01*
X151040602Y-78370827D01*
X150980264Y-78516498D01*
X150980261Y-78516510D01*
X150949500Y-78671153D01*
X137750500Y-78671153D01*
X137750500Y-76184108D01*
X137716392Y-76056814D01*
X137650500Y-75942686D01*
X137557314Y-75849500D01*
X137443186Y-75783608D01*
X137391905Y-75769867D01*
X137332246Y-75733503D01*
X137301717Y-75670656D01*
X137300000Y-75650093D01*
X137300000Y-74124500D01*
X137319685Y-74057461D01*
X137372489Y-74011706D01*
X137424000Y-74000500D01*
X137881113Y-74000500D01*
X137881120Y-74000500D01*
X138141116Y-73966270D01*
X138394419Y-73898398D01*
X138636697Y-73798043D01*
X138863803Y-73666924D01*
X139071851Y-73507282D01*
X139071855Y-73507277D01*
X139071860Y-73507274D01*
X139173620Y-73405513D01*
X143549500Y-73405513D01*
X143549500Y-73594486D01*
X143579059Y-73781118D01*
X143637454Y-73960836D01*
X143720803Y-74124416D01*
X143723240Y-74129199D01*
X143834310Y-74282073D01*
X143967927Y-74415690D01*
X144120801Y-74526760D01*
X144175403Y-74554581D01*
X144289163Y-74612545D01*
X144289165Y-74612545D01*
X144289168Y-74612547D01*
X144385497Y-74643846D01*
X144468881Y-74670940D01*
X144655514Y-74700500D01*
X144655519Y-74700500D01*
X144844486Y-74700500D01*
X145029773Y-74671153D01*
X150949500Y-74671153D01*
X150949500Y-74828846D01*
X150980261Y-74983489D01*
X150980264Y-74983501D01*
X151040602Y-75129172D01*
X151040609Y-75129185D01*
X151128210Y-75260288D01*
X151128213Y-75260292D01*
X151239707Y-75371786D01*
X151239711Y-75371789D01*
X151370814Y-75459390D01*
X151370827Y-75459397D01*
X151516498Y-75519735D01*
X151516503Y-75519737D01*
X151671153Y-75550499D01*
X151671156Y-75550500D01*
X151671158Y-75550500D01*
X151828844Y-75550500D01*
X151828845Y-75550499D01*
X151983497Y-75519737D01*
X152129179Y-75459394D01*
X152260289Y-75371789D01*
X152371789Y-75260289D01*
X152459394Y-75129179D01*
X152519737Y-74983497D01*
X152550500Y-74828842D01*
X152550500Y-74671158D01*
X152550500Y-74671155D01*
X152550499Y-74671153D01*
X152519738Y-74516510D01*
X152519737Y-74516503D01*
X152487628Y-74438984D01*
X152459397Y-74370827D01*
X152459390Y-74370814D01*
X152371789Y-74239711D01*
X152371786Y-74239707D01*
X152260292Y-74128213D01*
X152260288Y-74128210D01*
X152129185Y-74040609D01*
X152129172Y-74040602D01*
X151983501Y-73980264D01*
X151983489Y-73980261D01*
X151828845Y-73949500D01*
X151828842Y-73949500D01*
X151671158Y-73949500D01*
X151671155Y-73949500D01*
X151516510Y-73980261D01*
X151516498Y-73980264D01*
X151370827Y-74040602D01*
X151370814Y-74040609D01*
X151239711Y-74128210D01*
X151239707Y-74128213D01*
X151128213Y-74239707D01*
X151128210Y-74239711D01*
X151040609Y-74370814D01*
X151040602Y-74370827D01*
X150980264Y-74516498D01*
X150980261Y-74516510D01*
X150949500Y-74671153D01*
X145029773Y-74671153D01*
X145031118Y-74670940D01*
X145210832Y-74612547D01*
X145379199Y-74526760D01*
X145532073Y-74415690D01*
X145665690Y-74282073D01*
X145776760Y-74129199D01*
X145862547Y-73960832D01*
X145920940Y-73781118D01*
X145921698Y-73776331D01*
X145935178Y-73691225D01*
X145950500Y-73594486D01*
X145950500Y-73405513D01*
X145920940Y-73218881D01*
X145889702Y-73122741D01*
X145862547Y-73039168D01*
X145862545Y-73039165D01*
X145862545Y-73039163D01*
X145784859Y-72886697D01*
X145776760Y-72870801D01*
X145665690Y-72717927D01*
X145603315Y-72655552D01*
X149300000Y-72655552D01*
X149300000Y-72844447D01*
X149329548Y-73031002D01*
X149387914Y-73210637D01*
X149473666Y-73378933D01*
X149492116Y-73404328D01*
X150100000Y-72796445D01*
X150100000Y-72802661D01*
X150127259Y-72904394D01*
X150179920Y-72995606D01*
X150254394Y-73070080D01*
X150345606Y-73122741D01*
X150447339Y-73150000D01*
X150453554Y-73150000D01*
X149845669Y-73757882D01*
X149845670Y-73757883D01*
X149871059Y-73776329D01*
X150039362Y-73862085D01*
X150218997Y-73920451D01*
X150405553Y-73950000D01*
X150594447Y-73950000D01*
X150781002Y-73920451D01*
X150960637Y-73862085D01*
X151128937Y-73776331D01*
X151154328Y-73757883D01*
X151154328Y-73757882D01*
X150546447Y-73150000D01*
X150552661Y-73150000D01*
X150654394Y-73122741D01*
X150745606Y-73070080D01*
X150820080Y-72995606D01*
X150872741Y-72904394D01*
X150900000Y-72802661D01*
X150900000Y-72796446D01*
X151507882Y-73404328D01*
X151507883Y-73404328D01*
X151526331Y-73378937D01*
X151612085Y-73210637D01*
X151670451Y-73031002D01*
X151700000Y-72844447D01*
X151700000Y-72655552D01*
X151670451Y-72468997D01*
X151612085Y-72289362D01*
X151526329Y-72121059D01*
X151507883Y-72095670D01*
X151507882Y-72095669D01*
X150900000Y-72703552D01*
X150900000Y-72697339D01*
X150872741Y-72595606D01*
X150820080Y-72504394D01*
X150745606Y-72429920D01*
X150654394Y-72377259D01*
X150552661Y-72350000D01*
X150546447Y-72350000D01*
X151154328Y-71742116D01*
X151128933Y-71723666D01*
X150960637Y-71637914D01*
X150781002Y-71579548D01*
X150594447Y-71550000D01*
X150405553Y-71550000D01*
X150218997Y-71579548D01*
X150039362Y-71637914D01*
X149871060Y-71723669D01*
X149845670Y-71742116D01*
X149845669Y-71742116D01*
X150453554Y-72350000D01*
X150447339Y-72350000D01*
X150345606Y-72377259D01*
X150254394Y-72429920D01*
X150179920Y-72504394D01*
X150127259Y-72595606D01*
X150100000Y-72697339D01*
X150100000Y-72703553D01*
X149492116Y-72095669D01*
X149492116Y-72095670D01*
X149473669Y-72121060D01*
X149387914Y-72289362D01*
X149329548Y-72468997D01*
X149300000Y-72655552D01*
X145603315Y-72655552D01*
X145532073Y-72584310D01*
X145379199Y-72473240D01*
X145370872Y-72468997D01*
X145210836Y-72387454D01*
X145031118Y-72329059D01*
X144844486Y-72299500D01*
X144844481Y-72299500D01*
X144655519Y-72299500D01*
X144655514Y-72299500D01*
X144468881Y-72329059D01*
X144289163Y-72387454D01*
X144120800Y-72473240D01*
X144077921Y-72504394D01*
X143967927Y-72584310D01*
X143967925Y-72584312D01*
X143967924Y-72584312D01*
X143834312Y-72717924D01*
X143834312Y-72717925D01*
X143834310Y-72717927D01*
X143786610Y-72783579D01*
X143723240Y-72870800D01*
X143637454Y-73039163D01*
X143579059Y-73218881D01*
X143549500Y-73405513D01*
X139173620Y-73405513D01*
X139257274Y-73321859D01*
X139257282Y-73321851D01*
X139416924Y-73113803D01*
X139548043Y-72886697D01*
X139648398Y-72644419D01*
X139716270Y-72391116D01*
X139750500Y-72131120D01*
X139750500Y-71868880D01*
X139742732Y-71809876D01*
X139742164Y-71805560D01*
X139731382Y-71723666D01*
X139716270Y-71608884D01*
X139648398Y-71355581D01*
X139563621Y-71150911D01*
X139548046Y-71113309D01*
X139548041Y-71113299D01*
X139416924Y-70886196D01*
X139257281Y-70678148D01*
X139257274Y-70678140D01*
X139071860Y-70492726D01*
X139071851Y-70492718D01*
X138863803Y-70333075D01*
X138796456Y-70294193D01*
X138636700Y-70201958D01*
X138636690Y-70201953D01*
X138608159Y-70190135D01*
X158987500Y-70190135D01*
X158987500Y-71809870D01*
X158987501Y-71809876D01*
X158993908Y-71869483D01*
X159044202Y-72004328D01*
X159044206Y-72004335D01*
X159130452Y-72119544D01*
X159130455Y-72119547D01*
X159245664Y-72205793D01*
X159245671Y-72205797D01*
X159380517Y-72256091D01*
X159380516Y-72256091D01*
X159387444Y-72256835D01*
X159440127Y-72262500D01*
X161059872Y-72262499D01*
X161119483Y-72256091D01*
X161254331Y-72205796D01*
X161369546Y-72119546D01*
X161455796Y-72004331D01*
X161506091Y-71869483D01*
X161512500Y-71809873D01*
X161512499Y-70190128D01*
X161506091Y-70130517D01*
X161495306Y-70101602D01*
X161455797Y-69995671D01*
X161455793Y-69995664D01*
X161369547Y-69880455D01*
X161369544Y-69880452D01*
X161254335Y-69794206D01*
X161254328Y-69794202D01*
X161119482Y-69743908D01*
X161119483Y-69743908D01*
X161059883Y-69737501D01*
X161059881Y-69737500D01*
X161059873Y-69737500D01*
X161059864Y-69737500D01*
X159440129Y-69737500D01*
X159440123Y-69737501D01*
X159380516Y-69743908D01*
X159245671Y-69794202D01*
X159245664Y-69794206D01*
X159130455Y-69880452D01*
X159130452Y-69880455D01*
X159044206Y-69995664D01*
X159044202Y-69995671D01*
X158993908Y-70130517D01*
X158987501Y-70190116D01*
X158987501Y-70190123D01*
X158987500Y-70190135D01*
X138608159Y-70190135D01*
X138394428Y-70101605D01*
X138394421Y-70101603D01*
X138394419Y-70101602D01*
X138141116Y-70033730D01*
X138083339Y-70026123D01*
X137881127Y-69999500D01*
X137881120Y-69999500D01*
X137424000Y-69999500D01*
X137356961Y-69979815D01*
X137311206Y-69927011D01*
X137300000Y-69875500D01*
X137300000Y-68374500D01*
X137319685Y-68307461D01*
X137372489Y-68261706D01*
X137424000Y-68250500D01*
X167076391Y-68250500D01*
X167143430Y-68270185D01*
G37*
%TD.AperFunction*%
%TD*%
M02*
