%TF.GenerationSoftware,KiCad,Pcbnew,9.0.0*%
%TF.CreationDate,2025-04-11T18:51:10-05:00*%
%TF.ProjectId,ptSolar-Breakout,7074536f-6c61-4722-9d42-7265616b6f75,rev?*%
%TF.SameCoordinates,Original*%
%TF.FileFunction,Soldermask,Top*%
%TF.FilePolarity,Negative*%
%FSLAX46Y46*%
G04 Gerber Fmt 4.6, Leading zero omitted, Abs format (unit mm)*
G04 Created by KiCad (PCBNEW 9.0.0) date 2025-04-11 18:51:10*
%MOMM*%
%LPD*%
G01*
G04 APERTURE LIST*
G04 Aperture macros list*
%AMRoundRect*
0 Rectangle with rounded corners*
0 $1 Rounding radius*
0 $2 $3 $4 $5 $6 $7 $8 $9 X,Y pos of 4 corners*
0 Add a 4 corners polygon primitive as box body*
4,1,4,$2,$3,$4,$5,$6,$7,$8,$9,$2,$3,0*
0 Add four circle primitives for the rounded corners*
1,1,$1+$1,$2,$3*
1,1,$1+$1,$4,$5*
1,1,$1+$1,$6,$7*
1,1,$1+$1,$8,$9*
0 Add four rect primitives between the rounded corners*
20,1,$1+$1,$2,$3,$4,$5,0*
20,1,$1+$1,$4,$5,$6,$7,0*
20,1,$1+$1,$6,$7,$8,$9,0*
20,1,$1+$1,$8,$9,$2,$3,0*%
G04 Aperture macros list end*
%ADD10RoundRect,0.150000X-0.625000X0.150000X-0.625000X-0.150000X0.625000X-0.150000X0.625000X0.150000X0*%
%ADD11RoundRect,0.250000X-0.650000X0.350000X-0.650000X-0.350000X0.650000X-0.350000X0.650000X0.350000X0*%
%ADD12RoundRect,0.250000X-0.250000X-0.475000X0.250000X-0.475000X0.250000X0.475000X-0.250000X0.475000X0*%
%ADD13RoundRect,0.250000X0.475000X-0.250000X0.475000X0.250000X-0.475000X0.250000X-0.475000X-0.250000X0*%
%ADD14R,1.700000X1.700000*%
%ADD15O,1.700000X1.700000*%
%ADD16RoundRect,0.250000X0.250000X0.475000X-0.250000X0.475000X-0.250000X-0.475000X0.250000X-0.475000X0*%
%ADD17RoundRect,0.225000X-0.375000X0.225000X-0.375000X-0.225000X0.375000X-0.225000X0.375000X0.225000X0*%
%ADD18RoundRect,0.150000X-0.150000X0.587500X-0.150000X-0.587500X0.150000X-0.587500X0.150000X0.587500X0*%
%ADD19R,2.000000X2.000000*%
%ADD20C,2.000000*%
%ADD21RoundRect,0.250000X2.050000X0.300000X-2.050000X0.300000X-2.050000X-0.300000X2.050000X-0.300000X0*%
%ADD22RoundRect,0.250002X4.449998X5.149998X-4.449998X5.149998X-4.449998X-5.149998X4.449998X-5.149998X0*%
%ADD23R,0.350000X0.500000*%
%ADD24RoundRect,0.250000X-0.250000X0.525000X-0.250000X-0.525000X0.250000X-0.525000X0.250000X0.525000X0*%
%ADD25RoundRect,0.250000X-0.475000X0.250000X-0.475000X-0.250000X0.475000X-0.250000X0.475000X0.250000X0*%
%ADD26O,1.500000X2.000000*%
%ADD27R,2.000000X3.000000*%
%ADD28RoundRect,0.250000X-0.262500X-0.450000X0.262500X-0.450000X0.262500X0.450000X-0.262500X0.450000X0*%
G04 APERTURE END LIST*
D10*
%TO.C,J4*%
X148500000Y-78000000D03*
X148500000Y-79000000D03*
X148500000Y-80000000D03*
X148500000Y-81000000D03*
D11*
X144625000Y-76700000D03*
X144625000Y-82300000D03*
%TD*%
D12*
%TO.C,C1*%
X162350000Y-84750000D03*
X164250000Y-84750000D03*
%TD*%
D13*
%TO.C,C5*%
X151250000Y-76700000D03*
X151250000Y-74800000D03*
%TD*%
D14*
%TO.C,J2*%
X155700000Y-90740000D03*
D15*
X155700000Y-88200000D03*
X158240000Y-90740000D03*
X158240000Y-88200000D03*
X160780000Y-90740000D03*
X160780000Y-88200000D03*
X163320000Y-90740000D03*
X163320000Y-88200000D03*
%TD*%
D14*
%TO.C,J1*%
X165000000Y-129500000D03*
D15*
X162460000Y-129500000D03*
X165000000Y-126960000D03*
X162460000Y-126960000D03*
X165000000Y-124420000D03*
X162460000Y-124420000D03*
%TD*%
D16*
%TO.C,C3*%
X158950000Y-132500000D03*
X157050000Y-132500000D03*
%TD*%
D17*
%TO.C,D1*%
X151500000Y-99600000D03*
X151500000Y-102900000D03*
%TD*%
D14*
%TO.C,J3*%
X155700000Y-139000000D03*
D15*
X155700000Y-136460000D03*
X158240000Y-139000000D03*
X158240000Y-136460000D03*
X160780000Y-139000000D03*
X160780000Y-136460000D03*
%TD*%
D18*
%TO.C,Q1*%
X147700000Y-100375000D03*
X145800000Y-100375000D03*
X146750000Y-102250000D03*
%TD*%
D19*
%TO.C,PZ1*%
X156926041Y-99750000D03*
D20*
X161926041Y-99750000D03*
%TD*%
D21*
%TO.C,U1*%
X158250000Y-116000000D03*
X158250000Y-113460000D03*
D22*
X149100000Y-113460000D03*
D21*
X158250000Y-110920000D03*
%TD*%
D23*
%TO.C,U2*%
X147475000Y-72025000D03*
X146825000Y-72025000D03*
X146175000Y-72025000D03*
X145525000Y-72025000D03*
X145525000Y-69975000D03*
X146175000Y-69975000D03*
X146825000Y-69975000D03*
X147475000Y-69975000D03*
%TD*%
D14*
%TO.C,J5*%
X145750000Y-87920000D03*
D15*
X145750000Y-90460000D03*
X145750000Y-93000000D03*
%TD*%
D24*
%TO.C,SW1*%
X156100000Y-122375000D03*
X156100000Y-127625000D03*
X152900000Y-122375000D03*
X152900000Y-127625000D03*
%TD*%
D25*
%TO.C,C4*%
X162750000Y-113550000D03*
X162750000Y-115450000D03*
%TD*%
D26*
%TO.C,J6*%
X162900000Y-76000000D03*
D20*
X158500000Y-76000000D03*
D27*
X163000000Y-81500000D03*
X157000000Y-81500000D03*
X157000000Y-70500000D03*
X163000000Y-70500000D03*
%TD*%
D25*
%TO.C,C2*%
X165250000Y-113550000D03*
X165250000Y-115450000D03*
%TD*%
D28*
%TO.C,R1*%
X145837500Y-97000000D03*
X147662500Y-97000000D03*
%TD*%
M02*
