%TF.GenerationSoftware,KiCad,Pcbnew,9.0.0*%
%TF.CreationDate,2025-04-11T18:51:10-05:00*%
%TF.ProjectId,ptSolar-Breakout,7074536f-6c61-4722-9d42-7265616b6f75,rev?*%
%TF.SameCoordinates,Original*%
%TF.FileFunction,Copper,L1,Top*%
%TF.FilePolarity,Positive*%
%FSLAX46Y46*%
G04 Gerber Fmt 4.6, Leading zero omitted, Abs format (unit mm)*
G04 Created by KiCad (PCBNEW 9.0.0) date 2025-04-11 18:51:10*
%MOMM*%
%LPD*%
G01*
G04 APERTURE LIST*
G04 Aperture macros list*
%AMRoundRect*
0 Rectangle with rounded corners*
0 $1 Rounding radius*
0 $2 $3 $4 $5 $6 $7 $8 $9 X,Y pos of 4 corners*
0 Add a 4 corners polygon primitive as box body*
4,1,4,$2,$3,$4,$5,$6,$7,$8,$9,$2,$3,0*
0 Add four circle primitives for the rounded corners*
1,1,$1+$1,$2,$3*
1,1,$1+$1,$4,$5*
1,1,$1+$1,$6,$7*
1,1,$1+$1,$8,$9*
0 Add four rect primitives between the rounded corners*
20,1,$1+$1,$2,$3,$4,$5,0*
20,1,$1+$1,$4,$5,$6,$7,0*
20,1,$1+$1,$6,$7,$8,$9,0*
20,1,$1+$1,$8,$9,$2,$3,0*%
G04 Aperture macros list end*
%TA.AperFunction,SMDPad,CuDef*%
%ADD10RoundRect,0.150000X-0.625000X0.150000X-0.625000X-0.150000X0.625000X-0.150000X0.625000X0.150000X0*%
%TD*%
%TA.AperFunction,SMDPad,CuDef*%
%ADD11RoundRect,0.250000X-0.650000X0.350000X-0.650000X-0.350000X0.650000X-0.350000X0.650000X0.350000X0*%
%TD*%
%TA.AperFunction,SMDPad,CuDef*%
%ADD12RoundRect,0.250000X-0.250000X-0.475000X0.250000X-0.475000X0.250000X0.475000X-0.250000X0.475000X0*%
%TD*%
%TA.AperFunction,SMDPad,CuDef*%
%ADD13RoundRect,0.250000X0.475000X-0.250000X0.475000X0.250000X-0.475000X0.250000X-0.475000X-0.250000X0*%
%TD*%
%TA.AperFunction,ComponentPad*%
%ADD14R,1.700000X1.700000*%
%TD*%
%TA.AperFunction,ComponentPad*%
%ADD15O,1.700000X1.700000*%
%TD*%
%TA.AperFunction,SMDPad,CuDef*%
%ADD16RoundRect,0.250000X0.250000X0.475000X-0.250000X0.475000X-0.250000X-0.475000X0.250000X-0.475000X0*%
%TD*%
%TA.AperFunction,SMDPad,CuDef*%
%ADD17RoundRect,0.225000X-0.375000X0.225000X-0.375000X-0.225000X0.375000X-0.225000X0.375000X0.225000X0*%
%TD*%
%TA.AperFunction,SMDPad,CuDef*%
%ADD18RoundRect,0.150000X-0.150000X0.587500X-0.150000X-0.587500X0.150000X-0.587500X0.150000X0.587500X0*%
%TD*%
%TA.AperFunction,ComponentPad*%
%ADD19R,2.000000X2.000000*%
%TD*%
%TA.AperFunction,ComponentPad*%
%ADD20C,2.000000*%
%TD*%
%TA.AperFunction,SMDPad,CuDef*%
%ADD21RoundRect,0.250000X2.050000X0.300000X-2.050000X0.300000X-2.050000X-0.300000X2.050000X-0.300000X0*%
%TD*%
%TA.AperFunction,SMDPad,CuDef*%
%ADD22RoundRect,0.250000X2.025000X2.375000X-2.025000X2.375000X-2.025000X-2.375000X2.025000X-2.375000X0*%
%TD*%
%TA.AperFunction,SMDPad,CuDef*%
%ADD23RoundRect,0.250002X4.449998X5.149998X-4.449998X5.149998X-4.449998X-5.149998X4.449998X-5.149998X0*%
%TD*%
%TA.AperFunction,SMDPad,CuDef*%
%ADD24R,0.350000X0.500000*%
%TD*%
%TA.AperFunction,SMDPad,CuDef*%
%ADD25RoundRect,0.250000X-0.250000X0.525000X-0.250000X-0.525000X0.250000X-0.525000X0.250000X0.525000X0*%
%TD*%
%TA.AperFunction,SMDPad,CuDef*%
%ADD26RoundRect,0.250000X-0.475000X0.250000X-0.475000X-0.250000X0.475000X-0.250000X0.475000X0.250000X0*%
%TD*%
%TA.AperFunction,SMDPad,CuDef*%
%ADD27R,2.000000X3.000000*%
%TD*%
%TA.AperFunction,SMDPad,CuDef*%
%ADD28RoundRect,0.250000X-0.262500X-0.450000X0.262500X-0.450000X0.262500X0.450000X-0.262500X0.450000X0*%
%TD*%
%TA.AperFunction,ViaPad*%
%ADD29C,0.600000*%
%TD*%
%TA.AperFunction,Conductor*%
%ADD30C,0.600000*%
%TD*%
%TA.AperFunction,Conductor*%
%ADD31C,0.200000*%
%TD*%
G04 APERTURE END LIST*
D10*
%TO.P,J4,1,Pin_1*%
%TO.N,GND*%
X148500000Y-78000000D03*
%TO.P,J4,2,Pin_2*%
%TO.N,+3.3V*%
X148500000Y-79000000D03*
%TO.P,J4,3,Pin_3*%
%TO.N,Net-(J2-Pin_6)*%
X148500000Y-80000000D03*
%TO.P,J4,4,Pin_4*%
%TO.N,Net-(J2-Pin_4)*%
X148500000Y-81000000D03*
D11*
%TO.P,J4,MP*%
%TO.N,N/C*%
X144625000Y-76700000D03*
X144625000Y-82300000D03*
%TD*%
D12*
%TO.P,C1,1*%
%TO.N,Net-(U1-VI)*%
X162350000Y-84750000D03*
%TO.P,C1,2*%
%TO.N,GND*%
X164250000Y-84750000D03*
%TD*%
D13*
%TO.P,C5,1*%
%TO.N,+3.3V*%
X151250000Y-76700000D03*
%TO.P,C5,2*%
%TO.N,GND*%
X151250000Y-74800000D03*
%TD*%
D14*
%TO.P,J2,1,Pin_1*%
%TO.N,Net-(J2-Pin_1)*%
X155700000Y-90740000D03*
D15*
%TO.P,J2,2,Pin_2*%
%TO.N,+3.3V*%
X155700000Y-88200000D03*
%TO.P,J2,3,Pin_3*%
%TO.N,Net-(J2-Pin_3)*%
X158240000Y-90740000D03*
%TO.P,J2,4,Pin_4*%
%TO.N,Net-(J2-Pin_4)*%
X158240000Y-88200000D03*
%TO.P,J2,5,Pin_5*%
%TO.N,GND*%
X160780000Y-90740000D03*
%TO.P,J2,6,Pin_6*%
%TO.N,Net-(J2-Pin_6)*%
X160780000Y-88200000D03*
%TO.P,J2,7,Pin_7*%
%TO.N,unconnected-(J2-Pin_7-Pad7)*%
X163320000Y-90740000D03*
%TO.P,J2,8,Pin_8*%
%TO.N,Net-(J2-Pin_8)*%
X163320000Y-88200000D03*
%TD*%
D14*
%TO.P,J1,1,Pin_1*%
%TO.N,/MISO*%
X165000000Y-129500000D03*
D15*
%TO.P,J1,2,Pin_2*%
%TO.N,+BATT*%
X162460000Y-129500000D03*
%TO.P,J1,3,Pin_3*%
%TO.N,/SCK*%
X165000000Y-126960000D03*
%TO.P,J1,4,Pin_4*%
%TO.N,/MOSI*%
X162460000Y-126960000D03*
%TO.P,J1,5,Pin_5*%
%TO.N,/RESET*%
X165000000Y-124420000D03*
%TO.P,J1,6,Pin_6*%
%TO.N,GND*%
X162460000Y-124420000D03*
%TD*%
D16*
%TO.P,C3,1*%
%TO.N,+BATT*%
X158950000Y-132500000D03*
%TO.P,C3,2*%
%TO.N,GND*%
X157050000Y-132500000D03*
%TD*%
D17*
%TO.P,D1,1,K*%
%TO.N,+BATT*%
X151500000Y-99600000D03*
%TO.P,D1,2,A*%
%TO.N,Net-(D1-A)*%
X151500000Y-102900000D03*
%TD*%
D14*
%TO.P,J3,1,Pin_1*%
%TO.N,/MISO*%
X155700000Y-139000000D03*
D15*
%TO.P,J3,2,Pin_2*%
%TO.N,+BATT*%
X155700000Y-136460000D03*
%TO.P,J3,3,Pin_3*%
%TO.N,/SCK*%
X158240000Y-139000000D03*
%TO.P,J3,4,Pin_4*%
%TO.N,/MOSI*%
X158240000Y-136460000D03*
%TO.P,J3,5,Pin_5*%
%TO.N,/RESET*%
X160780000Y-139000000D03*
%TO.P,J3,6,Pin_6*%
%TO.N,GND*%
X160780000Y-136460000D03*
%TD*%
D18*
%TO.P,Q1,1,B*%
%TO.N,Net-(Q1-B)*%
X147700000Y-100375000D03*
%TO.P,Q1,2,E*%
%TO.N,GND*%
X145800000Y-100375000D03*
%TO.P,Q1,3,C*%
%TO.N,Net-(D1-A)*%
X146750000Y-102250000D03*
%TD*%
D19*
%TO.P,PZ1,1*%
%TO.N,+BATT*%
X156926041Y-99750000D03*
D20*
%TO.P,PZ1,2*%
%TO.N,Net-(D1-A)*%
X161926041Y-99750000D03*
%TD*%
D21*
%TO.P,U1,1,GND*%
%TO.N,GND*%
X158250000Y-116000000D03*
%TO.P,U1,2,VO*%
%TO.N,+BATT*%
X158250000Y-113460000D03*
D22*
X151525000Y-116235000D03*
X151525000Y-110685000D03*
D23*
X149100000Y-113460000D03*
D22*
X146675000Y-116235000D03*
X146675000Y-110685000D03*
D21*
%TO.P,U1,3,VI*%
%TO.N,Net-(U1-VI)*%
X158250000Y-110920000D03*
%TD*%
D24*
%TO.P,U2,1,GND*%
%TO.N,GND*%
X147475000Y-72025000D03*
%TO.P,U2,2,CSB*%
%TO.N,+3.3V*%
X146825000Y-72025000D03*
%TO.P,U2,3,SDI*%
%TO.N,Net-(J2-Pin_6)*%
X146175000Y-72025000D03*
%TO.P,U2,4,SCK*%
%TO.N,Net-(J2-Pin_4)*%
X145525000Y-72025000D03*
%TO.P,U2,5,SDO*%
%TO.N,GND*%
X145525000Y-69975000D03*
%TO.P,U2,6,VDDIO*%
%TO.N,+3.3V*%
X146175000Y-69975000D03*
%TO.P,U2,7,GND*%
%TO.N,GND*%
X146825000Y-69975000D03*
%TO.P,U2,8,VDD*%
%TO.N,+3.3V*%
X147475000Y-69975000D03*
%TD*%
D14*
%TO.P,J5,1,Pin_1*%
%TO.N,Net-(J2-Pin_1)*%
X145750000Y-87920000D03*
D15*
%TO.P,J5,2,Pin_2*%
%TO.N,Net-(J2-Pin_3)*%
X145750000Y-90460000D03*
%TO.P,J5,3,Pin_3*%
%TO.N,GND*%
X145750000Y-93000000D03*
%TD*%
D25*
%TO.P,SW1,1,A*%
%TO.N,/RESET*%
X156100000Y-122375000D03*
X156100000Y-127625000D03*
%TO.P,SW1,2,B*%
%TO.N,GND*%
X152900000Y-122375000D03*
X152900000Y-127625000D03*
%TD*%
D26*
%TO.P,C4,1*%
%TO.N,+BATT*%
X162750000Y-113550000D03*
%TO.P,C4,2*%
%TO.N,GND*%
X162750000Y-115450000D03*
%TD*%
D27*
%TO.P,J6,1*%
%TO.N,Net-(U1-VI)*%
X163000000Y-81500000D03*
X157000000Y-81500000D03*
%TO.P,J6,2*%
%TO.N,GND*%
X157000000Y-70500000D03*
%TO.P,J6,3*%
X163000000Y-70500000D03*
%TD*%
D26*
%TO.P,C2,1*%
%TO.N,+BATT*%
X165250000Y-113550000D03*
%TO.P,C2,2*%
%TO.N,GND*%
X165250000Y-115450000D03*
%TD*%
D28*
%TO.P,R1,1*%
%TO.N,Net-(Q1-B)*%
X145837500Y-97000000D03*
%TO.P,R1,2*%
%TO.N,Net-(J2-Pin_8)*%
X147662500Y-97000000D03*
%TD*%
D29*
%TO.N,GND*%
X149500000Y-100200000D03*
X144200000Y-79500000D03*
X148700000Y-75800000D03*
%TO.N,+BATT*%
X165500000Y-111750000D03*
%TO.N,Net-(U1-VI)*%
X163625000Y-109625000D03*
X160000000Y-84250000D03*
%TO.N,GND*%
X159500000Y-107000000D03*
X165500000Y-138750000D03*
X160250000Y-70500000D03*
X149000000Y-120000000D03*
X154000000Y-70500000D03*
X154000000Y-107000000D03*
X159500000Y-120000000D03*
X163750000Y-107000000D03*
X144750000Y-120000000D03*
X164750000Y-120000000D03*
X157750000Y-84500000D03*
X154000000Y-120000000D03*
X165750000Y-70500000D03*
X144750000Y-106750000D03*
X149000000Y-106750000D03*
%TO.N,+3.3V*%
X151000000Y-78500000D03*
%TD*%
D30*
%TO.N,+BATT*%
X158250000Y-113460000D02*
X162660000Y-113460000D01*
X154300000Y-113460000D02*
X151525000Y-110685000D01*
X165250000Y-112000000D02*
X165500000Y-111750000D01*
X162660000Y-113460000D02*
X162750000Y-113550000D01*
X158950000Y-132500000D02*
X158950000Y-133210000D01*
D31*
X151500000Y-99600000D02*
X156776041Y-99600000D01*
D30*
X158950000Y-133210000D02*
X155700000Y-136460000D01*
X165250000Y-113550000D02*
X165250000Y-112000000D01*
X158250000Y-113460000D02*
X154300000Y-113460000D01*
X165250000Y-113550000D02*
X162750000Y-113550000D01*
D31*
X156776041Y-99600000D02*
X156926041Y-99750000D01*
D30*
X159460000Y-132500000D02*
X162460000Y-129500000D01*
X158950000Y-132500000D02*
X159460000Y-132500000D01*
D31*
%TO.N,Net-(D1-A)*%
X146750000Y-102250000D02*
X147400000Y-102900000D01*
X147400000Y-102900000D02*
X151500000Y-102900000D01*
X158776041Y-102900000D02*
X151500000Y-102900000D01*
X161926041Y-99750000D02*
X158776041Y-102900000D01*
D30*
%TO.N,Net-(U1-VI)*%
X163625000Y-109625000D02*
X162330000Y-110920000D01*
X160000000Y-84250000D02*
X160000000Y-81500000D01*
X162330000Y-110920000D02*
X158250000Y-110920000D01*
X162350000Y-82150000D02*
X163000000Y-81500000D01*
X157000000Y-81500000D02*
X160000000Y-81500000D01*
X160000000Y-81500000D02*
X163000000Y-81500000D01*
X162350000Y-84750000D02*
X162350000Y-82150000D01*
D31*
%TO.N,GND*%
X146825000Y-69975000D02*
X146825000Y-69175000D01*
X146825000Y-69175000D02*
X147000000Y-69000000D01*
X145500000Y-69000000D02*
X145525000Y-69025000D01*
X145525000Y-69025000D02*
X145525000Y-69975000D01*
%TO.N,/MISO*%
X162500000Y-137750000D02*
X156950000Y-137750000D01*
X156950000Y-137750000D02*
X155700000Y-139000000D01*
X165000000Y-135250000D02*
X162500000Y-137750000D01*
X165000000Y-129500000D02*
X165000000Y-135250000D01*
%TO.N,/RESET*%
X160780000Y-139000000D02*
X162000000Y-139000000D01*
X165000000Y-124420000D02*
X162605000Y-122025000D01*
X156100000Y-122375000D02*
X156100000Y-127625000D01*
X166150000Y-134850000D02*
X166150000Y-125570000D01*
X162605000Y-122025000D02*
X156250000Y-122025000D01*
X162000000Y-139000000D02*
X166150000Y-134850000D01*
X166150000Y-125570000D02*
X165000000Y-124420000D01*
%TO.N,/MOSI*%
X163610000Y-128110000D02*
X163610000Y-130390000D01*
X158240000Y-135760000D02*
X158240000Y-136460000D01*
X162460000Y-126960000D02*
X163610000Y-128110000D01*
X163610000Y-130390000D02*
X158240000Y-135760000D01*
%TO.N,Net-(J2-Pin_3)*%
X145750000Y-90460000D02*
X147181000Y-91891000D01*
X147181000Y-91891000D02*
X157089000Y-91891000D01*
X157089000Y-91891000D02*
X158240000Y-90740000D01*
%TO.N,+3.3V*%
X148500000Y-79000000D02*
X150500000Y-79000000D01*
X151250000Y-78250000D02*
X151250000Y-76700000D01*
X146175000Y-70998000D02*
X146825000Y-71648000D01*
X147475000Y-70998000D02*
X146825000Y-71648000D01*
X146825000Y-72275000D02*
X151250000Y-76700000D01*
X146825000Y-72025000D02*
X146825000Y-72275000D01*
X146175000Y-69975000D02*
X146175000Y-70998000D01*
X147475000Y-69975000D02*
X147475000Y-70998000D01*
X150500000Y-79000000D02*
X151250000Y-78250000D01*
X146825000Y-71648000D02*
X146825000Y-72025000D01*
%TO.N,Net-(J2-Pin_4)*%
X146000000Y-73000000D02*
X146000000Y-79274999D01*
X146000000Y-79274999D02*
X147725001Y-81000000D01*
X145525000Y-72525000D02*
X146000000Y-73000000D01*
X147725001Y-81000000D02*
X148500000Y-81000000D01*
X151040000Y-81000000D02*
X148500000Y-81000000D01*
X145525000Y-72025000D02*
X145525000Y-72525000D01*
X158240000Y-88200000D02*
X151040000Y-81000000D01*
%TO.N,Net-(Q1-B)*%
X147700000Y-98862500D02*
X145837500Y-97000000D01*
X147700000Y-100375000D02*
X147700000Y-98862500D01*
%TO.N,Net-(J2-Pin_1)*%
X148570000Y-90740000D02*
X145750000Y-87920000D01*
X155700000Y-90740000D02*
X148570000Y-90740000D01*
X145750000Y-88250000D02*
X145750000Y-87920000D01*
%TO.N,Net-(J2-Pin_6)*%
X146175000Y-72025000D02*
X146175000Y-72607900D01*
X146500000Y-72932900D02*
X146500000Y-78500000D01*
X148000000Y-80000000D02*
X148500000Y-80000000D01*
X150714240Y-80000000D02*
X148500000Y-80000000D01*
X146500000Y-78500000D02*
X148000000Y-80000000D01*
X146175000Y-72607900D02*
X146500000Y-72932900D01*
X159629000Y-87049000D02*
X157763240Y-87049000D01*
X160780000Y-88200000D02*
X159629000Y-87049000D01*
X157763240Y-87049000D02*
X150714240Y-80000000D01*
%TO.N,Net-(J2-Pin_8)*%
X162000000Y-89520000D02*
X163320000Y-88200000D01*
X162000000Y-92500000D02*
X162000000Y-89520000D01*
X157500000Y-97000000D02*
X162000000Y-92500000D01*
X147662500Y-97000000D02*
X157500000Y-97000000D01*
%TD*%
%TA.AperFunction,Conductor*%
%TO.N,GND*%
G36*
X166692539Y-68270185D02*
G01*
X166738294Y-68322989D01*
X166749500Y-68374500D01*
X166749500Y-125020902D01*
X166729815Y-125087941D01*
X166677011Y-125133696D01*
X166607853Y-125143640D01*
X166544297Y-125114615D01*
X166537819Y-125108583D01*
X166333757Y-124904522D01*
X166300272Y-124843199D01*
X166303507Y-124778523D01*
X166317246Y-124736243D01*
X166350500Y-124526287D01*
X166350500Y-124313713D01*
X166317246Y-124103757D01*
X166251557Y-123901588D01*
X166155051Y-123712184D01*
X166155049Y-123712181D01*
X166155048Y-123712179D01*
X166030109Y-123540213D01*
X165879786Y-123389890D01*
X165707820Y-123264951D01*
X165518414Y-123168444D01*
X165518413Y-123168443D01*
X165518412Y-123168443D01*
X165316243Y-123102754D01*
X165316241Y-123102753D01*
X165316240Y-123102753D01*
X165154957Y-123077208D01*
X165106287Y-123069500D01*
X164893713Y-123069500D01*
X164865006Y-123074046D01*
X164683757Y-123102753D01*
X164641473Y-123116492D01*
X164571632Y-123118486D01*
X164515476Y-123086241D01*
X163092590Y-121663355D01*
X163092588Y-121663352D01*
X162973717Y-121544481D01*
X162973716Y-121544480D01*
X162886904Y-121494360D01*
X162886904Y-121494359D01*
X162886900Y-121494358D01*
X162836785Y-121465423D01*
X162684057Y-121424499D01*
X162525943Y-121424499D01*
X162518347Y-121424499D01*
X162518331Y-121424500D01*
X157036868Y-121424500D01*
X156969829Y-121404815D01*
X156948653Y-121385616D01*
X156947819Y-121386451D01*
X156818657Y-121257289D01*
X156818656Y-121257288D01*
X156669334Y-121165186D01*
X156502797Y-121110001D01*
X156502795Y-121110000D01*
X156400010Y-121099500D01*
X155799998Y-121099500D01*
X155799980Y-121099501D01*
X155697203Y-121110000D01*
X155697200Y-121110001D01*
X155530668Y-121165185D01*
X155530663Y-121165187D01*
X155381342Y-121257289D01*
X155257289Y-121381342D01*
X155165187Y-121530663D01*
X155165185Y-121530668D01*
X155165115Y-121530880D01*
X155110001Y-121697203D01*
X155110001Y-121697204D01*
X155110000Y-121697204D01*
X155099500Y-121799983D01*
X155099500Y-122950001D01*
X155099501Y-122950018D01*
X155110000Y-123052796D01*
X155110001Y-123052799D01*
X155148475Y-123168903D01*
X155165186Y-123219334D01*
X155257288Y-123368656D01*
X155381344Y-123492712D01*
X155440596Y-123529258D01*
X155487321Y-123581204D01*
X155499500Y-123634797D01*
X155499500Y-126365201D01*
X155479815Y-126432240D01*
X155440598Y-126470739D01*
X155381344Y-126507287D01*
X155257289Y-126631342D01*
X155165187Y-126780663D01*
X155165185Y-126780668D01*
X155165115Y-126780880D01*
X155110001Y-126947203D01*
X155110001Y-126947204D01*
X155110000Y-126947204D01*
X155099500Y-127049983D01*
X155099500Y-128200001D01*
X155099501Y-128200018D01*
X155110000Y-128302796D01*
X155110001Y-128302799D01*
X155165185Y-128469331D01*
X155165187Y-128469336D01*
X155200069Y-128525888D01*
X155257288Y-128618656D01*
X155381344Y-128742712D01*
X155530666Y-128834814D01*
X155697203Y-128889999D01*
X155799991Y-128900500D01*
X156400008Y-128900499D01*
X156400016Y-128900498D01*
X156400019Y-128900498D01*
X156456302Y-128894748D01*
X156502797Y-128889999D01*
X156669334Y-128834814D01*
X156818656Y-128742712D01*
X156942712Y-128618656D01*
X157034814Y-128469334D01*
X157089999Y-128302797D01*
X157100500Y-128200009D01*
X157100499Y-127049992D01*
X157089999Y-126947203D01*
X157034814Y-126780666D01*
X156942712Y-126631344D01*
X156818656Y-126507288D01*
X156818655Y-126507287D01*
X156759402Y-126470739D01*
X156712678Y-126418791D01*
X156700500Y-126365201D01*
X156700500Y-123634797D01*
X156720185Y-123567758D01*
X156759403Y-123529258D01*
X156818656Y-123492712D01*
X156942712Y-123368656D01*
X157034814Y-123219334D01*
X157089999Y-123052797D01*
X157100500Y-122950009D01*
X157100500Y-122749500D01*
X157120185Y-122682461D01*
X157172989Y-122636706D01*
X157224500Y-122625500D01*
X162304903Y-122625500D01*
X162371942Y-122645185D01*
X162392584Y-122661819D01*
X162676381Y-122945616D01*
X162709866Y-123006939D01*
X162707816Y-123035603D01*
X162710000Y-123035603D01*
X162710000Y-123986988D01*
X162652993Y-123954075D01*
X162525826Y-123920000D01*
X162394174Y-123920000D01*
X162267007Y-123954075D01*
X162210000Y-123986988D01*
X162210000Y-123092768D01*
X162209999Y-123092768D01*
X162143875Y-123103241D01*
X161941784Y-123168903D01*
X161752442Y-123265379D01*
X161580540Y-123390272D01*
X161580535Y-123390276D01*
X161430276Y-123540535D01*
X161430272Y-123540540D01*
X161305379Y-123712442D01*
X161208904Y-123901782D01*
X161143242Y-124103870D01*
X161143242Y-124103873D01*
X161132769Y-124170000D01*
X162026988Y-124170000D01*
X161994075Y-124227007D01*
X161960000Y-124354174D01*
X161960000Y-124485826D01*
X161994075Y-124612993D01*
X162026988Y-124670000D01*
X161132769Y-124670000D01*
X161143242Y-124736126D01*
X161143242Y-124736129D01*
X161208904Y-124938217D01*
X161305379Y-125127557D01*
X161430272Y-125299459D01*
X161430276Y-125299464D01*
X161580535Y-125449723D01*
X161580540Y-125449727D01*
X161752444Y-125574622D01*
X161761495Y-125579234D01*
X161812292Y-125627208D01*
X161829087Y-125695029D01*
X161806550Y-125761164D01*
X161761499Y-125800202D01*
X161752182Y-125804949D01*
X161580213Y-125929890D01*
X161429890Y-126080213D01*
X161304951Y-126252179D01*
X161208444Y-126441585D01*
X161142753Y-126643760D01*
X161121069Y-126780668D01*
X161109500Y-126853713D01*
X161109500Y-127066287D01*
X161142754Y-127276243D01*
X161174842Y-127375000D01*
X161208444Y-127478414D01*
X161304951Y-127667820D01*
X161429890Y-127839786D01*
X161580213Y-127990109D01*
X161752182Y-128115050D01*
X161760946Y-128119516D01*
X161811742Y-128167491D01*
X161828536Y-128235312D01*
X161805998Y-128301447D01*
X161760946Y-128340484D01*
X161752182Y-128344949D01*
X161580213Y-128469890D01*
X161429890Y-128620213D01*
X161304951Y-128792179D01*
X161208444Y-128981585D01*
X161142753Y-129183760D01*
X161109500Y-129393713D01*
X161109500Y-129606287D01*
X161109499Y-129606287D01*
X161114948Y-129640686D01*
X161105993Y-129709979D01*
X161080156Y-129747764D01*
X159549682Y-131278238D01*
X159488359Y-131311723D01*
X159422997Y-131308263D01*
X159352798Y-131285001D01*
X159250010Y-131274500D01*
X158649998Y-131274500D01*
X158649980Y-131274501D01*
X158547203Y-131285000D01*
X158547200Y-131285001D01*
X158380668Y-131340185D01*
X158380663Y-131340187D01*
X158231342Y-131432289D01*
X158107288Y-131556343D01*
X158107283Y-131556349D01*
X158105241Y-131559661D01*
X158103247Y-131561453D01*
X158102807Y-131562011D01*
X158102711Y-131561935D01*
X158053291Y-131606383D01*
X157984328Y-131617602D01*
X157920247Y-131589755D01*
X157894168Y-131559656D01*
X157892319Y-131556659D01*
X157892316Y-131556655D01*
X157768345Y-131432684D01*
X157619124Y-131340643D01*
X157619119Y-131340641D01*
X157452697Y-131285494D01*
X157452690Y-131285493D01*
X157349986Y-131275000D01*
X157300000Y-131275000D01*
X157300000Y-133676558D01*
X157280315Y-133743597D01*
X157263681Y-133764239D01*
X155947764Y-135080156D01*
X155886441Y-135113641D01*
X155840686Y-135114948D01*
X155806287Y-135109500D01*
X155593713Y-135109500D01*
X155567568Y-135113641D01*
X155383760Y-135142753D01*
X155181585Y-135208444D01*
X154992179Y-135304951D01*
X154820213Y-135429890D01*
X154669890Y-135580213D01*
X154544951Y-135752179D01*
X154448444Y-135941585D01*
X154382753Y-136143760D01*
X154349500Y-136353713D01*
X154349500Y-136566286D01*
X154382753Y-136776239D01*
X154448444Y-136978414D01*
X154544951Y-137167820D01*
X154669890Y-137339786D01*
X154783430Y-137453326D01*
X154816915Y-137514649D01*
X154811931Y-137584341D01*
X154770059Y-137640274D01*
X154739083Y-137657189D01*
X154607669Y-137706203D01*
X154607664Y-137706206D01*
X154492455Y-137792452D01*
X154492452Y-137792455D01*
X154406206Y-137907664D01*
X154406202Y-137907671D01*
X154355908Y-138042517D01*
X154349501Y-138102116D01*
X154349500Y-138102135D01*
X154349500Y-139897870D01*
X154349501Y-139897876D01*
X154355908Y-139957483D01*
X154406202Y-140092328D01*
X154406206Y-140092335D01*
X154492452Y-140207544D01*
X154492455Y-140207547D01*
X154607664Y-140293793D01*
X154607671Y-140293797D01*
X154742517Y-140344091D01*
X154742516Y-140344091D01*
X154749444Y-140344835D01*
X154802127Y-140350500D01*
X156597872Y-140350499D01*
X156657483Y-140344091D01*
X156792331Y-140293796D01*
X156907546Y-140207546D01*
X156993796Y-140092331D01*
X157042810Y-139960916D01*
X157084681Y-139904984D01*
X157150145Y-139880566D01*
X157218418Y-139895417D01*
X157246673Y-139916569D01*
X157360213Y-140030109D01*
X157532179Y-140155048D01*
X157532181Y-140155049D01*
X157532184Y-140155051D01*
X157721588Y-140251557D01*
X157923757Y-140317246D01*
X158133713Y-140350500D01*
X158133714Y-140350500D01*
X158346286Y-140350500D01*
X158346287Y-140350500D01*
X158556243Y-140317246D01*
X158758412Y-140251557D01*
X158947816Y-140155051D01*
X159034138Y-140092335D01*
X159119786Y-140030109D01*
X159119788Y-140030106D01*
X159119792Y-140030104D01*
X159270104Y-139879792D01*
X159270106Y-139879788D01*
X159270109Y-139879786D01*
X159395048Y-139707820D01*
X159395047Y-139707820D01*
X159395051Y-139707816D01*
X159399514Y-139699054D01*
X159447488Y-139648259D01*
X159515308Y-139631463D01*
X159581444Y-139653999D01*
X159620486Y-139699056D01*
X159624951Y-139707820D01*
X159749890Y-139879786D01*
X159900213Y-140030109D01*
X160072179Y-140155048D01*
X160072181Y-140155049D01*
X160072184Y-140155051D01*
X160261588Y-140251557D01*
X160463757Y-140317246D01*
X160673713Y-140350500D01*
X160673714Y-140350500D01*
X160886286Y-140350500D01*
X160886287Y-140350500D01*
X161096243Y-140317246D01*
X161298412Y-140251557D01*
X161487816Y-140155051D01*
X161574138Y-140092335D01*
X161659786Y-140030109D01*
X161659788Y-140030106D01*
X161659792Y-140030104D01*
X161810104Y-139879792D01*
X161810106Y-139879788D01*
X161810109Y-139879786D01*
X161935048Y-139707820D01*
X161935047Y-139707820D01*
X161935051Y-139707816D01*
X161955233Y-139668205D01*
X162003207Y-139617410D01*
X162065718Y-139600501D01*
X162079054Y-139600501D01*
X162079057Y-139600501D01*
X162231785Y-139559577D01*
X162281904Y-139530639D01*
X162368716Y-139480520D01*
X162480520Y-139368716D01*
X162480520Y-139368714D01*
X162490728Y-139358507D01*
X162490730Y-139358504D01*
X166518713Y-135330521D01*
X166518716Y-135330520D01*
X166537825Y-135311410D01*
X166580021Y-135288372D01*
X166599142Y-135277932D01*
X166599144Y-135277932D01*
X166599148Y-135277930D01*
X166641470Y-135280959D01*
X166668834Y-135282916D01*
X166668836Y-135282917D01*
X166668840Y-135282918D01*
X166695012Y-135302513D01*
X166724767Y-135324788D01*
X166724768Y-135324790D01*
X166724771Y-135324793D01*
X166740224Y-135366232D01*
X166749184Y-135390252D01*
X166749184Y-135390255D01*
X166749185Y-135390258D01*
X166749184Y-135390261D01*
X166749500Y-135399098D01*
X166749500Y-140625500D01*
X166729815Y-140692539D01*
X166677011Y-140738294D01*
X166625500Y-140749500D01*
X152474352Y-140749500D01*
X152407313Y-140729815D01*
X152361558Y-140677011D01*
X152354897Y-140658766D01*
X152269051Y-140350500D01*
X150229035Y-133024986D01*
X156050001Y-133024986D01*
X156060494Y-133127697D01*
X156115641Y-133294119D01*
X156115643Y-133294124D01*
X156207684Y-133443345D01*
X156331654Y-133567315D01*
X156480875Y-133659356D01*
X156480880Y-133659358D01*
X156647302Y-133714505D01*
X156647309Y-133714506D01*
X156750019Y-133724999D01*
X156799999Y-133724998D01*
X156800000Y-133724998D01*
X156800000Y-132750000D01*
X156050001Y-132750000D01*
X156050001Y-133024986D01*
X150229035Y-133024986D01*
X149936637Y-131975013D01*
X156050000Y-131975013D01*
X156050000Y-132250000D01*
X156800000Y-132250000D01*
X156800000Y-131275000D01*
X156799999Y-131274999D01*
X156750029Y-131275000D01*
X156750011Y-131275001D01*
X156647302Y-131285494D01*
X156480880Y-131340641D01*
X156480875Y-131340643D01*
X156331654Y-131432684D01*
X156207684Y-131556654D01*
X156115643Y-131705875D01*
X156115641Y-131705880D01*
X156060494Y-131872302D01*
X156060493Y-131872309D01*
X156050000Y-131975013D01*
X149936637Y-131975013D01*
X148885363Y-128199986D01*
X151900001Y-128199986D01*
X151910494Y-128302697D01*
X151965641Y-128469119D01*
X151965643Y-128469124D01*
X152057684Y-128618345D01*
X152181654Y-128742315D01*
X152330875Y-128834356D01*
X152330880Y-128834358D01*
X152497302Y-128889505D01*
X152497309Y-128889506D01*
X152600019Y-128899999D01*
X153150000Y-128899999D01*
X153199972Y-128899999D01*
X153199986Y-128899998D01*
X153302697Y-128889505D01*
X153469119Y-128834358D01*
X153469124Y-128834356D01*
X153618345Y-128742315D01*
X153742315Y-128618345D01*
X153834356Y-128469124D01*
X153834358Y-128469119D01*
X153889505Y-128302697D01*
X153889506Y-128302690D01*
X153899999Y-128199986D01*
X153900000Y-128199973D01*
X153900000Y-127875000D01*
X153150000Y-127875000D01*
X153150000Y-128899999D01*
X152600019Y-128899999D01*
X152649999Y-128899998D01*
X152650000Y-128899998D01*
X152650000Y-127875000D01*
X151900001Y-127875000D01*
X151900001Y-128199986D01*
X148885363Y-128199986D01*
X148565117Y-127050013D01*
X151900000Y-127050013D01*
X151900000Y-127375000D01*
X152650000Y-127375000D01*
X153150000Y-127375000D01*
X153899999Y-127375000D01*
X153899999Y-127050028D01*
X153899998Y-127050013D01*
X153889505Y-126947302D01*
X153834358Y-126780880D01*
X153834356Y-126780875D01*
X153742315Y-126631654D01*
X153618345Y-126507684D01*
X153469124Y-126415643D01*
X153469119Y-126415641D01*
X153302697Y-126360494D01*
X153302690Y-126360493D01*
X153199986Y-126350000D01*
X153150000Y-126350000D01*
X153150000Y-127375000D01*
X152650000Y-127375000D01*
X152650000Y-126350000D01*
X152649999Y-126349999D01*
X152600029Y-126350000D01*
X152600011Y-126350001D01*
X152497302Y-126360494D01*
X152330880Y-126415641D01*
X152330875Y-126415643D01*
X152181654Y-126507684D01*
X152057684Y-126631654D01*
X151965643Y-126780875D01*
X151965641Y-126780880D01*
X151910494Y-126947302D01*
X151910493Y-126947309D01*
X151900000Y-127050013D01*
X148565117Y-127050013D01*
X147423338Y-122949986D01*
X151900001Y-122949986D01*
X151910494Y-123052697D01*
X151965641Y-123219119D01*
X151965643Y-123219124D01*
X152057684Y-123368345D01*
X152181654Y-123492315D01*
X152330875Y-123584356D01*
X152330880Y-123584358D01*
X152497302Y-123639505D01*
X152497309Y-123639506D01*
X152600019Y-123649999D01*
X153150000Y-123649999D01*
X153199972Y-123649999D01*
X153199986Y-123649998D01*
X153302697Y-123639505D01*
X153469119Y-123584358D01*
X153469124Y-123584356D01*
X153618345Y-123492315D01*
X153742315Y-123368345D01*
X153834356Y-123219124D01*
X153834358Y-123219119D01*
X153889505Y-123052697D01*
X153889506Y-123052690D01*
X153899999Y-122949986D01*
X153900000Y-122949973D01*
X153900000Y-122625000D01*
X153150000Y-122625000D01*
X153150000Y-123649999D01*
X152600019Y-123649999D01*
X152649999Y-123649998D01*
X152650000Y-123649998D01*
X152650000Y-122625000D01*
X151900001Y-122625000D01*
X151900001Y-122949986D01*
X147423338Y-122949986D01*
X147103092Y-121800013D01*
X151900000Y-121800013D01*
X151900000Y-122125000D01*
X152650000Y-122125000D01*
X153150000Y-122125000D01*
X153899999Y-122125000D01*
X153899999Y-121800028D01*
X153899998Y-121800013D01*
X153889505Y-121697302D01*
X153834358Y-121530880D01*
X153834356Y-121530875D01*
X153742315Y-121381654D01*
X153618345Y-121257684D01*
X153469124Y-121165643D01*
X153469119Y-121165641D01*
X153302697Y-121110494D01*
X153302690Y-121110493D01*
X153199986Y-121100000D01*
X153150000Y-121100000D01*
X153150000Y-122125000D01*
X152650000Y-122125000D01*
X152650000Y-121100000D01*
X152649999Y-121099999D01*
X152600029Y-121100000D01*
X152600011Y-121100001D01*
X152497302Y-121110494D01*
X152330880Y-121165641D01*
X152330875Y-121165643D01*
X152181654Y-121257684D01*
X152057684Y-121381654D01*
X151965643Y-121530875D01*
X151965641Y-121530880D01*
X151910494Y-121697302D01*
X151910493Y-121697309D01*
X151900000Y-121800013D01*
X147103092Y-121800013D01*
X146982819Y-121368122D01*
X146966392Y-121306814D01*
X146965145Y-121304656D01*
X146964478Y-121302258D01*
X146964476Y-121302256D01*
X146964476Y-121302253D01*
X146932458Y-121248030D01*
X146931923Y-121247112D01*
X146900504Y-121192692D01*
X146900501Y-121192689D01*
X146900500Y-121192686D01*
X146900497Y-121192683D01*
X146898611Y-121190226D01*
X146898589Y-121190198D01*
X146897585Y-121188889D01*
X146852560Y-121144738D01*
X146852147Y-121144333D01*
X146807314Y-121099500D01*
X146805155Y-121098253D01*
X146803375Y-121096508D01*
X146748669Y-121065634D01*
X146747627Y-121065039D01*
X146693182Y-121033605D01*
X146690314Y-121032417D01*
X146688780Y-121031781D01*
X146627703Y-121016056D01*
X146627703Y-121016055D01*
X146627037Y-121015883D01*
X146565892Y-120999500D01*
X146563402Y-120999500D01*
X146560982Y-120998877D01*
X146498155Y-120999494D01*
X146496939Y-120999500D01*
X143374500Y-120999500D01*
X143307461Y-120979815D01*
X143261706Y-120927011D01*
X143250500Y-120875500D01*
X143250500Y-108259985D01*
X143899500Y-108259985D01*
X143899500Y-118660001D01*
X143899501Y-118660018D01*
X143910000Y-118762796D01*
X143910001Y-118762799D01*
X143965185Y-118929331D01*
X143965186Y-118929334D01*
X144057288Y-119078656D01*
X144181344Y-119202712D01*
X144330666Y-119294814D01*
X144497203Y-119349999D01*
X144599991Y-119360500D01*
X144599991Y-119360499D01*
X144599992Y-119360499D01*
X144599993Y-119360500D01*
X144599995Y-119360499D01*
X144606271Y-119361141D01*
X144606272Y-119361141D01*
X144606280Y-119361142D01*
X144613432Y-119361873D01*
X144621384Y-119360499D01*
X149449985Y-119360499D01*
X149449991Y-119360500D01*
X153600008Y-119360499D01*
X153702797Y-119349999D01*
X153869334Y-119294814D01*
X154018656Y-119202712D01*
X154142712Y-119078656D01*
X154234814Y-118929334D01*
X154289999Y-118762797D01*
X154300500Y-118660009D01*
X154300500Y-118660006D01*
X154300500Y-116349986D01*
X155450001Y-116349986D01*
X155460494Y-116452697D01*
X155515641Y-116619119D01*
X155515643Y-116619124D01*
X155607684Y-116768345D01*
X155731654Y-116892315D01*
X155880875Y-116984356D01*
X155880880Y-116984358D01*
X156047302Y-117039505D01*
X156047309Y-117039506D01*
X156150019Y-117049999D01*
X157999999Y-117049999D01*
X158500000Y-117049999D01*
X160349972Y-117049999D01*
X160349986Y-117049998D01*
X160452697Y-117039505D01*
X160619119Y-116984358D01*
X160619124Y-116984356D01*
X160768345Y-116892315D01*
X160892315Y-116768345D01*
X160984356Y-116619124D01*
X160984358Y-116619119D01*
X161039505Y-116452697D01*
X161039506Y-116452690D01*
X161049999Y-116349986D01*
X161050000Y-116349973D01*
X161050000Y-116250000D01*
X158500000Y-116250000D01*
X158500000Y-117049999D01*
X157999999Y-117049999D01*
X158000000Y-117049998D01*
X158000000Y-116250000D01*
X155450001Y-116250000D01*
X155450001Y-116349986D01*
X154300500Y-116349986D01*
X154300500Y-115650013D01*
X155450000Y-115650013D01*
X155450000Y-115750000D01*
X158000000Y-115750000D01*
X158500000Y-115750000D01*
X161049999Y-115750000D01*
X161049999Y-115749986D01*
X161525001Y-115749986D01*
X161535494Y-115852697D01*
X161590641Y-116019119D01*
X161590643Y-116019124D01*
X161682684Y-116168345D01*
X161806654Y-116292315D01*
X161955875Y-116384356D01*
X161955880Y-116384358D01*
X162122302Y-116439505D01*
X162122309Y-116439506D01*
X162225019Y-116449999D01*
X162499999Y-116449999D01*
X163000000Y-116449999D01*
X163274972Y-116449999D01*
X163274986Y-116449998D01*
X163377697Y-116439505D01*
X163544119Y-116384358D01*
X163544124Y-116384356D01*
X163693345Y-116292315D01*
X163817315Y-116168345D01*
X163894461Y-116043273D01*
X163946409Y-115996549D01*
X164015372Y-115985326D01*
X164079454Y-116013170D01*
X164105539Y-116043273D01*
X164182684Y-116168345D01*
X164306654Y-116292315D01*
X164455875Y-116384356D01*
X164455880Y-116384358D01*
X164622302Y-116439505D01*
X164622309Y-116439506D01*
X164725019Y-116449999D01*
X164999999Y-116449999D01*
X165500000Y-116449999D01*
X165774972Y-116449999D01*
X165774986Y-116449998D01*
X165877697Y-116439505D01*
X166044119Y-116384358D01*
X166044124Y-116384356D01*
X166193345Y-116292315D01*
X166317315Y-116168345D01*
X166409356Y-116019124D01*
X166409358Y-116019119D01*
X166464505Y-115852697D01*
X166464506Y-115852690D01*
X166474999Y-115749986D01*
X166475000Y-115749973D01*
X166475000Y-115700000D01*
X165500000Y-115700000D01*
X165500000Y-116449999D01*
X164999999Y-116449999D01*
X165000000Y-116449998D01*
X165000000Y-115700000D01*
X163000000Y-115700000D01*
X163000000Y-116449999D01*
X162499999Y-116449999D01*
X162500000Y-116449998D01*
X162500000Y-115700000D01*
X161525001Y-115700000D01*
X161525001Y-115749986D01*
X161049999Y-115749986D01*
X161049999Y-115650028D01*
X161049998Y-115650013D01*
X161039505Y-115547302D01*
X160984358Y-115380880D01*
X160984356Y-115380875D01*
X160892315Y-115231654D01*
X160768345Y-115107684D01*
X160619124Y-115015643D01*
X160619119Y-115015641D01*
X160452697Y-114960494D01*
X160452690Y-114960493D01*
X160349986Y-114950000D01*
X158500000Y-114950000D01*
X158500000Y-115750000D01*
X158000000Y-115750000D01*
X158000000Y-114950000D01*
X156150028Y-114950000D01*
X156150012Y-114950001D01*
X156047302Y-114960494D01*
X155880880Y-115015641D01*
X155880875Y-115015643D01*
X155731654Y-115107684D01*
X155607684Y-115231654D01*
X155515643Y-115380875D01*
X155515641Y-115380880D01*
X155460494Y-115547302D01*
X155460493Y-115547309D01*
X155450000Y-115650013D01*
X154300500Y-115650013D01*
X154300500Y-114384500D01*
X154320185Y-114317461D01*
X154372989Y-114271706D01*
X154424500Y-114260500D01*
X155587770Y-114260500D01*
X155654809Y-114280185D01*
X155675451Y-114296819D01*
X155731344Y-114352712D01*
X155880666Y-114444814D01*
X156047203Y-114499999D01*
X156149991Y-114510500D01*
X160350008Y-114510499D01*
X160452797Y-114499999D01*
X160619334Y-114444814D01*
X160768656Y-114352712D01*
X160824549Y-114296819D01*
X160885872Y-114263334D01*
X160912230Y-114260500D01*
X161622770Y-114260500D01*
X161650765Y-114268720D01*
X161679432Y-114274203D01*
X161686171Y-114279116D01*
X161689809Y-114280185D01*
X161708211Y-114294635D01*
X161709348Y-114295716D01*
X161806344Y-114392712D01*
X161820642Y-114401531D01*
X161830000Y-114410428D01*
X161841300Y-114429936D01*
X161856379Y-114446699D01*
X161858476Y-114459586D01*
X161865022Y-114470886D01*
X161863981Y-114493408D01*
X161867603Y-114515661D01*
X161862399Y-114527637D01*
X161861797Y-114540682D01*
X161848744Y-114559067D01*
X161839761Y-114579744D01*
X161824956Y-114592573D01*
X161821350Y-114597654D01*
X161817143Y-114599345D01*
X161809665Y-114605826D01*
X161806660Y-114607679D01*
X161806655Y-114607683D01*
X161682684Y-114731654D01*
X161590643Y-114880875D01*
X161590641Y-114880880D01*
X161535494Y-115047302D01*
X161535493Y-115047309D01*
X161525000Y-115150013D01*
X161525000Y-115200000D01*
X166474999Y-115200000D01*
X166474999Y-115150028D01*
X166474998Y-115150013D01*
X166464505Y-115047302D01*
X166409358Y-114880880D01*
X166409356Y-114880875D01*
X166317315Y-114731654D01*
X166193344Y-114607683D01*
X166193341Y-114607681D01*
X166190339Y-114605829D01*
X166188713Y-114604021D01*
X166187677Y-114603202D01*
X166187817Y-114603024D01*
X166143617Y-114553880D01*
X166132397Y-114484917D01*
X166160243Y-114420836D01*
X166190344Y-114394754D01*
X166193656Y-114392712D01*
X166317712Y-114268656D01*
X166409814Y-114119334D01*
X166464999Y-113952797D01*
X166475500Y-113850009D01*
X166475499Y-113249992D01*
X166464999Y-113147203D01*
X166409814Y-112980666D01*
X166317712Y-112831344D01*
X166193656Y-112707288D01*
X166193652Y-112707285D01*
X166109403Y-112655319D01*
X166102580Y-112647733D01*
X166093297Y-112643494D01*
X166079608Y-112622193D01*
X166062678Y-112603371D01*
X166060033Y-112591734D01*
X166055523Y-112584716D01*
X166050500Y-112549781D01*
X166050500Y-112382940D01*
X166070185Y-112315901D01*
X166086819Y-112295259D01*
X166121788Y-112260290D01*
X166121790Y-112260287D01*
X166209390Y-112129185D01*
X166209390Y-112129184D01*
X166209394Y-112129179D01*
X166269737Y-111983497D01*
X166272323Y-111970499D01*
X166282138Y-111921158D01*
X166300499Y-111828847D01*
X166300500Y-111828844D01*
X166300500Y-111671155D01*
X166300499Y-111671153D01*
X166292193Y-111629397D01*
X166269737Y-111516503D01*
X166234026Y-111430289D01*
X166212455Y-111378212D01*
X166209397Y-111370828D01*
X166209396Y-111370827D01*
X166209394Y-111370821D01*
X166209390Y-111370815D01*
X166121789Y-111239710D01*
X166010291Y-111128212D01*
X166010288Y-111128210D01*
X165879185Y-111040609D01*
X165879172Y-111040602D01*
X165733501Y-110980264D01*
X165733489Y-110980261D01*
X165578845Y-110949500D01*
X165578842Y-110949500D01*
X165421157Y-110949500D01*
X165421154Y-110949500D01*
X165266509Y-110980261D01*
X165266497Y-110980264D01*
X165223832Y-110997936D01*
X165223833Y-110997937D01*
X165120823Y-111040604D01*
X165120814Y-111040609D01*
X164989712Y-111128209D01*
X164989711Y-111128211D01*
X164989710Y-111128212D01*
X164739711Y-111378211D01*
X164687634Y-111430288D01*
X164628209Y-111489712D01*
X164540609Y-111620814D01*
X164540602Y-111620827D01*
X164480264Y-111766498D01*
X164480261Y-111766510D01*
X164449500Y-111921153D01*
X164449500Y-112549781D01*
X164447305Y-112557253D01*
X164448570Y-112564937D01*
X164437600Y-112590306D01*
X164429815Y-112616820D01*
X164423230Y-112623539D01*
X164420840Y-112629068D01*
X164400583Y-112646650D01*
X164394640Y-112652716D01*
X164392621Y-112654071D01*
X164306344Y-112707288D01*
X164291921Y-112721710D01*
X164281910Y-112728435D01*
X164259631Y-112735470D01*
X164239128Y-112746666D01*
X164216460Y-112749103D01*
X164215283Y-112749475D01*
X164214636Y-112749299D01*
X164212770Y-112749500D01*
X163787230Y-112749500D01*
X163720191Y-112729815D01*
X163699549Y-112713181D01*
X163693657Y-112707289D01*
X163693656Y-112707288D01*
X163584264Y-112639815D01*
X163544336Y-112615187D01*
X163544331Y-112615185D01*
X163542862Y-112614698D01*
X163377797Y-112560001D01*
X163377795Y-112560000D01*
X163275010Y-112549500D01*
X162224998Y-112549500D01*
X162224980Y-112549501D01*
X162122203Y-112560000D01*
X162122200Y-112560001D01*
X161955668Y-112615185D01*
X161955659Y-112615189D01*
X161913751Y-112641039D01*
X161848655Y-112659500D01*
X160912230Y-112659500D01*
X160845191Y-112639815D01*
X160824549Y-112623181D01*
X160768657Y-112567289D01*
X160768656Y-112567288D01*
X160619334Y-112475186D01*
X160452797Y-112420001D01*
X160452795Y-112420000D01*
X160350010Y-112409500D01*
X156149998Y-112409500D01*
X156149981Y-112409501D01*
X156047203Y-112420000D01*
X156047200Y-112420001D01*
X155880668Y-112475185D01*
X155880663Y-112475187D01*
X155731342Y-112567289D01*
X155675451Y-112623181D01*
X155614128Y-112656666D01*
X155587770Y-112659500D01*
X154682940Y-112659500D01*
X154615901Y-112639815D01*
X154595259Y-112623181D01*
X154336818Y-112364740D01*
X154303333Y-112303417D01*
X154300499Y-112277059D01*
X154300499Y-110569983D01*
X155449500Y-110569983D01*
X155449500Y-111270001D01*
X155449501Y-111270019D01*
X155460000Y-111372796D01*
X155460001Y-111372799D01*
X155507623Y-111516510D01*
X155515186Y-111539334D01*
X155607288Y-111688656D01*
X155731344Y-111812712D01*
X155880666Y-111904814D01*
X156047203Y-111959999D01*
X156149991Y-111970500D01*
X160350008Y-111970499D01*
X160452797Y-111959999D01*
X160619334Y-111904814D01*
X160768656Y-111812712D01*
X160824549Y-111756819D01*
X160885872Y-111723334D01*
X160912230Y-111720500D01*
X162408844Y-111720500D01*
X162408845Y-111720499D01*
X162563497Y-111689737D01*
X162709179Y-111629394D01*
X162840289Y-111541789D01*
X164246789Y-110135289D01*
X164334394Y-110004179D01*
X164394738Y-109858497D01*
X164425500Y-109703842D01*
X164425500Y-109546157D01*
X164394738Y-109391502D01*
X164334394Y-109245821D01*
X164334392Y-109245818D01*
X164334390Y-109245814D01*
X164246789Y-109114709D01*
X164135290Y-109003210D01*
X164004185Y-108915609D01*
X164004175Y-108915604D01*
X163858498Y-108855262D01*
X163858490Y-108855260D01*
X163703847Y-108824500D01*
X163703843Y-108824500D01*
X163546158Y-108824500D01*
X163546153Y-108824500D01*
X163391510Y-108855260D01*
X163391502Y-108855262D01*
X163245824Y-108915604D01*
X163245814Y-108915609D01*
X163114711Y-109003210D01*
X163114707Y-109003213D01*
X162034741Y-110083181D01*
X161973418Y-110116666D01*
X161947060Y-110119500D01*
X160912230Y-110119500D01*
X160845191Y-110099815D01*
X160824549Y-110083181D01*
X160768657Y-110027289D01*
X160768656Y-110027288D01*
X160619334Y-109935186D01*
X160452797Y-109880001D01*
X160452795Y-109880000D01*
X160350010Y-109869500D01*
X156149998Y-109869500D01*
X156149981Y-109869501D01*
X156047203Y-109880000D01*
X156047200Y-109880001D01*
X155880668Y-109935185D01*
X155880663Y-109935187D01*
X155731342Y-110027289D01*
X155607289Y-110151342D01*
X155515187Y-110300663D01*
X155515186Y-110300666D01*
X155460001Y-110467203D01*
X155460001Y-110467204D01*
X155460000Y-110467204D01*
X155449500Y-110569983D01*
X154300499Y-110569983D01*
X154300499Y-108259998D01*
X154300498Y-108259981D01*
X154289999Y-108157203D01*
X154289998Y-108157200D01*
X154235667Y-107993241D01*
X154234814Y-107990666D01*
X154142712Y-107841344D01*
X154018656Y-107717288D01*
X153869334Y-107625186D01*
X153702797Y-107570001D01*
X153702795Y-107570000D01*
X153600016Y-107559500D01*
X153600009Y-107559500D01*
X153600007Y-107559500D01*
X148750014Y-107559500D01*
X148750009Y-107559500D01*
X144599998Y-107559500D01*
X144599981Y-107559501D01*
X144497203Y-107570000D01*
X144497200Y-107570001D01*
X144330668Y-107625185D01*
X144330663Y-107625187D01*
X144181342Y-107717289D01*
X144057289Y-107841342D01*
X143965061Y-107990868D01*
X143964332Y-107993241D01*
X143910001Y-108157201D01*
X143910000Y-108157205D01*
X143899500Y-108259985D01*
X143250500Y-108259985D01*
X143250500Y-101028149D01*
X145000000Y-101028149D01*
X145002899Y-101064989D01*
X145002900Y-101064995D01*
X145048716Y-101222693D01*
X145048717Y-101222696D01*
X145132314Y-101364052D01*
X145132321Y-101364061D01*
X145248438Y-101480178D01*
X145248447Y-101480185D01*
X145389801Y-101563781D01*
X145547514Y-101609600D01*
X145547511Y-101609600D01*
X145549998Y-101609795D01*
X145550000Y-101609795D01*
X145550000Y-100625000D01*
X145000000Y-100625000D01*
X145000000Y-101028149D01*
X143250500Y-101028149D01*
X143250500Y-99721850D01*
X145000000Y-99721850D01*
X145000000Y-100125000D01*
X145550000Y-100125000D01*
X146050000Y-100125000D01*
X146600000Y-100125000D01*
X146600000Y-99721865D01*
X146599999Y-99721850D01*
X146597100Y-99685010D01*
X146597099Y-99685004D01*
X146551283Y-99527306D01*
X146551282Y-99527303D01*
X146467685Y-99385947D01*
X146467678Y-99385938D01*
X146351561Y-99269821D01*
X146351552Y-99269814D01*
X146210196Y-99186217D01*
X146210193Y-99186216D01*
X146052494Y-99140400D01*
X146052497Y-99140400D01*
X146050000Y-99140203D01*
X146050000Y-100125000D01*
X145550000Y-100125000D01*
X145550000Y-99140203D01*
X145547503Y-99140400D01*
X145389806Y-99186216D01*
X145389803Y-99186217D01*
X145248447Y-99269814D01*
X145248438Y-99269821D01*
X145132321Y-99385938D01*
X145132314Y-99385947D01*
X145048717Y-99527303D01*
X145048716Y-99527306D01*
X145002900Y-99685004D01*
X145002899Y-99685010D01*
X145000000Y-99721850D01*
X143250500Y-99721850D01*
X143250500Y-83286230D01*
X143270185Y-83219191D01*
X143322989Y-83173436D01*
X143392147Y-83163492D01*
X143455703Y-83192517D01*
X143462181Y-83198549D01*
X143506344Y-83242712D01*
X143655666Y-83334814D01*
X143822203Y-83389999D01*
X143924991Y-83400500D01*
X145325008Y-83400499D01*
X145427797Y-83389999D01*
X145594334Y-83334814D01*
X145743656Y-83242712D01*
X145867712Y-83118656D01*
X145959814Y-82969334D01*
X146014999Y-82802797D01*
X146025500Y-82700009D01*
X146025499Y-81899992D01*
X146014999Y-81797203D01*
X145959814Y-81630666D01*
X145867712Y-81481344D01*
X145743656Y-81357288D01*
X145594334Y-81265186D01*
X145427797Y-81210001D01*
X145427795Y-81210000D01*
X145325010Y-81199500D01*
X143924998Y-81199500D01*
X143924981Y-81199501D01*
X143822203Y-81210000D01*
X143822200Y-81210001D01*
X143655668Y-81265185D01*
X143655663Y-81265187D01*
X143506342Y-81357289D01*
X143462181Y-81401451D01*
X143400858Y-81434936D01*
X143331166Y-81429952D01*
X143275233Y-81388080D01*
X143250816Y-81322616D01*
X143250500Y-81313770D01*
X143250500Y-77686230D01*
X143270185Y-77619191D01*
X143322989Y-77573436D01*
X143392147Y-77563492D01*
X143455703Y-77592517D01*
X143462181Y-77598549D01*
X143506344Y-77642712D01*
X143655666Y-77734814D01*
X143822203Y-77789999D01*
X143924991Y-77800500D01*
X145275500Y-77800499D01*
X145342539Y-77820184D01*
X145388294Y-77872987D01*
X145399500Y-77924499D01*
X145399500Y-79188329D01*
X145399499Y-79188347D01*
X145399499Y-79354053D01*
X145399498Y-79354053D01*
X145440423Y-79506784D01*
X145447754Y-79519481D01*
X145447755Y-79519483D01*
X145519477Y-79643711D01*
X145519481Y-79643716D01*
X145638349Y-79762584D01*
X145638355Y-79762589D01*
X147244479Y-81368713D01*
X147244481Y-81368716D01*
X147246697Y-81370932D01*
X147246718Y-81370970D01*
X147269047Y-81403824D01*
X147269285Y-81403684D01*
X147271517Y-81407459D01*
X147272802Y-81409349D01*
X147273256Y-81410400D01*
X147356916Y-81551861D01*
X147356923Y-81551870D01*
X147473129Y-81668076D01*
X147473133Y-81668079D01*
X147473135Y-81668081D01*
X147614602Y-81751744D01*
X147656224Y-81763836D01*
X147772426Y-81797597D01*
X147772429Y-81797597D01*
X147772431Y-81797598D01*
X147809306Y-81800500D01*
X147809314Y-81800500D01*
X149190686Y-81800500D01*
X149190694Y-81800500D01*
X149227569Y-81797598D01*
X149227571Y-81797597D01*
X149227573Y-81797597D01*
X149269191Y-81785505D01*
X149385398Y-81751744D01*
X149526865Y-81668081D01*
X149558126Y-81636820D01*
X149619448Y-81603334D01*
X149645808Y-81600500D01*
X150739903Y-81600500D01*
X150806942Y-81620185D01*
X150827584Y-81636819D01*
X155828583Y-86637819D01*
X155862068Y-86699142D01*
X155857084Y-86768834D01*
X155815212Y-86824767D01*
X155749748Y-86849184D01*
X155740902Y-86849500D01*
X155593713Y-86849500D01*
X155545042Y-86857208D01*
X155383760Y-86882753D01*
X155181585Y-86948444D01*
X154992179Y-87044951D01*
X154820213Y-87169890D01*
X154669890Y-87320213D01*
X154544951Y-87492179D01*
X154448444Y-87681585D01*
X154382753Y-87883760D01*
X154349500Y-88093713D01*
X154349500Y-88306286D01*
X154382753Y-88516239D01*
X154448444Y-88718414D01*
X154544951Y-88907820D01*
X154669890Y-89079786D01*
X154783430Y-89193326D01*
X154816915Y-89254649D01*
X154811931Y-89324341D01*
X154770059Y-89380274D01*
X154739083Y-89397189D01*
X154607669Y-89446203D01*
X154607664Y-89446206D01*
X154492455Y-89532452D01*
X154492452Y-89532455D01*
X154406206Y-89647664D01*
X154406202Y-89647671D01*
X154355908Y-89782517D01*
X154349501Y-89842116D01*
X154349500Y-89842135D01*
X154349500Y-90015500D01*
X154329815Y-90082539D01*
X154277011Y-90128294D01*
X154225500Y-90139500D01*
X148870097Y-90139500D01*
X148803058Y-90119815D01*
X148782416Y-90103181D01*
X147136818Y-88457583D01*
X147103333Y-88396260D01*
X147100499Y-88369902D01*
X147100499Y-87022129D01*
X147100498Y-87022123D01*
X147100497Y-87022116D01*
X147094091Y-86962517D01*
X147069465Y-86896492D01*
X147043797Y-86827671D01*
X147043793Y-86827664D01*
X146957547Y-86712455D01*
X146957544Y-86712452D01*
X146842335Y-86626206D01*
X146842328Y-86626202D01*
X146707482Y-86575908D01*
X146707483Y-86575908D01*
X146647883Y-86569501D01*
X146647881Y-86569500D01*
X146647873Y-86569500D01*
X146647864Y-86569500D01*
X144852129Y-86569500D01*
X144852123Y-86569501D01*
X144792516Y-86575908D01*
X144657671Y-86626202D01*
X144657664Y-86626206D01*
X144542455Y-86712452D01*
X144542452Y-86712455D01*
X144456206Y-86827664D01*
X144456202Y-86827671D01*
X144405908Y-86962517D01*
X144399501Y-87022116D01*
X144399501Y-87022123D01*
X144399500Y-87022135D01*
X144399500Y-88817870D01*
X144399501Y-88817876D01*
X144405908Y-88877483D01*
X144456202Y-89012328D01*
X144456206Y-89012335D01*
X144542452Y-89127544D01*
X144542455Y-89127547D01*
X144657664Y-89213793D01*
X144657671Y-89213797D01*
X144789082Y-89262810D01*
X144845016Y-89304681D01*
X144869433Y-89370145D01*
X144854582Y-89438418D01*
X144833431Y-89466673D01*
X144719889Y-89580215D01*
X144594951Y-89752179D01*
X144498444Y-89941585D01*
X144432753Y-90143760D01*
X144399500Y-90353713D01*
X144399500Y-90566286D01*
X144432753Y-90776239D01*
X144432753Y-90776241D01*
X144432754Y-90776243D01*
X144487431Y-90944522D01*
X144498444Y-90978414D01*
X144594951Y-91167820D01*
X144719890Y-91339786D01*
X144870213Y-91490109D01*
X145042179Y-91615048D01*
X145042181Y-91615049D01*
X145042184Y-91615051D01*
X145051493Y-91619794D01*
X145102290Y-91667766D01*
X145119087Y-91735587D01*
X145096552Y-91801722D01*
X145051502Y-91840762D01*
X145042443Y-91845378D01*
X144870540Y-91970272D01*
X144870535Y-91970276D01*
X144720276Y-92120535D01*
X144720272Y-92120540D01*
X144595379Y-92292442D01*
X144498904Y-92481782D01*
X144433242Y-92683870D01*
X144433242Y-92683873D01*
X144422769Y-92750000D01*
X145316988Y-92750000D01*
X145284075Y-92807007D01*
X145250000Y-92934174D01*
X145250000Y-93065826D01*
X145284075Y-93192993D01*
X145316988Y-93250000D01*
X144422769Y-93250000D01*
X144433242Y-93316126D01*
X144433242Y-93316129D01*
X144498904Y-93518217D01*
X144595379Y-93707557D01*
X144720272Y-93879459D01*
X144720276Y-93879464D01*
X144870535Y-94029723D01*
X144870540Y-94029727D01*
X145042442Y-94154620D01*
X145231782Y-94251095D01*
X145433871Y-94316757D01*
X145500000Y-94327231D01*
X145500000Y-93433012D01*
X145557007Y-93465925D01*
X145684174Y-93500000D01*
X145815826Y-93500000D01*
X145942993Y-93465925D01*
X146000000Y-93433012D01*
X146000000Y-94327230D01*
X146066126Y-94316757D01*
X146066129Y-94316757D01*
X146268217Y-94251095D01*
X146457557Y-94154620D01*
X146629459Y-94029727D01*
X146629464Y-94029723D01*
X146779723Y-93879464D01*
X146779727Y-93879459D01*
X146904620Y-93707557D01*
X147001095Y-93518217D01*
X147066757Y-93316129D01*
X147066757Y-93316126D01*
X147077231Y-93250000D01*
X146183012Y-93250000D01*
X146215925Y-93192993D01*
X146250000Y-93065826D01*
X146250000Y-92934174D01*
X146215925Y-92807007D01*
X146183012Y-92750000D01*
X147077231Y-92750000D01*
X147066757Y-92683873D01*
X147066757Y-92683870D01*
X147056993Y-92653819D01*
X147056189Y-92625700D01*
X147052186Y-92597855D01*
X147055205Y-92591242D01*
X147054998Y-92583977D01*
X147069523Y-92559889D01*
X147081210Y-92534299D01*
X147087326Y-92530368D01*
X147091079Y-92524145D01*
X147116319Y-92511735D01*
X147139988Y-92496524D01*
X147150261Y-92495046D01*
X147153780Y-92493317D01*
X147174923Y-92491501D01*
X147260058Y-92491501D01*
X147260061Y-92491500D01*
X147267669Y-92491500D01*
X157002331Y-92491500D01*
X157002347Y-92491501D01*
X157009943Y-92491501D01*
X157168054Y-92491501D01*
X157168057Y-92491501D01*
X157320785Y-92450577D01*
X157372112Y-92420943D01*
X157457716Y-92371520D01*
X157569520Y-92259716D01*
X157569520Y-92259714D01*
X157579723Y-92249512D01*
X157579727Y-92249506D01*
X157755478Y-92073755D01*
X157816799Y-92040272D01*
X157881473Y-92043506D01*
X157923757Y-92057246D01*
X158133713Y-92090500D01*
X158133714Y-92090500D01*
X158346286Y-92090500D01*
X158346287Y-92090500D01*
X158556243Y-92057246D01*
X158758412Y-91991557D01*
X158947816Y-91895051D01*
X158969789Y-91879086D01*
X159119786Y-91770109D01*
X159119788Y-91770106D01*
X159119792Y-91770104D01*
X159270104Y-91619792D01*
X159270106Y-91619788D01*
X159270109Y-91619786D01*
X159337515Y-91527007D01*
X159395051Y-91447816D01*
X159399793Y-91438508D01*
X159447763Y-91387711D01*
X159515583Y-91370911D01*
X159581719Y-91393445D01*
X159620763Y-91438500D01*
X159625377Y-91447555D01*
X159750272Y-91619459D01*
X159750276Y-91619464D01*
X159900535Y-91769723D01*
X159900540Y-91769727D01*
X160072442Y-91894620D01*
X160261782Y-91991095D01*
X160463871Y-92056757D01*
X160530000Y-92067231D01*
X160530000Y-91173012D01*
X160587007Y-91205925D01*
X160714174Y-91240000D01*
X160845826Y-91240000D01*
X160972993Y-91205925D01*
X161030000Y-91173012D01*
X161030000Y-92067230D01*
X161096126Y-92056757D01*
X161096129Y-92056757D01*
X161237182Y-92010926D01*
X161265301Y-92010122D01*
X161293147Y-92006119D01*
X161299758Y-92009138D01*
X161307023Y-92008931D01*
X161331112Y-92023457D01*
X161356703Y-92035144D01*
X161360632Y-92041257D01*
X161366856Y-92045011D01*
X161379268Y-92070257D01*
X161394477Y-92093922D01*
X161395953Y-92104192D01*
X161397684Y-92107712D01*
X161399500Y-92128857D01*
X161399500Y-92199903D01*
X161379815Y-92266942D01*
X161363181Y-92287584D01*
X157287584Y-96363181D01*
X157226261Y-96396666D01*
X157199903Y-96399500D01*
X148755301Y-96399500D01*
X148688262Y-96379815D01*
X148642507Y-96327011D01*
X148637595Y-96314504D01*
X148609814Y-96230666D01*
X148517712Y-96081344D01*
X148393656Y-95957288D01*
X148244334Y-95865186D01*
X148077797Y-95810001D01*
X148077795Y-95810000D01*
X147975010Y-95799500D01*
X147349998Y-95799500D01*
X147349980Y-95799501D01*
X147247203Y-95810000D01*
X147247200Y-95810001D01*
X147080668Y-95865185D01*
X147080663Y-95865187D01*
X146931342Y-95957289D01*
X146837681Y-96050951D01*
X146776358Y-96084436D01*
X146706666Y-96079452D01*
X146662319Y-96050951D01*
X146568657Y-95957289D01*
X146568656Y-95957288D01*
X146419334Y-95865186D01*
X146252797Y-95810001D01*
X146252795Y-95810000D01*
X146150010Y-95799500D01*
X145524998Y-95799500D01*
X145524980Y-95799501D01*
X145422203Y-95810000D01*
X145422200Y-95810001D01*
X145255668Y-95865185D01*
X145255663Y-95865187D01*
X145106342Y-95957289D01*
X144982289Y-96081342D01*
X144890187Y-96230663D01*
X144890186Y-96230666D01*
X144835001Y-96397203D01*
X144835001Y-96397204D01*
X144835000Y-96397204D01*
X144824500Y-96499983D01*
X144824500Y-97500001D01*
X144824501Y-97500019D01*
X144835000Y-97602796D01*
X144835001Y-97602799D01*
X144890185Y-97769331D01*
X144890186Y-97769334D01*
X144982288Y-97918656D01*
X145106344Y-98042712D01*
X145255666Y-98134814D01*
X145422203Y-98189999D01*
X145524991Y-98200500D01*
X146137401Y-98200499D01*
X146204440Y-98220183D01*
X146225082Y-98236818D01*
X147063181Y-99074916D01*
X147077884Y-99101843D01*
X147094477Y-99127662D01*
X147095368Y-99133862D01*
X147096666Y-99136239D01*
X147099500Y-99162597D01*
X147099500Y-99266691D01*
X147079815Y-99333730D01*
X147063181Y-99354372D01*
X147031923Y-99385629D01*
X147031917Y-99385637D01*
X146948255Y-99527103D01*
X146948254Y-99527106D01*
X146902402Y-99684926D01*
X146902401Y-99684932D01*
X146899500Y-99721798D01*
X146899500Y-100888000D01*
X146896949Y-100896685D01*
X146898238Y-100905647D01*
X146887259Y-100929687D01*
X146879815Y-100955039D01*
X146872974Y-100960966D01*
X146869213Y-100969203D01*
X146846978Y-100983492D01*
X146827011Y-101000794D01*
X146816496Y-101003081D01*
X146810435Y-101006977D01*
X146775500Y-101012000D01*
X146724000Y-101012000D01*
X146656961Y-100992315D01*
X146611206Y-100939511D01*
X146600000Y-100888000D01*
X146600000Y-100625000D01*
X146050000Y-100625000D01*
X146050000Y-101280684D01*
X146032733Y-101343804D01*
X145998254Y-101402105D01*
X145998254Y-101402106D01*
X145952402Y-101559926D01*
X145952401Y-101559932D01*
X145949500Y-101596798D01*
X145949500Y-102903201D01*
X145952401Y-102940067D01*
X145952402Y-102940073D01*
X145998254Y-103097893D01*
X145998255Y-103097896D01*
X146081917Y-103239362D01*
X146081923Y-103239370D01*
X146198129Y-103355576D01*
X146198133Y-103355579D01*
X146198135Y-103355581D01*
X146339602Y-103439244D01*
X146381224Y-103451336D01*
X146497426Y-103485097D01*
X146497429Y-103485097D01*
X146497431Y-103485098D01*
X146534306Y-103488000D01*
X146534314Y-103488000D01*
X146965686Y-103488000D01*
X146965694Y-103488000D01*
X147002569Y-103485098D01*
X147094492Y-103458390D01*
X147161181Y-103457692D01*
X147168214Y-103459576D01*
X147168215Y-103459577D01*
X147320943Y-103500501D01*
X147320946Y-103500501D01*
X147486653Y-103500501D01*
X147486669Y-103500500D01*
X150434996Y-103500500D01*
X150502035Y-103520185D01*
X150540535Y-103559404D01*
X150552031Y-103578043D01*
X150671955Y-103697967D01*
X150671959Y-103697970D01*
X150816294Y-103786998D01*
X150816297Y-103786999D01*
X150816303Y-103787003D01*
X150977292Y-103840349D01*
X151076655Y-103850500D01*
X151923344Y-103850499D01*
X151923352Y-103850498D01*
X151923355Y-103850498D01*
X151977760Y-103844940D01*
X152022708Y-103840349D01*
X152183697Y-103787003D01*
X152328044Y-103697968D01*
X152447968Y-103578044D01*
X152459465Y-103559403D01*
X152511412Y-103512679D01*
X152565004Y-103500500D01*
X158689372Y-103500500D01*
X158689388Y-103500501D01*
X158696984Y-103500501D01*
X158855095Y-103500501D01*
X158855098Y-103500501D01*
X159007826Y-103459577D01*
X159057945Y-103430639D01*
X159144757Y-103380520D01*
X159256561Y-103268716D01*
X159256561Y-103268714D01*
X159266769Y-103258507D01*
X159266771Y-103258504D01*
X161322478Y-101202796D01*
X161383799Y-101169313D01*
X161448474Y-101172547D01*
X161574673Y-101213553D01*
X161662151Y-101227408D01*
X161807944Y-101250500D01*
X161807949Y-101250500D01*
X162044138Y-101250500D01*
X162277409Y-101213553D01*
X162310509Y-101202798D01*
X162502033Y-101140568D01*
X162712474Y-101033343D01*
X162903551Y-100894517D01*
X163070558Y-100727510D01*
X163209384Y-100536433D01*
X163316609Y-100325992D01*
X163389594Y-100101368D01*
X163426541Y-99868097D01*
X163426541Y-99631902D01*
X163389594Y-99398631D01*
X163320576Y-99186217D01*
X163316609Y-99174008D01*
X163316607Y-99174005D01*
X163316607Y-99174003D01*
X163260043Y-99062991D01*
X163209384Y-98963567D01*
X163070558Y-98772490D01*
X162903551Y-98605483D01*
X162712474Y-98466657D01*
X162502037Y-98359433D01*
X162277409Y-98286446D01*
X162044138Y-98249500D01*
X162044133Y-98249500D01*
X161807949Y-98249500D01*
X161807944Y-98249500D01*
X161574672Y-98286446D01*
X161350044Y-98359433D01*
X161139607Y-98466657D01*
X161083160Y-98507669D01*
X160948531Y-98605483D01*
X160948529Y-98605485D01*
X160948528Y-98605485D01*
X160781526Y-98772487D01*
X160781526Y-98772488D01*
X160781524Y-98772490D01*
X160721903Y-98854550D01*
X160642698Y-98963566D01*
X160535474Y-99174003D01*
X160462487Y-99398631D01*
X160425541Y-99631902D01*
X160425541Y-99868097D01*
X160462488Y-100101369D01*
X160462488Y-100101372D01*
X160503491Y-100227564D01*
X160505486Y-100297405D01*
X160473241Y-100353563D01*
X158563625Y-102263181D01*
X158502302Y-102296666D01*
X158475944Y-102299500D01*
X152565004Y-102299500D01*
X152497965Y-102279815D01*
X152459465Y-102240596D01*
X152457607Y-102237584D01*
X152447968Y-102221956D01*
X152328044Y-102102032D01*
X152328040Y-102102029D01*
X152183705Y-102013001D01*
X152183699Y-102012998D01*
X152183697Y-102012997D01*
X152183694Y-102012996D01*
X152022709Y-101959651D01*
X151923346Y-101949500D01*
X151076662Y-101949500D01*
X151076644Y-101949501D01*
X150977292Y-101959650D01*
X150977289Y-101959651D01*
X150816305Y-102012996D01*
X150816294Y-102013001D01*
X150671959Y-102102029D01*
X150671955Y-102102032D01*
X150552031Y-102221956D01*
X150543571Y-102235672D01*
X150542393Y-102237584D01*
X150540535Y-102240596D01*
X150488588Y-102287321D01*
X150434996Y-102299500D01*
X147700097Y-102299500D01*
X147670656Y-102290855D01*
X147640670Y-102284332D01*
X147635654Y-102280577D01*
X147633058Y-102279815D01*
X147612416Y-102263181D01*
X147586819Y-102237584D01*
X147553334Y-102176261D01*
X147550500Y-102149903D01*
X147550500Y-101737000D01*
X147570185Y-101669961D01*
X147622989Y-101624206D01*
X147674500Y-101613000D01*
X147915686Y-101613000D01*
X147915694Y-101613000D01*
X147952569Y-101610098D01*
X147952571Y-101610097D01*
X147952573Y-101610097D01*
X147998347Y-101596798D01*
X148110398Y-101564244D01*
X148251865Y-101480581D01*
X148368081Y-101364365D01*
X148451744Y-101222898D01*
X148497598Y-101065069D01*
X148500500Y-101028194D01*
X148500500Y-99721806D01*
X148497598Y-99684931D01*
X148451744Y-99527102D01*
X148368081Y-99385635D01*
X148334417Y-99351971D01*
X148332145Y-99349435D01*
X148321278Y-99326647D01*
X150399500Y-99326647D01*
X150399500Y-99873337D01*
X150399501Y-99873355D01*
X150409650Y-99972707D01*
X150409651Y-99972710D01*
X150462996Y-100133694D01*
X150463001Y-100133705D01*
X150552029Y-100278040D01*
X150552032Y-100278044D01*
X150671955Y-100397967D01*
X150671959Y-100397970D01*
X150816294Y-100486998D01*
X150816297Y-100486999D01*
X150816303Y-100487003D01*
X150977292Y-100540349D01*
X151076655Y-100550500D01*
X151923344Y-100550499D01*
X151923352Y-100550498D01*
X151923355Y-100550498D01*
X151977760Y-100544940D01*
X152022708Y-100540349D01*
X152183697Y-100487003D01*
X152328044Y-100397968D01*
X152447968Y-100278044D01*
X152459465Y-100259403D01*
X152511412Y-100212679D01*
X152565004Y-100200500D01*
X155301542Y-100200500D01*
X155368581Y-100220185D01*
X155414336Y-100272989D01*
X155425542Y-100324500D01*
X155425542Y-100797876D01*
X155431949Y-100857483D01*
X155482243Y-100992328D01*
X155482247Y-100992335D01*
X155568493Y-101107544D01*
X155568496Y-101107547D01*
X155683705Y-101193793D01*
X155683712Y-101193797D01*
X155818558Y-101244091D01*
X155818557Y-101244091D01*
X155825485Y-101244835D01*
X155878168Y-101250500D01*
X157973913Y-101250499D01*
X158033524Y-101244091D01*
X158168372Y-101193796D01*
X158283587Y-101107546D01*
X158369837Y-100992331D01*
X158420132Y-100857483D01*
X158426541Y-100797873D01*
X158426540Y-98702128D01*
X158420132Y-98642517D01*
X158406319Y-98605483D01*
X158369838Y-98507671D01*
X158369834Y-98507664D01*
X158283588Y-98392455D01*
X158283585Y-98392452D01*
X158168376Y-98306206D01*
X158168369Y-98306202D01*
X158033523Y-98255908D01*
X158033524Y-98255908D01*
X157973924Y-98249501D01*
X157973922Y-98249500D01*
X157973914Y-98249500D01*
X157973905Y-98249500D01*
X155878170Y-98249500D01*
X155878164Y-98249501D01*
X155818557Y-98255908D01*
X155683712Y-98306202D01*
X155683705Y-98306206D01*
X155568496Y-98392452D01*
X155568493Y-98392455D01*
X155482247Y-98507664D01*
X155482243Y-98507671D01*
X155431949Y-98642517D01*
X155425542Y-98702116D01*
X155425542Y-98702123D01*
X155425541Y-98702135D01*
X155425541Y-98875500D01*
X155405856Y-98942539D01*
X155353052Y-98988294D01*
X155301541Y-98999500D01*
X152565004Y-98999500D01*
X152497965Y-98979815D01*
X152459465Y-98940596D01*
X152447968Y-98921956D01*
X152328044Y-98802032D01*
X152328040Y-98802029D01*
X152183705Y-98713001D01*
X152183699Y-98712998D01*
X152183697Y-98712997D01*
X152183694Y-98712996D01*
X152022709Y-98659651D01*
X151923346Y-98649500D01*
X151076662Y-98649500D01*
X151076644Y-98649501D01*
X150977292Y-98659650D01*
X150977289Y-98659651D01*
X150816305Y-98712996D01*
X150816294Y-98713001D01*
X150671959Y-98802029D01*
X150671955Y-98802032D01*
X150552032Y-98921955D01*
X150552029Y-98921959D01*
X150463001Y-99066294D01*
X150462996Y-99066305D01*
X150409651Y-99227290D01*
X150399500Y-99326647D01*
X148321278Y-99326647D01*
X148318510Y-99320842D01*
X148303334Y-99293049D01*
X148302774Y-99287842D01*
X148302071Y-99286368D01*
X148302365Y-99284044D01*
X148300500Y-99266691D01*
X148300500Y-98951560D01*
X148300501Y-98951547D01*
X148300501Y-98783444D01*
X148297566Y-98772490D01*
X148259577Y-98630716D01*
X148188538Y-98507671D01*
X148180524Y-98493790D01*
X148180522Y-98493787D01*
X148180521Y-98493786D01*
X148180520Y-98493784D01*
X148068927Y-98382191D01*
X148035444Y-98320872D01*
X148040428Y-98251180D01*
X148082299Y-98195246D01*
X148117602Y-98176808D01*
X148244334Y-98134814D01*
X148393656Y-98042712D01*
X148517712Y-97918656D01*
X148609814Y-97769334D01*
X148637595Y-97685495D01*
X148677368Y-97628051D01*
X148741884Y-97601228D01*
X148755301Y-97600500D01*
X157413331Y-97600500D01*
X157413347Y-97600501D01*
X157420943Y-97600501D01*
X157579054Y-97600501D01*
X157579057Y-97600501D01*
X157731785Y-97559577D01*
X157781904Y-97530639D01*
X157868716Y-97480520D01*
X157980520Y-97368716D01*
X157980520Y-97368714D01*
X157990728Y-97358507D01*
X157990730Y-97358504D01*
X162368713Y-92980521D01*
X162368716Y-92980520D01*
X162480520Y-92868716D01*
X162530639Y-92781904D01*
X162559577Y-92731785D01*
X162600501Y-92579057D01*
X162600501Y-92420943D01*
X162600501Y-92420941D01*
X162600501Y-92413348D01*
X162600500Y-92413330D01*
X162600500Y-92091447D01*
X162620185Y-92024408D01*
X162672989Y-91978653D01*
X162742147Y-91968709D01*
X162780794Y-91980962D01*
X162801588Y-91991557D01*
X163003757Y-92057246D01*
X163213713Y-92090500D01*
X163213714Y-92090500D01*
X163426286Y-92090500D01*
X163426287Y-92090500D01*
X163636243Y-92057246D01*
X163838412Y-91991557D01*
X164027816Y-91895051D01*
X164049789Y-91879086D01*
X164199786Y-91770109D01*
X164199788Y-91770106D01*
X164199792Y-91770104D01*
X164350104Y-91619792D01*
X164350106Y-91619788D01*
X164350109Y-91619786D01*
X164475048Y-91447820D01*
X164475047Y-91447820D01*
X164475051Y-91447816D01*
X164571557Y-91258412D01*
X164637246Y-91056243D01*
X164670500Y-90846287D01*
X164670500Y-90633713D01*
X164637246Y-90423757D01*
X164571557Y-90221588D01*
X164475051Y-90032184D01*
X164475049Y-90032181D01*
X164475048Y-90032179D01*
X164350109Y-89860213D01*
X164199786Y-89709890D01*
X164027820Y-89584951D01*
X164027115Y-89584591D01*
X164019054Y-89580485D01*
X163968259Y-89532512D01*
X163951463Y-89464692D01*
X163973999Y-89398556D01*
X164019054Y-89359515D01*
X164027816Y-89355051D01*
X164117554Y-89289853D01*
X164199786Y-89230109D01*
X164199788Y-89230106D01*
X164199792Y-89230104D01*
X164350104Y-89079792D01*
X164350106Y-89079788D01*
X164350109Y-89079786D01*
X164475048Y-88907820D01*
X164475047Y-88907820D01*
X164475051Y-88907816D01*
X164571557Y-88718412D01*
X164637246Y-88516243D01*
X164670500Y-88306287D01*
X164670500Y-88093713D01*
X164637246Y-87883757D01*
X164571557Y-87681588D01*
X164475051Y-87492184D01*
X164475049Y-87492181D01*
X164475048Y-87492179D01*
X164350109Y-87320213D01*
X164199786Y-87169890D01*
X164027820Y-87044951D01*
X163838414Y-86948444D01*
X163838413Y-86948443D01*
X163838412Y-86948443D01*
X163636243Y-86882754D01*
X163636241Y-86882753D01*
X163636240Y-86882753D01*
X163474957Y-86857208D01*
X163426287Y-86849500D01*
X163213713Y-86849500D01*
X163165042Y-86857208D01*
X163003760Y-86882753D01*
X162801585Y-86948444D01*
X162612179Y-87044951D01*
X162440213Y-87169890D01*
X162289890Y-87320213D01*
X162164949Y-87492182D01*
X162160484Y-87500946D01*
X162112509Y-87551742D01*
X162044688Y-87568536D01*
X161978553Y-87545998D01*
X161939516Y-87500946D01*
X161935050Y-87492182D01*
X161810109Y-87320213D01*
X161659786Y-87169890D01*
X161487820Y-87044951D01*
X161298414Y-86948444D01*
X161298413Y-86948443D01*
X161298412Y-86948443D01*
X161096243Y-86882754D01*
X161096241Y-86882753D01*
X161096240Y-86882753D01*
X160934957Y-86857208D01*
X160886287Y-86849500D01*
X160673713Y-86849500D01*
X160645006Y-86854046D01*
X160463757Y-86882753D01*
X160421473Y-86896492D01*
X160351632Y-86898486D01*
X160295476Y-86866241D01*
X160116590Y-86687355D01*
X160116588Y-86687352D01*
X159997717Y-86568481D01*
X159997716Y-86568480D01*
X159910904Y-86518360D01*
X159910904Y-86518359D01*
X159910900Y-86518358D01*
X159860785Y-86489423D01*
X159708057Y-86448499D01*
X159549943Y-86448499D01*
X159542347Y-86448499D01*
X159542331Y-86448500D01*
X158063337Y-86448500D01*
X157996298Y-86428815D01*
X157975656Y-86412181D01*
X151515610Y-79952135D01*
X155499500Y-79952135D01*
X155499500Y-83047870D01*
X155499501Y-83047876D01*
X155505908Y-83107483D01*
X155556202Y-83242328D01*
X155556206Y-83242335D01*
X155642452Y-83357544D01*
X155642455Y-83357547D01*
X155757664Y-83443793D01*
X155757671Y-83443797D01*
X155892517Y-83494091D01*
X155892516Y-83494091D01*
X155899444Y-83494835D01*
X155952127Y-83500500D01*
X158047872Y-83500499D01*
X158107483Y-83494091D01*
X158242331Y-83443796D01*
X158357546Y-83357546D01*
X158443796Y-83242331D01*
X158494091Y-83107483D01*
X158500500Y-83047873D01*
X158500500Y-82424500D01*
X158520185Y-82357461D01*
X158572989Y-82311706D01*
X158624500Y-82300500D01*
X159075500Y-82300500D01*
X159142539Y-82320185D01*
X159188294Y-82372989D01*
X159199500Y-82424500D01*
X159199500Y-84328846D01*
X159230261Y-84483489D01*
X159230264Y-84483501D01*
X159290602Y-84629172D01*
X159290609Y-84629185D01*
X159378210Y-84760288D01*
X159378213Y-84760292D01*
X159489707Y-84871786D01*
X159489711Y-84871789D01*
X159620814Y-84959390D01*
X159620827Y-84959397D01*
X159718853Y-85000000D01*
X159766503Y-85019737D01*
X159921153Y-85050499D01*
X159921156Y-85050500D01*
X159921158Y-85050500D01*
X160078844Y-85050500D01*
X160078845Y-85050499D01*
X160233497Y-85019737D01*
X160379179Y-84959394D01*
X160510289Y-84871789D01*
X160621789Y-84760289D01*
X160709394Y-84629179D01*
X160769737Y-84483497D01*
X160800500Y-84328842D01*
X160800500Y-84171158D01*
X160800500Y-82424500D01*
X160820185Y-82357461D01*
X160872989Y-82311706D01*
X160924500Y-82300500D01*
X161375501Y-82300500D01*
X161442540Y-82320185D01*
X161488295Y-82372989D01*
X161499501Y-82424500D01*
X161499501Y-83047876D01*
X161505908Y-83107483D01*
X161541682Y-83203395D01*
X161549500Y-83246728D01*
X161549500Y-83712770D01*
X161529815Y-83779809D01*
X161513181Y-83800451D01*
X161507289Y-83806342D01*
X161415187Y-83955663D01*
X161415185Y-83955668D01*
X161415115Y-83955880D01*
X161360001Y-84122203D01*
X161360001Y-84122204D01*
X161360000Y-84122204D01*
X161349500Y-84224983D01*
X161349500Y-85275001D01*
X161349501Y-85275019D01*
X161360000Y-85377796D01*
X161360001Y-85377799D01*
X161415115Y-85544119D01*
X161415186Y-85544334D01*
X161507288Y-85693656D01*
X161631344Y-85817712D01*
X161780666Y-85909814D01*
X161947203Y-85964999D01*
X162049991Y-85975500D01*
X162650008Y-85975499D01*
X162650016Y-85975498D01*
X162650019Y-85975498D01*
X162706302Y-85969748D01*
X162752797Y-85964999D01*
X162919334Y-85909814D01*
X163068656Y-85817712D01*
X163192712Y-85693656D01*
X163194752Y-85690347D01*
X163196745Y-85688555D01*
X163197193Y-85687989D01*
X163197289Y-85688065D01*
X163246694Y-85643623D01*
X163315656Y-85632395D01*
X163379740Y-85660234D01*
X163405829Y-85690339D01*
X163407681Y-85693341D01*
X163407683Y-85693344D01*
X163531654Y-85817315D01*
X163680875Y-85909356D01*
X163680880Y-85909358D01*
X163847302Y-85964505D01*
X163847309Y-85964506D01*
X163950019Y-85974999D01*
X164500000Y-85974999D01*
X164549972Y-85974999D01*
X164549986Y-85974998D01*
X164652697Y-85964505D01*
X164819119Y-85909358D01*
X164819124Y-85909356D01*
X164968345Y-85817315D01*
X165092315Y-85693345D01*
X165184356Y-85544124D01*
X165184358Y-85544119D01*
X165239505Y-85377697D01*
X165239506Y-85377690D01*
X165249999Y-85274986D01*
X165250000Y-85274973D01*
X165250000Y-85000000D01*
X164500000Y-85000000D01*
X164500000Y-85974999D01*
X163950019Y-85974999D01*
X163999999Y-85974998D01*
X164000000Y-85974998D01*
X164000000Y-84874000D01*
X164019685Y-84806961D01*
X164072489Y-84761206D01*
X164124000Y-84750000D01*
X164250000Y-84750000D01*
X164250000Y-84624000D01*
X164269685Y-84556961D01*
X164322489Y-84511206D01*
X164374000Y-84500000D01*
X165249999Y-84500000D01*
X165249999Y-84225028D01*
X165249998Y-84225013D01*
X165239505Y-84122302D01*
X165184358Y-83955880D01*
X165184356Y-83955875D01*
X165092315Y-83806654D01*
X164968345Y-83682684D01*
X164819124Y-83590643D01*
X164819119Y-83590641D01*
X164652697Y-83535494D01*
X164652690Y-83535493D01*
X164549986Y-83525000D01*
X164479911Y-83525000D01*
X164412872Y-83505315D01*
X164367117Y-83452511D01*
X164357173Y-83383353D01*
X164380643Y-83326691D01*
X164443796Y-83242331D01*
X164494091Y-83107483D01*
X164500500Y-83047873D01*
X164500499Y-79952128D01*
X164494091Y-79892517D01*
X164443796Y-79757669D01*
X164443795Y-79757668D01*
X164443793Y-79757664D01*
X164357547Y-79642455D01*
X164357544Y-79642452D01*
X164242335Y-79556206D01*
X164242328Y-79556202D01*
X164107482Y-79505908D01*
X164107483Y-79505908D01*
X164047883Y-79499501D01*
X164047881Y-79499500D01*
X164047873Y-79499500D01*
X164047864Y-79499500D01*
X161952129Y-79499500D01*
X161952123Y-79499501D01*
X161892516Y-79505908D01*
X161757671Y-79556202D01*
X161757664Y-79556206D01*
X161642455Y-79642452D01*
X161642452Y-79642455D01*
X161556206Y-79757664D01*
X161556202Y-79757671D01*
X161505908Y-79892517D01*
X161499501Y-79952116D01*
X161499501Y-79952123D01*
X161499500Y-79952135D01*
X161499500Y-80575500D01*
X161479815Y-80642539D01*
X161427011Y-80688294D01*
X161375500Y-80699500D01*
X158624499Y-80699500D01*
X158557460Y-80679815D01*
X158511705Y-80627011D01*
X158500499Y-80575500D01*
X158500499Y-79952129D01*
X158500498Y-79952123D01*
X158500497Y-79952116D01*
X158494091Y-79892517D01*
X158443796Y-79757669D01*
X158443795Y-79757668D01*
X158443793Y-79757664D01*
X158357547Y-79642455D01*
X158357544Y-79642452D01*
X158242335Y-79556206D01*
X158242328Y-79556202D01*
X158107482Y-79505908D01*
X158107483Y-79505908D01*
X158047883Y-79499501D01*
X158047881Y-79499500D01*
X158047873Y-79499500D01*
X158047864Y-79499500D01*
X155952129Y-79499500D01*
X155952123Y-79499501D01*
X155892516Y-79505908D01*
X155757671Y-79556202D01*
X155757664Y-79556206D01*
X155642455Y-79642452D01*
X155642452Y-79642455D01*
X155556206Y-79757664D01*
X155556202Y-79757671D01*
X155505908Y-79892517D01*
X155499501Y-79952116D01*
X155499501Y-79952123D01*
X155499500Y-79952135D01*
X151515610Y-79952135D01*
X151202640Y-79639165D01*
X151194761Y-79631286D01*
X151194760Y-79631284D01*
X151082956Y-79519480D01*
X151071975Y-79513140D01*
X151061045Y-79502598D01*
X151050963Y-79484903D01*
X151036911Y-79470165D01*
X151034020Y-79455164D01*
X151026457Y-79441890D01*
X151027542Y-79421553D01*
X151023689Y-79401558D01*
X151029366Y-79387376D01*
X151030181Y-79372119D01*
X151042088Y-79355597D01*
X151049657Y-79336694D01*
X151062101Y-79327832D01*
X151071035Y-79315438D01*
X151089983Y-79307977D01*
X151106571Y-79296166D01*
X151122936Y-79291729D01*
X151233497Y-79269737D01*
X151379179Y-79209394D01*
X151510289Y-79121789D01*
X151621789Y-79010289D01*
X151709394Y-78879179D01*
X151769737Y-78733497D01*
X151800500Y-78578842D01*
X151800500Y-78528363D01*
X151808167Y-78489823D01*
X151807473Y-78489637D01*
X151818593Y-78448135D01*
X151850500Y-78329057D01*
X151850500Y-78170943D01*
X151850500Y-77788585D01*
X151870185Y-77721546D01*
X151922989Y-77675791D01*
X151935489Y-77670881D01*
X152044334Y-77634814D01*
X152193656Y-77542712D01*
X152317712Y-77418656D01*
X152409814Y-77269334D01*
X152464999Y-77102797D01*
X152475500Y-77000009D01*
X152475499Y-76399992D01*
X152474418Y-76389414D01*
X152464999Y-76297203D01*
X152464998Y-76297200D01*
X152416363Y-76150430D01*
X152409814Y-76130666D01*
X152317712Y-75981344D01*
X152237945Y-75901577D01*
X157249500Y-75901577D01*
X157249500Y-76098422D01*
X157280290Y-76292826D01*
X157341117Y-76480029D01*
X157430476Y-76655405D01*
X157546172Y-76814646D01*
X157685354Y-76953828D01*
X157844595Y-77069524D01*
X157909901Y-77102799D01*
X158019970Y-77158882D01*
X158019972Y-77158882D01*
X158019975Y-77158884D01*
X158120317Y-77191487D01*
X158207173Y-77219709D01*
X158401578Y-77250500D01*
X158401583Y-77250500D01*
X158598422Y-77250500D01*
X158792826Y-77219709D01*
X158980025Y-77158884D01*
X159155405Y-77069524D01*
X159314646Y-76953828D01*
X159453828Y-76814646D01*
X159569524Y-76655405D01*
X159658884Y-76480025D01*
X159701605Y-76348543D01*
X161899499Y-76348543D01*
X161937947Y-76541829D01*
X161937950Y-76541839D01*
X162013364Y-76723907D01*
X162013371Y-76723920D01*
X162122860Y-76887781D01*
X162122863Y-76887785D01*
X162262214Y-77027136D01*
X162262218Y-77027139D01*
X162426079Y-77136628D01*
X162426092Y-77136635D01*
X162579071Y-77200000D01*
X162608165Y-77212051D01*
X162608169Y-77212051D01*
X162608170Y-77212052D01*
X162801456Y-77250500D01*
X162801459Y-77250500D01*
X162998543Y-77250500D01*
X163153336Y-77219709D01*
X163191835Y-77212051D01*
X163373914Y-77136632D01*
X163537782Y-77027139D01*
X163677139Y-76887782D01*
X163786632Y-76723914D01*
X163862051Y-76541835D01*
X163874632Y-76478582D01*
X163900500Y-76348543D01*
X163900500Y-75651456D01*
X163862052Y-75458170D01*
X163862051Y-75458169D01*
X163862051Y-75458165D01*
X163862049Y-75458160D01*
X163786635Y-75276092D01*
X163786628Y-75276079D01*
X163677139Y-75112218D01*
X163677136Y-75112214D01*
X163537785Y-74972863D01*
X163537781Y-74972860D01*
X163373920Y-74863371D01*
X163373907Y-74863364D01*
X163191839Y-74787950D01*
X163191829Y-74787947D01*
X162998543Y-74749500D01*
X162998541Y-74749500D01*
X162801459Y-74749500D01*
X162801457Y-74749500D01*
X162608170Y-74787947D01*
X162608160Y-74787950D01*
X162426092Y-74863364D01*
X162426079Y-74863371D01*
X162262218Y-74972860D01*
X162262214Y-74972863D01*
X162122863Y-75112214D01*
X162122860Y-75112218D01*
X162013371Y-75276079D01*
X162013364Y-75276092D01*
X161937950Y-75458160D01*
X161937947Y-75458170D01*
X161899500Y-75651456D01*
X161899500Y-75651459D01*
X161899500Y-76348541D01*
X161899500Y-76348543D01*
X161899499Y-76348543D01*
X159701605Y-76348543D01*
X159719709Y-76292826D01*
X159720293Y-76289137D01*
X159750500Y-76098422D01*
X159750500Y-75901577D01*
X159727486Y-75756278D01*
X159719709Y-75707174D01*
X159719707Y-75707169D01*
X159719707Y-75707166D01*
X159712081Y-75683696D01*
X159712077Y-75683686D01*
X159707712Y-75670252D01*
X159658884Y-75519975D01*
X159569524Y-75344595D01*
X159453828Y-75185354D01*
X159314646Y-75046172D01*
X159155405Y-74930476D01*
X159146620Y-74926000D01*
X158980029Y-74841117D01*
X158792826Y-74780290D01*
X158598422Y-74749500D01*
X158598417Y-74749500D01*
X158401583Y-74749500D01*
X158401578Y-74749500D01*
X158207173Y-74780290D01*
X158019970Y-74841117D01*
X157844594Y-74930476D01*
X157779857Y-74977511D01*
X157685354Y-75046172D01*
X157685352Y-75046174D01*
X157685351Y-75046174D01*
X157546174Y-75185351D01*
X157546174Y-75185352D01*
X157546172Y-75185354D01*
X157533577Y-75202690D01*
X157430476Y-75344594D01*
X157341117Y-75519970D01*
X157280290Y-75707173D01*
X157249500Y-75901577D01*
X152237945Y-75901577D01*
X152193656Y-75857288D01*
X152179073Y-75848293D01*
X152169528Y-75839122D01*
X152158486Y-75819827D01*
X152143618Y-75803297D01*
X152141469Y-75790090D01*
X152134825Y-75778480D01*
X152135967Y-75756278D01*
X152132397Y-75734334D01*
X152137728Y-75722063D01*
X152138416Y-75708703D01*
X152151379Y-75690643D01*
X152160240Y-75670252D01*
X152175526Y-75657007D01*
X152179161Y-75651944D01*
X152183228Y-75650333D01*
X152190348Y-75644165D01*
X152193342Y-75642318D01*
X152317315Y-75518345D01*
X152409356Y-75369124D01*
X152409358Y-75369119D01*
X152464505Y-75202697D01*
X152464506Y-75202690D01*
X152474999Y-75099986D01*
X152475000Y-75099973D01*
X152475000Y-75050000D01*
X151374000Y-75050000D01*
X151306961Y-75030315D01*
X151261206Y-74977511D01*
X151250000Y-74926000D01*
X151250000Y-74800000D01*
X151124000Y-74800000D01*
X151056961Y-74780315D01*
X151011206Y-74727511D01*
X151000000Y-74676000D01*
X151000000Y-74550000D01*
X151500000Y-74550000D01*
X152474999Y-74550000D01*
X152474999Y-74500028D01*
X152474998Y-74500013D01*
X152464505Y-74397302D01*
X152409358Y-74230880D01*
X152409356Y-74230875D01*
X152317315Y-74081654D01*
X152193345Y-73957684D01*
X152044124Y-73865643D01*
X152044119Y-73865641D01*
X151877697Y-73810494D01*
X151877690Y-73810493D01*
X151774986Y-73800000D01*
X151500000Y-73800000D01*
X151500000Y-74550000D01*
X151000000Y-74550000D01*
X151000000Y-73800000D01*
X150725029Y-73800000D01*
X150725012Y-73800001D01*
X150622302Y-73810494D01*
X150455880Y-73865641D01*
X150455875Y-73865643D01*
X150306654Y-73957684D01*
X150182684Y-74081654D01*
X150090643Y-74230875D01*
X150090642Y-74230878D01*
X150039254Y-74385956D01*
X149999481Y-74443400D01*
X149934965Y-74470223D01*
X149866189Y-74457908D01*
X149833867Y-74434632D01*
X148093540Y-72694305D01*
X148060055Y-72632982D01*
X148065039Y-72563290D01*
X148081957Y-72532309D01*
X148093352Y-72517087D01*
X148143597Y-72382376D01*
X148143598Y-72382372D01*
X148149999Y-72322844D01*
X148150000Y-72322827D01*
X148150000Y-72200000D01*
X147650597Y-72200000D01*
X147621156Y-72191355D01*
X147591170Y-72184832D01*
X147586154Y-72181077D01*
X147583558Y-72180315D01*
X147562916Y-72163681D01*
X147536818Y-72137583D01*
X147503333Y-72076260D01*
X147500499Y-72049902D01*
X147500499Y-72047844D01*
X155500000Y-72047844D01*
X155506401Y-72107372D01*
X155506403Y-72107379D01*
X155556645Y-72242086D01*
X155556649Y-72242093D01*
X155642809Y-72357187D01*
X155642812Y-72357190D01*
X155757906Y-72443350D01*
X155757913Y-72443354D01*
X155892620Y-72493596D01*
X155892627Y-72493598D01*
X155952155Y-72499999D01*
X155952172Y-72500000D01*
X156750000Y-72500000D01*
X157250000Y-72500000D01*
X158047828Y-72500000D01*
X158047844Y-72499999D01*
X158107372Y-72493598D01*
X158107379Y-72493596D01*
X158242086Y-72443354D01*
X158242093Y-72443350D01*
X158357187Y-72357190D01*
X158357190Y-72357187D01*
X158443350Y-72242093D01*
X158443354Y-72242086D01*
X158493596Y-72107379D01*
X158493598Y-72107372D01*
X158499999Y-72047844D01*
X161500000Y-72047844D01*
X161506401Y-72107372D01*
X161506403Y-72107379D01*
X161556645Y-72242086D01*
X161556649Y-72242093D01*
X161642809Y-72357187D01*
X161642812Y-72357190D01*
X161757906Y-72443350D01*
X161757913Y-72443354D01*
X161892620Y-72493596D01*
X161892627Y-72493598D01*
X161952155Y-72499999D01*
X161952172Y-72500000D01*
X162750000Y-72500000D01*
X163250000Y-72500000D01*
X164047828Y-72500000D01*
X164047844Y-72499999D01*
X164107372Y-72493598D01*
X164107379Y-72493596D01*
X164242086Y-72443354D01*
X164242093Y-72443350D01*
X164357187Y-72357190D01*
X164357190Y-72357187D01*
X164443350Y-72242093D01*
X164443354Y-72242086D01*
X164493596Y-72107379D01*
X164493598Y-72107372D01*
X164499999Y-72047844D01*
X164500000Y-72047827D01*
X164500000Y-70750000D01*
X163250000Y-70750000D01*
X163250000Y-72500000D01*
X162750000Y-72500000D01*
X162750000Y-70750000D01*
X161500000Y-70750000D01*
X161500000Y-72047844D01*
X158499999Y-72047844D01*
X158500000Y-72047827D01*
X158500000Y-70750000D01*
X157250000Y-70750000D01*
X157250000Y-72500000D01*
X156750000Y-72500000D01*
X156750000Y-70750000D01*
X155500000Y-70750000D01*
X155500000Y-72047844D01*
X147500499Y-72047844D01*
X147500499Y-71974000D01*
X147520184Y-71906961D01*
X147572988Y-71861206D01*
X147624499Y-71850000D01*
X148150000Y-71850000D01*
X148150000Y-71727172D01*
X148149999Y-71727155D01*
X148143598Y-71667627D01*
X148143596Y-71667620D01*
X148093354Y-71532913D01*
X148093352Y-71532911D01*
X148010379Y-71422072D01*
X148003643Y-71404013D01*
X147992466Y-71388317D01*
X147991686Y-71371955D01*
X147985962Y-71356608D01*
X147990058Y-71337777D01*
X147989141Y-71318527D01*
X148000318Y-71290607D01*
X148000813Y-71288335D01*
X148002259Y-71285761D01*
X148008760Y-71274501D01*
X148034577Y-71229785D01*
X148075501Y-71077057D01*
X148075501Y-70918943D01*
X148075501Y-70911348D01*
X148075500Y-70911330D01*
X148075500Y-70532486D01*
X148090671Y-70473054D01*
X148093793Y-70467333D01*
X148093796Y-70467331D01*
X148144091Y-70332483D01*
X148150500Y-70272873D01*
X148150499Y-69677128D01*
X148144091Y-69617517D01*
X148102238Y-69505304D01*
X148093797Y-69482671D01*
X148093793Y-69482664D01*
X148007547Y-69367455D01*
X148007544Y-69367452D01*
X147892335Y-69281206D01*
X147892328Y-69281202D01*
X147757486Y-69230910D01*
X147757485Y-69230909D01*
X147757483Y-69230909D01*
X147697873Y-69224500D01*
X147697863Y-69224500D01*
X147252129Y-69224500D01*
X147252123Y-69224501D01*
X147192515Y-69230909D01*
X147184971Y-69232692D01*
X147184675Y-69231439D01*
X147122926Y-69235855D01*
X147109357Y-69231870D01*
X147107372Y-69231401D01*
X147047844Y-69225000D01*
X147000000Y-69225000D01*
X147000000Y-69262305D01*
X146980315Y-69329344D01*
X146967027Y-69346508D01*
X146959354Y-69354802D01*
X146942454Y-69367454D01*
X146920402Y-69396910D01*
X146916027Y-69401641D01*
X146891345Y-69416392D01*
X146868332Y-69433620D01*
X146861733Y-69434091D01*
X146856053Y-69437487D01*
X146827315Y-69436553D01*
X146798640Y-69438604D01*
X146792832Y-69435432D01*
X146786220Y-69435218D01*
X146762552Y-69418898D01*
X146737317Y-69405118D01*
X146729522Y-69396121D01*
X146728700Y-69395555D01*
X146728391Y-69394817D01*
X146725734Y-69391750D01*
X146707812Y-69367809D01*
X146707546Y-69367454D01*
X146707545Y-69367453D01*
X146699685Y-69361569D01*
X146657816Y-69305633D01*
X146650000Y-69262305D01*
X146650000Y-69225000D01*
X146602155Y-69225000D01*
X146542624Y-69231401D01*
X146535073Y-69233186D01*
X146534684Y-69231542D01*
X146474348Y-69235853D01*
X146457614Y-69230939D01*
X146457491Y-69230910D01*
X146457483Y-69230909D01*
X146397873Y-69224500D01*
X146397863Y-69224500D01*
X145952129Y-69224500D01*
X145952123Y-69224501D01*
X145892515Y-69230909D01*
X145884971Y-69232692D01*
X145884675Y-69231439D01*
X145822926Y-69235855D01*
X145809357Y-69231870D01*
X145807372Y-69231401D01*
X145747844Y-69225000D01*
X145700000Y-69225000D01*
X145700000Y-69262305D01*
X145680315Y-69329344D01*
X145671532Y-69341360D01*
X145662123Y-69352729D01*
X145642454Y-69367454D01*
X145571456Y-69462294D01*
X145569532Y-69464620D01*
X145542970Y-69482554D01*
X145517332Y-69501747D01*
X145514216Y-69501969D01*
X145511627Y-69503718D01*
X145479605Y-69504445D01*
X145447641Y-69506731D01*
X145444897Y-69505233D01*
X145441775Y-69505304D01*
X145414435Y-69488598D01*
X145386318Y-69473245D01*
X145384821Y-69470503D01*
X145382154Y-69468874D01*
X145368180Y-69440027D01*
X145352834Y-69411922D01*
X145352339Y-69407327D01*
X145351694Y-69405994D01*
X145351959Y-69403791D01*
X145350000Y-69385565D01*
X145350000Y-69225000D01*
X145302155Y-69225000D01*
X145242627Y-69231401D01*
X145242620Y-69231403D01*
X145107913Y-69281645D01*
X145107906Y-69281649D01*
X144992812Y-69367809D01*
X144992809Y-69367812D01*
X144906649Y-69482906D01*
X144906645Y-69482913D01*
X144856403Y-69617620D01*
X144856401Y-69617627D01*
X144850000Y-69677155D01*
X144850000Y-69800000D01*
X145375500Y-69800000D01*
X145384185Y-69802550D01*
X145393146Y-69801262D01*
X145417187Y-69812240D01*
X145442539Y-69819685D01*
X145448465Y-69826524D01*
X145456702Y-69830286D01*
X145470992Y-69852521D01*
X145488294Y-69872489D01*
X145490581Y-69883001D01*
X145494477Y-69889064D01*
X145499500Y-69923999D01*
X145499501Y-70025999D01*
X145479817Y-70093038D01*
X145427014Y-70138794D01*
X145375501Y-70150000D01*
X144850000Y-70150000D01*
X144850000Y-70272844D01*
X144856401Y-70332372D01*
X144856403Y-70332379D01*
X144906645Y-70467086D01*
X144906649Y-70467093D01*
X144992809Y-70582187D01*
X144992812Y-70582190D01*
X145107906Y-70668350D01*
X145107913Y-70668354D01*
X145242620Y-70718596D01*
X145242627Y-70718598D01*
X145302155Y-70724999D01*
X145302172Y-70725000D01*
X145350000Y-70725000D01*
X145362819Y-70712181D01*
X145382255Y-70701568D01*
X145398989Y-70687068D01*
X145412320Y-70685151D01*
X145424142Y-70678696D01*
X145446228Y-70680275D01*
X145468147Y-70677124D01*
X145480398Y-70682719D01*
X145493834Y-70683680D01*
X145511560Y-70696950D01*
X145531703Y-70706149D01*
X145538985Y-70717480D01*
X145549767Y-70725552D01*
X145557504Y-70746297D01*
X145569477Y-70764927D01*
X145572628Y-70786845D01*
X145574184Y-70791016D01*
X145574500Y-70799862D01*
X145574500Y-70911330D01*
X145574499Y-70911348D01*
X145574499Y-71077056D01*
X145585579Y-71118407D01*
X145583916Y-71188257D01*
X145544753Y-71246119D01*
X145480525Y-71273623D01*
X145465805Y-71274500D01*
X145302130Y-71274500D01*
X145302123Y-71274501D01*
X145242516Y-71280908D01*
X145107671Y-71331202D01*
X145107664Y-71331206D01*
X144992455Y-71417452D01*
X144992452Y-71417455D01*
X144906206Y-71532664D01*
X144906202Y-71532671D01*
X144855910Y-71667513D01*
X144855909Y-71667517D01*
X144849500Y-71727127D01*
X144849500Y-71727134D01*
X144849500Y-71727135D01*
X144849500Y-72322870D01*
X144849501Y-72322876D01*
X144855908Y-72382481D01*
X144855909Y-72382483D01*
X144906204Y-72517331D01*
X144906206Y-72517334D01*
X144906207Y-72517336D01*
X144909333Y-72523062D01*
X144924499Y-72582485D01*
X144924499Y-72604054D01*
X144924498Y-72604054D01*
X144965423Y-72756785D01*
X144994358Y-72806900D01*
X144994359Y-72806904D01*
X144994360Y-72806904D01*
X145044479Y-72893714D01*
X145044481Y-72893717D01*
X145163349Y-73012585D01*
X145163355Y-73012590D01*
X145363181Y-73212416D01*
X145396666Y-73273739D01*
X145399500Y-73300097D01*
X145399500Y-75475500D01*
X145379815Y-75542539D01*
X145327011Y-75588294D01*
X145275500Y-75599500D01*
X143924998Y-75599500D01*
X143924981Y-75599501D01*
X143822203Y-75610000D01*
X143822200Y-75610001D01*
X143655668Y-75665185D01*
X143655663Y-75665187D01*
X143506342Y-75757289D01*
X143462181Y-75801451D01*
X143400858Y-75834936D01*
X143331166Y-75829952D01*
X143275233Y-75788080D01*
X143250816Y-75722616D01*
X143250500Y-75713770D01*
X143250500Y-68952155D01*
X155500000Y-68952155D01*
X155500000Y-70250000D01*
X156750000Y-70250000D01*
X157250000Y-70250000D01*
X158500000Y-70250000D01*
X158500000Y-68952172D01*
X158499999Y-68952155D01*
X161500000Y-68952155D01*
X161500000Y-70250000D01*
X162750000Y-70250000D01*
X163250000Y-70250000D01*
X164500000Y-70250000D01*
X164500000Y-68952172D01*
X164499999Y-68952155D01*
X164493598Y-68892627D01*
X164493596Y-68892620D01*
X164443354Y-68757913D01*
X164443350Y-68757906D01*
X164357190Y-68642812D01*
X164357187Y-68642809D01*
X164242093Y-68556649D01*
X164242086Y-68556645D01*
X164107379Y-68506403D01*
X164107372Y-68506401D01*
X164047844Y-68500000D01*
X163250000Y-68500000D01*
X163250000Y-70250000D01*
X162750000Y-70250000D01*
X162750000Y-68500000D01*
X161952155Y-68500000D01*
X161892627Y-68506401D01*
X161892620Y-68506403D01*
X161757913Y-68556645D01*
X161757906Y-68556649D01*
X161642812Y-68642809D01*
X161642809Y-68642812D01*
X161556649Y-68757906D01*
X161556645Y-68757913D01*
X161506403Y-68892620D01*
X161506401Y-68892627D01*
X161500000Y-68952155D01*
X158499999Y-68952155D01*
X158493598Y-68892627D01*
X158493596Y-68892620D01*
X158443354Y-68757913D01*
X158443350Y-68757906D01*
X158357190Y-68642812D01*
X158357187Y-68642809D01*
X158242093Y-68556649D01*
X158242086Y-68556645D01*
X158107379Y-68506403D01*
X158107372Y-68506401D01*
X158047844Y-68500000D01*
X157250000Y-68500000D01*
X157250000Y-70250000D01*
X156750000Y-70250000D01*
X156750000Y-68500000D01*
X155952155Y-68500000D01*
X155892627Y-68506401D01*
X155892620Y-68506403D01*
X155757913Y-68556645D01*
X155757906Y-68556649D01*
X155642812Y-68642809D01*
X155642809Y-68642812D01*
X155556649Y-68757906D01*
X155556645Y-68757913D01*
X155506403Y-68892620D01*
X155506401Y-68892627D01*
X155500000Y-68952155D01*
X143250500Y-68952155D01*
X143250500Y-68374500D01*
X143270185Y-68307461D01*
X143322989Y-68261706D01*
X143374500Y-68250500D01*
X166625500Y-68250500D01*
X166692539Y-68270185D01*
G37*
%TD.AperFunction*%
%TA.AperFunction,Conductor*%
G36*
X164062370Y-130846225D02*
G01*
X164102127Y-130850500D01*
X164276738Y-130850499D01*
X164277972Y-130850524D01*
X164310135Y-130860668D01*
X164342539Y-130870183D01*
X164343381Y-130871155D01*
X164344605Y-130871541D01*
X164366185Y-130897472D01*
X164388294Y-130922987D01*
X164388476Y-130924257D01*
X164389299Y-130925246D01*
X164399500Y-130974499D01*
X164399500Y-134949903D01*
X164379815Y-135016942D01*
X164363181Y-135037584D01*
X162287584Y-137113181D01*
X162226261Y-137146666D01*
X162199903Y-137149500D01*
X162145727Y-137149500D01*
X162078688Y-137129815D01*
X162032933Y-137077011D01*
X162022989Y-137007853D01*
X162029827Y-136982931D01*
X162029589Y-136982854D01*
X162096757Y-136776129D01*
X162096757Y-136776126D01*
X162107231Y-136710000D01*
X161213012Y-136710000D01*
X161245925Y-136652993D01*
X161280000Y-136525826D01*
X161280000Y-136394174D01*
X161245925Y-136267007D01*
X161213012Y-136210000D01*
X162107231Y-136210000D01*
X162096757Y-136143873D01*
X162096757Y-136143870D01*
X162031095Y-135941782D01*
X161934620Y-135752442D01*
X161809727Y-135580540D01*
X161809723Y-135580535D01*
X161659464Y-135430276D01*
X161659459Y-135430272D01*
X161487557Y-135305379D01*
X161298215Y-135208903D01*
X161096124Y-135143241D01*
X161030000Y-135132768D01*
X161030000Y-136026988D01*
X160972993Y-135994075D01*
X160845826Y-135960000D01*
X160714174Y-135960000D01*
X160587007Y-135994075D01*
X160530000Y-136026988D01*
X160530000Y-135132768D01*
X160529999Y-135132768D01*
X160463875Y-135143241D01*
X160261784Y-135208903D01*
X160072442Y-135305379D01*
X159900540Y-135430272D01*
X159900535Y-135430276D01*
X159750276Y-135580535D01*
X159750272Y-135580540D01*
X159625378Y-135752443D01*
X159620762Y-135761502D01*
X159572784Y-135812295D01*
X159504963Y-135829087D01*
X159438829Y-135806546D01*
X159399794Y-135761493D01*
X159395051Y-135752184D01*
X159331899Y-135665262D01*
X159308420Y-135599455D01*
X159324246Y-135531401D01*
X159344533Y-135504700D01*
X163966823Y-130882410D01*
X163994786Y-130867141D01*
X164021946Y-130850443D01*
X164026367Y-130849897D01*
X164028144Y-130848927D01*
X164038886Y-130848351D01*
X164056974Y-130846118D01*
X164062370Y-130846225D01*
G37*
%TD.AperFunction*%
%TA.AperFunction,Conductor*%
G36*
X147305703Y-73605384D02*
G01*
X147312181Y-73611416D01*
X149989902Y-76289137D01*
X150023387Y-76350460D01*
X150025580Y-76389414D01*
X150024500Y-76399986D01*
X150024500Y-77000001D01*
X150024501Y-77000019D01*
X150035000Y-77102796D01*
X150035001Y-77102799D01*
X150083945Y-77250500D01*
X150090186Y-77269334D01*
X150182288Y-77418656D01*
X150306344Y-77542712D01*
X150455666Y-77634814D01*
X150481045Y-77643223D01*
X150538489Y-77682996D01*
X150565312Y-77747512D01*
X150552997Y-77816287D01*
X150510933Y-77864030D01*
X150489709Y-77878211D01*
X150378213Y-77989707D01*
X150378210Y-77989711D01*
X150290609Y-78120814D01*
X150290602Y-78120827D01*
X150230264Y-78266498D01*
X150230261Y-78266510D01*
X150223661Y-78299691D01*
X150208950Y-78327814D01*
X150195757Y-78356703D01*
X150192867Y-78358560D01*
X150191276Y-78361602D01*
X150163693Y-78377308D01*
X150136979Y-78394477D01*
X150132384Y-78395137D01*
X150130561Y-78396176D01*
X150102044Y-78399500D01*
X149893949Y-78399500D01*
X149826910Y-78379815D01*
X149781155Y-78327011D01*
X149771211Y-78257853D01*
X149771967Y-78253223D01*
X149772099Y-78252496D01*
X149772295Y-78250001D01*
X149772295Y-78250000D01*
X149409050Y-78250000D01*
X149374455Y-78245076D01*
X149227573Y-78202402D01*
X149227567Y-78202401D01*
X149190701Y-78199500D01*
X149190694Y-78199500D01*
X148624000Y-78199500D01*
X148556961Y-78179815D01*
X148511206Y-78127011D01*
X148500000Y-78075500D01*
X148500000Y-78000000D01*
X148374000Y-78000000D01*
X148306961Y-77980315D01*
X148261206Y-77927511D01*
X148250000Y-77876000D01*
X148250000Y-77750000D01*
X148750000Y-77750000D01*
X149772295Y-77750000D01*
X149772295Y-77749998D01*
X149772100Y-77747512D01*
X149726281Y-77589801D01*
X149642685Y-77448447D01*
X149642678Y-77448438D01*
X149526561Y-77332321D01*
X149526552Y-77332314D01*
X149385196Y-77248717D01*
X149385193Y-77248716D01*
X149227495Y-77202900D01*
X149227489Y-77202899D01*
X149190649Y-77200000D01*
X148750000Y-77200000D01*
X148750000Y-77750000D01*
X148250000Y-77750000D01*
X148250000Y-77200000D01*
X147809350Y-77200000D01*
X147772510Y-77202899D01*
X147772504Y-77202900D01*
X147614806Y-77248716D01*
X147614803Y-77248717D01*
X147473447Y-77332314D01*
X147473438Y-77332321D01*
X147357321Y-77448438D01*
X147357314Y-77448447D01*
X147331232Y-77492551D01*
X147280163Y-77540235D01*
X147211421Y-77552738D01*
X147146832Y-77526093D01*
X147106902Y-77468757D01*
X147100500Y-77429430D01*
X147100500Y-73699097D01*
X147120185Y-73632058D01*
X147172989Y-73586303D01*
X147242147Y-73576359D01*
X147305703Y-73605384D01*
G37*
%TD.AperFunction*%
%TD*%
M02*
