%TF.GenerationSoftware,KiCad,Pcbnew,8.0.8*%
%TF.CreationDate,2025-01-26T19:35:19-06:00*%
%TF.ProjectId,ptSolar,7074536f-6c61-4722-9e6b-696361645f70,rev?*%
%TF.SameCoordinates,Original*%
%TF.FileFunction,Copper,L3,Inr*%
%TF.FilePolarity,Positive*%
%FSLAX46Y46*%
G04 Gerber Fmt 4.6, Leading zero omitted, Abs format (unit mm)*
G04 Created by KiCad (PCBNEW 8.0.8) date 2025-01-26 19:35:19*
%MOMM*%
%LPD*%
G01*
G04 APERTURE LIST*
%TA.AperFunction,ComponentPad*%
%ADD10C,1.400000*%
%TD*%
%TA.AperFunction,ComponentPad*%
%ADD11O,4.000000X3.000000*%
%TD*%
%TA.AperFunction,ComponentPad*%
%ADD12R,1.524000X1.524000*%
%TD*%
%TA.AperFunction,ComponentPad*%
%ADD13C,1.524000*%
%TD*%
%TA.AperFunction,ComponentPad*%
%ADD14R,1.700000X1.700000*%
%TD*%
%TA.AperFunction,ComponentPad*%
%ADD15O,1.700000X1.700000*%
%TD*%
%TA.AperFunction,ViaPad*%
%ADD16C,0.600000*%
%TD*%
G04 APERTURE END LIST*
D10*
%TO.N,GND*%
%TO.C,ANT2b1*%
X150500000Y-72750000D03*
%TD*%
%TO.N,Net-(ANT2-In)*%
%TO.C,ANT2a1*%
X144750000Y-73500000D03*
%TD*%
D11*
%TO.N,Net-(D4-A)*%
%TO.C,J1*%
X137250000Y-72000000D03*
%TO.N,GND*%
X137250000Y-126750000D03*
X137250000Y-132125000D03*
X137250000Y-137500000D03*
%TD*%
%TO.N,GND*%
%TO.C,J2*%
X167250000Y-137500000D03*
X167250000Y-132125000D03*
X167250000Y-126750000D03*
%TO.N,Net-(D5-A)*%
X167250000Y-72000000D03*
%TD*%
D12*
%TO.N,Net-(D1-K)*%
%TO.C,C1*%
X160250000Y-71000000D03*
D13*
%TO.N,GND*%
X160250000Y-82500000D03*
%TD*%
D14*
%TO.N,Net-(J5-Pin_1)*%
%TO.C,J5*%
X155700000Y-90740000D03*
D15*
%TO.N,+3.3V*%
X155700000Y-88200000D03*
%TO.N,Net-(J5-Pin_3)*%
X158240000Y-90740000D03*
%TO.N,/SCL*%
X158240000Y-88200000D03*
%TO.N,GND*%
X160780000Y-90740000D03*
%TO.N,/SDA*%
X160780000Y-88200000D03*
%TO.N,/DIG-PTT*%
X163320000Y-90740000D03*
%TO.N,Net-(J5-Pin_8)*%
X163320000Y-88200000D03*
%TD*%
D14*
%TO.N,/MISO*%
%TO.C,J4*%
X155700000Y-139000000D03*
D15*
%TO.N,+BATT*%
X155700000Y-136460000D03*
%TO.N,/SCK*%
X158240000Y-139000000D03*
%TO.N,/MOSI*%
X158240000Y-136460000D03*
%TO.N,/RESET*%
X160780000Y-139000000D03*
%TO.N,GND*%
X160780000Y-136460000D03*
%TD*%
D16*
%TO.N,GND*%
X159750000Y-98750000D03*
X144250000Y-90500000D03*
%TO.N,+3.3V*%
X146750000Y-120750000D03*
%TO.N,Net-(Q1-D)*%
X146750000Y-104250000D03*
%TO.N,GND*%
X164500000Y-93250000D03*
X156000000Y-93250000D03*
X155250000Y-113250000D03*
%TO.N,Net-(U7-PD3)*%
X159500000Y-122250000D03*
X148750000Y-109750000D03*
%TO.N,+3.3V*%
X163500000Y-135000000D03*
X158250000Y-118250000D03*
%TO.N,GND*%
X159500000Y-109250000D03*
X148750000Y-120000000D03*
X164250000Y-119250000D03*
X153000000Y-123250000D03*
X153000000Y-131250000D03*
X139000000Y-123750000D03*
X139000000Y-113750000D03*
X140750000Y-94000000D03*
X151250000Y-92500000D03*
X165750000Y-77000000D03*
X165250000Y-69000000D03*
X139750000Y-69000000D03*
X151750000Y-69000000D03*
X151000000Y-76750000D03*
X151000000Y-81500000D03*
X151000000Y-85000000D03*
X142500000Y-85500000D03*
X151250000Y-89750000D03*
%TO.N,+3.3V*%
X146000000Y-106750000D03*
X146000000Y-102000000D03*
X146000000Y-97500000D03*
X148531250Y-86250000D03*
%TO.N,GND*%
X150500000Y-112750000D03*
X150500000Y-114500000D03*
%TO.N,+3.3V*%
X151500000Y-114000000D03*
%TO.N,Net-(U2-HIGH{slash}LOW)*%
X164250000Y-97250000D03*
%TO.N,+BATT*%
X139000000Y-111000000D03*
X166000000Y-108500000D03*
X139000000Y-92000000D03*
X139000000Y-88000000D03*
X139000000Y-96000000D03*
X139000000Y-100750000D03*
X139000000Y-105750000D03*
X151750000Y-78750000D03*
%TO.N,Net-(J5-Pin_8)*%
X150750000Y-116500000D03*
%TO.N,/SDA*%
X156000000Y-107400000D03*
%TO.N,/SCL*%
X155000000Y-107400000D03*
%TO.N,Net-(J5-Pin_1)*%
X153925735Y-107400000D03*
%TO.N,Net-(J5-Pin_3)*%
X153250000Y-106750000D03*
%TO.N,Net-(Q2-C)*%
X164500000Y-105000000D03*
%TO.N,Net-(Q4-D)*%
X140750000Y-97250000D03*
%TO.N,Net-(Q4-S)*%
X154250000Y-116500000D03*
X151000000Y-104500000D03*
%TO.N,Net-(Q3-D)*%
X140750000Y-102000000D03*
%TO.N,Net-(Q3-S)*%
X148000000Y-104500000D03*
X153350000Y-116250000D03*
%TO.N,/RESET*%
X152750000Y-111250000D03*
X155500000Y-121000000D03*
X156650000Y-132750000D03*
%TO.N,+BATT*%
X166000000Y-81500000D03*
%TO.N,Net-(D1-K)*%
X151750000Y-74750000D03*
X139750000Y-81500000D03*
%TO.N,Net-(U2-ANTENNA)*%
X145750000Y-85750000D03*
%TO.N,Net-(U2-MIC-IN)*%
X160000000Y-124000000D03*
%TO.N,/MOSI*%
X157250000Y-133750000D03*
%TD*%
%TA.AperFunction,Conductor*%
%TO.N,GND*%
G36*
X166692539Y-68270185D02*
G01*
X166738294Y-68322989D01*
X166749500Y-68374500D01*
X166749500Y-69875500D01*
X166729815Y-69942539D01*
X166677011Y-69988294D01*
X166625500Y-69999500D01*
X166618872Y-69999500D01*
X166387772Y-70029926D01*
X166358884Y-70033730D01*
X166105581Y-70101602D01*
X166105571Y-70101605D01*
X165863309Y-70201953D01*
X165863299Y-70201958D01*
X165636196Y-70333075D01*
X165428148Y-70492718D01*
X165242718Y-70678148D01*
X165083075Y-70886196D01*
X164951958Y-71113299D01*
X164951953Y-71113309D01*
X164851605Y-71355571D01*
X164851602Y-71355581D01*
X164783730Y-71608885D01*
X164749500Y-71868872D01*
X164749500Y-72131127D01*
X164766797Y-72262500D01*
X164783730Y-72391116D01*
X164823054Y-72537876D01*
X164851602Y-72644418D01*
X164851605Y-72644428D01*
X164951953Y-72886690D01*
X164951958Y-72886700D01*
X165083075Y-73113803D01*
X165242718Y-73321851D01*
X165242726Y-73321860D01*
X165428140Y-73507274D01*
X165428148Y-73507281D01*
X165636196Y-73666924D01*
X165863299Y-73798041D01*
X165863309Y-73798046D01*
X166105571Y-73898394D01*
X166105581Y-73898398D01*
X166358884Y-73966270D01*
X166618880Y-74000500D01*
X166625500Y-74000500D01*
X166692539Y-74020185D01*
X166738294Y-74072989D01*
X166749500Y-74124500D01*
X166749500Y-80818060D01*
X166729815Y-80885099D01*
X166677011Y-80930854D01*
X166607853Y-80940798D01*
X166544297Y-80911773D01*
X166537819Y-80905741D01*
X166502262Y-80870184D01*
X166349523Y-80774211D01*
X166179254Y-80714631D01*
X166179249Y-80714630D01*
X166000004Y-80694435D01*
X165999996Y-80694435D01*
X165820750Y-80714630D01*
X165820745Y-80714631D01*
X165650476Y-80774211D01*
X165497737Y-80870184D01*
X165370184Y-80997737D01*
X165274211Y-81150476D01*
X165214631Y-81320745D01*
X165214630Y-81320750D01*
X165194435Y-81499996D01*
X165194435Y-81500003D01*
X165214630Y-81679249D01*
X165214631Y-81679254D01*
X165274211Y-81849523D01*
X165370184Y-82002262D01*
X165497738Y-82129816D01*
X165650478Y-82225789D01*
X165765566Y-82266060D01*
X165820745Y-82285368D01*
X165820750Y-82285369D01*
X165999996Y-82305565D01*
X166000000Y-82305565D01*
X166000004Y-82305565D01*
X166179249Y-82285369D01*
X166179252Y-82285368D01*
X166179255Y-82285368D01*
X166349522Y-82225789D01*
X166502262Y-82129816D01*
X166537819Y-82094259D01*
X166599142Y-82060774D01*
X166668834Y-82065758D01*
X166724767Y-82107630D01*
X166749184Y-82173094D01*
X166749500Y-82181940D01*
X166749500Y-107818060D01*
X166729815Y-107885099D01*
X166677011Y-107930854D01*
X166607853Y-107940798D01*
X166544297Y-107911773D01*
X166537819Y-107905741D01*
X166502262Y-107870184D01*
X166349523Y-107774211D01*
X166179254Y-107714631D01*
X166179249Y-107714630D01*
X166000004Y-107694435D01*
X165999996Y-107694435D01*
X165820750Y-107714630D01*
X165820745Y-107714631D01*
X165650476Y-107774211D01*
X165497737Y-107870184D01*
X165370184Y-107997737D01*
X165274211Y-108150476D01*
X165214631Y-108320745D01*
X165214630Y-108320750D01*
X165194435Y-108499996D01*
X165194435Y-108500003D01*
X165214630Y-108679249D01*
X165214631Y-108679254D01*
X165274211Y-108849523D01*
X165333849Y-108944435D01*
X165370184Y-109002262D01*
X165497738Y-109129816D01*
X165650478Y-109225789D01*
X165713202Y-109247737D01*
X165820745Y-109285368D01*
X165820750Y-109285369D01*
X165999996Y-109305565D01*
X166000000Y-109305565D01*
X166000004Y-109305565D01*
X166179249Y-109285369D01*
X166179252Y-109285368D01*
X166179255Y-109285368D01*
X166349522Y-109225789D01*
X166502262Y-109129816D01*
X166537819Y-109094259D01*
X166599142Y-109060774D01*
X166668834Y-109065758D01*
X166724767Y-109107630D01*
X166749184Y-109173094D01*
X166749500Y-109181940D01*
X166749500Y-124626000D01*
X166729815Y-124693039D01*
X166677011Y-124738794D01*
X166625500Y-124750000D01*
X166618905Y-124750000D01*
X166358990Y-124784220D01*
X166358979Y-124784222D01*
X166105744Y-124852075D01*
X165863528Y-124952404D01*
X165863517Y-124952409D01*
X165636471Y-125083496D01*
X165428480Y-125243092D01*
X165428473Y-125243098D01*
X165243098Y-125428473D01*
X165243092Y-125428480D01*
X165083496Y-125636471D01*
X164952409Y-125863517D01*
X164952404Y-125863528D01*
X164852075Y-126105744D01*
X164784221Y-126358983D01*
X164765654Y-126499999D01*
X164765655Y-126500000D01*
X166024015Y-126500000D01*
X166000000Y-126651623D01*
X166000000Y-126848377D01*
X166024015Y-127000000D01*
X164765655Y-127000000D01*
X164784221Y-127141016D01*
X164852075Y-127394255D01*
X164952404Y-127636471D01*
X164952409Y-127636482D01*
X165083496Y-127863528D01*
X165243092Y-128071519D01*
X165243098Y-128071526D01*
X165428473Y-128256901D01*
X165428480Y-128256907D01*
X165636471Y-128416503D01*
X165863517Y-128547590D01*
X165863528Y-128547595D01*
X166105744Y-128647924D01*
X166358979Y-128715777D01*
X166358990Y-128715779D01*
X166618905Y-128749999D01*
X166618920Y-128750000D01*
X166625500Y-128750000D01*
X166692539Y-128769685D01*
X166738294Y-128822489D01*
X166749500Y-128874000D01*
X166749500Y-130001000D01*
X166729815Y-130068039D01*
X166677011Y-130113794D01*
X166625500Y-130125000D01*
X166618905Y-130125000D01*
X166358990Y-130159220D01*
X166358979Y-130159222D01*
X166105744Y-130227075D01*
X165863528Y-130327404D01*
X165863517Y-130327409D01*
X165636471Y-130458496D01*
X165428480Y-130618092D01*
X165428473Y-130618098D01*
X165243098Y-130803473D01*
X165243092Y-130803480D01*
X165083496Y-131011471D01*
X164952409Y-131238517D01*
X164952404Y-131238528D01*
X164852075Y-131480744D01*
X164784221Y-131733983D01*
X164765654Y-131874999D01*
X164765655Y-131875000D01*
X166024015Y-131875000D01*
X166000000Y-132026623D01*
X166000000Y-132223377D01*
X166024015Y-132375000D01*
X164765655Y-132375000D01*
X164784221Y-132516016D01*
X164852075Y-132769255D01*
X164952404Y-133011471D01*
X164952409Y-133011482D01*
X165083496Y-133238528D01*
X165243092Y-133446519D01*
X165243098Y-133446526D01*
X165428473Y-133631901D01*
X165428480Y-133631907D01*
X165636471Y-133791503D01*
X165863517Y-133922590D01*
X165863528Y-133922595D01*
X166105744Y-134022924D01*
X166358979Y-134090777D01*
X166358990Y-134090779D01*
X166618905Y-134124999D01*
X166618920Y-134125000D01*
X166625500Y-134125000D01*
X166692539Y-134144685D01*
X166738294Y-134197489D01*
X166749500Y-134249000D01*
X166749500Y-135376000D01*
X166729815Y-135443039D01*
X166677011Y-135488794D01*
X166625500Y-135500000D01*
X166618905Y-135500000D01*
X166358990Y-135534220D01*
X166358979Y-135534222D01*
X166105744Y-135602075D01*
X165863528Y-135702404D01*
X165863517Y-135702409D01*
X165636471Y-135833496D01*
X165428480Y-135993092D01*
X165428473Y-135993098D01*
X165243098Y-136178473D01*
X165243092Y-136178480D01*
X165083496Y-136386471D01*
X164952409Y-136613517D01*
X164952404Y-136613528D01*
X164852075Y-136855744D01*
X164784221Y-137108983D01*
X164765654Y-137249999D01*
X164765655Y-137250000D01*
X166024015Y-137250000D01*
X166000000Y-137401623D01*
X166000000Y-137598377D01*
X166024015Y-137750000D01*
X164765655Y-137750000D01*
X164784221Y-137891016D01*
X164852075Y-138144255D01*
X164952404Y-138386471D01*
X164952409Y-138386482D01*
X165083496Y-138613528D01*
X165243092Y-138821519D01*
X165243098Y-138821526D01*
X165428473Y-139006901D01*
X165428480Y-139006907D01*
X165636471Y-139166503D01*
X165863517Y-139297590D01*
X165863528Y-139297595D01*
X166105744Y-139397924D01*
X166358979Y-139465777D01*
X166358990Y-139465779D01*
X166618905Y-139499999D01*
X166618920Y-139500000D01*
X166625500Y-139500000D01*
X166692539Y-139519685D01*
X166738294Y-139572489D01*
X166749500Y-139624000D01*
X166749500Y-140625500D01*
X166729815Y-140692539D01*
X166677011Y-140738294D01*
X166625500Y-140749500D01*
X154124000Y-140749500D01*
X154056961Y-140729815D01*
X154011206Y-140677011D01*
X154000000Y-140625500D01*
X154000000Y-136459999D01*
X154344341Y-136459999D01*
X154344341Y-136460000D01*
X154364936Y-136695403D01*
X154364938Y-136695413D01*
X154426094Y-136923655D01*
X154426096Y-136923659D01*
X154426097Y-136923663D01*
X154506004Y-137095023D01*
X154525965Y-137137830D01*
X154525967Y-137137834D01*
X154604507Y-137250000D01*
X154661501Y-137331396D01*
X154661506Y-137331402D01*
X154783430Y-137453326D01*
X154816915Y-137514649D01*
X154811931Y-137584341D01*
X154770059Y-137640274D01*
X154739083Y-137657189D01*
X154607669Y-137706203D01*
X154607664Y-137706206D01*
X154492455Y-137792452D01*
X154492452Y-137792455D01*
X154406206Y-137907664D01*
X154406202Y-137907671D01*
X154355908Y-138042517D01*
X154349501Y-138102116D01*
X154349500Y-138102135D01*
X154349500Y-139897870D01*
X154349501Y-139897876D01*
X154355908Y-139957483D01*
X154406202Y-140092328D01*
X154406206Y-140092335D01*
X154492452Y-140207544D01*
X154492455Y-140207547D01*
X154607664Y-140293793D01*
X154607671Y-140293797D01*
X154742517Y-140344091D01*
X154742516Y-140344091D01*
X154749444Y-140344835D01*
X154802127Y-140350500D01*
X156597872Y-140350499D01*
X156657483Y-140344091D01*
X156792331Y-140293796D01*
X156907546Y-140207546D01*
X156993796Y-140092331D01*
X157042810Y-139960916D01*
X157084681Y-139904984D01*
X157150145Y-139880566D01*
X157218418Y-139895417D01*
X157246673Y-139916569D01*
X157368599Y-140038495D01*
X157465384Y-140106265D01*
X157562165Y-140174032D01*
X157562167Y-140174033D01*
X157562170Y-140174035D01*
X157776337Y-140273903D01*
X158004592Y-140335063D01*
X158181034Y-140350500D01*
X158239999Y-140355659D01*
X158240000Y-140355659D01*
X158240001Y-140355659D01*
X158298966Y-140350500D01*
X158475408Y-140335063D01*
X158703663Y-140273903D01*
X158917830Y-140174035D01*
X159111401Y-140038495D01*
X159278495Y-139871401D01*
X159408425Y-139685842D01*
X159463002Y-139642217D01*
X159532500Y-139635023D01*
X159594855Y-139666546D01*
X159611575Y-139685842D01*
X159741500Y-139871395D01*
X159741505Y-139871401D01*
X159908599Y-140038495D01*
X160005384Y-140106265D01*
X160102165Y-140174032D01*
X160102167Y-140174033D01*
X160102170Y-140174035D01*
X160316337Y-140273903D01*
X160544592Y-140335063D01*
X160721034Y-140350500D01*
X160779999Y-140355659D01*
X160780000Y-140355659D01*
X160780001Y-140355659D01*
X160838966Y-140350500D01*
X161015408Y-140335063D01*
X161243663Y-140273903D01*
X161457830Y-140174035D01*
X161651401Y-140038495D01*
X161818495Y-139871401D01*
X161954035Y-139677830D01*
X162053903Y-139463663D01*
X162115063Y-139235408D01*
X162135659Y-139000000D01*
X162115063Y-138764592D01*
X162053903Y-138536337D01*
X161954035Y-138322171D01*
X161948425Y-138314158D01*
X161818494Y-138128597D01*
X161651402Y-137961506D01*
X161651401Y-137961505D01*
X161465405Y-137831269D01*
X161421781Y-137776692D01*
X161414588Y-137707193D01*
X161446110Y-137644839D01*
X161465405Y-137628119D01*
X161651082Y-137498105D01*
X161818105Y-137331082D01*
X161953600Y-137137578D01*
X162053429Y-136923492D01*
X162053432Y-136923486D01*
X162110636Y-136710000D01*
X161213012Y-136710000D01*
X161245925Y-136652993D01*
X161280000Y-136525826D01*
X161280000Y-136394174D01*
X161245925Y-136267007D01*
X161213012Y-136210000D01*
X162110636Y-136210000D01*
X162110635Y-136209999D01*
X162053432Y-135996513D01*
X162053429Y-135996507D01*
X161953600Y-135782422D01*
X161953599Y-135782420D01*
X161818113Y-135588926D01*
X161818108Y-135588920D01*
X161651082Y-135421894D01*
X161457578Y-135286399D01*
X161243492Y-135186570D01*
X161243486Y-135186567D01*
X161030000Y-135129364D01*
X161030000Y-136026988D01*
X160972993Y-135994075D01*
X160845826Y-135960000D01*
X160714174Y-135960000D01*
X160587007Y-135994075D01*
X160530000Y-136026988D01*
X160530000Y-135129364D01*
X160529999Y-135129364D01*
X160316513Y-135186567D01*
X160316507Y-135186570D01*
X160102422Y-135286399D01*
X160102420Y-135286400D01*
X159908926Y-135421886D01*
X159908920Y-135421891D01*
X159741891Y-135588920D01*
X159741890Y-135588922D01*
X159611880Y-135774595D01*
X159557303Y-135818219D01*
X159487804Y-135825412D01*
X159425450Y-135793890D01*
X159408730Y-135774594D01*
X159278494Y-135588597D01*
X159111402Y-135421506D01*
X159111395Y-135421501D01*
X158917834Y-135285967D01*
X158917830Y-135285965D01*
X158917828Y-135285964D01*
X158703663Y-135186097D01*
X158703659Y-135186096D01*
X158703655Y-135186094D01*
X158475413Y-135124938D01*
X158475403Y-135124936D01*
X158240001Y-135104341D01*
X158239999Y-135104341D01*
X158004596Y-135124936D01*
X158004586Y-135124938D01*
X157776344Y-135186094D01*
X157776335Y-135186098D01*
X157562171Y-135285964D01*
X157562169Y-135285965D01*
X157368597Y-135421505D01*
X157201505Y-135588597D01*
X157071575Y-135774158D01*
X157016998Y-135817783D01*
X156947500Y-135824977D01*
X156885145Y-135793454D01*
X156868425Y-135774158D01*
X156738494Y-135588597D01*
X156571402Y-135421506D01*
X156571395Y-135421501D01*
X156377834Y-135285967D01*
X156377830Y-135285965D01*
X156377828Y-135285964D01*
X156163663Y-135186097D01*
X156163659Y-135186096D01*
X156163655Y-135186094D01*
X155935413Y-135124938D01*
X155935403Y-135124936D01*
X155700001Y-135104341D01*
X155699999Y-135104341D01*
X155464596Y-135124936D01*
X155464586Y-135124938D01*
X155236344Y-135186094D01*
X155236335Y-135186098D01*
X155022171Y-135285964D01*
X155022169Y-135285965D01*
X154828597Y-135421505D01*
X154661505Y-135588597D01*
X154525965Y-135782169D01*
X154525964Y-135782171D01*
X154426098Y-135996335D01*
X154426094Y-135996344D01*
X154364938Y-136224586D01*
X154364936Y-136224596D01*
X154344341Y-136459999D01*
X154000000Y-136459999D01*
X154000000Y-134999996D01*
X162694435Y-134999996D01*
X162694435Y-135000003D01*
X162714630Y-135179249D01*
X162714631Y-135179254D01*
X162774211Y-135349523D01*
X162856394Y-135480315D01*
X162870184Y-135502262D01*
X162997738Y-135629816D01*
X163150478Y-135725789D01*
X163312320Y-135782420D01*
X163320745Y-135785368D01*
X163320750Y-135785369D01*
X163499996Y-135805565D01*
X163500000Y-135805565D01*
X163500004Y-135805565D01*
X163679249Y-135785369D01*
X163679252Y-135785368D01*
X163679255Y-135785368D01*
X163849522Y-135725789D01*
X164002262Y-135629816D01*
X164129816Y-135502262D01*
X164225789Y-135349522D01*
X164285368Y-135179255D01*
X164285369Y-135179249D01*
X164305565Y-135000003D01*
X164305565Y-134999996D01*
X164285369Y-134820750D01*
X164285368Y-134820745D01*
X164225788Y-134650476D01*
X164153461Y-134535369D01*
X164129816Y-134497738D01*
X164002262Y-134370184D01*
X163849523Y-134274211D01*
X163679254Y-134214631D01*
X163679249Y-134214630D01*
X163500004Y-134194435D01*
X163499996Y-134194435D01*
X163320750Y-134214630D01*
X163320745Y-134214631D01*
X163150476Y-134274211D01*
X162997737Y-134370184D01*
X162870184Y-134497737D01*
X162774211Y-134650476D01*
X162714631Y-134820745D01*
X162714630Y-134820750D01*
X162694435Y-134999996D01*
X154000000Y-134999996D01*
X154000000Y-134500000D01*
X140250000Y-134500000D01*
X140250000Y-140625500D01*
X140230315Y-140692539D01*
X140177511Y-140738294D01*
X140126000Y-140749500D01*
X137874500Y-140749500D01*
X137807461Y-140729815D01*
X137761706Y-140677011D01*
X137750500Y-140625500D01*
X137750500Y-139624000D01*
X137770185Y-139556961D01*
X137822989Y-139511206D01*
X137874500Y-139500000D01*
X137881080Y-139500000D01*
X137881094Y-139499999D01*
X138141009Y-139465779D01*
X138141020Y-139465777D01*
X138394255Y-139397924D01*
X138636471Y-139297595D01*
X138636482Y-139297590D01*
X138863528Y-139166503D01*
X139071519Y-139006907D01*
X139071526Y-139006901D01*
X139256901Y-138821526D01*
X139256907Y-138821519D01*
X139416503Y-138613528D01*
X139547590Y-138386482D01*
X139547595Y-138386471D01*
X139647924Y-138144255D01*
X139715778Y-137891016D01*
X139734345Y-137750000D01*
X138475985Y-137750000D01*
X138500000Y-137598377D01*
X138500000Y-137401623D01*
X138475985Y-137250000D01*
X139734345Y-137250000D01*
X139734345Y-137249999D01*
X139715778Y-137108983D01*
X139647924Y-136855744D01*
X139547595Y-136613528D01*
X139547590Y-136613517D01*
X139416503Y-136386471D01*
X139256907Y-136178480D01*
X139256901Y-136178473D01*
X139071526Y-135993098D01*
X139071519Y-135993092D01*
X138863528Y-135833496D01*
X138636482Y-135702409D01*
X138636471Y-135702404D01*
X138394255Y-135602075D01*
X138141020Y-135534222D01*
X138141009Y-135534220D01*
X137881094Y-135500000D01*
X137874500Y-135500000D01*
X137807461Y-135480315D01*
X137761706Y-135427511D01*
X137750500Y-135376000D01*
X137750500Y-134249000D01*
X137770185Y-134181961D01*
X137822989Y-134136206D01*
X137874500Y-134125000D01*
X137881080Y-134125000D01*
X137881094Y-134124999D01*
X138141009Y-134090779D01*
X138141020Y-134090777D01*
X138394255Y-134022924D01*
X138636471Y-133922595D01*
X138636482Y-133922590D01*
X138863528Y-133791503D01*
X139071519Y-133631907D01*
X139071526Y-133631901D01*
X139256901Y-133446526D01*
X139256907Y-133446519D01*
X139416503Y-133238528D01*
X139547590Y-133011482D01*
X139547595Y-133011471D01*
X139647924Y-132769255D01*
X139653084Y-132749996D01*
X155844435Y-132749996D01*
X155844435Y-132750003D01*
X155864630Y-132929249D01*
X155864631Y-132929254D01*
X155924211Y-133099523D01*
X155983636Y-133194096D01*
X156020184Y-133252262D01*
X156147738Y-133379816D01*
X156300478Y-133475789D01*
X156375360Y-133501991D01*
X156432136Y-133542712D01*
X156457884Y-133607665D01*
X156457626Y-133632916D01*
X156444435Y-133749995D01*
X156444435Y-133750003D01*
X156464630Y-133929249D01*
X156464631Y-133929254D01*
X156524211Y-134099523D01*
X156576011Y-134181961D01*
X156620184Y-134252262D01*
X156747738Y-134379816D01*
X156900478Y-134475789D01*
X157070745Y-134535368D01*
X157070750Y-134535369D01*
X157249996Y-134555565D01*
X157250000Y-134555565D01*
X157250004Y-134555565D01*
X157429249Y-134535369D01*
X157429252Y-134535368D01*
X157429255Y-134535368D01*
X157599522Y-134475789D01*
X157752262Y-134379816D01*
X157879816Y-134252262D01*
X157975789Y-134099522D01*
X158035368Y-133929255D01*
X158035369Y-133929249D01*
X158055565Y-133750003D01*
X158055565Y-133749996D01*
X158035369Y-133570750D01*
X158035368Y-133570745D01*
X157975788Y-133400476D01*
X157936582Y-133338080D01*
X157879816Y-133247738D01*
X157752262Y-133120184D01*
X157719379Y-133099522D01*
X157599523Y-133024211D01*
X157524638Y-132998008D01*
X157467862Y-132957286D01*
X157442115Y-132892333D01*
X157442373Y-132867082D01*
X157455565Y-132750002D01*
X157455565Y-132749996D01*
X157435369Y-132570750D01*
X157435368Y-132570745D01*
X157375788Y-132400476D01*
X157314232Y-132302511D01*
X157279816Y-132247738D01*
X157152262Y-132120184D01*
X156999523Y-132024211D01*
X156829254Y-131964631D01*
X156829249Y-131964630D01*
X156650004Y-131944435D01*
X156649996Y-131944435D01*
X156470750Y-131964630D01*
X156470745Y-131964631D01*
X156300476Y-132024211D01*
X156147737Y-132120184D01*
X156020184Y-132247737D01*
X155924211Y-132400476D01*
X155864631Y-132570745D01*
X155864630Y-132570750D01*
X155844435Y-132749996D01*
X139653084Y-132749996D01*
X139715778Y-132516016D01*
X139734345Y-132375000D01*
X138475985Y-132375000D01*
X138500000Y-132223377D01*
X138500000Y-132026623D01*
X138475985Y-131875000D01*
X139734345Y-131875000D01*
X139734345Y-131874999D01*
X139715778Y-131733983D01*
X139647924Y-131480744D01*
X139547595Y-131238528D01*
X139547590Y-131238517D01*
X139416503Y-131011471D01*
X139256907Y-130803480D01*
X139256901Y-130803473D01*
X139071526Y-130618098D01*
X139071519Y-130618092D01*
X138863528Y-130458496D01*
X138636482Y-130327409D01*
X138636471Y-130327404D01*
X138394255Y-130227075D01*
X138141020Y-130159222D01*
X138141009Y-130159220D01*
X137881094Y-130125000D01*
X137874500Y-130125000D01*
X137807461Y-130105315D01*
X137761706Y-130052511D01*
X137750500Y-130001000D01*
X137750500Y-128874000D01*
X137770185Y-128806961D01*
X137822989Y-128761206D01*
X137874500Y-128750000D01*
X137881080Y-128750000D01*
X137881094Y-128749999D01*
X138141009Y-128715779D01*
X138141020Y-128715777D01*
X138394255Y-128647924D01*
X138636471Y-128547595D01*
X138636482Y-128547590D01*
X138863528Y-128416503D01*
X139071519Y-128256907D01*
X139071526Y-128256901D01*
X139256901Y-128071526D01*
X139256907Y-128071519D01*
X139416503Y-127863528D01*
X139547590Y-127636482D01*
X139547595Y-127636471D01*
X139647924Y-127394255D01*
X139715778Y-127141016D01*
X139734345Y-127000000D01*
X138475985Y-127000000D01*
X138500000Y-126848377D01*
X138500000Y-126651623D01*
X138475985Y-126500000D01*
X139734345Y-126500000D01*
X139734345Y-126499999D01*
X139715778Y-126358983D01*
X139647924Y-126105744D01*
X139547595Y-125863528D01*
X139547590Y-125863517D01*
X139416503Y-125636471D01*
X139256907Y-125428480D01*
X139256901Y-125428473D01*
X139071526Y-125243098D01*
X139071519Y-125243092D01*
X138863528Y-125083496D01*
X138636482Y-124952409D01*
X138636471Y-124952404D01*
X138394255Y-124852075D01*
X138141020Y-124784222D01*
X138141009Y-124784220D01*
X137881094Y-124750000D01*
X137874500Y-124750000D01*
X137807461Y-124730315D01*
X137761706Y-124677511D01*
X137750500Y-124626000D01*
X137750500Y-122249996D01*
X158694435Y-122249996D01*
X158694435Y-122250003D01*
X158714630Y-122429249D01*
X158714631Y-122429254D01*
X158774211Y-122599523D01*
X158870184Y-122752262D01*
X158997738Y-122879816D01*
X159150478Y-122975789D01*
X159244298Y-123008618D01*
X159320745Y-123035368D01*
X159320750Y-123035369D01*
X159499996Y-123055565D01*
X159500000Y-123055565D01*
X159500002Y-123055565D01*
X159547042Y-123050264D01*
X159567496Y-123047960D01*
X159636318Y-123060014D01*
X159687697Y-123107363D01*
X159705322Y-123174973D01*
X159683596Y-123241379D01*
X159647353Y-123276173D01*
X159497739Y-123370182D01*
X159370184Y-123497737D01*
X159274211Y-123650476D01*
X159214631Y-123820745D01*
X159214630Y-123820750D01*
X159194435Y-123999996D01*
X159194435Y-124000003D01*
X159214630Y-124179249D01*
X159214631Y-124179254D01*
X159274211Y-124349523D01*
X159370184Y-124502262D01*
X159497738Y-124629816D01*
X159650478Y-124725789D01*
X159817464Y-124784220D01*
X159820745Y-124785368D01*
X159820750Y-124785369D01*
X159999996Y-124805565D01*
X160000000Y-124805565D01*
X160000004Y-124805565D01*
X160179249Y-124785369D01*
X160179252Y-124785368D01*
X160179255Y-124785368D01*
X160349522Y-124725789D01*
X160502262Y-124629816D01*
X160629816Y-124502262D01*
X160725789Y-124349522D01*
X160785368Y-124179255D01*
X160805565Y-124000000D01*
X160785368Y-123820745D01*
X160725789Y-123650478D01*
X160629816Y-123497738D01*
X160502262Y-123370184D01*
X160352645Y-123276173D01*
X160349523Y-123274211D01*
X160179254Y-123214631D01*
X160179249Y-123214630D01*
X160000004Y-123194435D01*
X159999995Y-123194435D01*
X159932501Y-123202039D01*
X159863680Y-123189984D01*
X159812301Y-123142634D01*
X159794677Y-123075024D01*
X159816404Y-123008618D01*
X159852645Y-122973826D01*
X160002262Y-122879816D01*
X160129816Y-122752262D01*
X160225789Y-122599522D01*
X160285368Y-122429255D01*
X160305565Y-122250000D01*
X160285368Y-122070745D01*
X160225789Y-121900478D01*
X160129816Y-121747738D01*
X160002262Y-121620184D01*
X159899422Y-121555565D01*
X159849523Y-121524211D01*
X159679254Y-121464631D01*
X159679249Y-121464630D01*
X159500004Y-121444435D01*
X159499996Y-121444435D01*
X159320750Y-121464630D01*
X159320745Y-121464631D01*
X159150476Y-121524211D01*
X158997737Y-121620184D01*
X158870184Y-121747737D01*
X158774211Y-121900476D01*
X158714631Y-122070745D01*
X158714630Y-122070750D01*
X158694435Y-122249996D01*
X137750500Y-122249996D01*
X137750500Y-120749996D01*
X145944435Y-120749996D01*
X145944435Y-120750003D01*
X145964630Y-120929249D01*
X145964631Y-120929254D01*
X146024211Y-121099523D01*
X146120184Y-121252262D01*
X146247738Y-121379816D01*
X146338080Y-121436582D01*
X146382721Y-121464632D01*
X146400478Y-121475789D01*
X146538860Y-121524211D01*
X146570745Y-121535368D01*
X146570750Y-121535369D01*
X146749996Y-121555565D01*
X146750000Y-121555565D01*
X146750004Y-121555565D01*
X146929249Y-121535369D01*
X146929252Y-121535368D01*
X146929255Y-121535368D01*
X147099522Y-121475789D01*
X147252262Y-121379816D01*
X147379816Y-121252262D01*
X147475789Y-121099522D01*
X147510615Y-120999996D01*
X154694435Y-120999996D01*
X154694435Y-121000003D01*
X154714630Y-121179249D01*
X154714631Y-121179254D01*
X154774211Y-121349523D01*
X154833849Y-121444435D01*
X154870184Y-121502262D01*
X154997738Y-121629816D01*
X155150478Y-121725789D01*
X155213202Y-121747737D01*
X155320745Y-121785368D01*
X155320750Y-121785369D01*
X155499996Y-121805565D01*
X155500000Y-121805565D01*
X155500004Y-121805565D01*
X155679249Y-121785369D01*
X155679252Y-121785368D01*
X155679255Y-121785368D01*
X155849522Y-121725789D01*
X156002262Y-121629816D01*
X156129816Y-121502262D01*
X156225789Y-121349522D01*
X156285368Y-121179255D01*
X156305565Y-121000000D01*
X156297593Y-120929249D01*
X156285369Y-120820750D01*
X156285368Y-120820745D01*
X156225788Y-120650476D01*
X156186582Y-120588080D01*
X156129816Y-120497738D01*
X156002262Y-120370184D01*
X155849523Y-120274211D01*
X155679254Y-120214631D01*
X155679249Y-120214630D01*
X155500004Y-120194435D01*
X155499996Y-120194435D01*
X155320750Y-120214630D01*
X155320745Y-120214631D01*
X155150476Y-120274211D01*
X154997737Y-120370184D01*
X154870184Y-120497737D01*
X154774211Y-120650476D01*
X154714631Y-120820745D01*
X154714630Y-120820750D01*
X154694435Y-120999996D01*
X147510615Y-120999996D01*
X147535368Y-120929255D01*
X147535369Y-120929249D01*
X147555565Y-120750003D01*
X147555565Y-120749996D01*
X147535369Y-120570750D01*
X147535368Y-120570745D01*
X147475788Y-120400476D01*
X147379815Y-120247737D01*
X147252262Y-120120184D01*
X147099523Y-120024211D01*
X146929254Y-119964631D01*
X146929249Y-119964630D01*
X146750004Y-119944435D01*
X146749996Y-119944435D01*
X146570750Y-119964630D01*
X146570745Y-119964631D01*
X146400476Y-120024211D01*
X146247737Y-120120184D01*
X146120184Y-120247737D01*
X146024211Y-120400476D01*
X145964631Y-120570745D01*
X145964630Y-120570750D01*
X145944435Y-120749996D01*
X137750500Y-120749996D01*
X137750500Y-118249996D01*
X157444435Y-118249996D01*
X157444435Y-118250003D01*
X157464630Y-118429249D01*
X157464631Y-118429254D01*
X157524211Y-118599523D01*
X157620184Y-118752262D01*
X157747738Y-118879816D01*
X157900478Y-118975789D01*
X158070745Y-119035368D01*
X158070750Y-119035369D01*
X158249996Y-119055565D01*
X158250000Y-119055565D01*
X158250004Y-119055565D01*
X158429249Y-119035369D01*
X158429252Y-119035368D01*
X158429255Y-119035368D01*
X158599522Y-118975789D01*
X158752262Y-118879816D01*
X158879816Y-118752262D01*
X158975789Y-118599522D01*
X159035368Y-118429255D01*
X159055565Y-118250000D01*
X159035368Y-118070745D01*
X158975789Y-117900478D01*
X158879816Y-117747738D01*
X158752262Y-117620184D01*
X158599523Y-117524211D01*
X158429254Y-117464631D01*
X158429249Y-117464630D01*
X158250004Y-117444435D01*
X158249996Y-117444435D01*
X158070750Y-117464630D01*
X158070745Y-117464631D01*
X157900476Y-117524211D01*
X157747737Y-117620184D01*
X157620184Y-117747737D01*
X157524211Y-117900476D01*
X157464631Y-118070745D01*
X157464630Y-118070750D01*
X157444435Y-118249996D01*
X137750500Y-118249996D01*
X137750500Y-116499996D01*
X149944435Y-116499996D01*
X149944435Y-116500003D01*
X149964630Y-116679249D01*
X149964631Y-116679254D01*
X150024211Y-116849523D01*
X150103549Y-116975788D01*
X150120184Y-117002262D01*
X150247738Y-117129816D01*
X150400478Y-117225789D01*
X150570745Y-117285368D01*
X150570750Y-117285369D01*
X150749996Y-117305565D01*
X150750000Y-117305565D01*
X150750004Y-117305565D01*
X150929249Y-117285369D01*
X150929252Y-117285368D01*
X150929255Y-117285368D01*
X151099522Y-117225789D01*
X151252262Y-117129816D01*
X151379816Y-117002262D01*
X151475789Y-116849522D01*
X151535368Y-116679255D01*
X151555565Y-116500000D01*
X151547593Y-116429249D01*
X151535369Y-116320750D01*
X151535368Y-116320745D01*
X151510612Y-116249996D01*
X152544435Y-116249996D01*
X152544435Y-116250003D01*
X152564630Y-116429249D01*
X152564631Y-116429254D01*
X152624211Y-116599523D01*
X152720184Y-116752262D01*
X152847738Y-116879816D01*
X153000478Y-116975789D01*
X153170745Y-117035368D01*
X153170750Y-117035369D01*
X153349996Y-117055565D01*
X153350000Y-117055565D01*
X153350004Y-117055565D01*
X153529249Y-117035369D01*
X153529250Y-117035368D01*
X153529255Y-117035368D01*
X153547596Y-117028949D01*
X153617374Y-117025387D01*
X153676232Y-117058310D01*
X153747738Y-117129816D01*
X153900478Y-117225789D01*
X154070745Y-117285368D01*
X154070750Y-117285369D01*
X154249996Y-117305565D01*
X154250000Y-117305565D01*
X154250004Y-117305565D01*
X154429249Y-117285369D01*
X154429252Y-117285368D01*
X154429255Y-117285368D01*
X154599522Y-117225789D01*
X154752262Y-117129816D01*
X154879816Y-117002262D01*
X154975789Y-116849522D01*
X155035368Y-116679255D01*
X155055565Y-116500000D01*
X155047593Y-116429249D01*
X155035369Y-116320750D01*
X155035368Y-116320745D01*
X154975788Y-116150476D01*
X154936582Y-116088080D01*
X154879816Y-115997738D01*
X154752262Y-115870184D01*
X154599523Y-115774211D01*
X154429254Y-115714631D01*
X154429249Y-115714630D01*
X154250004Y-115694435D01*
X154249996Y-115694435D01*
X154070746Y-115714631D01*
X154070745Y-115714631D01*
X154052401Y-115721050D01*
X153982622Y-115724611D01*
X153923767Y-115691689D01*
X153852262Y-115620184D01*
X153699523Y-115524211D01*
X153529254Y-115464631D01*
X153529249Y-115464630D01*
X153350004Y-115444435D01*
X153349996Y-115444435D01*
X153170750Y-115464630D01*
X153170745Y-115464631D01*
X153000476Y-115524211D01*
X152847737Y-115620184D01*
X152720184Y-115747737D01*
X152624211Y-115900476D01*
X152564631Y-116070745D01*
X152564630Y-116070750D01*
X152544435Y-116249996D01*
X151510612Y-116249996D01*
X151475788Y-116150476D01*
X151436582Y-116088080D01*
X151379816Y-115997738D01*
X151252262Y-115870184D01*
X151099523Y-115774211D01*
X150929254Y-115714631D01*
X150929249Y-115714630D01*
X150750004Y-115694435D01*
X150749996Y-115694435D01*
X150570750Y-115714630D01*
X150570745Y-115714631D01*
X150400476Y-115774211D01*
X150247737Y-115870184D01*
X150120184Y-115997737D01*
X150024211Y-116150476D01*
X149964631Y-116320745D01*
X149964630Y-116320750D01*
X149944435Y-116499996D01*
X137750500Y-116499996D01*
X137750500Y-113999996D01*
X150694435Y-113999996D01*
X150694435Y-114000003D01*
X150714630Y-114179249D01*
X150714631Y-114179254D01*
X150774211Y-114349523D01*
X150870184Y-114502262D01*
X150997738Y-114629816D01*
X151150478Y-114725789D01*
X151320745Y-114785368D01*
X151320750Y-114785369D01*
X151499996Y-114805565D01*
X151500000Y-114805565D01*
X151500004Y-114805565D01*
X151679249Y-114785369D01*
X151679252Y-114785368D01*
X151679255Y-114785368D01*
X151849522Y-114725789D01*
X152002262Y-114629816D01*
X152129816Y-114502262D01*
X152225789Y-114349522D01*
X152285368Y-114179255D01*
X152305565Y-114000000D01*
X152285368Y-113820745D01*
X152225789Y-113650478D01*
X152129816Y-113497738D01*
X152002262Y-113370184D01*
X151849523Y-113274211D01*
X151679254Y-113214631D01*
X151679249Y-113214630D01*
X151500004Y-113194435D01*
X151499996Y-113194435D01*
X151320750Y-113214630D01*
X151320745Y-113214631D01*
X151150476Y-113274211D01*
X150997737Y-113370184D01*
X150870184Y-113497737D01*
X150774211Y-113650476D01*
X150714631Y-113820745D01*
X150714630Y-113820750D01*
X150694435Y-113999996D01*
X137750500Y-113999996D01*
X137750500Y-110999996D01*
X138194435Y-110999996D01*
X138194435Y-111000003D01*
X138214630Y-111179249D01*
X138214631Y-111179254D01*
X138274211Y-111349523D01*
X138370184Y-111502262D01*
X138497738Y-111629816D01*
X138650478Y-111725789D01*
X138820745Y-111785368D01*
X138820750Y-111785369D01*
X138999996Y-111805565D01*
X139000000Y-111805565D01*
X139000004Y-111805565D01*
X139179249Y-111785369D01*
X139179252Y-111785368D01*
X139179255Y-111785368D01*
X139349522Y-111725789D01*
X139502262Y-111629816D01*
X139629816Y-111502262D01*
X139725789Y-111349522D01*
X139760615Y-111249996D01*
X151944435Y-111249996D01*
X151944435Y-111250003D01*
X151964630Y-111429249D01*
X151964631Y-111429254D01*
X152024211Y-111599523D01*
X152103549Y-111725788D01*
X152120184Y-111752262D01*
X152247738Y-111879816D01*
X152400478Y-111975789D01*
X152570745Y-112035368D01*
X152570750Y-112035369D01*
X152749996Y-112055565D01*
X152750000Y-112055565D01*
X152750004Y-112055565D01*
X152929249Y-112035369D01*
X152929252Y-112035368D01*
X152929255Y-112035368D01*
X153099522Y-111975789D01*
X153252262Y-111879816D01*
X153379816Y-111752262D01*
X153475789Y-111599522D01*
X153535368Y-111429255D01*
X153555565Y-111250000D01*
X153547593Y-111179249D01*
X153535369Y-111070750D01*
X153535368Y-111070745D01*
X153475788Y-110900476D01*
X153436582Y-110838080D01*
X153379816Y-110747738D01*
X153252262Y-110620184D01*
X153149422Y-110555565D01*
X153099523Y-110524211D01*
X152929254Y-110464631D01*
X152929249Y-110464630D01*
X152750004Y-110444435D01*
X152749996Y-110444435D01*
X152570750Y-110464630D01*
X152570745Y-110464631D01*
X152400476Y-110524211D01*
X152247737Y-110620184D01*
X152120184Y-110747737D01*
X152024211Y-110900476D01*
X151964631Y-111070745D01*
X151964630Y-111070750D01*
X151944435Y-111249996D01*
X139760615Y-111249996D01*
X139785368Y-111179255D01*
X139785369Y-111179249D01*
X139805565Y-111000003D01*
X139805565Y-110999996D01*
X139785369Y-110820750D01*
X139785368Y-110820745D01*
X139725788Y-110650476D01*
X139653461Y-110535369D01*
X139629816Y-110497738D01*
X139502262Y-110370184D01*
X139349523Y-110274211D01*
X139179254Y-110214631D01*
X139179249Y-110214630D01*
X139000004Y-110194435D01*
X138999996Y-110194435D01*
X138820750Y-110214630D01*
X138820745Y-110214631D01*
X138650476Y-110274211D01*
X138497737Y-110370184D01*
X138370184Y-110497737D01*
X138274211Y-110650476D01*
X138214631Y-110820745D01*
X138214630Y-110820750D01*
X138194435Y-110999996D01*
X137750500Y-110999996D01*
X137750500Y-109749996D01*
X147944435Y-109749996D01*
X147944435Y-109750003D01*
X147964630Y-109929249D01*
X147964631Y-109929254D01*
X148024211Y-110099523D01*
X148083849Y-110194435D01*
X148120184Y-110252262D01*
X148247738Y-110379816D01*
X148338080Y-110436582D01*
X148382721Y-110464632D01*
X148400478Y-110475789D01*
X148463202Y-110497737D01*
X148570745Y-110535368D01*
X148570750Y-110535369D01*
X148749996Y-110555565D01*
X148750000Y-110555565D01*
X148750004Y-110555565D01*
X148929249Y-110535369D01*
X148929252Y-110535368D01*
X148929255Y-110535368D01*
X149099522Y-110475789D01*
X149252262Y-110379816D01*
X149379816Y-110252262D01*
X149475789Y-110099522D01*
X149535368Y-109929255D01*
X149555565Y-109750000D01*
X149535368Y-109570745D01*
X149475789Y-109400478D01*
X149379816Y-109247738D01*
X149252262Y-109120184D01*
X149099523Y-109024211D01*
X148929254Y-108964631D01*
X148929249Y-108964630D01*
X148750004Y-108944435D01*
X148749996Y-108944435D01*
X148570750Y-108964630D01*
X148570745Y-108964631D01*
X148400476Y-109024211D01*
X148247737Y-109120184D01*
X148120184Y-109247737D01*
X148024211Y-109400476D01*
X147964631Y-109570745D01*
X147964630Y-109570750D01*
X147944435Y-109749996D01*
X137750500Y-109749996D01*
X137750500Y-106749996D01*
X145194435Y-106749996D01*
X145194435Y-106750003D01*
X145214630Y-106929249D01*
X145214631Y-106929254D01*
X145274211Y-107099523D01*
X145350384Y-107220750D01*
X145370184Y-107252262D01*
X145497738Y-107379816D01*
X145650478Y-107475789D01*
X145820745Y-107535368D01*
X145820750Y-107535369D01*
X145999996Y-107555565D01*
X146000000Y-107555565D01*
X146000004Y-107555565D01*
X146179249Y-107535369D01*
X146179252Y-107535368D01*
X146179255Y-107535368D01*
X146349522Y-107475789D01*
X146502262Y-107379816D01*
X146629816Y-107252262D01*
X146725789Y-107099522D01*
X146785368Y-106929255D01*
X146788919Y-106897738D01*
X146805565Y-106750003D01*
X146805565Y-106749996D01*
X152444435Y-106749996D01*
X152444435Y-106750003D01*
X152464630Y-106929249D01*
X152464631Y-106929254D01*
X152524211Y-107099523D01*
X152600384Y-107220750D01*
X152620184Y-107252262D01*
X152747738Y-107379816D01*
X152900478Y-107475789D01*
X153070745Y-107535368D01*
X153070746Y-107535368D01*
X153076216Y-107537282D01*
X153132992Y-107578004D01*
X153152304Y-107613369D01*
X153199946Y-107749523D01*
X153215459Y-107774211D01*
X153295919Y-107902262D01*
X153423473Y-108029816D01*
X153576213Y-108125789D01*
X153746480Y-108185368D01*
X153746485Y-108185369D01*
X153925731Y-108205565D01*
X153925735Y-108205565D01*
X153925739Y-108205565D01*
X154104984Y-108185369D01*
X154104987Y-108185368D01*
X154104990Y-108185368D01*
X154275257Y-108125789D01*
X154396894Y-108049358D01*
X154464131Y-108030358D01*
X154528838Y-108049357D01*
X154650478Y-108125789D01*
X154820745Y-108185368D01*
X154820750Y-108185369D01*
X154999996Y-108205565D01*
X155000000Y-108205565D01*
X155000004Y-108205565D01*
X155179249Y-108185369D01*
X155179252Y-108185368D01*
X155179255Y-108185368D01*
X155349522Y-108125789D01*
X155434027Y-108072691D01*
X155501264Y-108053690D01*
X155565973Y-108072691D01*
X155650475Y-108125788D01*
X155820745Y-108185368D01*
X155820750Y-108185369D01*
X155999996Y-108205565D01*
X156000000Y-108205565D01*
X156000004Y-108205565D01*
X156179249Y-108185369D01*
X156179252Y-108185368D01*
X156179255Y-108185368D01*
X156349522Y-108125789D01*
X156502262Y-108029816D01*
X156629816Y-107902262D01*
X156725789Y-107749522D01*
X156785368Y-107579255D01*
X156785509Y-107578004D01*
X156805565Y-107400003D01*
X156805565Y-107399996D01*
X156785369Y-107220750D01*
X156785368Y-107220745D01*
X156725789Y-107050478D01*
X156629816Y-106897738D01*
X156502262Y-106770184D01*
X156470144Y-106750003D01*
X156349523Y-106674211D01*
X156179254Y-106614631D01*
X156179249Y-106614630D01*
X156000004Y-106594435D01*
X155999996Y-106594435D01*
X155820750Y-106614630D01*
X155820737Y-106614633D01*
X155650479Y-106674209D01*
X155565971Y-106727309D01*
X155498734Y-106746309D01*
X155434029Y-106727309D01*
X155349520Y-106674209D01*
X155179262Y-106614633D01*
X155179249Y-106614630D01*
X155000004Y-106594435D01*
X154999996Y-106594435D01*
X154820750Y-106614630D01*
X154820745Y-106614631D01*
X154650476Y-106674211D01*
X154528839Y-106750641D01*
X154461602Y-106769641D01*
X154396895Y-106750641D01*
X154275256Y-106674210D01*
X154164958Y-106635615D01*
X154104990Y-106614632D01*
X154104988Y-106614631D01*
X154099519Y-106612718D01*
X154042743Y-106571996D01*
X154023431Y-106536631D01*
X153975788Y-106400476D01*
X153936582Y-106338080D01*
X153879816Y-106247738D01*
X153752262Y-106120184D01*
X153719379Y-106099522D01*
X153599523Y-106024211D01*
X153429254Y-105964631D01*
X153429249Y-105964630D01*
X153250004Y-105944435D01*
X153249996Y-105944435D01*
X153070750Y-105964630D01*
X153070745Y-105964631D01*
X152900476Y-106024211D01*
X152747737Y-106120184D01*
X152620184Y-106247737D01*
X152524211Y-106400476D01*
X152464631Y-106570745D01*
X152464630Y-106570750D01*
X152444435Y-106749996D01*
X146805565Y-106749996D01*
X146785369Y-106570750D01*
X146785368Y-106570745D01*
X146725788Y-106400476D01*
X146686582Y-106338080D01*
X146629816Y-106247738D01*
X146502262Y-106120184D01*
X146469379Y-106099522D01*
X146349523Y-106024211D01*
X146179254Y-105964631D01*
X146179249Y-105964630D01*
X146000004Y-105944435D01*
X145999996Y-105944435D01*
X145820750Y-105964630D01*
X145820745Y-105964631D01*
X145650476Y-106024211D01*
X145497737Y-106120184D01*
X145370184Y-106247737D01*
X145274211Y-106400476D01*
X145214631Y-106570745D01*
X145214630Y-106570750D01*
X145194435Y-106749996D01*
X137750500Y-106749996D01*
X137750500Y-105749996D01*
X138194435Y-105749996D01*
X138194435Y-105750003D01*
X138214630Y-105929249D01*
X138214631Y-105929254D01*
X138274211Y-106099523D01*
X138367341Y-106247737D01*
X138370184Y-106252262D01*
X138497738Y-106379816D01*
X138650478Y-106475789D01*
X138820745Y-106535368D01*
X138820750Y-106535369D01*
X138999996Y-106555565D01*
X139000000Y-106555565D01*
X139000004Y-106555565D01*
X139179249Y-106535369D01*
X139179252Y-106535368D01*
X139179255Y-106535368D01*
X139349522Y-106475789D01*
X139502262Y-106379816D01*
X139629816Y-106252262D01*
X139725789Y-106099522D01*
X139785368Y-105929255D01*
X139785369Y-105929249D01*
X139805565Y-105750003D01*
X139805565Y-105749996D01*
X139785369Y-105570750D01*
X139785368Y-105570745D01*
X139725788Y-105400476D01*
X139653461Y-105285369D01*
X139629816Y-105247738D01*
X139502262Y-105120184D01*
X139399422Y-105055565D01*
X139349523Y-105024211D01*
X139179254Y-104964631D01*
X139179249Y-104964630D01*
X139000004Y-104944435D01*
X138999996Y-104944435D01*
X138820750Y-104964630D01*
X138820745Y-104964631D01*
X138650476Y-105024211D01*
X138497737Y-105120184D01*
X138370184Y-105247737D01*
X138274211Y-105400476D01*
X138214631Y-105570745D01*
X138214630Y-105570750D01*
X138194435Y-105749996D01*
X137750500Y-105749996D01*
X137750500Y-104249996D01*
X145944435Y-104249996D01*
X145944435Y-104250003D01*
X145964630Y-104429249D01*
X145964631Y-104429254D01*
X146024211Y-104599523D01*
X146120184Y-104752262D01*
X146247738Y-104879816D01*
X146293110Y-104908325D01*
X146385449Y-104966346D01*
X146400478Y-104975789D01*
X146538860Y-105024211D01*
X146570745Y-105035368D01*
X146570750Y-105035369D01*
X146749996Y-105055565D01*
X146750000Y-105055565D01*
X146750004Y-105055565D01*
X146929249Y-105035369D01*
X146929252Y-105035368D01*
X146929255Y-105035368D01*
X147099522Y-104975789D01*
X147114551Y-104966346D01*
X147141357Y-104949502D01*
X147176650Y-104927325D01*
X147243887Y-104908325D01*
X147310722Y-104928692D01*
X147347616Y-104966346D01*
X147370182Y-105002260D01*
X147370184Y-105002262D01*
X147497738Y-105129816D01*
X147650478Y-105225789D01*
X147713202Y-105247737D01*
X147820745Y-105285368D01*
X147820750Y-105285369D01*
X147999996Y-105305565D01*
X148000000Y-105305565D01*
X148000004Y-105305565D01*
X148179249Y-105285369D01*
X148179252Y-105285368D01*
X148179255Y-105285368D01*
X148349522Y-105225789D01*
X148502262Y-105129816D01*
X148629816Y-105002262D01*
X148725789Y-104849522D01*
X148785368Y-104679255D01*
X148785369Y-104679249D01*
X148805565Y-104500003D01*
X148805565Y-104499996D01*
X150194435Y-104499996D01*
X150194435Y-104500003D01*
X150214630Y-104679249D01*
X150214631Y-104679254D01*
X150274211Y-104849523D01*
X150323957Y-104928692D01*
X150370184Y-105002262D01*
X150497738Y-105129816D01*
X150650478Y-105225789D01*
X150713202Y-105247737D01*
X150820745Y-105285368D01*
X150820750Y-105285369D01*
X150999996Y-105305565D01*
X151000000Y-105305565D01*
X151000004Y-105305565D01*
X151179249Y-105285369D01*
X151179252Y-105285368D01*
X151179255Y-105285368D01*
X151349522Y-105225789D01*
X151502262Y-105129816D01*
X151629816Y-105002262D01*
X151631240Y-104999996D01*
X163694435Y-104999996D01*
X163694435Y-105000003D01*
X163714630Y-105179249D01*
X163714631Y-105179254D01*
X163774211Y-105349523D01*
X163870184Y-105502262D01*
X163997738Y-105629816D01*
X164150478Y-105725789D01*
X164219678Y-105750003D01*
X164320745Y-105785368D01*
X164320750Y-105785369D01*
X164499996Y-105805565D01*
X164500000Y-105805565D01*
X164500004Y-105805565D01*
X164679249Y-105785369D01*
X164679252Y-105785368D01*
X164679255Y-105785368D01*
X164849522Y-105725789D01*
X165002262Y-105629816D01*
X165129816Y-105502262D01*
X165225789Y-105349522D01*
X165285368Y-105179255D01*
X165285369Y-105179249D01*
X165305565Y-105000003D01*
X165305565Y-104999996D01*
X165285369Y-104820750D01*
X165285368Y-104820745D01*
X165261405Y-104752262D01*
X165225789Y-104650478D01*
X165129816Y-104497738D01*
X165002262Y-104370184D01*
X164849523Y-104274211D01*
X164679254Y-104214631D01*
X164679249Y-104214630D01*
X164500004Y-104194435D01*
X164499996Y-104194435D01*
X164320750Y-104214630D01*
X164320745Y-104214631D01*
X164150476Y-104274211D01*
X163997737Y-104370184D01*
X163870184Y-104497737D01*
X163774211Y-104650476D01*
X163714631Y-104820745D01*
X163714630Y-104820750D01*
X163694435Y-104999996D01*
X151631240Y-104999996D01*
X151725789Y-104849522D01*
X151785368Y-104679255D01*
X151785369Y-104679249D01*
X151805565Y-104500003D01*
X151805565Y-104499996D01*
X151785369Y-104320750D01*
X151785368Y-104320745D01*
X151725788Y-104150476D01*
X151686582Y-104088080D01*
X151629816Y-103997738D01*
X151502262Y-103870184D01*
X151456889Y-103841674D01*
X151349523Y-103774211D01*
X151179254Y-103714631D01*
X151179249Y-103714630D01*
X151000004Y-103694435D01*
X150999996Y-103694435D01*
X150820750Y-103714630D01*
X150820745Y-103714631D01*
X150650476Y-103774211D01*
X150497737Y-103870184D01*
X150370184Y-103997737D01*
X150274211Y-104150476D01*
X150214631Y-104320745D01*
X150214630Y-104320750D01*
X150194435Y-104499996D01*
X148805565Y-104499996D01*
X148785369Y-104320750D01*
X148785368Y-104320745D01*
X148725788Y-104150476D01*
X148686582Y-104088080D01*
X148629816Y-103997738D01*
X148502262Y-103870184D01*
X148456889Y-103841674D01*
X148349523Y-103774211D01*
X148179254Y-103714631D01*
X148179249Y-103714630D01*
X148000004Y-103694435D01*
X147999996Y-103694435D01*
X147820750Y-103714630D01*
X147820745Y-103714631D01*
X147650474Y-103774212D01*
X147573347Y-103822674D01*
X147506110Y-103841674D01*
X147439275Y-103821306D01*
X147402382Y-103783652D01*
X147379816Y-103747738D01*
X147252262Y-103620184D01*
X147099523Y-103524211D01*
X146929254Y-103464631D01*
X146929249Y-103464630D01*
X146750004Y-103444435D01*
X146749996Y-103444435D01*
X146570750Y-103464630D01*
X146570745Y-103464631D01*
X146400476Y-103524211D01*
X146247737Y-103620184D01*
X146120184Y-103747737D01*
X146024211Y-103900476D01*
X145964631Y-104070745D01*
X145964630Y-104070750D01*
X145944435Y-104249996D01*
X137750500Y-104249996D01*
X137750500Y-101999996D01*
X139944435Y-101999996D01*
X139944435Y-102000003D01*
X139964630Y-102179249D01*
X139964631Y-102179254D01*
X140024211Y-102349523D01*
X140120184Y-102502262D01*
X140247738Y-102629816D01*
X140400478Y-102725789D01*
X140570745Y-102785368D01*
X140570750Y-102785369D01*
X140749996Y-102805565D01*
X140750000Y-102805565D01*
X140750004Y-102805565D01*
X140929249Y-102785369D01*
X140929252Y-102785368D01*
X140929255Y-102785368D01*
X141099522Y-102725789D01*
X141252262Y-102629816D01*
X141379816Y-102502262D01*
X141475789Y-102349522D01*
X141535368Y-102179255D01*
X141555565Y-102000000D01*
X141555565Y-101999996D01*
X145194435Y-101999996D01*
X145194435Y-102000003D01*
X145214630Y-102179249D01*
X145214631Y-102179254D01*
X145274211Y-102349523D01*
X145370184Y-102502262D01*
X145497738Y-102629816D01*
X145650478Y-102725789D01*
X145820745Y-102785368D01*
X145820750Y-102785369D01*
X145999996Y-102805565D01*
X146000000Y-102805565D01*
X146000004Y-102805565D01*
X146179249Y-102785369D01*
X146179252Y-102785368D01*
X146179255Y-102785368D01*
X146349522Y-102725789D01*
X146502262Y-102629816D01*
X146629816Y-102502262D01*
X146725789Y-102349522D01*
X146785368Y-102179255D01*
X146805565Y-102000000D01*
X146785368Y-101820745D01*
X146725789Y-101650478D01*
X146629816Y-101497738D01*
X146502262Y-101370184D01*
X146349523Y-101274211D01*
X146179254Y-101214631D01*
X146179249Y-101214630D01*
X146000004Y-101194435D01*
X145999996Y-101194435D01*
X145820750Y-101214630D01*
X145820745Y-101214631D01*
X145650476Y-101274211D01*
X145497737Y-101370184D01*
X145370184Y-101497737D01*
X145274211Y-101650476D01*
X145214631Y-101820745D01*
X145214630Y-101820750D01*
X145194435Y-101999996D01*
X141555565Y-101999996D01*
X141535368Y-101820745D01*
X141475789Y-101650478D01*
X141379816Y-101497738D01*
X141252262Y-101370184D01*
X141099523Y-101274211D01*
X140929254Y-101214631D01*
X140929249Y-101214630D01*
X140750004Y-101194435D01*
X140749996Y-101194435D01*
X140570750Y-101214630D01*
X140570745Y-101214631D01*
X140400476Y-101274211D01*
X140247737Y-101370184D01*
X140120184Y-101497737D01*
X140024211Y-101650476D01*
X139964631Y-101820745D01*
X139964630Y-101820750D01*
X139944435Y-101999996D01*
X137750500Y-101999996D01*
X137750500Y-100749996D01*
X138194435Y-100749996D01*
X138194435Y-100750003D01*
X138214630Y-100929249D01*
X138214631Y-100929254D01*
X138274211Y-101099523D01*
X138333849Y-101194435D01*
X138370184Y-101252262D01*
X138497738Y-101379816D01*
X138650478Y-101475789D01*
X138713202Y-101497737D01*
X138820745Y-101535368D01*
X138820750Y-101535369D01*
X138999996Y-101555565D01*
X139000000Y-101555565D01*
X139000004Y-101555565D01*
X139179249Y-101535369D01*
X139179252Y-101535368D01*
X139179255Y-101535368D01*
X139349522Y-101475789D01*
X139502262Y-101379816D01*
X139629816Y-101252262D01*
X139725789Y-101099522D01*
X139785368Y-100929255D01*
X139805565Y-100750000D01*
X139785368Y-100570745D01*
X139725789Y-100400478D01*
X139629816Y-100247738D01*
X139502262Y-100120184D01*
X139349523Y-100024211D01*
X139179254Y-99964631D01*
X139179249Y-99964630D01*
X139000004Y-99944435D01*
X138999996Y-99944435D01*
X138820750Y-99964630D01*
X138820745Y-99964631D01*
X138650476Y-100024211D01*
X138497737Y-100120184D01*
X138370184Y-100247737D01*
X138274211Y-100400476D01*
X138214631Y-100570745D01*
X138214630Y-100570750D01*
X138194435Y-100749996D01*
X137750500Y-100749996D01*
X137750500Y-97249996D01*
X139944435Y-97249996D01*
X139944435Y-97250003D01*
X139964630Y-97429249D01*
X139964631Y-97429254D01*
X140024211Y-97599523D01*
X140120184Y-97752262D01*
X140247738Y-97879816D01*
X140400478Y-97975789D01*
X140570745Y-98035368D01*
X140570750Y-98035369D01*
X140749996Y-98055565D01*
X140750000Y-98055565D01*
X140750004Y-98055565D01*
X140929249Y-98035369D01*
X140929252Y-98035368D01*
X140929255Y-98035368D01*
X141099522Y-97975789D01*
X141252262Y-97879816D01*
X141379816Y-97752262D01*
X141475789Y-97599522D01*
X141510615Y-97499996D01*
X145194435Y-97499996D01*
X145194435Y-97500003D01*
X145214630Y-97679249D01*
X145214631Y-97679254D01*
X145274211Y-97849523D01*
X145353549Y-97975788D01*
X145370184Y-98002262D01*
X145497738Y-98129816D01*
X145650478Y-98225789D01*
X145820745Y-98285368D01*
X145820750Y-98285369D01*
X145999996Y-98305565D01*
X146000000Y-98305565D01*
X146000004Y-98305565D01*
X146179249Y-98285369D01*
X146179252Y-98285368D01*
X146179255Y-98285368D01*
X146349522Y-98225789D01*
X146502262Y-98129816D01*
X146629816Y-98002262D01*
X146725789Y-97849522D01*
X146785368Y-97679255D01*
X146805565Y-97500000D01*
X146797593Y-97429249D01*
X146785369Y-97320750D01*
X146785368Y-97320745D01*
X146760612Y-97249996D01*
X163444435Y-97249996D01*
X163444435Y-97250003D01*
X163464630Y-97429249D01*
X163464631Y-97429254D01*
X163524211Y-97599523D01*
X163620184Y-97752262D01*
X163747738Y-97879816D01*
X163900478Y-97975789D01*
X164070745Y-98035368D01*
X164070750Y-98035369D01*
X164249996Y-98055565D01*
X164250000Y-98055565D01*
X164250004Y-98055565D01*
X164429249Y-98035369D01*
X164429252Y-98035368D01*
X164429255Y-98035368D01*
X164599522Y-97975789D01*
X164752262Y-97879816D01*
X164879816Y-97752262D01*
X164975789Y-97599522D01*
X165035368Y-97429255D01*
X165035369Y-97429249D01*
X165055565Y-97250003D01*
X165055565Y-97249996D01*
X165035369Y-97070750D01*
X165035368Y-97070745D01*
X164975788Y-96900476D01*
X164903461Y-96785369D01*
X164879816Y-96747738D01*
X164752262Y-96620184D01*
X164599523Y-96524211D01*
X164429254Y-96464631D01*
X164429249Y-96464630D01*
X164250004Y-96444435D01*
X164249996Y-96444435D01*
X164070750Y-96464630D01*
X164070745Y-96464631D01*
X163900476Y-96524211D01*
X163747737Y-96620184D01*
X163620184Y-96747737D01*
X163524211Y-96900476D01*
X163464631Y-97070745D01*
X163464630Y-97070750D01*
X163444435Y-97249996D01*
X146760612Y-97249996D01*
X146725788Y-97150476D01*
X146686582Y-97088080D01*
X146629816Y-96997738D01*
X146502262Y-96870184D01*
X146399422Y-96805565D01*
X146349523Y-96774211D01*
X146179254Y-96714631D01*
X146179249Y-96714630D01*
X146000004Y-96694435D01*
X145999996Y-96694435D01*
X145820750Y-96714630D01*
X145820745Y-96714631D01*
X145650476Y-96774211D01*
X145497737Y-96870184D01*
X145370184Y-96997737D01*
X145274211Y-97150476D01*
X145214631Y-97320745D01*
X145214630Y-97320750D01*
X145194435Y-97499996D01*
X141510615Y-97499996D01*
X141535368Y-97429255D01*
X141535369Y-97429249D01*
X141555565Y-97250003D01*
X141555565Y-97249996D01*
X141535369Y-97070750D01*
X141535368Y-97070745D01*
X141475788Y-96900476D01*
X141403461Y-96785369D01*
X141379816Y-96747738D01*
X141252262Y-96620184D01*
X141099523Y-96524211D01*
X140929254Y-96464631D01*
X140929249Y-96464630D01*
X140750004Y-96444435D01*
X140749996Y-96444435D01*
X140570750Y-96464630D01*
X140570745Y-96464631D01*
X140400476Y-96524211D01*
X140247737Y-96620184D01*
X140120184Y-96747737D01*
X140024211Y-96900476D01*
X139964631Y-97070745D01*
X139964630Y-97070750D01*
X139944435Y-97249996D01*
X137750500Y-97249996D01*
X137750500Y-95999996D01*
X138194435Y-95999996D01*
X138194435Y-96000003D01*
X138214630Y-96179249D01*
X138214631Y-96179254D01*
X138274211Y-96349523D01*
X138333849Y-96444435D01*
X138370184Y-96502262D01*
X138497738Y-96629816D01*
X138588080Y-96686582D01*
X138632721Y-96714632D01*
X138650478Y-96725789D01*
X138713202Y-96747737D01*
X138820745Y-96785368D01*
X138820750Y-96785369D01*
X138999996Y-96805565D01*
X139000000Y-96805565D01*
X139000004Y-96805565D01*
X139179249Y-96785369D01*
X139179252Y-96785368D01*
X139179255Y-96785368D01*
X139349522Y-96725789D01*
X139502262Y-96629816D01*
X139629816Y-96502262D01*
X139725789Y-96349522D01*
X139785368Y-96179255D01*
X139805565Y-96000000D01*
X139785368Y-95820745D01*
X139725789Y-95650478D01*
X139629816Y-95497738D01*
X139502262Y-95370184D01*
X139349523Y-95274211D01*
X139179254Y-95214631D01*
X139179249Y-95214630D01*
X139000004Y-95194435D01*
X138999996Y-95194435D01*
X138820750Y-95214630D01*
X138820745Y-95214631D01*
X138650476Y-95274211D01*
X138497737Y-95370184D01*
X138370184Y-95497737D01*
X138274211Y-95650476D01*
X138214631Y-95820745D01*
X138214630Y-95820750D01*
X138194435Y-95999996D01*
X137750500Y-95999996D01*
X137750500Y-91999996D01*
X138194435Y-91999996D01*
X138194435Y-92000003D01*
X138214630Y-92179249D01*
X138214631Y-92179254D01*
X138274211Y-92349523D01*
X138370184Y-92502262D01*
X138497738Y-92629816D01*
X138650478Y-92725789D01*
X138820745Y-92785368D01*
X138820750Y-92785369D01*
X138999996Y-92805565D01*
X139000000Y-92805565D01*
X139000004Y-92805565D01*
X139179249Y-92785369D01*
X139179252Y-92785368D01*
X139179255Y-92785368D01*
X139349522Y-92725789D01*
X139502262Y-92629816D01*
X139629816Y-92502262D01*
X139725789Y-92349522D01*
X139785368Y-92179255D01*
X139794787Y-92095659D01*
X139805565Y-92000003D01*
X139805565Y-91999996D01*
X139785369Y-91820750D01*
X139785368Y-91820745D01*
X139725788Y-91650476D01*
X139629815Y-91497737D01*
X139502262Y-91370184D01*
X139349523Y-91274211D01*
X139179254Y-91214631D01*
X139179249Y-91214630D01*
X139000004Y-91194435D01*
X138999996Y-91194435D01*
X138820750Y-91214630D01*
X138820745Y-91214631D01*
X138650476Y-91274211D01*
X138497737Y-91370184D01*
X138370184Y-91497737D01*
X138274211Y-91650476D01*
X138214631Y-91820745D01*
X138214630Y-91820750D01*
X138194435Y-91999996D01*
X137750500Y-91999996D01*
X137750500Y-87999996D01*
X138194435Y-87999996D01*
X138194435Y-88000003D01*
X138214630Y-88179249D01*
X138214631Y-88179254D01*
X138274211Y-88349523D01*
X138328177Y-88435408D01*
X138370184Y-88502262D01*
X138497738Y-88629816D01*
X138650478Y-88725789D01*
X138820745Y-88785368D01*
X138820750Y-88785369D01*
X138999996Y-88805565D01*
X139000000Y-88805565D01*
X139000004Y-88805565D01*
X139179249Y-88785369D01*
X139179252Y-88785368D01*
X139179255Y-88785368D01*
X139349522Y-88725789D01*
X139502262Y-88629816D01*
X139629816Y-88502262D01*
X139725789Y-88349522D01*
X139778109Y-88199999D01*
X154344341Y-88199999D01*
X154344341Y-88200000D01*
X154364936Y-88435403D01*
X154364938Y-88435413D01*
X154426094Y-88663655D01*
X154426096Y-88663659D01*
X154426097Y-88663663D01*
X154455067Y-88725789D01*
X154525965Y-88877830D01*
X154525967Y-88877834D01*
X154634281Y-89032521D01*
X154661501Y-89071396D01*
X154661506Y-89071402D01*
X154783430Y-89193326D01*
X154816915Y-89254649D01*
X154811931Y-89324341D01*
X154770059Y-89380274D01*
X154739083Y-89397189D01*
X154607669Y-89446203D01*
X154607664Y-89446206D01*
X154492455Y-89532452D01*
X154492452Y-89532455D01*
X154406206Y-89647664D01*
X154406202Y-89647671D01*
X154355908Y-89782517D01*
X154349501Y-89842116D01*
X154349500Y-89842135D01*
X154349500Y-91637870D01*
X154349501Y-91637876D01*
X154355908Y-91697483D01*
X154406202Y-91832328D01*
X154406206Y-91832335D01*
X154492452Y-91947544D01*
X154492455Y-91947547D01*
X154607664Y-92033793D01*
X154607671Y-92033797D01*
X154742517Y-92084091D01*
X154742516Y-92084091D01*
X154749444Y-92084835D01*
X154802127Y-92090500D01*
X156597872Y-92090499D01*
X156657483Y-92084091D01*
X156792331Y-92033796D01*
X156907546Y-91947546D01*
X156993796Y-91832331D01*
X157042810Y-91700916D01*
X157084681Y-91644984D01*
X157150145Y-91620566D01*
X157218418Y-91635417D01*
X157246673Y-91656569D01*
X157368599Y-91778495D01*
X157465384Y-91846265D01*
X157562165Y-91914032D01*
X157562167Y-91914033D01*
X157562170Y-91914035D01*
X157776337Y-92013903D01*
X158004592Y-92075063D01*
X158181034Y-92090500D01*
X158239999Y-92095659D01*
X158240000Y-92095659D01*
X158240001Y-92095659D01*
X158298966Y-92090500D01*
X158475408Y-92075063D01*
X158703663Y-92013903D01*
X158917830Y-91914035D01*
X159111401Y-91778495D01*
X159278495Y-91611401D01*
X159408730Y-91425405D01*
X159463307Y-91381781D01*
X159532805Y-91374587D01*
X159595160Y-91406110D01*
X159611879Y-91425405D01*
X159741890Y-91611078D01*
X159908917Y-91778105D01*
X160102421Y-91913600D01*
X160316507Y-92013429D01*
X160316516Y-92013433D01*
X160530000Y-92070634D01*
X160530000Y-91173012D01*
X160587007Y-91205925D01*
X160714174Y-91240000D01*
X160845826Y-91240000D01*
X160972993Y-91205925D01*
X161030000Y-91173012D01*
X161030000Y-92070633D01*
X161243483Y-92013433D01*
X161243492Y-92013429D01*
X161457578Y-91913600D01*
X161651082Y-91778105D01*
X161818105Y-91611082D01*
X161948119Y-91425405D01*
X162002696Y-91381781D01*
X162072195Y-91374588D01*
X162134549Y-91406110D01*
X162151269Y-91425405D01*
X162281505Y-91611401D01*
X162448599Y-91778495D01*
X162545384Y-91846265D01*
X162642165Y-91914032D01*
X162642167Y-91914033D01*
X162642170Y-91914035D01*
X162856337Y-92013903D01*
X163084592Y-92075063D01*
X163261034Y-92090500D01*
X163319999Y-92095659D01*
X163320000Y-92095659D01*
X163320001Y-92095659D01*
X163378966Y-92090500D01*
X163555408Y-92075063D01*
X163783663Y-92013903D01*
X163997830Y-91914035D01*
X164191401Y-91778495D01*
X164358495Y-91611401D01*
X164494035Y-91417830D01*
X164593903Y-91203663D01*
X164655063Y-90975408D01*
X164675659Y-90740000D01*
X164655063Y-90504592D01*
X164593903Y-90276337D01*
X164494035Y-90062171D01*
X164488731Y-90054595D01*
X164358494Y-89868597D01*
X164191402Y-89701506D01*
X164191396Y-89701501D01*
X164005842Y-89571575D01*
X163962217Y-89516998D01*
X163955023Y-89447500D01*
X163986546Y-89385145D01*
X164005842Y-89368425D01*
X164118054Y-89289853D01*
X164191401Y-89238495D01*
X164358495Y-89071401D01*
X164494035Y-88877830D01*
X164593903Y-88663663D01*
X164655063Y-88435408D01*
X164675659Y-88200000D01*
X164673843Y-88179249D01*
X164658161Y-88000000D01*
X164655063Y-87964592D01*
X164593903Y-87736337D01*
X164494035Y-87522171D01*
X164488425Y-87514158D01*
X164358494Y-87328597D01*
X164191402Y-87161506D01*
X164191395Y-87161501D01*
X163997834Y-87025967D01*
X163997830Y-87025965D01*
X163997828Y-87025964D01*
X163783663Y-86926097D01*
X163783659Y-86926096D01*
X163783655Y-86926094D01*
X163555413Y-86864938D01*
X163555403Y-86864936D01*
X163320001Y-86844341D01*
X163319999Y-86844341D01*
X163084596Y-86864936D01*
X163084586Y-86864938D01*
X162856344Y-86926094D01*
X162856335Y-86926098D01*
X162642171Y-87025964D01*
X162642169Y-87025965D01*
X162448597Y-87161505D01*
X162281505Y-87328597D01*
X162151575Y-87514158D01*
X162096998Y-87557783D01*
X162027500Y-87564977D01*
X161965145Y-87533454D01*
X161948425Y-87514158D01*
X161818494Y-87328597D01*
X161651402Y-87161506D01*
X161651395Y-87161501D01*
X161457834Y-87025967D01*
X161457830Y-87025965D01*
X161457828Y-87025964D01*
X161243663Y-86926097D01*
X161243659Y-86926096D01*
X161243655Y-86926094D01*
X161015413Y-86864938D01*
X161015403Y-86864936D01*
X160780001Y-86844341D01*
X160779999Y-86844341D01*
X160544596Y-86864936D01*
X160544586Y-86864938D01*
X160316344Y-86926094D01*
X160316335Y-86926098D01*
X160102171Y-87025964D01*
X160102169Y-87025965D01*
X159908597Y-87161505D01*
X159741505Y-87328597D01*
X159611575Y-87514158D01*
X159556998Y-87557783D01*
X159487500Y-87564977D01*
X159425145Y-87533454D01*
X159408425Y-87514158D01*
X159278494Y-87328597D01*
X159111402Y-87161506D01*
X159111395Y-87161501D01*
X158917834Y-87025967D01*
X158917830Y-87025965D01*
X158917828Y-87025964D01*
X158703663Y-86926097D01*
X158703659Y-86926096D01*
X158703655Y-86926094D01*
X158475413Y-86864938D01*
X158475403Y-86864936D01*
X158240001Y-86844341D01*
X158239999Y-86844341D01*
X158004596Y-86864936D01*
X158004586Y-86864938D01*
X157776344Y-86926094D01*
X157776335Y-86926098D01*
X157562171Y-87025964D01*
X157562169Y-87025965D01*
X157368597Y-87161505D01*
X157201505Y-87328597D01*
X157071575Y-87514158D01*
X157016998Y-87557783D01*
X156947500Y-87564977D01*
X156885145Y-87533454D01*
X156868425Y-87514158D01*
X156738494Y-87328597D01*
X156571402Y-87161506D01*
X156571395Y-87161501D01*
X156377834Y-87025967D01*
X156377830Y-87025965D01*
X156377828Y-87025964D01*
X156163663Y-86926097D01*
X156163659Y-86926096D01*
X156163655Y-86926094D01*
X155935413Y-86864938D01*
X155935403Y-86864936D01*
X155700001Y-86844341D01*
X155699999Y-86844341D01*
X155464596Y-86864936D01*
X155464586Y-86864938D01*
X155236344Y-86926094D01*
X155236335Y-86926098D01*
X155022171Y-87025964D01*
X155022169Y-87025965D01*
X154828597Y-87161505D01*
X154661505Y-87328597D01*
X154525965Y-87522169D01*
X154525964Y-87522171D01*
X154426098Y-87736335D01*
X154426094Y-87736344D01*
X154364938Y-87964586D01*
X154364936Y-87964596D01*
X154344341Y-88199999D01*
X139778109Y-88199999D01*
X139785368Y-88179255D01*
X139805565Y-88000000D01*
X139785368Y-87820745D01*
X139725789Y-87650478D01*
X139629816Y-87497738D01*
X139502262Y-87370184D01*
X139436077Y-87328597D01*
X139349523Y-87274211D01*
X139179254Y-87214631D01*
X139179249Y-87214630D01*
X139000004Y-87194435D01*
X138999996Y-87194435D01*
X138820750Y-87214630D01*
X138820745Y-87214631D01*
X138650476Y-87274211D01*
X138497737Y-87370184D01*
X138370184Y-87497737D01*
X138274211Y-87650476D01*
X138214631Y-87820745D01*
X138214630Y-87820750D01*
X138194435Y-87999996D01*
X137750500Y-87999996D01*
X137750500Y-85749996D01*
X144944435Y-85749996D01*
X144944435Y-85750003D01*
X144964630Y-85929249D01*
X144964631Y-85929254D01*
X145024211Y-86099523D01*
X145118760Y-86249996D01*
X145120184Y-86252262D01*
X145247738Y-86379816D01*
X145400478Y-86475789D01*
X145570745Y-86535368D01*
X145570750Y-86535369D01*
X145749996Y-86555565D01*
X145750000Y-86555565D01*
X145750004Y-86555565D01*
X145929249Y-86535369D01*
X145929252Y-86535368D01*
X145929255Y-86535368D01*
X146099522Y-86475789D01*
X146252262Y-86379816D01*
X146379816Y-86252262D01*
X146381240Y-86249996D01*
X147725685Y-86249996D01*
X147725685Y-86250003D01*
X147745880Y-86429249D01*
X147745881Y-86429254D01*
X147805461Y-86599523D01*
X147901434Y-86752262D01*
X148028988Y-86879816D01*
X148181728Y-86975789D01*
X148351995Y-87035368D01*
X148352000Y-87035369D01*
X148531246Y-87055565D01*
X148531250Y-87055565D01*
X148531254Y-87055565D01*
X148710499Y-87035369D01*
X148710502Y-87035368D01*
X148710505Y-87035368D01*
X148880772Y-86975789D01*
X149033512Y-86879816D01*
X149161066Y-86752262D01*
X149257039Y-86599522D01*
X149316618Y-86429255D01*
X149316619Y-86429249D01*
X149336815Y-86250003D01*
X149336815Y-86249996D01*
X149316619Y-86070750D01*
X149316618Y-86070745D01*
X149257039Y-85900478D01*
X149161066Y-85747738D01*
X149033512Y-85620184D01*
X148880773Y-85524211D01*
X148710504Y-85464631D01*
X148710499Y-85464630D01*
X148531254Y-85444435D01*
X148531246Y-85444435D01*
X148352000Y-85464630D01*
X148351995Y-85464631D01*
X148181726Y-85524211D01*
X148028987Y-85620184D01*
X147901434Y-85747737D01*
X147805461Y-85900476D01*
X147745881Y-86070745D01*
X147745880Y-86070750D01*
X147725685Y-86249996D01*
X146381240Y-86249996D01*
X146475789Y-86099522D01*
X146535368Y-85929255D01*
X146535369Y-85929249D01*
X146555565Y-85750003D01*
X146555565Y-85749996D01*
X146535369Y-85570750D01*
X146535368Y-85570745D01*
X146475788Y-85400476D01*
X146379815Y-85247737D01*
X146252262Y-85120184D01*
X146099523Y-85024211D01*
X145929254Y-84964631D01*
X145929249Y-84964630D01*
X145750004Y-84944435D01*
X145749996Y-84944435D01*
X145570750Y-84964630D01*
X145570745Y-84964631D01*
X145400476Y-85024211D01*
X145247737Y-85120184D01*
X145120184Y-85247737D01*
X145024211Y-85400476D01*
X144964631Y-85570745D01*
X144964630Y-85570750D01*
X144944435Y-85749996D01*
X137750500Y-85749996D01*
X137750500Y-82499999D01*
X158983179Y-82499999D01*
X158983179Y-82500000D01*
X159002424Y-82719976D01*
X159002426Y-82719986D01*
X159059575Y-82933270D01*
X159059580Y-82933284D01*
X159152898Y-83133405D01*
X159152901Y-83133411D01*
X159198258Y-83198187D01*
X159198258Y-83198188D01*
X159869000Y-82527446D01*
X159869000Y-82550160D01*
X159894964Y-82647061D01*
X159945124Y-82733940D01*
X160016060Y-82804876D01*
X160102939Y-82855036D01*
X160199840Y-82881000D01*
X160222553Y-82881000D01*
X159551810Y-83551740D01*
X159616590Y-83597099D01*
X159616592Y-83597100D01*
X159816715Y-83690419D01*
X159816729Y-83690424D01*
X160030013Y-83747573D01*
X160030023Y-83747575D01*
X160249999Y-83766821D01*
X160250001Y-83766821D01*
X160469976Y-83747575D01*
X160469986Y-83747573D01*
X160683270Y-83690424D01*
X160683284Y-83690419D01*
X160883407Y-83597100D01*
X160883417Y-83597094D01*
X160948188Y-83551741D01*
X160277448Y-82881000D01*
X160300160Y-82881000D01*
X160397061Y-82855036D01*
X160483940Y-82804876D01*
X160554876Y-82733940D01*
X160605036Y-82647061D01*
X160631000Y-82550160D01*
X160631000Y-82527447D01*
X161301741Y-83198188D01*
X161347094Y-83133417D01*
X161347100Y-83133407D01*
X161440419Y-82933284D01*
X161440424Y-82933270D01*
X161497573Y-82719986D01*
X161497575Y-82719976D01*
X161516821Y-82500000D01*
X161516821Y-82499999D01*
X161497575Y-82280023D01*
X161497573Y-82280013D01*
X161440424Y-82066729D01*
X161440420Y-82066720D01*
X161347096Y-81866586D01*
X161301741Y-81801811D01*
X161301740Y-81801810D01*
X160631000Y-82472551D01*
X160631000Y-82449840D01*
X160605036Y-82352939D01*
X160554876Y-82266060D01*
X160483940Y-82195124D01*
X160397061Y-82144964D01*
X160300160Y-82119000D01*
X160277447Y-82119000D01*
X160948188Y-81448258D01*
X160883411Y-81402901D01*
X160883405Y-81402898D01*
X160683284Y-81309580D01*
X160683270Y-81309575D01*
X160469986Y-81252426D01*
X160469976Y-81252424D01*
X160250001Y-81233179D01*
X160249999Y-81233179D01*
X160030023Y-81252424D01*
X160030013Y-81252426D01*
X159816729Y-81309575D01*
X159816720Y-81309579D01*
X159616590Y-81402901D01*
X159551811Y-81448258D01*
X160222554Y-82119000D01*
X160199840Y-82119000D01*
X160102939Y-82144964D01*
X160016060Y-82195124D01*
X159945124Y-82266060D01*
X159894964Y-82352939D01*
X159869000Y-82449840D01*
X159869000Y-82472553D01*
X159198258Y-81801811D01*
X159152901Y-81866590D01*
X159059579Y-82066720D01*
X159059575Y-82066729D01*
X159002426Y-82280013D01*
X159002424Y-82280023D01*
X158983179Y-82499999D01*
X137750500Y-82499999D01*
X137750500Y-81499996D01*
X138944435Y-81499996D01*
X138944435Y-81500003D01*
X138964630Y-81679249D01*
X138964631Y-81679254D01*
X139024211Y-81849523D01*
X139120184Y-82002262D01*
X139247738Y-82129816D01*
X139400478Y-82225789D01*
X139515566Y-82266060D01*
X139570745Y-82285368D01*
X139570750Y-82285369D01*
X139749996Y-82305565D01*
X139750000Y-82305565D01*
X139750004Y-82305565D01*
X139929249Y-82285369D01*
X139929252Y-82285368D01*
X139929255Y-82285368D01*
X140099522Y-82225789D01*
X140252262Y-82129816D01*
X140379816Y-82002262D01*
X140475789Y-81849522D01*
X140535368Y-81679255D01*
X140555565Y-81500000D01*
X140549735Y-81448258D01*
X140535369Y-81320750D01*
X140535368Y-81320745D01*
X140475788Y-81150476D01*
X140379815Y-80997737D01*
X140252262Y-80870184D01*
X140099523Y-80774211D01*
X139929254Y-80714631D01*
X139929249Y-80714630D01*
X139750004Y-80694435D01*
X139749996Y-80694435D01*
X139570750Y-80714630D01*
X139570745Y-80714631D01*
X139400476Y-80774211D01*
X139247737Y-80870184D01*
X139120184Y-80997737D01*
X139024211Y-81150476D01*
X138964631Y-81320745D01*
X138964630Y-81320750D01*
X138944435Y-81499996D01*
X137750500Y-81499996D01*
X137750500Y-78749996D01*
X150944435Y-78749996D01*
X150944435Y-78750003D01*
X150964630Y-78929249D01*
X150964631Y-78929254D01*
X151024211Y-79099523D01*
X151120184Y-79252262D01*
X151247738Y-79379816D01*
X151400478Y-79475789D01*
X151570745Y-79535368D01*
X151570750Y-79535369D01*
X151749996Y-79555565D01*
X151750000Y-79555565D01*
X151750004Y-79555565D01*
X151929249Y-79535369D01*
X151929252Y-79535368D01*
X151929255Y-79535368D01*
X152099522Y-79475789D01*
X152252262Y-79379816D01*
X152379816Y-79252262D01*
X152475789Y-79099522D01*
X152535368Y-78929255D01*
X152555565Y-78750000D01*
X152535368Y-78570745D01*
X152475789Y-78400478D01*
X152379816Y-78247738D01*
X152252262Y-78120184D01*
X152099523Y-78024211D01*
X151929254Y-77964631D01*
X151929249Y-77964630D01*
X151750004Y-77944435D01*
X151749996Y-77944435D01*
X151570750Y-77964630D01*
X151570745Y-77964631D01*
X151400476Y-78024211D01*
X151247737Y-78120184D01*
X151120184Y-78247737D01*
X151024211Y-78400476D01*
X150964631Y-78570745D01*
X150964630Y-78570750D01*
X150944435Y-78749996D01*
X137750500Y-78749996D01*
X137750500Y-74749996D01*
X150944435Y-74749996D01*
X150944435Y-74750003D01*
X150964630Y-74929249D01*
X150964631Y-74929254D01*
X151024211Y-75099523D01*
X151120184Y-75252262D01*
X151247738Y-75379816D01*
X151400478Y-75475789D01*
X151570745Y-75535368D01*
X151570750Y-75535369D01*
X151749996Y-75555565D01*
X151750000Y-75555565D01*
X151750004Y-75555565D01*
X151929249Y-75535369D01*
X151929252Y-75535368D01*
X151929255Y-75535368D01*
X152099522Y-75475789D01*
X152252262Y-75379816D01*
X152379816Y-75252262D01*
X152475789Y-75099522D01*
X152535368Y-74929255D01*
X152555565Y-74750000D01*
X152545381Y-74659618D01*
X152535369Y-74570750D01*
X152535368Y-74570745D01*
X152497360Y-74462124D01*
X152475789Y-74400478D01*
X152379816Y-74247738D01*
X152252262Y-74120184D01*
X152177152Y-74072989D01*
X152099523Y-74024211D01*
X151929254Y-73964631D01*
X151929249Y-73964630D01*
X151750004Y-73944435D01*
X151749996Y-73944435D01*
X151570750Y-73964630D01*
X151570745Y-73964631D01*
X151400476Y-74024211D01*
X151247737Y-74120184D01*
X151120184Y-74247737D01*
X151024211Y-74400476D01*
X150964631Y-74570745D01*
X150964630Y-74570750D01*
X150944435Y-74749996D01*
X137750500Y-74749996D01*
X137750500Y-74124500D01*
X137770185Y-74057461D01*
X137822989Y-74011706D01*
X137874500Y-74000500D01*
X137881113Y-74000500D01*
X137881120Y-74000500D01*
X138141116Y-73966270D01*
X138394419Y-73898398D01*
X138636697Y-73798043D01*
X138863803Y-73666924D01*
X139071851Y-73507282D01*
X139071855Y-73507277D01*
X139071860Y-73507274D01*
X139079135Y-73499999D01*
X143544357Y-73499999D01*
X143544357Y-73500000D01*
X143564884Y-73721535D01*
X143564885Y-73721537D01*
X143625769Y-73935523D01*
X143625775Y-73935538D01*
X143724938Y-74134683D01*
X143724943Y-74134691D01*
X143859020Y-74312238D01*
X144023437Y-74462123D01*
X144023439Y-74462125D01*
X144212595Y-74579245D01*
X144212596Y-74579245D01*
X144212599Y-74579247D01*
X144420060Y-74659618D01*
X144638757Y-74700500D01*
X144638759Y-74700500D01*
X144861241Y-74700500D01*
X144861243Y-74700500D01*
X145079940Y-74659618D01*
X145287401Y-74579247D01*
X145476562Y-74462124D01*
X145640981Y-74312236D01*
X145775058Y-74134689D01*
X145874229Y-73935528D01*
X145935115Y-73721536D01*
X145955643Y-73500000D01*
X145946868Y-73405306D01*
X145935115Y-73278464D01*
X145935114Y-73278462D01*
X145908621Y-73185350D01*
X145874229Y-73064472D01*
X145827904Y-72971439D01*
X145775061Y-72865316D01*
X145775056Y-72865308D01*
X145687979Y-72749999D01*
X149294859Y-72749999D01*
X149294859Y-72750000D01*
X149315378Y-72971439D01*
X149376240Y-73185350D01*
X149475364Y-73384419D01*
X149475366Y-73384421D01*
X149491138Y-73405306D01*
X150100000Y-72796445D01*
X150100000Y-72802661D01*
X150127259Y-72904394D01*
X150179920Y-72995606D01*
X150254394Y-73070080D01*
X150345606Y-73122741D01*
X150447339Y-73150000D01*
X150453554Y-73150000D01*
X149846671Y-73756880D01*
X149962823Y-73828798D01*
X149962824Y-73828799D01*
X150170195Y-73909134D01*
X150388807Y-73950000D01*
X150611193Y-73950000D01*
X150829804Y-73909134D01*
X151037177Y-73828798D01*
X151037178Y-73828797D01*
X151153327Y-73756880D01*
X150546447Y-73150000D01*
X150552661Y-73150000D01*
X150654394Y-73122741D01*
X150745606Y-73070080D01*
X150820080Y-72995606D01*
X150872741Y-72904394D01*
X150900000Y-72802661D01*
X150900000Y-72796446D01*
X151508860Y-73405306D01*
X151508861Y-73405306D01*
X151524631Y-73384425D01*
X151524632Y-73384422D01*
X151623759Y-73185350D01*
X151684621Y-72971439D01*
X151705141Y-72750000D01*
X151705141Y-72749999D01*
X151684621Y-72528560D01*
X151623759Y-72314649D01*
X151524633Y-72115577D01*
X151524631Y-72115574D01*
X151508860Y-72094691D01*
X150900000Y-72703552D01*
X150900000Y-72697339D01*
X150872741Y-72595606D01*
X150820080Y-72504394D01*
X150745606Y-72429920D01*
X150654394Y-72377259D01*
X150552661Y-72350000D01*
X150546447Y-72350000D01*
X151153327Y-71743118D01*
X151153326Y-71743117D01*
X151037181Y-71671203D01*
X151037175Y-71671200D01*
X150829804Y-71590865D01*
X150611193Y-71550000D01*
X150388807Y-71550000D01*
X150170195Y-71590865D01*
X149962824Y-71671200D01*
X149962818Y-71671204D01*
X149846672Y-71743117D01*
X149846671Y-71743118D01*
X150453554Y-72350000D01*
X150447339Y-72350000D01*
X150345606Y-72377259D01*
X150254394Y-72429920D01*
X150179920Y-72504394D01*
X150127259Y-72595606D01*
X150100000Y-72697339D01*
X150100000Y-72703553D01*
X149491138Y-72094691D01*
X149491137Y-72094691D01*
X149475369Y-72115571D01*
X149376240Y-72314649D01*
X149315378Y-72528560D01*
X149294859Y-72749999D01*
X145687979Y-72749999D01*
X145640979Y-72687761D01*
X145476562Y-72537876D01*
X145476560Y-72537874D01*
X145287404Y-72420754D01*
X145287398Y-72420752D01*
X145079940Y-72340382D01*
X144861243Y-72299500D01*
X144638757Y-72299500D01*
X144420060Y-72340382D01*
X144324870Y-72377259D01*
X144212601Y-72420752D01*
X144212595Y-72420754D01*
X144023439Y-72537874D01*
X144023437Y-72537876D01*
X143859020Y-72687761D01*
X143724943Y-72865308D01*
X143724938Y-72865316D01*
X143625775Y-73064461D01*
X143625769Y-73064476D01*
X143564885Y-73278462D01*
X143564884Y-73278464D01*
X143544357Y-73499999D01*
X139079135Y-73499999D01*
X139257274Y-73321860D01*
X139257277Y-73321855D01*
X139257282Y-73321851D01*
X139416924Y-73113803D01*
X139548043Y-72886697D01*
X139648398Y-72644419D01*
X139716270Y-72391116D01*
X139750500Y-72131120D01*
X139750500Y-71868880D01*
X139716270Y-71608884D01*
X139648398Y-71355581D01*
X139648394Y-71355571D01*
X139548046Y-71113309D01*
X139548041Y-71113299D01*
X139416924Y-70886196D01*
X139257281Y-70678148D01*
X139257274Y-70678140D01*
X139071860Y-70492726D01*
X139071851Y-70492718D01*
X138863803Y-70333075D01*
X138636700Y-70201958D01*
X138636690Y-70201953D01*
X138608159Y-70190135D01*
X158987500Y-70190135D01*
X158987500Y-71809870D01*
X158987501Y-71809876D01*
X158993908Y-71869483D01*
X159044202Y-72004328D01*
X159044206Y-72004335D01*
X159130452Y-72119544D01*
X159130455Y-72119547D01*
X159245664Y-72205793D01*
X159245671Y-72205797D01*
X159380517Y-72256091D01*
X159380516Y-72256091D01*
X159387444Y-72256835D01*
X159440127Y-72262500D01*
X161059872Y-72262499D01*
X161119483Y-72256091D01*
X161254331Y-72205796D01*
X161369546Y-72119546D01*
X161455796Y-72004331D01*
X161506091Y-71869483D01*
X161512500Y-71809873D01*
X161512499Y-70190128D01*
X161506091Y-70130517D01*
X161495306Y-70101602D01*
X161455797Y-69995671D01*
X161455793Y-69995664D01*
X161369547Y-69880455D01*
X161369544Y-69880452D01*
X161254335Y-69794206D01*
X161254328Y-69794202D01*
X161119482Y-69743908D01*
X161119483Y-69743908D01*
X161059883Y-69737501D01*
X161059881Y-69737500D01*
X161059873Y-69737500D01*
X161059864Y-69737500D01*
X159440129Y-69737500D01*
X159440123Y-69737501D01*
X159380516Y-69743908D01*
X159245671Y-69794202D01*
X159245664Y-69794206D01*
X159130455Y-69880452D01*
X159130452Y-69880455D01*
X159044206Y-69995664D01*
X159044202Y-69995671D01*
X158993908Y-70130517D01*
X158987501Y-70190116D01*
X158987501Y-70190123D01*
X158987500Y-70190135D01*
X138608159Y-70190135D01*
X138394428Y-70101605D01*
X138394421Y-70101603D01*
X138394419Y-70101602D01*
X138141116Y-70033730D01*
X138083339Y-70026123D01*
X137881127Y-69999500D01*
X137881120Y-69999500D01*
X137874500Y-69999500D01*
X137807461Y-69979815D01*
X137761706Y-69927011D01*
X137750500Y-69875500D01*
X137750500Y-68374500D01*
X137770185Y-68307461D01*
X137822989Y-68261706D01*
X137874500Y-68250500D01*
X166625500Y-68250500D01*
X166692539Y-68270185D01*
G37*
%TD.AperFunction*%
%TD*%
M02*
