%TF.GenerationSoftware,KiCad,Pcbnew,8.0.8*%
%TF.CreationDate,2025-01-26T19:35:19-06:00*%
%TF.ProjectId,ptSolar,7074536f-6c61-4722-9e6b-696361645f70,rev?*%
%TF.SameCoordinates,Original*%
%TF.FileFunction,Copper,L2,Inr*%
%TF.FilePolarity,Positive*%
%FSLAX46Y46*%
G04 Gerber Fmt 4.6, Leading zero omitted, Abs format (unit mm)*
G04 Created by KiCad (PCBNEW 8.0.8) date 2025-01-26 19:35:19*
%MOMM*%
%LPD*%
G01*
G04 APERTURE LIST*
%TA.AperFunction,ComponentPad*%
%ADD10C,1.400000*%
%TD*%
%TA.AperFunction,ComponentPad*%
%ADD11O,4.000000X3.000000*%
%TD*%
%TA.AperFunction,ComponentPad*%
%ADD12R,1.524000X1.524000*%
%TD*%
%TA.AperFunction,ComponentPad*%
%ADD13C,1.524000*%
%TD*%
%TA.AperFunction,ComponentPad*%
%ADD14R,1.700000X1.700000*%
%TD*%
%TA.AperFunction,ComponentPad*%
%ADD15O,1.700000X1.700000*%
%TD*%
%TA.AperFunction,ViaPad*%
%ADD16C,0.600000*%
%TD*%
%TA.AperFunction,Conductor*%
%ADD17C,0.600000*%
%TD*%
%TA.AperFunction,Conductor*%
%ADD18C,0.200000*%
%TD*%
G04 APERTURE END LIST*
D10*
%TO.N,GND*%
%TO.C,ANT2b1*%
X150500000Y-72750000D03*
%TD*%
%TO.N,Net-(ANT2-In)*%
%TO.C,ANT2a1*%
X144750000Y-73500000D03*
%TD*%
D11*
%TO.N,Net-(D4-A)*%
%TO.C,J1*%
X137250000Y-72000000D03*
%TO.N,GND*%
X137250000Y-126750000D03*
X137250000Y-132125000D03*
X137250000Y-137500000D03*
%TD*%
%TO.N,GND*%
%TO.C,J2*%
X167250000Y-137500000D03*
X167250000Y-132125000D03*
X167250000Y-126750000D03*
%TO.N,Net-(D5-A)*%
X167250000Y-72000000D03*
%TD*%
D12*
%TO.N,Net-(D1-K)*%
%TO.C,C1*%
X160250000Y-71000000D03*
D13*
%TO.N,GND*%
X160250000Y-82500000D03*
%TD*%
D14*
%TO.N,Net-(J5-Pin_1)*%
%TO.C,J5*%
X155700000Y-90740000D03*
D15*
%TO.N,+3.3V*%
X155700000Y-88200000D03*
%TO.N,Net-(J5-Pin_3)*%
X158240000Y-90740000D03*
%TO.N,/SCL*%
X158240000Y-88200000D03*
%TO.N,GND*%
X160780000Y-90740000D03*
%TO.N,/SDA*%
X160780000Y-88200000D03*
%TO.N,/DIG-PTT*%
X163320000Y-90740000D03*
%TO.N,Net-(J5-Pin_8)*%
X163320000Y-88200000D03*
%TD*%
D14*
%TO.N,/MISO*%
%TO.C,J4*%
X155700000Y-139000000D03*
D15*
%TO.N,+BATT*%
X155700000Y-136460000D03*
%TO.N,/SCK*%
X158240000Y-139000000D03*
%TO.N,/MOSI*%
X158240000Y-136460000D03*
%TO.N,/RESET*%
X160780000Y-139000000D03*
%TO.N,GND*%
X160780000Y-136460000D03*
%TD*%
D16*
%TO.N,GND*%
X159750000Y-98750000D03*
X144250000Y-90500000D03*
%TO.N,+3.3V*%
X146750000Y-120750000D03*
%TO.N,Net-(Q1-D)*%
X146750000Y-104250000D03*
%TO.N,GND*%
X164500000Y-93250000D03*
X156000000Y-93250000D03*
X155250000Y-113250000D03*
%TO.N,Net-(U7-PD3)*%
X159500000Y-122250000D03*
X148750000Y-109750000D03*
%TO.N,+3.3V*%
X163500000Y-135000000D03*
X158250000Y-118250000D03*
%TO.N,GND*%
X159500000Y-109250000D03*
X148750000Y-120000000D03*
X164250000Y-119250000D03*
X153000000Y-123250000D03*
X153000000Y-131250000D03*
X139000000Y-123750000D03*
X139000000Y-113750000D03*
X140750000Y-94000000D03*
X151250000Y-92500000D03*
X165750000Y-77000000D03*
X165250000Y-69000000D03*
X139750000Y-69000000D03*
X151750000Y-69000000D03*
X151000000Y-76750000D03*
X151000000Y-81500000D03*
X151000000Y-85000000D03*
X142500000Y-85500000D03*
X151250000Y-89750000D03*
%TO.N,+3.3V*%
X146000000Y-106750000D03*
X146000000Y-102000000D03*
X146000000Y-97500000D03*
X148531250Y-86250000D03*
%TO.N,GND*%
X150500000Y-112750000D03*
X150500000Y-114500000D03*
%TO.N,+3.3V*%
X151500000Y-114000000D03*
%TO.N,Net-(U2-HIGH{slash}LOW)*%
X164250000Y-97250000D03*
%TO.N,+BATT*%
X139000000Y-111000000D03*
X166000000Y-108500000D03*
X139000000Y-92000000D03*
X139000000Y-88000000D03*
X139000000Y-96000000D03*
X139000000Y-100750000D03*
X139000000Y-105750000D03*
X151750000Y-78750000D03*
%TO.N,Net-(J5-Pin_8)*%
X150750000Y-116500000D03*
%TO.N,/SDA*%
X156000000Y-107400000D03*
%TO.N,/SCL*%
X155000000Y-107400000D03*
%TO.N,Net-(J5-Pin_1)*%
X153925735Y-107400000D03*
%TO.N,Net-(J5-Pin_3)*%
X153250000Y-106750000D03*
%TO.N,Net-(Q2-C)*%
X164500000Y-105000000D03*
%TO.N,Net-(Q4-D)*%
X140750000Y-97250000D03*
%TO.N,Net-(Q4-S)*%
X154250000Y-116500000D03*
X151000000Y-104500000D03*
%TO.N,Net-(Q3-D)*%
X140750000Y-102000000D03*
%TO.N,Net-(Q3-S)*%
X148000000Y-104500000D03*
X153350000Y-116250000D03*
%TO.N,/RESET*%
X152750000Y-111250000D03*
X155500000Y-121000000D03*
X156650000Y-132750000D03*
%TO.N,+BATT*%
X166000000Y-81500000D03*
%TO.N,Net-(D1-K)*%
X151750000Y-74750000D03*
X139750000Y-81500000D03*
%TO.N,Net-(U2-ANTENNA)*%
X145750000Y-85750000D03*
%TO.N,Net-(U2-MIC-IN)*%
X160000000Y-124000000D03*
%TO.N,/MOSI*%
X157250000Y-133750000D03*
%TD*%
D17*
%TO.N,+BATT*%
X139000000Y-84500000D02*
X139000000Y-96000000D01*
X144750000Y-78750000D02*
X139000000Y-84500000D01*
X151750000Y-78750000D02*
X144750000Y-78750000D01*
X139000000Y-105750000D02*
X139000000Y-111000000D01*
X139000000Y-100750000D02*
X139000000Y-105750000D01*
X139000000Y-96000000D02*
X139000000Y-100750000D01*
D18*
%TO.N,Net-(J5-Pin_8)*%
X156600000Y-110650000D02*
X150750000Y-116500000D01*
X156600000Y-107210122D02*
X156600000Y-110650000D01*
X161330000Y-92920000D02*
X161330000Y-102480122D01*
X164500000Y-90000000D02*
X164500000Y-91500000D01*
X163750000Y-92250000D02*
X162000000Y-92250000D01*
X164500000Y-91500000D02*
X163750000Y-92250000D01*
X162000000Y-92250000D02*
X161330000Y-92920000D01*
X163320000Y-88820000D02*
X164500000Y-90000000D01*
X161330000Y-102480122D02*
X156600000Y-107210122D01*
X163320000Y-88200000D02*
X163320000Y-88820000D01*
%TO.N,/SCL*%
X158240000Y-88200000D02*
X158240000Y-88970000D01*
%TD*%
%TA.AperFunction,Conductor*%
%TO.N,+3.3V*%
G36*
X139135099Y-68270185D02*
G01*
X139180854Y-68322989D01*
X139190798Y-68392147D01*
X139161773Y-68455703D01*
X139155741Y-68462181D01*
X139120184Y-68497737D01*
X139024211Y-68650476D01*
X138964631Y-68820745D01*
X138964630Y-68820750D01*
X138944435Y-68999996D01*
X138944435Y-69000003D01*
X138964630Y-69179249D01*
X138964631Y-69179254D01*
X139024211Y-69349523D01*
X139120184Y-69502262D01*
X139247738Y-69629816D01*
X139400478Y-69725789D01*
X139570745Y-69785368D01*
X139570750Y-69785369D01*
X139749996Y-69805565D01*
X139750000Y-69805565D01*
X139750004Y-69805565D01*
X139929249Y-69785369D01*
X139929252Y-69785368D01*
X139929255Y-69785368D01*
X140099522Y-69725789D01*
X140252262Y-69629816D01*
X140379816Y-69502262D01*
X140475789Y-69349522D01*
X140535368Y-69179255D01*
X140555565Y-69000000D01*
X140535368Y-68820745D01*
X140475789Y-68650478D01*
X140379816Y-68497738D01*
X140344259Y-68462181D01*
X140310774Y-68400858D01*
X140315758Y-68331166D01*
X140357630Y-68275233D01*
X140423094Y-68250816D01*
X140431940Y-68250500D01*
X151068060Y-68250500D01*
X151135099Y-68270185D01*
X151180854Y-68322989D01*
X151190798Y-68392147D01*
X151161773Y-68455703D01*
X151155741Y-68462181D01*
X151120184Y-68497737D01*
X151024211Y-68650476D01*
X150964631Y-68820745D01*
X150964630Y-68820750D01*
X150944435Y-68999996D01*
X150944435Y-69000003D01*
X150964630Y-69179249D01*
X150964631Y-69179254D01*
X151024211Y-69349523D01*
X151120184Y-69502262D01*
X151247738Y-69629816D01*
X151400478Y-69725789D01*
X151570745Y-69785368D01*
X151570750Y-69785369D01*
X151749996Y-69805565D01*
X151750000Y-69805565D01*
X151750004Y-69805565D01*
X151929249Y-69785369D01*
X151929252Y-69785368D01*
X151929255Y-69785368D01*
X152099522Y-69725789D01*
X152252262Y-69629816D01*
X152379816Y-69502262D01*
X152475789Y-69349522D01*
X152535368Y-69179255D01*
X152555565Y-69000000D01*
X152535368Y-68820745D01*
X152475789Y-68650478D01*
X152379816Y-68497738D01*
X152344259Y-68462181D01*
X152310774Y-68400858D01*
X152315758Y-68331166D01*
X152357630Y-68275233D01*
X152423094Y-68250816D01*
X152431940Y-68250500D01*
X164568060Y-68250500D01*
X164635099Y-68270185D01*
X164680854Y-68322989D01*
X164690798Y-68392147D01*
X164661773Y-68455703D01*
X164655741Y-68462181D01*
X164620184Y-68497737D01*
X164524211Y-68650476D01*
X164464631Y-68820745D01*
X164464630Y-68820750D01*
X164444435Y-68999996D01*
X164444435Y-69000003D01*
X164464630Y-69179249D01*
X164464631Y-69179254D01*
X164524211Y-69349523D01*
X164620184Y-69502262D01*
X164747738Y-69629816D01*
X164900478Y-69725789D01*
X165070745Y-69785368D01*
X165070750Y-69785369D01*
X165249996Y-69805565D01*
X165250000Y-69805565D01*
X165250004Y-69805565D01*
X165429249Y-69785369D01*
X165429252Y-69785368D01*
X165429255Y-69785368D01*
X165599522Y-69725789D01*
X165752262Y-69629816D01*
X165879816Y-69502262D01*
X165975789Y-69349522D01*
X166035368Y-69179255D01*
X166055565Y-69000000D01*
X166035368Y-68820745D01*
X165975789Y-68650478D01*
X165879816Y-68497738D01*
X165844259Y-68462181D01*
X165810774Y-68400858D01*
X165815758Y-68331166D01*
X165857630Y-68275233D01*
X165923094Y-68250816D01*
X165931940Y-68250500D01*
X166625500Y-68250500D01*
X166692539Y-68270185D01*
X166738294Y-68322989D01*
X166749500Y-68374500D01*
X166749500Y-69875500D01*
X166729815Y-69942539D01*
X166677011Y-69988294D01*
X166625500Y-69999500D01*
X166618872Y-69999500D01*
X166387772Y-70029926D01*
X166358884Y-70033730D01*
X166105581Y-70101602D01*
X166105571Y-70101605D01*
X165863309Y-70201953D01*
X165863299Y-70201958D01*
X165636196Y-70333075D01*
X165428148Y-70492718D01*
X165242718Y-70678148D01*
X165083075Y-70886196D01*
X164951958Y-71113299D01*
X164951953Y-71113309D01*
X164851605Y-71355571D01*
X164851602Y-71355581D01*
X164783730Y-71608885D01*
X164749500Y-71868872D01*
X164749500Y-72131127D01*
X164766797Y-72262500D01*
X164783730Y-72391116D01*
X164823054Y-72537876D01*
X164851602Y-72644418D01*
X164851605Y-72644428D01*
X164951953Y-72886690D01*
X164951958Y-72886700D01*
X165083075Y-73113803D01*
X165242718Y-73321851D01*
X165242726Y-73321860D01*
X165428140Y-73507274D01*
X165428148Y-73507281D01*
X165636196Y-73666924D01*
X165863299Y-73798041D01*
X165863309Y-73798046D01*
X166105571Y-73898394D01*
X166105581Y-73898398D01*
X166358884Y-73966270D01*
X166618880Y-74000500D01*
X166625500Y-74000500D01*
X166692539Y-74020185D01*
X166738294Y-74072989D01*
X166749500Y-74124500D01*
X166749500Y-76702885D01*
X166729815Y-76769924D01*
X166677011Y-76815679D01*
X166607853Y-76825623D01*
X166544297Y-76796598D01*
X166508459Y-76743840D01*
X166475790Y-76650480D01*
X166475789Y-76650478D01*
X166379816Y-76497738D01*
X166252262Y-76370184D01*
X166099523Y-76274211D01*
X165929254Y-76214631D01*
X165929249Y-76214630D01*
X165750004Y-76194435D01*
X165749996Y-76194435D01*
X165570750Y-76214630D01*
X165570745Y-76214631D01*
X165400476Y-76274211D01*
X165247737Y-76370184D01*
X165120184Y-76497737D01*
X165024211Y-76650476D01*
X164964631Y-76820745D01*
X164964630Y-76820750D01*
X164944435Y-76999996D01*
X164944435Y-77000003D01*
X164964630Y-77179249D01*
X164964631Y-77179254D01*
X165024211Y-77349523D01*
X165103549Y-77475788D01*
X165120184Y-77502262D01*
X165247738Y-77629816D01*
X165400478Y-77725789D01*
X165570745Y-77785368D01*
X165570750Y-77785369D01*
X165749996Y-77805565D01*
X165750000Y-77805565D01*
X165750004Y-77805565D01*
X165929249Y-77785369D01*
X165929252Y-77785368D01*
X165929255Y-77785368D01*
X166099522Y-77725789D01*
X166252262Y-77629816D01*
X166379816Y-77502262D01*
X166475789Y-77349522D01*
X166508458Y-77256160D01*
X166549180Y-77199383D01*
X166614133Y-77173636D01*
X166682694Y-77187092D01*
X166733097Y-77235479D01*
X166749500Y-77297114D01*
X166749500Y-80818060D01*
X166729815Y-80885099D01*
X166677011Y-80930854D01*
X166607853Y-80940798D01*
X166544297Y-80911773D01*
X166537819Y-80905741D01*
X166502262Y-80870184D01*
X166349523Y-80774211D01*
X166179254Y-80714631D01*
X166179249Y-80714630D01*
X166000004Y-80694435D01*
X165999996Y-80694435D01*
X165820750Y-80714630D01*
X165820745Y-80714631D01*
X165650476Y-80774211D01*
X165497737Y-80870184D01*
X165370184Y-80997737D01*
X165274211Y-81150476D01*
X165214631Y-81320745D01*
X165214630Y-81320750D01*
X165194435Y-81499996D01*
X165194435Y-81500003D01*
X165214630Y-81679249D01*
X165214631Y-81679254D01*
X165274211Y-81849523D01*
X165284778Y-81866340D01*
X165370184Y-82002262D01*
X165497738Y-82129816D01*
X165650478Y-82225789D01*
X165805201Y-82279929D01*
X165820745Y-82285368D01*
X165820750Y-82285369D01*
X165999996Y-82305565D01*
X166000000Y-82305565D01*
X166000004Y-82305565D01*
X166179249Y-82285369D01*
X166179252Y-82285368D01*
X166179255Y-82285368D01*
X166349522Y-82225789D01*
X166502262Y-82129816D01*
X166537819Y-82094259D01*
X166599142Y-82060774D01*
X166668834Y-82065758D01*
X166724767Y-82107630D01*
X166749184Y-82173094D01*
X166749500Y-82181940D01*
X166749500Y-107818060D01*
X166729815Y-107885099D01*
X166677011Y-107930854D01*
X166607853Y-107940798D01*
X166544297Y-107911773D01*
X166537819Y-107905741D01*
X166502262Y-107870184D01*
X166349523Y-107774211D01*
X166179254Y-107714631D01*
X166179249Y-107714630D01*
X166000004Y-107694435D01*
X165999996Y-107694435D01*
X165820750Y-107714630D01*
X165820745Y-107714631D01*
X165650476Y-107774211D01*
X165497737Y-107870184D01*
X165370184Y-107997737D01*
X165274211Y-108150476D01*
X165214631Y-108320745D01*
X165214630Y-108320750D01*
X165194435Y-108499996D01*
X165194435Y-108500003D01*
X165214630Y-108679249D01*
X165214631Y-108679254D01*
X165274211Y-108849523D01*
X165333849Y-108944435D01*
X165370184Y-109002262D01*
X165497738Y-109129816D01*
X165650478Y-109225789D01*
X165719678Y-109250003D01*
X165820745Y-109285368D01*
X165820750Y-109285369D01*
X165999996Y-109305565D01*
X166000000Y-109305565D01*
X166000004Y-109305565D01*
X166179249Y-109285369D01*
X166179252Y-109285368D01*
X166179255Y-109285368D01*
X166349522Y-109225789D01*
X166502262Y-109129816D01*
X166537819Y-109094259D01*
X166599142Y-109060774D01*
X166668834Y-109065758D01*
X166724767Y-109107630D01*
X166749184Y-109173094D01*
X166749500Y-109181940D01*
X166749500Y-124625500D01*
X166729815Y-124692539D01*
X166677011Y-124738294D01*
X166625500Y-124749500D01*
X166618872Y-124749500D01*
X166387772Y-124779926D01*
X166358884Y-124783730D01*
X166105581Y-124851602D01*
X166105571Y-124851605D01*
X165863309Y-124951953D01*
X165863299Y-124951958D01*
X165636196Y-125083075D01*
X165428148Y-125242718D01*
X165242718Y-125428148D01*
X165083075Y-125636196D01*
X164951958Y-125863299D01*
X164951953Y-125863309D01*
X164851605Y-126105571D01*
X164851602Y-126105581D01*
X164783730Y-126358885D01*
X164749500Y-126618872D01*
X164749500Y-126881127D01*
X164776123Y-127083339D01*
X164783730Y-127141116D01*
X164851602Y-127394418D01*
X164851605Y-127394428D01*
X164951953Y-127636690D01*
X164951958Y-127636700D01*
X165083075Y-127863803D01*
X165242718Y-128071851D01*
X165242726Y-128071860D01*
X165428140Y-128257274D01*
X165428148Y-128257281D01*
X165636196Y-128416924D01*
X165863299Y-128548041D01*
X165863309Y-128548046D01*
X166105571Y-128648394D01*
X166105581Y-128648398D01*
X166358884Y-128716270D01*
X166618880Y-128750500D01*
X166625500Y-128750500D01*
X166692539Y-128770185D01*
X166738294Y-128822989D01*
X166749500Y-128874500D01*
X166749500Y-130000500D01*
X166729815Y-130067539D01*
X166677011Y-130113294D01*
X166625500Y-130124500D01*
X166618872Y-130124500D01*
X166387772Y-130154926D01*
X166358884Y-130158730D01*
X166105581Y-130226602D01*
X166105571Y-130226605D01*
X165863309Y-130326953D01*
X165863299Y-130326958D01*
X165636196Y-130458075D01*
X165428148Y-130617718D01*
X165242718Y-130803148D01*
X165083075Y-131011196D01*
X164951958Y-131238299D01*
X164951953Y-131238309D01*
X164851605Y-131480571D01*
X164851602Y-131480581D01*
X164783730Y-131733885D01*
X164749500Y-131993872D01*
X164749500Y-132256127D01*
X164776123Y-132458339D01*
X164783730Y-132516116D01*
X164846398Y-132749996D01*
X164851602Y-132769418D01*
X164851605Y-132769428D01*
X164951953Y-133011690D01*
X164951958Y-133011700D01*
X165083075Y-133238803D01*
X165242718Y-133446851D01*
X165242726Y-133446860D01*
X165428140Y-133632274D01*
X165428148Y-133632281D01*
X165428149Y-133632282D01*
X165476554Y-133669424D01*
X165636196Y-133791924D01*
X165863299Y-133923041D01*
X165863309Y-133923046D01*
X166105571Y-134023394D01*
X166105581Y-134023398D01*
X166358884Y-134091270D01*
X166618880Y-134125500D01*
X166625500Y-134125500D01*
X166692539Y-134145185D01*
X166738294Y-134197989D01*
X166749500Y-134249500D01*
X166749500Y-135375500D01*
X166729815Y-135442539D01*
X166677011Y-135488294D01*
X166625500Y-135499500D01*
X166618872Y-135499500D01*
X166387772Y-135529926D01*
X166358884Y-135533730D01*
X166154117Y-135588597D01*
X166105581Y-135601602D01*
X166105571Y-135601605D01*
X165863309Y-135701953D01*
X165863299Y-135701958D01*
X165636196Y-135833075D01*
X165428148Y-135992718D01*
X165242718Y-136178148D01*
X165083075Y-136386196D01*
X164951958Y-136613299D01*
X164951953Y-136613309D01*
X164851605Y-136855571D01*
X164851602Y-136855581D01*
X164785517Y-137102217D01*
X164783730Y-137108885D01*
X164749500Y-137368872D01*
X164749500Y-137631127D01*
X164770741Y-137792455D01*
X164783730Y-137891116D01*
X164840272Y-138102135D01*
X164851602Y-138144418D01*
X164851605Y-138144428D01*
X164951953Y-138386690D01*
X164951958Y-138386700D01*
X165083075Y-138613803D01*
X165242718Y-138821851D01*
X165242726Y-138821860D01*
X165428140Y-139007274D01*
X165428148Y-139007281D01*
X165636196Y-139166924D01*
X165863299Y-139298041D01*
X165863309Y-139298046D01*
X166105571Y-139398394D01*
X166105581Y-139398398D01*
X166358884Y-139466270D01*
X166618880Y-139500500D01*
X166625500Y-139500500D01*
X166692539Y-139520185D01*
X166738294Y-139572989D01*
X166749500Y-139624500D01*
X166749500Y-140625500D01*
X166729815Y-140692539D01*
X166677011Y-140738294D01*
X166625500Y-140749500D01*
X154124000Y-140749500D01*
X154056961Y-140729815D01*
X154011206Y-140677011D01*
X154000000Y-140625500D01*
X154000000Y-136459999D01*
X154344341Y-136459999D01*
X154344341Y-136460000D01*
X154364936Y-136695403D01*
X154364938Y-136695413D01*
X154426094Y-136923655D01*
X154426096Y-136923659D01*
X154426097Y-136923663D01*
X154430000Y-136932032D01*
X154525965Y-137137830D01*
X154525967Y-137137834D01*
X154634281Y-137292521D01*
X154661501Y-137331396D01*
X154661506Y-137331402D01*
X154783430Y-137453326D01*
X154816915Y-137514649D01*
X154811931Y-137584341D01*
X154770059Y-137640274D01*
X154739083Y-137657189D01*
X154607669Y-137706203D01*
X154607664Y-137706206D01*
X154492455Y-137792452D01*
X154492452Y-137792455D01*
X154406206Y-137907664D01*
X154406202Y-137907671D01*
X154355908Y-138042517D01*
X154349501Y-138102116D01*
X154349500Y-138102135D01*
X154349500Y-139897870D01*
X154349501Y-139897876D01*
X154355908Y-139957483D01*
X154406202Y-140092328D01*
X154406206Y-140092335D01*
X154492452Y-140207544D01*
X154492455Y-140207547D01*
X154607664Y-140293793D01*
X154607671Y-140293797D01*
X154742517Y-140344091D01*
X154742516Y-140344091D01*
X154749444Y-140344835D01*
X154802127Y-140350500D01*
X156597872Y-140350499D01*
X156657483Y-140344091D01*
X156792331Y-140293796D01*
X156907546Y-140207546D01*
X156993796Y-140092331D01*
X157042810Y-139960916D01*
X157084681Y-139904984D01*
X157150145Y-139880566D01*
X157218418Y-139895417D01*
X157246673Y-139916569D01*
X157368599Y-140038495D01*
X157465384Y-140106265D01*
X157562165Y-140174032D01*
X157562167Y-140174033D01*
X157562170Y-140174035D01*
X157776337Y-140273903D01*
X158004592Y-140335063D01*
X158181034Y-140350500D01*
X158239999Y-140355659D01*
X158240000Y-140355659D01*
X158240001Y-140355659D01*
X158298966Y-140350500D01*
X158475408Y-140335063D01*
X158703663Y-140273903D01*
X158917830Y-140174035D01*
X159111401Y-140038495D01*
X159278495Y-139871401D01*
X159408425Y-139685842D01*
X159463002Y-139642217D01*
X159532500Y-139635023D01*
X159594855Y-139666546D01*
X159611575Y-139685842D01*
X159741500Y-139871395D01*
X159741505Y-139871401D01*
X159908599Y-140038495D01*
X160005384Y-140106265D01*
X160102165Y-140174032D01*
X160102167Y-140174033D01*
X160102170Y-140174035D01*
X160316337Y-140273903D01*
X160544592Y-140335063D01*
X160721034Y-140350500D01*
X160779999Y-140355659D01*
X160780000Y-140355659D01*
X160780001Y-140355659D01*
X160838966Y-140350500D01*
X161015408Y-140335063D01*
X161243663Y-140273903D01*
X161457830Y-140174035D01*
X161651401Y-140038495D01*
X161818495Y-139871401D01*
X161954035Y-139677830D01*
X162053903Y-139463663D01*
X162115063Y-139235408D01*
X162135659Y-139000000D01*
X162115063Y-138764592D01*
X162053903Y-138536337D01*
X161954035Y-138322171D01*
X161948425Y-138314158D01*
X161818494Y-138128597D01*
X161651402Y-137961506D01*
X161651396Y-137961501D01*
X161465842Y-137831575D01*
X161422217Y-137776998D01*
X161415023Y-137707500D01*
X161446546Y-137645145D01*
X161465842Y-137628425D01*
X161578054Y-137549853D01*
X161651401Y-137498495D01*
X161818495Y-137331401D01*
X161954035Y-137137830D01*
X162053903Y-136923663D01*
X162115063Y-136695408D01*
X162135659Y-136460000D01*
X162115063Y-136224592D01*
X162053903Y-135996337D01*
X161954035Y-135782171D01*
X161948425Y-135774158D01*
X161818494Y-135588597D01*
X161651402Y-135421506D01*
X161651395Y-135421501D01*
X161457834Y-135285967D01*
X161457830Y-135285965D01*
X161457828Y-135285964D01*
X161243663Y-135186097D01*
X161243659Y-135186096D01*
X161243655Y-135186094D01*
X161015413Y-135124938D01*
X161015403Y-135124936D01*
X160780001Y-135104341D01*
X160779999Y-135104341D01*
X160544596Y-135124936D01*
X160544586Y-135124938D01*
X160316344Y-135186094D01*
X160316335Y-135186098D01*
X160102171Y-135285964D01*
X160102169Y-135285965D01*
X159908597Y-135421505D01*
X159741505Y-135588597D01*
X159611575Y-135774158D01*
X159556998Y-135817783D01*
X159487500Y-135824977D01*
X159425145Y-135793454D01*
X159408425Y-135774158D01*
X159278494Y-135588597D01*
X159111402Y-135421506D01*
X159111395Y-135421501D01*
X158917834Y-135285967D01*
X158917830Y-135285965D01*
X158917828Y-135285964D01*
X158703663Y-135186097D01*
X158703659Y-135186096D01*
X158703655Y-135186094D01*
X158475413Y-135124938D01*
X158475403Y-135124936D01*
X158240001Y-135104341D01*
X158239999Y-135104341D01*
X158004596Y-135124936D01*
X158004586Y-135124938D01*
X157776344Y-135186094D01*
X157776335Y-135186098D01*
X157562171Y-135285964D01*
X157562169Y-135285965D01*
X157368597Y-135421505D01*
X157201505Y-135588597D01*
X157071575Y-135774158D01*
X157016998Y-135817783D01*
X156947500Y-135824977D01*
X156885145Y-135793454D01*
X156868425Y-135774158D01*
X156738494Y-135588597D01*
X156571402Y-135421506D01*
X156571395Y-135421501D01*
X156377834Y-135285967D01*
X156377830Y-135285965D01*
X156377828Y-135285964D01*
X156163663Y-135186097D01*
X156163659Y-135186096D01*
X156163655Y-135186094D01*
X155935413Y-135124938D01*
X155935403Y-135124936D01*
X155700001Y-135104341D01*
X155699999Y-135104341D01*
X155464596Y-135124936D01*
X155464586Y-135124938D01*
X155236344Y-135186094D01*
X155236335Y-135186098D01*
X155022171Y-135285964D01*
X155022169Y-135285965D01*
X154828597Y-135421505D01*
X154661505Y-135588597D01*
X154525965Y-135782169D01*
X154525964Y-135782171D01*
X154426098Y-135996335D01*
X154426094Y-135996344D01*
X154364938Y-136224586D01*
X154364936Y-136224596D01*
X154344341Y-136459999D01*
X154000000Y-136459999D01*
X154000000Y-132750000D01*
X140250000Y-132750000D01*
X140250000Y-140625500D01*
X140230315Y-140692539D01*
X140177511Y-140738294D01*
X140126000Y-140749500D01*
X137874500Y-140749500D01*
X137807461Y-140729815D01*
X137761706Y-140677011D01*
X137750500Y-140625500D01*
X137750500Y-139624500D01*
X137770185Y-139557461D01*
X137822989Y-139511706D01*
X137874500Y-139500500D01*
X137881113Y-139500500D01*
X137881120Y-139500500D01*
X138141116Y-139466270D01*
X138394419Y-139398398D01*
X138636697Y-139298043D01*
X138863803Y-139166924D01*
X139071851Y-139007282D01*
X139071855Y-139007277D01*
X139071860Y-139007274D01*
X139257274Y-138821860D01*
X139257277Y-138821855D01*
X139257282Y-138821851D01*
X139416924Y-138613803D01*
X139548043Y-138386697D01*
X139648398Y-138144419D01*
X139716270Y-137891116D01*
X139750500Y-137631120D01*
X139750500Y-137368880D01*
X139716270Y-137108884D01*
X139648398Y-136855581D01*
X139648394Y-136855571D01*
X139548046Y-136613309D01*
X139548041Y-136613299D01*
X139416924Y-136386196D01*
X139257281Y-136178148D01*
X139257274Y-136178140D01*
X139071860Y-135992726D01*
X139071851Y-135992718D01*
X138863803Y-135833075D01*
X138636700Y-135701958D01*
X138636690Y-135701953D01*
X138394428Y-135601605D01*
X138394421Y-135601603D01*
X138394419Y-135601602D01*
X138141116Y-135533730D01*
X138083339Y-135526123D01*
X137881127Y-135499500D01*
X137881120Y-135499500D01*
X137874500Y-135499500D01*
X137807461Y-135479815D01*
X137761706Y-135427011D01*
X137750500Y-135375500D01*
X137750500Y-134249500D01*
X137770185Y-134182461D01*
X137822989Y-134136706D01*
X137874500Y-134125500D01*
X137881113Y-134125500D01*
X137881120Y-134125500D01*
X138141116Y-134091270D01*
X138394419Y-134023398D01*
X138621700Y-133929255D01*
X138636690Y-133923046D01*
X138636691Y-133923045D01*
X138636697Y-133923043D01*
X138863803Y-133791924D01*
X139071851Y-133632282D01*
X139071855Y-133632277D01*
X139071860Y-133632274D01*
X139257274Y-133446860D01*
X139257277Y-133446855D01*
X139257282Y-133446851D01*
X139416924Y-133238803D01*
X139548043Y-133011697D01*
X139648398Y-132769419D01*
X139653602Y-132749996D01*
X155844435Y-132749996D01*
X155844435Y-132750000D01*
X155864630Y-132929249D01*
X155864631Y-132929254D01*
X155924211Y-133099523D01*
X156011727Y-133238803D01*
X156020184Y-133252262D01*
X156147738Y-133379816D01*
X156300478Y-133475789D01*
X156375360Y-133501991D01*
X156432136Y-133542712D01*
X156457884Y-133607665D01*
X156457626Y-133632916D01*
X156444435Y-133749995D01*
X156444435Y-133750003D01*
X156464630Y-133929249D01*
X156464631Y-133929254D01*
X156524211Y-134099523D01*
X156540533Y-134125499D01*
X156620184Y-134252262D01*
X156747738Y-134379816D01*
X156900478Y-134475789D01*
X157070745Y-134535368D01*
X157070750Y-134535369D01*
X157249996Y-134555565D01*
X157250000Y-134555565D01*
X157250004Y-134555565D01*
X157429249Y-134535369D01*
X157429252Y-134535368D01*
X157429255Y-134535368D01*
X157599522Y-134475789D01*
X157752262Y-134379816D01*
X157879816Y-134252262D01*
X157975789Y-134099522D01*
X158035368Y-133929255D01*
X158036068Y-133923041D01*
X158055565Y-133750003D01*
X158055565Y-133749996D01*
X158035369Y-133570750D01*
X158035368Y-133570745D01*
X157992019Y-133446860D01*
X157975789Y-133400478D01*
X157879816Y-133247738D01*
X157752262Y-133120184D01*
X157719379Y-133099522D01*
X157599523Y-133024211D01*
X157524638Y-132998008D01*
X157467862Y-132957286D01*
X157442115Y-132892333D01*
X157442373Y-132867082D01*
X157455565Y-132750000D01*
X157455565Y-132749996D01*
X157435369Y-132570750D01*
X157435368Y-132570745D01*
X157375788Y-132400476D01*
X157285087Y-132256127D01*
X157279816Y-132247738D01*
X157152262Y-132120184D01*
X157049422Y-132055565D01*
X156999523Y-132024211D01*
X156829254Y-131964631D01*
X156829249Y-131964630D01*
X156650004Y-131944435D01*
X156649996Y-131944435D01*
X156470750Y-131964630D01*
X156470745Y-131964631D01*
X156300476Y-132024211D01*
X156147737Y-132120184D01*
X156020184Y-132247737D01*
X155924211Y-132400476D01*
X155864631Y-132570745D01*
X155864630Y-132570750D01*
X155844435Y-132749996D01*
X139653602Y-132749996D01*
X139716270Y-132516116D01*
X139750500Y-132256120D01*
X139750500Y-131993880D01*
X139716270Y-131733884D01*
X139648398Y-131480581D01*
X139627136Y-131429249D01*
X139552887Y-131249996D01*
X152194435Y-131249996D01*
X152194435Y-131250003D01*
X152214630Y-131429249D01*
X152214631Y-131429254D01*
X152274211Y-131599523D01*
X152358636Y-131733884D01*
X152370184Y-131752262D01*
X152497738Y-131879816D01*
X152588080Y-131936582D01*
X152632721Y-131964632D01*
X152650478Y-131975789D01*
X152788860Y-132024211D01*
X152820745Y-132035368D01*
X152820750Y-132035369D01*
X152999996Y-132055565D01*
X153000000Y-132055565D01*
X153000004Y-132055565D01*
X153179249Y-132035369D01*
X153179252Y-132035368D01*
X153179255Y-132035368D01*
X153349522Y-131975789D01*
X153502262Y-131879816D01*
X153629816Y-131752262D01*
X153725789Y-131599522D01*
X153785368Y-131429255D01*
X153805565Y-131250000D01*
X153804247Y-131238303D01*
X153785369Y-131070750D01*
X153785368Y-131070745D01*
X153725788Y-130900476D01*
X153629815Y-130747737D01*
X153502262Y-130620184D01*
X153349523Y-130524211D01*
X153179254Y-130464631D01*
X153179249Y-130464630D01*
X153000004Y-130444435D01*
X152999996Y-130444435D01*
X152820750Y-130464630D01*
X152820745Y-130464631D01*
X152650476Y-130524211D01*
X152497737Y-130620184D01*
X152370184Y-130747737D01*
X152274211Y-130900476D01*
X152214631Y-131070745D01*
X152214630Y-131070750D01*
X152194435Y-131249996D01*
X139552887Y-131249996D01*
X139548046Y-131238309D01*
X139548041Y-131238299D01*
X139416924Y-131011196D01*
X139257281Y-130803148D01*
X139257274Y-130803140D01*
X139071860Y-130617726D01*
X139071851Y-130617718D01*
X138863803Y-130458075D01*
X138636700Y-130326958D01*
X138636690Y-130326953D01*
X138394428Y-130226605D01*
X138394421Y-130226603D01*
X138394419Y-130226602D01*
X138141116Y-130158730D01*
X138083339Y-130151123D01*
X137881127Y-130124500D01*
X137881120Y-130124500D01*
X137874500Y-130124500D01*
X137807461Y-130104815D01*
X137761706Y-130052011D01*
X137750500Y-130000500D01*
X137750500Y-128874500D01*
X137770185Y-128807461D01*
X137822989Y-128761706D01*
X137874500Y-128750500D01*
X137881113Y-128750500D01*
X137881120Y-128750500D01*
X138141116Y-128716270D01*
X138394419Y-128648398D01*
X138636697Y-128548043D01*
X138863803Y-128416924D01*
X139071851Y-128257282D01*
X139071855Y-128257277D01*
X139071860Y-128257274D01*
X139257274Y-128071860D01*
X139257277Y-128071855D01*
X139257282Y-128071851D01*
X139416924Y-127863803D01*
X139548043Y-127636697D01*
X139648398Y-127394419D01*
X139716270Y-127141116D01*
X139750500Y-126881120D01*
X139750500Y-126618880D01*
X139716270Y-126358884D01*
X139648398Y-126105581D01*
X139648394Y-126105571D01*
X139548046Y-125863309D01*
X139548041Y-125863299D01*
X139416924Y-125636196D01*
X139257281Y-125428148D01*
X139257274Y-125428140D01*
X139071860Y-125242726D01*
X139071851Y-125242718D01*
X138863803Y-125083075D01*
X138636700Y-124951958D01*
X138636690Y-124951953D01*
X138394428Y-124851605D01*
X138394421Y-124851603D01*
X138394419Y-124851602D01*
X138141116Y-124783730D01*
X138083339Y-124776123D01*
X137881127Y-124749500D01*
X137881120Y-124749500D01*
X137874500Y-124749500D01*
X137807461Y-124729815D01*
X137761706Y-124677011D01*
X137750500Y-124625500D01*
X137750500Y-123749996D01*
X138194435Y-123749996D01*
X138194435Y-123750003D01*
X138214630Y-123929249D01*
X138214631Y-123929254D01*
X138274211Y-124099523D01*
X138370184Y-124252262D01*
X138497738Y-124379816D01*
X138650478Y-124475789D01*
X138820745Y-124535368D01*
X138820750Y-124535369D01*
X138999996Y-124555565D01*
X139000000Y-124555565D01*
X139000004Y-124555565D01*
X139179249Y-124535369D01*
X139179252Y-124535368D01*
X139179255Y-124535368D01*
X139349522Y-124475789D01*
X139502262Y-124379816D01*
X139629816Y-124252262D01*
X139725789Y-124099522D01*
X139785368Y-123929255D01*
X139785369Y-123929249D01*
X139805565Y-123750003D01*
X139805565Y-123749996D01*
X139785369Y-123570750D01*
X139785368Y-123570745D01*
X139759821Y-123497737D01*
X139725789Y-123400478D01*
X139631235Y-123249996D01*
X152194435Y-123249996D01*
X152194435Y-123250003D01*
X152214630Y-123429249D01*
X152214631Y-123429254D01*
X152274211Y-123599523D01*
X152368760Y-123749996D01*
X152370184Y-123752262D01*
X152497738Y-123879816D01*
X152650478Y-123975789D01*
X152719678Y-124000003D01*
X152820745Y-124035368D01*
X152820750Y-124035369D01*
X152999996Y-124055565D01*
X153000000Y-124055565D01*
X153000004Y-124055565D01*
X153179249Y-124035369D01*
X153179252Y-124035368D01*
X153179255Y-124035368D01*
X153349522Y-123975789D01*
X153502262Y-123879816D01*
X153629816Y-123752262D01*
X153725789Y-123599522D01*
X153785368Y-123429255D01*
X153785369Y-123429249D01*
X153805565Y-123250003D01*
X153805565Y-123249996D01*
X153785369Y-123070750D01*
X153785368Y-123070745D01*
X153725788Y-122900476D01*
X153686582Y-122838080D01*
X153629816Y-122747738D01*
X153502262Y-122620184D01*
X153469379Y-122599522D01*
X153349523Y-122524211D01*
X153179254Y-122464631D01*
X153179249Y-122464630D01*
X153000004Y-122444435D01*
X152999996Y-122444435D01*
X152820750Y-122464630D01*
X152820745Y-122464631D01*
X152650476Y-122524211D01*
X152497737Y-122620184D01*
X152370184Y-122747737D01*
X152274211Y-122900476D01*
X152214631Y-123070745D01*
X152214630Y-123070750D01*
X152194435Y-123249996D01*
X139631235Y-123249996D01*
X139629816Y-123247738D01*
X139502262Y-123120184D01*
X139481858Y-123107363D01*
X139349523Y-123024211D01*
X139179254Y-122964631D01*
X139179249Y-122964630D01*
X139000004Y-122944435D01*
X138999996Y-122944435D01*
X138820750Y-122964630D01*
X138820745Y-122964631D01*
X138650476Y-123024211D01*
X138497737Y-123120184D01*
X138370184Y-123247737D01*
X138274211Y-123400476D01*
X138214631Y-123570745D01*
X138214630Y-123570750D01*
X138194435Y-123749996D01*
X137750500Y-123749996D01*
X137750500Y-122249996D01*
X158694435Y-122249996D01*
X158694435Y-122250003D01*
X158714630Y-122429249D01*
X158714631Y-122429254D01*
X158774211Y-122599523D01*
X158867341Y-122747737D01*
X158870184Y-122752262D01*
X158997738Y-122879816D01*
X159088080Y-122936582D01*
X159132721Y-122964632D01*
X159150478Y-122975789D01*
X159244298Y-123008618D01*
X159320745Y-123035368D01*
X159320750Y-123035369D01*
X159499996Y-123055565D01*
X159500000Y-123055565D01*
X159500002Y-123055565D01*
X159547042Y-123050264D01*
X159567496Y-123047960D01*
X159636318Y-123060014D01*
X159687697Y-123107363D01*
X159705322Y-123174973D01*
X159683596Y-123241379D01*
X159647353Y-123276173D01*
X159497739Y-123370182D01*
X159370184Y-123497737D01*
X159274211Y-123650476D01*
X159214631Y-123820745D01*
X159214630Y-123820750D01*
X159194435Y-123999996D01*
X159194435Y-124000003D01*
X159214630Y-124179249D01*
X159214631Y-124179254D01*
X159274211Y-124349523D01*
X159353549Y-124475788D01*
X159370184Y-124502262D01*
X159497738Y-124629816D01*
X159650478Y-124725789D01*
X159816064Y-124783730D01*
X159820745Y-124785368D01*
X159820750Y-124785369D01*
X159999996Y-124805565D01*
X160000000Y-124805565D01*
X160000004Y-124805565D01*
X160179249Y-124785369D01*
X160179252Y-124785368D01*
X160179255Y-124785368D01*
X160349522Y-124725789D01*
X160502262Y-124629816D01*
X160629816Y-124502262D01*
X160725789Y-124349522D01*
X160785368Y-124179255D01*
X160794352Y-124099522D01*
X160805565Y-124000003D01*
X160805565Y-123999996D01*
X160785369Y-123820750D01*
X160785368Y-123820745D01*
X160725788Y-123650476D01*
X160686582Y-123588080D01*
X160629816Y-123497738D01*
X160502262Y-123370184D01*
X160352645Y-123276173D01*
X160349523Y-123274211D01*
X160179254Y-123214631D01*
X160179249Y-123214630D01*
X160000004Y-123194435D01*
X159999995Y-123194435D01*
X159932501Y-123202039D01*
X159863680Y-123189984D01*
X159812301Y-123142634D01*
X159794677Y-123075024D01*
X159816404Y-123008618D01*
X159852645Y-122973826D01*
X160002262Y-122879816D01*
X160129816Y-122752262D01*
X160225789Y-122599522D01*
X160285368Y-122429255D01*
X160305565Y-122250000D01*
X160285368Y-122070745D01*
X160225789Y-121900478D01*
X160129816Y-121747738D01*
X160002262Y-121620184D01*
X159849523Y-121524211D01*
X159679254Y-121464631D01*
X159679249Y-121464630D01*
X159500004Y-121444435D01*
X159499996Y-121444435D01*
X159320750Y-121464630D01*
X159320745Y-121464631D01*
X159150476Y-121524211D01*
X158997737Y-121620184D01*
X158870184Y-121747737D01*
X158774211Y-121900476D01*
X158714631Y-122070745D01*
X158714630Y-122070750D01*
X158694435Y-122249996D01*
X137750500Y-122249996D01*
X137750500Y-120999996D01*
X154694435Y-120999996D01*
X154694435Y-121000003D01*
X154714630Y-121179249D01*
X154714631Y-121179254D01*
X154774211Y-121349523D01*
X154833849Y-121444435D01*
X154870184Y-121502262D01*
X154997738Y-121629816D01*
X155150478Y-121725789D01*
X155213202Y-121747737D01*
X155320745Y-121785368D01*
X155320750Y-121785369D01*
X155499996Y-121805565D01*
X155500000Y-121805565D01*
X155500004Y-121805565D01*
X155679249Y-121785369D01*
X155679252Y-121785368D01*
X155679255Y-121785368D01*
X155849522Y-121725789D01*
X156002262Y-121629816D01*
X156129816Y-121502262D01*
X156225789Y-121349522D01*
X156285368Y-121179255D01*
X156305565Y-121000000D01*
X156285368Y-120820745D01*
X156225789Y-120650478D01*
X156129816Y-120497738D01*
X156002262Y-120370184D01*
X155969379Y-120349522D01*
X155849523Y-120274211D01*
X155679254Y-120214631D01*
X155679249Y-120214630D01*
X155500004Y-120194435D01*
X155499996Y-120194435D01*
X155320750Y-120214630D01*
X155320745Y-120214631D01*
X155150476Y-120274211D01*
X154997737Y-120370184D01*
X154870184Y-120497737D01*
X154774211Y-120650476D01*
X154714631Y-120820745D01*
X154714630Y-120820750D01*
X154694435Y-120999996D01*
X137750500Y-120999996D01*
X137750500Y-119999996D01*
X147944435Y-119999996D01*
X147944435Y-120000003D01*
X147964630Y-120179249D01*
X147964631Y-120179254D01*
X148024211Y-120349523D01*
X148117341Y-120497737D01*
X148120184Y-120502262D01*
X148247738Y-120629816D01*
X148400478Y-120725789D01*
X148570745Y-120785368D01*
X148570750Y-120785369D01*
X148749996Y-120805565D01*
X148750000Y-120805565D01*
X148750004Y-120805565D01*
X148929249Y-120785369D01*
X148929252Y-120785368D01*
X148929255Y-120785368D01*
X149099522Y-120725789D01*
X149252262Y-120629816D01*
X149379816Y-120502262D01*
X149475789Y-120349522D01*
X149535368Y-120179255D01*
X149535369Y-120179249D01*
X149555565Y-120000003D01*
X149555565Y-119999996D01*
X149535369Y-119820750D01*
X149535368Y-119820745D01*
X149475788Y-119650476D01*
X149379815Y-119497737D01*
X149252262Y-119370184D01*
X149099523Y-119274211D01*
X149030321Y-119249996D01*
X163444435Y-119249996D01*
X163444435Y-119250003D01*
X163464630Y-119429249D01*
X163464631Y-119429254D01*
X163524211Y-119599523D01*
X163620184Y-119752262D01*
X163747738Y-119879816D01*
X163900478Y-119975789D01*
X163969678Y-120000003D01*
X164070745Y-120035368D01*
X164070750Y-120035369D01*
X164249996Y-120055565D01*
X164250000Y-120055565D01*
X164250004Y-120055565D01*
X164429249Y-120035369D01*
X164429252Y-120035368D01*
X164429255Y-120035368D01*
X164599522Y-119975789D01*
X164752262Y-119879816D01*
X164879816Y-119752262D01*
X164975789Y-119599522D01*
X165035368Y-119429255D01*
X165055565Y-119250000D01*
X165049304Y-119194435D01*
X165035369Y-119070750D01*
X165035368Y-119070745D01*
X164975788Y-118900476D01*
X164879815Y-118747737D01*
X164752262Y-118620184D01*
X164599523Y-118524211D01*
X164429254Y-118464631D01*
X164429249Y-118464630D01*
X164250004Y-118444435D01*
X164249996Y-118444435D01*
X164070750Y-118464630D01*
X164070745Y-118464631D01*
X163900476Y-118524211D01*
X163747737Y-118620184D01*
X163620184Y-118747737D01*
X163524211Y-118900476D01*
X163464631Y-119070745D01*
X163464630Y-119070750D01*
X163444435Y-119249996D01*
X149030321Y-119249996D01*
X148929254Y-119214631D01*
X148929249Y-119214630D01*
X148750004Y-119194435D01*
X148749996Y-119194435D01*
X148570750Y-119214630D01*
X148570745Y-119214631D01*
X148400476Y-119274211D01*
X148247737Y-119370184D01*
X148120184Y-119497737D01*
X148024211Y-119650476D01*
X147964631Y-119820745D01*
X147964630Y-119820750D01*
X147944435Y-119999996D01*
X137750500Y-119999996D01*
X137750500Y-113749996D01*
X138194435Y-113749996D01*
X138194435Y-113750003D01*
X138214630Y-113929249D01*
X138214631Y-113929254D01*
X138274211Y-114099523D01*
X138370184Y-114252262D01*
X138497738Y-114379816D01*
X138650478Y-114475789D01*
X138719678Y-114500003D01*
X138820745Y-114535368D01*
X138820750Y-114535369D01*
X138999996Y-114555565D01*
X139000000Y-114555565D01*
X139000004Y-114555565D01*
X139179249Y-114535369D01*
X139179252Y-114535368D01*
X139179255Y-114535368D01*
X139349522Y-114475789D01*
X139502262Y-114379816D01*
X139629816Y-114252262D01*
X139725789Y-114099522D01*
X139785368Y-113929255D01*
X139785369Y-113929249D01*
X139805565Y-113750003D01*
X139805565Y-113749996D01*
X139785369Y-113570750D01*
X139785368Y-113570745D01*
X139752141Y-113475788D01*
X139725789Y-113400478D01*
X139629816Y-113247738D01*
X139502262Y-113120184D01*
X139469379Y-113099522D01*
X139349523Y-113024211D01*
X139179254Y-112964631D01*
X139179249Y-112964630D01*
X139000004Y-112944435D01*
X138999996Y-112944435D01*
X138820750Y-112964630D01*
X138820745Y-112964631D01*
X138650476Y-113024211D01*
X138497737Y-113120184D01*
X138370184Y-113247737D01*
X138274211Y-113400476D01*
X138214631Y-113570745D01*
X138214630Y-113570750D01*
X138194435Y-113749996D01*
X137750500Y-113749996D01*
X137750500Y-112749996D01*
X149694435Y-112749996D01*
X149694435Y-112750003D01*
X149714630Y-112929249D01*
X149714631Y-112929254D01*
X149774211Y-113099523D01*
X149867341Y-113247737D01*
X149870184Y-113252262D01*
X149997738Y-113379816D01*
X150150478Y-113475789D01*
X150150480Y-113475790D01*
X150242411Y-113507959D01*
X150299187Y-113548680D01*
X150324934Y-113613633D01*
X150311478Y-113682195D01*
X150263090Y-113732597D01*
X150242411Y-113742041D01*
X150150480Y-113774209D01*
X149997737Y-113870184D01*
X149870184Y-113997737D01*
X149774211Y-114150476D01*
X149714631Y-114320745D01*
X149714630Y-114320750D01*
X149694435Y-114499996D01*
X149694435Y-114500003D01*
X149714630Y-114679249D01*
X149714631Y-114679254D01*
X149774211Y-114849523D01*
X149865305Y-114994497D01*
X149870184Y-115002262D01*
X149997738Y-115129816D01*
X150150478Y-115225789D01*
X150320739Y-115285366D01*
X150320745Y-115285368D01*
X150320750Y-115285369D01*
X150499996Y-115305565D01*
X150500000Y-115305565D01*
X150500004Y-115305565D01*
X150679249Y-115285369D01*
X150679251Y-115285368D01*
X150679255Y-115285368D01*
X150679258Y-115285366D01*
X150679262Y-115285366D01*
X150837360Y-115230045D01*
X150907139Y-115226483D01*
X150967766Y-115261211D01*
X150999994Y-115323205D01*
X150993589Y-115392780D01*
X150965996Y-115434767D01*
X150731465Y-115669298D01*
X150670142Y-115702783D01*
X150657668Y-115704837D01*
X150570750Y-115714630D01*
X150400478Y-115774210D01*
X150247737Y-115870184D01*
X150120184Y-115997737D01*
X150024211Y-116150476D01*
X149964631Y-116320745D01*
X149964630Y-116320750D01*
X149944435Y-116499996D01*
X149944435Y-116500003D01*
X149964630Y-116679249D01*
X149964631Y-116679254D01*
X150024211Y-116849523D01*
X150103549Y-116975788D01*
X150120184Y-117002262D01*
X150247738Y-117129816D01*
X150400478Y-117225789D01*
X150570745Y-117285368D01*
X150570750Y-117285369D01*
X150749996Y-117305565D01*
X150750000Y-117305565D01*
X150750004Y-117305565D01*
X150929249Y-117285369D01*
X150929252Y-117285368D01*
X150929255Y-117285368D01*
X151099522Y-117225789D01*
X151252262Y-117129816D01*
X151379816Y-117002262D01*
X151475789Y-116849522D01*
X151535368Y-116679255D01*
X151545161Y-116592329D01*
X151572226Y-116527918D01*
X151580690Y-116518543D01*
X151849237Y-116249996D01*
X152544435Y-116249996D01*
X152544435Y-116250003D01*
X152564630Y-116429249D01*
X152564631Y-116429254D01*
X152624211Y-116599523D01*
X152720184Y-116752262D01*
X152847738Y-116879816D01*
X153000478Y-116975789D01*
X153170745Y-117035368D01*
X153170750Y-117035369D01*
X153349996Y-117055565D01*
X153350000Y-117055565D01*
X153350004Y-117055565D01*
X153529249Y-117035369D01*
X153529250Y-117035368D01*
X153529255Y-117035368D01*
X153547596Y-117028949D01*
X153617374Y-117025387D01*
X153676232Y-117058310D01*
X153747738Y-117129816D01*
X153900478Y-117225789D01*
X154070745Y-117285368D01*
X154070750Y-117285369D01*
X154249996Y-117305565D01*
X154250000Y-117305565D01*
X154250004Y-117305565D01*
X154429249Y-117285369D01*
X154429252Y-117285368D01*
X154429255Y-117285368D01*
X154599522Y-117225789D01*
X154752262Y-117129816D01*
X154879816Y-117002262D01*
X154975789Y-116849522D01*
X155035368Y-116679255D01*
X155050020Y-116549215D01*
X155055565Y-116500003D01*
X155055565Y-116499996D01*
X155035369Y-116320750D01*
X155035368Y-116320745D01*
X154975788Y-116150476D01*
X154936582Y-116088080D01*
X154879816Y-115997738D01*
X154752262Y-115870184D01*
X154599523Y-115774211D01*
X154429254Y-115714631D01*
X154429249Y-115714630D01*
X154250004Y-115694435D01*
X154249996Y-115694435D01*
X154070746Y-115714631D01*
X154070745Y-115714631D01*
X154052401Y-115721050D01*
X153982622Y-115724611D01*
X153923767Y-115691689D01*
X153852262Y-115620184D01*
X153699523Y-115524211D01*
X153529254Y-115464631D01*
X153529249Y-115464630D01*
X153350004Y-115444435D01*
X153349996Y-115444435D01*
X153170750Y-115464630D01*
X153170745Y-115464631D01*
X153000476Y-115524211D01*
X152847737Y-115620184D01*
X152720184Y-115747737D01*
X152624211Y-115900476D01*
X152564631Y-116070745D01*
X152564630Y-116070750D01*
X152544435Y-116249996D01*
X151849237Y-116249996D01*
X154404810Y-113694423D01*
X154466131Y-113660940D01*
X154535823Y-113665924D01*
X154591756Y-113707796D01*
X154597482Y-113716133D01*
X154620182Y-113752259D01*
X154620184Y-113752262D01*
X154747738Y-113879816D01*
X154900478Y-113975789D01*
X154963202Y-113997737D01*
X155070745Y-114035368D01*
X155070750Y-114035369D01*
X155249996Y-114055565D01*
X155250000Y-114055565D01*
X155250004Y-114055565D01*
X155429249Y-114035369D01*
X155429252Y-114035368D01*
X155429255Y-114035368D01*
X155599522Y-113975789D01*
X155752262Y-113879816D01*
X155879816Y-113752262D01*
X155975789Y-113599522D01*
X156035368Y-113429255D01*
X156035369Y-113429249D01*
X156055565Y-113250003D01*
X156055565Y-113249996D01*
X156035369Y-113070750D01*
X156035368Y-113070745D01*
X155991170Y-112944435D01*
X155975789Y-112900478D01*
X155879816Y-112747738D01*
X155752262Y-112620184D01*
X155752259Y-112620182D01*
X155716133Y-112597482D01*
X155669842Y-112545147D01*
X155659195Y-112476094D01*
X155687570Y-112412245D01*
X155694413Y-112404820D01*
X156958506Y-111140728D01*
X156958511Y-111140724D01*
X156968714Y-111130520D01*
X156968716Y-111130520D01*
X157080520Y-111018716D01*
X157159577Y-110881784D01*
X157189534Y-110769981D01*
X157200500Y-110729058D01*
X157200500Y-110570943D01*
X157200500Y-109249996D01*
X158694435Y-109249996D01*
X158694435Y-109250003D01*
X158714630Y-109429249D01*
X158714631Y-109429254D01*
X158774211Y-109599523D01*
X158868760Y-109749996D01*
X158870184Y-109752262D01*
X158997738Y-109879816D01*
X159150478Y-109975789D01*
X159320745Y-110035368D01*
X159320750Y-110035369D01*
X159499996Y-110055565D01*
X159500000Y-110055565D01*
X159500004Y-110055565D01*
X159679249Y-110035369D01*
X159679252Y-110035368D01*
X159679255Y-110035368D01*
X159849522Y-109975789D01*
X160002262Y-109879816D01*
X160129816Y-109752262D01*
X160225789Y-109599522D01*
X160285368Y-109429255D01*
X160285369Y-109429249D01*
X160305565Y-109250003D01*
X160305565Y-109249996D01*
X160285369Y-109070750D01*
X160285368Y-109070745D01*
X160225788Y-108900476D01*
X160129815Y-108747737D01*
X160002262Y-108620184D01*
X159849523Y-108524211D01*
X159679254Y-108464631D01*
X159679249Y-108464630D01*
X159500004Y-108444435D01*
X159499996Y-108444435D01*
X159320750Y-108464630D01*
X159320745Y-108464631D01*
X159150476Y-108524211D01*
X158997737Y-108620184D01*
X158870184Y-108747737D01*
X158774211Y-108900476D01*
X158714631Y-109070745D01*
X158714630Y-109070750D01*
X158694435Y-109249996D01*
X157200500Y-109249996D01*
X157200500Y-107510218D01*
X157220185Y-107443179D01*
X157236814Y-107422542D01*
X159659359Y-104999996D01*
X163694435Y-104999996D01*
X163694435Y-105000003D01*
X163714630Y-105179249D01*
X163714631Y-105179254D01*
X163774211Y-105349523D01*
X163870184Y-105502262D01*
X163997738Y-105629816D01*
X164088080Y-105686582D01*
X164128483Y-105711969D01*
X164150478Y-105725789D01*
X164219672Y-105750001D01*
X164320745Y-105785368D01*
X164320750Y-105785369D01*
X164499996Y-105805565D01*
X164500000Y-105805565D01*
X164500004Y-105805565D01*
X164679249Y-105785369D01*
X164679252Y-105785368D01*
X164679255Y-105785368D01*
X164849522Y-105725789D01*
X165002262Y-105629816D01*
X165129816Y-105502262D01*
X165225789Y-105349522D01*
X165285368Y-105179255D01*
X165285369Y-105179249D01*
X165305565Y-105000003D01*
X165305565Y-104999996D01*
X165285369Y-104820750D01*
X165285368Y-104820745D01*
X165261405Y-104752262D01*
X165225789Y-104650478D01*
X165129816Y-104497738D01*
X165002262Y-104370184D01*
X164849523Y-104274211D01*
X164679254Y-104214631D01*
X164679249Y-104214630D01*
X164500004Y-104194435D01*
X164499996Y-104194435D01*
X164320750Y-104214630D01*
X164320745Y-104214631D01*
X164150476Y-104274211D01*
X163997737Y-104370184D01*
X163870184Y-104497737D01*
X163774211Y-104650476D01*
X163714631Y-104820745D01*
X163714630Y-104820750D01*
X163694435Y-104999996D01*
X159659359Y-104999996D01*
X161688506Y-102970849D01*
X161688511Y-102970846D01*
X161698714Y-102960642D01*
X161698716Y-102960642D01*
X161810520Y-102848838D01*
X161881562Y-102725789D01*
X161889577Y-102711907D01*
X161930500Y-102559179D01*
X161930500Y-102401065D01*
X161930500Y-97249996D01*
X163444435Y-97249996D01*
X163444435Y-97250003D01*
X163464630Y-97429249D01*
X163464631Y-97429254D01*
X163524211Y-97599523D01*
X163529494Y-97607930D01*
X163620184Y-97752262D01*
X163747738Y-97879816D01*
X163838080Y-97936582D01*
X163882721Y-97964632D01*
X163900478Y-97975789D01*
X164038860Y-98024211D01*
X164070745Y-98035368D01*
X164070750Y-98035369D01*
X164249996Y-98055565D01*
X164250000Y-98055565D01*
X164250004Y-98055565D01*
X164429249Y-98035369D01*
X164429252Y-98035368D01*
X164429255Y-98035368D01*
X164599522Y-97975789D01*
X164752262Y-97879816D01*
X164879816Y-97752262D01*
X164975789Y-97599522D01*
X165035368Y-97429255D01*
X165055565Y-97250000D01*
X165035368Y-97070745D01*
X164975789Y-96900478D01*
X164879816Y-96747738D01*
X164752262Y-96620184D01*
X164599523Y-96524211D01*
X164429254Y-96464631D01*
X164429249Y-96464630D01*
X164250004Y-96444435D01*
X164249996Y-96444435D01*
X164070750Y-96464630D01*
X164070745Y-96464631D01*
X163900476Y-96524211D01*
X163747737Y-96620184D01*
X163620184Y-96747737D01*
X163524211Y-96900476D01*
X163464631Y-97070745D01*
X163464630Y-97070750D01*
X163444435Y-97249996D01*
X161930500Y-97249996D01*
X161930500Y-93220097D01*
X161950185Y-93153058D01*
X161966819Y-93132416D01*
X162212416Y-92886819D01*
X162273739Y-92853334D01*
X162300097Y-92850500D01*
X163616937Y-92850500D01*
X163683976Y-92870185D01*
X163729731Y-92922989D01*
X163739675Y-92992147D01*
X163733978Y-93015455D01*
X163714633Y-93070737D01*
X163714630Y-93070750D01*
X163694435Y-93249996D01*
X163694435Y-93250003D01*
X163714630Y-93429249D01*
X163714631Y-93429254D01*
X163774211Y-93599523D01*
X163836722Y-93699008D01*
X163870184Y-93752262D01*
X163997738Y-93879816D01*
X164150478Y-93975789D01*
X164219678Y-94000003D01*
X164320745Y-94035368D01*
X164320750Y-94035369D01*
X164499996Y-94055565D01*
X164500000Y-94055565D01*
X164500004Y-94055565D01*
X164679249Y-94035369D01*
X164679252Y-94035368D01*
X164679255Y-94035368D01*
X164849522Y-93975789D01*
X165002262Y-93879816D01*
X165129816Y-93752262D01*
X165225789Y-93599522D01*
X165285368Y-93429255D01*
X165292024Y-93370184D01*
X165305565Y-93250003D01*
X165305565Y-93249996D01*
X165285369Y-93070750D01*
X165285368Y-93070745D01*
X165263783Y-93009059D01*
X165225789Y-92900478D01*
X165217206Y-92886819D01*
X165129815Y-92747737D01*
X165002262Y-92620184D01*
X164849523Y-92524211D01*
X164679252Y-92464631D01*
X164670306Y-92463623D01*
X164605892Y-92436555D01*
X164566339Y-92378959D01*
X164564202Y-92309122D01*
X164596509Y-92252724D01*
X164858506Y-91990728D01*
X164858511Y-91990724D01*
X164868714Y-91980520D01*
X164868716Y-91980520D01*
X164980520Y-91868716D01*
X164993325Y-91846537D01*
X165037813Y-91769482D01*
X165037814Y-91769480D01*
X165059574Y-91731790D01*
X165059573Y-91731790D01*
X165059577Y-91731785D01*
X165100500Y-91579057D01*
X165100500Y-91420943D01*
X165100500Y-90089059D01*
X165100501Y-90089046D01*
X165100501Y-89920945D01*
X165100501Y-89920943D01*
X165059577Y-89768215D01*
X165016980Y-89694435D01*
X164980520Y-89631284D01*
X164868716Y-89519480D01*
X164868715Y-89519479D01*
X164864385Y-89515149D01*
X164864374Y-89515139D01*
X164457659Y-89108424D01*
X164424174Y-89047101D01*
X164429158Y-88977409D01*
X164443762Y-88949625D01*
X164494035Y-88877830D01*
X164593903Y-88663663D01*
X164655063Y-88435408D01*
X164675659Y-88200000D01*
X164655063Y-87964592D01*
X164593903Y-87736337D01*
X164494035Y-87522171D01*
X164488731Y-87514595D01*
X164358494Y-87328597D01*
X164191402Y-87161506D01*
X164191395Y-87161501D01*
X163997834Y-87025967D01*
X163997830Y-87025965D01*
X163997828Y-87025964D01*
X163783663Y-86926097D01*
X163783659Y-86926096D01*
X163783655Y-86926094D01*
X163555413Y-86864938D01*
X163555403Y-86864936D01*
X163320001Y-86844341D01*
X163319999Y-86844341D01*
X163084596Y-86864936D01*
X163084586Y-86864938D01*
X162856344Y-86926094D01*
X162856335Y-86926098D01*
X162642171Y-87025964D01*
X162642169Y-87025965D01*
X162448597Y-87161505D01*
X162281505Y-87328597D01*
X162151575Y-87514158D01*
X162096998Y-87557783D01*
X162027500Y-87564977D01*
X161965145Y-87533454D01*
X161948425Y-87514158D01*
X161818494Y-87328597D01*
X161651402Y-87161506D01*
X161651395Y-87161501D01*
X161457834Y-87025967D01*
X161457830Y-87025965D01*
X161457828Y-87025964D01*
X161243663Y-86926097D01*
X161243659Y-86926096D01*
X161243655Y-86926094D01*
X161015413Y-86864938D01*
X161015403Y-86864936D01*
X160780001Y-86844341D01*
X160779999Y-86844341D01*
X160544596Y-86864936D01*
X160544586Y-86864938D01*
X160316344Y-86926094D01*
X160316335Y-86926098D01*
X160102171Y-87025964D01*
X160102169Y-87025965D01*
X159908597Y-87161505D01*
X159741505Y-87328597D01*
X159611575Y-87514158D01*
X159556998Y-87557783D01*
X159487500Y-87564977D01*
X159425145Y-87533454D01*
X159408425Y-87514158D01*
X159278494Y-87328597D01*
X159111402Y-87161506D01*
X159111395Y-87161501D01*
X158917834Y-87025967D01*
X158917830Y-87025965D01*
X158917828Y-87025964D01*
X158703663Y-86926097D01*
X158703659Y-86926096D01*
X158703655Y-86926094D01*
X158475413Y-86864938D01*
X158475403Y-86864936D01*
X158240001Y-86844341D01*
X158239999Y-86844341D01*
X158004596Y-86864936D01*
X158004586Y-86864938D01*
X157776344Y-86926094D01*
X157776335Y-86926098D01*
X157562171Y-87025964D01*
X157562169Y-87025965D01*
X157368597Y-87161505D01*
X157201508Y-87328594D01*
X157071269Y-87514595D01*
X157016692Y-87558219D01*
X156947193Y-87565412D01*
X156884839Y-87533890D01*
X156868119Y-87514594D01*
X156738113Y-87328926D01*
X156738108Y-87328920D01*
X156571082Y-87161894D01*
X156377578Y-87026399D01*
X156163492Y-86926570D01*
X156163486Y-86926567D01*
X155950000Y-86869364D01*
X155950000Y-87766988D01*
X155892993Y-87734075D01*
X155765826Y-87700000D01*
X155634174Y-87700000D01*
X155507007Y-87734075D01*
X155450000Y-87766988D01*
X155450000Y-86869364D01*
X155449999Y-86869364D01*
X155236513Y-86926567D01*
X155236507Y-86926570D01*
X155022422Y-87026399D01*
X155022420Y-87026400D01*
X154828926Y-87161886D01*
X154828920Y-87161891D01*
X154661891Y-87328920D01*
X154661886Y-87328926D01*
X154526400Y-87522420D01*
X154526399Y-87522422D01*
X154426570Y-87736507D01*
X154426567Y-87736513D01*
X154369364Y-87949999D01*
X154369364Y-87950000D01*
X155266988Y-87950000D01*
X155234075Y-88007007D01*
X155200000Y-88134174D01*
X155200000Y-88265826D01*
X155234075Y-88392993D01*
X155266988Y-88450000D01*
X154369364Y-88450000D01*
X154426567Y-88663486D01*
X154426570Y-88663492D01*
X154526399Y-88877578D01*
X154661894Y-89071082D01*
X154783946Y-89193134D01*
X154817431Y-89254457D01*
X154812447Y-89324149D01*
X154770575Y-89380082D01*
X154739598Y-89396997D01*
X154607671Y-89446202D01*
X154607664Y-89446206D01*
X154492455Y-89532452D01*
X154492452Y-89532455D01*
X154406206Y-89647664D01*
X154406202Y-89647671D01*
X154355908Y-89782517D01*
X154349501Y-89842116D01*
X154349500Y-89842135D01*
X154349500Y-91637870D01*
X154349501Y-91637876D01*
X154355908Y-91697483D01*
X154406202Y-91832328D01*
X154406206Y-91832335D01*
X154492452Y-91947544D01*
X154492455Y-91947547D01*
X154607664Y-92033793D01*
X154607671Y-92033797D01*
X154742517Y-92084091D01*
X154742516Y-92084091D01*
X154749444Y-92084835D01*
X154802127Y-92090500D01*
X156597872Y-92090499D01*
X156657483Y-92084091D01*
X156792331Y-92033796D01*
X156907546Y-91947546D01*
X156993796Y-91832331D01*
X157042810Y-91700916D01*
X157084681Y-91644984D01*
X157150145Y-91620566D01*
X157218418Y-91635417D01*
X157246673Y-91656569D01*
X157368599Y-91778495D01*
X157465384Y-91846265D01*
X157562165Y-91914032D01*
X157562167Y-91914033D01*
X157562170Y-91914035D01*
X157776337Y-92013903D01*
X158004592Y-92075063D01*
X158181034Y-92090500D01*
X158239999Y-92095659D01*
X158240000Y-92095659D01*
X158240001Y-92095659D01*
X158298966Y-92090500D01*
X158475408Y-92075063D01*
X158703663Y-92013903D01*
X158917830Y-91914035D01*
X159111401Y-91778495D01*
X159278495Y-91611401D01*
X159408425Y-91425842D01*
X159463002Y-91382217D01*
X159532500Y-91375023D01*
X159594855Y-91406546D01*
X159611575Y-91425842D01*
X159718856Y-91579056D01*
X159741505Y-91611401D01*
X159908599Y-91778495D01*
X160005384Y-91846265D01*
X160102165Y-91914032D01*
X160102167Y-91914033D01*
X160102170Y-91914035D01*
X160316337Y-92013903D01*
X160544592Y-92075063D01*
X160721034Y-92090500D01*
X160779999Y-92095659D01*
X160780000Y-92095659D01*
X160780001Y-92095659D01*
X160799791Y-92093927D01*
X161015408Y-92075063D01*
X161015413Y-92075061D01*
X161016060Y-92075005D01*
X161084560Y-92088771D01*
X161134743Y-92137386D01*
X161150677Y-92205415D01*
X161127302Y-92271258D01*
X161114550Y-92286214D01*
X160961286Y-92439478D01*
X160849481Y-92551282D01*
X160849480Y-92551284D01*
X160809701Y-92620184D01*
X160770423Y-92688215D01*
X160729499Y-92840943D01*
X160729499Y-92840945D01*
X160729499Y-93009046D01*
X160729500Y-93009059D01*
X160729500Y-98395728D01*
X160709815Y-98462767D01*
X160657011Y-98508522D01*
X160587853Y-98518466D01*
X160524297Y-98489441D01*
X160488459Y-98436683D01*
X160475791Y-98400480D01*
X160379815Y-98247737D01*
X160252262Y-98120184D01*
X160099523Y-98024211D01*
X159929254Y-97964631D01*
X159929249Y-97964630D01*
X159750004Y-97944435D01*
X159749996Y-97944435D01*
X159570750Y-97964630D01*
X159570745Y-97964631D01*
X159400476Y-98024211D01*
X159247737Y-98120184D01*
X159120184Y-98247737D01*
X159024211Y-98400476D01*
X158964631Y-98570745D01*
X158964630Y-98570750D01*
X158944435Y-98749996D01*
X158944435Y-98750003D01*
X158964630Y-98929249D01*
X158964631Y-98929254D01*
X159024211Y-99099523D01*
X159120184Y-99252262D01*
X159247738Y-99379816D01*
X159400478Y-99475789D01*
X159570745Y-99535368D01*
X159570750Y-99535369D01*
X159749996Y-99555565D01*
X159750000Y-99555565D01*
X159750004Y-99555565D01*
X159929249Y-99535369D01*
X159929252Y-99535368D01*
X159929255Y-99535368D01*
X160099522Y-99475789D01*
X160252262Y-99379816D01*
X160379816Y-99252262D01*
X160475789Y-99099522D01*
X160488458Y-99063315D01*
X160529180Y-99006540D01*
X160594133Y-98980793D01*
X160662694Y-98994249D01*
X160713097Y-99042636D01*
X160729500Y-99104271D01*
X160729500Y-102180024D01*
X160709815Y-102247063D01*
X160693181Y-102267705D01*
X156358059Y-106602826D01*
X156296736Y-106636311D01*
X156229423Y-106632186D01*
X156179254Y-106614631D01*
X156000004Y-106594435D01*
X155999996Y-106594435D01*
X155820750Y-106614630D01*
X155820737Y-106614633D01*
X155650479Y-106674209D01*
X155565971Y-106727309D01*
X155498734Y-106746309D01*
X155434029Y-106727309D01*
X155349520Y-106674209D01*
X155179262Y-106614633D01*
X155179249Y-106614630D01*
X155000004Y-106594435D01*
X154999996Y-106594435D01*
X154820750Y-106614630D01*
X154820745Y-106614631D01*
X154650476Y-106674211D01*
X154528839Y-106750641D01*
X154461602Y-106769641D01*
X154396895Y-106750641D01*
X154275256Y-106674210D01*
X154155156Y-106632186D01*
X154104990Y-106614632D01*
X154104988Y-106614631D01*
X154099519Y-106612718D01*
X154042743Y-106571996D01*
X154023431Y-106536631D01*
X153975788Y-106400476D01*
X153879815Y-106247737D01*
X153752262Y-106120184D01*
X153599523Y-106024211D01*
X153429254Y-105964631D01*
X153429249Y-105964630D01*
X153250004Y-105944435D01*
X153249996Y-105944435D01*
X153070750Y-105964630D01*
X153070745Y-105964631D01*
X152900476Y-106024211D01*
X152747737Y-106120184D01*
X152620184Y-106247737D01*
X152524211Y-106400476D01*
X152464631Y-106570745D01*
X152464630Y-106570750D01*
X152444435Y-106749996D01*
X152444435Y-106750003D01*
X152464630Y-106929249D01*
X152464631Y-106929254D01*
X152524211Y-107099523D01*
X152620184Y-107252262D01*
X152747738Y-107379816D01*
X152900478Y-107475789D01*
X153070745Y-107535368D01*
X153070746Y-107535368D01*
X153076216Y-107537282D01*
X153132992Y-107578004D01*
X153152304Y-107613369D01*
X153199946Y-107749523D01*
X153215459Y-107774211D01*
X153295919Y-107902262D01*
X153423473Y-108029816D01*
X153576213Y-108125789D01*
X153746477Y-108185367D01*
X153746480Y-108185368D01*
X153746485Y-108185369D01*
X153925731Y-108205565D01*
X153925735Y-108205565D01*
X153925739Y-108205565D01*
X154104984Y-108185369D01*
X154104987Y-108185368D01*
X154104990Y-108185368D01*
X154275257Y-108125789D01*
X154396894Y-108049358D01*
X154464131Y-108030358D01*
X154528838Y-108049357D01*
X154650478Y-108125789D01*
X154820742Y-108185367D01*
X154820745Y-108185368D01*
X154820750Y-108185369D01*
X154999996Y-108205565D01*
X155000000Y-108205565D01*
X155000004Y-108205565D01*
X155179249Y-108185369D01*
X155179252Y-108185368D01*
X155179255Y-108185368D01*
X155349522Y-108125789D01*
X155434027Y-108072691D01*
X155501264Y-108053690D01*
X155565973Y-108072691D01*
X155650475Y-108125788D01*
X155650478Y-108125789D01*
X155820745Y-108185368D01*
X155889384Y-108193101D01*
X155953796Y-108220166D01*
X155993352Y-108277760D01*
X155999500Y-108316321D01*
X155999500Y-110349902D01*
X155979815Y-110416941D01*
X155963181Y-110437583D01*
X151434767Y-114965996D01*
X151373444Y-114999481D01*
X151303752Y-114994497D01*
X151247819Y-114952625D01*
X151223402Y-114887161D01*
X151230045Y-114837360D01*
X151285366Y-114679262D01*
X151285369Y-114679249D01*
X151305565Y-114500003D01*
X151305565Y-114499996D01*
X151285369Y-114320750D01*
X151285368Y-114320745D01*
X151225788Y-114150476D01*
X151153461Y-114035369D01*
X151129816Y-113997738D01*
X151002262Y-113870184D01*
X150849523Y-113774211D01*
X150757588Y-113742042D01*
X150700812Y-113701320D01*
X150675065Y-113636367D01*
X150688521Y-113567806D01*
X150736908Y-113517403D01*
X150757588Y-113507958D01*
X150849522Y-113475789D01*
X151002262Y-113379816D01*
X151129816Y-113252262D01*
X151225789Y-113099522D01*
X151285368Y-112929255D01*
X151285369Y-112929249D01*
X151305565Y-112750003D01*
X151305565Y-112749996D01*
X151285369Y-112570750D01*
X151285368Y-112570745D01*
X151225788Y-112400476D01*
X151129815Y-112247737D01*
X151002262Y-112120184D01*
X150849523Y-112024211D01*
X150679254Y-111964631D01*
X150679249Y-111964630D01*
X150500004Y-111944435D01*
X150499996Y-111944435D01*
X150320750Y-111964630D01*
X150320745Y-111964631D01*
X150150476Y-112024211D01*
X149997737Y-112120184D01*
X149870184Y-112247737D01*
X149774211Y-112400476D01*
X149714631Y-112570745D01*
X149714630Y-112570750D01*
X149694435Y-112749996D01*
X137750500Y-112749996D01*
X137750500Y-87999998D01*
X138194435Y-87999998D01*
X138194435Y-88000001D01*
X138198720Y-88038029D01*
X138199500Y-88051914D01*
X138199500Y-91948085D01*
X138198720Y-91961969D01*
X138194435Y-91999998D01*
X138194435Y-92000001D01*
X138198720Y-92038029D01*
X138199500Y-92051914D01*
X138199500Y-95948085D01*
X138198720Y-95961969D01*
X138194435Y-95999998D01*
X138194435Y-96000001D01*
X138198720Y-96038029D01*
X138199500Y-96051914D01*
X138199500Y-100698085D01*
X138198720Y-100711969D01*
X138194435Y-100749998D01*
X138194435Y-100750001D01*
X138198720Y-100788029D01*
X138199500Y-100801914D01*
X138199500Y-105698085D01*
X138198720Y-105711969D01*
X138194435Y-105749998D01*
X138194435Y-105750001D01*
X138198720Y-105788029D01*
X138199500Y-105801914D01*
X138199500Y-110948085D01*
X138198720Y-110961969D01*
X138194435Y-110999998D01*
X138194435Y-111000001D01*
X138198720Y-111038029D01*
X138199500Y-111051914D01*
X138199500Y-111078844D01*
X138207288Y-111118003D01*
X138208890Y-111128303D01*
X138214632Y-111179252D01*
X138214633Y-111179260D01*
X138222976Y-111203104D01*
X138227550Y-111219860D01*
X138230262Y-111233496D01*
X138250509Y-111282377D01*
X138252988Y-111288872D01*
X138274212Y-111349524D01*
X138280709Y-111359865D01*
X138290268Y-111378365D01*
X138290603Y-111379173D01*
X138290605Y-111379179D01*
X138327223Y-111433982D01*
X138329114Y-111436900D01*
X138370180Y-111502257D01*
X138370182Y-111502260D01*
X138370184Y-111502262D01*
X138497738Y-111629816D01*
X138563096Y-111670883D01*
X138563131Y-111670905D01*
X138566040Y-111672790D01*
X138620821Y-111709394D01*
X138621606Y-111709719D01*
X138640134Y-111719289D01*
X138650478Y-111725789D01*
X138711175Y-111747028D01*
X138717607Y-111749484D01*
X138746021Y-111761253D01*
X138766497Y-111769735D01*
X138766498Y-111769735D01*
X138766503Y-111769737D01*
X138780139Y-111772449D01*
X138796898Y-111777023D01*
X138820745Y-111785368D01*
X138871714Y-111791110D01*
X138881992Y-111792709D01*
X138909140Y-111798109D01*
X138921157Y-111800500D01*
X138921158Y-111800500D01*
X138948085Y-111800500D01*
X138961969Y-111801280D01*
X138999998Y-111805565D01*
X139000000Y-111805565D01*
X139000002Y-111805565D01*
X139038031Y-111801280D01*
X139051915Y-111800500D01*
X139078841Y-111800500D01*
X139078842Y-111800500D01*
X139118017Y-111792707D01*
X139128283Y-111791110D01*
X139179255Y-111785368D01*
X139203100Y-111777023D01*
X139219862Y-111772448D01*
X139233497Y-111769737D01*
X139282389Y-111749484D01*
X139288837Y-111747023D01*
X139349522Y-111725789D01*
X139359868Y-111719287D01*
X139378390Y-111709720D01*
X139379179Y-111709394D01*
X139433987Y-111672771D01*
X139436825Y-111670931D01*
X139502262Y-111629816D01*
X139629816Y-111502262D01*
X139670931Y-111436825D01*
X139672777Y-111433979D01*
X139709389Y-111379186D01*
X139709394Y-111379179D01*
X139709720Y-111378390D01*
X139719287Y-111359868D01*
X139725789Y-111349522D01*
X139747023Y-111288837D01*
X139749490Y-111282377D01*
X139762903Y-111249996D01*
X151944435Y-111249996D01*
X151944435Y-111250003D01*
X151964630Y-111429249D01*
X151964631Y-111429254D01*
X152024211Y-111599523D01*
X152095970Y-111713726D01*
X152120184Y-111752262D01*
X152247738Y-111879816D01*
X152338080Y-111936582D01*
X152382721Y-111964632D01*
X152400478Y-111975789D01*
X152538860Y-112024211D01*
X152570745Y-112035368D01*
X152570750Y-112035369D01*
X152749996Y-112055565D01*
X152750000Y-112055565D01*
X152750004Y-112055565D01*
X152929249Y-112035369D01*
X152929252Y-112035368D01*
X152929255Y-112035368D01*
X153099522Y-111975789D01*
X153252262Y-111879816D01*
X153379816Y-111752262D01*
X153475789Y-111599522D01*
X153535368Y-111429255D01*
X153535369Y-111429249D01*
X153555565Y-111250003D01*
X153555565Y-111249996D01*
X153535369Y-111070750D01*
X153535368Y-111070745D01*
X153517160Y-111018709D01*
X153475789Y-110900478D01*
X153379816Y-110747738D01*
X153252262Y-110620184D01*
X153099523Y-110524211D01*
X152929254Y-110464631D01*
X152929249Y-110464630D01*
X152750004Y-110444435D01*
X152749996Y-110444435D01*
X152570750Y-110464630D01*
X152570745Y-110464631D01*
X152400476Y-110524211D01*
X152247737Y-110620184D01*
X152120184Y-110747737D01*
X152024211Y-110900476D01*
X151964631Y-111070745D01*
X151964630Y-111070750D01*
X151944435Y-111249996D01*
X139762903Y-111249996D01*
X139769737Y-111233497D01*
X139772449Y-111219860D01*
X139777023Y-111203100D01*
X139785368Y-111179255D01*
X139791110Y-111128283D01*
X139792707Y-111118017D01*
X139800500Y-111078842D01*
X139800500Y-111051914D01*
X139801280Y-111038029D01*
X139805565Y-111000001D01*
X139805565Y-110999998D01*
X139801280Y-110961969D01*
X139800500Y-110948085D01*
X139800500Y-109749996D01*
X147944435Y-109749996D01*
X147944435Y-109750003D01*
X147964630Y-109929249D01*
X147964631Y-109929254D01*
X148024211Y-110099523D01*
X148120184Y-110252262D01*
X148247738Y-110379816D01*
X148281874Y-110401265D01*
X148382721Y-110464632D01*
X148400478Y-110475789D01*
X148538860Y-110524211D01*
X148570745Y-110535368D01*
X148570750Y-110535369D01*
X148749996Y-110555565D01*
X148750000Y-110555565D01*
X148750004Y-110555565D01*
X148929249Y-110535369D01*
X148929252Y-110535368D01*
X148929255Y-110535368D01*
X149099522Y-110475789D01*
X149252262Y-110379816D01*
X149379816Y-110252262D01*
X149475789Y-110099522D01*
X149535368Y-109929255D01*
X149535369Y-109929249D01*
X149555565Y-109750003D01*
X149555565Y-109749996D01*
X149535369Y-109570750D01*
X149535368Y-109570745D01*
X149475789Y-109400478D01*
X149379816Y-109247738D01*
X149252262Y-109120184D01*
X149099523Y-109024211D01*
X148929254Y-108964631D01*
X148929249Y-108964630D01*
X148750004Y-108944435D01*
X148749996Y-108944435D01*
X148570750Y-108964630D01*
X148570745Y-108964631D01*
X148400476Y-109024211D01*
X148247737Y-109120184D01*
X148120184Y-109247737D01*
X148024211Y-109400476D01*
X147964631Y-109570745D01*
X147964630Y-109570750D01*
X147944435Y-109749996D01*
X139800500Y-109749996D01*
X139800500Y-105801914D01*
X139801280Y-105788029D01*
X139805565Y-105750001D01*
X139805565Y-105749998D01*
X139801280Y-105711969D01*
X139800500Y-105698085D01*
X139800500Y-104249996D01*
X145944435Y-104249996D01*
X145944435Y-104250003D01*
X145964630Y-104429249D01*
X145964631Y-104429254D01*
X146024211Y-104599523D01*
X146120184Y-104752262D01*
X146247738Y-104879816D01*
X146293110Y-104908325D01*
X146385449Y-104966346D01*
X146400478Y-104975789D01*
X146570745Y-105035368D01*
X146570750Y-105035369D01*
X146749996Y-105055565D01*
X146750000Y-105055565D01*
X146750004Y-105055565D01*
X146929249Y-105035369D01*
X146929252Y-105035368D01*
X146929255Y-105035368D01*
X147099522Y-104975789D01*
X147114551Y-104966346D01*
X147176650Y-104927326D01*
X147243887Y-104908325D01*
X147310722Y-104928692D01*
X147347616Y-104966346D01*
X147370182Y-105002260D01*
X147370184Y-105002262D01*
X147497738Y-105129816D01*
X147650478Y-105225789D01*
X147820745Y-105285368D01*
X147820750Y-105285369D01*
X147999996Y-105305565D01*
X148000000Y-105305565D01*
X148000004Y-105305565D01*
X148179249Y-105285369D01*
X148179252Y-105285368D01*
X148179255Y-105285368D01*
X148349522Y-105225789D01*
X148502262Y-105129816D01*
X148629816Y-105002262D01*
X148725789Y-104849522D01*
X148785368Y-104679255D01*
X148785369Y-104679249D01*
X148805565Y-104500003D01*
X148805565Y-104499996D01*
X150194435Y-104499996D01*
X150194435Y-104500003D01*
X150214630Y-104679249D01*
X150214631Y-104679254D01*
X150274211Y-104849523D01*
X150323957Y-104928692D01*
X150370184Y-105002262D01*
X150497738Y-105129816D01*
X150650478Y-105225789D01*
X150820745Y-105285368D01*
X150820750Y-105285369D01*
X150999996Y-105305565D01*
X151000000Y-105305565D01*
X151000004Y-105305565D01*
X151179249Y-105285369D01*
X151179252Y-105285368D01*
X151179255Y-105285368D01*
X151349522Y-105225789D01*
X151502262Y-105129816D01*
X151629816Y-105002262D01*
X151725789Y-104849522D01*
X151785368Y-104679255D01*
X151785369Y-104679249D01*
X151805565Y-104500003D01*
X151805565Y-104499996D01*
X151785369Y-104320750D01*
X151785368Y-104320745D01*
X151725788Y-104150476D01*
X151686582Y-104088080D01*
X151629816Y-103997738D01*
X151502262Y-103870184D01*
X151456889Y-103841674D01*
X151349523Y-103774211D01*
X151179254Y-103714631D01*
X151179249Y-103714630D01*
X151000004Y-103694435D01*
X150999996Y-103694435D01*
X150820750Y-103714630D01*
X150820745Y-103714631D01*
X150650476Y-103774211D01*
X150497737Y-103870184D01*
X150370184Y-103997737D01*
X150274211Y-104150476D01*
X150214631Y-104320745D01*
X150214630Y-104320750D01*
X150194435Y-104499996D01*
X148805565Y-104499996D01*
X148785369Y-104320750D01*
X148785368Y-104320745D01*
X148725788Y-104150476D01*
X148686582Y-104088080D01*
X148629816Y-103997738D01*
X148502262Y-103870184D01*
X148456889Y-103841674D01*
X148349523Y-103774211D01*
X148179254Y-103714631D01*
X148179249Y-103714630D01*
X148000004Y-103694435D01*
X147999996Y-103694435D01*
X147820750Y-103714630D01*
X147820745Y-103714631D01*
X147650474Y-103774212D01*
X147573347Y-103822674D01*
X147506110Y-103841674D01*
X147439275Y-103821306D01*
X147402382Y-103783652D01*
X147379816Y-103747738D01*
X147252262Y-103620184D01*
X147099523Y-103524211D01*
X146929254Y-103464631D01*
X146929249Y-103464630D01*
X146750004Y-103444435D01*
X146749996Y-103444435D01*
X146570750Y-103464630D01*
X146570745Y-103464631D01*
X146400476Y-103524211D01*
X146247737Y-103620184D01*
X146120184Y-103747737D01*
X146024211Y-103900476D01*
X145964631Y-104070745D01*
X145964630Y-104070750D01*
X145944435Y-104249996D01*
X139800500Y-104249996D01*
X139800500Y-102423902D01*
X139820185Y-102356863D01*
X139872989Y-102311108D01*
X139942147Y-102301164D01*
X140005703Y-102330189D01*
X140029494Y-102357930D01*
X140120184Y-102502262D01*
X140247738Y-102629816D01*
X140338080Y-102686582D01*
X140378381Y-102711905D01*
X140400478Y-102725789D01*
X140570745Y-102785368D01*
X140570750Y-102785369D01*
X140749996Y-102805565D01*
X140750000Y-102805565D01*
X140750004Y-102805565D01*
X140929249Y-102785369D01*
X140929252Y-102785368D01*
X140929255Y-102785368D01*
X141099522Y-102725789D01*
X141252262Y-102629816D01*
X141379816Y-102502262D01*
X141475789Y-102349522D01*
X141535368Y-102179255D01*
X141555565Y-102000000D01*
X141535368Y-101820745D01*
X141475789Y-101650478D01*
X141379816Y-101497738D01*
X141252262Y-101370184D01*
X141099523Y-101274211D01*
X140929254Y-101214631D01*
X140929249Y-101214630D01*
X140750004Y-101194435D01*
X140749996Y-101194435D01*
X140570750Y-101214630D01*
X140570745Y-101214631D01*
X140400476Y-101274211D01*
X140247737Y-101370184D01*
X140120182Y-101497739D01*
X140029493Y-101642070D01*
X139977159Y-101688360D01*
X139908105Y-101699008D01*
X139844257Y-101670633D01*
X139805885Y-101612243D01*
X139800500Y-101576097D01*
X139800500Y-100801914D01*
X139801280Y-100788029D01*
X139805565Y-100750001D01*
X139805565Y-100749998D01*
X139801280Y-100711969D01*
X139800500Y-100698085D01*
X139800500Y-97673902D01*
X139820185Y-97606863D01*
X139872989Y-97561108D01*
X139942147Y-97551164D01*
X140005703Y-97580189D01*
X140029494Y-97607930D01*
X140120184Y-97752262D01*
X140247738Y-97879816D01*
X140338080Y-97936582D01*
X140382721Y-97964632D01*
X140400478Y-97975789D01*
X140538860Y-98024211D01*
X140570745Y-98035368D01*
X140570750Y-98035369D01*
X140749996Y-98055565D01*
X140750000Y-98055565D01*
X140750004Y-98055565D01*
X140929249Y-98035369D01*
X140929252Y-98035368D01*
X140929255Y-98035368D01*
X141099522Y-97975789D01*
X141252262Y-97879816D01*
X141379816Y-97752262D01*
X141475789Y-97599522D01*
X141535368Y-97429255D01*
X141555565Y-97250000D01*
X141535368Y-97070745D01*
X141475789Y-96900478D01*
X141379816Y-96747738D01*
X141252262Y-96620184D01*
X141099523Y-96524211D01*
X140929254Y-96464631D01*
X140929249Y-96464630D01*
X140750004Y-96444435D01*
X140749996Y-96444435D01*
X140570750Y-96464630D01*
X140570745Y-96464631D01*
X140400476Y-96524211D01*
X140247737Y-96620184D01*
X140120182Y-96747739D01*
X140029493Y-96892070D01*
X139977159Y-96938360D01*
X139908105Y-96949008D01*
X139844257Y-96920633D01*
X139805885Y-96862243D01*
X139800500Y-96826097D01*
X139800500Y-96051914D01*
X139801280Y-96038029D01*
X139805565Y-96000001D01*
X139805565Y-95999998D01*
X139801280Y-95961969D01*
X139800500Y-95948085D01*
X139800500Y-94423902D01*
X139820185Y-94356863D01*
X139872989Y-94311108D01*
X139942147Y-94301164D01*
X140005703Y-94330189D01*
X140029494Y-94357930D01*
X140120184Y-94502262D01*
X140247738Y-94629816D01*
X140400478Y-94725789D01*
X140570745Y-94785368D01*
X140570750Y-94785369D01*
X140749996Y-94805565D01*
X140750000Y-94805565D01*
X140750004Y-94805565D01*
X140929249Y-94785369D01*
X140929252Y-94785368D01*
X140929255Y-94785368D01*
X141099522Y-94725789D01*
X141252262Y-94629816D01*
X141379816Y-94502262D01*
X141475789Y-94349522D01*
X141535368Y-94179255D01*
X141535369Y-94179249D01*
X141555565Y-94000003D01*
X141555565Y-93999996D01*
X141535369Y-93820750D01*
X141535368Y-93820745D01*
X141489044Y-93688360D01*
X141475789Y-93650478D01*
X141379816Y-93497738D01*
X141252262Y-93370184D01*
X141149422Y-93305565D01*
X141099523Y-93274211D01*
X140929254Y-93214631D01*
X140929249Y-93214630D01*
X140750004Y-93194435D01*
X140749996Y-93194435D01*
X140570750Y-93214630D01*
X140570745Y-93214631D01*
X140400476Y-93274211D01*
X140247737Y-93370184D01*
X140120182Y-93497739D01*
X140029493Y-93642070D01*
X139977159Y-93688360D01*
X139908105Y-93699008D01*
X139844257Y-93670633D01*
X139805885Y-93612243D01*
X139800500Y-93576097D01*
X139800500Y-92499996D01*
X150444435Y-92499996D01*
X150444435Y-92500003D01*
X150464630Y-92679249D01*
X150464631Y-92679254D01*
X150524211Y-92849523D01*
X150570373Y-92922989D01*
X150620184Y-93002262D01*
X150747738Y-93129816D01*
X150809677Y-93168735D01*
X150882721Y-93214632D01*
X150900478Y-93225789D01*
X150969678Y-93250003D01*
X151070745Y-93285368D01*
X151070750Y-93285369D01*
X151249996Y-93305565D01*
X151250000Y-93305565D01*
X151250004Y-93305565D01*
X151429249Y-93285369D01*
X151429252Y-93285368D01*
X151429255Y-93285368D01*
X151530342Y-93249996D01*
X155194435Y-93249996D01*
X155194435Y-93250003D01*
X155214630Y-93429249D01*
X155214631Y-93429254D01*
X155274211Y-93599523D01*
X155336722Y-93699008D01*
X155370184Y-93752262D01*
X155497738Y-93879816D01*
X155650478Y-93975789D01*
X155719678Y-94000003D01*
X155820745Y-94035368D01*
X155820750Y-94035369D01*
X155999996Y-94055565D01*
X156000000Y-94055565D01*
X156000004Y-94055565D01*
X156179249Y-94035369D01*
X156179252Y-94035368D01*
X156179255Y-94035368D01*
X156349522Y-93975789D01*
X156502262Y-93879816D01*
X156629816Y-93752262D01*
X156725789Y-93599522D01*
X156785368Y-93429255D01*
X156792024Y-93370184D01*
X156805565Y-93250003D01*
X156805565Y-93249996D01*
X156785369Y-93070750D01*
X156785368Y-93070745D01*
X156763783Y-93009059D01*
X156725789Y-92900478D01*
X156717206Y-92886819D01*
X156629815Y-92747737D01*
X156502262Y-92620184D01*
X156349523Y-92524211D01*
X156179254Y-92464631D01*
X156179249Y-92464630D01*
X156000004Y-92444435D01*
X155999996Y-92444435D01*
X155820750Y-92464630D01*
X155820745Y-92464631D01*
X155650476Y-92524211D01*
X155497737Y-92620184D01*
X155370184Y-92747737D01*
X155274211Y-92900476D01*
X155214631Y-93070745D01*
X155214630Y-93070750D01*
X155194435Y-93249996D01*
X151530342Y-93249996D01*
X151599522Y-93225789D01*
X151752262Y-93129816D01*
X151879816Y-93002262D01*
X151975789Y-92849522D01*
X152035368Y-92679255D01*
X152055565Y-92500000D01*
X152051466Y-92463623D01*
X152035369Y-92320750D01*
X152035368Y-92320745D01*
X151975788Y-92150476D01*
X151909483Y-92044953D01*
X151879816Y-91997738D01*
X151752262Y-91870184D01*
X151692026Y-91832335D01*
X151599523Y-91774211D01*
X151429254Y-91714631D01*
X151429249Y-91714630D01*
X151250004Y-91694435D01*
X151249996Y-91694435D01*
X151070750Y-91714630D01*
X151070745Y-91714631D01*
X150900476Y-91774211D01*
X150747737Y-91870184D01*
X150620184Y-91997737D01*
X150524211Y-92150476D01*
X150464631Y-92320745D01*
X150464630Y-92320750D01*
X150444435Y-92499996D01*
X139800500Y-92499996D01*
X139800500Y-92051914D01*
X139801280Y-92038029D01*
X139805565Y-92000001D01*
X139805565Y-91999998D01*
X139801280Y-91961969D01*
X139800500Y-91948085D01*
X139800500Y-90499996D01*
X143444435Y-90499996D01*
X143444435Y-90500003D01*
X143464630Y-90679249D01*
X143464631Y-90679254D01*
X143524211Y-90849523D01*
X143620184Y-91002262D01*
X143747738Y-91129816D01*
X143900478Y-91225789D01*
X144070745Y-91285368D01*
X144070750Y-91285369D01*
X144249996Y-91305565D01*
X144250000Y-91305565D01*
X144250004Y-91305565D01*
X144429249Y-91285369D01*
X144429252Y-91285368D01*
X144429255Y-91285368D01*
X144599522Y-91225789D01*
X144752262Y-91129816D01*
X144879816Y-91002262D01*
X144975789Y-90849522D01*
X145035368Y-90679255D01*
X145035369Y-90679249D01*
X145055565Y-90500003D01*
X145055565Y-90499996D01*
X145035369Y-90320750D01*
X145035368Y-90320745D01*
X144975788Y-90150476D01*
X144879815Y-89997737D01*
X144752262Y-89870184D01*
X144599523Y-89774211D01*
X144530321Y-89749996D01*
X150444435Y-89749996D01*
X150444435Y-89750003D01*
X150464630Y-89929249D01*
X150464631Y-89929254D01*
X150524211Y-90099523D01*
X150620184Y-90252262D01*
X150747738Y-90379816D01*
X150900478Y-90475789D01*
X150969678Y-90500003D01*
X151070745Y-90535368D01*
X151070750Y-90535369D01*
X151249996Y-90555565D01*
X151250000Y-90555565D01*
X151250004Y-90555565D01*
X151429249Y-90535369D01*
X151429252Y-90535368D01*
X151429255Y-90535368D01*
X151599522Y-90475789D01*
X151752262Y-90379816D01*
X151879816Y-90252262D01*
X151975789Y-90099522D01*
X152035368Y-89929255D01*
X152035369Y-89929249D01*
X152055565Y-89750003D01*
X152055565Y-89749996D01*
X152035369Y-89570750D01*
X152035368Y-89570745D01*
X152000116Y-89470000D01*
X151975789Y-89400478D01*
X151962973Y-89380082D01*
X151927828Y-89324149D01*
X151879816Y-89247738D01*
X151752262Y-89120184D01*
X151674626Y-89071402D01*
X151599523Y-89024211D01*
X151429254Y-88964631D01*
X151429249Y-88964630D01*
X151250004Y-88944435D01*
X151249996Y-88944435D01*
X151070750Y-88964630D01*
X151070745Y-88964631D01*
X150900476Y-89024211D01*
X150747737Y-89120184D01*
X150620184Y-89247737D01*
X150524211Y-89400476D01*
X150464631Y-89570745D01*
X150464630Y-89570750D01*
X150444435Y-89749996D01*
X144530321Y-89749996D01*
X144429254Y-89714631D01*
X144429249Y-89714630D01*
X144250004Y-89694435D01*
X144249996Y-89694435D01*
X144070750Y-89714630D01*
X144070745Y-89714631D01*
X143900476Y-89774211D01*
X143747737Y-89870184D01*
X143620184Y-89997737D01*
X143524211Y-90150476D01*
X143464631Y-90320745D01*
X143464630Y-90320750D01*
X143444435Y-90499996D01*
X139800500Y-90499996D01*
X139800500Y-88051914D01*
X139801280Y-88038029D01*
X139805565Y-88000001D01*
X139805565Y-87999998D01*
X139801280Y-87961969D01*
X139800500Y-87948085D01*
X139800500Y-85499996D01*
X141694435Y-85499996D01*
X141694435Y-85500003D01*
X141714630Y-85679249D01*
X141714631Y-85679254D01*
X141774211Y-85849523D01*
X141870184Y-86002262D01*
X141997738Y-86129816D01*
X142150478Y-86225789D01*
X142320745Y-86285368D01*
X142320750Y-86285369D01*
X142499996Y-86305565D01*
X142500000Y-86305565D01*
X142500004Y-86305565D01*
X142679249Y-86285369D01*
X142679252Y-86285368D01*
X142679255Y-86285368D01*
X142849522Y-86225789D01*
X143002262Y-86129816D01*
X143129816Y-86002262D01*
X143225789Y-85849522D01*
X143260615Y-85749996D01*
X144944435Y-85749996D01*
X144944435Y-85750003D01*
X144964630Y-85929249D01*
X144964631Y-85929254D01*
X145024211Y-86099523D01*
X145103549Y-86225788D01*
X145120184Y-86252262D01*
X145247738Y-86379816D01*
X145400478Y-86475789D01*
X145570745Y-86535368D01*
X145570750Y-86535369D01*
X145749996Y-86555565D01*
X145750000Y-86555565D01*
X145750004Y-86555565D01*
X145929249Y-86535369D01*
X145929252Y-86535368D01*
X145929255Y-86535368D01*
X146099522Y-86475789D01*
X146252262Y-86379816D01*
X146379816Y-86252262D01*
X146475789Y-86099522D01*
X146535368Y-85929255D01*
X146544352Y-85849522D01*
X146555565Y-85750003D01*
X146555565Y-85749996D01*
X146535369Y-85570750D01*
X146535368Y-85570745D01*
X146475788Y-85400476D01*
X146436582Y-85338080D01*
X146379816Y-85247738D01*
X146252262Y-85120184D01*
X146099523Y-85024211D01*
X146030321Y-84999996D01*
X150194435Y-84999996D01*
X150194435Y-85000003D01*
X150214630Y-85179249D01*
X150214631Y-85179254D01*
X150274211Y-85349523D01*
X150368760Y-85499996D01*
X150370184Y-85502262D01*
X150497738Y-85629816D01*
X150650478Y-85725789D01*
X150719678Y-85750003D01*
X150820745Y-85785368D01*
X150820750Y-85785369D01*
X150999996Y-85805565D01*
X151000000Y-85805565D01*
X151000004Y-85805565D01*
X151179249Y-85785369D01*
X151179252Y-85785368D01*
X151179255Y-85785368D01*
X151349522Y-85725789D01*
X151502262Y-85629816D01*
X151629816Y-85502262D01*
X151725789Y-85349522D01*
X151785368Y-85179255D01*
X151785369Y-85179249D01*
X151805565Y-85000003D01*
X151805565Y-84999996D01*
X151785369Y-84820750D01*
X151785368Y-84820745D01*
X151725788Y-84650476D01*
X151629815Y-84497737D01*
X151502262Y-84370184D01*
X151349523Y-84274211D01*
X151179254Y-84214631D01*
X151179249Y-84214630D01*
X151000004Y-84194435D01*
X150999996Y-84194435D01*
X150820750Y-84214630D01*
X150820745Y-84214631D01*
X150650476Y-84274211D01*
X150497737Y-84370184D01*
X150370184Y-84497737D01*
X150274211Y-84650476D01*
X150214631Y-84820745D01*
X150214630Y-84820750D01*
X150194435Y-84999996D01*
X146030321Y-84999996D01*
X145929254Y-84964631D01*
X145929249Y-84964630D01*
X145750004Y-84944435D01*
X145749996Y-84944435D01*
X145570750Y-84964630D01*
X145570745Y-84964631D01*
X145400476Y-85024211D01*
X145247737Y-85120184D01*
X145120184Y-85247737D01*
X145024211Y-85400476D01*
X144964631Y-85570745D01*
X144964630Y-85570750D01*
X144944435Y-85749996D01*
X143260615Y-85749996D01*
X143285368Y-85679255D01*
X143285369Y-85679249D01*
X143305565Y-85500003D01*
X143305565Y-85499996D01*
X143285369Y-85320750D01*
X143285368Y-85320745D01*
X143259821Y-85247737D01*
X143225789Y-85150478D01*
X143129816Y-84997738D01*
X143002262Y-84870184D01*
X142940821Y-84831578D01*
X142849523Y-84774211D01*
X142679254Y-84714631D01*
X142679249Y-84714630D01*
X142500004Y-84694435D01*
X142499996Y-84694435D01*
X142320750Y-84714630D01*
X142320745Y-84714631D01*
X142150476Y-84774211D01*
X141997737Y-84870184D01*
X141870184Y-84997737D01*
X141774211Y-85150476D01*
X141714631Y-85320745D01*
X141714630Y-85320750D01*
X141694435Y-85499996D01*
X139800500Y-85499996D01*
X139800500Y-84882940D01*
X139820185Y-84815901D01*
X139836819Y-84795259D01*
X142132081Y-82499997D01*
X158982677Y-82499997D01*
X158982677Y-82500002D01*
X159001929Y-82720062D01*
X159001930Y-82720070D01*
X159059104Y-82933445D01*
X159059105Y-82933447D01*
X159059106Y-82933450D01*
X159152466Y-83133662D01*
X159152468Y-83133666D01*
X159279170Y-83314615D01*
X159279175Y-83314621D01*
X159435378Y-83470824D01*
X159435384Y-83470829D01*
X159616333Y-83597531D01*
X159616335Y-83597532D01*
X159616338Y-83597534D01*
X159816550Y-83690894D01*
X160029932Y-83748070D01*
X160187123Y-83761822D01*
X160249998Y-83767323D01*
X160250000Y-83767323D01*
X160250002Y-83767323D01*
X160305017Y-83762509D01*
X160470068Y-83748070D01*
X160683450Y-83690894D01*
X160883662Y-83597534D01*
X161064620Y-83470826D01*
X161220826Y-83314620D01*
X161347534Y-83133662D01*
X161440894Y-82933450D01*
X161498070Y-82720068D01*
X161517323Y-82500000D01*
X161498070Y-82279932D01*
X161440894Y-82066550D01*
X161347534Y-81866339D01*
X161220826Y-81685380D01*
X161064620Y-81529174D01*
X161064616Y-81529171D01*
X161064615Y-81529170D01*
X160883666Y-81402468D01*
X160883662Y-81402466D01*
X160883660Y-81402465D01*
X160683450Y-81309106D01*
X160683447Y-81309105D01*
X160683445Y-81309104D01*
X160470070Y-81251930D01*
X160470062Y-81251929D01*
X160250002Y-81232677D01*
X160249998Y-81232677D01*
X160029937Y-81251929D01*
X160029929Y-81251930D01*
X159816554Y-81309104D01*
X159816548Y-81309107D01*
X159616340Y-81402465D01*
X159616338Y-81402466D01*
X159435377Y-81529175D01*
X159279175Y-81685377D01*
X159152466Y-81866338D01*
X159152465Y-81866340D01*
X159059107Y-82066548D01*
X159059104Y-82066554D01*
X159001930Y-82279929D01*
X159001929Y-82279937D01*
X158982677Y-82499997D01*
X142132081Y-82499997D01*
X143132082Y-81499996D01*
X150194435Y-81499996D01*
X150194435Y-81500003D01*
X150214630Y-81679249D01*
X150214631Y-81679254D01*
X150274211Y-81849523D01*
X150284778Y-81866340D01*
X150370184Y-82002262D01*
X150497738Y-82129816D01*
X150650478Y-82225789D01*
X150805201Y-82279929D01*
X150820745Y-82285368D01*
X150820750Y-82285369D01*
X150999996Y-82305565D01*
X151000000Y-82305565D01*
X151000004Y-82305565D01*
X151179249Y-82285369D01*
X151179252Y-82285368D01*
X151179255Y-82285368D01*
X151349522Y-82225789D01*
X151502262Y-82129816D01*
X151629816Y-82002262D01*
X151725789Y-81849522D01*
X151785368Y-81679255D01*
X151790363Y-81634925D01*
X151805565Y-81500003D01*
X151805565Y-81499996D01*
X151785369Y-81320750D01*
X151785368Y-81320745D01*
X151781295Y-81309104D01*
X151725789Y-81150478D01*
X151629816Y-80997738D01*
X151502262Y-80870184D01*
X151349523Y-80774211D01*
X151179254Y-80714631D01*
X151179249Y-80714630D01*
X151000004Y-80694435D01*
X150999996Y-80694435D01*
X150820750Y-80714630D01*
X150820745Y-80714631D01*
X150650476Y-80774211D01*
X150497737Y-80870184D01*
X150370184Y-80997737D01*
X150274211Y-81150476D01*
X150214631Y-81320745D01*
X150214630Y-81320750D01*
X150194435Y-81499996D01*
X143132082Y-81499996D01*
X145045259Y-79586819D01*
X145106582Y-79553334D01*
X145132940Y-79550500D01*
X151698085Y-79550500D01*
X151711969Y-79551280D01*
X151749998Y-79555565D01*
X151750000Y-79555565D01*
X151750002Y-79555565D01*
X151788031Y-79551280D01*
X151801915Y-79550500D01*
X151828841Y-79550500D01*
X151828842Y-79550500D01*
X151868017Y-79542707D01*
X151878283Y-79541110D01*
X151929255Y-79535368D01*
X151953100Y-79527023D01*
X151969862Y-79522448D01*
X151983497Y-79519737D01*
X152032389Y-79499484D01*
X152038837Y-79497023D01*
X152099522Y-79475789D01*
X152109868Y-79469287D01*
X152128390Y-79459720D01*
X152129179Y-79459394D01*
X152183987Y-79422771D01*
X152186825Y-79420931D01*
X152252262Y-79379816D01*
X152379816Y-79252262D01*
X152420931Y-79186825D01*
X152422777Y-79183979D01*
X152459389Y-79129186D01*
X152459394Y-79129179D01*
X152459720Y-79128390D01*
X152469287Y-79109868D01*
X152475789Y-79099522D01*
X152497023Y-79038837D01*
X152499484Y-79032389D01*
X152519737Y-78983497D01*
X152522448Y-78969862D01*
X152527023Y-78953100D01*
X152535368Y-78929255D01*
X152541110Y-78878283D01*
X152542707Y-78868017D01*
X152550500Y-78828842D01*
X152550500Y-78801914D01*
X152551280Y-78788029D01*
X152555565Y-78750001D01*
X152555565Y-78749998D01*
X152551280Y-78711969D01*
X152550500Y-78698085D01*
X152550500Y-78671157D01*
X152542711Y-78632003D01*
X152541110Y-78621714D01*
X152535368Y-78570745D01*
X152527023Y-78546898D01*
X152522449Y-78530139D01*
X152519737Y-78516503D01*
X152499484Y-78467607D01*
X152497028Y-78461175D01*
X152475789Y-78400478D01*
X152469289Y-78390134D01*
X152459719Y-78371606D01*
X152459394Y-78370821D01*
X152422790Y-78316040D01*
X152420905Y-78313131D01*
X152379815Y-78247737D01*
X152252260Y-78120182D01*
X152252257Y-78120180D01*
X152186900Y-78079114D01*
X152183982Y-78077223D01*
X152129179Y-78040605D01*
X152129173Y-78040603D01*
X152128365Y-78040268D01*
X152109865Y-78030709D01*
X152099524Y-78024212D01*
X152099523Y-78024211D01*
X152099522Y-78024211D01*
X152038867Y-78002986D01*
X152032377Y-78000509D01*
X151983496Y-77980262D01*
X151969860Y-77977550D01*
X151953104Y-77972976D01*
X151929260Y-77964633D01*
X151929256Y-77964632D01*
X151929255Y-77964632D01*
X151908575Y-77962301D01*
X151878303Y-77958890D01*
X151868003Y-77957288D01*
X151828844Y-77949500D01*
X151828842Y-77949500D01*
X151801915Y-77949500D01*
X151788031Y-77948720D01*
X151750002Y-77944435D01*
X151749998Y-77944435D01*
X151711969Y-77948720D01*
X151698085Y-77949500D01*
X144671155Y-77949500D01*
X144516510Y-77980261D01*
X144516498Y-77980264D01*
X144370827Y-78040602D01*
X144370814Y-78040609D01*
X144239711Y-78128210D01*
X144239707Y-78128213D01*
X140766480Y-81601440D01*
X140705157Y-81634925D01*
X140635465Y-81629941D01*
X140579532Y-81588069D01*
X140555115Y-81522605D01*
X140555565Y-81500554D01*
X140555565Y-81499996D01*
X140535369Y-81320750D01*
X140535368Y-81320745D01*
X140531295Y-81309104D01*
X140475789Y-81150478D01*
X140379816Y-80997738D01*
X140252262Y-80870184D01*
X140099523Y-80774211D01*
X139929254Y-80714631D01*
X139929249Y-80714630D01*
X139750004Y-80694435D01*
X139749996Y-80694435D01*
X139570750Y-80714630D01*
X139570745Y-80714631D01*
X139400476Y-80774211D01*
X139247737Y-80870184D01*
X139120184Y-80997737D01*
X139024211Y-81150476D01*
X138964631Y-81320745D01*
X138964630Y-81320750D01*
X138944435Y-81499996D01*
X138944435Y-81500003D01*
X138964630Y-81679249D01*
X138964631Y-81679254D01*
X139024211Y-81849523D01*
X139034778Y-81866340D01*
X139120184Y-82002262D01*
X139247738Y-82129816D01*
X139400478Y-82225789D01*
X139555201Y-82279929D01*
X139570745Y-82285368D01*
X139570750Y-82285369D01*
X139749996Y-82305565D01*
X139756964Y-82305565D01*
X139756964Y-82306821D01*
X139818691Y-82317630D01*
X139870073Y-82364976D01*
X139887701Y-82432586D01*
X139865978Y-82498993D01*
X139851440Y-82516480D01*
X138770391Y-83597531D01*
X138489711Y-83878211D01*
X138433960Y-83933962D01*
X138378209Y-83989712D01*
X138290609Y-84120814D01*
X138290602Y-84120827D01*
X138230264Y-84266498D01*
X138230261Y-84266510D01*
X138199500Y-84421153D01*
X138199500Y-87948085D01*
X138198720Y-87961969D01*
X138194435Y-87999998D01*
X137750500Y-87999998D01*
X137750500Y-76749996D01*
X150194435Y-76749996D01*
X150194435Y-76750003D01*
X150214630Y-76929249D01*
X150214631Y-76929254D01*
X150274211Y-77099523D01*
X150370184Y-77252262D01*
X150497738Y-77379816D01*
X150650478Y-77475789D01*
X150820745Y-77535368D01*
X150820750Y-77535369D01*
X150999996Y-77555565D01*
X151000000Y-77555565D01*
X151000004Y-77555565D01*
X151179249Y-77535369D01*
X151179252Y-77535368D01*
X151179255Y-77535368D01*
X151349522Y-77475789D01*
X151502262Y-77379816D01*
X151629816Y-77252262D01*
X151725789Y-77099522D01*
X151785368Y-76929255D01*
X151785369Y-76929249D01*
X151805565Y-76750003D01*
X151805565Y-76749996D01*
X151785369Y-76570750D01*
X151785368Y-76570745D01*
X151725788Y-76400476D01*
X151629815Y-76247737D01*
X151502262Y-76120184D01*
X151349523Y-76024211D01*
X151179254Y-75964631D01*
X151179249Y-75964630D01*
X151000004Y-75944435D01*
X150999996Y-75944435D01*
X150820750Y-75964630D01*
X150820745Y-75964631D01*
X150650476Y-76024211D01*
X150497737Y-76120184D01*
X150370184Y-76247737D01*
X150274211Y-76400476D01*
X150214631Y-76570745D01*
X150214630Y-76570750D01*
X150194435Y-76749996D01*
X137750500Y-76749996D01*
X137750500Y-74749996D01*
X150944435Y-74749996D01*
X150944435Y-74750003D01*
X150964630Y-74929249D01*
X150964631Y-74929254D01*
X151024211Y-75099523D01*
X151120184Y-75252262D01*
X151247738Y-75379816D01*
X151400478Y-75475789D01*
X151570745Y-75535368D01*
X151570750Y-75535369D01*
X151749996Y-75555565D01*
X151750000Y-75555565D01*
X151750004Y-75555565D01*
X151929249Y-75535369D01*
X151929252Y-75535368D01*
X151929255Y-75535368D01*
X152099522Y-75475789D01*
X152252262Y-75379816D01*
X152379816Y-75252262D01*
X152475789Y-75099522D01*
X152535368Y-74929255D01*
X152555565Y-74750000D01*
X152545381Y-74659618D01*
X152535369Y-74570750D01*
X152535368Y-74570745D01*
X152497360Y-74462124D01*
X152475789Y-74400478D01*
X152379816Y-74247738D01*
X152252262Y-74120184D01*
X152177152Y-74072989D01*
X152099523Y-74024211D01*
X151929254Y-73964631D01*
X151929249Y-73964630D01*
X151750004Y-73944435D01*
X151749996Y-73944435D01*
X151570750Y-73964630D01*
X151570745Y-73964631D01*
X151400476Y-74024211D01*
X151247737Y-74120184D01*
X151120184Y-74247737D01*
X151024211Y-74400476D01*
X150964631Y-74570745D01*
X150964630Y-74570750D01*
X150944435Y-74749996D01*
X137750500Y-74749996D01*
X137750500Y-74124500D01*
X137770185Y-74057461D01*
X137822989Y-74011706D01*
X137874500Y-74000500D01*
X137881113Y-74000500D01*
X137881120Y-74000500D01*
X138141116Y-73966270D01*
X138394419Y-73898398D01*
X138636697Y-73798043D01*
X138863803Y-73666924D01*
X139071851Y-73507282D01*
X139071855Y-73507277D01*
X139071860Y-73507274D01*
X139079135Y-73499999D01*
X143544357Y-73499999D01*
X143544357Y-73500000D01*
X143564884Y-73721535D01*
X143564885Y-73721537D01*
X143625769Y-73935523D01*
X143625775Y-73935538D01*
X143724938Y-74134683D01*
X143724943Y-74134691D01*
X143859020Y-74312238D01*
X144023437Y-74462123D01*
X144023439Y-74462125D01*
X144212595Y-74579245D01*
X144212596Y-74579245D01*
X144212599Y-74579247D01*
X144420060Y-74659618D01*
X144638757Y-74700500D01*
X144638759Y-74700500D01*
X144861241Y-74700500D01*
X144861243Y-74700500D01*
X145079940Y-74659618D01*
X145287401Y-74579247D01*
X145476562Y-74462124D01*
X145640981Y-74312236D01*
X145775058Y-74134689D01*
X145874229Y-73935528D01*
X145935115Y-73721536D01*
X145955643Y-73500000D01*
X145944957Y-73384683D01*
X145935115Y-73278464D01*
X145935114Y-73278462D01*
X145874230Y-73064476D01*
X145874229Y-73064472D01*
X145827953Y-72971537D01*
X145775061Y-72865316D01*
X145775056Y-72865308D01*
X145687979Y-72749999D01*
X149294357Y-72749999D01*
X149294357Y-72750000D01*
X149314884Y-72971535D01*
X149314885Y-72971537D01*
X149375769Y-73185523D01*
X149375775Y-73185538D01*
X149474938Y-73384683D01*
X149474943Y-73384691D01*
X149609020Y-73562238D01*
X149773437Y-73712123D01*
X149773439Y-73712125D01*
X149962595Y-73829245D01*
X149962596Y-73829245D01*
X149962599Y-73829247D01*
X150170060Y-73909618D01*
X150388757Y-73950500D01*
X150388759Y-73950500D01*
X150611241Y-73950500D01*
X150611243Y-73950500D01*
X150829940Y-73909618D01*
X151037401Y-73829247D01*
X151226562Y-73712124D01*
X151390981Y-73562236D01*
X151525058Y-73384689D01*
X151624229Y-73185528D01*
X151685115Y-72971536D01*
X151705643Y-72750000D01*
X151695860Y-72644428D01*
X151685115Y-72528464D01*
X151685114Y-72528462D01*
X151654468Y-72420753D01*
X151624229Y-72314472D01*
X151598350Y-72262500D01*
X151525061Y-72115316D01*
X151525056Y-72115308D01*
X151390979Y-71937761D01*
X151226562Y-71787876D01*
X151226560Y-71787874D01*
X151037404Y-71670754D01*
X151037398Y-71670752D01*
X150829940Y-71590382D01*
X150611243Y-71549500D01*
X150388757Y-71549500D01*
X150170060Y-71590382D01*
X150038864Y-71641207D01*
X149962601Y-71670752D01*
X149962595Y-71670754D01*
X149773439Y-71787874D01*
X149773437Y-71787876D01*
X149609020Y-71937761D01*
X149474943Y-72115308D01*
X149474938Y-72115316D01*
X149375775Y-72314461D01*
X149375769Y-72314476D01*
X149314885Y-72528462D01*
X149314884Y-72528464D01*
X149294357Y-72749999D01*
X145687979Y-72749999D01*
X145640979Y-72687761D01*
X145476562Y-72537876D01*
X145476560Y-72537874D01*
X145287404Y-72420754D01*
X145287398Y-72420752D01*
X145079940Y-72340382D01*
X144861243Y-72299500D01*
X144638757Y-72299500D01*
X144420060Y-72340382D01*
X144289106Y-72391114D01*
X144212601Y-72420752D01*
X144212595Y-72420754D01*
X144023439Y-72537874D01*
X144023437Y-72537876D01*
X143859020Y-72687761D01*
X143724943Y-72865308D01*
X143724938Y-72865316D01*
X143625775Y-73064461D01*
X143625769Y-73064476D01*
X143564885Y-73278462D01*
X143564884Y-73278464D01*
X143544357Y-73499999D01*
X139079135Y-73499999D01*
X139257274Y-73321860D01*
X139257277Y-73321855D01*
X139257282Y-73321851D01*
X139416924Y-73113803D01*
X139548043Y-72886697D01*
X139648398Y-72644419D01*
X139716270Y-72391116D01*
X139750500Y-72131120D01*
X139750500Y-71868880D01*
X139716270Y-71608884D01*
X139648398Y-71355581D01*
X139648394Y-71355571D01*
X139548046Y-71113309D01*
X139548041Y-71113299D01*
X139416924Y-70886196D01*
X139257281Y-70678148D01*
X139257274Y-70678140D01*
X139071860Y-70492726D01*
X139071851Y-70492718D01*
X138863803Y-70333075D01*
X138636700Y-70201958D01*
X138636690Y-70201953D01*
X138608159Y-70190135D01*
X158987500Y-70190135D01*
X158987500Y-71809870D01*
X158987501Y-71809876D01*
X158993908Y-71869483D01*
X159044202Y-72004328D01*
X159044206Y-72004335D01*
X159130452Y-72119544D01*
X159130455Y-72119547D01*
X159245664Y-72205793D01*
X159245671Y-72205797D01*
X159380517Y-72256091D01*
X159380516Y-72256091D01*
X159387444Y-72256835D01*
X159440127Y-72262500D01*
X161059872Y-72262499D01*
X161119483Y-72256091D01*
X161254331Y-72205796D01*
X161369546Y-72119546D01*
X161455796Y-72004331D01*
X161506091Y-71869483D01*
X161512500Y-71809873D01*
X161512499Y-70190128D01*
X161506091Y-70130517D01*
X161495306Y-70101602D01*
X161455797Y-69995671D01*
X161455793Y-69995664D01*
X161369547Y-69880455D01*
X161369544Y-69880452D01*
X161254335Y-69794206D01*
X161254328Y-69794202D01*
X161119482Y-69743908D01*
X161119483Y-69743908D01*
X161059883Y-69737501D01*
X161059881Y-69737500D01*
X161059873Y-69737500D01*
X161059864Y-69737500D01*
X159440129Y-69737500D01*
X159440123Y-69737501D01*
X159380516Y-69743908D01*
X159245671Y-69794202D01*
X159245664Y-69794206D01*
X159130455Y-69880452D01*
X159130452Y-69880455D01*
X159044206Y-69995664D01*
X159044202Y-69995671D01*
X158993908Y-70130517D01*
X158987501Y-70190116D01*
X158987501Y-70190123D01*
X158987500Y-70190135D01*
X138608159Y-70190135D01*
X138394428Y-70101605D01*
X138394421Y-70101603D01*
X138394419Y-70101602D01*
X138141116Y-70033730D01*
X138083339Y-70026123D01*
X137881127Y-69999500D01*
X137881120Y-69999500D01*
X137874500Y-69999500D01*
X137807461Y-69979815D01*
X137761706Y-69927011D01*
X137750500Y-69875500D01*
X137750500Y-68374500D01*
X137770185Y-68307461D01*
X137822989Y-68261706D01*
X137874500Y-68250500D01*
X139068060Y-68250500D01*
X139135099Y-68270185D01*
G37*
%TD.AperFunction*%
%TD*%
M02*
