%TF.GenerationSoftware,KiCad,Pcbnew,8.0.8*%
%TF.CreationDate,2025-01-26T19:35:19-06:00*%
%TF.ProjectId,ptSolar,7074536f-6c61-4722-9e6b-696361645f70,rev?*%
%TF.SameCoordinates,Original*%
%TF.FileFunction,Legend,Top*%
%TF.FilePolarity,Positive*%
%FSLAX46Y46*%
G04 Gerber Fmt 4.6, Leading zero omitted, Abs format (unit mm)*
G04 Created by KiCad (PCBNEW 8.0.8) date 2025-01-26 19:35:19*
%MOMM*%
%LPD*%
G01*
G04 APERTURE LIST*
%ADD10C,0.150000*%
%ADD11C,0.120000*%
%ADD12C,0.100000*%
%ADD13C,0.450000*%
G04 APERTURE END LIST*
D10*
X164119819Y-139663220D02*
X163119819Y-139663220D01*
X164024580Y-138615602D02*
X164072200Y-138663221D01*
X164072200Y-138663221D02*
X164119819Y-138806078D01*
X164119819Y-138806078D02*
X164119819Y-138901316D01*
X164119819Y-138901316D02*
X164072200Y-139044173D01*
X164072200Y-139044173D02*
X163976961Y-139139411D01*
X163976961Y-139139411D02*
X163881723Y-139187030D01*
X163881723Y-139187030D02*
X163691247Y-139234649D01*
X163691247Y-139234649D02*
X163548390Y-139234649D01*
X163548390Y-139234649D02*
X163357914Y-139187030D01*
X163357914Y-139187030D02*
X163262676Y-139139411D01*
X163262676Y-139139411D02*
X163167438Y-139044173D01*
X163167438Y-139044173D02*
X163119819Y-138901316D01*
X163119819Y-138901316D02*
X163119819Y-138806078D01*
X163119819Y-138806078D02*
X163167438Y-138663221D01*
X163167438Y-138663221D02*
X163215057Y-138615602D01*
X164072200Y-138234649D02*
X164119819Y-138091792D01*
X164119819Y-138091792D02*
X164119819Y-137853697D01*
X164119819Y-137853697D02*
X164072200Y-137758459D01*
X164072200Y-137758459D02*
X164024580Y-137710840D01*
X164024580Y-137710840D02*
X163929342Y-137663221D01*
X163929342Y-137663221D02*
X163834104Y-137663221D01*
X163834104Y-137663221D02*
X163738866Y-137710840D01*
X163738866Y-137710840D02*
X163691247Y-137758459D01*
X163691247Y-137758459D02*
X163643628Y-137853697D01*
X163643628Y-137853697D02*
X163596009Y-138044173D01*
X163596009Y-138044173D02*
X163548390Y-138139411D01*
X163548390Y-138139411D02*
X163500771Y-138187030D01*
X163500771Y-138187030D02*
X163405533Y-138234649D01*
X163405533Y-138234649D02*
X163310295Y-138234649D01*
X163310295Y-138234649D02*
X163215057Y-138187030D01*
X163215057Y-138187030D02*
X163167438Y-138139411D01*
X163167438Y-138139411D02*
X163119819Y-138044173D01*
X163119819Y-138044173D02*
X163119819Y-137806078D01*
X163119819Y-137806078D02*
X163167438Y-137663221D01*
X164119819Y-137234649D02*
X163119819Y-137234649D01*
X163119819Y-137234649D02*
X163119819Y-136853697D01*
X163119819Y-136853697D02*
X163167438Y-136758459D01*
X163167438Y-136758459D02*
X163215057Y-136710840D01*
X163215057Y-136710840D02*
X163310295Y-136663221D01*
X163310295Y-136663221D02*
X163453152Y-136663221D01*
X163453152Y-136663221D02*
X163548390Y-136710840D01*
X163548390Y-136710840D02*
X163596009Y-136758459D01*
X163596009Y-136758459D02*
X163643628Y-136853697D01*
X163643628Y-136853697D02*
X163643628Y-137234649D01*
X156857142Y-83804819D02*
X156523809Y-83328628D01*
X156285714Y-83804819D02*
X156285714Y-82804819D01*
X156285714Y-82804819D02*
X156666666Y-82804819D01*
X156666666Y-82804819D02*
X156761904Y-82852438D01*
X156761904Y-82852438D02*
X156809523Y-82900057D01*
X156809523Y-82900057D02*
X156857142Y-82995295D01*
X156857142Y-82995295D02*
X156857142Y-83138152D01*
X156857142Y-83138152D02*
X156809523Y-83233390D01*
X156809523Y-83233390D02*
X156761904Y-83281009D01*
X156761904Y-83281009D02*
X156666666Y-83328628D01*
X156666666Y-83328628D02*
X156285714Y-83328628D01*
X157809523Y-83804819D02*
X157238095Y-83804819D01*
X157523809Y-83804819D02*
X157523809Y-82804819D01*
X157523809Y-82804819D02*
X157428571Y-82947676D01*
X157428571Y-82947676D02*
X157333333Y-83042914D01*
X157333333Y-83042914D02*
X157238095Y-83090533D01*
X158142857Y-82804819D02*
X158761904Y-82804819D01*
X158761904Y-82804819D02*
X158428571Y-83185771D01*
X158428571Y-83185771D02*
X158571428Y-83185771D01*
X158571428Y-83185771D02*
X158666666Y-83233390D01*
X158666666Y-83233390D02*
X158714285Y-83281009D01*
X158714285Y-83281009D02*
X158761904Y-83376247D01*
X158761904Y-83376247D02*
X158761904Y-83614342D01*
X158761904Y-83614342D02*
X158714285Y-83709580D01*
X158714285Y-83709580D02*
X158666666Y-83757200D01*
X158666666Y-83757200D02*
X158571428Y-83804819D01*
X158571428Y-83804819D02*
X158285714Y-83804819D01*
X158285714Y-83804819D02*
X158190476Y-83757200D01*
X158190476Y-83757200D02*
X158142857Y-83709580D01*
X153607142Y-83804819D02*
X153273809Y-83328628D01*
X153035714Y-83804819D02*
X153035714Y-82804819D01*
X153035714Y-82804819D02*
X153416666Y-82804819D01*
X153416666Y-82804819D02*
X153511904Y-82852438D01*
X153511904Y-82852438D02*
X153559523Y-82900057D01*
X153559523Y-82900057D02*
X153607142Y-82995295D01*
X153607142Y-82995295D02*
X153607142Y-83138152D01*
X153607142Y-83138152D02*
X153559523Y-83233390D01*
X153559523Y-83233390D02*
X153511904Y-83281009D01*
X153511904Y-83281009D02*
X153416666Y-83328628D01*
X153416666Y-83328628D02*
X153035714Y-83328628D01*
X154559523Y-83804819D02*
X153988095Y-83804819D01*
X154273809Y-83804819D02*
X154273809Y-82804819D01*
X154273809Y-82804819D02*
X154178571Y-82947676D01*
X154178571Y-82947676D02*
X154083333Y-83042914D01*
X154083333Y-83042914D02*
X153988095Y-83090533D01*
X154940476Y-82900057D02*
X154988095Y-82852438D01*
X154988095Y-82852438D02*
X155083333Y-82804819D01*
X155083333Y-82804819D02*
X155321428Y-82804819D01*
X155321428Y-82804819D02*
X155416666Y-82852438D01*
X155416666Y-82852438D02*
X155464285Y-82900057D01*
X155464285Y-82900057D02*
X155511904Y-82995295D01*
X155511904Y-82995295D02*
X155511904Y-83090533D01*
X155511904Y-83090533D02*
X155464285Y-83233390D01*
X155464285Y-83233390D02*
X154892857Y-83804819D01*
X154892857Y-83804819D02*
X155511904Y-83804819D01*
X139836779Y-70238866D02*
X140598684Y-70238866D01*
X140217731Y-70619819D02*
X140217731Y-69857914D01*
X139086779Y-135738866D02*
X139848684Y-135738866D01*
X164336779Y-135738866D02*
X165098684Y-135738866D01*
X164086779Y-70488866D02*
X164848684Y-70488866D01*
X164467731Y-70869819D02*
X164467731Y-70107914D01*
X139454819Y-130011904D02*
X140264342Y-130011904D01*
X140264342Y-130011904D02*
X140359580Y-129964285D01*
X140359580Y-129964285D02*
X140407200Y-129916666D01*
X140407200Y-129916666D02*
X140454819Y-129821428D01*
X140454819Y-129821428D02*
X140454819Y-129630952D01*
X140454819Y-129630952D02*
X140407200Y-129535714D01*
X140407200Y-129535714D02*
X140359580Y-129488095D01*
X140359580Y-129488095D02*
X140264342Y-129440476D01*
X140264342Y-129440476D02*
X139454819Y-129440476D01*
X140454819Y-128440476D02*
X140454819Y-129011904D01*
X140454819Y-128726190D02*
X139454819Y-128726190D01*
X139454819Y-128726190D02*
X139597676Y-128821428D01*
X139597676Y-128821428D02*
X139692914Y-128916666D01*
X139692914Y-128916666D02*
X139740533Y-129011904D01*
X152824819Y-89803333D02*
X153539104Y-89803333D01*
X153539104Y-89803333D02*
X153681961Y-89850952D01*
X153681961Y-89850952D02*
X153777200Y-89946190D01*
X153777200Y-89946190D02*
X153824819Y-90089047D01*
X153824819Y-90089047D02*
X153824819Y-90184285D01*
X152824819Y-88850952D02*
X152824819Y-89327142D01*
X152824819Y-89327142D02*
X153301009Y-89374761D01*
X153301009Y-89374761D02*
X153253390Y-89327142D01*
X153253390Y-89327142D02*
X153205771Y-89231904D01*
X153205771Y-89231904D02*
X153205771Y-88993809D01*
X153205771Y-88993809D02*
X153253390Y-88898571D01*
X153253390Y-88898571D02*
X153301009Y-88850952D01*
X153301009Y-88850952D02*
X153396247Y-88803333D01*
X153396247Y-88803333D02*
X153634342Y-88803333D01*
X153634342Y-88803333D02*
X153729580Y-88850952D01*
X153729580Y-88850952D02*
X153777200Y-88898571D01*
X153777200Y-88898571D02*
X153824819Y-88993809D01*
X153824819Y-88993809D02*
X153824819Y-89231904D01*
X153824819Y-89231904D02*
X153777200Y-89327142D01*
X153777200Y-89327142D02*
X153729580Y-89374761D01*
X145630952Y-137169104D02*
X146107142Y-137169104D01*
X145535714Y-137454819D02*
X145869047Y-136454819D01*
X145869047Y-136454819D02*
X146202380Y-137454819D01*
X146535714Y-137454819D02*
X146535714Y-136454819D01*
X146535714Y-136454819D02*
X147107142Y-137454819D01*
X147107142Y-137454819D02*
X147107142Y-136454819D01*
X147440476Y-136454819D02*
X148011904Y-136454819D01*
X147726190Y-137454819D02*
X147726190Y-136454819D01*
X148869047Y-137454819D02*
X148297619Y-137454819D01*
X148583333Y-137454819D02*
X148583333Y-136454819D01*
X148583333Y-136454819D02*
X148488095Y-136597676D01*
X148488095Y-136597676D02*
X148392857Y-136692914D01*
X148392857Y-136692914D02*
X148297619Y-136740533D01*
X155694642Y-102411069D02*
X155361309Y-101934878D01*
X155123214Y-102411069D02*
X155123214Y-101411069D01*
X155123214Y-101411069D02*
X155504166Y-101411069D01*
X155504166Y-101411069D02*
X155599404Y-101458688D01*
X155599404Y-101458688D02*
X155647023Y-101506307D01*
X155647023Y-101506307D02*
X155694642Y-101601545D01*
X155694642Y-101601545D02*
X155694642Y-101744402D01*
X155694642Y-101744402D02*
X155647023Y-101839640D01*
X155647023Y-101839640D02*
X155599404Y-101887259D01*
X155599404Y-101887259D02*
X155504166Y-101934878D01*
X155504166Y-101934878D02*
X155123214Y-101934878D01*
X156647023Y-102411069D02*
X156075595Y-102411069D01*
X156361309Y-102411069D02*
X156361309Y-101411069D01*
X156361309Y-101411069D02*
X156266071Y-101553926D01*
X156266071Y-101553926D02*
X156170833Y-101649164D01*
X156170833Y-101649164D02*
X156075595Y-101696783D01*
X157504166Y-101744402D02*
X157504166Y-102411069D01*
X157266071Y-101363450D02*
X157027976Y-102077735D01*
X157027976Y-102077735D02*
X157647023Y-102077735D01*
X159353333Y-133704819D02*
X159020000Y-133228628D01*
X158781905Y-133704819D02*
X158781905Y-132704819D01*
X158781905Y-132704819D02*
X159162857Y-132704819D01*
X159162857Y-132704819D02*
X159258095Y-132752438D01*
X159258095Y-132752438D02*
X159305714Y-132800057D01*
X159305714Y-132800057D02*
X159353333Y-132895295D01*
X159353333Y-132895295D02*
X159353333Y-133038152D01*
X159353333Y-133038152D02*
X159305714Y-133133390D01*
X159305714Y-133133390D02*
X159258095Y-133181009D01*
X159258095Y-133181009D02*
X159162857Y-133228628D01*
X159162857Y-133228628D02*
X158781905Y-133228628D01*
X160210476Y-132704819D02*
X160020000Y-132704819D01*
X160020000Y-132704819D02*
X159924762Y-132752438D01*
X159924762Y-132752438D02*
X159877143Y-132800057D01*
X159877143Y-132800057D02*
X159781905Y-132942914D01*
X159781905Y-132942914D02*
X159734286Y-133133390D01*
X159734286Y-133133390D02*
X159734286Y-133514342D01*
X159734286Y-133514342D02*
X159781905Y-133609580D01*
X159781905Y-133609580D02*
X159829524Y-133657200D01*
X159829524Y-133657200D02*
X159924762Y-133704819D01*
X159924762Y-133704819D02*
X160115238Y-133704819D01*
X160115238Y-133704819D02*
X160210476Y-133657200D01*
X160210476Y-133657200D02*
X160258095Y-133609580D01*
X160258095Y-133609580D02*
X160305714Y-133514342D01*
X160305714Y-133514342D02*
X160305714Y-133276247D01*
X160305714Y-133276247D02*
X160258095Y-133181009D01*
X160258095Y-133181009D02*
X160210476Y-133133390D01*
X160210476Y-133133390D02*
X160115238Y-133085771D01*
X160115238Y-133085771D02*
X159924762Y-133085771D01*
X159924762Y-133085771D02*
X159829524Y-133133390D01*
X159829524Y-133133390D02*
X159781905Y-133181009D01*
X159781905Y-133181009D02*
X159734286Y-133276247D01*
X139405616Y-103456345D02*
X139072283Y-102980154D01*
X138834188Y-103456345D02*
X138834188Y-102456345D01*
X138834188Y-102456345D02*
X139215140Y-102456345D01*
X139215140Y-102456345D02*
X139310378Y-102503964D01*
X139310378Y-102503964D02*
X139357997Y-102551583D01*
X139357997Y-102551583D02*
X139405616Y-102646821D01*
X139405616Y-102646821D02*
X139405616Y-102789678D01*
X139405616Y-102789678D02*
X139357997Y-102884916D01*
X139357997Y-102884916D02*
X139310378Y-102932535D01*
X139310378Y-102932535D02*
X139215140Y-102980154D01*
X139215140Y-102980154D02*
X138834188Y-102980154D01*
X140357997Y-103456345D02*
X139786569Y-103456345D01*
X140072283Y-103456345D02*
X140072283Y-102456345D01*
X140072283Y-102456345D02*
X139977045Y-102599202D01*
X139977045Y-102599202D02*
X139881807Y-102694440D01*
X139881807Y-102694440D02*
X139786569Y-102742059D01*
X141262759Y-102456345D02*
X140786569Y-102456345D01*
X140786569Y-102456345D02*
X140738950Y-102932535D01*
X140738950Y-102932535D02*
X140786569Y-102884916D01*
X140786569Y-102884916D02*
X140881807Y-102837297D01*
X140881807Y-102837297D02*
X141119902Y-102837297D01*
X141119902Y-102837297D02*
X141215140Y-102884916D01*
X141215140Y-102884916D02*
X141262759Y-102932535D01*
X141262759Y-102932535D02*
X141310378Y-103027773D01*
X141310378Y-103027773D02*
X141310378Y-103265868D01*
X141310378Y-103265868D02*
X141262759Y-103361106D01*
X141262759Y-103361106D02*
X141215140Y-103408726D01*
X141215140Y-103408726D02*
X141119902Y-103456345D01*
X141119902Y-103456345D02*
X140881807Y-103456345D01*
X140881807Y-103456345D02*
X140786569Y-103408726D01*
X140786569Y-103408726D02*
X140738950Y-103361106D01*
X148359580Y-93142857D02*
X148407200Y-93190476D01*
X148407200Y-93190476D02*
X148454819Y-93333333D01*
X148454819Y-93333333D02*
X148454819Y-93428571D01*
X148454819Y-93428571D02*
X148407200Y-93571428D01*
X148407200Y-93571428D02*
X148311961Y-93666666D01*
X148311961Y-93666666D02*
X148216723Y-93714285D01*
X148216723Y-93714285D02*
X148026247Y-93761904D01*
X148026247Y-93761904D02*
X147883390Y-93761904D01*
X147883390Y-93761904D02*
X147692914Y-93714285D01*
X147692914Y-93714285D02*
X147597676Y-93666666D01*
X147597676Y-93666666D02*
X147502438Y-93571428D01*
X147502438Y-93571428D02*
X147454819Y-93428571D01*
X147454819Y-93428571D02*
X147454819Y-93333333D01*
X147454819Y-93333333D02*
X147502438Y-93190476D01*
X147502438Y-93190476D02*
X147550057Y-93142857D01*
X148454819Y-92190476D02*
X148454819Y-92761904D01*
X148454819Y-92476190D02*
X147454819Y-92476190D01*
X147454819Y-92476190D02*
X147597676Y-92571428D01*
X147597676Y-92571428D02*
X147692914Y-92666666D01*
X147692914Y-92666666D02*
X147740533Y-92761904D01*
X148454819Y-91238095D02*
X148454819Y-91809523D01*
X148454819Y-91523809D02*
X147454819Y-91523809D01*
X147454819Y-91523809D02*
X147597676Y-91619047D01*
X147597676Y-91619047D02*
X147692914Y-91714285D01*
X147692914Y-91714285D02*
X147740533Y-91809523D01*
X155869405Y-106911069D02*
X155869405Y-105911069D01*
X155869405Y-105911069D02*
X156107500Y-105911069D01*
X156107500Y-105911069D02*
X156250357Y-105958688D01*
X156250357Y-105958688D02*
X156345595Y-106053926D01*
X156345595Y-106053926D02*
X156393214Y-106149164D01*
X156393214Y-106149164D02*
X156440833Y-106339640D01*
X156440833Y-106339640D02*
X156440833Y-106482497D01*
X156440833Y-106482497D02*
X156393214Y-106672973D01*
X156393214Y-106672973D02*
X156345595Y-106768211D01*
X156345595Y-106768211D02*
X156250357Y-106863450D01*
X156250357Y-106863450D02*
X156107500Y-106911069D01*
X156107500Y-106911069D02*
X155869405Y-106911069D01*
X156821786Y-106006307D02*
X156869405Y-105958688D01*
X156869405Y-105958688D02*
X156964643Y-105911069D01*
X156964643Y-105911069D02*
X157202738Y-105911069D01*
X157202738Y-105911069D02*
X157297976Y-105958688D01*
X157297976Y-105958688D02*
X157345595Y-106006307D01*
X157345595Y-106006307D02*
X157393214Y-106101545D01*
X157393214Y-106101545D02*
X157393214Y-106196783D01*
X157393214Y-106196783D02*
X157345595Y-106339640D01*
X157345595Y-106339640D02*
X156774167Y-106911069D01*
X156774167Y-106911069D02*
X157393214Y-106911069D01*
X156857142Y-81704819D02*
X156523809Y-81228628D01*
X156285714Y-81704819D02*
X156285714Y-80704819D01*
X156285714Y-80704819D02*
X156666666Y-80704819D01*
X156666666Y-80704819D02*
X156761904Y-80752438D01*
X156761904Y-80752438D02*
X156809523Y-80800057D01*
X156809523Y-80800057D02*
X156857142Y-80895295D01*
X156857142Y-80895295D02*
X156857142Y-81038152D01*
X156857142Y-81038152D02*
X156809523Y-81133390D01*
X156809523Y-81133390D02*
X156761904Y-81181009D01*
X156761904Y-81181009D02*
X156666666Y-81228628D01*
X156666666Y-81228628D02*
X156285714Y-81228628D01*
X157809523Y-81704819D02*
X157238095Y-81704819D01*
X157523809Y-81704819D02*
X157523809Y-80704819D01*
X157523809Y-80704819D02*
X157428571Y-80847676D01*
X157428571Y-80847676D02*
X157333333Y-80942914D01*
X157333333Y-80942914D02*
X157238095Y-80990533D01*
X158285714Y-81704819D02*
X158476190Y-81704819D01*
X158476190Y-81704819D02*
X158571428Y-81657200D01*
X158571428Y-81657200D02*
X158619047Y-81609580D01*
X158619047Y-81609580D02*
X158714285Y-81466723D01*
X158714285Y-81466723D02*
X158761904Y-81276247D01*
X158761904Y-81276247D02*
X158761904Y-80895295D01*
X158761904Y-80895295D02*
X158714285Y-80800057D01*
X158714285Y-80800057D02*
X158666666Y-80752438D01*
X158666666Y-80752438D02*
X158571428Y-80704819D01*
X158571428Y-80704819D02*
X158380952Y-80704819D01*
X158380952Y-80704819D02*
X158285714Y-80752438D01*
X158285714Y-80752438D02*
X158238095Y-80800057D01*
X158238095Y-80800057D02*
X158190476Y-80895295D01*
X158190476Y-80895295D02*
X158190476Y-81133390D01*
X158190476Y-81133390D02*
X158238095Y-81228628D01*
X158238095Y-81228628D02*
X158285714Y-81276247D01*
X158285714Y-81276247D02*
X158380952Y-81323866D01*
X158380952Y-81323866D02*
X158571428Y-81323866D01*
X158571428Y-81323866D02*
X158666666Y-81276247D01*
X158666666Y-81276247D02*
X158714285Y-81228628D01*
X158714285Y-81228628D02*
X158761904Y-81133390D01*
X140381807Y-108457871D02*
X140048474Y-107981680D01*
X139810379Y-108457871D02*
X139810379Y-107457871D01*
X139810379Y-107457871D02*
X140191331Y-107457871D01*
X140191331Y-107457871D02*
X140286569Y-107505490D01*
X140286569Y-107505490D02*
X140334188Y-107553109D01*
X140334188Y-107553109D02*
X140381807Y-107648347D01*
X140381807Y-107648347D02*
X140381807Y-107791204D01*
X140381807Y-107791204D02*
X140334188Y-107886442D01*
X140334188Y-107886442D02*
X140286569Y-107934061D01*
X140286569Y-107934061D02*
X140191331Y-107981680D01*
X140191331Y-107981680D02*
X139810379Y-107981680D01*
X140715141Y-107457871D02*
X141381807Y-107457871D01*
X141381807Y-107457871D02*
X140953236Y-108457871D01*
X150607142Y-84609580D02*
X150559523Y-84657200D01*
X150559523Y-84657200D02*
X150416666Y-84704819D01*
X150416666Y-84704819D02*
X150321428Y-84704819D01*
X150321428Y-84704819D02*
X150178571Y-84657200D01*
X150178571Y-84657200D02*
X150083333Y-84561961D01*
X150083333Y-84561961D02*
X150035714Y-84466723D01*
X150035714Y-84466723D02*
X149988095Y-84276247D01*
X149988095Y-84276247D02*
X149988095Y-84133390D01*
X149988095Y-84133390D02*
X150035714Y-83942914D01*
X150035714Y-83942914D02*
X150083333Y-83847676D01*
X150083333Y-83847676D02*
X150178571Y-83752438D01*
X150178571Y-83752438D02*
X150321428Y-83704819D01*
X150321428Y-83704819D02*
X150416666Y-83704819D01*
X150416666Y-83704819D02*
X150559523Y-83752438D01*
X150559523Y-83752438D02*
X150607142Y-83800057D01*
X151559523Y-84704819D02*
X150988095Y-84704819D01*
X151273809Y-84704819D02*
X151273809Y-83704819D01*
X151273809Y-83704819D02*
X151178571Y-83847676D01*
X151178571Y-83847676D02*
X151083333Y-83942914D01*
X151083333Y-83942914D02*
X150988095Y-83990533D01*
X152416666Y-83704819D02*
X152226190Y-83704819D01*
X152226190Y-83704819D02*
X152130952Y-83752438D01*
X152130952Y-83752438D02*
X152083333Y-83800057D01*
X152083333Y-83800057D02*
X151988095Y-83942914D01*
X151988095Y-83942914D02*
X151940476Y-84133390D01*
X151940476Y-84133390D02*
X151940476Y-84514342D01*
X151940476Y-84514342D02*
X151988095Y-84609580D01*
X151988095Y-84609580D02*
X152035714Y-84657200D01*
X152035714Y-84657200D02*
X152130952Y-84704819D01*
X152130952Y-84704819D02*
X152321428Y-84704819D01*
X152321428Y-84704819D02*
X152416666Y-84657200D01*
X152416666Y-84657200D02*
X152464285Y-84609580D01*
X152464285Y-84609580D02*
X152511904Y-84514342D01*
X152511904Y-84514342D02*
X152511904Y-84276247D01*
X152511904Y-84276247D02*
X152464285Y-84181009D01*
X152464285Y-84181009D02*
X152416666Y-84133390D01*
X152416666Y-84133390D02*
X152321428Y-84085771D01*
X152321428Y-84085771D02*
X152130952Y-84085771D01*
X152130952Y-84085771D02*
X152035714Y-84133390D01*
X152035714Y-84133390D02*
X151988095Y-84181009D01*
X151988095Y-84181009D02*
X151940476Y-84276247D01*
X158647142Y-122609580D02*
X158599523Y-122657200D01*
X158599523Y-122657200D02*
X158456666Y-122704819D01*
X158456666Y-122704819D02*
X158361428Y-122704819D01*
X158361428Y-122704819D02*
X158218571Y-122657200D01*
X158218571Y-122657200D02*
X158123333Y-122561961D01*
X158123333Y-122561961D02*
X158075714Y-122466723D01*
X158075714Y-122466723D02*
X158028095Y-122276247D01*
X158028095Y-122276247D02*
X158028095Y-122133390D01*
X158028095Y-122133390D02*
X158075714Y-121942914D01*
X158075714Y-121942914D02*
X158123333Y-121847676D01*
X158123333Y-121847676D02*
X158218571Y-121752438D01*
X158218571Y-121752438D02*
X158361428Y-121704819D01*
X158361428Y-121704819D02*
X158456666Y-121704819D01*
X158456666Y-121704819D02*
X158599523Y-121752438D01*
X158599523Y-121752438D02*
X158647142Y-121800057D01*
X159599523Y-122704819D02*
X159028095Y-122704819D01*
X159313809Y-122704819D02*
X159313809Y-121704819D01*
X159313809Y-121704819D02*
X159218571Y-121847676D01*
X159218571Y-121847676D02*
X159123333Y-121942914D01*
X159123333Y-121942914D02*
X159028095Y-121990533D01*
X159932857Y-121704819D02*
X160551904Y-121704819D01*
X160551904Y-121704819D02*
X160218571Y-122085771D01*
X160218571Y-122085771D02*
X160361428Y-122085771D01*
X160361428Y-122085771D02*
X160456666Y-122133390D01*
X160456666Y-122133390D02*
X160504285Y-122181009D01*
X160504285Y-122181009D02*
X160551904Y-122276247D01*
X160551904Y-122276247D02*
X160551904Y-122514342D01*
X160551904Y-122514342D02*
X160504285Y-122609580D01*
X160504285Y-122609580D02*
X160456666Y-122657200D01*
X160456666Y-122657200D02*
X160361428Y-122704819D01*
X160361428Y-122704819D02*
X160075714Y-122704819D01*
X160075714Y-122704819D02*
X159980476Y-122657200D01*
X159980476Y-122657200D02*
X159932857Y-122609580D01*
X151404761Y-102301583D02*
X151309523Y-102253964D01*
X151309523Y-102253964D02*
X151214285Y-102158726D01*
X151214285Y-102158726D02*
X151071428Y-102015868D01*
X151071428Y-102015868D02*
X150976190Y-101968249D01*
X150976190Y-101968249D02*
X150880952Y-101968249D01*
X150928571Y-102206345D02*
X150833333Y-102158726D01*
X150833333Y-102158726D02*
X150738095Y-102063487D01*
X150738095Y-102063487D02*
X150690476Y-101873011D01*
X150690476Y-101873011D02*
X150690476Y-101539678D01*
X150690476Y-101539678D02*
X150738095Y-101349202D01*
X150738095Y-101349202D02*
X150833333Y-101253964D01*
X150833333Y-101253964D02*
X150928571Y-101206345D01*
X150928571Y-101206345D02*
X151119047Y-101206345D01*
X151119047Y-101206345D02*
X151214285Y-101253964D01*
X151214285Y-101253964D02*
X151309523Y-101349202D01*
X151309523Y-101349202D02*
X151357142Y-101539678D01*
X151357142Y-101539678D02*
X151357142Y-101873011D01*
X151357142Y-101873011D02*
X151309523Y-102063487D01*
X151309523Y-102063487D02*
X151214285Y-102158726D01*
X151214285Y-102158726D02*
X151119047Y-102206345D01*
X151119047Y-102206345D02*
X150928571Y-102206345D01*
X151690476Y-101206345D02*
X152309523Y-101206345D01*
X152309523Y-101206345D02*
X151976190Y-101587297D01*
X151976190Y-101587297D02*
X152119047Y-101587297D01*
X152119047Y-101587297D02*
X152214285Y-101634916D01*
X152214285Y-101634916D02*
X152261904Y-101682535D01*
X152261904Y-101682535D02*
X152309523Y-101777773D01*
X152309523Y-101777773D02*
X152309523Y-102015868D01*
X152309523Y-102015868D02*
X152261904Y-102111106D01*
X152261904Y-102111106D02*
X152214285Y-102158726D01*
X152214285Y-102158726D02*
X152119047Y-102206345D01*
X152119047Y-102206345D02*
X151833333Y-102206345D01*
X151833333Y-102206345D02*
X151738095Y-102158726D01*
X151738095Y-102158726D02*
X151690476Y-102111106D01*
X140381807Y-106207871D02*
X140048474Y-105731680D01*
X139810379Y-106207871D02*
X139810379Y-105207871D01*
X139810379Y-105207871D02*
X140191331Y-105207871D01*
X140191331Y-105207871D02*
X140286569Y-105255490D01*
X140286569Y-105255490D02*
X140334188Y-105303109D01*
X140334188Y-105303109D02*
X140381807Y-105398347D01*
X140381807Y-105398347D02*
X140381807Y-105541204D01*
X140381807Y-105541204D02*
X140334188Y-105636442D01*
X140334188Y-105636442D02*
X140286569Y-105684061D01*
X140286569Y-105684061D02*
X140191331Y-105731680D01*
X140191331Y-105731680D02*
X139810379Y-105731680D01*
X140857998Y-106207871D02*
X141048474Y-106207871D01*
X141048474Y-106207871D02*
X141143712Y-106160252D01*
X141143712Y-106160252D02*
X141191331Y-106112632D01*
X141191331Y-106112632D02*
X141286569Y-105969775D01*
X141286569Y-105969775D02*
X141334188Y-105779299D01*
X141334188Y-105779299D02*
X141334188Y-105398347D01*
X141334188Y-105398347D02*
X141286569Y-105303109D01*
X141286569Y-105303109D02*
X141238950Y-105255490D01*
X141238950Y-105255490D02*
X141143712Y-105207871D01*
X141143712Y-105207871D02*
X140953236Y-105207871D01*
X140953236Y-105207871D02*
X140857998Y-105255490D01*
X140857998Y-105255490D02*
X140810379Y-105303109D01*
X140810379Y-105303109D02*
X140762760Y-105398347D01*
X140762760Y-105398347D02*
X140762760Y-105636442D01*
X140762760Y-105636442D02*
X140810379Y-105731680D01*
X140810379Y-105731680D02*
X140857998Y-105779299D01*
X140857998Y-105779299D02*
X140953236Y-105826918D01*
X140953236Y-105826918D02*
X141143712Y-105826918D01*
X141143712Y-105826918D02*
X141238950Y-105779299D01*
X141238950Y-105779299D02*
X141286569Y-105731680D01*
X141286569Y-105731680D02*
X141334188Y-105636442D01*
X140863095Y-87554819D02*
X140863095Y-88364342D01*
X140863095Y-88364342D02*
X140910714Y-88459580D01*
X140910714Y-88459580D02*
X140958333Y-88507200D01*
X140958333Y-88507200D02*
X141053571Y-88554819D01*
X141053571Y-88554819D02*
X141244047Y-88554819D01*
X141244047Y-88554819D02*
X141339285Y-88507200D01*
X141339285Y-88507200D02*
X141386904Y-88459580D01*
X141386904Y-88459580D02*
X141434523Y-88364342D01*
X141434523Y-88364342D02*
X141434523Y-87554819D01*
X142386904Y-87554819D02*
X141910714Y-87554819D01*
X141910714Y-87554819D02*
X141863095Y-88031009D01*
X141863095Y-88031009D02*
X141910714Y-87983390D01*
X141910714Y-87983390D02*
X142005952Y-87935771D01*
X142005952Y-87935771D02*
X142244047Y-87935771D01*
X142244047Y-87935771D02*
X142339285Y-87983390D01*
X142339285Y-87983390D02*
X142386904Y-88031009D01*
X142386904Y-88031009D02*
X142434523Y-88126247D01*
X142434523Y-88126247D02*
X142434523Y-88364342D01*
X142434523Y-88364342D02*
X142386904Y-88459580D01*
X142386904Y-88459580D02*
X142339285Y-88507200D01*
X142339285Y-88507200D02*
X142244047Y-88554819D01*
X142244047Y-88554819D02*
X142005952Y-88554819D01*
X142005952Y-88554819D02*
X141910714Y-88507200D01*
X141910714Y-88507200D02*
X141863095Y-88459580D01*
X160607142Y-112109580D02*
X160559523Y-112157200D01*
X160559523Y-112157200D02*
X160416666Y-112204819D01*
X160416666Y-112204819D02*
X160321428Y-112204819D01*
X160321428Y-112204819D02*
X160178571Y-112157200D01*
X160178571Y-112157200D02*
X160083333Y-112061961D01*
X160083333Y-112061961D02*
X160035714Y-111966723D01*
X160035714Y-111966723D02*
X159988095Y-111776247D01*
X159988095Y-111776247D02*
X159988095Y-111633390D01*
X159988095Y-111633390D02*
X160035714Y-111442914D01*
X160035714Y-111442914D02*
X160083333Y-111347676D01*
X160083333Y-111347676D02*
X160178571Y-111252438D01*
X160178571Y-111252438D02*
X160321428Y-111204819D01*
X160321428Y-111204819D02*
X160416666Y-111204819D01*
X160416666Y-111204819D02*
X160559523Y-111252438D01*
X160559523Y-111252438D02*
X160607142Y-111300057D01*
X161559523Y-112204819D02*
X160988095Y-112204819D01*
X161273809Y-112204819D02*
X161273809Y-111204819D01*
X161273809Y-111204819D02*
X161178571Y-111347676D01*
X161178571Y-111347676D02*
X161083333Y-111442914D01*
X161083333Y-111442914D02*
X160988095Y-111490533D01*
X162178571Y-111204819D02*
X162273809Y-111204819D01*
X162273809Y-111204819D02*
X162369047Y-111252438D01*
X162369047Y-111252438D02*
X162416666Y-111300057D01*
X162416666Y-111300057D02*
X162464285Y-111395295D01*
X162464285Y-111395295D02*
X162511904Y-111585771D01*
X162511904Y-111585771D02*
X162511904Y-111823866D01*
X162511904Y-111823866D02*
X162464285Y-112014342D01*
X162464285Y-112014342D02*
X162416666Y-112109580D01*
X162416666Y-112109580D02*
X162369047Y-112157200D01*
X162369047Y-112157200D02*
X162273809Y-112204819D01*
X162273809Y-112204819D02*
X162178571Y-112204819D01*
X162178571Y-112204819D02*
X162083333Y-112157200D01*
X162083333Y-112157200D02*
X162035714Y-112109580D01*
X162035714Y-112109580D02*
X161988095Y-112014342D01*
X161988095Y-112014342D02*
X161940476Y-111823866D01*
X161940476Y-111823866D02*
X161940476Y-111585771D01*
X161940476Y-111585771D02*
X161988095Y-111395295D01*
X161988095Y-111395295D02*
X162035714Y-111300057D01*
X162035714Y-111300057D02*
X162083333Y-111252438D01*
X162083333Y-111252438D02*
X162178571Y-111204819D01*
X158859580Y-120416666D02*
X158907200Y-120464285D01*
X158907200Y-120464285D02*
X158954819Y-120607142D01*
X158954819Y-120607142D02*
X158954819Y-120702380D01*
X158954819Y-120702380D02*
X158907200Y-120845237D01*
X158907200Y-120845237D02*
X158811961Y-120940475D01*
X158811961Y-120940475D02*
X158716723Y-120988094D01*
X158716723Y-120988094D02*
X158526247Y-121035713D01*
X158526247Y-121035713D02*
X158383390Y-121035713D01*
X158383390Y-121035713D02*
X158192914Y-120988094D01*
X158192914Y-120988094D02*
X158097676Y-120940475D01*
X158097676Y-120940475D02*
X158002438Y-120845237D01*
X158002438Y-120845237D02*
X157954819Y-120702380D01*
X157954819Y-120702380D02*
X157954819Y-120607142D01*
X157954819Y-120607142D02*
X158002438Y-120464285D01*
X158002438Y-120464285D02*
X158050057Y-120416666D01*
X158383390Y-119845237D02*
X158335771Y-119940475D01*
X158335771Y-119940475D02*
X158288152Y-119988094D01*
X158288152Y-119988094D02*
X158192914Y-120035713D01*
X158192914Y-120035713D02*
X158145295Y-120035713D01*
X158145295Y-120035713D02*
X158050057Y-119988094D01*
X158050057Y-119988094D02*
X158002438Y-119940475D01*
X158002438Y-119940475D02*
X157954819Y-119845237D01*
X157954819Y-119845237D02*
X157954819Y-119654761D01*
X157954819Y-119654761D02*
X158002438Y-119559523D01*
X158002438Y-119559523D02*
X158050057Y-119511904D01*
X158050057Y-119511904D02*
X158145295Y-119464285D01*
X158145295Y-119464285D02*
X158192914Y-119464285D01*
X158192914Y-119464285D02*
X158288152Y-119511904D01*
X158288152Y-119511904D02*
X158335771Y-119559523D01*
X158335771Y-119559523D02*
X158383390Y-119654761D01*
X158383390Y-119654761D02*
X158383390Y-119845237D01*
X158383390Y-119845237D02*
X158431009Y-119940475D01*
X158431009Y-119940475D02*
X158478628Y-119988094D01*
X158478628Y-119988094D02*
X158573866Y-120035713D01*
X158573866Y-120035713D02*
X158764342Y-120035713D01*
X158764342Y-120035713D02*
X158859580Y-119988094D01*
X158859580Y-119988094D02*
X158907200Y-119940475D01*
X158907200Y-119940475D02*
X158954819Y-119845237D01*
X158954819Y-119845237D02*
X158954819Y-119654761D01*
X158954819Y-119654761D02*
X158907200Y-119559523D01*
X158907200Y-119559523D02*
X158859580Y-119511904D01*
X158859580Y-119511904D02*
X158764342Y-119464285D01*
X158764342Y-119464285D02*
X158573866Y-119464285D01*
X158573866Y-119464285D02*
X158478628Y-119511904D01*
X158478628Y-119511904D02*
X158431009Y-119559523D01*
X158431009Y-119559523D02*
X158383390Y-119654761D01*
X154011905Y-69454819D02*
X154011905Y-68454819D01*
X154011905Y-68454819D02*
X154250000Y-68454819D01*
X154250000Y-68454819D02*
X154392857Y-68502438D01*
X154392857Y-68502438D02*
X154488095Y-68597676D01*
X154488095Y-68597676D02*
X154535714Y-68692914D01*
X154535714Y-68692914D02*
X154583333Y-68883390D01*
X154583333Y-68883390D02*
X154583333Y-69026247D01*
X154583333Y-69026247D02*
X154535714Y-69216723D01*
X154535714Y-69216723D02*
X154488095Y-69311961D01*
X154488095Y-69311961D02*
X154392857Y-69407200D01*
X154392857Y-69407200D02*
X154250000Y-69454819D01*
X154250000Y-69454819D02*
X154011905Y-69454819D01*
X155535714Y-69454819D02*
X154964286Y-69454819D01*
X155250000Y-69454819D02*
X155250000Y-68454819D01*
X155250000Y-68454819D02*
X155154762Y-68597676D01*
X155154762Y-68597676D02*
X155059524Y-68692914D01*
X155059524Y-68692914D02*
X154964286Y-68740533D01*
X155109580Y-129666666D02*
X155157200Y-129714285D01*
X155157200Y-129714285D02*
X155204819Y-129857142D01*
X155204819Y-129857142D02*
X155204819Y-129952380D01*
X155204819Y-129952380D02*
X155157200Y-130095237D01*
X155157200Y-130095237D02*
X155061961Y-130190475D01*
X155061961Y-130190475D02*
X154966723Y-130238094D01*
X154966723Y-130238094D02*
X154776247Y-130285713D01*
X154776247Y-130285713D02*
X154633390Y-130285713D01*
X154633390Y-130285713D02*
X154442914Y-130238094D01*
X154442914Y-130238094D02*
X154347676Y-130190475D01*
X154347676Y-130190475D02*
X154252438Y-130095237D01*
X154252438Y-130095237D02*
X154204819Y-129952380D01*
X154204819Y-129952380D02*
X154204819Y-129857142D01*
X154204819Y-129857142D02*
X154252438Y-129714285D01*
X154252438Y-129714285D02*
X154300057Y-129666666D01*
X154538152Y-128809523D02*
X155204819Y-128809523D01*
X154157200Y-129047618D02*
X154871485Y-129285713D01*
X154871485Y-129285713D02*
X154871485Y-128666666D01*
X142583333Y-114609580D02*
X142535714Y-114657200D01*
X142535714Y-114657200D02*
X142392857Y-114704819D01*
X142392857Y-114704819D02*
X142297619Y-114704819D01*
X142297619Y-114704819D02*
X142154762Y-114657200D01*
X142154762Y-114657200D02*
X142059524Y-114561961D01*
X142059524Y-114561961D02*
X142011905Y-114466723D01*
X142011905Y-114466723D02*
X141964286Y-114276247D01*
X141964286Y-114276247D02*
X141964286Y-114133390D01*
X141964286Y-114133390D02*
X142011905Y-113942914D01*
X142011905Y-113942914D02*
X142059524Y-113847676D01*
X142059524Y-113847676D02*
X142154762Y-113752438D01*
X142154762Y-113752438D02*
X142297619Y-113704819D01*
X142297619Y-113704819D02*
X142392857Y-113704819D01*
X142392857Y-113704819D02*
X142535714Y-113752438D01*
X142535714Y-113752438D02*
X142583333Y-113800057D01*
X142916667Y-113704819D02*
X143583333Y-113704819D01*
X143583333Y-113704819D02*
X143154762Y-114704819D01*
X161833333Y-110454819D02*
X161500000Y-109978628D01*
X161261905Y-110454819D02*
X161261905Y-109454819D01*
X161261905Y-109454819D02*
X161642857Y-109454819D01*
X161642857Y-109454819D02*
X161738095Y-109502438D01*
X161738095Y-109502438D02*
X161785714Y-109550057D01*
X161785714Y-109550057D02*
X161833333Y-109645295D01*
X161833333Y-109645295D02*
X161833333Y-109788152D01*
X161833333Y-109788152D02*
X161785714Y-109883390D01*
X161785714Y-109883390D02*
X161738095Y-109931009D01*
X161738095Y-109931009D02*
X161642857Y-109978628D01*
X161642857Y-109978628D02*
X161261905Y-109978628D01*
X162785714Y-110454819D02*
X162214286Y-110454819D01*
X162500000Y-110454819D02*
X162500000Y-109454819D01*
X162500000Y-109454819D02*
X162404762Y-109597676D01*
X162404762Y-109597676D02*
X162309524Y-109692914D01*
X162309524Y-109692914D02*
X162214286Y-109740533D01*
X145232142Y-86809580D02*
X145184523Y-86857200D01*
X145184523Y-86857200D02*
X145041666Y-86904819D01*
X145041666Y-86904819D02*
X144946428Y-86904819D01*
X144946428Y-86904819D02*
X144803571Y-86857200D01*
X144803571Y-86857200D02*
X144708333Y-86761961D01*
X144708333Y-86761961D02*
X144660714Y-86666723D01*
X144660714Y-86666723D02*
X144613095Y-86476247D01*
X144613095Y-86476247D02*
X144613095Y-86333390D01*
X144613095Y-86333390D02*
X144660714Y-86142914D01*
X144660714Y-86142914D02*
X144708333Y-86047676D01*
X144708333Y-86047676D02*
X144803571Y-85952438D01*
X144803571Y-85952438D02*
X144946428Y-85904819D01*
X144946428Y-85904819D02*
X145041666Y-85904819D01*
X145041666Y-85904819D02*
X145184523Y-85952438D01*
X145184523Y-85952438D02*
X145232142Y-86000057D01*
X146184523Y-86904819D02*
X145613095Y-86904819D01*
X145898809Y-86904819D02*
X145898809Y-85904819D01*
X145898809Y-85904819D02*
X145803571Y-86047676D01*
X145803571Y-86047676D02*
X145708333Y-86142914D01*
X145708333Y-86142914D02*
X145613095Y-86190533D01*
X147089285Y-85904819D02*
X146613095Y-85904819D01*
X146613095Y-85904819D02*
X146565476Y-86381009D01*
X146565476Y-86381009D02*
X146613095Y-86333390D01*
X146613095Y-86333390D02*
X146708333Y-86285771D01*
X146708333Y-86285771D02*
X146946428Y-86285771D01*
X146946428Y-86285771D02*
X147041666Y-86333390D01*
X147041666Y-86333390D02*
X147089285Y-86381009D01*
X147089285Y-86381009D02*
X147136904Y-86476247D01*
X147136904Y-86476247D02*
X147136904Y-86714342D01*
X147136904Y-86714342D02*
X147089285Y-86809580D01*
X147089285Y-86809580D02*
X147041666Y-86857200D01*
X147041666Y-86857200D02*
X146946428Y-86904819D01*
X146946428Y-86904819D02*
X146708333Y-86904819D01*
X146708333Y-86904819D02*
X146613095Y-86857200D01*
X146613095Y-86857200D02*
X146565476Y-86809580D01*
X143107738Y-79093440D02*
X142771021Y-79430158D01*
X142771021Y-79430158D02*
X142063914Y-78723051D01*
X142670006Y-78251646D02*
X142670006Y-78184303D01*
X142670006Y-78184303D02*
X142703677Y-78083287D01*
X142703677Y-78083287D02*
X142872036Y-77914929D01*
X142872036Y-77914929D02*
X142973051Y-77881257D01*
X142973051Y-77881257D02*
X143040395Y-77881257D01*
X143040395Y-77881257D02*
X143141410Y-77914929D01*
X143141410Y-77914929D02*
X143208754Y-77982272D01*
X143208754Y-77982272D02*
X143276097Y-78116959D01*
X143276097Y-78116959D02*
X143276097Y-78925081D01*
X143276097Y-78925081D02*
X143713830Y-78487348D01*
X150107142Y-78109580D02*
X150059523Y-78157200D01*
X150059523Y-78157200D02*
X149916666Y-78204819D01*
X149916666Y-78204819D02*
X149821428Y-78204819D01*
X149821428Y-78204819D02*
X149678571Y-78157200D01*
X149678571Y-78157200D02*
X149583333Y-78061961D01*
X149583333Y-78061961D02*
X149535714Y-77966723D01*
X149535714Y-77966723D02*
X149488095Y-77776247D01*
X149488095Y-77776247D02*
X149488095Y-77633390D01*
X149488095Y-77633390D02*
X149535714Y-77442914D01*
X149535714Y-77442914D02*
X149583333Y-77347676D01*
X149583333Y-77347676D02*
X149678571Y-77252438D01*
X149678571Y-77252438D02*
X149821428Y-77204819D01*
X149821428Y-77204819D02*
X149916666Y-77204819D01*
X149916666Y-77204819D02*
X150059523Y-77252438D01*
X150059523Y-77252438D02*
X150107142Y-77300057D01*
X151059523Y-78204819D02*
X150488095Y-78204819D01*
X150773809Y-78204819D02*
X150773809Y-77204819D01*
X150773809Y-77204819D02*
X150678571Y-77347676D01*
X150678571Y-77347676D02*
X150583333Y-77442914D01*
X150583333Y-77442914D02*
X150488095Y-77490533D01*
X151630952Y-77633390D02*
X151535714Y-77585771D01*
X151535714Y-77585771D02*
X151488095Y-77538152D01*
X151488095Y-77538152D02*
X151440476Y-77442914D01*
X151440476Y-77442914D02*
X151440476Y-77395295D01*
X151440476Y-77395295D02*
X151488095Y-77300057D01*
X151488095Y-77300057D02*
X151535714Y-77252438D01*
X151535714Y-77252438D02*
X151630952Y-77204819D01*
X151630952Y-77204819D02*
X151821428Y-77204819D01*
X151821428Y-77204819D02*
X151916666Y-77252438D01*
X151916666Y-77252438D02*
X151964285Y-77300057D01*
X151964285Y-77300057D02*
X152011904Y-77395295D01*
X152011904Y-77395295D02*
X152011904Y-77442914D01*
X152011904Y-77442914D02*
X151964285Y-77538152D01*
X151964285Y-77538152D02*
X151916666Y-77585771D01*
X151916666Y-77585771D02*
X151821428Y-77633390D01*
X151821428Y-77633390D02*
X151630952Y-77633390D01*
X151630952Y-77633390D02*
X151535714Y-77681009D01*
X151535714Y-77681009D02*
X151488095Y-77728628D01*
X151488095Y-77728628D02*
X151440476Y-77823866D01*
X151440476Y-77823866D02*
X151440476Y-78014342D01*
X151440476Y-78014342D02*
X151488095Y-78109580D01*
X151488095Y-78109580D02*
X151535714Y-78157200D01*
X151535714Y-78157200D02*
X151630952Y-78204819D01*
X151630952Y-78204819D02*
X151821428Y-78204819D01*
X151821428Y-78204819D02*
X151916666Y-78157200D01*
X151916666Y-78157200D02*
X151964285Y-78109580D01*
X151964285Y-78109580D02*
X152011904Y-78014342D01*
X152011904Y-78014342D02*
X152011904Y-77823866D01*
X152011904Y-77823866D02*
X151964285Y-77728628D01*
X151964285Y-77728628D02*
X151916666Y-77681009D01*
X151916666Y-77681009D02*
X151821428Y-77633390D01*
X146204819Y-120416666D02*
X145728628Y-120749999D01*
X146204819Y-120988094D02*
X145204819Y-120988094D01*
X145204819Y-120988094D02*
X145204819Y-120607142D01*
X145204819Y-120607142D02*
X145252438Y-120511904D01*
X145252438Y-120511904D02*
X145300057Y-120464285D01*
X145300057Y-120464285D02*
X145395295Y-120416666D01*
X145395295Y-120416666D02*
X145538152Y-120416666D01*
X145538152Y-120416666D02*
X145633390Y-120464285D01*
X145633390Y-120464285D02*
X145681009Y-120511904D01*
X145681009Y-120511904D02*
X145728628Y-120607142D01*
X145728628Y-120607142D02*
X145728628Y-120988094D01*
X145204819Y-119511904D02*
X145204819Y-119988094D01*
X145204819Y-119988094D02*
X145681009Y-120035713D01*
X145681009Y-120035713D02*
X145633390Y-119988094D01*
X145633390Y-119988094D02*
X145585771Y-119892856D01*
X145585771Y-119892856D02*
X145585771Y-119654761D01*
X145585771Y-119654761D02*
X145633390Y-119559523D01*
X145633390Y-119559523D02*
X145681009Y-119511904D01*
X145681009Y-119511904D02*
X145776247Y-119464285D01*
X145776247Y-119464285D02*
X146014342Y-119464285D01*
X146014342Y-119464285D02*
X146109580Y-119511904D01*
X146109580Y-119511904D02*
X146157200Y-119559523D01*
X146157200Y-119559523D02*
X146204819Y-119654761D01*
X146204819Y-119654761D02*
X146204819Y-119892856D01*
X146204819Y-119892856D02*
X146157200Y-119988094D01*
X146157200Y-119988094D02*
X146109580Y-120035713D01*
X139761905Y-73704819D02*
X139761905Y-72704819D01*
X139761905Y-72704819D02*
X140000000Y-72704819D01*
X140000000Y-72704819D02*
X140142857Y-72752438D01*
X140142857Y-72752438D02*
X140238095Y-72847676D01*
X140238095Y-72847676D02*
X140285714Y-72942914D01*
X140285714Y-72942914D02*
X140333333Y-73133390D01*
X140333333Y-73133390D02*
X140333333Y-73276247D01*
X140333333Y-73276247D02*
X140285714Y-73466723D01*
X140285714Y-73466723D02*
X140238095Y-73561961D01*
X140238095Y-73561961D02*
X140142857Y-73657200D01*
X140142857Y-73657200D02*
X140000000Y-73704819D01*
X140000000Y-73704819D02*
X139761905Y-73704819D01*
X141190476Y-73038152D02*
X141190476Y-73704819D01*
X140952381Y-72657200D02*
X140714286Y-73371485D01*
X140714286Y-73371485D02*
X141333333Y-73371485D01*
X149857142Y-75359580D02*
X149809523Y-75407200D01*
X149809523Y-75407200D02*
X149666666Y-75454819D01*
X149666666Y-75454819D02*
X149571428Y-75454819D01*
X149571428Y-75454819D02*
X149428571Y-75407200D01*
X149428571Y-75407200D02*
X149333333Y-75311961D01*
X149333333Y-75311961D02*
X149285714Y-75216723D01*
X149285714Y-75216723D02*
X149238095Y-75026247D01*
X149238095Y-75026247D02*
X149238095Y-74883390D01*
X149238095Y-74883390D02*
X149285714Y-74692914D01*
X149285714Y-74692914D02*
X149333333Y-74597676D01*
X149333333Y-74597676D02*
X149428571Y-74502438D01*
X149428571Y-74502438D02*
X149571428Y-74454819D01*
X149571428Y-74454819D02*
X149666666Y-74454819D01*
X149666666Y-74454819D02*
X149809523Y-74502438D01*
X149809523Y-74502438D02*
X149857142Y-74550057D01*
X150809523Y-75454819D02*
X150238095Y-75454819D01*
X150523809Y-75454819D02*
X150523809Y-74454819D01*
X150523809Y-74454819D02*
X150428571Y-74597676D01*
X150428571Y-74597676D02*
X150333333Y-74692914D01*
X150333333Y-74692914D02*
X150238095Y-74740533D01*
X151285714Y-75454819D02*
X151476190Y-75454819D01*
X151476190Y-75454819D02*
X151571428Y-75407200D01*
X151571428Y-75407200D02*
X151619047Y-75359580D01*
X151619047Y-75359580D02*
X151714285Y-75216723D01*
X151714285Y-75216723D02*
X151761904Y-75026247D01*
X151761904Y-75026247D02*
X151761904Y-74645295D01*
X151761904Y-74645295D02*
X151714285Y-74550057D01*
X151714285Y-74550057D02*
X151666666Y-74502438D01*
X151666666Y-74502438D02*
X151571428Y-74454819D01*
X151571428Y-74454819D02*
X151380952Y-74454819D01*
X151380952Y-74454819D02*
X151285714Y-74502438D01*
X151285714Y-74502438D02*
X151238095Y-74550057D01*
X151238095Y-74550057D02*
X151190476Y-74645295D01*
X151190476Y-74645295D02*
X151190476Y-74883390D01*
X151190476Y-74883390D02*
X151238095Y-74978628D01*
X151238095Y-74978628D02*
X151285714Y-75026247D01*
X151285714Y-75026247D02*
X151380952Y-75073866D01*
X151380952Y-75073866D02*
X151571428Y-75073866D01*
X151571428Y-75073866D02*
X151666666Y-75026247D01*
X151666666Y-75026247D02*
X151714285Y-74978628D01*
X151714285Y-74978628D02*
X151761904Y-74883390D01*
X156420833Y-104638569D02*
X156087500Y-104162378D01*
X155849405Y-104638569D02*
X155849405Y-103638569D01*
X155849405Y-103638569D02*
X156230357Y-103638569D01*
X156230357Y-103638569D02*
X156325595Y-103686188D01*
X156325595Y-103686188D02*
X156373214Y-103733807D01*
X156373214Y-103733807D02*
X156420833Y-103829045D01*
X156420833Y-103829045D02*
X156420833Y-103971902D01*
X156420833Y-103971902D02*
X156373214Y-104067140D01*
X156373214Y-104067140D02*
X156325595Y-104114759D01*
X156325595Y-104114759D02*
X156230357Y-104162378D01*
X156230357Y-104162378D02*
X155849405Y-104162378D01*
X156754167Y-103638569D02*
X157373214Y-103638569D01*
X157373214Y-103638569D02*
X157039881Y-104019521D01*
X157039881Y-104019521D02*
X157182738Y-104019521D01*
X157182738Y-104019521D02*
X157277976Y-104067140D01*
X157277976Y-104067140D02*
X157325595Y-104114759D01*
X157325595Y-104114759D02*
X157373214Y-104209997D01*
X157373214Y-104209997D02*
X157373214Y-104448092D01*
X157373214Y-104448092D02*
X157325595Y-104543330D01*
X157325595Y-104543330D02*
X157277976Y-104590950D01*
X157277976Y-104590950D02*
X157182738Y-104638569D01*
X157182738Y-104638569D02*
X156897024Y-104638569D01*
X156897024Y-104638569D02*
X156801786Y-104590950D01*
X156801786Y-104590950D02*
X156754167Y-104543330D01*
X164833333Y-116704819D02*
X164500000Y-116228628D01*
X164261905Y-116704819D02*
X164261905Y-115704819D01*
X164261905Y-115704819D02*
X164642857Y-115704819D01*
X164642857Y-115704819D02*
X164738095Y-115752438D01*
X164738095Y-115752438D02*
X164785714Y-115800057D01*
X164785714Y-115800057D02*
X164833333Y-115895295D01*
X164833333Y-115895295D02*
X164833333Y-116038152D01*
X164833333Y-116038152D02*
X164785714Y-116133390D01*
X164785714Y-116133390D02*
X164738095Y-116181009D01*
X164738095Y-116181009D02*
X164642857Y-116228628D01*
X164642857Y-116228628D02*
X164261905Y-116228628D01*
X165214286Y-115800057D02*
X165261905Y-115752438D01*
X165261905Y-115752438D02*
X165357143Y-115704819D01*
X165357143Y-115704819D02*
X165595238Y-115704819D01*
X165595238Y-115704819D02*
X165690476Y-115752438D01*
X165690476Y-115752438D02*
X165738095Y-115800057D01*
X165738095Y-115800057D02*
X165785714Y-115895295D01*
X165785714Y-115895295D02*
X165785714Y-115990533D01*
X165785714Y-115990533D02*
X165738095Y-116133390D01*
X165738095Y-116133390D02*
X165166667Y-116704819D01*
X165166667Y-116704819D02*
X165785714Y-116704819D01*
X161357142Y-97954819D02*
X161023809Y-97478628D01*
X160785714Y-97954819D02*
X160785714Y-96954819D01*
X160785714Y-96954819D02*
X161166666Y-96954819D01*
X161166666Y-96954819D02*
X161261904Y-97002438D01*
X161261904Y-97002438D02*
X161309523Y-97050057D01*
X161309523Y-97050057D02*
X161357142Y-97145295D01*
X161357142Y-97145295D02*
X161357142Y-97288152D01*
X161357142Y-97288152D02*
X161309523Y-97383390D01*
X161309523Y-97383390D02*
X161261904Y-97431009D01*
X161261904Y-97431009D02*
X161166666Y-97478628D01*
X161166666Y-97478628D02*
X160785714Y-97478628D01*
X162309523Y-97954819D02*
X161738095Y-97954819D01*
X162023809Y-97954819D02*
X162023809Y-96954819D01*
X162023809Y-96954819D02*
X161928571Y-97097676D01*
X161928571Y-97097676D02*
X161833333Y-97192914D01*
X161833333Y-97192914D02*
X161738095Y-97240533D01*
X163261904Y-97954819D02*
X162690476Y-97954819D01*
X162976190Y-97954819D02*
X162976190Y-96954819D01*
X162976190Y-96954819D02*
X162880952Y-97097676D01*
X162880952Y-97097676D02*
X162785714Y-97192914D01*
X162785714Y-97192914D02*
X162690476Y-97240533D01*
X150859580Y-88666666D02*
X150907200Y-88714285D01*
X150907200Y-88714285D02*
X150954819Y-88857142D01*
X150954819Y-88857142D02*
X150954819Y-88952380D01*
X150954819Y-88952380D02*
X150907200Y-89095237D01*
X150907200Y-89095237D02*
X150811961Y-89190475D01*
X150811961Y-89190475D02*
X150716723Y-89238094D01*
X150716723Y-89238094D02*
X150526247Y-89285713D01*
X150526247Y-89285713D02*
X150383390Y-89285713D01*
X150383390Y-89285713D02*
X150192914Y-89238094D01*
X150192914Y-89238094D02*
X150097676Y-89190475D01*
X150097676Y-89190475D02*
X150002438Y-89095237D01*
X150002438Y-89095237D02*
X149954819Y-88952380D01*
X149954819Y-88952380D02*
X149954819Y-88857142D01*
X149954819Y-88857142D02*
X150002438Y-88714285D01*
X150002438Y-88714285D02*
X150050057Y-88666666D01*
X149954819Y-87809523D02*
X149954819Y-87999999D01*
X149954819Y-87999999D02*
X150002438Y-88095237D01*
X150002438Y-88095237D02*
X150050057Y-88142856D01*
X150050057Y-88142856D02*
X150192914Y-88238094D01*
X150192914Y-88238094D02*
X150383390Y-88285713D01*
X150383390Y-88285713D02*
X150764342Y-88285713D01*
X150764342Y-88285713D02*
X150859580Y-88238094D01*
X150859580Y-88238094D02*
X150907200Y-88190475D01*
X150907200Y-88190475D02*
X150954819Y-88095237D01*
X150954819Y-88095237D02*
X150954819Y-87904761D01*
X150954819Y-87904761D02*
X150907200Y-87809523D01*
X150907200Y-87809523D02*
X150859580Y-87761904D01*
X150859580Y-87761904D02*
X150764342Y-87714285D01*
X150764342Y-87714285D02*
X150526247Y-87714285D01*
X150526247Y-87714285D02*
X150431009Y-87761904D01*
X150431009Y-87761904D02*
X150383390Y-87809523D01*
X150383390Y-87809523D02*
X150335771Y-87904761D01*
X150335771Y-87904761D02*
X150335771Y-88095237D01*
X150335771Y-88095237D02*
X150383390Y-88190475D01*
X150383390Y-88190475D02*
X150431009Y-88238094D01*
X150431009Y-88238094D02*
X150526247Y-88285713D01*
X159609580Y-111392857D02*
X159657200Y-111440476D01*
X159657200Y-111440476D02*
X159704819Y-111583333D01*
X159704819Y-111583333D02*
X159704819Y-111678571D01*
X159704819Y-111678571D02*
X159657200Y-111821428D01*
X159657200Y-111821428D02*
X159561961Y-111916666D01*
X159561961Y-111916666D02*
X159466723Y-111964285D01*
X159466723Y-111964285D02*
X159276247Y-112011904D01*
X159276247Y-112011904D02*
X159133390Y-112011904D01*
X159133390Y-112011904D02*
X158942914Y-111964285D01*
X158942914Y-111964285D02*
X158847676Y-111916666D01*
X158847676Y-111916666D02*
X158752438Y-111821428D01*
X158752438Y-111821428D02*
X158704819Y-111678571D01*
X158704819Y-111678571D02*
X158704819Y-111583333D01*
X158704819Y-111583333D02*
X158752438Y-111440476D01*
X158752438Y-111440476D02*
X158800057Y-111392857D01*
X159704819Y-110440476D02*
X159704819Y-111011904D01*
X159704819Y-110726190D02*
X158704819Y-110726190D01*
X158704819Y-110726190D02*
X158847676Y-110821428D01*
X158847676Y-110821428D02*
X158942914Y-110916666D01*
X158942914Y-110916666D02*
X158990533Y-111011904D01*
X158800057Y-110059523D02*
X158752438Y-110011904D01*
X158752438Y-110011904D02*
X158704819Y-109916666D01*
X158704819Y-109916666D02*
X158704819Y-109678571D01*
X158704819Y-109678571D02*
X158752438Y-109583333D01*
X158752438Y-109583333D02*
X158800057Y-109535714D01*
X158800057Y-109535714D02*
X158895295Y-109488095D01*
X158895295Y-109488095D02*
X158990533Y-109488095D01*
X158990533Y-109488095D02*
X159133390Y-109535714D01*
X159133390Y-109535714D02*
X159704819Y-110107142D01*
X159704819Y-110107142D02*
X159704819Y-109488095D01*
X161654761Y-100800057D02*
X161559523Y-100752438D01*
X161559523Y-100752438D02*
X161464285Y-100657200D01*
X161464285Y-100657200D02*
X161321428Y-100514342D01*
X161321428Y-100514342D02*
X161226190Y-100466723D01*
X161226190Y-100466723D02*
X161130952Y-100466723D01*
X161178571Y-100704819D02*
X161083333Y-100657200D01*
X161083333Y-100657200D02*
X160988095Y-100561961D01*
X160988095Y-100561961D02*
X160940476Y-100371485D01*
X160940476Y-100371485D02*
X160940476Y-100038152D01*
X160940476Y-100038152D02*
X160988095Y-99847676D01*
X160988095Y-99847676D02*
X161083333Y-99752438D01*
X161083333Y-99752438D02*
X161178571Y-99704819D01*
X161178571Y-99704819D02*
X161369047Y-99704819D01*
X161369047Y-99704819D02*
X161464285Y-99752438D01*
X161464285Y-99752438D02*
X161559523Y-99847676D01*
X161559523Y-99847676D02*
X161607142Y-100038152D01*
X161607142Y-100038152D02*
X161607142Y-100371485D01*
X161607142Y-100371485D02*
X161559523Y-100561961D01*
X161559523Y-100561961D02*
X161464285Y-100657200D01*
X161464285Y-100657200D02*
X161369047Y-100704819D01*
X161369047Y-100704819D02*
X161178571Y-100704819D01*
X161988095Y-99800057D02*
X162035714Y-99752438D01*
X162035714Y-99752438D02*
X162130952Y-99704819D01*
X162130952Y-99704819D02*
X162369047Y-99704819D01*
X162369047Y-99704819D02*
X162464285Y-99752438D01*
X162464285Y-99752438D02*
X162511904Y-99800057D01*
X162511904Y-99800057D02*
X162559523Y-99895295D01*
X162559523Y-99895295D02*
X162559523Y-99990533D01*
X162559523Y-99990533D02*
X162511904Y-100133390D01*
X162511904Y-100133390D02*
X161940476Y-100704819D01*
X161940476Y-100704819D02*
X162559523Y-100704819D01*
X140708333Y-85309580D02*
X140660714Y-85357200D01*
X140660714Y-85357200D02*
X140517857Y-85404819D01*
X140517857Y-85404819D02*
X140422619Y-85404819D01*
X140422619Y-85404819D02*
X140279762Y-85357200D01*
X140279762Y-85357200D02*
X140184524Y-85261961D01*
X140184524Y-85261961D02*
X140136905Y-85166723D01*
X140136905Y-85166723D02*
X140089286Y-84976247D01*
X140089286Y-84976247D02*
X140089286Y-84833390D01*
X140089286Y-84833390D02*
X140136905Y-84642914D01*
X140136905Y-84642914D02*
X140184524Y-84547676D01*
X140184524Y-84547676D02*
X140279762Y-84452438D01*
X140279762Y-84452438D02*
X140422619Y-84404819D01*
X140422619Y-84404819D02*
X140517857Y-84404819D01*
X140517857Y-84404819D02*
X140660714Y-84452438D01*
X140660714Y-84452438D02*
X140708333Y-84500057D01*
X141613095Y-84404819D02*
X141136905Y-84404819D01*
X141136905Y-84404819D02*
X141089286Y-84881009D01*
X141089286Y-84881009D02*
X141136905Y-84833390D01*
X141136905Y-84833390D02*
X141232143Y-84785771D01*
X141232143Y-84785771D02*
X141470238Y-84785771D01*
X141470238Y-84785771D02*
X141565476Y-84833390D01*
X141565476Y-84833390D02*
X141613095Y-84881009D01*
X141613095Y-84881009D02*
X141660714Y-84976247D01*
X141660714Y-84976247D02*
X141660714Y-85214342D01*
X141660714Y-85214342D02*
X141613095Y-85309580D01*
X141613095Y-85309580D02*
X141565476Y-85357200D01*
X141565476Y-85357200D02*
X141470238Y-85404819D01*
X141470238Y-85404819D02*
X141232143Y-85404819D01*
X141232143Y-85404819D02*
X141136905Y-85357200D01*
X141136905Y-85357200D02*
X141089286Y-85309580D01*
X158377142Y-126859580D02*
X158329523Y-126907200D01*
X158329523Y-126907200D02*
X158186666Y-126954819D01*
X158186666Y-126954819D02*
X158091428Y-126954819D01*
X158091428Y-126954819D02*
X157948571Y-126907200D01*
X157948571Y-126907200D02*
X157853333Y-126811961D01*
X157853333Y-126811961D02*
X157805714Y-126716723D01*
X157805714Y-126716723D02*
X157758095Y-126526247D01*
X157758095Y-126526247D02*
X157758095Y-126383390D01*
X157758095Y-126383390D02*
X157805714Y-126192914D01*
X157805714Y-126192914D02*
X157853333Y-126097676D01*
X157853333Y-126097676D02*
X157948571Y-126002438D01*
X157948571Y-126002438D02*
X158091428Y-125954819D01*
X158091428Y-125954819D02*
X158186666Y-125954819D01*
X158186666Y-125954819D02*
X158329523Y-126002438D01*
X158329523Y-126002438D02*
X158377142Y-126050057D01*
X159329523Y-126954819D02*
X158758095Y-126954819D01*
X159043809Y-126954819D02*
X159043809Y-125954819D01*
X159043809Y-125954819D02*
X158948571Y-126097676D01*
X158948571Y-126097676D02*
X158853333Y-126192914D01*
X158853333Y-126192914D02*
X158758095Y-126240533D01*
X160186666Y-126288152D02*
X160186666Y-126954819D01*
X159948571Y-125907200D02*
X159710476Y-126621485D01*
X159710476Y-126621485D02*
X160329523Y-126621485D01*
X139655616Y-101456345D02*
X139322283Y-100980154D01*
X139084188Y-101456345D02*
X139084188Y-100456345D01*
X139084188Y-100456345D02*
X139465140Y-100456345D01*
X139465140Y-100456345D02*
X139560378Y-100503964D01*
X139560378Y-100503964D02*
X139607997Y-100551583D01*
X139607997Y-100551583D02*
X139655616Y-100646821D01*
X139655616Y-100646821D02*
X139655616Y-100789678D01*
X139655616Y-100789678D02*
X139607997Y-100884916D01*
X139607997Y-100884916D02*
X139560378Y-100932535D01*
X139560378Y-100932535D02*
X139465140Y-100980154D01*
X139465140Y-100980154D02*
X139084188Y-100980154D01*
X140607997Y-101456345D02*
X140036569Y-101456345D01*
X140322283Y-101456345D02*
X140322283Y-100456345D01*
X140322283Y-100456345D02*
X140227045Y-100599202D01*
X140227045Y-100599202D02*
X140131807Y-100694440D01*
X140131807Y-100694440D02*
X140036569Y-100742059D01*
X141465140Y-100456345D02*
X141274664Y-100456345D01*
X141274664Y-100456345D02*
X141179426Y-100503964D01*
X141179426Y-100503964D02*
X141131807Y-100551583D01*
X141131807Y-100551583D02*
X141036569Y-100694440D01*
X141036569Y-100694440D02*
X140988950Y-100884916D01*
X140988950Y-100884916D02*
X140988950Y-101265868D01*
X140988950Y-101265868D02*
X141036569Y-101361106D01*
X141036569Y-101361106D02*
X141084188Y-101408726D01*
X141084188Y-101408726D02*
X141179426Y-101456345D01*
X141179426Y-101456345D02*
X141369902Y-101456345D01*
X141369902Y-101456345D02*
X141465140Y-101408726D01*
X141465140Y-101408726D02*
X141512759Y-101361106D01*
X141512759Y-101361106D02*
X141560378Y-101265868D01*
X141560378Y-101265868D02*
X141560378Y-101027773D01*
X141560378Y-101027773D02*
X141512759Y-100932535D01*
X141512759Y-100932535D02*
X141465140Y-100884916D01*
X141465140Y-100884916D02*
X141369902Y-100837297D01*
X141369902Y-100837297D02*
X141179426Y-100837297D01*
X141179426Y-100837297D02*
X141084188Y-100884916D01*
X141084188Y-100884916D02*
X141036569Y-100932535D01*
X141036569Y-100932535D02*
X140988950Y-101027773D01*
X144810543Y-82953754D02*
X144473825Y-82617037D01*
X144473825Y-82617037D02*
X145180932Y-81909930D01*
X145416635Y-83559846D02*
X145012574Y-83155785D01*
X145214604Y-83357815D02*
X145921711Y-82650709D01*
X145921711Y-82650709D02*
X145753352Y-82684380D01*
X145753352Y-82684380D02*
X145618665Y-82684380D01*
X145618665Y-82684380D02*
X145517650Y-82650709D01*
X150419104Y-71619047D02*
X150419104Y-71142857D01*
X150704819Y-71714285D02*
X149704819Y-71380952D01*
X149704819Y-71380952D02*
X150704819Y-71047619D01*
X150704819Y-70714285D02*
X149704819Y-70714285D01*
X149704819Y-70714285D02*
X150704819Y-70142857D01*
X150704819Y-70142857D02*
X149704819Y-70142857D01*
X149704819Y-69809523D02*
X149704819Y-69238095D01*
X150704819Y-69523809D02*
X149704819Y-69523809D01*
X149800057Y-68952380D02*
X149752438Y-68904761D01*
X149752438Y-68904761D02*
X149704819Y-68809523D01*
X149704819Y-68809523D02*
X149704819Y-68571428D01*
X149704819Y-68571428D02*
X149752438Y-68476190D01*
X149752438Y-68476190D02*
X149800057Y-68428571D01*
X149800057Y-68428571D02*
X149895295Y-68380952D01*
X149895295Y-68380952D02*
X149990533Y-68380952D01*
X149990533Y-68380952D02*
X150133390Y-68428571D01*
X150133390Y-68428571D02*
X150704819Y-68999999D01*
X150704819Y-68999999D02*
X150704819Y-68380952D01*
X140773809Y-116478628D02*
X140773809Y-116954819D01*
X140440476Y-115954819D02*
X140773809Y-116478628D01*
X140773809Y-116478628D02*
X141107142Y-115954819D01*
X141392857Y-116050057D02*
X141440476Y-116002438D01*
X141440476Y-116002438D02*
X141535714Y-115954819D01*
X141535714Y-115954819D02*
X141773809Y-115954819D01*
X141773809Y-115954819D02*
X141869047Y-116002438D01*
X141869047Y-116002438D02*
X141916666Y-116050057D01*
X141916666Y-116050057D02*
X141964285Y-116145295D01*
X141964285Y-116145295D02*
X141964285Y-116240533D01*
X141964285Y-116240533D02*
X141916666Y-116383390D01*
X141916666Y-116383390D02*
X141345238Y-116954819D01*
X141345238Y-116954819D02*
X141964285Y-116954819D01*
X138654762Y-117883390D02*
X138559524Y-117835771D01*
X138559524Y-117835771D02*
X138511905Y-117788152D01*
X138511905Y-117788152D02*
X138464286Y-117692914D01*
X138464286Y-117692914D02*
X138464286Y-117645295D01*
X138464286Y-117645295D02*
X138511905Y-117550057D01*
X138511905Y-117550057D02*
X138559524Y-117502438D01*
X138559524Y-117502438D02*
X138654762Y-117454819D01*
X138654762Y-117454819D02*
X138845238Y-117454819D01*
X138845238Y-117454819D02*
X138940476Y-117502438D01*
X138940476Y-117502438D02*
X138988095Y-117550057D01*
X138988095Y-117550057D02*
X139035714Y-117645295D01*
X139035714Y-117645295D02*
X139035714Y-117692914D01*
X139035714Y-117692914D02*
X138988095Y-117788152D01*
X138988095Y-117788152D02*
X138940476Y-117835771D01*
X138940476Y-117835771D02*
X138845238Y-117883390D01*
X138845238Y-117883390D02*
X138654762Y-117883390D01*
X138654762Y-117883390D02*
X138559524Y-117931009D01*
X138559524Y-117931009D02*
X138511905Y-117978628D01*
X138511905Y-117978628D02*
X138464286Y-118073866D01*
X138464286Y-118073866D02*
X138464286Y-118264342D01*
X138464286Y-118264342D02*
X138511905Y-118359580D01*
X138511905Y-118359580D02*
X138559524Y-118407200D01*
X138559524Y-118407200D02*
X138654762Y-118454819D01*
X138654762Y-118454819D02*
X138845238Y-118454819D01*
X138845238Y-118454819D02*
X138940476Y-118407200D01*
X138940476Y-118407200D02*
X138988095Y-118359580D01*
X138988095Y-118359580D02*
X139035714Y-118264342D01*
X139035714Y-118264342D02*
X139035714Y-118073866D01*
X139035714Y-118073866D02*
X138988095Y-117978628D01*
X138988095Y-117978628D02*
X138940476Y-117931009D01*
X138940476Y-117931009D02*
X138845238Y-117883390D01*
X139464286Y-118454819D02*
X139464286Y-117454819D01*
X139464286Y-117454819D02*
X139797619Y-118169104D01*
X139797619Y-118169104D02*
X140130952Y-117454819D01*
X140130952Y-117454819D02*
X140130952Y-118454819D01*
X140607143Y-118454819D02*
X140607143Y-117454819D01*
X140607143Y-117931009D02*
X141178571Y-117931009D01*
X141178571Y-118454819D02*
X141178571Y-117454819D01*
X141559524Y-117788152D02*
X142083333Y-117788152D01*
X142083333Y-117788152D02*
X141559524Y-118454819D01*
X141559524Y-118454819D02*
X142083333Y-118454819D01*
X142464527Y-77049770D02*
X142127809Y-76713053D01*
X142127809Y-76713053D02*
X142834916Y-76005946D01*
X143339993Y-76511022D02*
X143777725Y-76948755D01*
X143777725Y-76948755D02*
X143272649Y-76982427D01*
X143272649Y-76982427D02*
X143373664Y-77083442D01*
X143373664Y-77083442D02*
X143407336Y-77184457D01*
X143407336Y-77184457D02*
X143407336Y-77251801D01*
X143407336Y-77251801D02*
X143373664Y-77352816D01*
X143373664Y-77352816D02*
X143205306Y-77521175D01*
X143205306Y-77521175D02*
X143104290Y-77554847D01*
X143104290Y-77554847D02*
X143036947Y-77554847D01*
X143036947Y-77554847D02*
X142935932Y-77521175D01*
X142935932Y-77521175D02*
X142733901Y-77319144D01*
X142733901Y-77319144D02*
X142700229Y-77218129D01*
X142700229Y-77218129D02*
X142700229Y-77150786D01*
X163583333Y-83609580D02*
X163535714Y-83657200D01*
X163535714Y-83657200D02*
X163392857Y-83704819D01*
X163392857Y-83704819D02*
X163297619Y-83704819D01*
X163297619Y-83704819D02*
X163154762Y-83657200D01*
X163154762Y-83657200D02*
X163059524Y-83561961D01*
X163059524Y-83561961D02*
X163011905Y-83466723D01*
X163011905Y-83466723D02*
X162964286Y-83276247D01*
X162964286Y-83276247D02*
X162964286Y-83133390D01*
X162964286Y-83133390D02*
X163011905Y-82942914D01*
X163011905Y-82942914D02*
X163059524Y-82847676D01*
X163059524Y-82847676D02*
X163154762Y-82752438D01*
X163154762Y-82752438D02*
X163297619Y-82704819D01*
X163297619Y-82704819D02*
X163392857Y-82704819D01*
X163392857Y-82704819D02*
X163535714Y-82752438D01*
X163535714Y-82752438D02*
X163583333Y-82800057D01*
X163916667Y-82704819D02*
X164535714Y-82704819D01*
X164535714Y-82704819D02*
X164202381Y-83085771D01*
X164202381Y-83085771D02*
X164345238Y-83085771D01*
X164345238Y-83085771D02*
X164440476Y-83133390D01*
X164440476Y-83133390D02*
X164488095Y-83181009D01*
X164488095Y-83181009D02*
X164535714Y-83276247D01*
X164535714Y-83276247D02*
X164535714Y-83514342D01*
X164535714Y-83514342D02*
X164488095Y-83609580D01*
X164488095Y-83609580D02*
X164440476Y-83657200D01*
X164440476Y-83657200D02*
X164345238Y-83704819D01*
X164345238Y-83704819D02*
X164059524Y-83704819D01*
X164059524Y-83704819D02*
X163964286Y-83657200D01*
X163964286Y-83657200D02*
X163916667Y-83609580D01*
X159678333Y-131454819D02*
X159345000Y-130978628D01*
X159106905Y-131454819D02*
X159106905Y-130454819D01*
X159106905Y-130454819D02*
X159487857Y-130454819D01*
X159487857Y-130454819D02*
X159583095Y-130502438D01*
X159583095Y-130502438D02*
X159630714Y-130550057D01*
X159630714Y-130550057D02*
X159678333Y-130645295D01*
X159678333Y-130645295D02*
X159678333Y-130788152D01*
X159678333Y-130788152D02*
X159630714Y-130883390D01*
X159630714Y-130883390D02*
X159583095Y-130931009D01*
X159583095Y-130931009D02*
X159487857Y-130978628D01*
X159487857Y-130978628D02*
X159106905Y-130978628D01*
X160535476Y-130788152D02*
X160535476Y-131454819D01*
X160297381Y-130407200D02*
X160059286Y-131121485D01*
X160059286Y-131121485D02*
X160678333Y-131121485D01*
X152824819Y-138063333D02*
X153539104Y-138063333D01*
X153539104Y-138063333D02*
X153681961Y-138110952D01*
X153681961Y-138110952D02*
X153777200Y-138206190D01*
X153777200Y-138206190D02*
X153824819Y-138349047D01*
X153824819Y-138349047D02*
X153824819Y-138444285D01*
X153158152Y-137158571D02*
X153824819Y-137158571D01*
X152777200Y-137396666D02*
X153491485Y-137634761D01*
X153491485Y-137634761D02*
X153491485Y-137015714D01*
X158801905Y-129204819D02*
X158801905Y-128204819D01*
X158801905Y-128204819D02*
X159040000Y-128204819D01*
X159040000Y-128204819D02*
X159182857Y-128252438D01*
X159182857Y-128252438D02*
X159278095Y-128347676D01*
X159278095Y-128347676D02*
X159325714Y-128442914D01*
X159325714Y-128442914D02*
X159373333Y-128633390D01*
X159373333Y-128633390D02*
X159373333Y-128776247D01*
X159373333Y-128776247D02*
X159325714Y-128966723D01*
X159325714Y-128966723D02*
X159278095Y-129061961D01*
X159278095Y-129061961D02*
X159182857Y-129157200D01*
X159182857Y-129157200D02*
X159040000Y-129204819D01*
X159040000Y-129204819D02*
X158801905Y-129204819D01*
X159706667Y-128204819D02*
X160325714Y-128204819D01*
X160325714Y-128204819D02*
X159992381Y-128585771D01*
X159992381Y-128585771D02*
X160135238Y-128585771D01*
X160135238Y-128585771D02*
X160230476Y-128633390D01*
X160230476Y-128633390D02*
X160278095Y-128681009D01*
X160278095Y-128681009D02*
X160325714Y-128776247D01*
X160325714Y-128776247D02*
X160325714Y-129014342D01*
X160325714Y-129014342D02*
X160278095Y-129109580D01*
X160278095Y-129109580D02*
X160230476Y-129157200D01*
X160230476Y-129157200D02*
X160135238Y-129204819D01*
X160135238Y-129204819D02*
X159849524Y-129204819D01*
X159849524Y-129204819D02*
X159754286Y-129157200D01*
X159754286Y-129157200D02*
X159706667Y-129109580D01*
X159353333Y-124704819D02*
X159020000Y-124228628D01*
X158781905Y-124704819D02*
X158781905Y-123704819D01*
X158781905Y-123704819D02*
X159162857Y-123704819D01*
X159162857Y-123704819D02*
X159258095Y-123752438D01*
X159258095Y-123752438D02*
X159305714Y-123800057D01*
X159305714Y-123800057D02*
X159353333Y-123895295D01*
X159353333Y-123895295D02*
X159353333Y-124038152D01*
X159353333Y-124038152D02*
X159305714Y-124133390D01*
X159305714Y-124133390D02*
X159258095Y-124181009D01*
X159258095Y-124181009D02*
X159162857Y-124228628D01*
X159162857Y-124228628D02*
X158781905Y-124228628D01*
X159924762Y-124133390D02*
X159829524Y-124085771D01*
X159829524Y-124085771D02*
X159781905Y-124038152D01*
X159781905Y-124038152D02*
X159734286Y-123942914D01*
X159734286Y-123942914D02*
X159734286Y-123895295D01*
X159734286Y-123895295D02*
X159781905Y-123800057D01*
X159781905Y-123800057D02*
X159829524Y-123752438D01*
X159829524Y-123752438D02*
X159924762Y-123704819D01*
X159924762Y-123704819D02*
X160115238Y-123704819D01*
X160115238Y-123704819D02*
X160210476Y-123752438D01*
X160210476Y-123752438D02*
X160258095Y-123800057D01*
X160258095Y-123800057D02*
X160305714Y-123895295D01*
X160305714Y-123895295D02*
X160305714Y-123942914D01*
X160305714Y-123942914D02*
X160258095Y-124038152D01*
X160258095Y-124038152D02*
X160210476Y-124085771D01*
X160210476Y-124085771D02*
X160115238Y-124133390D01*
X160115238Y-124133390D02*
X159924762Y-124133390D01*
X159924762Y-124133390D02*
X159829524Y-124181009D01*
X159829524Y-124181009D02*
X159781905Y-124228628D01*
X159781905Y-124228628D02*
X159734286Y-124323866D01*
X159734286Y-124323866D02*
X159734286Y-124514342D01*
X159734286Y-124514342D02*
X159781905Y-124609580D01*
X159781905Y-124609580D02*
X159829524Y-124657200D01*
X159829524Y-124657200D02*
X159924762Y-124704819D01*
X159924762Y-124704819D02*
X160115238Y-124704819D01*
X160115238Y-124704819D02*
X160210476Y-124657200D01*
X160210476Y-124657200D02*
X160258095Y-124609580D01*
X160258095Y-124609580D02*
X160305714Y-124514342D01*
X160305714Y-124514342D02*
X160305714Y-124323866D01*
X160305714Y-124323866D02*
X160258095Y-124228628D01*
X160258095Y-124228628D02*
X160210476Y-124181009D01*
X160210476Y-124181009D02*
X160115238Y-124133390D01*
X162511905Y-72954819D02*
X162511905Y-71954819D01*
X162511905Y-71954819D02*
X162750000Y-71954819D01*
X162750000Y-71954819D02*
X162892857Y-72002438D01*
X162892857Y-72002438D02*
X162988095Y-72097676D01*
X162988095Y-72097676D02*
X163035714Y-72192914D01*
X163035714Y-72192914D02*
X163083333Y-72383390D01*
X163083333Y-72383390D02*
X163083333Y-72526247D01*
X163083333Y-72526247D02*
X163035714Y-72716723D01*
X163035714Y-72716723D02*
X162988095Y-72811961D01*
X162988095Y-72811961D02*
X162892857Y-72907200D01*
X162892857Y-72907200D02*
X162750000Y-72954819D01*
X162750000Y-72954819D02*
X162511905Y-72954819D01*
X163988095Y-71954819D02*
X163511905Y-71954819D01*
X163511905Y-71954819D02*
X163464286Y-72431009D01*
X163464286Y-72431009D02*
X163511905Y-72383390D01*
X163511905Y-72383390D02*
X163607143Y-72335771D01*
X163607143Y-72335771D02*
X163845238Y-72335771D01*
X163845238Y-72335771D02*
X163940476Y-72383390D01*
X163940476Y-72383390D02*
X163988095Y-72431009D01*
X163988095Y-72431009D02*
X164035714Y-72526247D01*
X164035714Y-72526247D02*
X164035714Y-72764342D01*
X164035714Y-72764342D02*
X163988095Y-72859580D01*
X163988095Y-72859580D02*
X163940476Y-72907200D01*
X163940476Y-72907200D02*
X163845238Y-72954819D01*
X163845238Y-72954819D02*
X163607143Y-72954819D01*
X163607143Y-72954819D02*
X163511905Y-72907200D01*
X163511905Y-72907200D02*
X163464286Y-72859580D01*
X139405616Y-98954819D02*
X139072283Y-98478628D01*
X138834188Y-98954819D02*
X138834188Y-97954819D01*
X138834188Y-97954819D02*
X139215140Y-97954819D01*
X139215140Y-97954819D02*
X139310378Y-98002438D01*
X139310378Y-98002438D02*
X139357997Y-98050057D01*
X139357997Y-98050057D02*
X139405616Y-98145295D01*
X139405616Y-98145295D02*
X139405616Y-98288152D01*
X139405616Y-98288152D02*
X139357997Y-98383390D01*
X139357997Y-98383390D02*
X139310378Y-98431009D01*
X139310378Y-98431009D02*
X139215140Y-98478628D01*
X139215140Y-98478628D02*
X138834188Y-98478628D01*
X140357997Y-98954819D02*
X139786569Y-98954819D01*
X140072283Y-98954819D02*
X140072283Y-97954819D01*
X140072283Y-97954819D02*
X139977045Y-98097676D01*
X139977045Y-98097676D02*
X139881807Y-98192914D01*
X139881807Y-98192914D02*
X139786569Y-98240533D01*
X140691331Y-97954819D02*
X141357997Y-97954819D01*
X141357997Y-97954819D02*
X140929426Y-98954819D01*
X151404761Y-97800057D02*
X151309523Y-97752438D01*
X151309523Y-97752438D02*
X151214285Y-97657200D01*
X151214285Y-97657200D02*
X151071428Y-97514342D01*
X151071428Y-97514342D02*
X150976190Y-97466723D01*
X150976190Y-97466723D02*
X150880952Y-97466723D01*
X150928571Y-97704819D02*
X150833333Y-97657200D01*
X150833333Y-97657200D02*
X150738095Y-97561961D01*
X150738095Y-97561961D02*
X150690476Y-97371485D01*
X150690476Y-97371485D02*
X150690476Y-97038152D01*
X150690476Y-97038152D02*
X150738095Y-96847676D01*
X150738095Y-96847676D02*
X150833333Y-96752438D01*
X150833333Y-96752438D02*
X150928571Y-96704819D01*
X150928571Y-96704819D02*
X151119047Y-96704819D01*
X151119047Y-96704819D02*
X151214285Y-96752438D01*
X151214285Y-96752438D02*
X151309523Y-96847676D01*
X151309523Y-96847676D02*
X151357142Y-97038152D01*
X151357142Y-97038152D02*
X151357142Y-97371485D01*
X151357142Y-97371485D02*
X151309523Y-97561961D01*
X151309523Y-97561961D02*
X151214285Y-97657200D01*
X151214285Y-97657200D02*
X151119047Y-97704819D01*
X151119047Y-97704819D02*
X150928571Y-97704819D01*
X152214285Y-97038152D02*
X152214285Y-97704819D01*
X151976190Y-96657200D02*
X151738095Y-97371485D01*
X151738095Y-97371485D02*
X152357142Y-97371485D01*
X162607142Y-108561069D02*
X162273809Y-108084878D01*
X162035714Y-108561069D02*
X162035714Y-107561069D01*
X162035714Y-107561069D02*
X162416666Y-107561069D01*
X162416666Y-107561069D02*
X162511904Y-107608688D01*
X162511904Y-107608688D02*
X162559523Y-107656307D01*
X162559523Y-107656307D02*
X162607142Y-107751545D01*
X162607142Y-107751545D02*
X162607142Y-107894402D01*
X162607142Y-107894402D02*
X162559523Y-107989640D01*
X162559523Y-107989640D02*
X162511904Y-108037259D01*
X162511904Y-108037259D02*
X162416666Y-108084878D01*
X162416666Y-108084878D02*
X162035714Y-108084878D01*
X163559523Y-108561069D02*
X162988095Y-108561069D01*
X163273809Y-108561069D02*
X163273809Y-107561069D01*
X163273809Y-107561069D02*
X163178571Y-107703926D01*
X163178571Y-107703926D02*
X163083333Y-107799164D01*
X163083333Y-107799164D02*
X162988095Y-107846783D01*
X164178571Y-107561069D02*
X164273809Y-107561069D01*
X164273809Y-107561069D02*
X164369047Y-107608688D01*
X164369047Y-107608688D02*
X164416666Y-107656307D01*
X164416666Y-107656307D02*
X164464285Y-107751545D01*
X164464285Y-107751545D02*
X164511904Y-107942021D01*
X164511904Y-107942021D02*
X164511904Y-108180116D01*
X164511904Y-108180116D02*
X164464285Y-108370592D01*
X164464285Y-108370592D02*
X164416666Y-108465830D01*
X164416666Y-108465830D02*
X164369047Y-108513450D01*
X164369047Y-108513450D02*
X164273809Y-108561069D01*
X164273809Y-108561069D02*
X164178571Y-108561069D01*
X164178571Y-108561069D02*
X164083333Y-108513450D01*
X164083333Y-108513450D02*
X164035714Y-108465830D01*
X164035714Y-108465830D02*
X163988095Y-108370592D01*
X163988095Y-108370592D02*
X163940476Y-108180116D01*
X163940476Y-108180116D02*
X163940476Y-107942021D01*
X163940476Y-107942021D02*
X163988095Y-107751545D01*
X163988095Y-107751545D02*
X164035714Y-107656307D01*
X164035714Y-107656307D02*
X164083333Y-107608688D01*
X164083333Y-107608688D02*
X164178571Y-107561069D01*
X140361807Y-111359580D02*
X140314188Y-111407200D01*
X140314188Y-111407200D02*
X140171331Y-111454819D01*
X140171331Y-111454819D02*
X140076093Y-111454819D01*
X140076093Y-111454819D02*
X139933236Y-111407200D01*
X139933236Y-111407200D02*
X139837998Y-111311961D01*
X139837998Y-111311961D02*
X139790379Y-111216723D01*
X139790379Y-111216723D02*
X139742760Y-111026247D01*
X139742760Y-111026247D02*
X139742760Y-110883390D01*
X139742760Y-110883390D02*
X139790379Y-110692914D01*
X139790379Y-110692914D02*
X139837998Y-110597676D01*
X139837998Y-110597676D02*
X139933236Y-110502438D01*
X139933236Y-110502438D02*
X140076093Y-110454819D01*
X140076093Y-110454819D02*
X140171331Y-110454819D01*
X140171331Y-110454819D02*
X140314188Y-110502438D01*
X140314188Y-110502438D02*
X140361807Y-110550057D01*
X140742760Y-110550057D02*
X140790379Y-110502438D01*
X140790379Y-110502438D02*
X140885617Y-110454819D01*
X140885617Y-110454819D02*
X141123712Y-110454819D01*
X141123712Y-110454819D02*
X141218950Y-110502438D01*
X141218950Y-110502438D02*
X141266569Y-110550057D01*
X141266569Y-110550057D02*
X141314188Y-110645295D01*
X141314188Y-110645295D02*
X141314188Y-110740533D01*
X141314188Y-110740533D02*
X141266569Y-110883390D01*
X141266569Y-110883390D02*
X140695141Y-111454819D01*
X140695141Y-111454819D02*
X141314188Y-111454819D01*
X153511905Y-81454819D02*
X153511905Y-80454819D01*
X153511905Y-80454819D02*
X153750000Y-80454819D01*
X153750000Y-80454819D02*
X153892857Y-80502438D01*
X153892857Y-80502438D02*
X153988095Y-80597676D01*
X153988095Y-80597676D02*
X154035714Y-80692914D01*
X154035714Y-80692914D02*
X154083333Y-80883390D01*
X154083333Y-80883390D02*
X154083333Y-81026247D01*
X154083333Y-81026247D02*
X154035714Y-81216723D01*
X154035714Y-81216723D02*
X153988095Y-81311961D01*
X153988095Y-81311961D02*
X153892857Y-81407200D01*
X153892857Y-81407200D02*
X153750000Y-81454819D01*
X153750000Y-81454819D02*
X153511905Y-81454819D01*
X154940476Y-80454819D02*
X154750000Y-80454819D01*
X154750000Y-80454819D02*
X154654762Y-80502438D01*
X154654762Y-80502438D02*
X154607143Y-80550057D01*
X154607143Y-80550057D02*
X154511905Y-80692914D01*
X154511905Y-80692914D02*
X154464286Y-80883390D01*
X154464286Y-80883390D02*
X154464286Y-81264342D01*
X154464286Y-81264342D02*
X154511905Y-81359580D01*
X154511905Y-81359580D02*
X154559524Y-81407200D01*
X154559524Y-81407200D02*
X154654762Y-81454819D01*
X154654762Y-81454819D02*
X154845238Y-81454819D01*
X154845238Y-81454819D02*
X154940476Y-81407200D01*
X154940476Y-81407200D02*
X154988095Y-81359580D01*
X154988095Y-81359580D02*
X155035714Y-81264342D01*
X155035714Y-81264342D02*
X155035714Y-81026247D01*
X155035714Y-81026247D02*
X154988095Y-80931009D01*
X154988095Y-80931009D02*
X154940476Y-80883390D01*
X154940476Y-80883390D02*
X154845238Y-80835771D01*
X154845238Y-80835771D02*
X154654762Y-80835771D01*
X154654762Y-80835771D02*
X154559524Y-80883390D01*
X154559524Y-80883390D02*
X154511905Y-80931009D01*
X154511905Y-80931009D02*
X154464286Y-81026247D01*
X151154761Y-107300057D02*
X151059523Y-107252438D01*
X151059523Y-107252438D02*
X150964285Y-107157200D01*
X150964285Y-107157200D02*
X150821428Y-107014342D01*
X150821428Y-107014342D02*
X150726190Y-106966723D01*
X150726190Y-106966723D02*
X150630952Y-106966723D01*
X150678571Y-107204819D02*
X150583333Y-107157200D01*
X150583333Y-107157200D02*
X150488095Y-107061961D01*
X150488095Y-107061961D02*
X150440476Y-106871485D01*
X150440476Y-106871485D02*
X150440476Y-106538152D01*
X150440476Y-106538152D02*
X150488095Y-106347676D01*
X150488095Y-106347676D02*
X150583333Y-106252438D01*
X150583333Y-106252438D02*
X150678571Y-106204819D01*
X150678571Y-106204819D02*
X150869047Y-106204819D01*
X150869047Y-106204819D02*
X150964285Y-106252438D01*
X150964285Y-106252438D02*
X151059523Y-106347676D01*
X151059523Y-106347676D02*
X151107142Y-106538152D01*
X151107142Y-106538152D02*
X151107142Y-106871485D01*
X151107142Y-106871485D02*
X151059523Y-107061961D01*
X151059523Y-107061961D02*
X150964285Y-107157200D01*
X150964285Y-107157200D02*
X150869047Y-107204819D01*
X150869047Y-107204819D02*
X150678571Y-107204819D01*
X152059523Y-107204819D02*
X151488095Y-107204819D01*
X151773809Y-107204819D02*
X151773809Y-106204819D01*
X151773809Y-106204819D02*
X151678571Y-106347676D01*
X151678571Y-106347676D02*
X151583333Y-106442914D01*
X151583333Y-106442914D02*
X151488095Y-106490533D01*
X149857142Y-81609580D02*
X149809523Y-81657200D01*
X149809523Y-81657200D02*
X149666666Y-81704819D01*
X149666666Y-81704819D02*
X149571428Y-81704819D01*
X149571428Y-81704819D02*
X149428571Y-81657200D01*
X149428571Y-81657200D02*
X149333333Y-81561961D01*
X149333333Y-81561961D02*
X149285714Y-81466723D01*
X149285714Y-81466723D02*
X149238095Y-81276247D01*
X149238095Y-81276247D02*
X149238095Y-81133390D01*
X149238095Y-81133390D02*
X149285714Y-80942914D01*
X149285714Y-80942914D02*
X149333333Y-80847676D01*
X149333333Y-80847676D02*
X149428571Y-80752438D01*
X149428571Y-80752438D02*
X149571428Y-80704819D01*
X149571428Y-80704819D02*
X149666666Y-80704819D01*
X149666666Y-80704819D02*
X149809523Y-80752438D01*
X149809523Y-80752438D02*
X149857142Y-80800057D01*
X150809523Y-81704819D02*
X150238095Y-81704819D01*
X150523809Y-81704819D02*
X150523809Y-80704819D01*
X150523809Y-80704819D02*
X150428571Y-80847676D01*
X150428571Y-80847676D02*
X150333333Y-80942914D01*
X150333333Y-80942914D02*
X150238095Y-80990533D01*
X151142857Y-80704819D02*
X151809523Y-80704819D01*
X151809523Y-80704819D02*
X151380952Y-81704819D01*
X139405616Y-96454819D02*
X139072283Y-95978628D01*
X138834188Y-96454819D02*
X138834188Y-95454819D01*
X138834188Y-95454819D02*
X139215140Y-95454819D01*
X139215140Y-95454819D02*
X139310378Y-95502438D01*
X139310378Y-95502438D02*
X139357997Y-95550057D01*
X139357997Y-95550057D02*
X139405616Y-95645295D01*
X139405616Y-95645295D02*
X139405616Y-95788152D01*
X139405616Y-95788152D02*
X139357997Y-95883390D01*
X139357997Y-95883390D02*
X139310378Y-95931009D01*
X139310378Y-95931009D02*
X139215140Y-95978628D01*
X139215140Y-95978628D02*
X138834188Y-95978628D01*
X140357997Y-96454819D02*
X139786569Y-96454819D01*
X140072283Y-96454819D02*
X140072283Y-95454819D01*
X140072283Y-95454819D02*
X139977045Y-95597676D01*
X139977045Y-95597676D02*
X139881807Y-95692914D01*
X139881807Y-95692914D02*
X139786569Y-95740533D01*
X140929426Y-95883390D02*
X140834188Y-95835771D01*
X140834188Y-95835771D02*
X140786569Y-95788152D01*
X140786569Y-95788152D02*
X140738950Y-95692914D01*
X140738950Y-95692914D02*
X140738950Y-95645295D01*
X140738950Y-95645295D02*
X140786569Y-95550057D01*
X140786569Y-95550057D02*
X140834188Y-95502438D01*
X140834188Y-95502438D02*
X140929426Y-95454819D01*
X140929426Y-95454819D02*
X141119902Y-95454819D01*
X141119902Y-95454819D02*
X141215140Y-95502438D01*
X141215140Y-95502438D02*
X141262759Y-95550057D01*
X141262759Y-95550057D02*
X141310378Y-95645295D01*
X141310378Y-95645295D02*
X141310378Y-95692914D01*
X141310378Y-95692914D02*
X141262759Y-95788152D01*
X141262759Y-95788152D02*
X141215140Y-95835771D01*
X141215140Y-95835771D02*
X141119902Y-95883390D01*
X141119902Y-95883390D02*
X140929426Y-95883390D01*
X140929426Y-95883390D02*
X140834188Y-95931009D01*
X140834188Y-95931009D02*
X140786569Y-95978628D01*
X140786569Y-95978628D02*
X140738950Y-96073866D01*
X140738950Y-96073866D02*
X140738950Y-96264342D01*
X140738950Y-96264342D02*
X140786569Y-96359580D01*
X140786569Y-96359580D02*
X140834188Y-96407200D01*
X140834188Y-96407200D02*
X140929426Y-96454819D01*
X140929426Y-96454819D02*
X141119902Y-96454819D01*
X141119902Y-96454819D02*
X141215140Y-96407200D01*
X141215140Y-96407200D02*
X141262759Y-96359580D01*
X141262759Y-96359580D02*
X141310378Y-96264342D01*
X141310378Y-96264342D02*
X141310378Y-96073866D01*
X141310378Y-96073866D02*
X141262759Y-95978628D01*
X141262759Y-95978628D02*
X141215140Y-95931009D01*
X141215140Y-95931009D02*
X141119902Y-95883390D01*
X139083333Y-121359580D02*
X139035714Y-121407200D01*
X139035714Y-121407200D02*
X138892857Y-121454819D01*
X138892857Y-121454819D02*
X138797619Y-121454819D01*
X138797619Y-121454819D02*
X138654762Y-121407200D01*
X138654762Y-121407200D02*
X138559524Y-121311961D01*
X138559524Y-121311961D02*
X138511905Y-121216723D01*
X138511905Y-121216723D02*
X138464286Y-121026247D01*
X138464286Y-121026247D02*
X138464286Y-120883390D01*
X138464286Y-120883390D02*
X138511905Y-120692914D01*
X138511905Y-120692914D02*
X138559524Y-120597676D01*
X138559524Y-120597676D02*
X138654762Y-120502438D01*
X138654762Y-120502438D02*
X138797619Y-120454819D01*
X138797619Y-120454819D02*
X138892857Y-120454819D01*
X138892857Y-120454819D02*
X139035714Y-120502438D01*
X139035714Y-120502438D02*
X139083333Y-120550057D01*
X139559524Y-121454819D02*
X139750000Y-121454819D01*
X139750000Y-121454819D02*
X139845238Y-121407200D01*
X139845238Y-121407200D02*
X139892857Y-121359580D01*
X139892857Y-121359580D02*
X139988095Y-121216723D01*
X139988095Y-121216723D02*
X140035714Y-121026247D01*
X140035714Y-121026247D02*
X140035714Y-120645295D01*
X140035714Y-120645295D02*
X139988095Y-120550057D01*
X139988095Y-120550057D02*
X139940476Y-120502438D01*
X139940476Y-120502438D02*
X139845238Y-120454819D01*
X139845238Y-120454819D02*
X139654762Y-120454819D01*
X139654762Y-120454819D02*
X139559524Y-120502438D01*
X139559524Y-120502438D02*
X139511905Y-120550057D01*
X139511905Y-120550057D02*
X139464286Y-120645295D01*
X139464286Y-120645295D02*
X139464286Y-120883390D01*
X139464286Y-120883390D02*
X139511905Y-120978628D01*
X139511905Y-120978628D02*
X139559524Y-121026247D01*
X139559524Y-121026247D02*
X139654762Y-121073866D01*
X139654762Y-121073866D02*
X139845238Y-121073866D01*
X139845238Y-121073866D02*
X139940476Y-121026247D01*
X139940476Y-121026247D02*
X139988095Y-120978628D01*
X139988095Y-120978628D02*
X140035714Y-120883390D01*
X153238095Y-119704819D02*
X153238095Y-120514342D01*
X153238095Y-120514342D02*
X153285714Y-120609580D01*
X153285714Y-120609580D02*
X153333333Y-120657200D01*
X153333333Y-120657200D02*
X153428571Y-120704819D01*
X153428571Y-120704819D02*
X153619047Y-120704819D01*
X153619047Y-120704819D02*
X153714285Y-120657200D01*
X153714285Y-120657200D02*
X153761904Y-120609580D01*
X153761904Y-120609580D02*
X153809523Y-120514342D01*
X153809523Y-120514342D02*
X153809523Y-119704819D01*
X154190476Y-119704819D02*
X154857142Y-119704819D01*
X154857142Y-119704819D02*
X154428571Y-120704819D01*
D11*
%TO.C,R13*%
X158772936Y-84265000D02*
X159227064Y-84265000D01*
X158772936Y-85735000D02*
X159227064Y-85735000D01*
%TO.C,R12*%
X155272936Y-84265000D02*
X155727064Y-84265000D01*
X155272936Y-85735000D02*
X155727064Y-85735000D01*
D12*
%TO.C,U1*%
X140950000Y-133000000D02*
X140950000Y-123300000D01*
X141450000Y-133000000D02*
X140950000Y-133000000D01*
X151950000Y-133000000D02*
X151450000Y-133000000D01*
X140950000Y-123300000D02*
X141450000Y-123300000D01*
X151450000Y-123300000D02*
X151950000Y-123300000D01*
X151950000Y-123300000D02*
X151950000Y-133000000D01*
D13*
X153175000Y-124300000D02*
G75*
G02*
X152725000Y-124300000I-225000J0D01*
G01*
X152725000Y-124300000D02*
G75*
G02*
X153175000Y-124300000I225000J0D01*
G01*
D11*
%TO.C,J5*%
X154370000Y-92070000D02*
X154370000Y-90740000D01*
X155700000Y-92070000D02*
X154370000Y-92070000D01*
X156970000Y-92070000D02*
X164650000Y-92070000D01*
X156970000Y-92070000D02*
X156970000Y-89470000D01*
X164650000Y-92070000D02*
X164650000Y-86870000D01*
X154370000Y-89470000D02*
X154370000Y-86870000D01*
X156970000Y-89470000D02*
X154370000Y-89470000D01*
X154370000Y-86870000D02*
X164650000Y-86870000D01*
D12*
%TO.C,ANT1*%
X151750000Y-141000000D02*
X141750000Y-141000000D01*
X151750000Y-138000000D02*
X151750000Y-141000000D01*
X141750000Y-141000000D02*
X141750000Y-138000000D01*
X141750000Y-138000000D02*
X151750000Y-138000000D01*
D11*
%TO.C,R14*%
X159360436Y-101221250D02*
X159814564Y-101221250D01*
X159360436Y-102691250D02*
X159814564Y-102691250D01*
%TO.C,R6*%
X162747064Y-132515000D02*
X162292936Y-132515000D01*
X162747064Y-133985000D02*
X162292936Y-133985000D01*
%TO.C,R15*%
X143071410Y-102266526D02*
X143525538Y-102266526D01*
X143071410Y-103736526D02*
X143525538Y-103736526D01*
%TO.C,C11*%
X145390000Y-92711252D02*
X145390000Y-92188748D01*
X146860000Y-92711252D02*
X146860000Y-92188748D01*
%TO.C,D2*%
X157922500Y-105496250D02*
X157922500Y-107416250D01*
X157922500Y-107416250D02*
X160607500Y-107416250D01*
X160607500Y-105496250D02*
X157922500Y-105496250D01*
%TO.C,R19*%
X157040000Y-74595436D02*
X157040000Y-78949564D01*
X160460000Y-74595436D02*
X160460000Y-78949564D01*
%TO.C,R7*%
X143071410Y-107018052D02*
X143525538Y-107018052D01*
X143071410Y-108488052D02*
X143525538Y-108488052D01*
%TO.C,C16*%
X148261252Y-83515000D02*
X147738748Y-83515000D01*
X148261252Y-84985000D02*
X147738748Y-84985000D01*
%TO.C,C13*%
X162258748Y-121265000D02*
X162781252Y-121265000D01*
X162258748Y-122735000D02*
X162781252Y-122735000D01*
%TO.C,Q3*%
X148312500Y-100191526D02*
X147662500Y-100191526D01*
X148312500Y-100191526D02*
X148962500Y-100191526D01*
X148312500Y-103311526D02*
X147662500Y-103311526D01*
X148312500Y-103311526D02*
X148962500Y-103311526D01*
X147150000Y-100241526D02*
X146910000Y-99911526D01*
X147390000Y-99911526D01*
X147150000Y-100241526D01*
G36*
X147150000Y-100241526D02*
G01*
X146910000Y-99911526D01*
X147390000Y-99911526D01*
X147150000Y-100241526D01*
G37*
%TO.C,R9*%
X143525538Y-106488052D02*
X143071410Y-106488052D01*
X143525538Y-105018052D02*
X143071410Y-105018052D01*
%TO.C,U5*%
X141625000Y-88940000D02*
X140825000Y-88940000D01*
X141625000Y-88940000D02*
X142425000Y-88940000D01*
X141625000Y-92060000D02*
X140825000Y-92060000D01*
X141625000Y-92060000D02*
X142425000Y-92060000D01*
X140325000Y-88990000D02*
X140085000Y-88660000D01*
X140565000Y-88660000D01*
X140325000Y-88990000D01*
G36*
X140325000Y-88990000D02*
G01*
X140085000Y-88660000D01*
X140565000Y-88660000D01*
X140325000Y-88990000D01*
G37*
%TO.C,C10*%
X164218748Y-112985000D02*
X164741252Y-112985000D01*
X164218748Y-111515000D02*
X164741252Y-111515000D01*
%TO.C,C8*%
X160735000Y-117738748D02*
X160735000Y-118261252D01*
X159265000Y-117738748D02*
X159265000Y-118261252D01*
%TO.C,D1*%
X157110000Y-70000000D02*
X153100000Y-70000000D01*
X157110000Y-72000000D02*
X153100000Y-72000000D01*
X157110000Y-72000000D02*
X157110000Y-70000000D01*
%TO.C,C4*%
X155485000Y-132511252D02*
X155485000Y-131988748D01*
X154015000Y-132511252D02*
X154015000Y-131988748D01*
%TO.C,C7*%
X145761252Y-113515000D02*
X145238748Y-113515000D01*
X145761252Y-114985000D02*
X145238748Y-114985000D01*
%TO.C,R1*%
X164272936Y-110705000D02*
X164727064Y-110705000D01*
X164272936Y-109235000D02*
X164727064Y-109235000D01*
%TO.C,C15*%
X146860000Y-88438748D02*
X146860000Y-88961252D01*
X145390000Y-88438748D02*
X145390000Y-88961252D01*
%TO.C,L2*%
X143321445Y-79636596D02*
X143886596Y-79071445D01*
X144113404Y-80428555D02*
X144678555Y-79863404D01*
%TO.C,C18*%
X147761252Y-77015000D02*
X147238748Y-77015000D01*
X147761252Y-78485000D02*
X147238748Y-78485000D01*
%TO.C,R5*%
X145765000Y-117272936D02*
X145765000Y-117727064D01*
X147235000Y-117272936D02*
X147235000Y-117727064D01*
%TO.C,D4*%
X141400000Y-81010000D02*
X141400000Y-75500000D01*
X138100000Y-81010000D02*
X138100000Y-75500000D01*
X138100000Y-81010000D02*
X141400000Y-81010000D01*
%TO.C,C19*%
X147761252Y-75485000D02*
X147238748Y-75485000D01*
X147761252Y-74015000D02*
X147238748Y-74015000D01*
%TO.C,R3*%
X159360436Y-103448750D02*
X159814564Y-103448750D01*
X159360436Y-104918750D02*
X159814564Y-104918750D01*
%TO.C,R2*%
X164727064Y-113765000D02*
X164272936Y-113765000D01*
X164727064Y-115235000D02*
X164272936Y-115235000D01*
%TO.C,R11*%
X164727064Y-99985000D02*
X164272936Y-99985000D01*
X164727064Y-98515000D02*
X164272936Y-98515000D01*
%TO.C,C6*%
X149485000Y-88438748D02*
X149485000Y-88961252D01*
X148015000Y-88438748D02*
X148015000Y-88961252D01*
%TO.C,C12*%
X159265000Y-114261252D02*
X159265000Y-113738748D01*
X160735000Y-114261252D02*
X160735000Y-113738748D01*
%TO.C,Q2*%
X163650000Y-101146250D02*
X163000000Y-101146250D01*
X163650000Y-101146250D02*
X164300000Y-101146250D01*
X163650000Y-104266250D02*
X163000000Y-104266250D01*
X163650000Y-104266250D02*
X164300000Y-104266250D01*
X162487500Y-101196250D02*
X162247500Y-100866250D01*
X162727500Y-100866250D01*
X162487500Y-101196250D01*
G36*
X162487500Y-101196250D02*
G01*
X162247500Y-100866250D01*
X162727500Y-100866250D01*
X162487500Y-101196250D01*
G37*
%TO.C,C5*%
X140863748Y-85715000D02*
X141386252Y-85715000D01*
X140863748Y-87185000D02*
X141386252Y-87185000D01*
%TO.C,C14*%
X162258748Y-125765000D02*
X162781252Y-125765000D01*
X162258748Y-127235000D02*
X162781252Y-127235000D01*
%TO.C,R16*%
X143525538Y-101486526D02*
X143071410Y-101486526D01*
X143525538Y-100016526D02*
X143071410Y-100016526D01*
%TO.C,L1*%
X143886596Y-84428555D02*
X143321445Y-83863404D01*
X144678555Y-83636596D02*
X144113404Y-83071445D01*
%TO.C,ANT2*%
X147200000Y-71460000D02*
X146090000Y-71460000D01*
X147200000Y-68210000D02*
X146090000Y-68210000D01*
X145500000Y-72510000D02*
X145250000Y-72010000D01*
X145250000Y-72010000D02*
X145000000Y-72510000D01*
X145000000Y-72510000D02*
X145500000Y-72510000D01*
X144410000Y-71460000D02*
X143300000Y-71460000D01*
X144410000Y-68210000D02*
X143300000Y-68210000D01*
%TO.C,Y2*%
X142550000Y-115500000D02*
X144550000Y-115500000D01*
X142550000Y-116300000D02*
X142550000Y-115500000D01*
X142550000Y-119100000D02*
X142550000Y-118100000D01*
X142550000Y-119300000D02*
X144550000Y-119300000D01*
X144550000Y-115500000D02*
X144950000Y-115500000D01*
X144550000Y-119100000D02*
X142550000Y-119100000D01*
X144550000Y-119100000D02*
X144950000Y-119100000D01*
X144550000Y-119300000D02*
X144950000Y-119300000D01*
X144950000Y-115500000D02*
X144950000Y-116300000D01*
X144950000Y-118100000D02*
X144950000Y-119100000D01*
X144950000Y-118100000D02*
X145350000Y-118100000D01*
%TO.C,L3*%
X143886596Y-76428555D02*
X143321445Y-75863404D01*
X144678555Y-75636596D02*
X144113404Y-75071445D01*
%TO.C,C3*%
X164011252Y-84265000D02*
X163488748Y-84265000D01*
X164011252Y-85735000D02*
X163488748Y-85735000D01*
%TO.C,R4*%
X162292936Y-130265000D02*
X162747064Y-130265000D01*
X162292936Y-131735000D02*
X162747064Y-131735000D01*
%TO.C,J4*%
X154370000Y-135130000D02*
X162110000Y-135130000D01*
X154370000Y-137730000D02*
X154370000Y-135130000D01*
X154370000Y-140330000D02*
X154370000Y-139000000D01*
X155700000Y-140330000D02*
X154370000Y-140330000D01*
X156970000Y-137730000D02*
X154370000Y-137730000D01*
X156970000Y-140330000D02*
X156970000Y-137730000D01*
X156970000Y-140330000D02*
X162110000Y-140330000D01*
X162110000Y-140330000D02*
X162110000Y-135130000D01*
%TO.C,D3*%
X160855000Y-127790000D02*
X160855000Y-129710000D01*
X160855000Y-129710000D02*
X163540000Y-129710000D01*
X163540000Y-127790000D02*
X160855000Y-127790000D01*
%TO.C,R8*%
X162747064Y-123515000D02*
X162292936Y-123515000D01*
X162747064Y-124985000D02*
X162292936Y-124985000D01*
%TO.C,D5*%
X165150000Y-80260000D02*
X165150000Y-74750000D01*
X161850000Y-80260000D02*
X165150000Y-80260000D01*
X161850000Y-80260000D02*
X161850000Y-74750000D01*
%TO.C,R17*%
X143071410Y-97515000D02*
X143525538Y-97515000D01*
X143071410Y-98985000D02*
X143525538Y-98985000D01*
%TO.C,Q4*%
X148312500Y-95690000D02*
X147662500Y-95690000D01*
X148312500Y-95690000D02*
X148962500Y-95690000D01*
X148312500Y-98810000D02*
X147662500Y-98810000D01*
X148312500Y-98810000D02*
X148962500Y-98810000D01*
X147150000Y-95740000D02*
X146910000Y-95410000D01*
X147390000Y-95410000D01*
X147150000Y-95740000D01*
G36*
X147150000Y-95740000D02*
G01*
X146910000Y-95410000D01*
X147390000Y-95410000D01*
X147150000Y-95740000D01*
G37*
%TO.C,R10*%
X164727064Y-107191250D02*
X164272936Y-107191250D01*
X164727064Y-105721250D02*
X164272936Y-105721250D01*
%TO.C,C2*%
X143017222Y-110265000D02*
X143539726Y-110265000D01*
X143017222Y-111735000D02*
X143539726Y-111735000D01*
%TO.C,D6*%
X152350000Y-80260000D02*
X155650000Y-80260000D01*
X152350000Y-80260000D02*
X152350000Y-74750000D01*
X155650000Y-80260000D02*
X155650000Y-74750000D01*
%TO.C,Q1*%
X148312500Y-105143052D02*
X147662500Y-105143052D01*
X148312500Y-105143052D02*
X148962500Y-105143052D01*
X148312500Y-108263052D02*
X147662500Y-108263052D01*
X148312500Y-108263052D02*
X148962500Y-108263052D01*
X147150000Y-105193052D02*
X146910000Y-104863052D01*
X147390000Y-104863052D01*
X147150000Y-105193052D01*
G36*
X147150000Y-105193052D02*
G01*
X146910000Y-104863052D01*
X147390000Y-104863052D01*
X147150000Y-105193052D01*
G37*
%TO.C,C17*%
X147761252Y-80515000D02*
X147238748Y-80515000D01*
X147761252Y-81985000D02*
X147238748Y-81985000D01*
%TO.C,R18*%
X143525538Y-96735000D02*
X143071410Y-96735000D01*
X143525538Y-95265000D02*
X143071410Y-95265000D01*
%TO.C,C9*%
X142261252Y-120265000D02*
X141738748Y-120265000D01*
X142261252Y-121735000D02*
X141738748Y-121735000D01*
D10*
%TO.C,U7*%
X149425000Y-110375000D02*
X149425000Y-110600000D01*
X149425000Y-110375000D02*
X149750000Y-110375000D01*
X149425000Y-117625000D02*
X149425000Y-117300000D01*
X149425000Y-117625000D02*
X149750000Y-117625000D01*
X156675000Y-110375000D02*
X156350000Y-110375000D01*
X156675000Y-110375000D02*
X156675000Y-110700000D01*
X156675000Y-117625000D02*
X156350000Y-117625000D01*
X156675000Y-117625000D02*
X156675000Y-117300000D01*
D11*
X148660000Y-110660000D02*
X148320000Y-110190000D01*
X149000000Y-110190000D01*
X148660000Y-110660000D01*
G36*
X148660000Y-110660000D02*
G01*
X148320000Y-110190000D01*
X149000000Y-110190000D01*
X148660000Y-110660000D01*
G37*
%TD*%
M02*
