%TF.GenerationSoftware,KiCad,Pcbnew,8.0.8*%
%TF.CreationDate,2025-01-26T19:35:19-06:00*%
%TF.ProjectId,ptSolar,7074536f-6c61-4722-9e6b-696361645f70,rev?*%
%TF.SameCoordinates,Original*%
%TF.FileFunction,Paste,Top*%
%TF.FilePolarity,Positive*%
%FSLAX46Y46*%
G04 Gerber Fmt 4.6, Leading zero omitted, Abs format (unit mm)*
G04 Created by KiCad (PCBNEW 8.0.8) date 2025-01-26 19:35:19*
%MOMM*%
%LPD*%
G01*
G04 APERTURE LIST*
G04 Aperture macros list*
%AMRoundRect*
0 Rectangle with rounded corners*
0 $1 Rounding radius*
0 $2 $3 $4 $5 $6 $7 $8 $9 X,Y pos of 4 corners*
0 Add a 4 corners polygon primitive as box body*
4,1,4,$2,$3,$4,$5,$6,$7,$8,$9,$2,$3,0*
0 Add four circle primitives for the rounded corners*
1,1,$1+$1,$2,$3*
1,1,$1+$1,$4,$5*
1,1,$1+$1,$6,$7*
1,1,$1+$1,$8,$9*
0 Add four rect primitives between the rounded corners*
20,1,$1+$1,$2,$3,$4,$5,0*
20,1,$1+$1,$4,$5,$6,$7,0*
20,1,$1+$1,$6,$7,$8,$9,0*
20,1,$1+$1,$8,$9,$2,$3,0*%
G04 Aperture macros list end*
%ADD10RoundRect,0.250000X-0.262500X-0.450000X0.262500X-0.450000X0.262500X0.450000X-0.262500X0.450000X0*%
%ADD11RoundRect,0.080000X0.320000X-0.820000X0.320000X0.820000X-0.320000X0.820000X-0.320000X-0.820000X0*%
%ADD12RoundRect,0.375000X0.375000X0.625000X-0.375000X0.625000X-0.375000X-0.625000X0.375000X-0.625000X0*%
%ADD13RoundRect,0.250000X0.262500X0.450000X-0.262500X0.450000X-0.262500X-0.450000X0.262500X-0.450000X0*%
%ADD14RoundRect,0.250000X0.475000X-0.250000X0.475000X0.250000X-0.475000X0.250000X-0.475000X-0.250000X0*%
%ADD15RoundRect,0.243750X-0.243750X-0.456250X0.243750X-0.456250X0.243750X0.456250X-0.243750X0.456250X0*%
%ADD16RoundRect,0.250000X-1.425000X0.362500X-1.425000X-0.362500X1.425000X-0.362500X1.425000X0.362500X0*%
%ADD17RoundRect,0.250000X0.250000X0.475000X-0.250000X0.475000X-0.250000X-0.475000X0.250000X-0.475000X0*%
%ADD18RoundRect,0.250000X-0.250000X-0.475000X0.250000X-0.475000X0.250000X0.475000X-0.250000X0.475000X0*%
%ADD19RoundRect,0.150000X-0.587500X-0.150000X0.587500X-0.150000X0.587500X0.150000X-0.587500X0.150000X0*%
%ADD20RoundRect,0.150000X-0.512500X-0.150000X0.512500X-0.150000X0.512500X0.150000X-0.512500X0.150000X0*%
%ADD21RoundRect,0.250000X-0.475000X0.250000X-0.475000X-0.250000X0.475000X-0.250000X0.475000X0.250000X0*%
%ADD22RoundRect,0.225000X0.225000X0.375000X-0.225000X0.375000X-0.225000X-0.375000X0.225000X-0.375000X0*%
%ADD23RoundRect,0.218750X0.114905X-0.424264X0.424264X-0.114905X-0.114905X0.424264X-0.424264X0.114905X0*%
%ADD24RoundRect,0.250000X-0.450000X0.262500X-0.450000X-0.262500X0.450000X-0.262500X0.450000X0.262500X0*%
%ADD25RoundRect,0.250000X0.650000X-1.000000X0.650000X1.000000X-0.650000X1.000000X-0.650000X-1.000000X0*%
%ADD26RoundRect,0.218750X0.424264X0.114905X0.114905X0.424264X-0.424264X-0.114905X-0.114905X-0.424264X0*%
%ADD27R,1.900000X0.400000*%
%ADD28R,1.600000X0.550000*%
%ADD29R,0.550000X1.600000*%
G04 APERTURE END LIST*
D10*
%TO.C,R13*%
X158087500Y-85000000D03*
X159912500Y-85000000D03*
%TD*%
%TO.C,R12*%
X154587500Y-85000000D03*
X156412500Y-85000000D03*
%TD*%
D11*
%TO.C,U1*%
X150850000Y-123300000D03*
X149750000Y-123300000D03*
X148650000Y-123300000D03*
X147550000Y-123300000D03*
X146450000Y-123300000D03*
X145350000Y-123300000D03*
X144250000Y-123300000D03*
X143150000Y-123300000D03*
X142050000Y-123300000D03*
X142050000Y-133000000D03*
X143150000Y-133000000D03*
X144250000Y-133000000D03*
X145350000Y-133000000D03*
X146450000Y-133000000D03*
X147550000Y-133000000D03*
X148650000Y-133000000D03*
X149750000Y-133000000D03*
X150850000Y-133000000D03*
%TD*%
D12*
%TO.C,ANT1*%
X142750000Y-139500000D03*
X150750000Y-139500000D03*
%TD*%
D10*
%TO.C,R14*%
X158675000Y-101956250D03*
X160500000Y-101956250D03*
%TD*%
D13*
%TO.C,R6*%
X163432500Y-133250000D03*
X161607500Y-133250000D03*
%TD*%
D10*
%TO.C,R15*%
X142385974Y-103001526D03*
X144210974Y-103001526D03*
%TD*%
D14*
%TO.C,C11*%
X146125000Y-93400000D03*
X146125000Y-91500000D03*
%TD*%
D15*
%TO.C,D2*%
X158670000Y-106456250D03*
X160545000Y-106456250D03*
%TD*%
D16*
%TO.C,R19*%
X158750000Y-79735000D03*
X158750000Y-73810000D03*
%TD*%
D10*
%TO.C,R7*%
X142385974Y-107753052D03*
X144210974Y-107753052D03*
%TD*%
D17*
%TO.C,C16*%
X148950000Y-84250000D03*
X147050000Y-84250000D03*
%TD*%
D18*
%TO.C,C13*%
X161570000Y-122000000D03*
X163470000Y-122000000D03*
%TD*%
D19*
%TO.C,Q3*%
X147375000Y-100801526D03*
X147375000Y-102701526D03*
X149250000Y-101751526D03*
%TD*%
D13*
%TO.C,R9*%
X144210974Y-105753052D03*
X142385974Y-105753052D03*
%TD*%
D20*
%TO.C,U5*%
X140487500Y-89550000D03*
X140487500Y-90500000D03*
X140487500Y-91450000D03*
X142762500Y-91450000D03*
X142762500Y-89550000D03*
%TD*%
D18*
%TO.C,C10*%
X163530000Y-112250000D03*
X165430000Y-112250000D03*
%TD*%
D21*
%TO.C,C8*%
X160000000Y-117050000D03*
X160000000Y-118950000D03*
%TD*%
D22*
%TO.C,D1*%
X156400000Y-71000000D03*
X153100000Y-71000000D03*
%TD*%
D14*
%TO.C,C4*%
X154750000Y-133200000D03*
X154750000Y-131300000D03*
%TD*%
D17*
%TO.C,C7*%
X146450000Y-114250000D03*
X144550000Y-114250000D03*
%TD*%
D10*
%TO.C,R1*%
X163587500Y-109970000D03*
X165412500Y-109970000D03*
%TD*%
D21*
%TO.C,C15*%
X146125000Y-87750000D03*
X146125000Y-89650000D03*
%TD*%
D23*
%TO.C,L2*%
X143248699Y-80501301D03*
X144751301Y-78998699D03*
%TD*%
D17*
%TO.C,C18*%
X148450000Y-77750000D03*
X146550000Y-77750000D03*
%TD*%
D24*
%TO.C,R5*%
X146500000Y-116587500D03*
X146500000Y-118412500D03*
%TD*%
D25*
%TO.C,D4*%
X139750000Y-79500000D03*
X139750000Y-75500000D03*
%TD*%
D17*
%TO.C,C19*%
X146550000Y-74750000D03*
X148450000Y-74750000D03*
%TD*%
D10*
%TO.C,R3*%
X158675000Y-104183750D03*
X160500000Y-104183750D03*
%TD*%
D13*
%TO.C,R2*%
X163587500Y-114500000D03*
X165412500Y-114500000D03*
%TD*%
%TO.C,R11*%
X165412500Y-99250000D03*
X163587500Y-99250000D03*
%TD*%
D21*
%TO.C,C6*%
X148750000Y-87750000D03*
X148750000Y-89650000D03*
%TD*%
D14*
%TO.C,C12*%
X160000000Y-114950000D03*
X160000000Y-113050000D03*
%TD*%
D19*
%TO.C,Q2*%
X162712500Y-101756250D03*
X162712500Y-103656250D03*
X164587500Y-102706250D03*
%TD*%
D18*
%TO.C,C5*%
X140175000Y-86450000D03*
X142075000Y-86450000D03*
%TD*%
%TO.C,C14*%
X161570000Y-126500000D03*
X163470000Y-126500000D03*
%TD*%
D13*
%TO.C,R16*%
X144210974Y-100751526D03*
X142385974Y-100751526D03*
%TD*%
D26*
%TO.C,L1*%
X144751301Y-84501301D03*
X143248699Y-82998699D03*
%TD*%
D27*
%TO.C,Y2*%
X143750000Y-118500000D03*
X143750000Y-117300000D03*
X143750000Y-116100000D03*
%TD*%
D26*
%TO.C,L3*%
X144751301Y-76501301D03*
X143248699Y-74998699D03*
%TD*%
D17*
%TO.C,C3*%
X164700000Y-85000000D03*
X162800000Y-85000000D03*
%TD*%
D10*
%TO.C,R4*%
X161607500Y-131000000D03*
X163432500Y-131000000D03*
%TD*%
D15*
%TO.C,D3*%
X161602500Y-128750000D03*
X163477500Y-128750000D03*
%TD*%
D13*
%TO.C,R8*%
X163432500Y-124250000D03*
X161607500Y-124250000D03*
%TD*%
D25*
%TO.C,D5*%
X163500000Y-74750000D03*
X163500000Y-78750000D03*
%TD*%
D10*
%TO.C,R17*%
X142385974Y-98250000D03*
X144210974Y-98250000D03*
%TD*%
D19*
%TO.C,Q4*%
X147375000Y-96300000D03*
X147375000Y-98200000D03*
X149250000Y-97250000D03*
%TD*%
D13*
%TO.C,R10*%
X165412500Y-106456250D03*
X163587500Y-106456250D03*
%TD*%
D18*
%TO.C,C2*%
X142328474Y-111000000D03*
X144228474Y-111000000D03*
%TD*%
D25*
%TO.C,D6*%
X154000000Y-74750000D03*
X154000000Y-78750000D03*
%TD*%
D19*
%TO.C,Q1*%
X147375000Y-105753052D03*
X147375000Y-107653052D03*
X149250000Y-106703052D03*
%TD*%
D17*
%TO.C,C17*%
X148450000Y-81250000D03*
X146550000Y-81250000D03*
%TD*%
D13*
%TO.C,R18*%
X144210974Y-96000000D03*
X142385974Y-96000000D03*
%TD*%
D17*
%TO.C,C9*%
X142950000Y-121000000D03*
X141050000Y-121000000D03*
%TD*%
D28*
%TO.C,U7*%
X148800000Y-111200000D03*
X148800000Y-112000000D03*
X148800000Y-112800000D03*
X148800000Y-113600000D03*
X148800000Y-114400000D03*
X148800000Y-115200000D03*
X148800000Y-116000000D03*
X148800000Y-116800000D03*
D29*
X150250000Y-118250000D03*
X151050000Y-118250000D03*
X151850000Y-118250000D03*
X152650000Y-118250000D03*
X153450000Y-118250000D03*
X154250000Y-118250000D03*
X155050000Y-118250000D03*
X155850000Y-118250000D03*
D28*
X157300000Y-116800000D03*
X157300000Y-116000000D03*
X157300000Y-115200000D03*
X157300000Y-114400000D03*
X157300000Y-113600000D03*
X157300000Y-112800000D03*
X157300000Y-112000000D03*
X157300000Y-111200000D03*
D29*
X155850000Y-109750000D03*
X155050000Y-109750000D03*
X154250000Y-109750000D03*
X153450000Y-109750000D03*
X152650000Y-109750000D03*
X151850000Y-109750000D03*
X151050000Y-109750000D03*
X150250000Y-109750000D03*
%TD*%
M02*
