%TF.GenerationSoftware,KiCad,Pcbnew,9.0.0*%
%TF.CreationDate,2025-03-25T21:02:03-05:00*%
%TF.ProjectId,ptSolar,7074536f-6c61-4722-9e6b-696361645f70,rev?*%
%TF.SameCoordinates,Original*%
%TF.FileFunction,Copper,L4,Bot*%
%TF.FilePolarity,Positive*%
%FSLAX46Y46*%
G04 Gerber Fmt 4.6, Leading zero omitted, Abs format (unit mm)*
G04 Created by KiCad (PCBNEW 9.0.0) date 2025-03-25 21:02:03*
%MOMM*%
%LPD*%
G01*
G04 APERTURE LIST*
G04 Aperture macros list*
%AMRoundRect*
0 Rectangle with rounded corners*
0 $1 Rounding radius*
0 $2 $3 $4 $5 $6 $7 $8 $9 X,Y pos of 4 corners*
0 Add a 4 corners polygon primitive as box body*
4,1,4,$2,$3,$4,$5,$6,$7,$8,$9,$2,$3,0*
0 Add four circle primitives for the rounded corners*
1,1,$1+$1,$2,$3*
1,1,$1+$1,$4,$5*
1,1,$1+$1,$6,$7*
1,1,$1+$1,$8,$9*
0 Add four rect primitives between the rounded corners*
20,1,$1+$1,$2,$3,$4,$5,0*
20,1,$1+$1,$4,$5,$6,$7,0*
20,1,$1+$1,$6,$7,$8,$9,0*
20,1,$1+$1,$8,$9,$2,$3,0*%
G04 Aperture macros list end*
%TA.AperFunction,ComponentPad*%
%ADD10O,4.000000X3.000000*%
%TD*%
%TA.AperFunction,ComponentPad*%
%ADD11C,1.400000*%
%TD*%
%TA.AperFunction,SMDPad,CuDef*%
%ADD12RoundRect,0.250000X0.425000X1.600000X-0.425000X1.600000X-0.425000X-1.600000X0.425000X-1.600000X0*%
%TD*%
%TA.AperFunction,ComponentPad*%
%ADD13R,1.700000X1.700000*%
%TD*%
%TA.AperFunction,ComponentPad*%
%ADD14O,1.700000X1.700000*%
%TD*%
%TA.AperFunction,ComponentPad*%
%ADD15R,1.524000X1.524000*%
%TD*%
%TA.AperFunction,ComponentPad*%
%ADD16C,1.524000*%
%TD*%
%TA.AperFunction,SMDPad,CuDef*%
%ADD17RoundRect,0.115000X-1.135000X-1.035000X1.135000X-1.035000X1.135000X1.035000X-1.135000X1.035000X0*%
%TD*%
%TA.AperFunction,SMDPad,CuDef*%
%ADD18RoundRect,0.115000X-1.035000X-1.135000X1.035000X-1.135000X1.035000X1.135000X-1.035000X1.135000X0*%
%TD*%
%TA.AperFunction,ViaPad*%
%ADD19C,0.600000*%
%TD*%
%TA.AperFunction,Conductor*%
%ADD20C,0.600000*%
%TD*%
%TA.AperFunction,Conductor*%
%ADD21C,0.200000*%
%TD*%
G04 APERTURE END LIST*
D10*
%TO.P,PV1,1,V+*%
%TO.N,Net-(D1-A)*%
X137250000Y-72000000D03*
%TO.P,PV1,2,V-*%
%TO.N,GND*%
X137250000Y-129750000D03*
X137250000Y-133625000D03*
X137250000Y-137500000D03*
%TD*%
D11*
%TO.P,ANT2b1,1,Pin_1*%
%TO.N,GND*%
X150500000Y-72750000D03*
%TD*%
D10*
%TO.P,JPV2,1,V+*%
%TO.N,Net-(D2-A)*%
X167250000Y-72000000D03*
%TO.P,JPV2,2,V-*%
%TO.N,GND*%
X167250000Y-129750000D03*
X167250000Y-133625000D03*
X167250000Y-137500000D03*
%TD*%
D11*
%TO.P,ANT2a1,1,Pin_1*%
%TO.N,Net-(ANT2-In)*%
X144750000Y-73500000D03*
%TD*%
D12*
%TO.P,ANT2,2,Ext*%
%TO.N,GND*%
X142425000Y-70000000D03*
X148075000Y-70000000D03*
%TD*%
D13*
%TO.P,J1,1,Pin_1*%
%TO.N,/MISO*%
X155700000Y-139000000D03*
D14*
%TO.P,J1,2,Pin_2*%
%TO.N,+BATT*%
X155700000Y-136460000D03*
%TO.P,J1,3,Pin_3*%
%TO.N,/SCK*%
X158240000Y-139000000D03*
%TO.P,J1,4,Pin_4*%
%TO.N,/MOSI*%
X158240000Y-136460000D03*
%TO.P,J1,5,Pin_5*%
%TO.N,/RESET*%
X160780000Y-139000000D03*
%TO.P,J1,6,Pin_6*%
%TO.N,GND*%
X160780000Y-136460000D03*
%TD*%
D13*
%TO.P,J2,1,Pin_1*%
%TO.N,Net-(J2-Pin_1)*%
X155700000Y-90740000D03*
D14*
%TO.P,J2,2,Pin_2*%
%TO.N,+3.3V*%
X155700000Y-88200000D03*
%TO.P,J2,3,Pin_3*%
%TO.N,Net-(J2-Pin_3)*%
X158240000Y-90740000D03*
%TO.P,J2,4,Pin_4*%
%TO.N,/SCL*%
X158240000Y-88200000D03*
%TO.P,J2,5,Pin_5*%
%TO.N,GND*%
X160780000Y-90740000D03*
%TO.P,J2,6,Pin_6*%
%TO.N,/SDA*%
X160780000Y-88200000D03*
%TO.P,J2,7,Pin_7*%
%TO.N,/DIG-PTT*%
X163320000Y-90740000D03*
%TO.P,J2,8,Pin_8*%
%TO.N,Net-(J2-Pin_8)*%
X163320000Y-88200000D03*
%TD*%
D15*
%TO.P,C1,1*%
%TO.N,Net-(D1-K)*%
X160250000Y-71000000D03*
D16*
%TO.P,C1,2*%
%TO.N,GND*%
X160250000Y-82500000D03*
%TD*%
D17*
%TO.P,U3,1,Squelch*%
%TO.N,unconnected-(U3-Squelch-Pad1)*%
X162065000Y-125860000D03*
%TO.P,U3,2,NC*%
%TO.N,unconnected-(U3-NC-Pad2)*%
X162065000Y-121460000D03*
%TO.P,U3,3,AF-OUT*%
%TO.N,unconnected-(U3-AF-OUT-Pad3)*%
X162065000Y-117060000D03*
%TO.P,U3,4,NC*%
%TO.N,unconnected-(U3-NC-Pad4)*%
X162065000Y-112660000D03*
%TO.P,U3,5,PTT*%
%TO.N,Net-(Q4-C)*%
X162065000Y-108260000D03*
%TO.P,U3,6,POWER_SAVE*%
%TO.N,Net-(Q1-D)*%
X162065000Y-103860000D03*
%TO.P,U3,7,HIGH/LOW*%
%TO.N,Net-(U3-HIGH{slash}LOW)*%
X162065000Y-99460000D03*
D18*
%TO.P,U3,8,VBAT*%
%TO.N,+BATT*%
X160065000Y-95560000D03*
%TO.P,U3,9,GND*%
%TO.N,GND*%
X155431666Y-95560000D03*
%TO.P,U3,10,GND*%
X150798333Y-95560000D03*
%TO.P,U3,11,NC*%
%TO.N,unconnected-(U3-NC-Pad11)*%
X146165000Y-95560000D03*
D17*
%TO.P,U3,12,ANTENNA*%
%TO.N,Net-(U3-ANTENNA)*%
X144265000Y-99460000D03*
%TO.P,U3,13,NC*%
%TO.N,unconnected-(U3-NC-Pad13)*%
X144265000Y-103860000D03*
%TO.P,U3,14,NC*%
%TO.N,unconnected-(U3-NC-Pad14)*%
X144265000Y-108260000D03*
%TO.P,U3,15,NC*%
%TO.N,unconnected-(U3-NC-Pad15)*%
X144265000Y-112660000D03*
%TO.P,U3,16,RX_DATA*%
%TO.N,Net-(Q2-D)*%
X144265000Y-117060000D03*
%TO.P,U3,17,TX_DATA*%
%TO.N,Net-(Q3-D)*%
X144265000Y-121460000D03*
%TO.P,U3,18,MIC-IN*%
%TO.N,Net-(U3-MIC-IN)*%
X144265000Y-125860000D03*
%TD*%
D19*
%TO.N,GND*%
X160000000Y-109500000D03*
%TO.N,Net-(C15-Pad2)*%
X164500000Y-119750000D03*
X159250000Y-108250000D03*
%TO.N,GND*%
X157250000Y-103250000D03*
%TO.N,+BATT*%
X139000000Y-105750000D03*
X139000000Y-96000000D03*
X151750000Y-78750000D03*
X166000000Y-81500000D03*
X139000000Y-100750000D03*
X166000000Y-108500000D03*
X139000000Y-111000000D03*
X139000000Y-92000000D03*
X139000000Y-88000000D03*
%TO.N,GND*%
X151000000Y-85000000D03*
X151000000Y-81500000D03*
X142500000Y-85500000D03*
X165250000Y-69000000D03*
X163750000Y-119250000D03*
X148750000Y-120000000D03*
X153000000Y-131250000D03*
X140750000Y-94000000D03*
X139750000Y-69000000D03*
X165750000Y-77000000D03*
X144250000Y-90500000D03*
X151250000Y-92500000D03*
X151750000Y-69000000D03*
X151250000Y-89750000D03*
X157750000Y-109500000D03*
X162750000Y-96360000D03*
X155250000Y-113250000D03*
X150500000Y-114500000D03*
X164500000Y-93250000D03*
X151000000Y-76750000D03*
X139000000Y-123750000D03*
X156000000Y-93250000D03*
X150500000Y-112750000D03*
X139000000Y-113750000D03*
X153000000Y-123250000D03*
%TO.N,/RESET*%
X156650000Y-132750000D03*
X152750000Y-111250000D03*
X155500000Y-121000000D03*
%TO.N,/MOSI*%
X157250000Y-133750000D03*
%TO.N,/SCL*%
X155000000Y-107400000D03*
%TO.N,/SDA*%
X156000000Y-107400000D03*
%TO.N,+3.3V*%
X163500000Y-135000000D03*
X151500000Y-114000000D03*
X158250000Y-118250000D03*
X148531250Y-86250000D03*
X146750000Y-120750000D03*
X146000000Y-106750000D03*
X146000000Y-97500000D03*
X146000000Y-102000000D03*
%TO.N,Net-(D1-K)*%
X139750000Y-81500000D03*
X151750000Y-74750000D03*
%TO.N,Net-(Q1-D)*%
X146750000Y-104250000D03*
%TO.N,Net-(Q3-D)*%
X140750000Y-97250000D03*
%TO.N,Net-(Q3-S)*%
X154250000Y-116500000D03*
X151000000Y-104500000D03*
%TO.N,Net-(U2-PD3)*%
X148750000Y-109750000D03*
X159500000Y-122250000D03*
%TO.N,Net-(U3-MIC-IN)*%
X158750000Y-123500000D03*
%TO.N,Net-(U3-ANTENNA)*%
X145750000Y-85750000D03*
%TO.N,Net-(J2-Pin_1)*%
X153925735Y-107400000D03*
%TO.N,Net-(J2-Pin_8)*%
X150750000Y-116500000D03*
%TO.N,Net-(J2-Pin_3)*%
X153250000Y-106750000D03*
%TO.N,Net-(Q2-D)*%
X140750000Y-102000000D03*
%TO.N,Net-(Q2-S)*%
X148000000Y-104500000D03*
X153350000Y-116250000D03*
%TO.N,Net-(Q4-C)*%
X164500000Y-105000000D03*
%TO.N,Net-(U3-HIGH{slash}LOW)*%
X164250000Y-97250000D03*
%TD*%
D20*
%TO.N,+BATT*%
X155790000Y-136460000D02*
X155700000Y-136460000D01*
X164000000Y-128250000D02*
X155790000Y-136460000D01*
X164000000Y-126210787D02*
X164000000Y-128250000D01*
X166000000Y-108500000D02*
X166000000Y-124210787D01*
X166000000Y-124210787D02*
X164000000Y-126210787D01*
D21*
%TO.N,Net-(C15-Pad2)*%
X158899000Y-108601000D02*
X159250000Y-108250000D01*
X158899000Y-113753498D02*
X158899000Y-108601000D01*
X163500000Y-114750000D02*
X159895502Y-114750000D01*
X164500000Y-115750000D02*
X163500000Y-114750000D01*
X164500000Y-119750000D02*
X164500000Y-115750000D01*
X159895502Y-114750000D02*
X158899000Y-113753498D01*
%TO.N,Net-(U3-MIC-IN)*%
X156390000Y-125860000D02*
X144265000Y-125860000D01*
X158750000Y-123500000D02*
X156390000Y-125860000D01*
D20*
%TO.N,+BATT*%
X166000000Y-95500000D02*
X166000000Y-90774999D01*
X166000000Y-90774999D02*
X166000000Y-81500000D01*
X160065000Y-95560000D02*
X165940000Y-95560000D01*
X165940000Y-95560000D02*
X166000000Y-95500000D01*
X166000000Y-108500000D02*
X166000000Y-90774999D01*
D21*
%TO.N,/RESET*%
X154260000Y-139860000D02*
X154550000Y-140150000D01*
X159630000Y-140150000D02*
X160780000Y-139000000D01*
X152750000Y-118250000D02*
X152750000Y-111250000D01*
X155500000Y-121000000D02*
X152750000Y-118250000D01*
X154260000Y-135140000D02*
X154260000Y-139860000D01*
X156650000Y-132750000D02*
X154260000Y-135140000D01*
X154550000Y-140150000D02*
X159630000Y-140150000D01*
%TO.N,/MOSI*%
X154550000Y-135983654D02*
X154550000Y-136936346D01*
X157250000Y-133750000D02*
X156783654Y-133750000D01*
X154550000Y-136936346D02*
X155223654Y-137610000D01*
X155223654Y-137610000D02*
X157090000Y-137610000D01*
X157090000Y-137610000D02*
X158240000Y-136460000D01*
X156783654Y-133750000D02*
X154550000Y-135983654D01*
%TO.N,/SCL*%
X159390000Y-89350000D02*
X158240000Y-88200000D01*
X159390000Y-91860000D02*
X159390000Y-89350000D01*
X157960000Y-104440000D02*
X157960000Y-93290000D01*
X157960000Y-93290000D02*
X159390000Y-91860000D01*
X155000000Y-107400000D02*
X157960000Y-104440000D01*
%TO.N,/SDA*%
X158250000Y-105150000D02*
X156000000Y-107400000D01*
X161010000Y-92750000D02*
X159250000Y-92750000D01*
X161930000Y-91830000D02*
X161010000Y-92750000D01*
X159250000Y-92750000D02*
X158250000Y-93750000D01*
X161930000Y-89350000D02*
X161930000Y-91830000D01*
X160780000Y-88200000D02*
X161930000Y-89350000D01*
X158250000Y-93750000D02*
X158250000Y-105150000D01*
D20*
%TO.N,Net-(D1-K)*%
X139750000Y-81500000D02*
X146500000Y-74750000D01*
X146500000Y-74750000D02*
X151750000Y-74750000D01*
D21*
%TO.N,Net-(Q1-D)*%
X157925000Y-108000000D02*
X152839878Y-108000000D01*
X151860000Y-107020122D02*
X151860000Y-104360000D01*
X152839878Y-108000000D02*
X151860000Y-107020122D01*
X151860000Y-104360000D02*
X151250000Y-103750000D01*
X162065000Y-103860000D02*
X157925000Y-108000000D01*
X151250000Y-103750000D02*
X147250000Y-103750000D01*
X147250000Y-103750000D02*
X146750000Y-104250000D01*
%TO.N,Net-(Q3-D)*%
X140150000Y-117345000D02*
X144265000Y-121460000D01*
X140750000Y-97250000D02*
X140150000Y-97850000D01*
X140150000Y-97850000D02*
X140150000Y-117345000D01*
%TO.N,Net-(Q3-S)*%
X151000000Y-104500000D02*
X151000000Y-106750000D01*
X154250000Y-110000000D02*
X154250000Y-116500000D01*
X151000000Y-106750000D02*
X154250000Y-110000000D01*
%TO.N,Net-(U2-PD3)*%
X152460000Y-113460000D02*
X152460000Y-118960000D01*
X148750000Y-109750000D02*
X152460000Y-113460000D01*
X155750000Y-122250000D02*
X159500000Y-122250000D01*
X152460000Y-118960000D02*
X155750000Y-122250000D01*
%TO.N,Net-(U3-ANTENNA)*%
X144265000Y-99460000D02*
X143500000Y-98695000D01*
X143500000Y-88000000D02*
X145750000Y-85750000D01*
X143500000Y-98695000D02*
X143500000Y-88000000D01*
%TO.N,Net-(J2-Pin_1)*%
X152960000Y-106191471D02*
X152960000Y-94040000D01*
X155700000Y-91300000D02*
X155700000Y-90740000D01*
X153025000Y-107400000D02*
X152650000Y-107025000D01*
X152650000Y-107025000D02*
X152650000Y-106501471D01*
X152650000Y-106501471D02*
X152960000Y-106191471D01*
X153925735Y-107400000D02*
X153025000Y-107400000D01*
X152960000Y-94040000D02*
X155700000Y-91300000D01*
%TO.N,Net-(J2-Pin_3)*%
X155160122Y-92250000D02*
X156750000Y-92250000D01*
X153250000Y-94160122D02*
X155160122Y-92250000D01*
X156750000Y-92250000D02*
X158240000Y-90760000D01*
X158240000Y-90760000D02*
X158240000Y-90740000D01*
X153250000Y-106750000D02*
X153250000Y-94160122D01*
%TO.N,Net-(Q2-D)*%
X140750000Y-113545000D02*
X144265000Y-117060000D01*
X140750000Y-102000000D02*
X140750000Y-113545000D01*
%TO.N,Net-(Q2-S)*%
X153350000Y-116250000D02*
X153500000Y-116100000D01*
X153500000Y-110000000D02*
X148000000Y-104500000D01*
X153500000Y-116100000D02*
X153500000Y-110000000D01*
%TO.N,Net-(Q4-C)*%
X162065000Y-107435000D02*
X162065000Y-108260000D01*
X164500000Y-105000000D02*
X162065000Y-107435000D01*
%TO.N,Net-(U3-HIGH{slash}LOW)*%
X164250000Y-97250000D02*
X162065000Y-99435000D01*
X162065000Y-99435000D02*
X162065000Y-99460000D01*
%TD*%
%TA.AperFunction,Conductor*%
%TO.N,GND*%
G36*
X141193039Y-68270185D02*
G01*
X141238794Y-68322989D01*
X141250000Y-68374500D01*
X141250000Y-69750000D01*
X143599999Y-69750000D01*
X143599999Y-68374500D01*
X143619684Y-68307461D01*
X143672488Y-68261706D01*
X143723999Y-68250500D01*
X146776000Y-68250500D01*
X146843039Y-68270185D01*
X146888794Y-68322989D01*
X146900000Y-68374500D01*
X146900000Y-69750000D01*
X149249999Y-69750000D01*
X149249999Y-68374500D01*
X149269684Y-68307461D01*
X149322488Y-68261706D01*
X149373999Y-68250500D01*
X166625500Y-68250500D01*
X166692539Y-68270185D01*
X166738294Y-68322989D01*
X166749500Y-68374500D01*
X166749500Y-69875500D01*
X166729815Y-69942539D01*
X166677011Y-69988294D01*
X166625500Y-69999500D01*
X166618872Y-69999500D01*
X166387772Y-70029926D01*
X166358884Y-70033730D01*
X166105581Y-70101602D01*
X166105571Y-70101605D01*
X165863309Y-70201953D01*
X165863299Y-70201958D01*
X165636196Y-70333075D01*
X165428148Y-70492718D01*
X165242718Y-70678148D01*
X165083075Y-70886196D01*
X164951958Y-71113299D01*
X164951953Y-71113309D01*
X164851605Y-71355571D01*
X164851602Y-71355581D01*
X164783730Y-71608885D01*
X164749500Y-71868872D01*
X164749500Y-72131127D01*
X164770333Y-72289362D01*
X164783730Y-72391116D01*
X164838523Y-72595606D01*
X164851602Y-72644418D01*
X164851605Y-72644428D01*
X164951953Y-72886690D01*
X164951958Y-72886700D01*
X165083075Y-73113803D01*
X165242718Y-73321851D01*
X165242726Y-73321860D01*
X165428140Y-73507274D01*
X165428148Y-73507281D01*
X165636196Y-73666924D01*
X165863299Y-73798041D01*
X165863309Y-73798046D01*
X166053948Y-73877011D01*
X166105581Y-73898398D01*
X166358884Y-73966270D01*
X166618880Y-74000500D01*
X166625500Y-74000500D01*
X166692539Y-74020185D01*
X166738294Y-74072989D01*
X166749500Y-74124500D01*
X166749500Y-80818059D01*
X166729815Y-80885098D01*
X166677011Y-80930853D01*
X166607853Y-80940797D01*
X166544297Y-80911772D01*
X166537819Y-80905740D01*
X166510292Y-80878213D01*
X166510288Y-80878210D01*
X166379185Y-80790609D01*
X166379172Y-80790602D01*
X166233501Y-80730264D01*
X166233489Y-80730261D01*
X166078845Y-80699500D01*
X166078842Y-80699500D01*
X165921158Y-80699500D01*
X165921155Y-80699500D01*
X165766510Y-80730261D01*
X165766498Y-80730264D01*
X165620827Y-80790602D01*
X165620814Y-80790609D01*
X165489711Y-80878210D01*
X165489707Y-80878213D01*
X165378213Y-80989707D01*
X165378210Y-80989711D01*
X165290609Y-81120814D01*
X165290602Y-81120827D01*
X165230264Y-81266498D01*
X165230261Y-81266510D01*
X165199500Y-81421153D01*
X165199500Y-94635500D01*
X165179815Y-94702539D01*
X165127011Y-94748294D01*
X165075500Y-94759500D01*
X161839499Y-94759500D01*
X161772460Y-94739815D01*
X161726705Y-94687011D01*
X161715499Y-94635500D01*
X161715499Y-94362853D01*
X161715498Y-94362828D01*
X161715225Y-94359370D01*
X161712754Y-94327949D01*
X161669368Y-94178613D01*
X161590206Y-94044757D01*
X161590204Y-94044755D01*
X161590201Y-94044751D01*
X161480248Y-93934798D01*
X161480240Y-93934792D01*
X161346387Y-93855632D01*
X161346382Y-93855630D01*
X161197055Y-93812246D01*
X161197049Y-93812245D01*
X161162166Y-93809500D01*
X161162159Y-93809500D01*
X159339097Y-93809500D01*
X159272058Y-93789815D01*
X159226303Y-93737011D01*
X159216359Y-93667853D01*
X159245384Y-93604297D01*
X159251416Y-93597819D01*
X159462417Y-93386819D01*
X159523740Y-93353334D01*
X159550098Y-93350500D01*
X160923331Y-93350500D01*
X160923347Y-93350501D01*
X160930943Y-93350501D01*
X161089054Y-93350501D01*
X161089057Y-93350501D01*
X161241785Y-93309577D01*
X161291904Y-93280639D01*
X161378716Y-93230520D01*
X161490520Y-93118716D01*
X161490520Y-93118714D01*
X161500728Y-93108507D01*
X161500730Y-93108504D01*
X162288506Y-92320728D01*
X162288511Y-92320724D01*
X162298714Y-92310520D01*
X162298716Y-92310520D01*
X162410520Y-92198716D01*
X162489577Y-92061784D01*
X162503982Y-92008021D01*
X162540345Y-91948363D01*
X162603191Y-91917833D01*
X162672567Y-91926127D01*
X162680051Y-91929631D01*
X162801588Y-91991557D01*
X163003757Y-92057246D01*
X163213713Y-92090500D01*
X163213714Y-92090500D01*
X163426286Y-92090500D01*
X163426287Y-92090500D01*
X163636243Y-92057246D01*
X163838412Y-91991557D01*
X164027816Y-91895051D01*
X164124575Y-91824752D01*
X164199786Y-91770109D01*
X164199788Y-91770106D01*
X164199792Y-91770104D01*
X164350104Y-91619792D01*
X164350106Y-91619788D01*
X164350109Y-91619786D01*
X164475048Y-91447820D01*
X164475047Y-91447820D01*
X164475051Y-91447816D01*
X164571557Y-91258412D01*
X164637246Y-91056243D01*
X164670500Y-90846287D01*
X164670500Y-90633713D01*
X164637246Y-90423757D01*
X164571557Y-90221588D01*
X164475051Y-90032184D01*
X164475049Y-90032181D01*
X164475048Y-90032179D01*
X164350109Y-89860213D01*
X164199786Y-89709890D01*
X164027820Y-89584951D01*
X164027115Y-89584591D01*
X164019054Y-89580485D01*
X163968259Y-89532512D01*
X163951463Y-89464692D01*
X163973999Y-89398556D01*
X164019054Y-89359515D01*
X164027816Y-89355051D01*
X164070085Y-89324341D01*
X164199786Y-89230109D01*
X164199788Y-89230106D01*
X164199792Y-89230104D01*
X164350104Y-89079792D01*
X164350106Y-89079788D01*
X164350109Y-89079786D01*
X164475048Y-88907820D01*
X164475047Y-88907820D01*
X164475051Y-88907816D01*
X164571557Y-88718412D01*
X164637246Y-88516243D01*
X164670500Y-88306287D01*
X164670500Y-88093713D01*
X164637246Y-87883757D01*
X164571557Y-87681588D01*
X164475051Y-87492184D01*
X164475049Y-87492181D01*
X164475048Y-87492179D01*
X164350109Y-87320213D01*
X164199786Y-87169890D01*
X164027820Y-87044951D01*
X163838414Y-86948444D01*
X163838413Y-86948443D01*
X163838412Y-86948443D01*
X163636243Y-86882754D01*
X163636241Y-86882753D01*
X163636240Y-86882753D01*
X163474957Y-86857208D01*
X163426287Y-86849500D01*
X163213713Y-86849500D01*
X163165042Y-86857208D01*
X163003760Y-86882753D01*
X162801585Y-86948444D01*
X162612179Y-87044951D01*
X162440213Y-87169890D01*
X162289890Y-87320213D01*
X162164949Y-87492182D01*
X162160484Y-87500946D01*
X162112509Y-87551742D01*
X162044688Y-87568536D01*
X161978553Y-87545998D01*
X161939516Y-87500946D01*
X161935050Y-87492182D01*
X161810109Y-87320213D01*
X161659786Y-87169890D01*
X161487820Y-87044951D01*
X161298414Y-86948444D01*
X161298413Y-86948443D01*
X161298412Y-86948443D01*
X161096243Y-86882754D01*
X161096241Y-86882753D01*
X161096240Y-86882753D01*
X160934957Y-86857208D01*
X160886287Y-86849500D01*
X160673713Y-86849500D01*
X160625042Y-86857208D01*
X160463760Y-86882753D01*
X160261585Y-86948444D01*
X160072179Y-87044951D01*
X159900213Y-87169890D01*
X159749890Y-87320213D01*
X159624949Y-87492182D01*
X159620484Y-87500946D01*
X159572509Y-87551742D01*
X159504688Y-87568536D01*
X159438553Y-87545998D01*
X159399516Y-87500946D01*
X159395050Y-87492182D01*
X159270109Y-87320213D01*
X159119786Y-87169890D01*
X158947820Y-87044951D01*
X158758414Y-86948444D01*
X158758413Y-86948443D01*
X158758412Y-86948443D01*
X158556243Y-86882754D01*
X158556241Y-86882753D01*
X158556240Y-86882753D01*
X158394957Y-86857208D01*
X158346287Y-86849500D01*
X158133713Y-86849500D01*
X158085042Y-86857208D01*
X157923760Y-86882753D01*
X157721585Y-86948444D01*
X157532179Y-87044951D01*
X157360213Y-87169890D01*
X157209890Y-87320213D01*
X157084949Y-87492182D01*
X157080484Y-87500946D01*
X157032509Y-87551742D01*
X156964688Y-87568536D01*
X156898553Y-87545998D01*
X156859516Y-87500946D01*
X156855050Y-87492182D01*
X156730109Y-87320213D01*
X156579786Y-87169890D01*
X156407820Y-87044951D01*
X156218414Y-86948444D01*
X156218413Y-86948443D01*
X156218412Y-86948443D01*
X156016243Y-86882754D01*
X156016241Y-86882753D01*
X156016240Y-86882753D01*
X155854957Y-86857208D01*
X155806287Y-86849500D01*
X155593713Y-86849500D01*
X155545042Y-86857208D01*
X155383760Y-86882753D01*
X155181585Y-86948444D01*
X154992179Y-87044951D01*
X154820213Y-87169890D01*
X154669890Y-87320213D01*
X154544951Y-87492179D01*
X154448444Y-87681585D01*
X154382753Y-87883760D01*
X154349500Y-88093713D01*
X154349500Y-88306286D01*
X154382753Y-88516239D01*
X154448444Y-88718414D01*
X154544951Y-88907820D01*
X154669890Y-89079786D01*
X154783430Y-89193326D01*
X154816915Y-89254649D01*
X154811931Y-89324341D01*
X154770059Y-89380274D01*
X154739083Y-89397189D01*
X154607669Y-89446203D01*
X154607664Y-89446206D01*
X154492455Y-89532452D01*
X154492452Y-89532455D01*
X154406206Y-89647664D01*
X154406202Y-89647671D01*
X154355908Y-89782517D01*
X154349501Y-89842116D01*
X154349500Y-89842135D01*
X154349500Y-91637870D01*
X154349501Y-91637876D01*
X154355909Y-91697484D01*
X154357692Y-91705029D01*
X154355361Y-91705579D01*
X154359494Y-91763441D01*
X154326011Y-91824752D01*
X152591286Y-93559478D01*
X152479481Y-93671282D01*
X152479480Y-93671284D01*
X152429360Y-93758095D01*
X152400423Y-93808215D01*
X152385496Y-93863919D01*
X152382120Y-93871883D01*
X152365231Y-93892484D01*
X152351367Y-93915231D01*
X152343423Y-93919089D01*
X152337825Y-93925919D01*
X152312482Y-93934119D01*
X152288520Y-93945759D01*
X152279751Y-93944710D01*
X152271349Y-93947429D01*
X152245593Y-93940625D01*
X152219144Y-93937462D01*
X152204839Y-93930207D01*
X152079524Y-93856097D01*
X152079515Y-93856093D01*
X151930309Y-93812744D01*
X151930303Y-93812743D01*
X151895439Y-93810000D01*
X149701237Y-93810000D01*
X149701215Y-93810001D01*
X149666360Y-93812744D01*
X149517150Y-93856093D01*
X149517140Y-93856097D01*
X149473682Y-93881797D01*
X150887428Y-95295543D01*
X150920913Y-95356866D01*
X150915929Y-95426558D01*
X150887428Y-95470905D01*
X150798333Y-95560000D01*
X150887427Y-95649094D01*
X150920912Y-95710417D01*
X150915928Y-95780109D01*
X150887427Y-95824456D01*
X149473682Y-97238200D01*
X149517147Y-97263905D01*
X149517150Y-97263906D01*
X149666356Y-97307255D01*
X149666362Y-97307256D01*
X149701226Y-97309999D01*
X151895428Y-97309999D01*
X151895450Y-97309998D01*
X151930305Y-97307255D01*
X152079515Y-97263906D01*
X152079520Y-97263904D01*
X152172379Y-97208988D01*
X152240103Y-97191805D01*
X152306365Y-97213965D01*
X152350129Y-97268431D01*
X152359500Y-97315720D01*
X152359500Y-103710903D01*
X152339815Y-103777942D01*
X152287011Y-103823697D01*
X152217853Y-103833641D01*
X152154297Y-103804616D01*
X152147819Y-103798584D01*
X151737590Y-103388355D01*
X151737588Y-103388352D01*
X151618717Y-103269481D01*
X151618716Y-103269480D01*
X151531904Y-103219360D01*
X151531904Y-103219359D01*
X151531900Y-103219358D01*
X151481785Y-103190423D01*
X151329057Y-103149499D01*
X151170943Y-103149499D01*
X151163347Y-103149499D01*
X151163331Y-103149500D01*
X147336670Y-103149500D01*
X147336654Y-103149499D01*
X147329058Y-103149499D01*
X147170943Y-103149499D01*
X147094579Y-103169961D01*
X147018214Y-103190423D01*
X147018209Y-103190426D01*
X146881290Y-103269475D01*
X146881286Y-103269478D01*
X146735337Y-103415427D01*
X146674014Y-103448911D01*
X146671848Y-103449362D01*
X146516508Y-103480261D01*
X146516498Y-103480264D01*
X146370827Y-103540602D01*
X146370814Y-103540609D01*
X146239711Y-103628210D01*
X146239707Y-103628213D01*
X146227180Y-103640741D01*
X146165857Y-103674226D01*
X146096165Y-103669242D01*
X146040232Y-103627370D01*
X146015815Y-103561906D01*
X146015499Y-103553060D01*
X146015499Y-102914864D01*
X146035184Y-102847825D01*
X146087988Y-102802070D01*
X146115308Y-102793247D01*
X146174202Y-102781531D01*
X146233497Y-102769737D01*
X146379179Y-102709394D01*
X146510289Y-102621789D01*
X146621789Y-102510289D01*
X146709394Y-102379179D01*
X146769737Y-102233497D01*
X146800500Y-102078842D01*
X146800500Y-101921158D01*
X146800500Y-101921155D01*
X146800499Y-101921153D01*
X146769738Y-101766510D01*
X146769737Y-101766503D01*
X146769735Y-101766498D01*
X146709397Y-101620827D01*
X146709390Y-101620814D01*
X146621789Y-101489711D01*
X146621786Y-101489707D01*
X146510292Y-101378213D01*
X146510288Y-101378210D01*
X146379185Y-101290609D01*
X146379172Y-101290602D01*
X146233501Y-101230264D01*
X146233489Y-101230261D01*
X146078845Y-101199500D01*
X146078842Y-101199500D01*
X145921158Y-101199500D01*
X145875583Y-101208565D01*
X145805991Y-101202336D01*
X145750815Y-101159473D01*
X145727571Y-101093583D01*
X145743639Y-101025586D01*
X145775399Y-100988963D01*
X145780241Y-100985207D01*
X145780243Y-100985206D01*
X145890206Y-100875243D01*
X145969368Y-100741387D01*
X146012754Y-100592051D01*
X146015500Y-100557159D01*
X146015499Y-98414863D01*
X146035184Y-98347825D01*
X146087987Y-98302070D01*
X146115308Y-98293247D01*
X146174202Y-98281531D01*
X146233497Y-98269737D01*
X146379179Y-98209394D01*
X146510289Y-98121789D01*
X146621789Y-98010289D01*
X146709394Y-97879179D01*
X146769737Y-97733497D01*
X146800500Y-97578842D01*
X146800500Y-97434499D01*
X146820185Y-97367460D01*
X146872989Y-97321705D01*
X146924500Y-97310499D01*
X147262146Y-97310499D01*
X147262158Y-97310499D01*
X147297051Y-97307754D01*
X147446387Y-97264368D01*
X147580243Y-97185206D01*
X147690206Y-97075243D01*
X147769368Y-96941387D01*
X147812754Y-96792051D01*
X147815500Y-96757159D01*
X147815499Y-94362886D01*
X149148333Y-94362886D01*
X149148333Y-96757095D01*
X149148334Y-96757117D01*
X149151076Y-96791969D01*
X149164974Y-96839806D01*
X150444781Y-95560000D01*
X150444781Y-95559999D01*
X149164974Y-94280192D01*
X149151077Y-94328028D01*
X149151076Y-94328033D01*
X149148333Y-94362886D01*
X147815499Y-94362886D01*
X147815499Y-94362842D01*
X147812754Y-94327949D01*
X147769368Y-94178613D01*
X147690206Y-94044757D01*
X147690204Y-94044755D01*
X147690201Y-94044751D01*
X147580248Y-93934798D01*
X147580240Y-93934792D01*
X147446387Y-93855632D01*
X147446382Y-93855630D01*
X147297055Y-93812246D01*
X147297049Y-93812245D01*
X147262159Y-93809500D01*
X145067853Y-93809500D01*
X145067828Y-93809501D01*
X145032948Y-93812246D01*
X144883617Y-93855630D01*
X144883612Y-93855632D01*
X144749759Y-93934792D01*
X144749751Y-93934798D01*
X144639798Y-94044751D01*
X144639792Y-94044759D01*
X144560632Y-94178612D01*
X144560630Y-94178617D01*
X144517246Y-94327944D01*
X144517245Y-94327950D01*
X144514500Y-94362833D01*
X144514500Y-96757146D01*
X144514501Y-96757171D01*
X144517246Y-96792051D01*
X144560630Y-96941382D01*
X144560632Y-96941387D01*
X144639792Y-97075240D01*
X144639798Y-97075248D01*
X144749751Y-97185201D01*
X144749755Y-97185204D01*
X144749757Y-97185206D01*
X144883613Y-97264368D01*
X144897598Y-97268431D01*
X145032944Y-97307753D01*
X145032947Y-97307753D01*
X145032949Y-97307754D01*
X145067841Y-97310500D01*
X145075491Y-97310499D01*
X145142529Y-97330177D01*
X145188289Y-97382976D01*
X145199500Y-97434499D01*
X145199500Y-97578846D01*
X145215903Y-97661309D01*
X145209676Y-97730900D01*
X145166813Y-97786078D01*
X145100923Y-97809322D01*
X145094286Y-97809500D01*
X144224500Y-97809500D01*
X144157461Y-97789815D01*
X144111706Y-97737011D01*
X144100500Y-97685500D01*
X144100500Y-88300097D01*
X144120185Y-88233058D01*
X144136819Y-88212416D01*
X144859528Y-87489707D01*
X145764664Y-86584571D01*
X145825985Y-86551088D01*
X145828152Y-86550637D01*
X145828841Y-86550500D01*
X145828842Y-86550500D01*
X145983497Y-86519737D01*
X146129179Y-86459394D01*
X146260289Y-86371789D01*
X146371789Y-86260289D01*
X146431348Y-86171153D01*
X147730750Y-86171153D01*
X147730750Y-86328846D01*
X147761511Y-86483489D01*
X147761514Y-86483501D01*
X147821852Y-86629172D01*
X147821859Y-86629185D01*
X147909460Y-86760288D01*
X147909463Y-86760292D01*
X148020957Y-86871786D01*
X148020961Y-86871789D01*
X148152064Y-86959390D01*
X148152077Y-86959397D01*
X148297748Y-87019735D01*
X148297753Y-87019737D01*
X148452403Y-87050499D01*
X148452406Y-87050500D01*
X148452408Y-87050500D01*
X148610094Y-87050500D01*
X148610095Y-87050499D01*
X148764747Y-87019737D01*
X148910429Y-86959394D01*
X149041539Y-86871789D01*
X149153039Y-86760289D01*
X149240644Y-86629179D01*
X149300987Y-86483497D01*
X149331750Y-86328842D01*
X149331750Y-86171158D01*
X149331750Y-86171155D01*
X149331749Y-86171153D01*
X149300988Y-86016510D01*
X149300987Y-86016503D01*
X149287312Y-85983489D01*
X149240647Y-85870827D01*
X149240640Y-85870814D01*
X149153039Y-85739711D01*
X149153036Y-85739707D01*
X149041542Y-85628213D01*
X149041538Y-85628210D01*
X148910435Y-85540609D01*
X148910422Y-85540602D01*
X148764751Y-85480264D01*
X148764739Y-85480261D01*
X148610095Y-85449500D01*
X148610092Y-85449500D01*
X148452408Y-85449500D01*
X148452405Y-85449500D01*
X148297760Y-85480261D01*
X148297748Y-85480264D01*
X148152077Y-85540602D01*
X148152064Y-85540609D01*
X148020961Y-85628210D01*
X148020957Y-85628213D01*
X147909463Y-85739707D01*
X147909460Y-85739711D01*
X147821859Y-85870814D01*
X147821852Y-85870827D01*
X147761514Y-86016498D01*
X147761511Y-86016510D01*
X147730750Y-86171153D01*
X146431348Y-86171153D01*
X146459394Y-86129179D01*
X146519737Y-85983497D01*
X146550500Y-85828842D01*
X146550500Y-85671158D01*
X146550500Y-85671155D01*
X146550499Y-85671153D01*
X146524531Y-85540606D01*
X146519737Y-85516503D01*
X146519735Y-85516498D01*
X146459397Y-85370827D01*
X146459390Y-85370814D01*
X146371789Y-85239711D01*
X146371786Y-85239707D01*
X146260292Y-85128213D01*
X146260288Y-85128210D01*
X146129185Y-85040609D01*
X146129172Y-85040602D01*
X145983501Y-84980264D01*
X145983489Y-84980261D01*
X145828845Y-84949500D01*
X145828842Y-84949500D01*
X145671158Y-84949500D01*
X145671155Y-84949500D01*
X145516510Y-84980261D01*
X145516498Y-84980264D01*
X145370827Y-85040602D01*
X145370814Y-85040609D01*
X145239711Y-85128210D01*
X145239707Y-85128213D01*
X145128213Y-85239707D01*
X145128210Y-85239711D01*
X145040609Y-85370814D01*
X145040602Y-85370827D01*
X144980264Y-85516498D01*
X144980261Y-85516508D01*
X144949362Y-85671848D01*
X144916977Y-85733759D01*
X144915426Y-85735337D01*
X143131286Y-87519478D01*
X143019481Y-87631282D01*
X143019479Y-87631285D01*
X142969361Y-87718094D01*
X142969359Y-87718096D01*
X142940425Y-87768209D01*
X142940424Y-87768210D01*
X142940423Y-87768215D01*
X142899499Y-87920943D01*
X142899499Y-87920945D01*
X142899499Y-88089046D01*
X142899500Y-88089059D01*
X142899500Y-97775507D01*
X142879815Y-97842546D01*
X142838622Y-97882239D01*
X142749757Y-97934794D01*
X142749751Y-97934798D01*
X142639798Y-98044751D01*
X142639792Y-98044759D01*
X142560632Y-98178612D01*
X142560630Y-98178617D01*
X142517246Y-98327944D01*
X142517245Y-98327950D01*
X142514500Y-98362833D01*
X142514500Y-100557146D01*
X142514501Y-100557171D01*
X142517246Y-100592051D01*
X142560630Y-100741382D01*
X142560632Y-100741387D01*
X142639792Y-100875240D01*
X142639798Y-100875248D01*
X142749751Y-100985201D01*
X142749755Y-100985204D01*
X142749757Y-100985206D01*
X142883613Y-101064368D01*
X142922994Y-101075809D01*
X143032944Y-101107753D01*
X143032947Y-101107753D01*
X143032949Y-101107754D01*
X143067841Y-101110500D01*
X145462158Y-101110499D01*
X145473808Y-101109582D01*
X145542184Y-101123943D01*
X145591943Y-101172992D01*
X145607284Y-101241157D01*
X145583338Y-101306795D01*
X145552432Y-101336300D01*
X145489713Y-101378208D01*
X145489707Y-101378213D01*
X145378213Y-101489707D01*
X145378210Y-101489711D01*
X145290609Y-101620814D01*
X145290602Y-101620827D01*
X145230264Y-101766498D01*
X145230261Y-101766510D01*
X145199500Y-101921153D01*
X145199500Y-102084934D01*
X145196791Y-102084934D01*
X145185865Y-102142136D01*
X145137734Y-102192784D01*
X145075555Y-102209500D01*
X143067853Y-102209500D01*
X143067828Y-102209501D01*
X143032948Y-102212246D01*
X142883617Y-102255630D01*
X142883612Y-102255632D01*
X142749759Y-102334792D01*
X142749751Y-102334798D01*
X142639798Y-102444751D01*
X142639792Y-102444759D01*
X142560632Y-102578612D01*
X142560630Y-102578617D01*
X142517246Y-102727944D01*
X142517245Y-102727950D01*
X142514500Y-102762833D01*
X142514500Y-104957146D01*
X142514501Y-104957171D01*
X142517246Y-104992051D01*
X142560630Y-105141382D01*
X142560632Y-105141387D01*
X142639792Y-105275240D01*
X142639798Y-105275248D01*
X142749751Y-105385201D01*
X142749755Y-105385204D01*
X142749757Y-105385206D01*
X142883613Y-105464368D01*
X142922994Y-105475809D01*
X143032944Y-105507753D01*
X143032947Y-105507753D01*
X143032949Y-105507754D01*
X143067841Y-105510500D01*
X145462158Y-105510499D01*
X145497051Y-105507754D01*
X145646387Y-105464368D01*
X145780243Y-105385206D01*
X145890206Y-105275243D01*
X145969368Y-105141387D01*
X146004710Y-105019738D01*
X146012753Y-104992055D01*
X146012754Y-104992049D01*
X146015500Y-104957159D01*
X146015499Y-104946946D01*
X146035178Y-104879909D01*
X146087979Y-104834150D01*
X146157136Y-104824201D01*
X146220694Y-104853221D01*
X146227180Y-104859259D01*
X146239707Y-104871786D01*
X146239711Y-104871789D01*
X146370814Y-104959390D01*
X146370827Y-104959397D01*
X146516498Y-105019735D01*
X146516503Y-105019737D01*
X146660163Y-105048313D01*
X146671153Y-105050499D01*
X146671156Y-105050500D01*
X146671158Y-105050500D01*
X146828844Y-105050500D01*
X146828845Y-105050499D01*
X146983497Y-105019737D01*
X147129179Y-104959394D01*
X147174731Y-104928956D01*
X147241408Y-104908078D01*
X147308788Y-104926562D01*
X147346725Y-104963168D01*
X147378207Y-105010284D01*
X147378213Y-105010292D01*
X147489707Y-105121786D01*
X147489711Y-105121789D01*
X147620814Y-105209390D01*
X147620827Y-105209397D01*
X147694013Y-105239711D01*
X147766503Y-105269737D01*
X147831147Y-105282595D01*
X147921849Y-105300638D01*
X147983760Y-105333023D01*
X147985339Y-105334574D01*
X152863181Y-110212416D01*
X152877884Y-110239343D01*
X152894477Y-110265162D01*
X152895368Y-110271362D01*
X152896666Y-110273739D01*
X152899500Y-110300097D01*
X152899500Y-110325500D01*
X152879815Y-110392539D01*
X152827011Y-110438294D01*
X152775500Y-110449500D01*
X152671155Y-110449500D01*
X152516510Y-110480261D01*
X152516498Y-110480264D01*
X152370827Y-110540602D01*
X152370814Y-110540609D01*
X152239711Y-110628210D01*
X152239707Y-110628213D01*
X152128213Y-110739707D01*
X152128210Y-110739711D01*
X152040609Y-110870814D01*
X152040602Y-110870827D01*
X151980264Y-111016498D01*
X151980261Y-111016510D01*
X151949500Y-111171153D01*
X151949500Y-111328846D01*
X151980261Y-111483489D01*
X151980264Y-111483501D01*
X152040602Y-111629172D01*
X152040609Y-111629185D01*
X152128602Y-111760874D01*
X152134252Y-111778920D01*
X152144477Y-111794830D01*
X152148928Y-111825789D01*
X152149480Y-111827551D01*
X152149500Y-111829765D01*
X152149500Y-112000903D01*
X152129815Y-112067942D01*
X152077011Y-112113697D01*
X152007853Y-112123641D01*
X151944297Y-112094616D01*
X151937819Y-112088584D01*
X149584574Y-109735339D01*
X149551089Y-109674016D01*
X149550638Y-109671849D01*
X149520329Y-109519480D01*
X149519737Y-109516503D01*
X149519172Y-109515139D01*
X149459397Y-109370827D01*
X149459390Y-109370814D01*
X149371789Y-109239711D01*
X149371786Y-109239707D01*
X149260292Y-109128213D01*
X149260288Y-109128210D01*
X149129185Y-109040609D01*
X149129172Y-109040602D01*
X148983501Y-108980264D01*
X148983489Y-108980261D01*
X148828845Y-108949500D01*
X148828842Y-108949500D01*
X148671158Y-108949500D01*
X148671155Y-108949500D01*
X148516510Y-108980261D01*
X148516498Y-108980264D01*
X148370827Y-109040602D01*
X148370814Y-109040609D01*
X148239711Y-109128210D01*
X148239707Y-109128213D01*
X148128213Y-109239707D01*
X148128210Y-109239711D01*
X148040609Y-109370814D01*
X148040602Y-109370827D01*
X147980264Y-109516498D01*
X147980261Y-109516510D01*
X147949500Y-109671153D01*
X147949500Y-109828846D01*
X147980261Y-109983489D01*
X147980264Y-109983501D01*
X148040602Y-110129172D01*
X148040609Y-110129185D01*
X148128210Y-110260288D01*
X148128213Y-110260292D01*
X148239707Y-110371786D01*
X148239711Y-110371789D01*
X148370814Y-110459390D01*
X148370827Y-110459397D01*
X148444013Y-110489711D01*
X148516503Y-110519737D01*
X148581147Y-110532595D01*
X148671849Y-110550638D01*
X148733760Y-110583023D01*
X148735339Y-110584574D01*
X151216259Y-113065494D01*
X151249744Y-113126817D01*
X151244760Y-113196509D01*
X151202888Y-113252442D01*
X151176032Y-113267735D01*
X151120829Y-113290601D01*
X151120814Y-113290609D01*
X150989711Y-113378210D01*
X150989707Y-113378213D01*
X150878213Y-113489707D01*
X150878210Y-113489711D01*
X150790609Y-113620814D01*
X150790602Y-113620827D01*
X150730264Y-113766498D01*
X150730261Y-113766510D01*
X150699500Y-113921153D01*
X150699500Y-114078846D01*
X150730261Y-114233489D01*
X150730264Y-114233501D01*
X150790602Y-114379172D01*
X150790609Y-114379185D01*
X150878210Y-114510288D01*
X150878213Y-114510292D01*
X150989707Y-114621786D01*
X150989711Y-114621789D01*
X151120814Y-114709390D01*
X151120827Y-114709397D01*
X151266498Y-114769735D01*
X151266503Y-114769737D01*
X151421153Y-114800499D01*
X151421156Y-114800500D01*
X151421158Y-114800500D01*
X151578844Y-114800500D01*
X151711308Y-114774151D01*
X151780900Y-114780378D01*
X151836077Y-114823241D01*
X151859322Y-114889131D01*
X151859500Y-114895768D01*
X151859500Y-118873330D01*
X151859499Y-118873348D01*
X151859499Y-119039054D01*
X151859498Y-119039054D01*
X151900423Y-119191786D01*
X151900424Y-119191787D01*
X151928093Y-119239711D01*
X151979481Y-119328717D01*
X152098349Y-119447585D01*
X152098354Y-119447589D01*
X155381284Y-122730520D01*
X155381286Y-122730521D01*
X155381290Y-122730524D01*
X155518209Y-122809573D01*
X155518216Y-122809577D01*
X155670943Y-122850501D01*
X155670945Y-122850501D01*
X155836654Y-122850501D01*
X155836670Y-122850500D01*
X157989241Y-122850500D01*
X158056280Y-122870185D01*
X158102035Y-122922989D01*
X158111979Y-122992147D01*
X158092343Y-123043391D01*
X158040609Y-123120815D01*
X158040602Y-123120827D01*
X157980264Y-123266498D01*
X157980261Y-123266508D01*
X157949361Y-123421850D01*
X157916976Y-123483761D01*
X157915425Y-123485339D01*
X156177584Y-125223181D01*
X156116261Y-125256666D01*
X156089903Y-125259500D01*
X146139499Y-125259500D01*
X146072460Y-125239815D01*
X146026705Y-125187011D01*
X146015499Y-125135500D01*
X146015499Y-124762853D01*
X146015498Y-124762828D01*
X146015225Y-124759370D01*
X146012754Y-124727949D01*
X145969368Y-124578613D01*
X145890206Y-124444757D01*
X145890204Y-124444755D01*
X145890201Y-124444751D01*
X145780248Y-124334798D01*
X145780240Y-124334792D01*
X145646387Y-124255632D01*
X145646382Y-124255630D01*
X145497055Y-124212246D01*
X145497049Y-124212245D01*
X145462159Y-124209500D01*
X143067853Y-124209500D01*
X143067828Y-124209501D01*
X143032948Y-124212246D01*
X142883617Y-124255630D01*
X142883612Y-124255632D01*
X142749759Y-124334792D01*
X142749751Y-124334798D01*
X142639798Y-124444751D01*
X142639792Y-124444759D01*
X142560632Y-124578612D01*
X142560630Y-124578617D01*
X142517246Y-124727944D01*
X142517245Y-124727950D01*
X142514500Y-124762833D01*
X142514500Y-126957146D01*
X142514501Y-126957171D01*
X142517246Y-126992051D01*
X142560630Y-127141382D01*
X142560632Y-127141387D01*
X142639792Y-127275240D01*
X142639798Y-127275248D01*
X142749751Y-127385201D01*
X142749755Y-127385204D01*
X142749757Y-127385206D01*
X142883613Y-127464368D01*
X142922994Y-127475809D01*
X143032944Y-127507753D01*
X143032947Y-127507753D01*
X143032949Y-127507754D01*
X143067841Y-127510500D01*
X145462158Y-127510499D01*
X145497051Y-127507754D01*
X145646387Y-127464368D01*
X145780243Y-127385206D01*
X145890206Y-127275243D01*
X145969368Y-127141387D01*
X146012754Y-126992051D01*
X146015500Y-126957159D01*
X146015500Y-126584500D01*
X146035185Y-126517461D01*
X146087989Y-126471706D01*
X146139500Y-126460500D01*
X156303331Y-126460500D01*
X156303347Y-126460501D01*
X156310943Y-126460501D01*
X156469054Y-126460501D01*
X156469057Y-126460501D01*
X156621785Y-126419577D01*
X156671904Y-126390639D01*
X156758716Y-126340520D01*
X156870520Y-126228716D01*
X156870520Y-126228714D01*
X156880728Y-126218507D01*
X156880729Y-126218504D01*
X158764662Y-124334572D01*
X158825983Y-124301089D01*
X158828150Y-124300638D01*
X158886085Y-124289113D01*
X158983497Y-124269737D01*
X159129179Y-124209394D01*
X159260289Y-124121789D01*
X159371789Y-124010289D01*
X159459394Y-123879179D01*
X159519737Y-123733497D01*
X159550500Y-123578842D01*
X159550500Y-123421158D01*
X159550500Y-123421155D01*
X159550499Y-123421153D01*
X159519738Y-123266510D01*
X159519738Y-123266508D01*
X159519737Y-123266503D01*
X159499395Y-123217394D01*
X159491927Y-123147928D01*
X159523202Y-123085449D01*
X159583290Y-123049796D01*
X159589766Y-123048327D01*
X159733497Y-123019737D01*
X159879179Y-122959394D01*
X160010289Y-122871789D01*
X160121789Y-122760289D01*
X160145227Y-122725210D01*
X160198838Y-122680405D01*
X160268163Y-122671696D01*
X160331191Y-122701850D01*
X160355363Y-122735439D01*
X160356661Y-122734672D01*
X160360631Y-122741386D01*
X160360632Y-122741387D01*
X160398518Y-122805450D01*
X160439792Y-122875240D01*
X160439798Y-122875248D01*
X160549751Y-122985201D01*
X160549755Y-122985204D01*
X160549757Y-122985206D01*
X160683613Y-123064368D01*
X160722994Y-123075809D01*
X160832944Y-123107753D01*
X160832947Y-123107753D01*
X160832949Y-123107754D01*
X160867841Y-123110500D01*
X163262158Y-123110499D01*
X163297051Y-123107754D01*
X163446387Y-123064368D01*
X163580243Y-122985206D01*
X163690206Y-122875243D01*
X163769368Y-122741387D01*
X163812754Y-122592051D01*
X163815500Y-122557159D01*
X163815499Y-120487371D01*
X163835184Y-120420333D01*
X163887987Y-120374578D01*
X163957146Y-120364634D01*
X164008390Y-120384270D01*
X164120814Y-120459390D01*
X164120827Y-120459397D01*
X164194013Y-120489711D01*
X164266503Y-120519737D01*
X164421153Y-120550499D01*
X164421156Y-120550500D01*
X164421158Y-120550500D01*
X164578844Y-120550500D01*
X164578845Y-120550499D01*
X164733497Y-120519737D01*
X164879179Y-120459394D01*
X165006609Y-120374248D01*
X165073286Y-120353370D01*
X165140666Y-120371854D01*
X165187357Y-120423833D01*
X165199500Y-120477350D01*
X165199500Y-123827846D01*
X165179815Y-123894885D01*
X165163181Y-123915527D01*
X164027180Y-125051528D01*
X163965857Y-125085013D01*
X163896165Y-125080029D01*
X163840232Y-125038157D01*
X163815815Y-124972693D01*
X163815499Y-124963847D01*
X163815499Y-124762853D01*
X163815498Y-124762828D01*
X163815225Y-124759370D01*
X163812754Y-124727949D01*
X163769368Y-124578613D01*
X163690206Y-124444757D01*
X163690204Y-124444755D01*
X163690201Y-124444751D01*
X163580248Y-124334798D01*
X163580240Y-124334792D01*
X163446387Y-124255632D01*
X163446382Y-124255630D01*
X163297055Y-124212246D01*
X163297049Y-124212245D01*
X163262159Y-124209500D01*
X160867853Y-124209500D01*
X160867828Y-124209501D01*
X160832948Y-124212246D01*
X160683617Y-124255630D01*
X160683612Y-124255632D01*
X160549759Y-124334792D01*
X160549751Y-124334798D01*
X160439798Y-124444751D01*
X160439792Y-124444759D01*
X160360632Y-124578612D01*
X160360630Y-124578617D01*
X160317246Y-124727944D01*
X160317245Y-124727950D01*
X160314500Y-124762833D01*
X160314500Y-126957146D01*
X160314501Y-126957171D01*
X160317246Y-126992051D01*
X160360630Y-127141382D01*
X160360632Y-127141387D01*
X160439792Y-127275240D01*
X160439798Y-127275248D01*
X160549751Y-127385201D01*
X160549755Y-127385204D01*
X160549757Y-127385206D01*
X160683613Y-127464368D01*
X160722994Y-127475809D01*
X160832944Y-127507753D01*
X160832947Y-127507753D01*
X160832949Y-127507754D01*
X160867841Y-127510500D01*
X163075500Y-127510499D01*
X163084185Y-127513049D01*
X163093147Y-127511761D01*
X163117187Y-127522739D01*
X163142539Y-127530184D01*
X163148466Y-127537024D01*
X163156703Y-127540786D01*
X163170990Y-127563018D01*
X163188294Y-127582987D01*
X163190581Y-127593502D01*
X163194477Y-127599564D01*
X163199500Y-127634499D01*
X163199500Y-127867059D01*
X163179815Y-127934098D01*
X163163181Y-127954740D01*
X157962680Y-133155240D01*
X157901357Y-133188725D01*
X157831665Y-133183741D01*
X157787318Y-133155240D01*
X157760289Y-133128211D01*
X157760288Y-133128210D01*
X157760287Y-133128209D01*
X157629185Y-133040609D01*
X157629176Y-133040604D01*
X157519202Y-132995052D01*
X157464799Y-132951211D01*
X157442734Y-132884917D01*
X157445037Y-132856303D01*
X157450500Y-132828842D01*
X157450500Y-132671158D01*
X157450500Y-132671155D01*
X157450499Y-132671153D01*
X157419738Y-132516510D01*
X157419738Y-132516508D01*
X157419737Y-132516503D01*
X157417653Y-132511471D01*
X157359397Y-132370827D01*
X157359390Y-132370814D01*
X157271789Y-132239711D01*
X157271786Y-132239707D01*
X157160292Y-132128213D01*
X157160288Y-132128210D01*
X157029185Y-132040609D01*
X157029172Y-132040602D01*
X156883501Y-131980264D01*
X156883489Y-131980261D01*
X156728845Y-131949500D01*
X156728842Y-131949500D01*
X156571158Y-131949500D01*
X156571155Y-131949500D01*
X156416510Y-131980261D01*
X156416498Y-131980264D01*
X156270827Y-132040602D01*
X156270814Y-132040609D01*
X156139711Y-132128210D01*
X156139707Y-132128213D01*
X156028213Y-132239707D01*
X156028210Y-132239711D01*
X155940609Y-132370814D01*
X155940602Y-132370827D01*
X155880264Y-132516498D01*
X155880261Y-132516508D01*
X155849361Y-132671850D01*
X155816976Y-132733761D01*
X155815425Y-132735339D01*
X154087083Y-134463681D01*
X154025760Y-134497166D01*
X153999402Y-134500000D01*
X140250000Y-134500000D01*
X140250000Y-140625500D01*
X140230315Y-140692539D01*
X140177511Y-140738294D01*
X140126000Y-140749500D01*
X137874500Y-140749500D01*
X137807461Y-140729815D01*
X137761706Y-140677011D01*
X137750500Y-140625500D01*
X137750500Y-139624000D01*
X137770185Y-139556961D01*
X137822989Y-139511206D01*
X137874500Y-139500000D01*
X137881080Y-139500000D01*
X137881094Y-139499999D01*
X138141009Y-139465779D01*
X138141020Y-139465777D01*
X138394255Y-139397924D01*
X138636471Y-139297595D01*
X138636482Y-139297590D01*
X138863528Y-139166503D01*
X139071519Y-139006907D01*
X139071526Y-139006901D01*
X139256901Y-138821526D01*
X139256907Y-138821519D01*
X139416503Y-138613528D01*
X139547590Y-138386482D01*
X139547595Y-138386471D01*
X139647924Y-138144255D01*
X139715778Y-137891016D01*
X139734345Y-137750000D01*
X138475985Y-137750000D01*
X138500000Y-137598377D01*
X138500000Y-137401623D01*
X138475985Y-137250000D01*
X139734345Y-137250000D01*
X139734345Y-137249999D01*
X139715778Y-137108983D01*
X139647924Y-136855744D01*
X139547595Y-136613528D01*
X139547590Y-136613517D01*
X139416503Y-136386471D01*
X139256907Y-136178480D01*
X139256901Y-136178473D01*
X139071526Y-135993098D01*
X139071519Y-135993092D01*
X138863528Y-135833496D01*
X138636482Y-135702409D01*
X138636465Y-135702401D01*
X138575288Y-135677061D01*
X138520884Y-135633220D01*
X138498819Y-135566926D01*
X138516098Y-135499227D01*
X138567235Y-135451616D01*
X138575288Y-135447939D01*
X138636465Y-135422598D01*
X138636482Y-135422590D01*
X138863528Y-135291503D01*
X139071519Y-135131907D01*
X139071526Y-135131901D01*
X139256901Y-134946526D01*
X139256907Y-134946519D01*
X139416503Y-134738528D01*
X139547590Y-134511482D01*
X139547595Y-134511471D01*
X139647924Y-134269255D01*
X139715778Y-134016016D01*
X139734345Y-133875000D01*
X138475985Y-133875000D01*
X138500000Y-133723377D01*
X138500000Y-133526623D01*
X138475985Y-133375000D01*
X139734345Y-133375000D01*
X139734345Y-133374999D01*
X139715778Y-133233983D01*
X139647924Y-132980744D01*
X139547595Y-132738528D01*
X139547590Y-132738517D01*
X139416503Y-132511471D01*
X139256907Y-132303480D01*
X139256901Y-132303473D01*
X139071526Y-132118098D01*
X139071519Y-132118092D01*
X138863528Y-131958496D01*
X138636482Y-131827409D01*
X138636465Y-131827401D01*
X138575288Y-131802061D01*
X138520884Y-131758220D01*
X138498819Y-131691926D01*
X138516098Y-131624227D01*
X138567235Y-131576616D01*
X138575288Y-131572939D01*
X138636465Y-131547598D01*
X138636482Y-131547590D01*
X138863528Y-131416503D01*
X139071519Y-131256907D01*
X139071526Y-131256901D01*
X139256901Y-131071526D01*
X139256907Y-131071519D01*
X139416503Y-130863528D01*
X139547590Y-130636482D01*
X139547595Y-130636471D01*
X139647924Y-130394255D01*
X139715778Y-130141016D01*
X139734345Y-130000000D01*
X138475985Y-130000000D01*
X138500000Y-129848377D01*
X138500000Y-129651623D01*
X138475985Y-129500000D01*
X139734345Y-129500000D01*
X139734345Y-129499999D01*
X139715778Y-129358983D01*
X139647924Y-129105744D01*
X139547595Y-128863528D01*
X139547590Y-128863517D01*
X139416503Y-128636471D01*
X139256907Y-128428480D01*
X139256901Y-128428473D01*
X139071526Y-128243098D01*
X139071519Y-128243092D01*
X138863528Y-128083496D01*
X138636482Y-127952409D01*
X138636471Y-127952404D01*
X138394255Y-127852075D01*
X138141020Y-127784222D01*
X138141009Y-127784220D01*
X137881094Y-127750000D01*
X137874500Y-127750000D01*
X137807461Y-127730315D01*
X137761706Y-127677511D01*
X137750500Y-127626000D01*
X137750500Y-100671153D01*
X138199500Y-100671153D01*
X138199500Y-100828846D01*
X138230261Y-100983489D01*
X138230264Y-100983501D01*
X138290602Y-101129172D01*
X138290609Y-101129185D01*
X138378210Y-101260288D01*
X138378213Y-101260292D01*
X138489707Y-101371786D01*
X138489711Y-101371789D01*
X138620814Y-101459390D01*
X138620827Y-101459397D01*
X138694013Y-101489711D01*
X138766503Y-101519737D01*
X138887269Y-101543759D01*
X138921153Y-101550499D01*
X138921156Y-101550500D01*
X138921158Y-101550500D01*
X139078844Y-101550500D01*
X139078845Y-101550499D01*
X139233497Y-101519737D01*
X139305987Y-101489711D01*
X139378048Y-101459863D01*
X139447517Y-101452394D01*
X139509996Y-101483669D01*
X139545648Y-101543759D01*
X139549500Y-101574424D01*
X139549500Y-104925575D01*
X139529815Y-104992614D01*
X139477011Y-105038369D01*
X139407853Y-105048313D01*
X139378048Y-105040137D01*
X139328792Y-105019735D01*
X139233497Y-104980263D01*
X139233492Y-104980262D01*
X139233489Y-104980261D01*
X139078845Y-104949500D01*
X139078842Y-104949500D01*
X138921158Y-104949500D01*
X138921155Y-104949500D01*
X138766510Y-104980261D01*
X138766498Y-104980264D01*
X138620827Y-105040602D01*
X138620814Y-105040609D01*
X138489711Y-105128210D01*
X138489707Y-105128213D01*
X138378213Y-105239707D01*
X138378210Y-105239711D01*
X138290609Y-105370814D01*
X138290602Y-105370827D01*
X138230264Y-105516498D01*
X138230261Y-105516510D01*
X138199500Y-105671153D01*
X138199500Y-105828846D01*
X138230261Y-105983489D01*
X138230264Y-105983501D01*
X138290602Y-106129172D01*
X138290609Y-106129185D01*
X138378210Y-106260288D01*
X138378213Y-106260292D01*
X138489707Y-106371786D01*
X138489711Y-106371789D01*
X138620814Y-106459390D01*
X138620827Y-106459397D01*
X138758695Y-106516503D01*
X138766503Y-106519737D01*
X138887269Y-106543759D01*
X138921153Y-106550499D01*
X138921156Y-106550500D01*
X138921158Y-106550500D01*
X139078844Y-106550500D01*
X139078845Y-106550499D01*
X139233497Y-106519737D01*
X139320574Y-106483669D01*
X139378048Y-106459863D01*
X139447517Y-106452394D01*
X139509996Y-106483669D01*
X139545648Y-106543759D01*
X139549500Y-106574424D01*
X139549500Y-110175575D01*
X139529815Y-110242614D01*
X139477011Y-110288369D01*
X139407853Y-110298313D01*
X139378048Y-110290137D01*
X139317751Y-110265162D01*
X139233497Y-110230263D01*
X139233492Y-110230262D01*
X139233489Y-110230261D01*
X139078845Y-110199500D01*
X139078842Y-110199500D01*
X138921158Y-110199500D01*
X138921155Y-110199500D01*
X138766510Y-110230261D01*
X138766498Y-110230264D01*
X138620827Y-110290602D01*
X138620814Y-110290609D01*
X138489711Y-110378210D01*
X138489707Y-110378213D01*
X138378213Y-110489707D01*
X138378210Y-110489711D01*
X138290609Y-110620814D01*
X138290602Y-110620827D01*
X138230264Y-110766498D01*
X138230261Y-110766510D01*
X138199500Y-110921153D01*
X138199500Y-111078846D01*
X138230261Y-111233489D01*
X138230264Y-111233501D01*
X138290602Y-111379172D01*
X138290609Y-111379185D01*
X138378210Y-111510288D01*
X138378213Y-111510292D01*
X138489707Y-111621786D01*
X138489711Y-111621789D01*
X138620814Y-111709390D01*
X138620827Y-111709397D01*
X138766498Y-111769735D01*
X138766503Y-111769737D01*
X138921153Y-111800499D01*
X138921156Y-111800500D01*
X138921158Y-111800500D01*
X139078844Y-111800500D01*
X139078845Y-111800499D01*
X139233497Y-111769737D01*
X139320574Y-111733669D01*
X139378048Y-111709863D01*
X139447517Y-111702394D01*
X139509996Y-111733669D01*
X139545648Y-111793759D01*
X139549500Y-111824424D01*
X139549500Y-117258330D01*
X139549499Y-117258348D01*
X139549499Y-117424054D01*
X139549498Y-117424054D01*
X139561656Y-117469427D01*
X139590423Y-117576785D01*
X139590424Y-117576787D01*
X139590423Y-117576787D01*
X139603538Y-117599501D01*
X139603539Y-117599503D01*
X139669475Y-117713709D01*
X139669481Y-117713717D01*
X139788349Y-117832585D01*
X139788355Y-117832590D01*
X142478181Y-120522416D01*
X142511666Y-120583739D01*
X142514500Y-120610097D01*
X142514500Y-122557146D01*
X142514501Y-122557171D01*
X142517246Y-122592051D01*
X142560630Y-122741382D01*
X142560632Y-122741387D01*
X142639792Y-122875240D01*
X142639798Y-122875248D01*
X142749751Y-122985201D01*
X142749755Y-122985204D01*
X142749757Y-122985206D01*
X142883613Y-123064368D01*
X142922994Y-123075809D01*
X143032944Y-123107753D01*
X143032947Y-123107753D01*
X143032949Y-123107754D01*
X143067841Y-123110500D01*
X145462158Y-123110499D01*
X145497051Y-123107754D01*
X145646387Y-123064368D01*
X145780243Y-122985206D01*
X145890206Y-122875243D01*
X145969368Y-122741387D01*
X146012754Y-122592051D01*
X146015500Y-122557159D01*
X146015499Y-121446939D01*
X146035184Y-121379901D01*
X146087987Y-121334146D01*
X146157146Y-121324202D01*
X146220702Y-121353227D01*
X146227180Y-121359259D01*
X146239707Y-121371786D01*
X146239711Y-121371789D01*
X146370814Y-121459390D01*
X146370827Y-121459397D01*
X146487812Y-121507853D01*
X146516503Y-121519737D01*
X146671153Y-121550499D01*
X146671156Y-121550500D01*
X146671158Y-121550500D01*
X146828844Y-121550500D01*
X146828845Y-121550499D01*
X146983497Y-121519737D01*
X147129179Y-121459394D01*
X147260289Y-121371789D01*
X147371789Y-121260289D01*
X147459394Y-121129179D01*
X147519737Y-120983497D01*
X147550500Y-120828842D01*
X147550500Y-120671158D01*
X147550500Y-120671155D01*
X147550499Y-120671153D01*
X147533111Y-120583739D01*
X147519737Y-120516503D01*
X147519735Y-120516498D01*
X147459397Y-120370827D01*
X147459390Y-120370814D01*
X147371789Y-120239711D01*
X147371786Y-120239707D01*
X147260292Y-120128213D01*
X147260288Y-120128210D01*
X147129185Y-120040609D01*
X147129172Y-120040602D01*
X146983501Y-119980264D01*
X146983489Y-119980261D01*
X146828845Y-119949500D01*
X146828842Y-119949500D01*
X146671158Y-119949500D01*
X146671155Y-119949500D01*
X146516510Y-119980261D01*
X146516498Y-119980264D01*
X146370827Y-120040602D01*
X146370814Y-120040609D01*
X146239711Y-120128210D01*
X146164140Y-120203781D01*
X146102816Y-120237265D01*
X146033125Y-120232280D01*
X145977191Y-120190409D01*
X145969727Y-120179220D01*
X145890208Y-120044760D01*
X145890201Y-120044751D01*
X145780248Y-119934798D01*
X145780240Y-119934792D01*
X145646387Y-119855632D01*
X145646382Y-119855630D01*
X145497055Y-119812246D01*
X145497049Y-119812245D01*
X145462166Y-119809500D01*
X145462159Y-119809500D01*
X143515097Y-119809500D01*
X143448058Y-119789815D01*
X143427416Y-119773181D01*
X140786819Y-117132584D01*
X140753334Y-117071261D01*
X140750500Y-117044903D01*
X140750500Y-114694097D01*
X140770185Y-114627058D01*
X140822989Y-114581303D01*
X140892147Y-114571359D01*
X140955703Y-114600384D01*
X140962181Y-114606416D01*
X142478181Y-116122416D01*
X142511666Y-116183739D01*
X142514500Y-116210097D01*
X142514500Y-118157146D01*
X142514501Y-118157171D01*
X142517246Y-118192051D01*
X142560630Y-118341382D01*
X142560632Y-118341387D01*
X142639792Y-118475240D01*
X142639798Y-118475248D01*
X142749751Y-118585201D01*
X142749755Y-118585204D01*
X142749757Y-118585206D01*
X142883613Y-118664368D01*
X142922994Y-118675809D01*
X143032944Y-118707753D01*
X143032947Y-118707753D01*
X143032949Y-118707754D01*
X143067841Y-118710500D01*
X145462158Y-118710499D01*
X145497051Y-118707754D01*
X145646387Y-118664368D01*
X145780243Y-118585206D01*
X145890206Y-118475243D01*
X145969368Y-118341387D01*
X146012754Y-118192051D01*
X146015500Y-118157159D01*
X146015499Y-116421153D01*
X149949500Y-116421153D01*
X149949500Y-116578846D01*
X149980261Y-116733489D01*
X149980264Y-116733501D01*
X150040602Y-116879172D01*
X150040609Y-116879185D01*
X150128210Y-117010288D01*
X150128213Y-117010292D01*
X150239707Y-117121786D01*
X150239711Y-117121789D01*
X150370814Y-117209390D01*
X150370827Y-117209397D01*
X150489007Y-117258348D01*
X150516503Y-117269737D01*
X150671153Y-117300499D01*
X150671156Y-117300500D01*
X150671158Y-117300500D01*
X150828844Y-117300500D01*
X150828845Y-117300499D01*
X150983497Y-117269737D01*
X151129179Y-117209394D01*
X151260289Y-117121789D01*
X151371789Y-117010289D01*
X151459394Y-116879179D01*
X151519737Y-116733497D01*
X151550500Y-116578842D01*
X151550500Y-116421158D01*
X151550500Y-116421155D01*
X151550499Y-116421153D01*
X151519738Y-116266510D01*
X151519737Y-116266503D01*
X151496373Y-116210097D01*
X151459397Y-116120827D01*
X151459390Y-116120814D01*
X151371789Y-115989711D01*
X151371786Y-115989707D01*
X151260292Y-115878213D01*
X151260288Y-115878210D01*
X151129185Y-115790609D01*
X151129172Y-115790602D01*
X150983501Y-115730264D01*
X150983489Y-115730261D01*
X150828845Y-115699500D01*
X150828842Y-115699500D01*
X150671158Y-115699500D01*
X150671155Y-115699500D01*
X150516510Y-115730261D01*
X150516498Y-115730264D01*
X150370827Y-115790602D01*
X150370814Y-115790609D01*
X150239711Y-115878210D01*
X150239707Y-115878213D01*
X150128213Y-115989707D01*
X150128210Y-115989711D01*
X150040609Y-116120814D01*
X150040602Y-116120827D01*
X149980264Y-116266498D01*
X149980261Y-116266510D01*
X149949500Y-116421153D01*
X146015499Y-116421153D01*
X146015499Y-115962842D01*
X146012754Y-115927949D01*
X145969368Y-115778613D01*
X145890206Y-115644757D01*
X145890204Y-115644755D01*
X145890201Y-115644751D01*
X145780248Y-115534798D01*
X145780240Y-115534792D01*
X145646387Y-115455632D01*
X145646382Y-115455630D01*
X145497055Y-115412246D01*
X145497049Y-115412245D01*
X145462166Y-115409500D01*
X145462159Y-115409500D01*
X143515098Y-115409500D01*
X143448059Y-115389815D01*
X143427417Y-115373181D01*
X141386819Y-113332583D01*
X141353334Y-113271260D01*
X141350500Y-113244902D01*
X141350500Y-111562833D01*
X142514500Y-111562833D01*
X142514500Y-113757146D01*
X142514501Y-113757171D01*
X142517246Y-113792051D01*
X142560630Y-113941382D01*
X142560632Y-113941387D01*
X142639792Y-114075240D01*
X142639798Y-114075248D01*
X142749751Y-114185201D01*
X142749755Y-114185204D01*
X142749757Y-114185206D01*
X142883613Y-114264368D01*
X142901209Y-114269480D01*
X143032944Y-114307753D01*
X143032947Y-114307753D01*
X143032949Y-114307754D01*
X143067841Y-114310500D01*
X145462158Y-114310499D01*
X145497051Y-114307754D01*
X145646387Y-114264368D01*
X145780243Y-114185206D01*
X145890206Y-114075243D01*
X145969368Y-113941387D01*
X146012754Y-113792051D01*
X146015500Y-113757159D01*
X146015499Y-111562842D01*
X146012754Y-111527949D01*
X145969368Y-111378613D01*
X145890206Y-111244757D01*
X145890204Y-111244755D01*
X145890201Y-111244751D01*
X145780248Y-111134798D01*
X145780240Y-111134792D01*
X145646387Y-111055632D01*
X145646382Y-111055630D01*
X145497055Y-111012246D01*
X145497049Y-111012245D01*
X145462159Y-111009500D01*
X143067853Y-111009500D01*
X143067828Y-111009501D01*
X143032948Y-111012246D01*
X142883617Y-111055630D01*
X142883612Y-111055632D01*
X142749759Y-111134792D01*
X142749751Y-111134798D01*
X142639798Y-111244751D01*
X142639792Y-111244759D01*
X142560632Y-111378612D01*
X142560630Y-111378617D01*
X142517246Y-111527944D01*
X142517245Y-111527950D01*
X142514500Y-111562833D01*
X141350500Y-111562833D01*
X141350500Y-107162833D01*
X142514500Y-107162833D01*
X142514500Y-109357146D01*
X142514501Y-109357171D01*
X142517246Y-109392051D01*
X142560630Y-109541382D01*
X142560632Y-109541387D01*
X142639792Y-109675240D01*
X142639798Y-109675248D01*
X142749751Y-109785201D01*
X142749755Y-109785204D01*
X142749757Y-109785206D01*
X142883613Y-109864368D01*
X142922994Y-109875809D01*
X143032944Y-109907753D01*
X143032947Y-109907753D01*
X143032949Y-109907754D01*
X143067841Y-109910500D01*
X145462158Y-109910499D01*
X145497051Y-109907754D01*
X145646387Y-109864368D01*
X145780243Y-109785206D01*
X145890206Y-109675243D01*
X145969368Y-109541387D01*
X146012754Y-109392051D01*
X146015500Y-109357159D01*
X146015499Y-107664863D01*
X146035184Y-107597825D01*
X146087987Y-107552070D01*
X146115308Y-107543247D01*
X146174202Y-107531531D01*
X146233497Y-107519737D01*
X146379179Y-107459394D01*
X146510289Y-107371789D01*
X146621789Y-107260289D01*
X146709394Y-107129179D01*
X146709904Y-107127949D01*
X146769735Y-106983501D01*
X146769737Y-106983497D01*
X146800500Y-106828842D01*
X146800500Y-106671158D01*
X146800500Y-106671155D01*
X146800499Y-106671153D01*
X146790766Y-106622222D01*
X146769737Y-106516503D01*
X146746080Y-106459390D01*
X146709397Y-106370827D01*
X146709390Y-106370814D01*
X146621789Y-106239711D01*
X146621786Y-106239707D01*
X146510292Y-106128213D01*
X146510288Y-106128210D01*
X146379185Y-106040609D01*
X146379172Y-106040602D01*
X146233501Y-105980264D01*
X146233489Y-105980261D01*
X146078845Y-105949500D01*
X146078842Y-105949500D01*
X145921158Y-105949500D01*
X145921155Y-105949500D01*
X145766510Y-105980261D01*
X145766498Y-105980264D01*
X145620827Y-106040602D01*
X145620814Y-106040609D01*
X145489711Y-106128210D01*
X145489707Y-106128213D01*
X145378213Y-106239707D01*
X145378210Y-106239711D01*
X145290609Y-106370814D01*
X145290602Y-106370827D01*
X145230261Y-106516505D01*
X145228744Y-106521507D01*
X145190441Y-106579942D01*
X145126626Y-106608392D01*
X145110087Y-106609500D01*
X143067853Y-106609500D01*
X143067828Y-106609501D01*
X143032948Y-106612246D01*
X142883617Y-106655630D01*
X142883612Y-106655632D01*
X142749759Y-106734792D01*
X142749751Y-106734798D01*
X142639798Y-106844751D01*
X142639792Y-106844759D01*
X142560632Y-106978612D01*
X142560630Y-106978617D01*
X142517246Y-107127944D01*
X142517245Y-107127950D01*
X142514500Y-107162833D01*
X141350500Y-107162833D01*
X141350500Y-102579765D01*
X141370185Y-102512726D01*
X141371398Y-102510874D01*
X141459390Y-102379185D01*
X141459390Y-102379184D01*
X141459394Y-102379179D01*
X141519737Y-102233497D01*
X141550500Y-102078842D01*
X141550500Y-101921158D01*
X141550500Y-101921155D01*
X141550499Y-101921153D01*
X141519738Y-101766510D01*
X141519737Y-101766503D01*
X141519735Y-101766498D01*
X141459397Y-101620827D01*
X141459390Y-101620814D01*
X141371789Y-101489711D01*
X141371786Y-101489707D01*
X141260292Y-101378213D01*
X141260288Y-101378210D01*
X141129185Y-101290609D01*
X141129172Y-101290602D01*
X140983501Y-101230264D01*
X140983491Y-101230261D01*
X140850308Y-101203769D01*
X140788397Y-101171384D01*
X140753823Y-101110668D01*
X140750500Y-101082152D01*
X140750500Y-98167847D01*
X140770185Y-98100808D01*
X140822989Y-98055053D01*
X140850309Y-98046230D01*
X140866291Y-98043050D01*
X140983497Y-98019737D01*
X141129179Y-97959394D01*
X141260289Y-97871789D01*
X141371789Y-97760289D01*
X141459394Y-97629179D01*
X141463938Y-97618210D01*
X141519735Y-97483501D01*
X141519737Y-97483497D01*
X141550500Y-97328842D01*
X141550500Y-97171158D01*
X141550500Y-97171155D01*
X141550499Y-97171153D01*
X141531421Y-97075243D01*
X141519737Y-97016503D01*
X141519735Y-97016498D01*
X141459397Y-96870827D01*
X141459390Y-96870814D01*
X141371789Y-96739711D01*
X141371786Y-96739707D01*
X141260292Y-96628213D01*
X141260288Y-96628210D01*
X141129185Y-96540609D01*
X141129172Y-96540602D01*
X140983501Y-96480264D01*
X140983489Y-96480261D01*
X140828845Y-96449500D01*
X140828842Y-96449500D01*
X140671158Y-96449500D01*
X140671155Y-96449500D01*
X140516510Y-96480261D01*
X140516498Y-96480264D01*
X140370827Y-96540602D01*
X140370814Y-96540609D01*
X140239711Y-96628210D01*
X140239707Y-96628213D01*
X140128213Y-96739707D01*
X140128210Y-96739711D01*
X140040609Y-96870814D01*
X140040602Y-96870827D01*
X139980264Y-97016498D01*
X139980261Y-97016508D01*
X139949362Y-97171848D01*
X139940596Y-97188605D01*
X139936577Y-97207082D01*
X139917832Y-97232123D01*
X139916977Y-97233759D01*
X139915427Y-97235337D01*
X139855915Y-97294849D01*
X139781286Y-97369478D01*
X139781285Y-97369478D01*
X139781284Y-97369479D01*
X139669481Y-97481282D01*
X139669480Y-97481284D01*
X139630396Y-97548981D01*
X139619361Y-97568094D01*
X139619359Y-97568096D01*
X139590425Y-97618209D01*
X139590424Y-97618210D01*
X139578876Y-97661309D01*
X139549499Y-97770943D01*
X139549499Y-97770945D01*
X139549499Y-97939046D01*
X139549500Y-97939059D01*
X139549500Y-99925575D01*
X139529815Y-99992614D01*
X139477011Y-100038369D01*
X139407853Y-100048313D01*
X139378048Y-100040137D01*
X139330314Y-100020365D01*
X139233497Y-99980263D01*
X139233492Y-99980262D01*
X139233489Y-99980261D01*
X139078845Y-99949500D01*
X139078842Y-99949500D01*
X138921158Y-99949500D01*
X138921155Y-99949500D01*
X138766510Y-99980261D01*
X138766498Y-99980264D01*
X138620827Y-100040602D01*
X138620814Y-100040609D01*
X138489711Y-100128210D01*
X138489707Y-100128213D01*
X138378213Y-100239707D01*
X138378210Y-100239711D01*
X138290609Y-100370814D01*
X138290602Y-100370827D01*
X138230264Y-100516498D01*
X138230261Y-100516510D01*
X138199500Y-100671153D01*
X137750500Y-100671153D01*
X137750500Y-95921153D01*
X138199500Y-95921153D01*
X138199500Y-96078846D01*
X138230261Y-96233489D01*
X138230264Y-96233501D01*
X138290602Y-96379172D01*
X138290609Y-96379185D01*
X138378210Y-96510288D01*
X138378213Y-96510292D01*
X138489707Y-96621786D01*
X138489711Y-96621789D01*
X138620814Y-96709390D01*
X138620827Y-96709397D01*
X138766498Y-96769735D01*
X138766503Y-96769737D01*
X138921153Y-96800499D01*
X138921156Y-96800500D01*
X138921158Y-96800500D01*
X139078844Y-96800500D01*
X139078845Y-96800499D01*
X139233497Y-96769737D01*
X139379179Y-96709394D01*
X139510289Y-96621789D01*
X139621789Y-96510289D01*
X139709394Y-96379179D01*
X139769737Y-96233497D01*
X139800500Y-96078842D01*
X139800500Y-95921158D01*
X139800500Y-95921155D01*
X139800499Y-95921153D01*
X139769737Y-95766503D01*
X139721105Y-95649093D01*
X139709397Y-95620827D01*
X139709390Y-95620814D01*
X139621789Y-95489711D01*
X139621786Y-95489707D01*
X139510292Y-95378213D01*
X139510288Y-95378210D01*
X139379185Y-95290609D01*
X139379172Y-95290602D01*
X139233501Y-95230264D01*
X139233489Y-95230261D01*
X139078845Y-95199500D01*
X139078842Y-95199500D01*
X138921158Y-95199500D01*
X138921155Y-95199500D01*
X138766510Y-95230261D01*
X138766498Y-95230264D01*
X138620827Y-95290602D01*
X138620814Y-95290609D01*
X138489711Y-95378210D01*
X138489707Y-95378213D01*
X138378213Y-95489707D01*
X138378210Y-95489711D01*
X138290609Y-95620814D01*
X138290602Y-95620827D01*
X138230264Y-95766498D01*
X138230261Y-95766510D01*
X138199500Y-95921153D01*
X137750500Y-95921153D01*
X137750500Y-91921153D01*
X138199500Y-91921153D01*
X138199500Y-92078846D01*
X138230261Y-92233489D01*
X138230264Y-92233501D01*
X138290602Y-92379172D01*
X138290609Y-92379185D01*
X138378210Y-92510288D01*
X138378213Y-92510292D01*
X138489707Y-92621786D01*
X138489711Y-92621789D01*
X138620814Y-92709390D01*
X138620827Y-92709397D01*
X138766498Y-92769735D01*
X138766503Y-92769737D01*
X138921153Y-92800499D01*
X138921156Y-92800500D01*
X138921158Y-92800500D01*
X139078844Y-92800500D01*
X139078845Y-92800499D01*
X139233497Y-92769737D01*
X139379179Y-92709394D01*
X139510289Y-92621789D01*
X139621789Y-92510289D01*
X139709394Y-92379179D01*
X139769737Y-92233497D01*
X139800500Y-92078842D01*
X139800500Y-91921158D01*
X139800500Y-91921155D01*
X139800499Y-91921153D01*
X139783502Y-91835704D01*
X139769737Y-91766503D01*
X139741148Y-91697483D01*
X139709397Y-91620827D01*
X139709390Y-91620814D01*
X139621789Y-91489711D01*
X139621786Y-91489707D01*
X139510292Y-91378213D01*
X139510288Y-91378210D01*
X139379185Y-91290609D01*
X139379172Y-91290602D01*
X139233501Y-91230264D01*
X139233489Y-91230261D01*
X139078845Y-91199500D01*
X139078842Y-91199500D01*
X138921158Y-91199500D01*
X138921155Y-91199500D01*
X138766510Y-91230261D01*
X138766498Y-91230264D01*
X138620827Y-91290602D01*
X138620814Y-91290609D01*
X138489711Y-91378210D01*
X138489707Y-91378213D01*
X138378213Y-91489707D01*
X138378210Y-91489711D01*
X138290609Y-91620814D01*
X138290602Y-91620827D01*
X138230264Y-91766498D01*
X138230261Y-91766510D01*
X138199500Y-91921153D01*
X137750500Y-91921153D01*
X137750500Y-87921153D01*
X138199500Y-87921153D01*
X138199500Y-88078846D01*
X138230261Y-88233489D01*
X138230264Y-88233501D01*
X138290602Y-88379172D01*
X138290609Y-88379185D01*
X138378210Y-88510288D01*
X138378213Y-88510292D01*
X138489707Y-88621786D01*
X138489711Y-88621789D01*
X138620814Y-88709390D01*
X138620827Y-88709397D01*
X138766498Y-88769735D01*
X138766503Y-88769737D01*
X138921153Y-88800499D01*
X138921156Y-88800500D01*
X138921158Y-88800500D01*
X139078844Y-88800500D01*
X139078845Y-88800499D01*
X139233497Y-88769737D01*
X139357403Y-88718414D01*
X139379172Y-88709397D01*
X139379172Y-88709396D01*
X139379179Y-88709394D01*
X139510289Y-88621789D01*
X139621789Y-88510289D01*
X139709394Y-88379179D01*
X139769737Y-88233497D01*
X139800500Y-88078842D01*
X139800500Y-87921158D01*
X139800500Y-87921155D01*
X139800499Y-87921153D01*
X139793060Y-87883757D01*
X139769737Y-87766503D01*
X139758075Y-87738349D01*
X139709397Y-87620827D01*
X139709390Y-87620814D01*
X139621789Y-87489711D01*
X139621786Y-87489707D01*
X139510292Y-87378213D01*
X139510288Y-87378210D01*
X139379185Y-87290609D01*
X139379172Y-87290602D01*
X139233501Y-87230264D01*
X139233489Y-87230261D01*
X139078845Y-87199500D01*
X139078842Y-87199500D01*
X138921158Y-87199500D01*
X138921155Y-87199500D01*
X138766510Y-87230261D01*
X138766498Y-87230264D01*
X138620827Y-87290602D01*
X138620814Y-87290609D01*
X138489711Y-87378210D01*
X138489707Y-87378213D01*
X138378213Y-87489707D01*
X138378210Y-87489711D01*
X138290609Y-87620814D01*
X138290602Y-87620827D01*
X138230264Y-87766498D01*
X138230261Y-87766510D01*
X138199500Y-87921153D01*
X137750500Y-87921153D01*
X137750500Y-82400678D01*
X158988000Y-82400678D01*
X158988000Y-82599321D01*
X159019075Y-82795520D01*
X159019075Y-82795523D01*
X159080457Y-82984437D01*
X159170641Y-83161432D01*
X159197730Y-83198715D01*
X159197731Y-83198716D01*
X159869000Y-82527447D01*
X159869000Y-82550160D01*
X159894964Y-82647061D01*
X159945124Y-82733940D01*
X160016060Y-82804876D01*
X160102939Y-82855036D01*
X160199840Y-82881000D01*
X160222553Y-82881000D01*
X159551283Y-83552268D01*
X159551283Y-83552269D01*
X159588567Y-83579358D01*
X159765562Y-83669542D01*
X159954477Y-83730924D01*
X160150679Y-83762000D01*
X160349321Y-83762000D01*
X160545520Y-83730924D01*
X160545523Y-83730924D01*
X160734437Y-83669542D01*
X160911425Y-83579362D01*
X160948716Y-83552268D01*
X160277448Y-82881000D01*
X160300160Y-82881000D01*
X160397061Y-82855036D01*
X160483940Y-82804876D01*
X160554876Y-82733940D01*
X160605036Y-82647061D01*
X160631000Y-82550160D01*
X160631000Y-82527447D01*
X161302268Y-83198715D01*
X161329362Y-83161425D01*
X161419542Y-82984437D01*
X161480924Y-82795523D01*
X161480924Y-82795520D01*
X161512000Y-82599321D01*
X161512000Y-82400678D01*
X161480924Y-82204479D01*
X161480924Y-82204476D01*
X161419542Y-82015562D01*
X161329358Y-81838567D01*
X161302268Y-81801283D01*
X160631000Y-82472551D01*
X160631000Y-82449840D01*
X160605036Y-82352939D01*
X160554876Y-82266060D01*
X160483940Y-82195124D01*
X160397061Y-82144964D01*
X160300160Y-82119000D01*
X160277447Y-82119000D01*
X160948716Y-81447731D01*
X160948715Y-81447730D01*
X160911432Y-81420641D01*
X160734437Y-81330457D01*
X160545522Y-81269075D01*
X160349321Y-81238000D01*
X160150679Y-81238000D01*
X159954479Y-81269075D01*
X159954476Y-81269075D01*
X159765562Y-81330457D01*
X159588564Y-81420643D01*
X159551283Y-81447729D01*
X159551282Y-81447730D01*
X160222554Y-82119000D01*
X160199840Y-82119000D01*
X160102939Y-82144964D01*
X160016060Y-82195124D01*
X159945124Y-82266060D01*
X159894964Y-82352939D01*
X159869000Y-82449840D01*
X159869000Y-82472552D01*
X159197730Y-81801282D01*
X159197729Y-81801283D01*
X159170643Y-81838564D01*
X159080457Y-82015562D01*
X159019075Y-82204476D01*
X159019075Y-82204479D01*
X158988000Y-82400678D01*
X137750500Y-82400678D01*
X137750500Y-81421153D01*
X138949500Y-81421153D01*
X138949500Y-81578846D01*
X138980261Y-81733489D01*
X138980264Y-81733501D01*
X139040602Y-81879172D01*
X139040609Y-81879185D01*
X139128210Y-82010288D01*
X139128213Y-82010292D01*
X139239707Y-82121786D01*
X139239711Y-82121789D01*
X139370814Y-82209390D01*
X139370827Y-82209397D01*
X139507626Y-82266060D01*
X139516503Y-82269737D01*
X139671153Y-82300499D01*
X139671156Y-82300500D01*
X139671158Y-82300500D01*
X139828844Y-82300500D01*
X139961117Y-82274189D01*
X139961117Y-82274188D01*
X139983497Y-82269737D01*
X140129179Y-82209394D01*
X140260289Y-82121789D01*
X140580796Y-81801282D01*
X140974770Y-81407309D01*
X143710925Y-78671153D01*
X150949500Y-78671153D01*
X150949500Y-78828846D01*
X150980261Y-78983489D01*
X150980264Y-78983501D01*
X151040602Y-79129172D01*
X151040609Y-79129185D01*
X151128210Y-79260288D01*
X151128213Y-79260292D01*
X151239707Y-79371786D01*
X151239711Y-79371789D01*
X151370814Y-79459390D01*
X151370827Y-79459397D01*
X151516498Y-79519735D01*
X151516503Y-79519737D01*
X151671153Y-79550499D01*
X151671156Y-79550500D01*
X151671158Y-79550500D01*
X151828844Y-79550500D01*
X151828845Y-79550499D01*
X151983497Y-79519737D01*
X152129179Y-79459394D01*
X152260289Y-79371789D01*
X152371789Y-79260289D01*
X152459394Y-79129179D01*
X152519737Y-78983497D01*
X152550500Y-78828842D01*
X152550500Y-78671158D01*
X152550500Y-78671155D01*
X152550499Y-78671153D01*
X152519738Y-78516510D01*
X152519737Y-78516503D01*
X152519735Y-78516498D01*
X152459397Y-78370827D01*
X152459390Y-78370814D01*
X152371789Y-78239711D01*
X152371786Y-78239707D01*
X152260292Y-78128213D01*
X152260288Y-78128210D01*
X152129185Y-78040609D01*
X152129172Y-78040602D01*
X151983501Y-77980264D01*
X151983489Y-77980261D01*
X151828845Y-77949500D01*
X151828842Y-77949500D01*
X151671158Y-77949500D01*
X151671155Y-77949500D01*
X151516510Y-77980261D01*
X151516498Y-77980264D01*
X151370827Y-78040602D01*
X151370814Y-78040609D01*
X151239711Y-78128210D01*
X151239707Y-78128213D01*
X151128213Y-78239707D01*
X151128210Y-78239711D01*
X151040609Y-78370814D01*
X151040602Y-78370827D01*
X150980264Y-78516498D01*
X150980261Y-78516510D01*
X150949500Y-78671153D01*
X143710925Y-78671153D01*
X143804693Y-78577385D01*
X146795259Y-75586819D01*
X146856582Y-75553334D01*
X146882940Y-75550500D01*
X151828844Y-75550500D01*
X151828845Y-75550499D01*
X151983497Y-75519737D01*
X152129179Y-75459394D01*
X152260289Y-75371789D01*
X152371789Y-75260289D01*
X152459394Y-75129179D01*
X152519737Y-74983497D01*
X152550500Y-74828842D01*
X152550500Y-74671158D01*
X152550500Y-74671155D01*
X152550499Y-74671153D01*
X152519738Y-74516510D01*
X152519737Y-74516503D01*
X152519735Y-74516498D01*
X152459397Y-74370827D01*
X152459390Y-74370814D01*
X152371789Y-74239711D01*
X152371786Y-74239707D01*
X152260292Y-74128213D01*
X152260288Y-74128210D01*
X152129185Y-74040609D01*
X152129172Y-74040602D01*
X151983501Y-73980264D01*
X151983489Y-73980261D01*
X151828845Y-73949500D01*
X151828842Y-73949500D01*
X151272222Y-73949500D01*
X151205183Y-73929815D01*
X151159428Y-73877011D01*
X151150500Y-73814922D01*
X151149844Y-73814871D01*
X151150073Y-73811953D01*
X151149484Y-73807853D01*
X151150586Y-73805439D01*
X151154328Y-73757882D01*
X150546447Y-73150000D01*
X150552661Y-73150000D01*
X150654394Y-73122741D01*
X150745606Y-73070080D01*
X150820080Y-72995606D01*
X150872741Y-72904394D01*
X150900000Y-72802661D01*
X150900000Y-72796446D01*
X151507882Y-73404328D01*
X151507883Y-73404328D01*
X151526331Y-73378937D01*
X151612085Y-73210637D01*
X151670451Y-73031002D01*
X151700000Y-72844447D01*
X151700000Y-72655552D01*
X151670451Y-72468997D01*
X151612085Y-72289362D01*
X151526329Y-72121059D01*
X151507883Y-72095670D01*
X151507882Y-72095669D01*
X150900000Y-72703552D01*
X150900000Y-72697339D01*
X150872741Y-72595606D01*
X150820080Y-72504394D01*
X150745606Y-72429920D01*
X150654394Y-72377259D01*
X150552661Y-72350000D01*
X150546447Y-72350000D01*
X151154328Y-71742116D01*
X151128933Y-71723666D01*
X150960637Y-71637914D01*
X150781002Y-71579548D01*
X150594447Y-71550000D01*
X150405553Y-71550000D01*
X150218997Y-71579548D01*
X150039362Y-71637914D01*
X149871060Y-71723669D01*
X149845670Y-71742116D01*
X149845669Y-71742116D01*
X150453554Y-72350000D01*
X150447339Y-72350000D01*
X150345606Y-72377259D01*
X150254394Y-72429920D01*
X150179920Y-72504394D01*
X150127259Y-72595606D01*
X150100000Y-72697339D01*
X150100000Y-72703553D01*
X149492116Y-72095669D01*
X149492116Y-72095670D01*
X149473669Y-72121060D01*
X149387914Y-72289362D01*
X149329548Y-72468997D01*
X149300000Y-72655552D01*
X149300000Y-72844447D01*
X149329548Y-73031002D01*
X149387914Y-73210637D01*
X149473666Y-73378933D01*
X149492116Y-73404328D01*
X150100000Y-72796445D01*
X150100000Y-72802661D01*
X150127259Y-72904394D01*
X150179920Y-72995606D01*
X150254394Y-73070080D01*
X150345606Y-73122741D01*
X150447339Y-73150000D01*
X150453554Y-73150000D01*
X149845669Y-73757882D01*
X149850155Y-73814872D01*
X149846302Y-73815175D01*
X149849301Y-73850142D01*
X149816686Y-73911933D01*
X149755843Y-73946281D01*
X149727774Y-73949500D01*
X146421153Y-73949500D01*
X146266510Y-73980260D01*
X146266502Y-73980262D01*
X146120824Y-74040604D01*
X146120816Y-74040608D01*
X146055138Y-74084493D01*
X145988461Y-74105370D01*
X145921080Y-74086885D01*
X145874391Y-74034906D01*
X145863215Y-73965936D01*
X145868314Y-73943080D01*
X145920940Y-73781118D01*
X145924620Y-73757882D01*
X145950500Y-73594486D01*
X145950500Y-73405513D01*
X145920940Y-73218881D01*
X145889702Y-73122741D01*
X145862547Y-73039168D01*
X145862545Y-73039165D01*
X145862545Y-73039163D01*
X145784859Y-72886697D01*
X145776760Y-72870801D01*
X145665690Y-72717927D01*
X145532073Y-72584310D01*
X145379199Y-72473240D01*
X145370872Y-72468997D01*
X145210836Y-72387454D01*
X145031118Y-72329059D01*
X144844486Y-72299500D01*
X144844481Y-72299500D01*
X144655519Y-72299500D01*
X144655514Y-72299500D01*
X144468881Y-72329059D01*
X144289163Y-72387454D01*
X144120800Y-72473240D01*
X144077921Y-72504394D01*
X143967927Y-72584310D01*
X143967925Y-72584312D01*
X143967924Y-72584312D01*
X143834312Y-72717924D01*
X143834312Y-72717925D01*
X143834310Y-72717927D01*
X143786610Y-72783579D01*
X143723240Y-72870800D01*
X143637454Y-73039163D01*
X143579059Y-73218881D01*
X143549500Y-73405513D01*
X143549500Y-73594486D01*
X143579059Y-73781118D01*
X143637454Y-73960836D01*
X143720846Y-74124500D01*
X143723240Y-74129199D01*
X143834310Y-74282073D01*
X143967927Y-74415690D01*
X144120801Y-74526760D01*
X144200347Y-74567290D01*
X144289163Y-74612545D01*
X144289165Y-74612545D01*
X144289168Y-74612547D01*
X144337934Y-74628392D01*
X144468881Y-74670940D01*
X144655514Y-74700500D01*
X144655519Y-74700500D01*
X144844486Y-74700500D01*
X144977793Y-74679385D01*
X145031118Y-74670940D01*
X145155923Y-74630387D01*
X145225761Y-74628392D01*
X145285594Y-74664472D01*
X145316423Y-74727173D01*
X145308459Y-74796587D01*
X145281920Y-74836000D01*
X139128213Y-80989707D01*
X139128210Y-80989711D01*
X139040609Y-81120814D01*
X139040602Y-81120827D01*
X138980264Y-81266498D01*
X138980261Y-81266510D01*
X138949500Y-81421153D01*
X137750500Y-81421153D01*
X137750500Y-74124500D01*
X137770185Y-74057461D01*
X137822989Y-74011706D01*
X137874500Y-74000500D01*
X137881113Y-74000500D01*
X137881120Y-74000500D01*
X138141116Y-73966270D01*
X138394419Y-73898398D01*
X138636697Y-73798043D01*
X138863803Y-73666924D01*
X139071851Y-73507282D01*
X139071855Y-73507277D01*
X139071860Y-73507274D01*
X139257274Y-73321860D01*
X139257277Y-73321855D01*
X139257282Y-73321851D01*
X139416924Y-73113803D01*
X139548043Y-72886697D01*
X139648398Y-72644419D01*
X139716270Y-72391116D01*
X139750500Y-72131120D01*
X139750500Y-71868880D01*
X139721681Y-71649986D01*
X141250001Y-71649986D01*
X141260494Y-71752697D01*
X141315641Y-71919119D01*
X141315643Y-71919124D01*
X141407684Y-72068345D01*
X141531654Y-72192315D01*
X141680875Y-72284356D01*
X141680880Y-72284358D01*
X141847302Y-72339505D01*
X141847309Y-72339506D01*
X141950019Y-72349999D01*
X142174999Y-72349999D01*
X142675000Y-72349999D01*
X142899972Y-72349999D01*
X142899986Y-72349998D01*
X143002697Y-72339505D01*
X143169119Y-72284358D01*
X143169124Y-72284356D01*
X143318345Y-72192315D01*
X143442315Y-72068345D01*
X143534356Y-71919124D01*
X143534358Y-71919119D01*
X143589505Y-71752697D01*
X143589506Y-71752690D01*
X143599999Y-71649986D01*
X146900001Y-71649986D01*
X146910494Y-71752697D01*
X146965641Y-71919119D01*
X146965643Y-71919124D01*
X147057684Y-72068345D01*
X147181654Y-72192315D01*
X147330875Y-72284356D01*
X147330880Y-72284358D01*
X147497302Y-72339505D01*
X147497309Y-72339506D01*
X147600019Y-72349999D01*
X147824999Y-72349999D01*
X148325000Y-72349999D01*
X148549972Y-72349999D01*
X148549986Y-72349998D01*
X148652697Y-72339505D01*
X148819119Y-72284358D01*
X148819124Y-72284356D01*
X148968345Y-72192315D01*
X149092315Y-72068345D01*
X149184356Y-71919124D01*
X149184358Y-71919119D01*
X149239505Y-71752697D01*
X149239506Y-71752690D01*
X149249999Y-71649986D01*
X149250000Y-71649973D01*
X149250000Y-70250000D01*
X148325000Y-70250000D01*
X148325000Y-72349999D01*
X147824999Y-72349999D01*
X147825000Y-72349998D01*
X147825000Y-70250000D01*
X146900001Y-70250000D01*
X146900001Y-71649986D01*
X143599999Y-71649986D01*
X143600000Y-71649973D01*
X143600000Y-70250000D01*
X142675000Y-70250000D01*
X142675000Y-72349999D01*
X142174999Y-72349999D01*
X142175000Y-72349998D01*
X142175000Y-70250000D01*
X141250001Y-70250000D01*
X141250001Y-71649986D01*
X139721681Y-71649986D01*
X139716270Y-71608884D01*
X139648398Y-71355581D01*
X139648394Y-71355571D01*
X139548046Y-71113309D01*
X139548041Y-71113299D01*
X139416924Y-70886196D01*
X139257281Y-70678148D01*
X139257274Y-70678140D01*
X139071860Y-70492726D01*
X139071851Y-70492718D01*
X138863803Y-70333075D01*
X138816950Y-70306025D01*
X138636700Y-70201958D01*
X138636690Y-70201953D01*
X138608159Y-70190135D01*
X158987500Y-70190135D01*
X158987500Y-71809870D01*
X158987501Y-71809876D01*
X158993908Y-71869483D01*
X159044202Y-72004328D01*
X159044206Y-72004335D01*
X159130452Y-72119544D01*
X159130455Y-72119547D01*
X159245664Y-72205793D01*
X159245671Y-72205797D01*
X159380517Y-72256091D01*
X159380516Y-72256091D01*
X159387444Y-72256835D01*
X159440127Y-72262500D01*
X161059872Y-72262499D01*
X161119483Y-72256091D01*
X161254331Y-72205796D01*
X161369546Y-72119546D01*
X161455796Y-72004331D01*
X161506091Y-71869483D01*
X161512500Y-71809873D01*
X161512499Y-70190128D01*
X161506091Y-70130517D01*
X161495306Y-70101602D01*
X161455797Y-69995671D01*
X161455793Y-69995664D01*
X161369547Y-69880455D01*
X161369544Y-69880452D01*
X161254335Y-69794206D01*
X161254328Y-69794202D01*
X161119482Y-69743908D01*
X161119483Y-69743908D01*
X161059883Y-69737501D01*
X161059881Y-69737500D01*
X161059873Y-69737500D01*
X161059864Y-69737500D01*
X159440129Y-69737500D01*
X159440123Y-69737501D01*
X159380516Y-69743908D01*
X159245671Y-69794202D01*
X159245664Y-69794206D01*
X159130455Y-69880452D01*
X159130452Y-69880455D01*
X159044206Y-69995664D01*
X159044202Y-69995671D01*
X158993908Y-70130517D01*
X158987501Y-70190116D01*
X158987501Y-70190123D01*
X158987500Y-70190135D01*
X138608159Y-70190135D01*
X138394428Y-70101605D01*
X138394421Y-70101603D01*
X138394419Y-70101602D01*
X138141116Y-70033730D01*
X138083339Y-70026123D01*
X137881127Y-69999500D01*
X137881120Y-69999500D01*
X137874500Y-69999500D01*
X137807461Y-69979815D01*
X137761706Y-69927011D01*
X137750500Y-69875500D01*
X137750500Y-68374500D01*
X137770185Y-68307461D01*
X137822989Y-68261706D01*
X137874500Y-68250500D01*
X141126000Y-68250500D01*
X141193039Y-68270185D01*
G37*
%TD.AperFunction*%
%TA.AperFunction,Conductor*%
G36*
X166668834Y-124776545D02*
G01*
X166724767Y-124818417D01*
X166749184Y-124883881D01*
X166749500Y-124892727D01*
X166749500Y-127626000D01*
X166729815Y-127693039D01*
X166677011Y-127738794D01*
X166625500Y-127750000D01*
X166618905Y-127750000D01*
X166358990Y-127784220D01*
X166358979Y-127784222D01*
X166105744Y-127852075D01*
X165863528Y-127952404D01*
X165863517Y-127952409D01*
X165636471Y-128083496D01*
X165428480Y-128243092D01*
X165428473Y-128243098D01*
X165243098Y-128428473D01*
X165243092Y-128428480D01*
X165083496Y-128636471D01*
X164952409Y-128863517D01*
X164952404Y-128863528D01*
X164852075Y-129105744D01*
X164784221Y-129358983D01*
X164765654Y-129499999D01*
X164765655Y-129500000D01*
X166024015Y-129500000D01*
X166000000Y-129651623D01*
X166000000Y-129848377D01*
X166024015Y-130000000D01*
X164765655Y-130000000D01*
X164784221Y-130141016D01*
X164852075Y-130394255D01*
X164952404Y-130636471D01*
X164952409Y-130636482D01*
X165083496Y-130863528D01*
X165243092Y-131071519D01*
X165243098Y-131071526D01*
X165428473Y-131256901D01*
X165428480Y-131256907D01*
X165636471Y-131416503D01*
X165863517Y-131547590D01*
X165863529Y-131547595D01*
X165924712Y-131572939D01*
X165979115Y-131616780D01*
X166001180Y-131683074D01*
X165983901Y-131750774D01*
X165932763Y-131798384D01*
X165924712Y-131802061D01*
X165863529Y-131827404D01*
X165863517Y-131827409D01*
X165636471Y-131958496D01*
X165428480Y-132118092D01*
X165428473Y-132118098D01*
X165243098Y-132303473D01*
X165243092Y-132303480D01*
X165083496Y-132511471D01*
X164952409Y-132738517D01*
X164952404Y-132738528D01*
X164852075Y-132980744D01*
X164784221Y-133233983D01*
X164765654Y-133374999D01*
X164765655Y-133375000D01*
X166024015Y-133375000D01*
X166000000Y-133526623D01*
X166000000Y-133723377D01*
X166024015Y-133875000D01*
X164765655Y-133875000D01*
X164784221Y-134016016D01*
X164852075Y-134269255D01*
X164952404Y-134511471D01*
X164952409Y-134511482D01*
X165083496Y-134738528D01*
X165243092Y-134946519D01*
X165243098Y-134946526D01*
X165428473Y-135131901D01*
X165428480Y-135131907D01*
X165636471Y-135291503D01*
X165863517Y-135422590D01*
X165863529Y-135422595D01*
X165924712Y-135447939D01*
X165979115Y-135491780D01*
X166001180Y-135558074D01*
X165983901Y-135625774D01*
X165932763Y-135673384D01*
X165924712Y-135677061D01*
X165863529Y-135702404D01*
X165863517Y-135702409D01*
X165636471Y-135833496D01*
X165428480Y-135993092D01*
X165428473Y-135993098D01*
X165243098Y-136178473D01*
X165243092Y-136178480D01*
X165083496Y-136386471D01*
X164952409Y-136613517D01*
X164952404Y-136613528D01*
X164852075Y-136855744D01*
X164784221Y-137108983D01*
X164765654Y-137249999D01*
X164765655Y-137250000D01*
X166024015Y-137250000D01*
X166000000Y-137401623D01*
X166000000Y-137598377D01*
X166024015Y-137750000D01*
X164765655Y-137750000D01*
X164784221Y-137891016D01*
X164852075Y-138144255D01*
X164952404Y-138386471D01*
X164952409Y-138386482D01*
X165083496Y-138613528D01*
X165243092Y-138821519D01*
X165243098Y-138821526D01*
X165428473Y-139006901D01*
X165428480Y-139006907D01*
X165636471Y-139166503D01*
X165863517Y-139297590D01*
X165863528Y-139297595D01*
X166105744Y-139397924D01*
X166358979Y-139465777D01*
X166358990Y-139465779D01*
X166618905Y-139499999D01*
X166618920Y-139500000D01*
X166625500Y-139500000D01*
X166692539Y-139519685D01*
X166738294Y-139572489D01*
X166749500Y-139624000D01*
X166749500Y-140625500D01*
X166729815Y-140692539D01*
X166677011Y-140738294D01*
X166625500Y-140749500D01*
X160179098Y-140749500D01*
X160157855Y-140743262D01*
X160135770Y-140741684D01*
X160124983Y-140733610D01*
X160112059Y-140729815D01*
X160097562Y-140713085D01*
X160079835Y-140699816D01*
X160075125Y-140687191D01*
X160066304Y-140677011D01*
X160063153Y-140655098D01*
X160055414Y-140634352D01*
X160058277Y-140621187D01*
X160056360Y-140607853D01*
X160065557Y-140587712D01*
X160070263Y-140566079D01*
X160083534Y-140548349D01*
X160085385Y-140544297D01*
X160091398Y-140537837D01*
X160110520Y-140518716D01*
X160110521Y-140518713D01*
X160295478Y-140333755D01*
X160356799Y-140300272D01*
X160421473Y-140303506D01*
X160463757Y-140317246D01*
X160673713Y-140350500D01*
X160673714Y-140350500D01*
X160886286Y-140350500D01*
X160886287Y-140350500D01*
X161096243Y-140317246D01*
X161298412Y-140251557D01*
X161487816Y-140155051D01*
X161574895Y-140091785D01*
X161659786Y-140030109D01*
X161659788Y-140030106D01*
X161659792Y-140030104D01*
X161810104Y-139879792D01*
X161810106Y-139879788D01*
X161810109Y-139879786D01*
X161935048Y-139707820D01*
X161935047Y-139707820D01*
X161935051Y-139707816D01*
X162031557Y-139518412D01*
X162097246Y-139316243D01*
X162130500Y-139106287D01*
X162130500Y-138893713D01*
X162097246Y-138683757D01*
X162031557Y-138481588D01*
X161935051Y-138292184D01*
X161935049Y-138292181D01*
X161935048Y-138292179D01*
X161810109Y-138120213D01*
X161659786Y-137969890D01*
X161487817Y-137844949D01*
X161478504Y-137840204D01*
X161427707Y-137792230D01*
X161410912Y-137724409D01*
X161433449Y-137658274D01*
X161478507Y-137619232D01*
X161487558Y-137614620D01*
X161659459Y-137489727D01*
X161659464Y-137489723D01*
X161809723Y-137339464D01*
X161809727Y-137339459D01*
X161934620Y-137167557D01*
X162031095Y-136978217D01*
X162096757Y-136776129D01*
X162096757Y-136776126D01*
X162107231Y-136710000D01*
X161213012Y-136710000D01*
X161245925Y-136652993D01*
X161280000Y-136525826D01*
X161280000Y-136394174D01*
X161245925Y-136267007D01*
X161213012Y-136210000D01*
X162107231Y-136210000D01*
X162096757Y-136143873D01*
X162096757Y-136143870D01*
X162031095Y-135941782D01*
X161934620Y-135752442D01*
X161809727Y-135580540D01*
X161809723Y-135580535D01*
X161659464Y-135430276D01*
X161659459Y-135430272D01*
X161487557Y-135305379D01*
X161298215Y-135208903D01*
X161096124Y-135143241D01*
X161030000Y-135132768D01*
X161030000Y-136026988D01*
X160972993Y-135994075D01*
X160845826Y-135960000D01*
X160714174Y-135960000D01*
X160587007Y-135994075D01*
X160530000Y-136026988D01*
X160530000Y-135132768D01*
X160529999Y-135132768D01*
X160463875Y-135143241D01*
X160261784Y-135208903D01*
X160072442Y-135305379D01*
X159900540Y-135430272D01*
X159900535Y-135430276D01*
X159750276Y-135580535D01*
X159750272Y-135580540D01*
X159625378Y-135752443D01*
X159620762Y-135761502D01*
X159572784Y-135812295D01*
X159504963Y-135829087D01*
X159438829Y-135806546D01*
X159399794Y-135761493D01*
X159395051Y-135752184D01*
X159395049Y-135752181D01*
X159395048Y-135752179D01*
X159270109Y-135580213D01*
X159119786Y-135429890D01*
X158947820Y-135304951D01*
X158758414Y-135208444D01*
X158758413Y-135208443D01*
X158758412Y-135208443D01*
X158556243Y-135142754D01*
X158556241Y-135142753D01*
X158556239Y-135142753D01*
X158523022Y-135137492D01*
X158511645Y-135132099D01*
X158499086Y-135131201D01*
X158480671Y-135117416D01*
X158459887Y-135107563D01*
X158453231Y-135096873D01*
X158443153Y-135089329D01*
X158435115Y-135067778D01*
X158422956Y-135048251D01*
X158423135Y-135035661D01*
X158418736Y-135023865D01*
X158423625Y-135001388D01*
X158423954Y-134978388D01*
X158431267Y-134966260D01*
X158433588Y-134955592D01*
X158454736Y-134927341D01*
X158460924Y-134921153D01*
X162699500Y-134921153D01*
X162699500Y-135078846D01*
X162730261Y-135233489D01*
X162730264Y-135233501D01*
X162790602Y-135379172D01*
X162790609Y-135379185D01*
X162878210Y-135510288D01*
X162878213Y-135510292D01*
X162989707Y-135621786D01*
X162989711Y-135621789D01*
X163120814Y-135709390D01*
X163120827Y-135709397D01*
X163266498Y-135769735D01*
X163266503Y-135769737D01*
X163421153Y-135800499D01*
X163421156Y-135800500D01*
X163421158Y-135800500D01*
X163578844Y-135800500D01*
X163578845Y-135800499D01*
X163733497Y-135769737D01*
X163879179Y-135709394D01*
X164010289Y-135621789D01*
X164121789Y-135510289D01*
X164209394Y-135379179D01*
X164269737Y-135233497D01*
X164300500Y-135078842D01*
X164300500Y-134921158D01*
X164300500Y-134921155D01*
X164300499Y-134921153D01*
X164297925Y-134908215D01*
X164269737Y-134766503D01*
X164269735Y-134766498D01*
X164209397Y-134620827D01*
X164209390Y-134620814D01*
X164121789Y-134489711D01*
X164121786Y-134489707D01*
X164010292Y-134378213D01*
X164010288Y-134378210D01*
X163879185Y-134290609D01*
X163879172Y-134290602D01*
X163733501Y-134230264D01*
X163733489Y-134230261D01*
X163578845Y-134199500D01*
X163578842Y-134199500D01*
X163421158Y-134199500D01*
X163421155Y-134199500D01*
X163266510Y-134230261D01*
X163266498Y-134230264D01*
X163120827Y-134290602D01*
X163120814Y-134290609D01*
X162989711Y-134378210D01*
X162989707Y-134378213D01*
X162878213Y-134489707D01*
X162878210Y-134489711D01*
X162790609Y-134620814D01*
X162790602Y-134620827D01*
X162730264Y-134766498D01*
X162730261Y-134766510D01*
X162699500Y-134921153D01*
X158460924Y-134921153D01*
X164621788Y-128760290D01*
X164621789Y-128760289D01*
X164709394Y-128629179D01*
X164769737Y-128483497D01*
X164800500Y-128328842D01*
X164800500Y-126593727D01*
X164820185Y-126526688D01*
X164836819Y-126506046D01*
X166537819Y-124805046D01*
X166599142Y-124771561D01*
X166668834Y-124776545D01*
G37*
%TD.AperFunction*%
%TA.AperFunction,Conductor*%
G36*
X158212254Y-108565092D02*
G01*
X158270117Y-108604254D01*
X158281588Y-108631040D01*
X158286114Y-108636034D01*
X158293007Y-108657705D01*
X158297622Y-108668482D01*
X158298499Y-108683204D01*
X158298499Y-108690046D01*
X158298500Y-108690059D01*
X158298500Y-113666828D01*
X158298499Y-113666846D01*
X158298499Y-113832552D01*
X158298498Y-113832552D01*
X158336396Y-113973989D01*
X158339423Y-113985283D01*
X158359223Y-114019577D01*
X158393442Y-114078846D01*
X158418479Y-114122212D01*
X158418481Y-114122215D01*
X158537349Y-114241083D01*
X158537354Y-114241087D01*
X159526786Y-115230520D01*
X159526788Y-115230521D01*
X159526792Y-115230524D01*
X159649506Y-115301372D01*
X159663718Y-115309577D01*
X159816445Y-115350501D01*
X159816447Y-115350501D01*
X159982156Y-115350501D01*
X159982172Y-115350500D01*
X160434688Y-115350500D01*
X160501727Y-115370185D01*
X160547482Y-115422989D01*
X160557426Y-115492147D01*
X160528401Y-115555703D01*
X160522369Y-115562181D01*
X160439798Y-115644751D01*
X160439792Y-115644759D01*
X160360632Y-115778612D01*
X160360630Y-115778617D01*
X160317246Y-115927944D01*
X160317245Y-115927950D01*
X160314500Y-115962833D01*
X160314500Y-118157146D01*
X160314501Y-118157171D01*
X160317246Y-118192051D01*
X160360630Y-118341382D01*
X160360632Y-118341387D01*
X160439792Y-118475240D01*
X160439798Y-118475248D01*
X160549751Y-118585201D01*
X160549755Y-118585204D01*
X160549757Y-118585206D01*
X160683613Y-118664368D01*
X160722994Y-118675809D01*
X160832944Y-118707753D01*
X160832947Y-118707753D01*
X160832949Y-118707754D01*
X160867841Y-118710500D01*
X163262158Y-118710499D01*
X163297051Y-118707754D01*
X163446387Y-118664368D01*
X163580243Y-118585206D01*
X163608983Y-118556466D01*
X163687819Y-118477631D01*
X163749142Y-118444146D01*
X163818834Y-118449130D01*
X163874767Y-118491002D01*
X163899184Y-118556466D01*
X163899500Y-118565312D01*
X163899500Y-119170234D01*
X163879815Y-119237273D01*
X163878602Y-119239125D01*
X163790609Y-119370814D01*
X163790602Y-119370827D01*
X163730264Y-119516498D01*
X163730261Y-119516510D01*
X163699500Y-119671153D01*
X163699500Y-119787927D01*
X163679815Y-119854966D01*
X163627011Y-119900721D01*
X163557853Y-119910665D01*
X163512380Y-119894660D01*
X163446385Y-119855631D01*
X163446382Y-119855630D01*
X163297055Y-119812246D01*
X163297049Y-119812245D01*
X163262159Y-119809500D01*
X160867853Y-119809500D01*
X160867828Y-119809501D01*
X160832948Y-119812246D01*
X160683617Y-119855630D01*
X160683612Y-119855632D01*
X160549759Y-119934792D01*
X160549751Y-119934798D01*
X160439798Y-120044751D01*
X160439792Y-120044759D01*
X160360632Y-120178612D01*
X160360630Y-120178617D01*
X160317246Y-120327944D01*
X160317245Y-120327950D01*
X160314500Y-120362833D01*
X160314500Y-121633059D01*
X160294815Y-121700098D01*
X160242011Y-121745853D01*
X160172853Y-121755797D01*
X160109297Y-121726772D01*
X160102819Y-121720740D01*
X160010292Y-121628213D01*
X160010288Y-121628210D01*
X159879185Y-121540609D01*
X159879172Y-121540602D01*
X159733501Y-121480264D01*
X159733489Y-121480261D01*
X159578845Y-121449500D01*
X159578842Y-121449500D01*
X159421158Y-121449500D01*
X159421155Y-121449500D01*
X159266510Y-121480261D01*
X159266498Y-121480264D01*
X159120827Y-121540602D01*
X159120814Y-121540609D01*
X158989125Y-121628602D01*
X158922447Y-121649480D01*
X158920234Y-121649500D01*
X156260759Y-121649500D01*
X156193720Y-121629815D01*
X156147965Y-121577011D01*
X156138021Y-121507853D01*
X156157657Y-121456609D01*
X156166194Y-121443831D01*
X156209394Y-121379179D01*
X156269737Y-121233497D01*
X156300500Y-121078842D01*
X156300500Y-120921158D01*
X156300500Y-120921155D01*
X156300499Y-120921153D01*
X156269738Y-120766510D01*
X156269737Y-120766503D01*
X156230242Y-120671153D01*
X156209397Y-120620827D01*
X156209390Y-120620814D01*
X156121789Y-120489711D01*
X156121786Y-120489707D01*
X156010292Y-120378213D01*
X156010288Y-120378210D01*
X155879185Y-120290609D01*
X155879172Y-120290602D01*
X155733501Y-120230264D01*
X155733491Y-120230261D01*
X155578149Y-120199361D01*
X155516238Y-120166976D01*
X155514660Y-120165425D01*
X153520388Y-118171153D01*
X157449500Y-118171153D01*
X157449500Y-118328846D01*
X157480261Y-118483489D01*
X157480264Y-118483501D01*
X157540602Y-118629172D01*
X157540609Y-118629185D01*
X157628210Y-118760288D01*
X157628213Y-118760292D01*
X157739707Y-118871786D01*
X157739711Y-118871789D01*
X157870814Y-118959390D01*
X157870827Y-118959397D01*
X158016498Y-119019735D01*
X158016503Y-119019737D01*
X158113631Y-119039057D01*
X158171153Y-119050499D01*
X158171156Y-119050500D01*
X158171158Y-119050500D01*
X158328844Y-119050500D01*
X158328845Y-119050499D01*
X158483497Y-119019737D01*
X158629179Y-118959394D01*
X158760289Y-118871789D01*
X158871789Y-118760289D01*
X158959394Y-118629179D01*
X159019737Y-118483497D01*
X159050500Y-118328842D01*
X159050500Y-118171158D01*
X159050500Y-118171155D01*
X159050499Y-118171153D01*
X159019738Y-118016510D01*
X159019737Y-118016503D01*
X159013425Y-118001265D01*
X158959397Y-117870827D01*
X158959390Y-117870814D01*
X158871789Y-117739711D01*
X158871786Y-117739707D01*
X158760292Y-117628213D01*
X158760288Y-117628210D01*
X158629185Y-117540609D01*
X158629172Y-117540602D01*
X158483501Y-117480264D01*
X158483489Y-117480261D01*
X158328845Y-117449500D01*
X158328842Y-117449500D01*
X158171158Y-117449500D01*
X158171155Y-117449500D01*
X158016510Y-117480261D01*
X158016498Y-117480264D01*
X157870827Y-117540602D01*
X157870814Y-117540609D01*
X157739711Y-117628210D01*
X157739707Y-117628213D01*
X157628213Y-117739707D01*
X157628210Y-117739711D01*
X157540609Y-117870814D01*
X157540602Y-117870827D01*
X157480264Y-118016498D01*
X157480261Y-118016510D01*
X157449500Y-118171153D01*
X153520388Y-118171153D01*
X153386819Y-118037584D01*
X153353334Y-117976261D01*
X153350500Y-117949903D01*
X153350500Y-117167847D01*
X153359444Y-117137385D01*
X153366746Y-117106487D01*
X153369217Y-117104101D01*
X153370185Y-117100808D01*
X153394167Y-117080026D01*
X153417025Y-117057971D01*
X153421404Y-117056426D01*
X153422989Y-117055053D01*
X153450309Y-117046230D01*
X153563667Y-117023682D01*
X153633259Y-117029909D01*
X153675539Y-117057618D01*
X153739707Y-117121786D01*
X153739711Y-117121789D01*
X153870814Y-117209390D01*
X153870827Y-117209397D01*
X153989007Y-117258348D01*
X154016503Y-117269737D01*
X154171153Y-117300499D01*
X154171156Y-117300500D01*
X154171158Y-117300500D01*
X154328844Y-117300500D01*
X154328845Y-117300499D01*
X154483497Y-117269737D01*
X154629179Y-117209394D01*
X154760289Y-117121789D01*
X154871789Y-117010289D01*
X154959394Y-116879179D01*
X155019737Y-116733497D01*
X155050500Y-116578842D01*
X155050500Y-116421158D01*
X155050500Y-116421155D01*
X155050499Y-116421153D01*
X155019738Y-116266510D01*
X155019737Y-116266503D01*
X154996373Y-116210097D01*
X154959397Y-116120827D01*
X154959390Y-116120814D01*
X154871398Y-115989125D01*
X154850520Y-115922447D01*
X154850500Y-115920234D01*
X154850500Y-109920945D01*
X154850500Y-109920943D01*
X154825823Y-109828846D01*
X154824544Y-109824073D01*
X154824542Y-109824070D01*
X154821863Y-109814069D01*
X154809577Y-109768215D01*
X154762070Y-109685931D01*
X154730520Y-109631284D01*
X154618716Y-109519480D01*
X154618715Y-109519479D01*
X154614385Y-109515149D01*
X154614374Y-109515139D01*
X153911416Y-108812181D01*
X153877931Y-108750858D01*
X153882915Y-108681166D01*
X153924787Y-108625233D01*
X153990251Y-108600816D01*
X153999097Y-108600500D01*
X157838331Y-108600500D01*
X157838347Y-108600501D01*
X157845943Y-108600501D01*
X158004054Y-108600501D01*
X158004057Y-108600501D01*
X158142409Y-108563429D01*
X158212254Y-108565092D01*
G37*
%TD.AperFunction*%
%TA.AperFunction,Conductor*%
G36*
X162907942Y-105530184D02*
G01*
X162953697Y-105582988D01*
X162963641Y-105652146D01*
X162934616Y-105715702D01*
X162928584Y-105722180D01*
X162077582Y-106573181D01*
X162016259Y-106606666D01*
X161989901Y-106609500D01*
X160867853Y-106609500D01*
X160867828Y-106609501D01*
X160832948Y-106612246D01*
X160683617Y-106655630D01*
X160683612Y-106655632D01*
X160549759Y-106734792D01*
X160549751Y-106734798D01*
X160439798Y-106844751D01*
X160439792Y-106844759D01*
X160360632Y-106978612D01*
X160360630Y-106978617D01*
X160317246Y-107127944D01*
X160317245Y-107127950D01*
X160314500Y-107162833D01*
X160314500Y-109357146D01*
X160314501Y-109357171D01*
X160317246Y-109392051D01*
X160360630Y-109541382D01*
X160360632Y-109541387D01*
X160439792Y-109675240D01*
X160439798Y-109675248D01*
X160549751Y-109785201D01*
X160549755Y-109785204D01*
X160549757Y-109785206D01*
X160683613Y-109864368D01*
X160722994Y-109875809D01*
X160832944Y-109907753D01*
X160832947Y-109907753D01*
X160832949Y-109907754D01*
X160867841Y-109910500D01*
X163262158Y-109910499D01*
X163297051Y-109907754D01*
X163446387Y-109864368D01*
X163580243Y-109785206D01*
X163690206Y-109675243D01*
X163769368Y-109541387D01*
X163812754Y-109392051D01*
X163815500Y-109357159D01*
X163815499Y-107162842D01*
X163812754Y-107127949D01*
X163769368Y-106978613D01*
X163690206Y-106844757D01*
X163690204Y-106844755D01*
X163690201Y-106844751D01*
X163685023Y-106839573D01*
X163651538Y-106778250D01*
X163656522Y-106708558D01*
X163685021Y-106664213D01*
X164514662Y-105834572D01*
X164575983Y-105801089D01*
X164578150Y-105800638D01*
X164636085Y-105789113D01*
X164733497Y-105769737D01*
X164879179Y-105709394D01*
X165006609Y-105624248D01*
X165073286Y-105603370D01*
X165140666Y-105621854D01*
X165187357Y-105673833D01*
X165199500Y-105727350D01*
X165199500Y-115301372D01*
X165179815Y-115368411D01*
X165127011Y-115414166D01*
X165057853Y-115424110D01*
X164994297Y-115395085D01*
X164986493Y-115386804D01*
X164986267Y-115387031D01*
X163987590Y-114388355D01*
X163987588Y-114388352D01*
X163868717Y-114269481D01*
X163868716Y-114269480D01*
X163781904Y-114219360D01*
X163781904Y-114219359D01*
X163781900Y-114219358D01*
X163758524Y-114205861D01*
X163710311Y-114155295D01*
X163697089Y-114086687D01*
X163713794Y-114035357D01*
X163769368Y-113941387D01*
X163812754Y-113792051D01*
X163815500Y-113757159D01*
X163815499Y-111562842D01*
X163812754Y-111527949D01*
X163769368Y-111378613D01*
X163690206Y-111244757D01*
X163690204Y-111244755D01*
X163690201Y-111244751D01*
X163580248Y-111134798D01*
X163580240Y-111134792D01*
X163446387Y-111055632D01*
X163446382Y-111055630D01*
X163297055Y-111012246D01*
X163297049Y-111012245D01*
X163262159Y-111009500D01*
X160867853Y-111009500D01*
X160867828Y-111009501D01*
X160832948Y-111012246D01*
X160683617Y-111055630D01*
X160683612Y-111055632D01*
X160549759Y-111134792D01*
X160549751Y-111134798D01*
X160439798Y-111244751D01*
X160439792Y-111244759D01*
X160360632Y-111378612D01*
X160360630Y-111378617D01*
X160317246Y-111527944D01*
X160317245Y-111527950D01*
X160314500Y-111562833D01*
X160314500Y-113757146D01*
X160314501Y-113757171D01*
X160317246Y-113792051D01*
X160360630Y-113941382D01*
X160360632Y-113941387D01*
X160373047Y-113962379D01*
X160374702Y-113968903D01*
X160379109Y-113973989D01*
X160383184Y-114002334D01*
X160390230Y-114030102D01*
X160388095Y-114036485D01*
X160389053Y-114043147D01*
X160377153Y-114069202D01*
X160368070Y-114096365D01*
X160362824Y-114100579D01*
X160360028Y-114106703D01*
X160335930Y-114122189D01*
X160313604Y-114140129D01*
X160305524Y-114141730D01*
X160301250Y-114144477D01*
X160266315Y-114149500D01*
X160195600Y-114149500D01*
X160128561Y-114129815D01*
X160107919Y-114113181D01*
X159535819Y-113541081D01*
X159502334Y-113479758D01*
X159499500Y-113453400D01*
X159499500Y-109095962D01*
X159519185Y-109028923D01*
X159571989Y-108983168D01*
X159576009Y-108981417D01*
X159629179Y-108959394D01*
X159760289Y-108871789D01*
X159871789Y-108760289D01*
X159959394Y-108629179D01*
X159961029Y-108625233D01*
X159973067Y-108596166D01*
X160019737Y-108483497D01*
X160050500Y-108328842D01*
X160050500Y-108171158D01*
X160050500Y-108171155D01*
X160050499Y-108171153D01*
X160019738Y-108016510D01*
X160019737Y-108016503D01*
X160019735Y-108016498D01*
X159959397Y-107870827D01*
X159959390Y-107870814D01*
X159871789Y-107739711D01*
X159871786Y-107739707D01*
X159760292Y-107628213D01*
X159760288Y-107628210D01*
X159629185Y-107540609D01*
X159629172Y-107540602D01*
X159520935Y-107495770D01*
X159466531Y-107451930D01*
X159444466Y-107385636D01*
X159461745Y-107317936D01*
X159480702Y-107293532D01*
X161227416Y-105546817D01*
X161288739Y-105513333D01*
X161315097Y-105510499D01*
X162840903Y-105510499D01*
X162907942Y-105530184D01*
G37*
%TD.AperFunction*%
%TA.AperFunction,Conductor*%
G36*
X163798634Y-96380185D02*
G01*
X163844389Y-96432989D01*
X163854333Y-96502147D01*
X163825308Y-96565703D01*
X163800486Y-96587602D01*
X163739711Y-96628210D01*
X163739707Y-96628213D01*
X163628213Y-96739707D01*
X163628210Y-96739711D01*
X163540609Y-96870814D01*
X163540602Y-96870827D01*
X163480264Y-97016498D01*
X163480261Y-97016508D01*
X163449362Y-97171848D01*
X163416977Y-97233759D01*
X163415426Y-97235337D01*
X162877582Y-97773181D01*
X162816259Y-97806666D01*
X162789901Y-97809500D01*
X160867853Y-97809500D01*
X160867828Y-97809501D01*
X160832948Y-97812246D01*
X160683617Y-97855630D01*
X160683612Y-97855632D01*
X160549759Y-97934792D01*
X160549751Y-97934798D01*
X160439798Y-98044751D01*
X160439792Y-98044759D01*
X160360632Y-98178612D01*
X160360630Y-98178617D01*
X160317246Y-98327944D01*
X160317245Y-98327950D01*
X160314500Y-98362833D01*
X160314500Y-100557146D01*
X160314501Y-100557171D01*
X160317246Y-100592051D01*
X160360630Y-100741382D01*
X160360632Y-100741387D01*
X160439792Y-100875240D01*
X160439798Y-100875248D01*
X160549751Y-100985201D01*
X160549755Y-100985204D01*
X160549757Y-100985206D01*
X160683613Y-101064368D01*
X160722994Y-101075809D01*
X160832944Y-101107753D01*
X160832947Y-101107753D01*
X160832949Y-101107754D01*
X160867841Y-101110500D01*
X163262158Y-101110499D01*
X163262184Y-101110497D01*
X163262945Y-101110437D01*
X163297051Y-101107754D01*
X163446387Y-101064368D01*
X163580243Y-100985206D01*
X163690206Y-100875243D01*
X163769368Y-100741387D01*
X163812754Y-100592051D01*
X163815500Y-100557159D01*
X163815499Y-98585097D01*
X163835184Y-98518059D01*
X163851818Y-98497417D01*
X164055988Y-98293247D01*
X164264665Y-98084570D01*
X164325984Y-98051088D01*
X164328151Y-98050637D01*
X164328840Y-98050500D01*
X164328842Y-98050500D01*
X164483497Y-98019737D01*
X164629179Y-97959394D01*
X164760289Y-97871789D01*
X164871789Y-97760289D01*
X164959394Y-97629179D01*
X164960938Y-97625450D01*
X165004778Y-97571047D01*
X165071072Y-97548981D01*
X165138771Y-97566259D01*
X165186383Y-97617395D01*
X165199500Y-97672902D01*
X165199500Y-104272649D01*
X165179815Y-104339688D01*
X165127011Y-104385443D01*
X165057853Y-104395387D01*
X165006609Y-104375751D01*
X164879185Y-104290609D01*
X164879172Y-104290602D01*
X164733501Y-104230264D01*
X164733489Y-104230261D01*
X164578845Y-104199500D01*
X164578842Y-104199500D01*
X164421158Y-104199500D01*
X164421155Y-104199500D01*
X164266510Y-104230261D01*
X164266498Y-104230264D01*
X164120827Y-104290602D01*
X164120814Y-104290609D01*
X164008390Y-104365729D01*
X163941712Y-104386607D01*
X163874332Y-104368122D01*
X163827642Y-104316143D01*
X163815499Y-104262627D01*
X163815499Y-102762853D01*
X163815498Y-102762828D01*
X163815225Y-102759370D01*
X163812754Y-102727949D01*
X163769368Y-102578613D01*
X163690206Y-102444757D01*
X163690204Y-102444755D01*
X163690201Y-102444751D01*
X163580248Y-102334798D01*
X163580240Y-102334792D01*
X163446387Y-102255632D01*
X163446382Y-102255630D01*
X163297055Y-102212246D01*
X163297049Y-102212245D01*
X163262159Y-102209500D01*
X160867853Y-102209500D01*
X160867828Y-102209501D01*
X160832948Y-102212246D01*
X160683617Y-102255630D01*
X160683612Y-102255632D01*
X160549759Y-102334792D01*
X160549751Y-102334798D01*
X160439798Y-102444751D01*
X160439792Y-102444759D01*
X160360632Y-102578612D01*
X160360630Y-102578617D01*
X160317246Y-102727944D01*
X160317245Y-102727950D01*
X160314500Y-102762833D01*
X160314500Y-104709902D01*
X160294815Y-104776941D01*
X160278181Y-104797583D01*
X157712584Y-107363181D01*
X157651261Y-107396666D01*
X157624903Y-107399500D01*
X157149097Y-107399500D01*
X157082058Y-107379815D01*
X157036303Y-107327011D01*
X157026359Y-107257853D01*
X157055384Y-107194297D01*
X157061416Y-107187819D01*
X157789845Y-106459390D01*
X158730520Y-105518716D01*
X158809577Y-105381784D01*
X158850501Y-105229057D01*
X158850501Y-105070942D01*
X158850501Y-105063347D01*
X158850500Y-105063329D01*
X158850500Y-97434499D01*
X158870185Y-97367460D01*
X158922989Y-97321705D01*
X158974495Y-97310499D01*
X161162158Y-97310499D01*
X161197051Y-97307754D01*
X161346387Y-97264368D01*
X161480243Y-97185206D01*
X161590206Y-97075243D01*
X161669368Y-96941387D01*
X161712754Y-96792051D01*
X161715500Y-96757159D01*
X161715500Y-96484500D01*
X161735185Y-96417461D01*
X161787989Y-96371706D01*
X161839500Y-96360500D01*
X163731595Y-96360500D01*
X163798634Y-96380185D01*
G37*
%TD.AperFunction*%
%TA.AperFunction,Conductor*%
G36*
X157896568Y-92048411D02*
G01*
X157923757Y-92057246D01*
X158045758Y-92076569D01*
X158108892Y-92106498D01*
X158145824Y-92165809D01*
X158144826Y-92235672D01*
X158114041Y-92286723D01*
X157479481Y-92921282D01*
X157479475Y-92921290D01*
X157444551Y-92981782D01*
X157444551Y-92981784D01*
X157400423Y-93058214D01*
X157400423Y-93058215D01*
X157359499Y-93210943D01*
X157359499Y-93210945D01*
X157359499Y-93379046D01*
X157359500Y-93379059D01*
X157359500Y-104139903D01*
X157339815Y-104206942D01*
X157323181Y-104227584D01*
X154985339Y-106565425D01*
X154924016Y-106598910D01*
X154921850Y-106599361D01*
X154766508Y-106630261D01*
X154766498Y-106630264D01*
X154620827Y-106690602D01*
X154620809Y-106690612D01*
X154531757Y-106750115D01*
X154465080Y-106770993D01*
X154397700Y-106752508D01*
X154393976Y-106750115D01*
X154304920Y-106690609D01*
X154304907Y-106690602D01*
X154159236Y-106630264D01*
X154159226Y-106630261D01*
X154118811Y-106622222D01*
X154056900Y-106589836D01*
X154022326Y-106529120D01*
X154021397Y-106524849D01*
X154019737Y-106516503D01*
X153959794Y-106371786D01*
X153959397Y-106370827D01*
X153959390Y-106370814D01*
X153871398Y-106239125D01*
X153850520Y-106172447D01*
X153850500Y-106170234D01*
X153850500Y-97303893D01*
X153870185Y-97236854D01*
X153922989Y-97191099D01*
X153992147Y-97181155D01*
X154037621Y-97197161D01*
X154150478Y-97263904D01*
X154150483Y-97263906D01*
X154299689Y-97307255D01*
X154299695Y-97307256D01*
X154334559Y-97309999D01*
X156528761Y-97309999D01*
X156528783Y-97309998D01*
X156563634Y-97307256D01*
X156712854Y-97263904D01*
X156756315Y-97238200D01*
X155342571Y-95824456D01*
X155309086Y-95763133D01*
X155314070Y-95693441D01*
X155342571Y-95649093D01*
X155431665Y-95559999D01*
X155785218Y-95559999D01*
X155785218Y-95560000D01*
X157065023Y-96839805D01*
X157078922Y-96791971D01*
X157081665Y-96757113D01*
X157081665Y-94362904D01*
X157081664Y-94362882D01*
X157078921Y-94328027D01*
X157065024Y-94280193D01*
X157065023Y-94280193D01*
X155785218Y-95559999D01*
X155431665Y-95559999D01*
X155342570Y-95470904D01*
X155309085Y-95409581D01*
X155314069Y-95339889D01*
X155342570Y-95295542D01*
X156756314Y-93881797D01*
X156712857Y-93856097D01*
X156712848Y-93856093D01*
X156563642Y-93812744D01*
X156563636Y-93812743D01*
X156528779Y-93810000D01*
X154748718Y-93810000D01*
X154681679Y-93790315D01*
X154635924Y-93737511D01*
X154625980Y-93668353D01*
X154655005Y-93604797D01*
X154661023Y-93598333D01*
X155372538Y-92886819D01*
X155433861Y-92853334D01*
X155460219Y-92850500D01*
X156663331Y-92850500D01*
X156663347Y-92850501D01*
X156670943Y-92850501D01*
X156829054Y-92850501D01*
X156829057Y-92850501D01*
X156981785Y-92809577D01*
X157031904Y-92780639D01*
X157118716Y-92730520D01*
X157230520Y-92618716D01*
X157230520Y-92618714D01*
X157240728Y-92608507D01*
X157240730Y-92608504D01*
X157770573Y-92078660D01*
X157783928Y-92071368D01*
X157794219Y-92060156D01*
X157813969Y-92054964D01*
X157831894Y-92045177D01*
X157848118Y-92045988D01*
X157861793Y-92042394D01*
X157896568Y-92048411D01*
G37*
%TD.AperFunction*%
%TD*%
M02*
