%TF.GenerationSoftware,KiCad,Pcbnew,9.0.0*%
%TF.CreationDate,2025-04-10T21:29:29-05:00*%
%TF.ProjectId,ptSolar,7074536f-6c61-4722-9e6b-696361645f70,rev?*%
%TF.SameCoordinates,Original*%
%TF.FileFunction,Soldermask,Top*%
%TF.FilePolarity,Negative*%
%FSLAX46Y46*%
G04 Gerber Fmt 4.6, Leading zero omitted, Abs format (unit mm)*
G04 Created by KiCad (PCBNEW 9.0.0) date 2025-04-10 21:29:29*
%MOMM*%
%LPD*%
G01*
G04 APERTURE LIST*
G04 Aperture macros list*
%AMRoundRect*
0 Rectangle with rounded corners*
0 $1 Rounding radius*
0 $2 $3 $4 $5 $6 $7 $8 $9 X,Y pos of 4 corners*
0 Add a 4 corners polygon primitive as box body*
4,1,4,$2,$3,$4,$5,$6,$7,$8,$9,$2,$3,0*
0 Add four circle primitives for the rounded corners*
1,1,$1+$1,$2,$3*
1,1,$1+$1,$4,$5*
1,1,$1+$1,$6,$7*
1,1,$1+$1,$8,$9*
0 Add four rect primitives between the rounded corners*
20,1,$1+$1,$2,$3,$4,$5,0*
20,1,$1+$1,$4,$5,$6,$7,0*
20,1,$1+$1,$6,$7,$8,$9,0*
20,1,$1+$1,$8,$9,$2,$3,0*%
G04 Aperture macros list end*
%ADD10RoundRect,0.250000X-0.475000X0.250000X-0.475000X-0.250000X0.475000X-0.250000X0.475000X0.250000X0*%
%ADD11RoundRect,0.250000X0.262500X0.450000X-0.262500X0.450000X-0.262500X-0.450000X0.262500X-0.450000X0*%
%ADD12O,4.000000X3.000000*%
%ADD13RoundRect,0.375000X0.375000X0.625000X-0.375000X0.625000X-0.375000X-0.625000X0.375000X-0.625000X0*%
%ADD14RoundRect,0.250000X-0.262500X-0.450000X0.262500X-0.450000X0.262500X0.450000X-0.262500X0.450000X0*%
%ADD15RoundRect,0.250000X0.475000X-0.250000X0.475000X0.250000X-0.475000X0.250000X-0.475000X-0.250000X0*%
%ADD16RoundRect,0.243750X-0.243750X-0.456250X0.243750X-0.456250X0.243750X0.456250X-0.243750X0.456250X0*%
%ADD17RoundRect,0.250000X-1.425000X0.362500X-1.425000X-0.362500X1.425000X-0.362500X1.425000X0.362500X0*%
%ADD18RoundRect,0.250000X0.250000X0.475000X-0.250000X0.475000X-0.250000X-0.475000X0.250000X-0.475000X0*%
%ADD19C,1.400000*%
%ADD20RoundRect,0.150000X-0.587500X-0.150000X0.587500X-0.150000X0.587500X0.150000X-0.587500X0.150000X0*%
%ADD21R,1.600000X0.550000*%
%ADD22R,0.550000X1.600000*%
%ADD23RoundRect,0.150000X-0.512500X-0.150000X0.512500X-0.150000X0.512500X0.150000X-0.512500X0.150000X0*%
%ADD24RoundRect,0.250000X-0.250000X-0.475000X0.250000X-0.475000X0.250000X0.475000X-0.250000X0.475000X0*%
%ADD25RoundRect,0.225000X0.225000X0.375000X-0.225000X0.375000X-0.225000X-0.375000X0.225000X-0.375000X0*%
%ADD26RoundRect,0.150000X0.587500X0.150000X-0.587500X0.150000X-0.587500X-0.150000X0.587500X-0.150000X0*%
%ADD27RoundRect,0.080000X0.320000X-0.820000X0.320000X0.820000X-0.320000X0.820000X-0.320000X-0.820000X0*%
%ADD28RoundRect,0.218750X0.114905X-0.424264X0.424264X-0.114905X-0.114905X0.424264X-0.424264X0.114905X0*%
%ADD29RoundRect,0.250000X-0.450000X0.262500X-0.450000X-0.262500X0.450000X-0.262500X0.450000X0.262500X0*%
%ADD30RoundRect,0.250000X0.650000X-1.000000X0.650000X1.000000X-0.650000X1.000000X-0.650000X-1.000000X0*%
%ADD31RoundRect,0.218750X0.424264X0.114905X0.114905X0.424264X-0.424264X-0.114905X-0.114905X-0.424264X0*%
%ADD32RoundRect,0.250000X0.385000X1.350000X-0.385000X1.350000X-0.385000X-1.350000X0.385000X-1.350000X0*%
%ADD33RoundRect,0.250000X0.425000X1.600000X-0.425000X1.600000X-0.425000X-1.600000X0.425000X-1.600000X0*%
%ADD34R,1.900000X0.400000*%
%ADD35R,1.700000X1.700000*%
%ADD36O,1.700000X1.700000*%
%ADD37R,1.524000X1.524000*%
%ADD38C,1.524000*%
G04 APERTURE END LIST*
D10*
%TO.C,C12*%
X162600000Y-117050000D03*
X162600000Y-118950000D03*
%TD*%
D11*
%TO.C,R20*%
X160662500Y-106500000D03*
X158837500Y-106500000D03*
%TD*%
D12*
%TO.C,PV1*%
X137250000Y-72000000D03*
X137250000Y-129750000D03*
X137250000Y-133625000D03*
X137250000Y-137500000D03*
%TD*%
D13*
%TO.C,ANT1*%
X142750000Y-139500000D03*
X150750000Y-139500000D03*
%TD*%
D14*
%TO.C,R17*%
X158837500Y-97500000D03*
X160662500Y-97500000D03*
%TD*%
D11*
%TO.C,R7*%
X163432500Y-133250000D03*
X161607500Y-133250000D03*
%TD*%
D14*
%TO.C,R12*%
X142385974Y-103001526D03*
X144210974Y-103001526D03*
%TD*%
D15*
%TO.C,C7*%
X146125000Y-93400000D03*
X146125000Y-91500000D03*
%TD*%
D16*
%TO.C,D5*%
X158832500Y-102000000D03*
X160707500Y-102000000D03*
%TD*%
D17*
%TO.C,R1*%
X158750000Y-73810000D03*
X158750000Y-79735000D03*
%TD*%
D14*
%TO.C,R10*%
X142385974Y-107753052D03*
X144210974Y-107753052D03*
%TD*%
D18*
%TO.C,C16*%
X148950000Y-84250000D03*
X147050000Y-84250000D03*
%TD*%
%TO.C,C14*%
X163450000Y-126500000D03*
X161550000Y-126500000D03*
%TD*%
D14*
%TO.C,R21*%
X158837500Y-104250000D03*
X160662500Y-104250000D03*
%TD*%
D19*
%TO.C,ANT2b1*%
X150500000Y-72750000D03*
%TD*%
D14*
%TO.C,R9*%
X158087500Y-85000000D03*
X159912500Y-85000000D03*
%TD*%
D20*
%TO.C,Q2*%
X147375000Y-100801526D03*
X147375000Y-102701526D03*
X149250000Y-101751526D03*
%TD*%
D21*
%TO.C,U2*%
X148800000Y-111200000D03*
X148800000Y-112000000D03*
X148800000Y-112800000D03*
X148800000Y-113600000D03*
X148800000Y-114400000D03*
X148800000Y-115200000D03*
X148800000Y-116000000D03*
X148800000Y-116800000D03*
D22*
X150250000Y-118250000D03*
X151050000Y-118250000D03*
X151850000Y-118250000D03*
X152650000Y-118250000D03*
X153450000Y-118250000D03*
X154250000Y-118250000D03*
X155050000Y-118250000D03*
X155850000Y-118250000D03*
D21*
X157300000Y-116800000D03*
X157300000Y-116000000D03*
X157300000Y-115200000D03*
X157300000Y-114400000D03*
X157300000Y-113600000D03*
X157300000Y-112800000D03*
X157300000Y-112000000D03*
X157300000Y-111200000D03*
D22*
X155850000Y-109750000D03*
X155050000Y-109750000D03*
X154250000Y-109750000D03*
X153450000Y-109750000D03*
X152650000Y-109750000D03*
X151850000Y-109750000D03*
X151050000Y-109750000D03*
X150250000Y-109750000D03*
%TD*%
D11*
%TO.C,R11*%
X144210974Y-105753052D03*
X142385974Y-105753052D03*
%TD*%
D23*
%TO.C,U1*%
X140487500Y-89550000D03*
X140487500Y-90500000D03*
X140487500Y-91450000D03*
X142762500Y-91450000D03*
X142762500Y-89550000D03*
%TD*%
D24*
%TO.C,C2*%
X163530000Y-112250000D03*
X165430000Y-112250000D03*
%TD*%
D10*
%TO.C,C11*%
X160000000Y-117050000D03*
X160000000Y-118950000D03*
%TD*%
D11*
%TO.C,R22*%
X154512500Y-102000000D03*
X152687500Y-102000000D03*
%TD*%
D25*
%TO.C,D3*%
X156400000Y-71000000D03*
X153100000Y-71000000D03*
%TD*%
D15*
%TO.C,C5*%
X154750000Y-133200000D03*
X154750000Y-131300000D03*
%TD*%
D26*
%TO.C,Q5*%
X145500000Y-122300000D03*
X145500000Y-120400000D03*
X143625000Y-121350000D03*
%TD*%
D18*
%TO.C,C10*%
X144250000Y-113400000D03*
X142350000Y-113400000D03*
%TD*%
D14*
%TO.C,R2*%
X163587500Y-109970000D03*
X165412500Y-109970000D03*
%TD*%
D10*
%TO.C,C8*%
X146125000Y-87750000D03*
X146125000Y-89650000D03*
%TD*%
D27*
%TO.C,U4*%
X150850000Y-124650000D03*
X149750000Y-124650000D03*
X148650000Y-124650000D03*
X147550000Y-124650000D03*
X146450000Y-124650000D03*
X145350000Y-124650000D03*
X144250000Y-124650000D03*
X143150000Y-124650000D03*
X142050000Y-124650000D03*
X142050000Y-134350000D03*
X143150000Y-134350000D03*
X144250000Y-134350000D03*
X145350000Y-134350000D03*
X146450000Y-134350000D03*
X147550000Y-134350000D03*
X148650000Y-134350000D03*
X149750000Y-134350000D03*
X150850000Y-134350000D03*
%TD*%
D28*
%TO.C,L2*%
X143248699Y-80501301D03*
X144751301Y-78998699D03*
%TD*%
D12*
%TO.C,JPV2*%
X167250000Y-72000000D03*
X167250000Y-129750000D03*
X167250000Y-133625000D03*
X167250000Y-137500000D03*
%TD*%
D29*
%TO.C,R23*%
X148800000Y-120487500D03*
X148800000Y-122312500D03*
%TD*%
D19*
%TO.C,ANT2a1*%
X144750000Y-73500000D03*
%TD*%
D18*
%TO.C,C18*%
X148450000Y-77750000D03*
X146550000Y-77750000D03*
%TD*%
D29*
%TO.C,R6*%
X145600000Y-115787500D03*
X145600000Y-117612500D03*
%TD*%
D30*
%TO.C,D1*%
X139750000Y-79500000D03*
X139750000Y-75500000D03*
%TD*%
D18*
%TO.C,C19*%
X148450000Y-74750000D03*
X146550000Y-74750000D03*
%TD*%
D14*
%TO.C,R4*%
X158837500Y-99727500D03*
X160662500Y-99727500D03*
%TD*%
D11*
%TO.C,R3*%
X165412500Y-114500000D03*
X163587500Y-114500000D03*
%TD*%
%TO.C,R19*%
X165412500Y-99250000D03*
X163587500Y-99250000D03*
%TD*%
D10*
%TO.C,C9*%
X148750000Y-87750000D03*
X148750000Y-89650000D03*
%TD*%
D15*
%TO.C,C13*%
X160000000Y-114950000D03*
X160000000Y-113050000D03*
%TD*%
D20*
%TO.C,Q4*%
X162712500Y-101756250D03*
X162712500Y-103656250D03*
X164587500Y-102706250D03*
%TD*%
D24*
%TO.C,C6*%
X140175000Y-86450000D03*
X142075000Y-86450000D03*
%TD*%
%TO.C,C15*%
X161550000Y-124250000D03*
X163450000Y-124250000D03*
%TD*%
D11*
%TO.C,R13*%
X144210974Y-100751526D03*
X142385974Y-100751526D03*
%TD*%
D31*
%TO.C,L1*%
X144751301Y-84501301D03*
X143248699Y-82998699D03*
%TD*%
D32*
%TO.C,ANT2*%
X145250000Y-69750000D03*
D33*
X142425000Y-70000000D03*
X148075000Y-70000000D03*
%TD*%
D34*
%TO.C,Y1*%
X142850000Y-117700000D03*
X142850000Y-116500000D03*
X142850000Y-115300000D03*
%TD*%
D31*
%TO.C,L3*%
X144751301Y-76501301D03*
X143248699Y-74998699D03*
%TD*%
D18*
%TO.C,C4*%
X164700000Y-85000000D03*
X162800000Y-85000000D03*
%TD*%
D14*
%TO.C,R5*%
X161607500Y-131000000D03*
X163432500Y-131000000D03*
%TD*%
D35*
%TO.C,J1*%
X155700000Y-139000000D03*
D36*
X155700000Y-136460000D03*
X158240000Y-139000000D03*
X158240000Y-136460000D03*
X160780000Y-139000000D03*
X160780000Y-136460000D03*
%TD*%
D16*
%TO.C,D6*%
X161602500Y-128750000D03*
X163477500Y-128750000D03*
%TD*%
D14*
%TO.C,R16*%
X161587500Y-122000000D03*
X163412500Y-122000000D03*
%TD*%
D30*
%TO.C,D2*%
X163500000Y-78750000D03*
X163500000Y-74750000D03*
%TD*%
D14*
%TO.C,R14*%
X142385974Y-98250000D03*
X144210974Y-98250000D03*
%TD*%
D20*
%TO.C,Q3*%
X147375000Y-96300000D03*
X147375000Y-98200000D03*
X149250000Y-97250000D03*
%TD*%
D14*
%TO.C,R8*%
X154587500Y-85000000D03*
X156412500Y-85000000D03*
%TD*%
D11*
%TO.C,R18*%
X165412500Y-106456250D03*
X163587500Y-106456250D03*
%TD*%
D24*
%TO.C,C3*%
X142328474Y-111000000D03*
X144228474Y-111000000D03*
%TD*%
D30*
%TO.C,D4*%
X154000000Y-78750000D03*
X154000000Y-74750000D03*
%TD*%
D20*
%TO.C,Q1*%
X147375000Y-105753052D03*
X147375000Y-107653052D03*
X149250000Y-106703052D03*
%TD*%
D18*
%TO.C,C17*%
X148450000Y-81250000D03*
X146550000Y-81250000D03*
%TD*%
D11*
%TO.C,R15*%
X144210974Y-96000000D03*
X142385974Y-96000000D03*
%TD*%
D35*
%TO.C,J2*%
X155700000Y-90740000D03*
D36*
X155700000Y-88200000D03*
X158240000Y-90740000D03*
X158240000Y-88200000D03*
X160780000Y-90740000D03*
X160780000Y-88200000D03*
X163320000Y-90740000D03*
X163320000Y-88200000D03*
%TD*%
D15*
%TO.C,C20*%
X140300000Y-122350000D03*
X140300000Y-120450000D03*
%TD*%
D37*
%TO.C,C1*%
X160250000Y-71000000D03*
D38*
X160250000Y-82500000D03*
%TD*%
M02*
