%TF.GenerationSoftware,KiCad,Pcbnew,9.0.0*%
%TF.CreationDate,2025-04-07T21:59:35-05:00*%
%TF.ProjectId,ptSolar,7074536f-6c61-4722-9e6b-696361645f70,rev?*%
%TF.SameCoordinates,Original*%
%TF.FileFunction,Legend,Top*%
%TF.FilePolarity,Positive*%
%FSLAX46Y46*%
G04 Gerber Fmt 4.6, Leading zero omitted, Abs format (unit mm)*
G04 Created by KiCad (PCBNEW 9.0.0) date 2025-04-07 21:59:35*
%MOMM*%
%LPD*%
G01*
G04 APERTURE LIST*
%ADD10C,0.100000*%
%ADD11C,0.200000*%
%ADD12C,0.150000*%
%ADD13C,0.120000*%
%ADD14C,0.450000*%
G04 APERTURE END LIST*
D10*
X160000000Y-94750000D02*
X161500000Y-94750000D01*
X160750000Y-94250000D02*
X161750000Y-94250000D01*
D11*
X154000000Y-93250000D02*
X162000000Y-93250000D01*
D10*
X160750000Y-94250000D02*
X159750000Y-94250000D01*
X153500000Y-139500000D02*
X152500000Y-140000000D01*
X152500000Y-139000000D01*
X153500000Y-139500000D01*
G36*
X153500000Y-139500000D02*
G01*
X152500000Y-140000000D01*
X152500000Y-139000000D01*
X153500000Y-139500000D01*
G37*
X160375000Y-95250000D02*
X161125000Y-95250000D01*
X160750000Y-93750000D02*
X160750000Y-94250000D01*
D12*
X153336779Y-94869819D02*
X153336779Y-93869819D01*
X153336779Y-93869819D02*
X153717731Y-93869819D01*
X153717731Y-93869819D02*
X153812969Y-93917438D01*
X153812969Y-93917438D02*
X153860588Y-93965057D01*
X153860588Y-93965057D02*
X153908207Y-94060295D01*
X153908207Y-94060295D02*
X153908207Y-94203152D01*
X153908207Y-94203152D02*
X153860588Y-94298390D01*
X153860588Y-94298390D02*
X153812969Y-94346009D01*
X153812969Y-94346009D02*
X153717731Y-94393628D01*
X153717731Y-94393628D02*
X153336779Y-94393628D01*
X154336779Y-94869819D02*
X154336779Y-94203152D01*
X154336779Y-94393628D02*
X154384398Y-94298390D01*
X154384398Y-94298390D02*
X154432017Y-94250771D01*
X154432017Y-94250771D02*
X154527255Y-94203152D01*
X154527255Y-94203152D02*
X154622493Y-94203152D01*
X155098684Y-94869819D02*
X155003446Y-94822200D01*
X155003446Y-94822200D02*
X154955827Y-94774580D01*
X154955827Y-94774580D02*
X154908208Y-94679342D01*
X154908208Y-94679342D02*
X154908208Y-94393628D01*
X154908208Y-94393628D02*
X154955827Y-94298390D01*
X154955827Y-94298390D02*
X155003446Y-94250771D01*
X155003446Y-94250771D02*
X155098684Y-94203152D01*
X155098684Y-94203152D02*
X155241541Y-94203152D01*
X155241541Y-94203152D02*
X155336779Y-94250771D01*
X155336779Y-94250771D02*
X155384398Y-94298390D01*
X155384398Y-94298390D02*
X155432017Y-94393628D01*
X155432017Y-94393628D02*
X155432017Y-94679342D01*
X155432017Y-94679342D02*
X155384398Y-94774580D01*
X155384398Y-94774580D02*
X155336779Y-94822200D01*
X155336779Y-94822200D02*
X155241541Y-94869819D01*
X155241541Y-94869819D02*
X155098684Y-94869819D01*
X156289160Y-94203152D02*
X156289160Y-95012676D01*
X156289160Y-95012676D02*
X156241541Y-95107914D01*
X156241541Y-95107914D02*
X156193922Y-95155533D01*
X156193922Y-95155533D02*
X156098684Y-95203152D01*
X156098684Y-95203152D02*
X155955827Y-95203152D01*
X155955827Y-95203152D02*
X155860589Y-95155533D01*
X156289160Y-94822200D02*
X156193922Y-94869819D01*
X156193922Y-94869819D02*
X156003446Y-94869819D01*
X156003446Y-94869819D02*
X155908208Y-94822200D01*
X155908208Y-94822200D02*
X155860589Y-94774580D01*
X155860589Y-94774580D02*
X155812970Y-94679342D01*
X155812970Y-94679342D02*
X155812970Y-94393628D01*
X155812970Y-94393628D02*
X155860589Y-94298390D01*
X155860589Y-94298390D02*
X155908208Y-94250771D01*
X155908208Y-94250771D02*
X156003446Y-94203152D01*
X156003446Y-94203152D02*
X156193922Y-94203152D01*
X156193922Y-94203152D02*
X156289160Y-94250771D01*
X156765351Y-94869819D02*
X156765351Y-94203152D01*
X156765351Y-94393628D02*
X156812970Y-94298390D01*
X156812970Y-94298390D02*
X156860589Y-94250771D01*
X156860589Y-94250771D02*
X156955827Y-94203152D01*
X156955827Y-94203152D02*
X157051065Y-94203152D01*
X157812970Y-94869819D02*
X157812970Y-94346009D01*
X157812970Y-94346009D02*
X157765351Y-94250771D01*
X157765351Y-94250771D02*
X157670113Y-94203152D01*
X157670113Y-94203152D02*
X157479637Y-94203152D01*
X157479637Y-94203152D02*
X157384399Y-94250771D01*
X157812970Y-94822200D02*
X157717732Y-94869819D01*
X157717732Y-94869819D02*
X157479637Y-94869819D01*
X157479637Y-94869819D02*
X157384399Y-94822200D01*
X157384399Y-94822200D02*
X157336780Y-94726961D01*
X157336780Y-94726961D02*
X157336780Y-94631723D01*
X157336780Y-94631723D02*
X157384399Y-94536485D01*
X157384399Y-94536485D02*
X157479637Y-94488866D01*
X157479637Y-94488866D02*
X157717732Y-94488866D01*
X157717732Y-94488866D02*
X157812970Y-94441247D01*
X158289161Y-94869819D02*
X158289161Y-94203152D01*
X158289161Y-94298390D02*
X158336780Y-94250771D01*
X158336780Y-94250771D02*
X158432018Y-94203152D01*
X158432018Y-94203152D02*
X158574875Y-94203152D01*
X158574875Y-94203152D02*
X158670113Y-94250771D01*
X158670113Y-94250771D02*
X158717732Y-94346009D01*
X158717732Y-94346009D02*
X158717732Y-94869819D01*
X158717732Y-94346009D02*
X158765351Y-94250771D01*
X158765351Y-94250771D02*
X158860589Y-94203152D01*
X158860589Y-94203152D02*
X159003446Y-94203152D01*
X159003446Y-94203152D02*
X159098685Y-94250771D01*
X159098685Y-94250771D02*
X159146304Y-94346009D01*
X159146304Y-94346009D02*
X159146304Y-94869819D01*
X164119819Y-139663220D02*
X163119819Y-139663220D01*
X164024580Y-138615602D02*
X164072200Y-138663221D01*
X164072200Y-138663221D02*
X164119819Y-138806078D01*
X164119819Y-138806078D02*
X164119819Y-138901316D01*
X164119819Y-138901316D02*
X164072200Y-139044173D01*
X164072200Y-139044173D02*
X163976961Y-139139411D01*
X163976961Y-139139411D02*
X163881723Y-139187030D01*
X163881723Y-139187030D02*
X163691247Y-139234649D01*
X163691247Y-139234649D02*
X163548390Y-139234649D01*
X163548390Y-139234649D02*
X163357914Y-139187030D01*
X163357914Y-139187030D02*
X163262676Y-139139411D01*
X163262676Y-139139411D02*
X163167438Y-139044173D01*
X163167438Y-139044173D02*
X163119819Y-138901316D01*
X163119819Y-138901316D02*
X163119819Y-138806078D01*
X163119819Y-138806078D02*
X163167438Y-138663221D01*
X163167438Y-138663221D02*
X163215057Y-138615602D01*
X164072200Y-138234649D02*
X164119819Y-138091792D01*
X164119819Y-138091792D02*
X164119819Y-137853697D01*
X164119819Y-137853697D02*
X164072200Y-137758459D01*
X164072200Y-137758459D02*
X164024580Y-137710840D01*
X164024580Y-137710840D02*
X163929342Y-137663221D01*
X163929342Y-137663221D02*
X163834104Y-137663221D01*
X163834104Y-137663221D02*
X163738866Y-137710840D01*
X163738866Y-137710840D02*
X163691247Y-137758459D01*
X163691247Y-137758459D02*
X163643628Y-137853697D01*
X163643628Y-137853697D02*
X163596009Y-138044173D01*
X163596009Y-138044173D02*
X163548390Y-138139411D01*
X163548390Y-138139411D02*
X163500771Y-138187030D01*
X163500771Y-138187030D02*
X163405533Y-138234649D01*
X163405533Y-138234649D02*
X163310295Y-138234649D01*
X163310295Y-138234649D02*
X163215057Y-138187030D01*
X163215057Y-138187030D02*
X163167438Y-138139411D01*
X163167438Y-138139411D02*
X163119819Y-138044173D01*
X163119819Y-138044173D02*
X163119819Y-137806078D01*
X163119819Y-137806078D02*
X163167438Y-137663221D01*
X164119819Y-137234649D02*
X163119819Y-137234649D01*
X163119819Y-137234649D02*
X163119819Y-136853697D01*
X163119819Y-136853697D02*
X163167438Y-136758459D01*
X163167438Y-136758459D02*
X163215057Y-136710840D01*
X163215057Y-136710840D02*
X163310295Y-136663221D01*
X163310295Y-136663221D02*
X163453152Y-136663221D01*
X163453152Y-136663221D02*
X163548390Y-136710840D01*
X163548390Y-136710840D02*
X163596009Y-136758459D01*
X163596009Y-136758459D02*
X163643628Y-136853697D01*
X163643628Y-136853697D02*
X163643628Y-137234649D01*
X151254819Y-121815793D02*
X150778628Y-122149126D01*
X151254819Y-122387221D02*
X150254819Y-122387221D01*
X150254819Y-122387221D02*
X150254819Y-122006269D01*
X150254819Y-122006269D02*
X150302438Y-121911031D01*
X150302438Y-121911031D02*
X150350057Y-121863412D01*
X150350057Y-121863412D02*
X150445295Y-121815793D01*
X150445295Y-121815793D02*
X150588152Y-121815793D01*
X150588152Y-121815793D02*
X150683390Y-121863412D01*
X150683390Y-121863412D02*
X150731009Y-121911031D01*
X150731009Y-121911031D02*
X150778628Y-122006269D01*
X150778628Y-122006269D02*
X150778628Y-122387221D01*
X150350057Y-121434840D02*
X150302438Y-121387221D01*
X150302438Y-121387221D02*
X150254819Y-121291983D01*
X150254819Y-121291983D02*
X150254819Y-121053888D01*
X150254819Y-121053888D02*
X150302438Y-120958650D01*
X150302438Y-120958650D02*
X150350057Y-120911031D01*
X150350057Y-120911031D02*
X150445295Y-120863412D01*
X150445295Y-120863412D02*
X150540533Y-120863412D01*
X150540533Y-120863412D02*
X150683390Y-120911031D01*
X150683390Y-120911031D02*
X151254819Y-121482459D01*
X151254819Y-121482459D02*
X151254819Y-120863412D01*
X150254819Y-120530078D02*
X150254819Y-119911031D01*
X150254819Y-119911031D02*
X150635771Y-120244364D01*
X150635771Y-120244364D02*
X150635771Y-120101507D01*
X150635771Y-120101507D02*
X150683390Y-120006269D01*
X150683390Y-120006269D02*
X150731009Y-119958650D01*
X150731009Y-119958650D02*
X150826247Y-119911031D01*
X150826247Y-119911031D02*
X151064342Y-119911031D01*
X151064342Y-119911031D02*
X151159580Y-119958650D01*
X151159580Y-119958650D02*
X151207200Y-120006269D01*
X151207200Y-120006269D02*
X151254819Y-120101507D01*
X151254819Y-120101507D02*
X151254819Y-120387221D01*
X151254819Y-120387221D02*
X151207200Y-120482459D01*
X151207200Y-120482459D02*
X151159580Y-120530078D01*
X139550057Y-121971428D02*
X139502438Y-122066666D01*
X139502438Y-122066666D02*
X139407200Y-122161904D01*
X139407200Y-122161904D02*
X139264342Y-122304761D01*
X139264342Y-122304761D02*
X139216723Y-122399999D01*
X139216723Y-122399999D02*
X139216723Y-122495237D01*
X139454819Y-122447618D02*
X139407200Y-122542856D01*
X139407200Y-122542856D02*
X139311961Y-122638094D01*
X139311961Y-122638094D02*
X139121485Y-122685713D01*
X139121485Y-122685713D02*
X138788152Y-122685713D01*
X138788152Y-122685713D02*
X138597676Y-122638094D01*
X138597676Y-122638094D02*
X138502438Y-122542856D01*
X138502438Y-122542856D02*
X138454819Y-122447618D01*
X138454819Y-122447618D02*
X138454819Y-122257142D01*
X138454819Y-122257142D02*
X138502438Y-122161904D01*
X138502438Y-122161904D02*
X138597676Y-122066666D01*
X138597676Y-122066666D02*
X138788152Y-122019047D01*
X138788152Y-122019047D02*
X139121485Y-122019047D01*
X139121485Y-122019047D02*
X139311961Y-122066666D01*
X139311961Y-122066666D02*
X139407200Y-122161904D01*
X139407200Y-122161904D02*
X139454819Y-122257142D01*
X139454819Y-122257142D02*
X139454819Y-122447618D01*
X139454819Y-121066666D02*
X139454819Y-121638094D01*
X139454819Y-121352380D02*
X138454819Y-121352380D01*
X138454819Y-121352380D02*
X138597676Y-121447618D01*
X138597676Y-121447618D02*
X138692914Y-121542856D01*
X138692914Y-121542856D02*
X138740533Y-121638094D01*
X138454819Y-120733332D02*
X138454819Y-120114285D01*
X138454819Y-120114285D02*
X138835771Y-120447618D01*
X138835771Y-120447618D02*
X138835771Y-120304761D01*
X138835771Y-120304761D02*
X138883390Y-120209523D01*
X138883390Y-120209523D02*
X138931009Y-120161904D01*
X138931009Y-120161904D02*
X139026247Y-120114285D01*
X139026247Y-120114285D02*
X139264342Y-120114285D01*
X139264342Y-120114285D02*
X139359580Y-120161904D01*
X139359580Y-120161904D02*
X139407200Y-120209523D01*
X139407200Y-120209523D02*
X139454819Y-120304761D01*
X139454819Y-120304761D02*
X139454819Y-120590475D01*
X139454819Y-120590475D02*
X139407200Y-120685713D01*
X139407200Y-120685713D02*
X139359580Y-120733332D01*
X155857142Y-106954819D02*
X155523809Y-106478628D01*
X155285714Y-106954819D02*
X155285714Y-105954819D01*
X155285714Y-105954819D02*
X155666666Y-105954819D01*
X155666666Y-105954819D02*
X155761904Y-106002438D01*
X155761904Y-106002438D02*
X155809523Y-106050057D01*
X155809523Y-106050057D02*
X155857142Y-106145295D01*
X155857142Y-106145295D02*
X155857142Y-106288152D01*
X155857142Y-106288152D02*
X155809523Y-106383390D01*
X155809523Y-106383390D02*
X155761904Y-106431009D01*
X155761904Y-106431009D02*
X155666666Y-106478628D01*
X155666666Y-106478628D02*
X155285714Y-106478628D01*
X156238095Y-106050057D02*
X156285714Y-106002438D01*
X156285714Y-106002438D02*
X156380952Y-105954819D01*
X156380952Y-105954819D02*
X156619047Y-105954819D01*
X156619047Y-105954819D02*
X156714285Y-106002438D01*
X156714285Y-106002438D02*
X156761904Y-106050057D01*
X156761904Y-106050057D02*
X156809523Y-106145295D01*
X156809523Y-106145295D02*
X156809523Y-106240533D01*
X156809523Y-106240533D02*
X156761904Y-106383390D01*
X156761904Y-106383390D02*
X156190476Y-106954819D01*
X156190476Y-106954819D02*
X156809523Y-106954819D01*
X157428571Y-105954819D02*
X157523809Y-105954819D01*
X157523809Y-105954819D02*
X157619047Y-106002438D01*
X157619047Y-106002438D02*
X157666666Y-106050057D01*
X157666666Y-106050057D02*
X157714285Y-106145295D01*
X157714285Y-106145295D02*
X157761904Y-106335771D01*
X157761904Y-106335771D02*
X157761904Y-106573866D01*
X157761904Y-106573866D02*
X157714285Y-106764342D01*
X157714285Y-106764342D02*
X157666666Y-106859580D01*
X157666666Y-106859580D02*
X157619047Y-106907200D01*
X157619047Y-106907200D02*
X157523809Y-106954819D01*
X157523809Y-106954819D02*
X157428571Y-106954819D01*
X157428571Y-106954819D02*
X157333333Y-106907200D01*
X157333333Y-106907200D02*
X157285714Y-106859580D01*
X157285714Y-106859580D02*
X157238095Y-106764342D01*
X157238095Y-106764342D02*
X157190476Y-106573866D01*
X157190476Y-106573866D02*
X157190476Y-106335771D01*
X157190476Y-106335771D02*
X157238095Y-106145295D01*
X157238095Y-106145295D02*
X157285714Y-106050057D01*
X157285714Y-106050057D02*
X157333333Y-106002438D01*
X157333333Y-106002438D02*
X157428571Y-105954819D01*
X139086779Y-135738866D02*
X139848684Y-135738866D01*
X139836779Y-70238866D02*
X140598684Y-70238866D01*
X140217731Y-70619819D02*
X140217731Y-69857914D01*
X145630952Y-137169104D02*
X146107142Y-137169104D01*
X145535714Y-137454819D02*
X145869047Y-136454819D01*
X145869047Y-136454819D02*
X146202380Y-137454819D01*
X146535714Y-137454819D02*
X146535714Y-136454819D01*
X146535714Y-136454819D02*
X147107142Y-137454819D01*
X147107142Y-137454819D02*
X147107142Y-136454819D01*
X147440476Y-136454819D02*
X148011904Y-136454819D01*
X147726190Y-137454819D02*
X147726190Y-136454819D01*
X148869047Y-137454819D02*
X148297619Y-137454819D01*
X148583333Y-137454819D02*
X148583333Y-136454819D01*
X148583333Y-136454819D02*
X148488095Y-136597676D01*
X148488095Y-136597676D02*
X148392857Y-136692914D01*
X148392857Y-136692914D02*
X148297619Y-136740533D01*
X155857142Y-97954819D02*
X155523809Y-97478628D01*
X155285714Y-97954819D02*
X155285714Y-96954819D01*
X155285714Y-96954819D02*
X155666666Y-96954819D01*
X155666666Y-96954819D02*
X155761904Y-97002438D01*
X155761904Y-97002438D02*
X155809523Y-97050057D01*
X155809523Y-97050057D02*
X155857142Y-97145295D01*
X155857142Y-97145295D02*
X155857142Y-97288152D01*
X155857142Y-97288152D02*
X155809523Y-97383390D01*
X155809523Y-97383390D02*
X155761904Y-97431009D01*
X155761904Y-97431009D02*
X155666666Y-97478628D01*
X155666666Y-97478628D02*
X155285714Y-97478628D01*
X156809523Y-97954819D02*
X156238095Y-97954819D01*
X156523809Y-97954819D02*
X156523809Y-96954819D01*
X156523809Y-96954819D02*
X156428571Y-97097676D01*
X156428571Y-97097676D02*
X156333333Y-97192914D01*
X156333333Y-97192914D02*
X156238095Y-97240533D01*
X157142857Y-96954819D02*
X157809523Y-96954819D01*
X157809523Y-96954819D02*
X157380952Y-97954819D01*
X159353333Y-133704819D02*
X159020000Y-133228628D01*
X158781905Y-133704819D02*
X158781905Y-132704819D01*
X158781905Y-132704819D02*
X159162857Y-132704819D01*
X159162857Y-132704819D02*
X159258095Y-132752438D01*
X159258095Y-132752438D02*
X159305714Y-132800057D01*
X159305714Y-132800057D02*
X159353333Y-132895295D01*
X159353333Y-132895295D02*
X159353333Y-133038152D01*
X159353333Y-133038152D02*
X159305714Y-133133390D01*
X159305714Y-133133390D02*
X159258095Y-133181009D01*
X159258095Y-133181009D02*
X159162857Y-133228628D01*
X159162857Y-133228628D02*
X158781905Y-133228628D01*
X159686667Y-132704819D02*
X160353333Y-132704819D01*
X160353333Y-132704819D02*
X159924762Y-133704819D01*
X139405616Y-103456345D02*
X139072283Y-102980154D01*
X138834188Y-103456345D02*
X138834188Y-102456345D01*
X138834188Y-102456345D02*
X139215140Y-102456345D01*
X139215140Y-102456345D02*
X139310378Y-102503964D01*
X139310378Y-102503964D02*
X139357997Y-102551583D01*
X139357997Y-102551583D02*
X139405616Y-102646821D01*
X139405616Y-102646821D02*
X139405616Y-102789678D01*
X139405616Y-102789678D02*
X139357997Y-102884916D01*
X139357997Y-102884916D02*
X139310378Y-102932535D01*
X139310378Y-102932535D02*
X139215140Y-102980154D01*
X139215140Y-102980154D02*
X138834188Y-102980154D01*
X140357997Y-103456345D02*
X139786569Y-103456345D01*
X140072283Y-103456345D02*
X140072283Y-102456345D01*
X140072283Y-102456345D02*
X139977045Y-102599202D01*
X139977045Y-102599202D02*
X139881807Y-102694440D01*
X139881807Y-102694440D02*
X139786569Y-102742059D01*
X140738950Y-102551583D02*
X140786569Y-102503964D01*
X140786569Y-102503964D02*
X140881807Y-102456345D01*
X140881807Y-102456345D02*
X141119902Y-102456345D01*
X141119902Y-102456345D02*
X141215140Y-102503964D01*
X141215140Y-102503964D02*
X141262759Y-102551583D01*
X141262759Y-102551583D02*
X141310378Y-102646821D01*
X141310378Y-102646821D02*
X141310378Y-102742059D01*
X141310378Y-102742059D02*
X141262759Y-102884916D01*
X141262759Y-102884916D02*
X140691331Y-103456345D01*
X140691331Y-103456345D02*
X141310378Y-103456345D01*
X144859580Y-92566666D02*
X144907200Y-92614285D01*
X144907200Y-92614285D02*
X144954819Y-92757142D01*
X144954819Y-92757142D02*
X144954819Y-92852380D01*
X144954819Y-92852380D02*
X144907200Y-92995237D01*
X144907200Y-92995237D02*
X144811961Y-93090475D01*
X144811961Y-93090475D02*
X144716723Y-93138094D01*
X144716723Y-93138094D02*
X144526247Y-93185713D01*
X144526247Y-93185713D02*
X144383390Y-93185713D01*
X144383390Y-93185713D02*
X144192914Y-93138094D01*
X144192914Y-93138094D02*
X144097676Y-93090475D01*
X144097676Y-93090475D02*
X144002438Y-92995237D01*
X144002438Y-92995237D02*
X143954819Y-92852380D01*
X143954819Y-92852380D02*
X143954819Y-92757142D01*
X143954819Y-92757142D02*
X144002438Y-92614285D01*
X144002438Y-92614285D02*
X144050057Y-92566666D01*
X143954819Y-92233332D02*
X143954819Y-91566666D01*
X143954819Y-91566666D02*
X144954819Y-91995237D01*
X156031905Y-102454819D02*
X156031905Y-101454819D01*
X156031905Y-101454819D02*
X156270000Y-101454819D01*
X156270000Y-101454819D02*
X156412857Y-101502438D01*
X156412857Y-101502438D02*
X156508095Y-101597676D01*
X156508095Y-101597676D02*
X156555714Y-101692914D01*
X156555714Y-101692914D02*
X156603333Y-101883390D01*
X156603333Y-101883390D02*
X156603333Y-102026247D01*
X156603333Y-102026247D02*
X156555714Y-102216723D01*
X156555714Y-102216723D02*
X156508095Y-102311961D01*
X156508095Y-102311961D02*
X156412857Y-102407200D01*
X156412857Y-102407200D02*
X156270000Y-102454819D01*
X156270000Y-102454819D02*
X156031905Y-102454819D01*
X157508095Y-101454819D02*
X157031905Y-101454819D01*
X157031905Y-101454819D02*
X156984286Y-101931009D01*
X156984286Y-101931009D02*
X157031905Y-101883390D01*
X157031905Y-101883390D02*
X157127143Y-101835771D01*
X157127143Y-101835771D02*
X157365238Y-101835771D01*
X157365238Y-101835771D02*
X157460476Y-101883390D01*
X157460476Y-101883390D02*
X157508095Y-101931009D01*
X157508095Y-101931009D02*
X157555714Y-102026247D01*
X157555714Y-102026247D02*
X157555714Y-102264342D01*
X157555714Y-102264342D02*
X157508095Y-102359580D01*
X157508095Y-102359580D02*
X157460476Y-102407200D01*
X157460476Y-102407200D02*
X157365238Y-102454819D01*
X157365238Y-102454819D02*
X157127143Y-102454819D01*
X157127143Y-102454819D02*
X157031905Y-102407200D01*
X157031905Y-102407200D02*
X156984286Y-102359580D01*
X158083333Y-81954819D02*
X157750000Y-81478628D01*
X157511905Y-81954819D02*
X157511905Y-80954819D01*
X157511905Y-80954819D02*
X157892857Y-80954819D01*
X157892857Y-80954819D02*
X157988095Y-81002438D01*
X157988095Y-81002438D02*
X158035714Y-81050057D01*
X158035714Y-81050057D02*
X158083333Y-81145295D01*
X158083333Y-81145295D02*
X158083333Y-81288152D01*
X158083333Y-81288152D02*
X158035714Y-81383390D01*
X158035714Y-81383390D02*
X157988095Y-81431009D01*
X157988095Y-81431009D02*
X157892857Y-81478628D01*
X157892857Y-81478628D02*
X157511905Y-81478628D01*
X159035714Y-81954819D02*
X158464286Y-81954819D01*
X158750000Y-81954819D02*
X158750000Y-80954819D01*
X158750000Y-80954819D02*
X158654762Y-81097676D01*
X158654762Y-81097676D02*
X158559524Y-81192914D01*
X158559524Y-81192914D02*
X158464286Y-81240533D01*
X139607142Y-108454819D02*
X139273809Y-107978628D01*
X139035714Y-108454819D02*
X139035714Y-107454819D01*
X139035714Y-107454819D02*
X139416666Y-107454819D01*
X139416666Y-107454819D02*
X139511904Y-107502438D01*
X139511904Y-107502438D02*
X139559523Y-107550057D01*
X139559523Y-107550057D02*
X139607142Y-107645295D01*
X139607142Y-107645295D02*
X139607142Y-107788152D01*
X139607142Y-107788152D02*
X139559523Y-107883390D01*
X139559523Y-107883390D02*
X139511904Y-107931009D01*
X139511904Y-107931009D02*
X139416666Y-107978628D01*
X139416666Y-107978628D02*
X139035714Y-107978628D01*
X140559523Y-108454819D02*
X139988095Y-108454819D01*
X140273809Y-108454819D02*
X140273809Y-107454819D01*
X140273809Y-107454819D02*
X140178571Y-107597676D01*
X140178571Y-107597676D02*
X140083333Y-107692914D01*
X140083333Y-107692914D02*
X139988095Y-107740533D01*
X141178571Y-107454819D02*
X141273809Y-107454819D01*
X141273809Y-107454819D02*
X141369047Y-107502438D01*
X141369047Y-107502438D02*
X141416666Y-107550057D01*
X141416666Y-107550057D02*
X141464285Y-107645295D01*
X141464285Y-107645295D02*
X141511904Y-107835771D01*
X141511904Y-107835771D02*
X141511904Y-108073866D01*
X141511904Y-108073866D02*
X141464285Y-108264342D01*
X141464285Y-108264342D02*
X141416666Y-108359580D01*
X141416666Y-108359580D02*
X141369047Y-108407200D01*
X141369047Y-108407200D02*
X141273809Y-108454819D01*
X141273809Y-108454819D02*
X141178571Y-108454819D01*
X141178571Y-108454819D02*
X141083333Y-108407200D01*
X141083333Y-108407200D02*
X141035714Y-108359580D01*
X141035714Y-108359580D02*
X140988095Y-108264342D01*
X140988095Y-108264342D02*
X140940476Y-108073866D01*
X140940476Y-108073866D02*
X140940476Y-107835771D01*
X140940476Y-107835771D02*
X140988095Y-107645295D01*
X140988095Y-107645295D02*
X141035714Y-107550057D01*
X141035714Y-107550057D02*
X141083333Y-107502438D01*
X141083333Y-107502438D02*
X141178571Y-107454819D01*
X150607142Y-84609580D02*
X150559523Y-84657200D01*
X150559523Y-84657200D02*
X150416666Y-84704819D01*
X150416666Y-84704819D02*
X150321428Y-84704819D01*
X150321428Y-84704819D02*
X150178571Y-84657200D01*
X150178571Y-84657200D02*
X150083333Y-84561961D01*
X150083333Y-84561961D02*
X150035714Y-84466723D01*
X150035714Y-84466723D02*
X149988095Y-84276247D01*
X149988095Y-84276247D02*
X149988095Y-84133390D01*
X149988095Y-84133390D02*
X150035714Y-83942914D01*
X150035714Y-83942914D02*
X150083333Y-83847676D01*
X150083333Y-83847676D02*
X150178571Y-83752438D01*
X150178571Y-83752438D02*
X150321428Y-83704819D01*
X150321428Y-83704819D02*
X150416666Y-83704819D01*
X150416666Y-83704819D02*
X150559523Y-83752438D01*
X150559523Y-83752438D02*
X150607142Y-83800057D01*
X151559523Y-84704819D02*
X150988095Y-84704819D01*
X151273809Y-84704819D02*
X151273809Y-83704819D01*
X151273809Y-83704819D02*
X151178571Y-83847676D01*
X151178571Y-83847676D02*
X151083333Y-83942914D01*
X151083333Y-83942914D02*
X150988095Y-83990533D01*
X152416666Y-83704819D02*
X152226190Y-83704819D01*
X152226190Y-83704819D02*
X152130952Y-83752438D01*
X152130952Y-83752438D02*
X152083333Y-83800057D01*
X152083333Y-83800057D02*
X151988095Y-83942914D01*
X151988095Y-83942914D02*
X151940476Y-84133390D01*
X151940476Y-84133390D02*
X151940476Y-84514342D01*
X151940476Y-84514342D02*
X151988095Y-84609580D01*
X151988095Y-84609580D02*
X152035714Y-84657200D01*
X152035714Y-84657200D02*
X152130952Y-84704819D01*
X152130952Y-84704819D02*
X152321428Y-84704819D01*
X152321428Y-84704819D02*
X152416666Y-84657200D01*
X152416666Y-84657200D02*
X152464285Y-84609580D01*
X152464285Y-84609580D02*
X152511904Y-84514342D01*
X152511904Y-84514342D02*
X152511904Y-84276247D01*
X152511904Y-84276247D02*
X152464285Y-84181009D01*
X152464285Y-84181009D02*
X152416666Y-84133390D01*
X152416666Y-84133390D02*
X152321428Y-84085771D01*
X152321428Y-84085771D02*
X152130952Y-84085771D01*
X152130952Y-84085771D02*
X152035714Y-84133390D01*
X152035714Y-84133390D02*
X151988095Y-84181009D01*
X151988095Y-84181009D02*
X151940476Y-84276247D01*
X158607142Y-126859580D02*
X158559523Y-126907200D01*
X158559523Y-126907200D02*
X158416666Y-126954819D01*
X158416666Y-126954819D02*
X158321428Y-126954819D01*
X158321428Y-126954819D02*
X158178571Y-126907200D01*
X158178571Y-126907200D02*
X158083333Y-126811961D01*
X158083333Y-126811961D02*
X158035714Y-126716723D01*
X158035714Y-126716723D02*
X157988095Y-126526247D01*
X157988095Y-126526247D02*
X157988095Y-126383390D01*
X157988095Y-126383390D02*
X158035714Y-126192914D01*
X158035714Y-126192914D02*
X158083333Y-126097676D01*
X158083333Y-126097676D02*
X158178571Y-126002438D01*
X158178571Y-126002438D02*
X158321428Y-125954819D01*
X158321428Y-125954819D02*
X158416666Y-125954819D01*
X158416666Y-125954819D02*
X158559523Y-126002438D01*
X158559523Y-126002438D02*
X158607142Y-126050057D01*
X159559523Y-126954819D02*
X158988095Y-126954819D01*
X159273809Y-126954819D02*
X159273809Y-125954819D01*
X159273809Y-125954819D02*
X159178571Y-126097676D01*
X159178571Y-126097676D02*
X159083333Y-126192914D01*
X159083333Y-126192914D02*
X158988095Y-126240533D01*
X160416666Y-126288152D02*
X160416666Y-126954819D01*
X160178571Y-125907200D02*
X159940476Y-126621485D01*
X159940476Y-126621485D02*
X160559523Y-126621485D01*
X156107142Y-104704819D02*
X155773809Y-104228628D01*
X155535714Y-104704819D02*
X155535714Y-103704819D01*
X155535714Y-103704819D02*
X155916666Y-103704819D01*
X155916666Y-103704819D02*
X156011904Y-103752438D01*
X156011904Y-103752438D02*
X156059523Y-103800057D01*
X156059523Y-103800057D02*
X156107142Y-103895295D01*
X156107142Y-103895295D02*
X156107142Y-104038152D01*
X156107142Y-104038152D02*
X156059523Y-104133390D01*
X156059523Y-104133390D02*
X156011904Y-104181009D01*
X156011904Y-104181009D02*
X155916666Y-104228628D01*
X155916666Y-104228628D02*
X155535714Y-104228628D01*
X156488095Y-103800057D02*
X156535714Y-103752438D01*
X156535714Y-103752438D02*
X156630952Y-103704819D01*
X156630952Y-103704819D02*
X156869047Y-103704819D01*
X156869047Y-103704819D02*
X156964285Y-103752438D01*
X156964285Y-103752438D02*
X157011904Y-103800057D01*
X157011904Y-103800057D02*
X157059523Y-103895295D01*
X157059523Y-103895295D02*
X157059523Y-103990533D01*
X157059523Y-103990533D02*
X157011904Y-104133390D01*
X157011904Y-104133390D02*
X156440476Y-104704819D01*
X156440476Y-104704819D02*
X157059523Y-104704819D01*
X158011904Y-104704819D02*
X157440476Y-104704819D01*
X157726190Y-104704819D02*
X157726190Y-103704819D01*
X157726190Y-103704819D02*
X157630952Y-103847676D01*
X157630952Y-103847676D02*
X157535714Y-103942914D01*
X157535714Y-103942914D02*
X157440476Y-103990533D01*
X158333333Y-83804819D02*
X158000000Y-83328628D01*
X157761905Y-83804819D02*
X157761905Y-82804819D01*
X157761905Y-82804819D02*
X158142857Y-82804819D01*
X158142857Y-82804819D02*
X158238095Y-82852438D01*
X158238095Y-82852438D02*
X158285714Y-82900057D01*
X158285714Y-82900057D02*
X158333333Y-82995295D01*
X158333333Y-82995295D02*
X158333333Y-83138152D01*
X158333333Y-83138152D02*
X158285714Y-83233390D01*
X158285714Y-83233390D02*
X158238095Y-83281009D01*
X158238095Y-83281009D02*
X158142857Y-83328628D01*
X158142857Y-83328628D02*
X157761905Y-83328628D01*
X158809524Y-83804819D02*
X159000000Y-83804819D01*
X159000000Y-83804819D02*
X159095238Y-83757200D01*
X159095238Y-83757200D02*
X159142857Y-83709580D01*
X159142857Y-83709580D02*
X159238095Y-83566723D01*
X159238095Y-83566723D02*
X159285714Y-83376247D01*
X159285714Y-83376247D02*
X159285714Y-82995295D01*
X159285714Y-82995295D02*
X159238095Y-82900057D01*
X159238095Y-82900057D02*
X159190476Y-82852438D01*
X159190476Y-82852438D02*
X159095238Y-82804819D01*
X159095238Y-82804819D02*
X158904762Y-82804819D01*
X158904762Y-82804819D02*
X158809524Y-82852438D01*
X158809524Y-82852438D02*
X158761905Y-82900057D01*
X158761905Y-82900057D02*
X158714286Y-82995295D01*
X158714286Y-82995295D02*
X158714286Y-83233390D01*
X158714286Y-83233390D02*
X158761905Y-83328628D01*
X158761905Y-83328628D02*
X158809524Y-83376247D01*
X158809524Y-83376247D02*
X158904762Y-83423866D01*
X158904762Y-83423866D02*
X159095238Y-83423866D01*
X159095238Y-83423866D02*
X159190476Y-83376247D01*
X159190476Y-83376247D02*
X159238095Y-83328628D01*
X159238095Y-83328628D02*
X159285714Y-83233390D01*
X150404761Y-100800057D02*
X150309523Y-100752438D01*
X150309523Y-100752438D02*
X150214285Y-100657200D01*
X150214285Y-100657200D02*
X150071428Y-100514342D01*
X150071428Y-100514342D02*
X149976190Y-100466723D01*
X149976190Y-100466723D02*
X149880952Y-100466723D01*
X149928571Y-100704819D02*
X149833333Y-100657200D01*
X149833333Y-100657200D02*
X149738095Y-100561961D01*
X149738095Y-100561961D02*
X149690476Y-100371485D01*
X149690476Y-100371485D02*
X149690476Y-100038152D01*
X149690476Y-100038152D02*
X149738095Y-99847676D01*
X149738095Y-99847676D02*
X149833333Y-99752438D01*
X149833333Y-99752438D02*
X149928571Y-99704819D01*
X149928571Y-99704819D02*
X150119047Y-99704819D01*
X150119047Y-99704819D02*
X150214285Y-99752438D01*
X150214285Y-99752438D02*
X150309523Y-99847676D01*
X150309523Y-99847676D02*
X150357142Y-100038152D01*
X150357142Y-100038152D02*
X150357142Y-100371485D01*
X150357142Y-100371485D02*
X150309523Y-100561961D01*
X150309523Y-100561961D02*
X150214285Y-100657200D01*
X150214285Y-100657200D02*
X150119047Y-100704819D01*
X150119047Y-100704819D02*
X149928571Y-100704819D01*
X150738095Y-99800057D02*
X150785714Y-99752438D01*
X150785714Y-99752438D02*
X150880952Y-99704819D01*
X150880952Y-99704819D02*
X151119047Y-99704819D01*
X151119047Y-99704819D02*
X151214285Y-99752438D01*
X151214285Y-99752438D02*
X151261904Y-99800057D01*
X151261904Y-99800057D02*
X151309523Y-99895295D01*
X151309523Y-99895295D02*
X151309523Y-99990533D01*
X151309523Y-99990533D02*
X151261904Y-100133390D01*
X151261904Y-100133390D02*
X150690476Y-100704819D01*
X150690476Y-100704819D02*
X151309523Y-100704819D01*
X155738095Y-119654819D02*
X155738095Y-120464342D01*
X155738095Y-120464342D02*
X155785714Y-120559580D01*
X155785714Y-120559580D02*
X155833333Y-120607200D01*
X155833333Y-120607200D02*
X155928571Y-120654819D01*
X155928571Y-120654819D02*
X156119047Y-120654819D01*
X156119047Y-120654819D02*
X156214285Y-120607200D01*
X156214285Y-120607200D02*
X156261904Y-120559580D01*
X156261904Y-120559580D02*
X156309523Y-120464342D01*
X156309523Y-120464342D02*
X156309523Y-119654819D01*
X156738095Y-119750057D02*
X156785714Y-119702438D01*
X156785714Y-119702438D02*
X156880952Y-119654819D01*
X156880952Y-119654819D02*
X157119047Y-119654819D01*
X157119047Y-119654819D02*
X157214285Y-119702438D01*
X157214285Y-119702438D02*
X157261904Y-119750057D01*
X157261904Y-119750057D02*
X157309523Y-119845295D01*
X157309523Y-119845295D02*
X157309523Y-119940533D01*
X157309523Y-119940533D02*
X157261904Y-120083390D01*
X157261904Y-120083390D02*
X156690476Y-120654819D01*
X156690476Y-120654819D02*
X157309523Y-120654819D01*
X139607142Y-106204819D02*
X139273809Y-105728628D01*
X139035714Y-106204819D02*
X139035714Y-105204819D01*
X139035714Y-105204819D02*
X139416666Y-105204819D01*
X139416666Y-105204819D02*
X139511904Y-105252438D01*
X139511904Y-105252438D02*
X139559523Y-105300057D01*
X139559523Y-105300057D02*
X139607142Y-105395295D01*
X139607142Y-105395295D02*
X139607142Y-105538152D01*
X139607142Y-105538152D02*
X139559523Y-105633390D01*
X139559523Y-105633390D02*
X139511904Y-105681009D01*
X139511904Y-105681009D02*
X139416666Y-105728628D01*
X139416666Y-105728628D02*
X139035714Y-105728628D01*
X140559523Y-106204819D02*
X139988095Y-106204819D01*
X140273809Y-106204819D02*
X140273809Y-105204819D01*
X140273809Y-105204819D02*
X140178571Y-105347676D01*
X140178571Y-105347676D02*
X140083333Y-105442914D01*
X140083333Y-105442914D02*
X139988095Y-105490533D01*
X141511904Y-106204819D02*
X140940476Y-106204819D01*
X141226190Y-106204819D02*
X141226190Y-105204819D01*
X141226190Y-105204819D02*
X141130952Y-105347676D01*
X141130952Y-105347676D02*
X141035714Y-105442914D01*
X141035714Y-105442914D02*
X140940476Y-105490533D01*
X140863095Y-87554819D02*
X140863095Y-88364342D01*
X140863095Y-88364342D02*
X140910714Y-88459580D01*
X140910714Y-88459580D02*
X140958333Y-88507200D01*
X140958333Y-88507200D02*
X141053571Y-88554819D01*
X141053571Y-88554819D02*
X141244047Y-88554819D01*
X141244047Y-88554819D02*
X141339285Y-88507200D01*
X141339285Y-88507200D02*
X141386904Y-88459580D01*
X141386904Y-88459580D02*
X141434523Y-88364342D01*
X141434523Y-88364342D02*
X141434523Y-87554819D01*
X142434523Y-88554819D02*
X141863095Y-88554819D01*
X142148809Y-88554819D02*
X142148809Y-87554819D01*
X142148809Y-87554819D02*
X142053571Y-87697676D01*
X142053571Y-87697676D02*
X141958333Y-87792914D01*
X141958333Y-87792914D02*
X141863095Y-87840533D01*
X161583333Y-112609580D02*
X161535714Y-112657200D01*
X161535714Y-112657200D02*
X161392857Y-112704819D01*
X161392857Y-112704819D02*
X161297619Y-112704819D01*
X161297619Y-112704819D02*
X161154762Y-112657200D01*
X161154762Y-112657200D02*
X161059524Y-112561961D01*
X161059524Y-112561961D02*
X161011905Y-112466723D01*
X161011905Y-112466723D02*
X160964286Y-112276247D01*
X160964286Y-112276247D02*
X160964286Y-112133390D01*
X160964286Y-112133390D02*
X161011905Y-111942914D01*
X161011905Y-111942914D02*
X161059524Y-111847676D01*
X161059524Y-111847676D02*
X161154762Y-111752438D01*
X161154762Y-111752438D02*
X161297619Y-111704819D01*
X161297619Y-111704819D02*
X161392857Y-111704819D01*
X161392857Y-111704819D02*
X161535714Y-111752438D01*
X161535714Y-111752438D02*
X161583333Y-111800057D01*
X161964286Y-111800057D02*
X162011905Y-111752438D01*
X162011905Y-111752438D02*
X162107143Y-111704819D01*
X162107143Y-111704819D02*
X162345238Y-111704819D01*
X162345238Y-111704819D02*
X162440476Y-111752438D01*
X162440476Y-111752438D02*
X162488095Y-111800057D01*
X162488095Y-111800057D02*
X162535714Y-111895295D01*
X162535714Y-111895295D02*
X162535714Y-111990533D01*
X162535714Y-111990533D02*
X162488095Y-112133390D01*
X162488095Y-112133390D02*
X161916667Y-112704819D01*
X161916667Y-112704819D02*
X162535714Y-112704819D01*
X162109580Y-118642857D02*
X162157200Y-118690476D01*
X162157200Y-118690476D02*
X162204819Y-118833333D01*
X162204819Y-118833333D02*
X162204819Y-118928571D01*
X162204819Y-118928571D02*
X162157200Y-119071428D01*
X162157200Y-119071428D02*
X162061961Y-119166666D01*
X162061961Y-119166666D02*
X161966723Y-119214285D01*
X161966723Y-119214285D02*
X161776247Y-119261904D01*
X161776247Y-119261904D02*
X161633390Y-119261904D01*
X161633390Y-119261904D02*
X161442914Y-119214285D01*
X161442914Y-119214285D02*
X161347676Y-119166666D01*
X161347676Y-119166666D02*
X161252438Y-119071428D01*
X161252438Y-119071428D02*
X161204819Y-118928571D01*
X161204819Y-118928571D02*
X161204819Y-118833333D01*
X161204819Y-118833333D02*
X161252438Y-118690476D01*
X161252438Y-118690476D02*
X161300057Y-118642857D01*
X162204819Y-117690476D02*
X162204819Y-118261904D01*
X162204819Y-117976190D02*
X161204819Y-117976190D01*
X161204819Y-117976190D02*
X161347676Y-118071428D01*
X161347676Y-118071428D02*
X161442914Y-118166666D01*
X161442914Y-118166666D02*
X161490533Y-118261904D01*
X162204819Y-116738095D02*
X162204819Y-117309523D01*
X162204819Y-117023809D02*
X161204819Y-117023809D01*
X161204819Y-117023809D02*
X161347676Y-117119047D01*
X161347676Y-117119047D02*
X161442914Y-117214285D01*
X161442914Y-117214285D02*
X161490533Y-117309523D01*
X152957142Y-104104819D02*
X152623809Y-103628628D01*
X152385714Y-104104819D02*
X152385714Y-103104819D01*
X152385714Y-103104819D02*
X152766666Y-103104819D01*
X152766666Y-103104819D02*
X152861904Y-103152438D01*
X152861904Y-103152438D02*
X152909523Y-103200057D01*
X152909523Y-103200057D02*
X152957142Y-103295295D01*
X152957142Y-103295295D02*
X152957142Y-103438152D01*
X152957142Y-103438152D02*
X152909523Y-103533390D01*
X152909523Y-103533390D02*
X152861904Y-103581009D01*
X152861904Y-103581009D02*
X152766666Y-103628628D01*
X152766666Y-103628628D02*
X152385714Y-103628628D01*
X153338095Y-103200057D02*
X153385714Y-103152438D01*
X153385714Y-103152438D02*
X153480952Y-103104819D01*
X153480952Y-103104819D02*
X153719047Y-103104819D01*
X153719047Y-103104819D02*
X153814285Y-103152438D01*
X153814285Y-103152438D02*
X153861904Y-103200057D01*
X153861904Y-103200057D02*
X153909523Y-103295295D01*
X153909523Y-103295295D02*
X153909523Y-103390533D01*
X153909523Y-103390533D02*
X153861904Y-103533390D01*
X153861904Y-103533390D02*
X153290476Y-104104819D01*
X153290476Y-104104819D02*
X153909523Y-104104819D01*
X154290476Y-103200057D02*
X154338095Y-103152438D01*
X154338095Y-103152438D02*
X154433333Y-103104819D01*
X154433333Y-103104819D02*
X154671428Y-103104819D01*
X154671428Y-103104819D02*
X154766666Y-103152438D01*
X154766666Y-103152438D02*
X154814285Y-103200057D01*
X154814285Y-103200057D02*
X154861904Y-103295295D01*
X154861904Y-103295295D02*
X154861904Y-103390533D01*
X154861904Y-103390533D02*
X154814285Y-103533390D01*
X154814285Y-103533390D02*
X154242857Y-104104819D01*
X154242857Y-104104819D02*
X154861904Y-104104819D01*
X154011905Y-69454819D02*
X154011905Y-68454819D01*
X154011905Y-68454819D02*
X154250000Y-68454819D01*
X154250000Y-68454819D02*
X154392857Y-68502438D01*
X154392857Y-68502438D02*
X154488095Y-68597676D01*
X154488095Y-68597676D02*
X154535714Y-68692914D01*
X154535714Y-68692914D02*
X154583333Y-68883390D01*
X154583333Y-68883390D02*
X154583333Y-69026247D01*
X154583333Y-69026247D02*
X154535714Y-69216723D01*
X154535714Y-69216723D02*
X154488095Y-69311961D01*
X154488095Y-69311961D02*
X154392857Y-69407200D01*
X154392857Y-69407200D02*
X154250000Y-69454819D01*
X154250000Y-69454819D02*
X154011905Y-69454819D01*
X154916667Y-68454819D02*
X155535714Y-68454819D01*
X155535714Y-68454819D02*
X155202381Y-68835771D01*
X155202381Y-68835771D02*
X155345238Y-68835771D01*
X155345238Y-68835771D02*
X155440476Y-68883390D01*
X155440476Y-68883390D02*
X155488095Y-68931009D01*
X155488095Y-68931009D02*
X155535714Y-69026247D01*
X155535714Y-69026247D02*
X155535714Y-69264342D01*
X155535714Y-69264342D02*
X155488095Y-69359580D01*
X155488095Y-69359580D02*
X155440476Y-69407200D01*
X155440476Y-69407200D02*
X155345238Y-69454819D01*
X155345238Y-69454819D02*
X155059524Y-69454819D01*
X155059524Y-69454819D02*
X154964286Y-69407200D01*
X154964286Y-69407200D02*
X154916667Y-69359580D01*
X155109580Y-129666666D02*
X155157200Y-129714285D01*
X155157200Y-129714285D02*
X155204819Y-129857142D01*
X155204819Y-129857142D02*
X155204819Y-129952380D01*
X155204819Y-129952380D02*
X155157200Y-130095237D01*
X155157200Y-130095237D02*
X155061961Y-130190475D01*
X155061961Y-130190475D02*
X154966723Y-130238094D01*
X154966723Y-130238094D02*
X154776247Y-130285713D01*
X154776247Y-130285713D02*
X154633390Y-130285713D01*
X154633390Y-130285713D02*
X154442914Y-130238094D01*
X154442914Y-130238094D02*
X154347676Y-130190475D01*
X154347676Y-130190475D02*
X154252438Y-130095237D01*
X154252438Y-130095237D02*
X154204819Y-129952380D01*
X154204819Y-129952380D02*
X154204819Y-129857142D01*
X154204819Y-129857142D02*
X154252438Y-129714285D01*
X154252438Y-129714285D02*
X154300057Y-129666666D01*
X154204819Y-128761904D02*
X154204819Y-129238094D01*
X154204819Y-129238094D02*
X154681009Y-129285713D01*
X154681009Y-129285713D02*
X154633390Y-129238094D01*
X154633390Y-129238094D02*
X154585771Y-129142856D01*
X154585771Y-129142856D02*
X154585771Y-128904761D01*
X154585771Y-128904761D02*
X154633390Y-128809523D01*
X154633390Y-128809523D02*
X154681009Y-128761904D01*
X154681009Y-128761904D02*
X154776247Y-128714285D01*
X154776247Y-128714285D02*
X155014342Y-128714285D01*
X155014342Y-128714285D02*
X155109580Y-128761904D01*
X155109580Y-128761904D02*
X155157200Y-128809523D01*
X155157200Y-128809523D02*
X155204819Y-128904761D01*
X155204819Y-128904761D02*
X155204819Y-129142856D01*
X155204819Y-129142856D02*
X155157200Y-129238094D01*
X155157200Y-129238094D02*
X155109580Y-129285713D01*
X139407142Y-113759580D02*
X139359523Y-113807200D01*
X139359523Y-113807200D02*
X139216666Y-113854819D01*
X139216666Y-113854819D02*
X139121428Y-113854819D01*
X139121428Y-113854819D02*
X138978571Y-113807200D01*
X138978571Y-113807200D02*
X138883333Y-113711961D01*
X138883333Y-113711961D02*
X138835714Y-113616723D01*
X138835714Y-113616723D02*
X138788095Y-113426247D01*
X138788095Y-113426247D02*
X138788095Y-113283390D01*
X138788095Y-113283390D02*
X138835714Y-113092914D01*
X138835714Y-113092914D02*
X138883333Y-112997676D01*
X138883333Y-112997676D02*
X138978571Y-112902438D01*
X138978571Y-112902438D02*
X139121428Y-112854819D01*
X139121428Y-112854819D02*
X139216666Y-112854819D01*
X139216666Y-112854819D02*
X139359523Y-112902438D01*
X139359523Y-112902438D02*
X139407142Y-112950057D01*
X140359523Y-113854819D02*
X139788095Y-113854819D01*
X140073809Y-113854819D02*
X140073809Y-112854819D01*
X140073809Y-112854819D02*
X139978571Y-112997676D01*
X139978571Y-112997676D02*
X139883333Y-113092914D01*
X139883333Y-113092914D02*
X139788095Y-113140533D01*
X140978571Y-112854819D02*
X141073809Y-112854819D01*
X141073809Y-112854819D02*
X141169047Y-112902438D01*
X141169047Y-112902438D02*
X141216666Y-112950057D01*
X141216666Y-112950057D02*
X141264285Y-113045295D01*
X141264285Y-113045295D02*
X141311904Y-113235771D01*
X141311904Y-113235771D02*
X141311904Y-113473866D01*
X141311904Y-113473866D02*
X141264285Y-113664342D01*
X141264285Y-113664342D02*
X141216666Y-113759580D01*
X141216666Y-113759580D02*
X141169047Y-113807200D01*
X141169047Y-113807200D02*
X141073809Y-113854819D01*
X141073809Y-113854819D02*
X140978571Y-113854819D01*
X140978571Y-113854819D02*
X140883333Y-113807200D01*
X140883333Y-113807200D02*
X140835714Y-113759580D01*
X140835714Y-113759580D02*
X140788095Y-113664342D01*
X140788095Y-113664342D02*
X140740476Y-113473866D01*
X140740476Y-113473866D02*
X140740476Y-113235771D01*
X140740476Y-113235771D02*
X140788095Y-113045295D01*
X140788095Y-113045295D02*
X140835714Y-112950057D01*
X140835714Y-112950057D02*
X140883333Y-112902438D01*
X140883333Y-112902438D02*
X140978571Y-112854819D01*
X161833333Y-110454819D02*
X161500000Y-109978628D01*
X161261905Y-110454819D02*
X161261905Y-109454819D01*
X161261905Y-109454819D02*
X161642857Y-109454819D01*
X161642857Y-109454819D02*
X161738095Y-109502438D01*
X161738095Y-109502438D02*
X161785714Y-109550057D01*
X161785714Y-109550057D02*
X161833333Y-109645295D01*
X161833333Y-109645295D02*
X161833333Y-109788152D01*
X161833333Y-109788152D02*
X161785714Y-109883390D01*
X161785714Y-109883390D02*
X161738095Y-109931009D01*
X161738095Y-109931009D02*
X161642857Y-109978628D01*
X161642857Y-109978628D02*
X161261905Y-109978628D01*
X162214286Y-109550057D02*
X162261905Y-109502438D01*
X162261905Y-109502438D02*
X162357143Y-109454819D01*
X162357143Y-109454819D02*
X162595238Y-109454819D01*
X162595238Y-109454819D02*
X162690476Y-109502438D01*
X162690476Y-109502438D02*
X162738095Y-109550057D01*
X162738095Y-109550057D02*
X162785714Y-109645295D01*
X162785714Y-109645295D02*
X162785714Y-109740533D01*
X162785714Y-109740533D02*
X162738095Y-109883390D01*
X162738095Y-109883390D02*
X162166667Y-110454819D01*
X162166667Y-110454819D02*
X162785714Y-110454819D01*
X144859580Y-88666666D02*
X144907200Y-88714285D01*
X144907200Y-88714285D02*
X144954819Y-88857142D01*
X144954819Y-88857142D02*
X144954819Y-88952380D01*
X144954819Y-88952380D02*
X144907200Y-89095237D01*
X144907200Y-89095237D02*
X144811961Y-89190475D01*
X144811961Y-89190475D02*
X144716723Y-89238094D01*
X144716723Y-89238094D02*
X144526247Y-89285713D01*
X144526247Y-89285713D02*
X144383390Y-89285713D01*
X144383390Y-89285713D02*
X144192914Y-89238094D01*
X144192914Y-89238094D02*
X144097676Y-89190475D01*
X144097676Y-89190475D02*
X144002438Y-89095237D01*
X144002438Y-89095237D02*
X143954819Y-88952380D01*
X143954819Y-88952380D02*
X143954819Y-88857142D01*
X143954819Y-88857142D02*
X144002438Y-88714285D01*
X144002438Y-88714285D02*
X144050057Y-88666666D01*
X144383390Y-88095237D02*
X144335771Y-88190475D01*
X144335771Y-88190475D02*
X144288152Y-88238094D01*
X144288152Y-88238094D02*
X144192914Y-88285713D01*
X144192914Y-88285713D02*
X144145295Y-88285713D01*
X144145295Y-88285713D02*
X144050057Y-88238094D01*
X144050057Y-88238094D02*
X144002438Y-88190475D01*
X144002438Y-88190475D02*
X143954819Y-88095237D01*
X143954819Y-88095237D02*
X143954819Y-87904761D01*
X143954819Y-87904761D02*
X144002438Y-87809523D01*
X144002438Y-87809523D02*
X144050057Y-87761904D01*
X144050057Y-87761904D02*
X144145295Y-87714285D01*
X144145295Y-87714285D02*
X144192914Y-87714285D01*
X144192914Y-87714285D02*
X144288152Y-87761904D01*
X144288152Y-87761904D02*
X144335771Y-87809523D01*
X144335771Y-87809523D02*
X144383390Y-87904761D01*
X144383390Y-87904761D02*
X144383390Y-88095237D01*
X144383390Y-88095237D02*
X144431009Y-88190475D01*
X144431009Y-88190475D02*
X144478628Y-88238094D01*
X144478628Y-88238094D02*
X144573866Y-88285713D01*
X144573866Y-88285713D02*
X144764342Y-88285713D01*
X144764342Y-88285713D02*
X144859580Y-88238094D01*
X144859580Y-88238094D02*
X144907200Y-88190475D01*
X144907200Y-88190475D02*
X144954819Y-88095237D01*
X144954819Y-88095237D02*
X144954819Y-87904761D01*
X144954819Y-87904761D02*
X144907200Y-87809523D01*
X144907200Y-87809523D02*
X144859580Y-87761904D01*
X144859580Y-87761904D02*
X144764342Y-87714285D01*
X144764342Y-87714285D02*
X144573866Y-87714285D01*
X144573866Y-87714285D02*
X144478628Y-87761904D01*
X144478628Y-87761904D02*
X144431009Y-87809523D01*
X144431009Y-87809523D02*
X144383390Y-87904761D01*
X152454819Y-128461904D02*
X153264342Y-128461904D01*
X153264342Y-128461904D02*
X153359580Y-128414285D01*
X153359580Y-128414285D02*
X153407200Y-128366666D01*
X153407200Y-128366666D02*
X153454819Y-128271428D01*
X153454819Y-128271428D02*
X153454819Y-128080952D01*
X153454819Y-128080952D02*
X153407200Y-127985714D01*
X153407200Y-127985714D02*
X153359580Y-127938095D01*
X153359580Y-127938095D02*
X153264342Y-127890476D01*
X153264342Y-127890476D02*
X152454819Y-127890476D01*
X152788152Y-126985714D02*
X153454819Y-126985714D01*
X152407200Y-127223809D02*
X153121485Y-127461904D01*
X153121485Y-127461904D02*
X153121485Y-126842857D01*
X143107738Y-79093440D02*
X142771021Y-79430158D01*
X142771021Y-79430158D02*
X142063914Y-78723051D01*
X142670006Y-78251646D02*
X142670006Y-78184303D01*
X142670006Y-78184303D02*
X142703677Y-78083287D01*
X142703677Y-78083287D02*
X142872036Y-77914929D01*
X142872036Y-77914929D02*
X142973051Y-77881257D01*
X142973051Y-77881257D02*
X143040395Y-77881257D01*
X143040395Y-77881257D02*
X143141410Y-77914929D01*
X143141410Y-77914929D02*
X143208754Y-77982272D01*
X143208754Y-77982272D02*
X143276097Y-78116959D01*
X143276097Y-78116959D02*
X143276097Y-78925081D01*
X143276097Y-78925081D02*
X143713830Y-78487348D01*
X164086779Y-70488866D02*
X164848684Y-70488866D01*
X164467731Y-70869819D02*
X164467731Y-70107914D01*
X164336779Y-135738866D02*
X165098684Y-135738866D01*
X150107142Y-78109580D02*
X150059523Y-78157200D01*
X150059523Y-78157200D02*
X149916666Y-78204819D01*
X149916666Y-78204819D02*
X149821428Y-78204819D01*
X149821428Y-78204819D02*
X149678571Y-78157200D01*
X149678571Y-78157200D02*
X149583333Y-78061961D01*
X149583333Y-78061961D02*
X149535714Y-77966723D01*
X149535714Y-77966723D02*
X149488095Y-77776247D01*
X149488095Y-77776247D02*
X149488095Y-77633390D01*
X149488095Y-77633390D02*
X149535714Y-77442914D01*
X149535714Y-77442914D02*
X149583333Y-77347676D01*
X149583333Y-77347676D02*
X149678571Y-77252438D01*
X149678571Y-77252438D02*
X149821428Y-77204819D01*
X149821428Y-77204819D02*
X149916666Y-77204819D01*
X149916666Y-77204819D02*
X150059523Y-77252438D01*
X150059523Y-77252438D02*
X150107142Y-77300057D01*
X151059523Y-78204819D02*
X150488095Y-78204819D01*
X150773809Y-78204819D02*
X150773809Y-77204819D01*
X150773809Y-77204819D02*
X150678571Y-77347676D01*
X150678571Y-77347676D02*
X150583333Y-77442914D01*
X150583333Y-77442914D02*
X150488095Y-77490533D01*
X151630952Y-77633390D02*
X151535714Y-77585771D01*
X151535714Y-77585771D02*
X151488095Y-77538152D01*
X151488095Y-77538152D02*
X151440476Y-77442914D01*
X151440476Y-77442914D02*
X151440476Y-77395295D01*
X151440476Y-77395295D02*
X151488095Y-77300057D01*
X151488095Y-77300057D02*
X151535714Y-77252438D01*
X151535714Y-77252438D02*
X151630952Y-77204819D01*
X151630952Y-77204819D02*
X151821428Y-77204819D01*
X151821428Y-77204819D02*
X151916666Y-77252438D01*
X151916666Y-77252438D02*
X151964285Y-77300057D01*
X151964285Y-77300057D02*
X152011904Y-77395295D01*
X152011904Y-77395295D02*
X152011904Y-77442914D01*
X152011904Y-77442914D02*
X151964285Y-77538152D01*
X151964285Y-77538152D02*
X151916666Y-77585771D01*
X151916666Y-77585771D02*
X151821428Y-77633390D01*
X151821428Y-77633390D02*
X151630952Y-77633390D01*
X151630952Y-77633390D02*
X151535714Y-77681009D01*
X151535714Y-77681009D02*
X151488095Y-77728628D01*
X151488095Y-77728628D02*
X151440476Y-77823866D01*
X151440476Y-77823866D02*
X151440476Y-78014342D01*
X151440476Y-78014342D02*
X151488095Y-78109580D01*
X151488095Y-78109580D02*
X151535714Y-78157200D01*
X151535714Y-78157200D02*
X151630952Y-78204819D01*
X151630952Y-78204819D02*
X151821428Y-78204819D01*
X151821428Y-78204819D02*
X151916666Y-78157200D01*
X151916666Y-78157200D02*
X151964285Y-78109580D01*
X151964285Y-78109580D02*
X152011904Y-78014342D01*
X152011904Y-78014342D02*
X152011904Y-77823866D01*
X152011904Y-77823866D02*
X151964285Y-77728628D01*
X151964285Y-77728628D02*
X151916666Y-77681009D01*
X151916666Y-77681009D02*
X151821428Y-77633390D01*
X146454819Y-114266666D02*
X145978628Y-114599999D01*
X146454819Y-114838094D02*
X145454819Y-114838094D01*
X145454819Y-114838094D02*
X145454819Y-114457142D01*
X145454819Y-114457142D02*
X145502438Y-114361904D01*
X145502438Y-114361904D02*
X145550057Y-114314285D01*
X145550057Y-114314285D02*
X145645295Y-114266666D01*
X145645295Y-114266666D02*
X145788152Y-114266666D01*
X145788152Y-114266666D02*
X145883390Y-114314285D01*
X145883390Y-114314285D02*
X145931009Y-114361904D01*
X145931009Y-114361904D02*
X145978628Y-114457142D01*
X145978628Y-114457142D02*
X145978628Y-114838094D01*
X145454819Y-113409523D02*
X145454819Y-113599999D01*
X145454819Y-113599999D02*
X145502438Y-113695237D01*
X145502438Y-113695237D02*
X145550057Y-113742856D01*
X145550057Y-113742856D02*
X145692914Y-113838094D01*
X145692914Y-113838094D02*
X145883390Y-113885713D01*
X145883390Y-113885713D02*
X146264342Y-113885713D01*
X146264342Y-113885713D02*
X146359580Y-113838094D01*
X146359580Y-113838094D02*
X146407200Y-113790475D01*
X146407200Y-113790475D02*
X146454819Y-113695237D01*
X146454819Y-113695237D02*
X146454819Y-113504761D01*
X146454819Y-113504761D02*
X146407200Y-113409523D01*
X146407200Y-113409523D02*
X146359580Y-113361904D01*
X146359580Y-113361904D02*
X146264342Y-113314285D01*
X146264342Y-113314285D02*
X146026247Y-113314285D01*
X146026247Y-113314285D02*
X145931009Y-113361904D01*
X145931009Y-113361904D02*
X145883390Y-113409523D01*
X145883390Y-113409523D02*
X145835771Y-113504761D01*
X145835771Y-113504761D02*
X145835771Y-113695237D01*
X145835771Y-113695237D02*
X145883390Y-113790475D01*
X145883390Y-113790475D02*
X145931009Y-113838094D01*
X145931009Y-113838094D02*
X146026247Y-113885713D01*
X139761905Y-73704819D02*
X139761905Y-72704819D01*
X139761905Y-72704819D02*
X140000000Y-72704819D01*
X140000000Y-72704819D02*
X140142857Y-72752438D01*
X140142857Y-72752438D02*
X140238095Y-72847676D01*
X140238095Y-72847676D02*
X140285714Y-72942914D01*
X140285714Y-72942914D02*
X140333333Y-73133390D01*
X140333333Y-73133390D02*
X140333333Y-73276247D01*
X140333333Y-73276247D02*
X140285714Y-73466723D01*
X140285714Y-73466723D02*
X140238095Y-73561961D01*
X140238095Y-73561961D02*
X140142857Y-73657200D01*
X140142857Y-73657200D02*
X140000000Y-73704819D01*
X140000000Y-73704819D02*
X139761905Y-73704819D01*
X141285714Y-73704819D02*
X140714286Y-73704819D01*
X141000000Y-73704819D02*
X141000000Y-72704819D01*
X141000000Y-72704819D02*
X140904762Y-72847676D01*
X140904762Y-72847676D02*
X140809524Y-72942914D01*
X140809524Y-72942914D02*
X140714286Y-72990533D01*
X149857142Y-75359580D02*
X149809523Y-75407200D01*
X149809523Y-75407200D02*
X149666666Y-75454819D01*
X149666666Y-75454819D02*
X149571428Y-75454819D01*
X149571428Y-75454819D02*
X149428571Y-75407200D01*
X149428571Y-75407200D02*
X149333333Y-75311961D01*
X149333333Y-75311961D02*
X149285714Y-75216723D01*
X149285714Y-75216723D02*
X149238095Y-75026247D01*
X149238095Y-75026247D02*
X149238095Y-74883390D01*
X149238095Y-74883390D02*
X149285714Y-74692914D01*
X149285714Y-74692914D02*
X149333333Y-74597676D01*
X149333333Y-74597676D02*
X149428571Y-74502438D01*
X149428571Y-74502438D02*
X149571428Y-74454819D01*
X149571428Y-74454819D02*
X149666666Y-74454819D01*
X149666666Y-74454819D02*
X149809523Y-74502438D01*
X149809523Y-74502438D02*
X149857142Y-74550057D01*
X150809523Y-75454819D02*
X150238095Y-75454819D01*
X150523809Y-75454819D02*
X150523809Y-74454819D01*
X150523809Y-74454819D02*
X150428571Y-74597676D01*
X150428571Y-74597676D02*
X150333333Y-74692914D01*
X150333333Y-74692914D02*
X150238095Y-74740533D01*
X151285714Y-75454819D02*
X151476190Y-75454819D01*
X151476190Y-75454819D02*
X151571428Y-75407200D01*
X151571428Y-75407200D02*
X151619047Y-75359580D01*
X151619047Y-75359580D02*
X151714285Y-75216723D01*
X151714285Y-75216723D02*
X151761904Y-75026247D01*
X151761904Y-75026247D02*
X151761904Y-74645295D01*
X151761904Y-74645295D02*
X151714285Y-74550057D01*
X151714285Y-74550057D02*
X151666666Y-74502438D01*
X151666666Y-74502438D02*
X151571428Y-74454819D01*
X151571428Y-74454819D02*
X151380952Y-74454819D01*
X151380952Y-74454819D02*
X151285714Y-74502438D01*
X151285714Y-74502438D02*
X151238095Y-74550057D01*
X151238095Y-74550057D02*
X151190476Y-74645295D01*
X151190476Y-74645295D02*
X151190476Y-74883390D01*
X151190476Y-74883390D02*
X151238095Y-74978628D01*
X151238095Y-74978628D02*
X151285714Y-75026247D01*
X151285714Y-75026247D02*
X151380952Y-75073866D01*
X151380952Y-75073866D02*
X151571428Y-75073866D01*
X151571428Y-75073866D02*
X151666666Y-75026247D01*
X151666666Y-75026247D02*
X151714285Y-74978628D01*
X151714285Y-74978628D02*
X151761904Y-74883390D01*
X156583333Y-100182319D02*
X156250000Y-99706128D01*
X156011905Y-100182319D02*
X156011905Y-99182319D01*
X156011905Y-99182319D02*
X156392857Y-99182319D01*
X156392857Y-99182319D02*
X156488095Y-99229938D01*
X156488095Y-99229938D02*
X156535714Y-99277557D01*
X156535714Y-99277557D02*
X156583333Y-99372795D01*
X156583333Y-99372795D02*
X156583333Y-99515652D01*
X156583333Y-99515652D02*
X156535714Y-99610890D01*
X156535714Y-99610890D02*
X156488095Y-99658509D01*
X156488095Y-99658509D02*
X156392857Y-99706128D01*
X156392857Y-99706128D02*
X156011905Y-99706128D01*
X157440476Y-99515652D02*
X157440476Y-100182319D01*
X157202381Y-99134700D02*
X156964286Y-99848985D01*
X156964286Y-99848985D02*
X157583333Y-99848985D01*
X164833333Y-116704819D02*
X164500000Y-116228628D01*
X164261905Y-116704819D02*
X164261905Y-115704819D01*
X164261905Y-115704819D02*
X164642857Y-115704819D01*
X164642857Y-115704819D02*
X164738095Y-115752438D01*
X164738095Y-115752438D02*
X164785714Y-115800057D01*
X164785714Y-115800057D02*
X164833333Y-115895295D01*
X164833333Y-115895295D02*
X164833333Y-116038152D01*
X164833333Y-116038152D02*
X164785714Y-116133390D01*
X164785714Y-116133390D02*
X164738095Y-116181009D01*
X164738095Y-116181009D02*
X164642857Y-116228628D01*
X164642857Y-116228628D02*
X164261905Y-116228628D01*
X165166667Y-115704819D02*
X165785714Y-115704819D01*
X165785714Y-115704819D02*
X165452381Y-116085771D01*
X165452381Y-116085771D02*
X165595238Y-116085771D01*
X165595238Y-116085771D02*
X165690476Y-116133390D01*
X165690476Y-116133390D02*
X165738095Y-116181009D01*
X165738095Y-116181009D02*
X165785714Y-116276247D01*
X165785714Y-116276247D02*
X165785714Y-116514342D01*
X165785714Y-116514342D02*
X165738095Y-116609580D01*
X165738095Y-116609580D02*
X165690476Y-116657200D01*
X165690476Y-116657200D02*
X165595238Y-116704819D01*
X165595238Y-116704819D02*
X165309524Y-116704819D01*
X165309524Y-116704819D02*
X165214286Y-116657200D01*
X165214286Y-116657200D02*
X165166667Y-116609580D01*
X163857142Y-97954819D02*
X163523809Y-97478628D01*
X163285714Y-97954819D02*
X163285714Y-96954819D01*
X163285714Y-96954819D02*
X163666666Y-96954819D01*
X163666666Y-96954819D02*
X163761904Y-97002438D01*
X163761904Y-97002438D02*
X163809523Y-97050057D01*
X163809523Y-97050057D02*
X163857142Y-97145295D01*
X163857142Y-97145295D02*
X163857142Y-97288152D01*
X163857142Y-97288152D02*
X163809523Y-97383390D01*
X163809523Y-97383390D02*
X163761904Y-97431009D01*
X163761904Y-97431009D02*
X163666666Y-97478628D01*
X163666666Y-97478628D02*
X163285714Y-97478628D01*
X164809523Y-97954819D02*
X164238095Y-97954819D01*
X164523809Y-97954819D02*
X164523809Y-96954819D01*
X164523809Y-96954819D02*
X164428571Y-97097676D01*
X164428571Y-97097676D02*
X164333333Y-97192914D01*
X164333333Y-97192914D02*
X164238095Y-97240533D01*
X165285714Y-97954819D02*
X165476190Y-97954819D01*
X165476190Y-97954819D02*
X165571428Y-97907200D01*
X165571428Y-97907200D02*
X165619047Y-97859580D01*
X165619047Y-97859580D02*
X165714285Y-97716723D01*
X165714285Y-97716723D02*
X165761904Y-97526247D01*
X165761904Y-97526247D02*
X165761904Y-97145295D01*
X165761904Y-97145295D02*
X165714285Y-97050057D01*
X165714285Y-97050057D02*
X165666666Y-97002438D01*
X165666666Y-97002438D02*
X165571428Y-96954819D01*
X165571428Y-96954819D02*
X165380952Y-96954819D01*
X165380952Y-96954819D02*
X165285714Y-97002438D01*
X165285714Y-97002438D02*
X165238095Y-97050057D01*
X165238095Y-97050057D02*
X165190476Y-97145295D01*
X165190476Y-97145295D02*
X165190476Y-97383390D01*
X165190476Y-97383390D02*
X165238095Y-97478628D01*
X165238095Y-97478628D02*
X165285714Y-97526247D01*
X165285714Y-97526247D02*
X165380952Y-97573866D01*
X165380952Y-97573866D02*
X165571428Y-97573866D01*
X165571428Y-97573866D02*
X165666666Y-97526247D01*
X165666666Y-97526247D02*
X165714285Y-97478628D01*
X165714285Y-97478628D02*
X165761904Y-97383390D01*
X150859580Y-88666666D02*
X150907200Y-88714285D01*
X150907200Y-88714285D02*
X150954819Y-88857142D01*
X150954819Y-88857142D02*
X150954819Y-88952380D01*
X150954819Y-88952380D02*
X150907200Y-89095237D01*
X150907200Y-89095237D02*
X150811961Y-89190475D01*
X150811961Y-89190475D02*
X150716723Y-89238094D01*
X150716723Y-89238094D02*
X150526247Y-89285713D01*
X150526247Y-89285713D02*
X150383390Y-89285713D01*
X150383390Y-89285713D02*
X150192914Y-89238094D01*
X150192914Y-89238094D02*
X150097676Y-89190475D01*
X150097676Y-89190475D02*
X150002438Y-89095237D01*
X150002438Y-89095237D02*
X149954819Y-88952380D01*
X149954819Y-88952380D02*
X149954819Y-88857142D01*
X149954819Y-88857142D02*
X150002438Y-88714285D01*
X150002438Y-88714285D02*
X150050057Y-88666666D01*
X150954819Y-88190475D02*
X150954819Y-87999999D01*
X150954819Y-87999999D02*
X150907200Y-87904761D01*
X150907200Y-87904761D02*
X150859580Y-87857142D01*
X150859580Y-87857142D02*
X150716723Y-87761904D01*
X150716723Y-87761904D02*
X150526247Y-87714285D01*
X150526247Y-87714285D02*
X150145295Y-87714285D01*
X150145295Y-87714285D02*
X150050057Y-87761904D01*
X150050057Y-87761904D02*
X150002438Y-87809523D01*
X150002438Y-87809523D02*
X149954819Y-87904761D01*
X149954819Y-87904761D02*
X149954819Y-88095237D01*
X149954819Y-88095237D02*
X150002438Y-88190475D01*
X150002438Y-88190475D02*
X150050057Y-88238094D01*
X150050057Y-88238094D02*
X150145295Y-88285713D01*
X150145295Y-88285713D02*
X150383390Y-88285713D01*
X150383390Y-88285713D02*
X150478628Y-88238094D01*
X150478628Y-88238094D02*
X150526247Y-88190475D01*
X150526247Y-88190475D02*
X150573866Y-88095237D01*
X150573866Y-88095237D02*
X150573866Y-87904761D01*
X150573866Y-87904761D02*
X150526247Y-87809523D01*
X150526247Y-87809523D02*
X150478628Y-87761904D01*
X150478628Y-87761904D02*
X150383390Y-87714285D01*
X160359580Y-111392857D02*
X160407200Y-111440476D01*
X160407200Y-111440476D02*
X160454819Y-111583333D01*
X160454819Y-111583333D02*
X160454819Y-111678571D01*
X160454819Y-111678571D02*
X160407200Y-111821428D01*
X160407200Y-111821428D02*
X160311961Y-111916666D01*
X160311961Y-111916666D02*
X160216723Y-111964285D01*
X160216723Y-111964285D02*
X160026247Y-112011904D01*
X160026247Y-112011904D02*
X159883390Y-112011904D01*
X159883390Y-112011904D02*
X159692914Y-111964285D01*
X159692914Y-111964285D02*
X159597676Y-111916666D01*
X159597676Y-111916666D02*
X159502438Y-111821428D01*
X159502438Y-111821428D02*
X159454819Y-111678571D01*
X159454819Y-111678571D02*
X159454819Y-111583333D01*
X159454819Y-111583333D02*
X159502438Y-111440476D01*
X159502438Y-111440476D02*
X159550057Y-111392857D01*
X160454819Y-110440476D02*
X160454819Y-111011904D01*
X160454819Y-110726190D02*
X159454819Y-110726190D01*
X159454819Y-110726190D02*
X159597676Y-110821428D01*
X159597676Y-110821428D02*
X159692914Y-110916666D01*
X159692914Y-110916666D02*
X159740533Y-111011904D01*
X159454819Y-110107142D02*
X159454819Y-109488095D01*
X159454819Y-109488095D02*
X159835771Y-109821428D01*
X159835771Y-109821428D02*
X159835771Y-109678571D01*
X159835771Y-109678571D02*
X159883390Y-109583333D01*
X159883390Y-109583333D02*
X159931009Y-109535714D01*
X159931009Y-109535714D02*
X160026247Y-109488095D01*
X160026247Y-109488095D02*
X160264342Y-109488095D01*
X160264342Y-109488095D02*
X160359580Y-109535714D01*
X160359580Y-109535714D02*
X160407200Y-109583333D01*
X160407200Y-109583333D02*
X160454819Y-109678571D01*
X160454819Y-109678571D02*
X160454819Y-109964285D01*
X160454819Y-109964285D02*
X160407200Y-110059523D01*
X160407200Y-110059523D02*
X160359580Y-110107142D01*
X165204761Y-101850057D02*
X165109523Y-101802438D01*
X165109523Y-101802438D02*
X165014285Y-101707200D01*
X165014285Y-101707200D02*
X164871428Y-101564342D01*
X164871428Y-101564342D02*
X164776190Y-101516723D01*
X164776190Y-101516723D02*
X164680952Y-101516723D01*
X164728571Y-101754819D02*
X164633333Y-101707200D01*
X164633333Y-101707200D02*
X164538095Y-101611961D01*
X164538095Y-101611961D02*
X164490476Y-101421485D01*
X164490476Y-101421485D02*
X164490476Y-101088152D01*
X164490476Y-101088152D02*
X164538095Y-100897676D01*
X164538095Y-100897676D02*
X164633333Y-100802438D01*
X164633333Y-100802438D02*
X164728571Y-100754819D01*
X164728571Y-100754819D02*
X164919047Y-100754819D01*
X164919047Y-100754819D02*
X165014285Y-100802438D01*
X165014285Y-100802438D02*
X165109523Y-100897676D01*
X165109523Y-100897676D02*
X165157142Y-101088152D01*
X165157142Y-101088152D02*
X165157142Y-101421485D01*
X165157142Y-101421485D02*
X165109523Y-101611961D01*
X165109523Y-101611961D02*
X165014285Y-101707200D01*
X165014285Y-101707200D02*
X164919047Y-101754819D01*
X164919047Y-101754819D02*
X164728571Y-101754819D01*
X166014285Y-101088152D02*
X166014285Y-101754819D01*
X165776190Y-100707200D02*
X165538095Y-101421485D01*
X165538095Y-101421485D02*
X166157142Y-101421485D01*
X140708333Y-85309580D02*
X140660714Y-85357200D01*
X140660714Y-85357200D02*
X140517857Y-85404819D01*
X140517857Y-85404819D02*
X140422619Y-85404819D01*
X140422619Y-85404819D02*
X140279762Y-85357200D01*
X140279762Y-85357200D02*
X140184524Y-85261961D01*
X140184524Y-85261961D02*
X140136905Y-85166723D01*
X140136905Y-85166723D02*
X140089286Y-84976247D01*
X140089286Y-84976247D02*
X140089286Y-84833390D01*
X140089286Y-84833390D02*
X140136905Y-84642914D01*
X140136905Y-84642914D02*
X140184524Y-84547676D01*
X140184524Y-84547676D02*
X140279762Y-84452438D01*
X140279762Y-84452438D02*
X140422619Y-84404819D01*
X140422619Y-84404819D02*
X140517857Y-84404819D01*
X140517857Y-84404819D02*
X140660714Y-84452438D01*
X140660714Y-84452438D02*
X140708333Y-84500057D01*
X141565476Y-84404819D02*
X141375000Y-84404819D01*
X141375000Y-84404819D02*
X141279762Y-84452438D01*
X141279762Y-84452438D02*
X141232143Y-84500057D01*
X141232143Y-84500057D02*
X141136905Y-84642914D01*
X141136905Y-84642914D02*
X141089286Y-84833390D01*
X141089286Y-84833390D02*
X141089286Y-85214342D01*
X141089286Y-85214342D02*
X141136905Y-85309580D01*
X141136905Y-85309580D02*
X141184524Y-85357200D01*
X141184524Y-85357200D02*
X141279762Y-85404819D01*
X141279762Y-85404819D02*
X141470238Y-85404819D01*
X141470238Y-85404819D02*
X141565476Y-85357200D01*
X141565476Y-85357200D02*
X141613095Y-85309580D01*
X141613095Y-85309580D02*
X141660714Y-85214342D01*
X141660714Y-85214342D02*
X141660714Y-84976247D01*
X141660714Y-84976247D02*
X141613095Y-84881009D01*
X141613095Y-84881009D02*
X141565476Y-84833390D01*
X141565476Y-84833390D02*
X141470238Y-84785771D01*
X141470238Y-84785771D02*
X141279762Y-84785771D01*
X141279762Y-84785771D02*
X141184524Y-84833390D01*
X141184524Y-84833390D02*
X141136905Y-84881009D01*
X141136905Y-84881009D02*
X141089286Y-84976247D01*
X158557142Y-124659580D02*
X158509523Y-124707200D01*
X158509523Y-124707200D02*
X158366666Y-124754819D01*
X158366666Y-124754819D02*
X158271428Y-124754819D01*
X158271428Y-124754819D02*
X158128571Y-124707200D01*
X158128571Y-124707200D02*
X158033333Y-124611961D01*
X158033333Y-124611961D02*
X157985714Y-124516723D01*
X157985714Y-124516723D02*
X157938095Y-124326247D01*
X157938095Y-124326247D02*
X157938095Y-124183390D01*
X157938095Y-124183390D02*
X157985714Y-123992914D01*
X157985714Y-123992914D02*
X158033333Y-123897676D01*
X158033333Y-123897676D02*
X158128571Y-123802438D01*
X158128571Y-123802438D02*
X158271428Y-123754819D01*
X158271428Y-123754819D02*
X158366666Y-123754819D01*
X158366666Y-123754819D02*
X158509523Y-123802438D01*
X158509523Y-123802438D02*
X158557142Y-123850057D01*
X159509523Y-124754819D02*
X158938095Y-124754819D01*
X159223809Y-124754819D02*
X159223809Y-123754819D01*
X159223809Y-123754819D02*
X159128571Y-123897676D01*
X159128571Y-123897676D02*
X159033333Y-123992914D01*
X159033333Y-123992914D02*
X158938095Y-124040533D01*
X160414285Y-123754819D02*
X159938095Y-123754819D01*
X159938095Y-123754819D02*
X159890476Y-124231009D01*
X159890476Y-124231009D02*
X159938095Y-124183390D01*
X159938095Y-124183390D02*
X160033333Y-124135771D01*
X160033333Y-124135771D02*
X160271428Y-124135771D01*
X160271428Y-124135771D02*
X160366666Y-124183390D01*
X160366666Y-124183390D02*
X160414285Y-124231009D01*
X160414285Y-124231009D02*
X160461904Y-124326247D01*
X160461904Y-124326247D02*
X160461904Y-124564342D01*
X160461904Y-124564342D02*
X160414285Y-124659580D01*
X160414285Y-124659580D02*
X160366666Y-124707200D01*
X160366666Y-124707200D02*
X160271428Y-124754819D01*
X160271428Y-124754819D02*
X160033333Y-124754819D01*
X160033333Y-124754819D02*
X159938095Y-124707200D01*
X159938095Y-124707200D02*
X159890476Y-124659580D01*
X139655616Y-101456345D02*
X139322283Y-100980154D01*
X139084188Y-101456345D02*
X139084188Y-100456345D01*
X139084188Y-100456345D02*
X139465140Y-100456345D01*
X139465140Y-100456345D02*
X139560378Y-100503964D01*
X139560378Y-100503964D02*
X139607997Y-100551583D01*
X139607997Y-100551583D02*
X139655616Y-100646821D01*
X139655616Y-100646821D02*
X139655616Y-100789678D01*
X139655616Y-100789678D02*
X139607997Y-100884916D01*
X139607997Y-100884916D02*
X139560378Y-100932535D01*
X139560378Y-100932535D02*
X139465140Y-100980154D01*
X139465140Y-100980154D02*
X139084188Y-100980154D01*
X140607997Y-101456345D02*
X140036569Y-101456345D01*
X140322283Y-101456345D02*
X140322283Y-100456345D01*
X140322283Y-100456345D02*
X140227045Y-100599202D01*
X140227045Y-100599202D02*
X140131807Y-100694440D01*
X140131807Y-100694440D02*
X140036569Y-100742059D01*
X140941331Y-100456345D02*
X141560378Y-100456345D01*
X141560378Y-100456345D02*
X141227045Y-100837297D01*
X141227045Y-100837297D02*
X141369902Y-100837297D01*
X141369902Y-100837297D02*
X141465140Y-100884916D01*
X141465140Y-100884916D02*
X141512759Y-100932535D01*
X141512759Y-100932535D02*
X141560378Y-101027773D01*
X141560378Y-101027773D02*
X141560378Y-101265868D01*
X141560378Y-101265868D02*
X141512759Y-101361106D01*
X141512759Y-101361106D02*
X141465140Y-101408726D01*
X141465140Y-101408726D02*
X141369902Y-101456345D01*
X141369902Y-101456345D02*
X141084188Y-101456345D01*
X141084188Y-101456345D02*
X140988950Y-101408726D01*
X140988950Y-101408726D02*
X140941331Y-101361106D01*
X144810543Y-82953754D02*
X144473825Y-82617037D01*
X144473825Y-82617037D02*
X145180932Y-81909930D01*
X145416635Y-83559846D02*
X145012574Y-83155785D01*
X145214604Y-83357815D02*
X145921711Y-82650709D01*
X145921711Y-82650709D02*
X145753352Y-82684380D01*
X145753352Y-82684380D02*
X145618665Y-82684380D01*
X145618665Y-82684380D02*
X145517650Y-82650709D01*
X150419104Y-71619047D02*
X150419104Y-71142857D01*
X150704819Y-71714285D02*
X149704819Y-71380952D01*
X149704819Y-71380952D02*
X150704819Y-71047619D01*
X150704819Y-70714285D02*
X149704819Y-70714285D01*
X149704819Y-70714285D02*
X150704819Y-70142857D01*
X150704819Y-70142857D02*
X149704819Y-70142857D01*
X149704819Y-69809523D02*
X149704819Y-69238095D01*
X150704819Y-69523809D02*
X149704819Y-69523809D01*
X149800057Y-68952380D02*
X149752438Y-68904761D01*
X149752438Y-68904761D02*
X149704819Y-68809523D01*
X149704819Y-68809523D02*
X149704819Y-68571428D01*
X149704819Y-68571428D02*
X149752438Y-68476190D01*
X149752438Y-68476190D02*
X149800057Y-68428571D01*
X149800057Y-68428571D02*
X149895295Y-68380952D01*
X149895295Y-68380952D02*
X149990533Y-68380952D01*
X149990533Y-68380952D02*
X150133390Y-68428571D01*
X150133390Y-68428571D02*
X150704819Y-68999999D01*
X150704819Y-68999999D02*
X150704819Y-68380952D01*
X139178628Y-116976190D02*
X139654819Y-116976190D01*
X138654819Y-117309523D02*
X139178628Y-116976190D01*
X139178628Y-116976190D02*
X138654819Y-116642857D01*
X139654819Y-115785714D02*
X139654819Y-116357142D01*
X139654819Y-116071428D02*
X138654819Y-116071428D01*
X138654819Y-116071428D02*
X138797676Y-116166666D01*
X138797676Y-116166666D02*
X138892914Y-116261904D01*
X138892914Y-116261904D02*
X138940533Y-116357142D01*
X140583390Y-118095237D02*
X140535771Y-118190475D01*
X140535771Y-118190475D02*
X140488152Y-118238094D01*
X140488152Y-118238094D02*
X140392914Y-118285713D01*
X140392914Y-118285713D02*
X140345295Y-118285713D01*
X140345295Y-118285713D02*
X140250057Y-118238094D01*
X140250057Y-118238094D02*
X140202438Y-118190475D01*
X140202438Y-118190475D02*
X140154819Y-118095237D01*
X140154819Y-118095237D02*
X140154819Y-117904761D01*
X140154819Y-117904761D02*
X140202438Y-117809523D01*
X140202438Y-117809523D02*
X140250057Y-117761904D01*
X140250057Y-117761904D02*
X140345295Y-117714285D01*
X140345295Y-117714285D02*
X140392914Y-117714285D01*
X140392914Y-117714285D02*
X140488152Y-117761904D01*
X140488152Y-117761904D02*
X140535771Y-117809523D01*
X140535771Y-117809523D02*
X140583390Y-117904761D01*
X140583390Y-117904761D02*
X140583390Y-118095237D01*
X140583390Y-118095237D02*
X140631009Y-118190475D01*
X140631009Y-118190475D02*
X140678628Y-118238094D01*
X140678628Y-118238094D02*
X140773866Y-118285713D01*
X140773866Y-118285713D02*
X140964342Y-118285713D01*
X140964342Y-118285713D02*
X141059580Y-118238094D01*
X141059580Y-118238094D02*
X141107200Y-118190475D01*
X141107200Y-118190475D02*
X141154819Y-118095237D01*
X141154819Y-118095237D02*
X141154819Y-117904761D01*
X141154819Y-117904761D02*
X141107200Y-117809523D01*
X141107200Y-117809523D02*
X141059580Y-117761904D01*
X141059580Y-117761904D02*
X140964342Y-117714285D01*
X140964342Y-117714285D02*
X140773866Y-117714285D01*
X140773866Y-117714285D02*
X140678628Y-117761904D01*
X140678628Y-117761904D02*
X140631009Y-117809523D01*
X140631009Y-117809523D02*
X140583390Y-117904761D01*
X141154819Y-117285713D02*
X140154819Y-117285713D01*
X140154819Y-117285713D02*
X140869104Y-116952380D01*
X140869104Y-116952380D02*
X140154819Y-116619047D01*
X140154819Y-116619047D02*
X141154819Y-116619047D01*
X141154819Y-116142856D02*
X140154819Y-116142856D01*
X140631009Y-116142856D02*
X140631009Y-115571428D01*
X141154819Y-115571428D02*
X140154819Y-115571428D01*
X140488152Y-115190475D02*
X140488152Y-114666666D01*
X140488152Y-114666666D02*
X141154819Y-115190475D01*
X141154819Y-115190475D02*
X141154819Y-114666666D01*
X142464527Y-77049770D02*
X142127809Y-76713053D01*
X142127809Y-76713053D02*
X142834916Y-76005946D01*
X143339993Y-76511022D02*
X143777725Y-76948755D01*
X143777725Y-76948755D02*
X143272649Y-76982427D01*
X143272649Y-76982427D02*
X143373664Y-77083442D01*
X143373664Y-77083442D02*
X143407336Y-77184457D01*
X143407336Y-77184457D02*
X143407336Y-77251801D01*
X143407336Y-77251801D02*
X143373664Y-77352816D01*
X143373664Y-77352816D02*
X143205306Y-77521175D01*
X143205306Y-77521175D02*
X143104290Y-77554847D01*
X143104290Y-77554847D02*
X143036947Y-77554847D01*
X143036947Y-77554847D02*
X142935932Y-77521175D01*
X142935932Y-77521175D02*
X142733901Y-77319144D01*
X142733901Y-77319144D02*
X142700229Y-77218129D01*
X142700229Y-77218129D02*
X142700229Y-77150786D01*
X163583333Y-83609580D02*
X163535714Y-83657200D01*
X163535714Y-83657200D02*
X163392857Y-83704819D01*
X163392857Y-83704819D02*
X163297619Y-83704819D01*
X163297619Y-83704819D02*
X163154762Y-83657200D01*
X163154762Y-83657200D02*
X163059524Y-83561961D01*
X163059524Y-83561961D02*
X163011905Y-83466723D01*
X163011905Y-83466723D02*
X162964286Y-83276247D01*
X162964286Y-83276247D02*
X162964286Y-83133390D01*
X162964286Y-83133390D02*
X163011905Y-82942914D01*
X163011905Y-82942914D02*
X163059524Y-82847676D01*
X163059524Y-82847676D02*
X163154762Y-82752438D01*
X163154762Y-82752438D02*
X163297619Y-82704819D01*
X163297619Y-82704819D02*
X163392857Y-82704819D01*
X163392857Y-82704819D02*
X163535714Y-82752438D01*
X163535714Y-82752438D02*
X163583333Y-82800057D01*
X164440476Y-83038152D02*
X164440476Y-83704819D01*
X164202381Y-82657200D02*
X163964286Y-83371485D01*
X163964286Y-83371485D02*
X164583333Y-83371485D01*
X159678333Y-131454819D02*
X159345000Y-130978628D01*
X159106905Y-131454819D02*
X159106905Y-130454819D01*
X159106905Y-130454819D02*
X159487857Y-130454819D01*
X159487857Y-130454819D02*
X159583095Y-130502438D01*
X159583095Y-130502438D02*
X159630714Y-130550057D01*
X159630714Y-130550057D02*
X159678333Y-130645295D01*
X159678333Y-130645295D02*
X159678333Y-130788152D01*
X159678333Y-130788152D02*
X159630714Y-130883390D01*
X159630714Y-130883390D02*
X159583095Y-130931009D01*
X159583095Y-130931009D02*
X159487857Y-130978628D01*
X159487857Y-130978628D02*
X159106905Y-130978628D01*
X160583095Y-130454819D02*
X160106905Y-130454819D01*
X160106905Y-130454819D02*
X160059286Y-130931009D01*
X160059286Y-130931009D02*
X160106905Y-130883390D01*
X160106905Y-130883390D02*
X160202143Y-130835771D01*
X160202143Y-130835771D02*
X160440238Y-130835771D01*
X160440238Y-130835771D02*
X160535476Y-130883390D01*
X160535476Y-130883390D02*
X160583095Y-130931009D01*
X160583095Y-130931009D02*
X160630714Y-131026247D01*
X160630714Y-131026247D02*
X160630714Y-131264342D01*
X160630714Y-131264342D02*
X160583095Y-131359580D01*
X160583095Y-131359580D02*
X160535476Y-131407200D01*
X160535476Y-131407200D02*
X160440238Y-131454819D01*
X160440238Y-131454819D02*
X160202143Y-131454819D01*
X160202143Y-131454819D02*
X160106905Y-131407200D01*
X160106905Y-131407200D02*
X160059286Y-131359580D01*
X152824819Y-138063333D02*
X153539104Y-138063333D01*
X153539104Y-138063333D02*
X153681961Y-138110952D01*
X153681961Y-138110952D02*
X153777200Y-138206190D01*
X153777200Y-138206190D02*
X153824819Y-138349047D01*
X153824819Y-138349047D02*
X153824819Y-138444285D01*
X153824819Y-137063333D02*
X153824819Y-137634761D01*
X153824819Y-137349047D02*
X152824819Y-137349047D01*
X152824819Y-137349047D02*
X152967676Y-137444285D01*
X152967676Y-137444285D02*
X153062914Y-137539523D01*
X153062914Y-137539523D02*
X153110533Y-137634761D01*
X158801905Y-129204819D02*
X158801905Y-128204819D01*
X158801905Y-128204819D02*
X159040000Y-128204819D01*
X159040000Y-128204819D02*
X159182857Y-128252438D01*
X159182857Y-128252438D02*
X159278095Y-128347676D01*
X159278095Y-128347676D02*
X159325714Y-128442914D01*
X159325714Y-128442914D02*
X159373333Y-128633390D01*
X159373333Y-128633390D02*
X159373333Y-128776247D01*
X159373333Y-128776247D02*
X159325714Y-128966723D01*
X159325714Y-128966723D02*
X159278095Y-129061961D01*
X159278095Y-129061961D02*
X159182857Y-129157200D01*
X159182857Y-129157200D02*
X159040000Y-129204819D01*
X159040000Y-129204819D02*
X158801905Y-129204819D01*
X160230476Y-128204819D02*
X160040000Y-128204819D01*
X160040000Y-128204819D02*
X159944762Y-128252438D01*
X159944762Y-128252438D02*
X159897143Y-128300057D01*
X159897143Y-128300057D02*
X159801905Y-128442914D01*
X159801905Y-128442914D02*
X159754286Y-128633390D01*
X159754286Y-128633390D02*
X159754286Y-129014342D01*
X159754286Y-129014342D02*
X159801905Y-129109580D01*
X159801905Y-129109580D02*
X159849524Y-129157200D01*
X159849524Y-129157200D02*
X159944762Y-129204819D01*
X159944762Y-129204819D02*
X160135238Y-129204819D01*
X160135238Y-129204819D02*
X160230476Y-129157200D01*
X160230476Y-129157200D02*
X160278095Y-129109580D01*
X160278095Y-129109580D02*
X160325714Y-129014342D01*
X160325714Y-129014342D02*
X160325714Y-128776247D01*
X160325714Y-128776247D02*
X160278095Y-128681009D01*
X160278095Y-128681009D02*
X160230476Y-128633390D01*
X160230476Y-128633390D02*
X160135238Y-128585771D01*
X160135238Y-128585771D02*
X159944762Y-128585771D01*
X159944762Y-128585771D02*
X159849524Y-128633390D01*
X159849524Y-128633390D02*
X159801905Y-128681009D01*
X159801905Y-128681009D02*
X159754286Y-128776247D01*
X158457142Y-122454819D02*
X158123809Y-121978628D01*
X157885714Y-122454819D02*
X157885714Y-121454819D01*
X157885714Y-121454819D02*
X158266666Y-121454819D01*
X158266666Y-121454819D02*
X158361904Y-121502438D01*
X158361904Y-121502438D02*
X158409523Y-121550057D01*
X158409523Y-121550057D02*
X158457142Y-121645295D01*
X158457142Y-121645295D02*
X158457142Y-121788152D01*
X158457142Y-121788152D02*
X158409523Y-121883390D01*
X158409523Y-121883390D02*
X158361904Y-121931009D01*
X158361904Y-121931009D02*
X158266666Y-121978628D01*
X158266666Y-121978628D02*
X157885714Y-121978628D01*
X159409523Y-122454819D02*
X158838095Y-122454819D01*
X159123809Y-122454819D02*
X159123809Y-121454819D01*
X159123809Y-121454819D02*
X159028571Y-121597676D01*
X159028571Y-121597676D02*
X158933333Y-121692914D01*
X158933333Y-121692914D02*
X158838095Y-121740533D01*
X160266666Y-121454819D02*
X160076190Y-121454819D01*
X160076190Y-121454819D02*
X159980952Y-121502438D01*
X159980952Y-121502438D02*
X159933333Y-121550057D01*
X159933333Y-121550057D02*
X159838095Y-121692914D01*
X159838095Y-121692914D02*
X159790476Y-121883390D01*
X159790476Y-121883390D02*
X159790476Y-122264342D01*
X159790476Y-122264342D02*
X159838095Y-122359580D01*
X159838095Y-122359580D02*
X159885714Y-122407200D01*
X159885714Y-122407200D02*
X159980952Y-122454819D01*
X159980952Y-122454819D02*
X160171428Y-122454819D01*
X160171428Y-122454819D02*
X160266666Y-122407200D01*
X160266666Y-122407200D02*
X160314285Y-122359580D01*
X160314285Y-122359580D02*
X160361904Y-122264342D01*
X160361904Y-122264342D02*
X160361904Y-122026247D01*
X160361904Y-122026247D02*
X160314285Y-121931009D01*
X160314285Y-121931009D02*
X160266666Y-121883390D01*
X160266666Y-121883390D02*
X160171428Y-121835771D01*
X160171428Y-121835771D02*
X159980952Y-121835771D01*
X159980952Y-121835771D02*
X159885714Y-121883390D01*
X159885714Y-121883390D02*
X159838095Y-121931009D01*
X159838095Y-121931009D02*
X159790476Y-122026247D01*
X162511905Y-72954819D02*
X162511905Y-71954819D01*
X162511905Y-71954819D02*
X162750000Y-71954819D01*
X162750000Y-71954819D02*
X162892857Y-72002438D01*
X162892857Y-72002438D02*
X162988095Y-72097676D01*
X162988095Y-72097676D02*
X163035714Y-72192914D01*
X163035714Y-72192914D02*
X163083333Y-72383390D01*
X163083333Y-72383390D02*
X163083333Y-72526247D01*
X163083333Y-72526247D02*
X163035714Y-72716723D01*
X163035714Y-72716723D02*
X162988095Y-72811961D01*
X162988095Y-72811961D02*
X162892857Y-72907200D01*
X162892857Y-72907200D02*
X162750000Y-72954819D01*
X162750000Y-72954819D02*
X162511905Y-72954819D01*
X163464286Y-72050057D02*
X163511905Y-72002438D01*
X163511905Y-72002438D02*
X163607143Y-71954819D01*
X163607143Y-71954819D02*
X163845238Y-71954819D01*
X163845238Y-71954819D02*
X163940476Y-72002438D01*
X163940476Y-72002438D02*
X163988095Y-72050057D01*
X163988095Y-72050057D02*
X164035714Y-72145295D01*
X164035714Y-72145295D02*
X164035714Y-72240533D01*
X164035714Y-72240533D02*
X163988095Y-72383390D01*
X163988095Y-72383390D02*
X163416667Y-72954819D01*
X163416667Y-72954819D02*
X164035714Y-72954819D01*
X139405616Y-98954819D02*
X139072283Y-98478628D01*
X138834188Y-98954819D02*
X138834188Y-97954819D01*
X138834188Y-97954819D02*
X139215140Y-97954819D01*
X139215140Y-97954819D02*
X139310378Y-98002438D01*
X139310378Y-98002438D02*
X139357997Y-98050057D01*
X139357997Y-98050057D02*
X139405616Y-98145295D01*
X139405616Y-98145295D02*
X139405616Y-98288152D01*
X139405616Y-98288152D02*
X139357997Y-98383390D01*
X139357997Y-98383390D02*
X139310378Y-98431009D01*
X139310378Y-98431009D02*
X139215140Y-98478628D01*
X139215140Y-98478628D02*
X138834188Y-98478628D01*
X140357997Y-98954819D02*
X139786569Y-98954819D01*
X140072283Y-98954819D02*
X140072283Y-97954819D01*
X140072283Y-97954819D02*
X139977045Y-98097676D01*
X139977045Y-98097676D02*
X139881807Y-98192914D01*
X139881807Y-98192914D02*
X139786569Y-98240533D01*
X141215140Y-98288152D02*
X141215140Y-98954819D01*
X140977045Y-97907200D02*
X140738950Y-98621485D01*
X140738950Y-98621485D02*
X141357997Y-98621485D01*
X150404761Y-96298531D02*
X150309523Y-96250912D01*
X150309523Y-96250912D02*
X150214285Y-96155674D01*
X150214285Y-96155674D02*
X150071428Y-96012816D01*
X150071428Y-96012816D02*
X149976190Y-95965197D01*
X149976190Y-95965197D02*
X149880952Y-95965197D01*
X149928571Y-96203293D02*
X149833333Y-96155674D01*
X149833333Y-96155674D02*
X149738095Y-96060435D01*
X149738095Y-96060435D02*
X149690476Y-95869959D01*
X149690476Y-95869959D02*
X149690476Y-95536626D01*
X149690476Y-95536626D02*
X149738095Y-95346150D01*
X149738095Y-95346150D02*
X149833333Y-95250912D01*
X149833333Y-95250912D02*
X149928571Y-95203293D01*
X149928571Y-95203293D02*
X150119047Y-95203293D01*
X150119047Y-95203293D02*
X150214285Y-95250912D01*
X150214285Y-95250912D02*
X150309523Y-95346150D01*
X150309523Y-95346150D02*
X150357142Y-95536626D01*
X150357142Y-95536626D02*
X150357142Y-95869959D01*
X150357142Y-95869959D02*
X150309523Y-96060435D01*
X150309523Y-96060435D02*
X150214285Y-96155674D01*
X150214285Y-96155674D02*
X150119047Y-96203293D01*
X150119047Y-96203293D02*
X149928571Y-96203293D01*
X150690476Y-95203293D02*
X151309523Y-95203293D01*
X151309523Y-95203293D02*
X150976190Y-95584245D01*
X150976190Y-95584245D02*
X151119047Y-95584245D01*
X151119047Y-95584245D02*
X151214285Y-95631864D01*
X151214285Y-95631864D02*
X151261904Y-95679483D01*
X151261904Y-95679483D02*
X151309523Y-95774721D01*
X151309523Y-95774721D02*
X151309523Y-96012816D01*
X151309523Y-96012816D02*
X151261904Y-96108054D01*
X151261904Y-96108054D02*
X151214285Y-96155674D01*
X151214285Y-96155674D02*
X151119047Y-96203293D01*
X151119047Y-96203293D02*
X150833333Y-96203293D01*
X150833333Y-96203293D02*
X150738095Y-96155674D01*
X150738095Y-96155674D02*
X150690476Y-96108054D01*
X155333333Y-83804819D02*
X155000000Y-83328628D01*
X154761905Y-83804819D02*
X154761905Y-82804819D01*
X154761905Y-82804819D02*
X155142857Y-82804819D01*
X155142857Y-82804819D02*
X155238095Y-82852438D01*
X155238095Y-82852438D02*
X155285714Y-82900057D01*
X155285714Y-82900057D02*
X155333333Y-82995295D01*
X155333333Y-82995295D02*
X155333333Y-83138152D01*
X155333333Y-83138152D02*
X155285714Y-83233390D01*
X155285714Y-83233390D02*
X155238095Y-83281009D01*
X155238095Y-83281009D02*
X155142857Y-83328628D01*
X155142857Y-83328628D02*
X154761905Y-83328628D01*
X155904762Y-83233390D02*
X155809524Y-83185771D01*
X155809524Y-83185771D02*
X155761905Y-83138152D01*
X155761905Y-83138152D02*
X155714286Y-83042914D01*
X155714286Y-83042914D02*
X155714286Y-82995295D01*
X155714286Y-82995295D02*
X155761905Y-82900057D01*
X155761905Y-82900057D02*
X155809524Y-82852438D01*
X155809524Y-82852438D02*
X155904762Y-82804819D01*
X155904762Y-82804819D02*
X156095238Y-82804819D01*
X156095238Y-82804819D02*
X156190476Y-82852438D01*
X156190476Y-82852438D02*
X156238095Y-82900057D01*
X156238095Y-82900057D02*
X156285714Y-82995295D01*
X156285714Y-82995295D02*
X156285714Y-83042914D01*
X156285714Y-83042914D02*
X156238095Y-83138152D01*
X156238095Y-83138152D02*
X156190476Y-83185771D01*
X156190476Y-83185771D02*
X156095238Y-83233390D01*
X156095238Y-83233390D02*
X155904762Y-83233390D01*
X155904762Y-83233390D02*
X155809524Y-83281009D01*
X155809524Y-83281009D02*
X155761905Y-83328628D01*
X155761905Y-83328628D02*
X155714286Y-83423866D01*
X155714286Y-83423866D02*
X155714286Y-83614342D01*
X155714286Y-83614342D02*
X155761905Y-83709580D01*
X155761905Y-83709580D02*
X155809524Y-83757200D01*
X155809524Y-83757200D02*
X155904762Y-83804819D01*
X155904762Y-83804819D02*
X156095238Y-83804819D01*
X156095238Y-83804819D02*
X156190476Y-83757200D01*
X156190476Y-83757200D02*
X156238095Y-83709580D01*
X156238095Y-83709580D02*
X156285714Y-83614342D01*
X156285714Y-83614342D02*
X156285714Y-83423866D01*
X156285714Y-83423866D02*
X156238095Y-83328628D01*
X156238095Y-83328628D02*
X156190476Y-83281009D01*
X156190476Y-83281009D02*
X156095238Y-83233390D01*
X163857142Y-108561069D02*
X163523809Y-108084878D01*
X163285714Y-108561069D02*
X163285714Y-107561069D01*
X163285714Y-107561069D02*
X163666666Y-107561069D01*
X163666666Y-107561069D02*
X163761904Y-107608688D01*
X163761904Y-107608688D02*
X163809523Y-107656307D01*
X163809523Y-107656307D02*
X163857142Y-107751545D01*
X163857142Y-107751545D02*
X163857142Y-107894402D01*
X163857142Y-107894402D02*
X163809523Y-107989640D01*
X163809523Y-107989640D02*
X163761904Y-108037259D01*
X163761904Y-108037259D02*
X163666666Y-108084878D01*
X163666666Y-108084878D02*
X163285714Y-108084878D01*
X164809523Y-108561069D02*
X164238095Y-108561069D01*
X164523809Y-108561069D02*
X164523809Y-107561069D01*
X164523809Y-107561069D02*
X164428571Y-107703926D01*
X164428571Y-107703926D02*
X164333333Y-107799164D01*
X164333333Y-107799164D02*
X164238095Y-107846783D01*
X165380952Y-107989640D02*
X165285714Y-107942021D01*
X165285714Y-107942021D02*
X165238095Y-107894402D01*
X165238095Y-107894402D02*
X165190476Y-107799164D01*
X165190476Y-107799164D02*
X165190476Y-107751545D01*
X165190476Y-107751545D02*
X165238095Y-107656307D01*
X165238095Y-107656307D02*
X165285714Y-107608688D01*
X165285714Y-107608688D02*
X165380952Y-107561069D01*
X165380952Y-107561069D02*
X165571428Y-107561069D01*
X165571428Y-107561069D02*
X165666666Y-107608688D01*
X165666666Y-107608688D02*
X165714285Y-107656307D01*
X165714285Y-107656307D02*
X165761904Y-107751545D01*
X165761904Y-107751545D02*
X165761904Y-107799164D01*
X165761904Y-107799164D02*
X165714285Y-107894402D01*
X165714285Y-107894402D02*
X165666666Y-107942021D01*
X165666666Y-107942021D02*
X165571428Y-107989640D01*
X165571428Y-107989640D02*
X165380952Y-107989640D01*
X165380952Y-107989640D02*
X165285714Y-108037259D01*
X165285714Y-108037259D02*
X165238095Y-108084878D01*
X165238095Y-108084878D02*
X165190476Y-108180116D01*
X165190476Y-108180116D02*
X165190476Y-108370592D01*
X165190476Y-108370592D02*
X165238095Y-108465830D01*
X165238095Y-108465830D02*
X165285714Y-108513450D01*
X165285714Y-108513450D02*
X165380952Y-108561069D01*
X165380952Y-108561069D02*
X165571428Y-108561069D01*
X165571428Y-108561069D02*
X165666666Y-108513450D01*
X165666666Y-108513450D02*
X165714285Y-108465830D01*
X165714285Y-108465830D02*
X165761904Y-108370592D01*
X165761904Y-108370592D02*
X165761904Y-108180116D01*
X165761904Y-108180116D02*
X165714285Y-108084878D01*
X165714285Y-108084878D02*
X165666666Y-108037259D01*
X165666666Y-108037259D02*
X165571428Y-107989640D01*
X140361807Y-111359580D02*
X140314188Y-111407200D01*
X140314188Y-111407200D02*
X140171331Y-111454819D01*
X140171331Y-111454819D02*
X140076093Y-111454819D01*
X140076093Y-111454819D02*
X139933236Y-111407200D01*
X139933236Y-111407200D02*
X139837998Y-111311961D01*
X139837998Y-111311961D02*
X139790379Y-111216723D01*
X139790379Y-111216723D02*
X139742760Y-111026247D01*
X139742760Y-111026247D02*
X139742760Y-110883390D01*
X139742760Y-110883390D02*
X139790379Y-110692914D01*
X139790379Y-110692914D02*
X139837998Y-110597676D01*
X139837998Y-110597676D02*
X139933236Y-110502438D01*
X139933236Y-110502438D02*
X140076093Y-110454819D01*
X140076093Y-110454819D02*
X140171331Y-110454819D01*
X140171331Y-110454819D02*
X140314188Y-110502438D01*
X140314188Y-110502438D02*
X140361807Y-110550057D01*
X140695141Y-110454819D02*
X141314188Y-110454819D01*
X141314188Y-110454819D02*
X140980855Y-110835771D01*
X140980855Y-110835771D02*
X141123712Y-110835771D01*
X141123712Y-110835771D02*
X141218950Y-110883390D01*
X141218950Y-110883390D02*
X141266569Y-110931009D01*
X141266569Y-110931009D02*
X141314188Y-111026247D01*
X141314188Y-111026247D02*
X141314188Y-111264342D01*
X141314188Y-111264342D02*
X141266569Y-111359580D01*
X141266569Y-111359580D02*
X141218950Y-111407200D01*
X141218950Y-111407200D02*
X141123712Y-111454819D01*
X141123712Y-111454819D02*
X140837998Y-111454819D01*
X140837998Y-111454819D02*
X140742760Y-111407200D01*
X140742760Y-111407200D02*
X140695141Y-111359580D01*
X153511905Y-81454819D02*
X153511905Y-80454819D01*
X153511905Y-80454819D02*
X153750000Y-80454819D01*
X153750000Y-80454819D02*
X153892857Y-80502438D01*
X153892857Y-80502438D02*
X153988095Y-80597676D01*
X153988095Y-80597676D02*
X154035714Y-80692914D01*
X154035714Y-80692914D02*
X154083333Y-80883390D01*
X154083333Y-80883390D02*
X154083333Y-81026247D01*
X154083333Y-81026247D02*
X154035714Y-81216723D01*
X154035714Y-81216723D02*
X153988095Y-81311961D01*
X153988095Y-81311961D02*
X153892857Y-81407200D01*
X153892857Y-81407200D02*
X153750000Y-81454819D01*
X153750000Y-81454819D02*
X153511905Y-81454819D01*
X154940476Y-80788152D02*
X154940476Y-81454819D01*
X154702381Y-80407200D02*
X154464286Y-81121485D01*
X154464286Y-81121485D02*
X155083333Y-81121485D01*
X150154761Y-105798531D02*
X150059523Y-105750912D01*
X150059523Y-105750912D02*
X149964285Y-105655674D01*
X149964285Y-105655674D02*
X149821428Y-105512816D01*
X149821428Y-105512816D02*
X149726190Y-105465197D01*
X149726190Y-105465197D02*
X149630952Y-105465197D01*
X149678571Y-105703293D02*
X149583333Y-105655674D01*
X149583333Y-105655674D02*
X149488095Y-105560435D01*
X149488095Y-105560435D02*
X149440476Y-105369959D01*
X149440476Y-105369959D02*
X149440476Y-105036626D01*
X149440476Y-105036626D02*
X149488095Y-104846150D01*
X149488095Y-104846150D02*
X149583333Y-104750912D01*
X149583333Y-104750912D02*
X149678571Y-104703293D01*
X149678571Y-104703293D02*
X149869047Y-104703293D01*
X149869047Y-104703293D02*
X149964285Y-104750912D01*
X149964285Y-104750912D02*
X150059523Y-104846150D01*
X150059523Y-104846150D02*
X150107142Y-105036626D01*
X150107142Y-105036626D02*
X150107142Y-105369959D01*
X150107142Y-105369959D02*
X150059523Y-105560435D01*
X150059523Y-105560435D02*
X149964285Y-105655674D01*
X149964285Y-105655674D02*
X149869047Y-105703293D01*
X149869047Y-105703293D02*
X149678571Y-105703293D01*
X151059523Y-105703293D02*
X150488095Y-105703293D01*
X150773809Y-105703293D02*
X150773809Y-104703293D01*
X150773809Y-104703293D02*
X150678571Y-104846150D01*
X150678571Y-104846150D02*
X150583333Y-104941388D01*
X150583333Y-104941388D02*
X150488095Y-104989007D01*
X149857142Y-81609580D02*
X149809523Y-81657200D01*
X149809523Y-81657200D02*
X149666666Y-81704819D01*
X149666666Y-81704819D02*
X149571428Y-81704819D01*
X149571428Y-81704819D02*
X149428571Y-81657200D01*
X149428571Y-81657200D02*
X149333333Y-81561961D01*
X149333333Y-81561961D02*
X149285714Y-81466723D01*
X149285714Y-81466723D02*
X149238095Y-81276247D01*
X149238095Y-81276247D02*
X149238095Y-81133390D01*
X149238095Y-81133390D02*
X149285714Y-80942914D01*
X149285714Y-80942914D02*
X149333333Y-80847676D01*
X149333333Y-80847676D02*
X149428571Y-80752438D01*
X149428571Y-80752438D02*
X149571428Y-80704819D01*
X149571428Y-80704819D02*
X149666666Y-80704819D01*
X149666666Y-80704819D02*
X149809523Y-80752438D01*
X149809523Y-80752438D02*
X149857142Y-80800057D01*
X150809523Y-81704819D02*
X150238095Y-81704819D01*
X150523809Y-81704819D02*
X150523809Y-80704819D01*
X150523809Y-80704819D02*
X150428571Y-80847676D01*
X150428571Y-80847676D02*
X150333333Y-80942914D01*
X150333333Y-80942914D02*
X150238095Y-80990533D01*
X151142857Y-80704819D02*
X151809523Y-80704819D01*
X151809523Y-80704819D02*
X151380952Y-81704819D01*
X139405616Y-96454819D02*
X139072283Y-95978628D01*
X138834188Y-96454819D02*
X138834188Y-95454819D01*
X138834188Y-95454819D02*
X139215140Y-95454819D01*
X139215140Y-95454819D02*
X139310378Y-95502438D01*
X139310378Y-95502438D02*
X139357997Y-95550057D01*
X139357997Y-95550057D02*
X139405616Y-95645295D01*
X139405616Y-95645295D02*
X139405616Y-95788152D01*
X139405616Y-95788152D02*
X139357997Y-95883390D01*
X139357997Y-95883390D02*
X139310378Y-95931009D01*
X139310378Y-95931009D02*
X139215140Y-95978628D01*
X139215140Y-95978628D02*
X138834188Y-95978628D01*
X140357997Y-96454819D02*
X139786569Y-96454819D01*
X140072283Y-96454819D02*
X140072283Y-95454819D01*
X140072283Y-95454819D02*
X139977045Y-95597676D01*
X139977045Y-95597676D02*
X139881807Y-95692914D01*
X139881807Y-95692914D02*
X139786569Y-95740533D01*
X141262759Y-95454819D02*
X140786569Y-95454819D01*
X140786569Y-95454819D02*
X140738950Y-95931009D01*
X140738950Y-95931009D02*
X140786569Y-95883390D01*
X140786569Y-95883390D02*
X140881807Y-95835771D01*
X140881807Y-95835771D02*
X141119902Y-95835771D01*
X141119902Y-95835771D02*
X141215140Y-95883390D01*
X141215140Y-95883390D02*
X141262759Y-95931009D01*
X141262759Y-95931009D02*
X141310378Y-96026247D01*
X141310378Y-96026247D02*
X141310378Y-96264342D01*
X141310378Y-96264342D02*
X141262759Y-96359580D01*
X141262759Y-96359580D02*
X141215140Y-96407200D01*
X141215140Y-96407200D02*
X141119902Y-96454819D01*
X141119902Y-96454819D02*
X140881807Y-96454819D01*
X140881807Y-96454819D02*
X140786569Y-96407200D01*
X140786569Y-96407200D02*
X140738950Y-96359580D01*
X152824819Y-89803333D02*
X153539104Y-89803333D01*
X153539104Y-89803333D02*
X153681961Y-89850952D01*
X153681961Y-89850952D02*
X153777200Y-89946190D01*
X153777200Y-89946190D02*
X153824819Y-90089047D01*
X153824819Y-90089047D02*
X153824819Y-90184285D01*
X152920057Y-89374761D02*
X152872438Y-89327142D01*
X152872438Y-89327142D02*
X152824819Y-89231904D01*
X152824819Y-89231904D02*
X152824819Y-88993809D01*
X152824819Y-88993809D02*
X152872438Y-88898571D01*
X152872438Y-88898571D02*
X152920057Y-88850952D01*
X152920057Y-88850952D02*
X153015295Y-88803333D01*
X153015295Y-88803333D02*
X153110533Y-88803333D01*
X153110533Y-88803333D02*
X153253390Y-88850952D01*
X153253390Y-88850952D02*
X153824819Y-89422380D01*
X153824819Y-89422380D02*
X153824819Y-88803333D01*
X144959580Y-122042857D02*
X145007200Y-122090476D01*
X145007200Y-122090476D02*
X145054819Y-122233333D01*
X145054819Y-122233333D02*
X145054819Y-122328571D01*
X145054819Y-122328571D02*
X145007200Y-122471428D01*
X145007200Y-122471428D02*
X144911961Y-122566666D01*
X144911961Y-122566666D02*
X144816723Y-122614285D01*
X144816723Y-122614285D02*
X144626247Y-122661904D01*
X144626247Y-122661904D02*
X144483390Y-122661904D01*
X144483390Y-122661904D02*
X144292914Y-122614285D01*
X144292914Y-122614285D02*
X144197676Y-122566666D01*
X144197676Y-122566666D02*
X144102438Y-122471428D01*
X144102438Y-122471428D02*
X144054819Y-122328571D01*
X144054819Y-122328571D02*
X144054819Y-122233333D01*
X144054819Y-122233333D02*
X144102438Y-122090476D01*
X144102438Y-122090476D02*
X144150057Y-122042857D01*
X145054819Y-121090476D02*
X145054819Y-121661904D01*
X145054819Y-121376190D02*
X144054819Y-121376190D01*
X144054819Y-121376190D02*
X144197676Y-121471428D01*
X144197676Y-121471428D02*
X144292914Y-121566666D01*
X144292914Y-121566666D02*
X144340533Y-121661904D01*
X144150057Y-120709523D02*
X144102438Y-120661904D01*
X144102438Y-120661904D02*
X144054819Y-120566666D01*
X144054819Y-120566666D02*
X144054819Y-120328571D01*
X144054819Y-120328571D02*
X144102438Y-120233333D01*
X144102438Y-120233333D02*
X144150057Y-120185714D01*
X144150057Y-120185714D02*
X144245295Y-120138095D01*
X144245295Y-120138095D02*
X144340533Y-120138095D01*
X144340533Y-120138095D02*
X144483390Y-120185714D01*
X144483390Y-120185714D02*
X145054819Y-120757142D01*
X145054819Y-120757142D02*
X145054819Y-120138095D01*
D13*
%TO.C,R23*%
X149535000Y-121172936D02*
X149535000Y-121627064D01*
X148065000Y-121172936D02*
X148065000Y-121627064D01*
%TO.C,Q13*%
X141800000Y-119740000D02*
X141150000Y-119740000D01*
X141800000Y-119740000D02*
X142450000Y-119740000D01*
X141800000Y-122860000D02*
X141150000Y-122860000D01*
X141800000Y-122860000D02*
X142450000Y-122860000D01*
X140637500Y-119790000D02*
X140397500Y-119460000D01*
X140877500Y-119460000D01*
X140637500Y-119790000D01*
G36*
X140637500Y-119790000D02*
G01*
X140397500Y-119460000D01*
X140877500Y-119460000D01*
X140637500Y-119790000D01*
G37*
%TO.C,R20*%
X159977064Y-105765000D02*
X159522936Y-105765000D01*
X159977064Y-107235000D02*
X159522936Y-107235000D01*
D10*
%TO.C,ANT1*%
X141750000Y-138000000D02*
X151750000Y-138000000D01*
X141750000Y-141000000D02*
X141750000Y-138000000D01*
X151750000Y-138000000D02*
X151750000Y-141000000D01*
X151750000Y-141000000D02*
X141750000Y-141000000D01*
D13*
%TO.C,R17*%
X159522936Y-96765000D02*
X159977064Y-96765000D01*
X159522936Y-98235000D02*
X159977064Y-98235000D01*
%TO.C,R7*%
X162747064Y-132515000D02*
X162292936Y-132515000D01*
X162747064Y-133985000D02*
X162292936Y-133985000D01*
%TO.C,R12*%
X143071410Y-102266526D02*
X143525538Y-102266526D01*
X143071410Y-103736526D02*
X143525538Y-103736526D01*
%TO.C,C7*%
X145390000Y-92711252D02*
X145390000Y-92188748D01*
X146860000Y-92711252D02*
X146860000Y-92188748D01*
%TO.C,D5*%
X158085000Y-101040000D02*
X158085000Y-102960000D01*
X158085000Y-102960000D02*
X160770000Y-102960000D01*
X160770000Y-101040000D02*
X158085000Y-101040000D01*
%TO.C,R1*%
X157040000Y-74595436D02*
X157040000Y-78949564D01*
X160460000Y-74595436D02*
X160460000Y-78949564D01*
%TO.C,R10*%
X143071410Y-107018052D02*
X143525538Y-107018052D01*
X143071410Y-108488052D02*
X143525538Y-108488052D01*
%TO.C,C16*%
X148261252Y-83515000D02*
X147738748Y-83515000D01*
X148261252Y-84985000D02*
X147738748Y-84985000D01*
%TO.C,C14*%
X162761252Y-125765000D02*
X162238748Y-125765000D01*
X162761252Y-127235000D02*
X162238748Y-127235000D01*
%TO.C,R21*%
X159522936Y-103515000D02*
X159977064Y-103515000D01*
X159522936Y-104985000D02*
X159977064Y-104985000D01*
%TO.C,R9*%
X158772936Y-84265000D02*
X159227064Y-84265000D01*
X158772936Y-85735000D02*
X159227064Y-85735000D01*
%TO.C,Q2*%
X148312500Y-100191526D02*
X147662500Y-100191526D01*
X148312500Y-100191526D02*
X148962500Y-100191526D01*
X148312500Y-103311526D02*
X147662500Y-103311526D01*
X148312500Y-103311526D02*
X148962500Y-103311526D01*
X147150000Y-100241526D02*
X146910000Y-99911526D01*
X147390000Y-99911526D01*
X147150000Y-100241526D01*
G36*
X147150000Y-100241526D02*
G01*
X146910000Y-99911526D01*
X147390000Y-99911526D01*
X147150000Y-100241526D01*
G37*
D12*
%TO.C,U2*%
X149425000Y-110375000D02*
X149425000Y-110600000D01*
X149425000Y-110375000D02*
X149750000Y-110375000D01*
X149425000Y-117625000D02*
X149425000Y-117300000D01*
X149425000Y-117625000D02*
X149750000Y-117625000D01*
X156675000Y-110375000D02*
X156350000Y-110375000D01*
X156675000Y-110375000D02*
X156675000Y-110700000D01*
X156675000Y-117625000D02*
X156350000Y-117625000D01*
X156675000Y-117625000D02*
X156675000Y-117300000D01*
D13*
X148660000Y-110660000D02*
X148320000Y-110190000D01*
X149000000Y-110190000D01*
X148660000Y-110660000D01*
G36*
X148660000Y-110660000D02*
G01*
X148320000Y-110190000D01*
X149000000Y-110190000D01*
X148660000Y-110660000D01*
G37*
%TO.C,R11*%
X143525538Y-105018052D02*
X143071410Y-105018052D01*
X143525538Y-106488052D02*
X143071410Y-106488052D01*
%TO.C,U1*%
X141625000Y-88940000D02*
X140825000Y-88940000D01*
X141625000Y-88940000D02*
X142425000Y-88940000D01*
X141625000Y-92060000D02*
X140825000Y-92060000D01*
X141625000Y-92060000D02*
X142425000Y-92060000D01*
X140325000Y-88990000D02*
X140085000Y-88660000D01*
X140565000Y-88660000D01*
X140325000Y-88990000D01*
G36*
X140325000Y-88990000D02*
G01*
X140085000Y-88660000D01*
X140565000Y-88660000D01*
X140325000Y-88990000D01*
G37*
%TO.C,C2*%
X164218748Y-111515000D02*
X164741252Y-111515000D01*
X164218748Y-112985000D02*
X164741252Y-112985000D01*
%TO.C,C11*%
X159265000Y-117738748D02*
X159265000Y-118261252D01*
X160735000Y-117738748D02*
X160735000Y-118261252D01*
%TO.C,R22*%
X153827064Y-101265000D02*
X153372936Y-101265000D01*
X153827064Y-102735000D02*
X153372936Y-102735000D01*
%TO.C,D3*%
X157110000Y-70000000D02*
X153100000Y-70000000D01*
X157110000Y-72000000D02*
X153100000Y-72000000D01*
X157110000Y-72000000D02*
X157110000Y-70000000D01*
%TO.C,C5*%
X154015000Y-132511252D02*
X154015000Y-131988748D01*
X155485000Y-132511252D02*
X155485000Y-131988748D01*
%TO.C,C10*%
X143561252Y-112665000D02*
X143038748Y-112665000D01*
X143561252Y-114135000D02*
X143038748Y-114135000D01*
%TO.C,R2*%
X164272936Y-109235000D02*
X164727064Y-109235000D01*
X164272936Y-110705000D02*
X164727064Y-110705000D01*
%TO.C,C8*%
X145390000Y-88438748D02*
X145390000Y-88961252D01*
X146860000Y-88438748D02*
X146860000Y-88961252D01*
D10*
%TO.C,U4*%
X140950000Y-124650000D02*
X141450000Y-124650000D01*
X140950000Y-134350000D02*
X140950000Y-124650000D01*
X141450000Y-134350000D02*
X140950000Y-134350000D01*
X151450000Y-124650000D02*
X151950000Y-124650000D01*
X151950000Y-124650000D02*
X151950000Y-134350000D01*
X151950000Y-134350000D02*
X151450000Y-134350000D01*
D14*
X153175000Y-125650000D02*
G75*
G02*
X152725000Y-125650000I-225000J0D01*
G01*
X152725000Y-125650000D02*
G75*
G02*
X153175000Y-125650000I225000J0D01*
G01*
D13*
%TO.C,L2*%
X143321445Y-79636596D02*
X143886596Y-79071445D01*
X144113404Y-80428555D02*
X144678555Y-79863404D01*
%TO.C,C18*%
X147761252Y-77015000D02*
X147238748Y-77015000D01*
X147761252Y-78485000D02*
X147238748Y-78485000D01*
%TO.C,R6*%
X144865000Y-116472936D02*
X144865000Y-116927064D01*
X146335000Y-116472936D02*
X146335000Y-116927064D01*
%TO.C,D1*%
X138100000Y-81010000D02*
X138100000Y-75500000D01*
X138100000Y-81010000D02*
X141400000Y-81010000D01*
X141400000Y-81010000D02*
X141400000Y-75500000D01*
%TO.C,C19*%
X147761252Y-74015000D02*
X147238748Y-74015000D01*
X147761252Y-75485000D02*
X147238748Y-75485000D01*
%TO.C,R4*%
X159522936Y-98992500D02*
X159977064Y-98992500D01*
X159522936Y-100462500D02*
X159977064Y-100462500D01*
%TO.C,R3*%
X164727064Y-113765000D02*
X164272936Y-113765000D01*
X164727064Y-115235000D02*
X164272936Y-115235000D01*
%TO.C,R19*%
X164727064Y-98515000D02*
X164272936Y-98515000D01*
X164727064Y-99985000D02*
X164272936Y-99985000D01*
%TO.C,C9*%
X148015000Y-88438748D02*
X148015000Y-88961252D01*
X149485000Y-88438748D02*
X149485000Y-88961252D01*
%TO.C,C13*%
X159265000Y-114261252D02*
X159265000Y-113738748D01*
X160735000Y-114261252D02*
X160735000Y-113738748D01*
%TO.C,Q4*%
X163650000Y-101146250D02*
X163000000Y-101146250D01*
X163650000Y-101146250D02*
X164300000Y-101146250D01*
X163650000Y-104266250D02*
X163000000Y-104266250D01*
X163650000Y-104266250D02*
X164300000Y-104266250D01*
X162487500Y-101196250D02*
X162247500Y-100866250D01*
X162727500Y-100866250D01*
X162487500Y-101196250D01*
G36*
X162487500Y-101196250D02*
G01*
X162247500Y-100866250D01*
X162727500Y-100866250D01*
X162487500Y-101196250D01*
G37*
%TO.C,C6*%
X140863748Y-85715000D02*
X141386252Y-85715000D01*
X140863748Y-87185000D02*
X141386252Y-87185000D01*
%TO.C,C15*%
X162238748Y-123515000D02*
X162761252Y-123515000D01*
X162238748Y-124985000D02*
X162761252Y-124985000D01*
%TO.C,R13*%
X143525538Y-100016526D02*
X143071410Y-100016526D01*
X143525538Y-101486526D02*
X143071410Y-101486526D01*
%TO.C,L1*%
X143886596Y-84428555D02*
X143321445Y-83863404D01*
X144678555Y-83636596D02*
X144113404Y-83071445D01*
%TO.C,ANT2*%
X144410000Y-68210000D02*
X143300000Y-68210000D01*
X144410000Y-71460000D02*
X143300000Y-71460000D01*
X145000000Y-72510000D02*
X145500000Y-72510000D01*
X145250000Y-72010000D02*
X145000000Y-72510000D01*
X145500000Y-72510000D02*
X145250000Y-72010000D01*
X147200000Y-68210000D02*
X146090000Y-68210000D01*
X147200000Y-71460000D02*
X146090000Y-71460000D01*
%TO.C,Y1*%
X141650000Y-114700000D02*
X143650000Y-114700000D01*
X141650000Y-115500000D02*
X141650000Y-114700000D01*
X141650000Y-118300000D02*
X141650000Y-117300000D01*
X141650000Y-118500000D02*
X143650000Y-118500000D01*
X143650000Y-114700000D02*
X144050000Y-114700000D01*
X143650000Y-118300000D02*
X141650000Y-118300000D01*
X143650000Y-118300000D02*
X144050000Y-118300000D01*
X143650000Y-118500000D02*
X144050000Y-118500000D01*
X144050000Y-114700000D02*
X144050000Y-115500000D01*
X144050000Y-117300000D02*
X144050000Y-118300000D01*
X144050000Y-117300000D02*
X144450000Y-117300000D01*
%TO.C,L3*%
X143886596Y-76428555D02*
X143321445Y-75863404D01*
X144678555Y-75636596D02*
X144113404Y-75071445D01*
%TO.C,C4*%
X164011252Y-84265000D02*
X163488748Y-84265000D01*
X164011252Y-85735000D02*
X163488748Y-85735000D01*
%TO.C,R5*%
X162292936Y-130265000D02*
X162747064Y-130265000D01*
X162292936Y-131735000D02*
X162747064Y-131735000D01*
%TO.C,J1*%
X154370000Y-135130000D02*
X162110000Y-135130000D01*
X154370000Y-137730000D02*
X154370000Y-135130000D01*
X154370000Y-140330000D02*
X154370000Y-139000000D01*
X155700000Y-140330000D02*
X154370000Y-140330000D01*
X156970000Y-137730000D02*
X154370000Y-137730000D01*
X156970000Y-140330000D02*
X156970000Y-137730000D01*
X156970000Y-140330000D02*
X162110000Y-140330000D01*
X162110000Y-140330000D02*
X162110000Y-135130000D01*
%TO.C,D6*%
X160855000Y-127790000D02*
X160855000Y-129710000D01*
X160855000Y-129710000D02*
X163540000Y-129710000D01*
X163540000Y-127790000D02*
X160855000Y-127790000D01*
%TO.C,R16*%
X162272936Y-121265000D02*
X162727064Y-121265000D01*
X162272936Y-122735000D02*
X162727064Y-122735000D01*
%TO.C,D2*%
X161850000Y-80260000D02*
X161850000Y-74750000D01*
X161850000Y-80260000D02*
X165150000Y-80260000D01*
X165150000Y-80260000D02*
X165150000Y-74750000D01*
%TO.C,R14*%
X143071410Y-97515000D02*
X143525538Y-97515000D01*
X143071410Y-98985000D02*
X143525538Y-98985000D01*
%TO.C,Q3*%
X148312500Y-95690000D02*
X147662500Y-95690000D01*
X148312500Y-95690000D02*
X148962500Y-95690000D01*
X148312500Y-98810000D02*
X147662500Y-98810000D01*
X148312500Y-98810000D02*
X148962500Y-98810000D01*
X147150000Y-95740000D02*
X146910000Y-95410000D01*
X147390000Y-95410000D01*
X147150000Y-95740000D01*
G36*
X147150000Y-95740000D02*
G01*
X146910000Y-95410000D01*
X147390000Y-95410000D01*
X147150000Y-95740000D01*
G37*
%TO.C,R8*%
X155272936Y-84265000D02*
X155727064Y-84265000D01*
X155272936Y-85735000D02*
X155727064Y-85735000D01*
%TO.C,R18*%
X164727064Y-105721250D02*
X164272936Y-105721250D01*
X164727064Y-107191250D02*
X164272936Y-107191250D01*
%TO.C,C3*%
X143017222Y-110265000D02*
X143539726Y-110265000D01*
X143017222Y-111735000D02*
X143539726Y-111735000D01*
%TO.C,D4*%
X152350000Y-80260000D02*
X152350000Y-74750000D01*
X152350000Y-80260000D02*
X155650000Y-80260000D01*
X155650000Y-80260000D02*
X155650000Y-74750000D01*
%TO.C,Q1*%
X148312500Y-105143052D02*
X147662500Y-105143052D01*
X148312500Y-105143052D02*
X148962500Y-105143052D01*
X148312500Y-108263052D02*
X147662500Y-108263052D01*
X148312500Y-108263052D02*
X148962500Y-108263052D01*
X147150000Y-105193052D02*
X146910000Y-104863052D01*
X147390000Y-104863052D01*
X147150000Y-105193052D01*
G36*
X147150000Y-105193052D02*
G01*
X146910000Y-104863052D01*
X147390000Y-104863052D01*
X147150000Y-105193052D01*
G37*
%TO.C,C17*%
X147761252Y-80515000D02*
X147238748Y-80515000D01*
X147761252Y-81985000D02*
X147238748Y-81985000D01*
%TO.C,R15*%
X143525538Y-95265000D02*
X143071410Y-95265000D01*
X143525538Y-96735000D02*
X143071410Y-96735000D01*
%TO.C,J2*%
X154370000Y-86870000D02*
X164650000Y-86870000D01*
X154370000Y-89470000D02*
X154370000Y-86870000D01*
X154370000Y-92070000D02*
X154370000Y-90740000D01*
X155700000Y-92070000D02*
X154370000Y-92070000D01*
X156970000Y-89470000D02*
X154370000Y-89470000D01*
X156970000Y-92070000D02*
X156970000Y-89470000D01*
X156970000Y-92070000D02*
X164650000Y-92070000D01*
X164650000Y-92070000D02*
X164650000Y-86870000D01*
%TO.C,C12*%
X146935000Y-121661252D02*
X146935000Y-121138748D01*
X145465000Y-121661252D02*
X145465000Y-121138748D01*
%TD*%
M02*
