%TF.GenerationSoftware,KiCad,Pcbnew,8.0.7*%
%TF.CreationDate,2025-01-11T16:41:09-06:00*%
%TF.ProjectId,ptSolar,7074536f-6c61-4722-9e6b-696361645f70,rev?*%
%TF.SameCoordinates,Original*%
%TF.FileFunction,Paste,Top*%
%TF.FilePolarity,Positive*%
%FSLAX46Y46*%
G04 Gerber Fmt 4.6, Leading zero omitted, Abs format (unit mm)*
G04 Created by KiCad (PCBNEW 8.0.7) date 2025-01-11 16:41:09*
%MOMM*%
%LPD*%
G01*
G04 APERTURE LIST*
G04 Aperture macros list*
%AMRoundRect*
0 Rectangle with rounded corners*
0 $1 Rounding radius*
0 $2 $3 $4 $5 $6 $7 $8 $9 X,Y pos of 4 corners*
0 Add a 4 corners polygon primitive as box body*
4,1,4,$2,$3,$4,$5,$6,$7,$8,$9,$2,$3,0*
0 Add four circle primitives for the rounded corners*
1,1,$1+$1,$2,$3*
1,1,$1+$1,$4,$5*
1,1,$1+$1,$6,$7*
1,1,$1+$1,$8,$9*
0 Add four rect primitives between the rounded corners*
20,1,$1+$1,$2,$3,$4,$5,0*
20,1,$1+$1,$4,$5,$6,$7,0*
20,1,$1+$1,$6,$7,$8,$9,0*
20,1,$1+$1,$8,$9,$2,$3,0*%
G04 Aperture macros list end*
%ADD10RoundRect,0.375000X0.375000X0.625000X-0.375000X0.625000X-0.375000X-0.625000X0.375000X-0.625000X0*%
%ADD11RoundRect,0.250000X0.262500X0.450000X-0.262500X0.450000X-0.262500X-0.450000X0.262500X-0.450000X0*%
%ADD12RoundRect,0.150000X0.625000X-0.150000X0.625000X0.150000X-0.625000X0.150000X-0.625000X-0.150000X0*%
%ADD13RoundRect,0.250000X0.650000X-0.350000X0.650000X0.350000X-0.650000X0.350000X-0.650000X-0.350000X0*%
%ADD14RoundRect,0.250000X-0.250000X-0.475000X0.250000X-0.475000X0.250000X0.475000X-0.250000X0.475000X0*%
%ADD15RoundRect,0.243750X-0.243750X-0.456250X0.243750X-0.456250X0.243750X0.456250X-0.243750X0.456250X0*%
%ADD16RoundRect,0.250000X0.250000X0.475000X-0.250000X0.475000X-0.250000X-0.475000X0.250000X-0.475000X0*%
%ADD17RoundRect,0.150000X0.150000X-0.825000X0.150000X0.825000X-0.150000X0.825000X-0.150000X-0.825000X0*%
%ADD18R,0.350000X0.500000*%
%ADD19R,1.600000X0.550000*%
%ADD20R,0.550000X1.600000*%
%ADD21RoundRect,0.150000X-0.512500X-0.150000X0.512500X-0.150000X0.512500X0.150000X-0.512500X0.150000X0*%
%ADD22RoundRect,0.250000X0.475000X-0.250000X0.475000X0.250000X-0.475000X0.250000X-0.475000X-0.250000X0*%
%ADD23RoundRect,0.250000X-0.262500X-0.450000X0.262500X-0.450000X0.262500X0.450000X-0.262500X0.450000X0*%
%ADD24RoundRect,0.225000X0.225000X0.375000X-0.225000X0.375000X-0.225000X-0.375000X0.225000X-0.375000X0*%
%ADD25RoundRect,0.080000X0.320000X-0.820000X0.320000X0.820000X-0.320000X0.820000X-0.320000X-0.820000X0*%
%ADD26RoundRect,0.218750X0.114905X-0.424264X0.424264X-0.114905X-0.114905X0.424264X-0.424264X0.114905X0*%
%ADD27RoundRect,0.250000X-0.450000X0.262500X-0.450000X-0.262500X0.450000X-0.262500X0.450000X0.262500X0*%
%ADD28RoundRect,0.218750X0.424264X0.114905X0.114905X0.424264X-0.424264X-0.114905X-0.114905X-0.424264X0*%
%ADD29R,1.500000X5.080000*%
%ADD30R,1.900000X0.400000*%
%ADD31RoundRect,0.250000X0.450000X-0.262500X0.450000X0.262500X-0.450000X0.262500X-0.450000X-0.262500X0*%
G04 APERTURE END LIST*
D10*
%TO.C,ANT1*%
X137250000Y-137750000D03*
X145250000Y-137750000D03*
%TD*%
D11*
%TO.C,R6*%
X164622500Y-132250000D03*
X162797500Y-132250000D03*
%TD*%
D12*
%TO.C,J5*%
X161375000Y-105750000D03*
X161375000Y-104750000D03*
X161375000Y-103750000D03*
X161375000Y-102750000D03*
D13*
X165250000Y-107050000D03*
X165250000Y-101450000D03*
%TD*%
D14*
%TO.C,C11*%
X137350000Y-88250000D03*
X139250000Y-88250000D03*
%TD*%
D15*
%TO.C,D2*%
X148062500Y-96000000D03*
X149937500Y-96000000D03*
%TD*%
D16*
%TO.C,C16*%
X159750000Y-90250000D03*
X157850000Y-90250000D03*
%TD*%
D17*
%TO.C,U3*%
X137400000Y-97750000D03*
X138670000Y-97750000D03*
X139940000Y-97750000D03*
X141210000Y-97750000D03*
X142480000Y-97750000D03*
X143750000Y-97750000D03*
X145020000Y-97750000D03*
X145020000Y-92800000D03*
X143750000Y-92800000D03*
X142480000Y-92800000D03*
X141210000Y-92800000D03*
X139940000Y-92800000D03*
X138670000Y-92800000D03*
X137400000Y-92800000D03*
%TD*%
D14*
%TO.C,C13*%
X162780000Y-112250000D03*
X164680000Y-112250000D03*
%TD*%
D18*
%TO.C,U4*%
X153050000Y-98500000D03*
X153700000Y-98500000D03*
X154350000Y-98500000D03*
X155000000Y-98500000D03*
X155000000Y-100550000D03*
X154350000Y-100550000D03*
X153700000Y-100550000D03*
X153050000Y-100550000D03*
%TD*%
D19*
%TO.C,U7*%
X146000000Y-107200000D03*
X146000000Y-108000000D03*
X146000000Y-108800000D03*
X146000000Y-109600000D03*
X146000000Y-110400000D03*
X146000000Y-111200000D03*
X146000000Y-112000000D03*
X146000000Y-112800000D03*
D20*
X147450000Y-114250000D03*
X148250000Y-114250000D03*
X149050000Y-114250000D03*
X149850000Y-114250000D03*
X150650000Y-114250000D03*
X151450000Y-114250000D03*
X152250000Y-114250000D03*
X153050000Y-114250000D03*
D19*
X154500000Y-112800000D03*
X154500000Y-112000000D03*
X154500000Y-111200000D03*
X154500000Y-110400000D03*
X154500000Y-109600000D03*
X154500000Y-108800000D03*
X154500000Y-108000000D03*
X154500000Y-107200000D03*
D20*
X153050000Y-105750000D03*
X152250000Y-105750000D03*
X151450000Y-105750000D03*
X150650000Y-105750000D03*
X149850000Y-105750000D03*
X149050000Y-105750000D03*
X148250000Y-105750000D03*
X147450000Y-105750000D03*
%TD*%
D21*
%TO.C,U5*%
X132025000Y-86350000D03*
X132025000Y-87300000D03*
X132025000Y-88250000D03*
X134300000Y-88250000D03*
X134300000Y-86350000D03*
%TD*%
D16*
%TO.C,C10*%
X147180000Y-81765000D03*
X145280000Y-81765000D03*
%TD*%
D22*
%TO.C,C8*%
X142750000Y-109700000D03*
X142750000Y-107800000D03*
%TD*%
D23*
%TO.C,R7*%
X145337500Y-89250000D03*
X147162500Y-89250000D03*
%TD*%
D24*
%TO.C,D1*%
X134900000Y-81250000D03*
X131600000Y-81250000D03*
%TD*%
D16*
%TO.C,C4*%
X134200000Y-75750000D03*
X132300000Y-75750000D03*
%TD*%
D14*
%TO.C,C15*%
X132300000Y-108750000D03*
X134200000Y-108750000D03*
%TD*%
D16*
%TO.C,C7*%
X134200000Y-97750000D03*
X132300000Y-97750000D03*
%TD*%
D11*
%TO.C,R1*%
X147162500Y-79250000D03*
X145337500Y-79250000D03*
%TD*%
D25*
%TO.C,U1*%
X146650000Y-121750000D03*
X145550000Y-121750000D03*
X144450000Y-121750000D03*
X143350000Y-121750000D03*
X142250000Y-121750000D03*
X141150000Y-121750000D03*
X140050000Y-121750000D03*
X138950000Y-121750000D03*
X137850000Y-121750000D03*
X137850000Y-131450000D03*
X138950000Y-131450000D03*
X140050000Y-131450000D03*
X141150000Y-131450000D03*
X142250000Y-131450000D03*
X143350000Y-131450000D03*
X144450000Y-131450000D03*
X145550000Y-131450000D03*
X146650000Y-131450000D03*
%TD*%
D26*
%TO.C,L2*%
X153548699Y-84501301D03*
X155051301Y-82998699D03*
%TD*%
D16*
%TO.C,C18*%
X159750000Y-81750000D03*
X157850000Y-81750000D03*
%TD*%
D27*
%TO.C,R5*%
X142720000Y-111925000D03*
X142720000Y-113750000D03*
%TD*%
D16*
%TO.C,C19*%
X159750000Y-77250000D03*
X157850000Y-77250000D03*
%TD*%
D23*
%TO.C,R3*%
X148087500Y-93000000D03*
X149912500Y-93000000D03*
%TD*%
%TO.C,R2*%
X145337500Y-84280000D03*
X147162500Y-84280000D03*
%TD*%
%TO.C,R11*%
X145337500Y-86765000D03*
X147162500Y-86765000D03*
%TD*%
D14*
%TO.C,C6*%
X137350000Y-85500000D03*
X139250000Y-85500000D03*
%TD*%
D22*
%TO.C,C12*%
X157750000Y-111950000D03*
X157750000Y-110050000D03*
%TD*%
D14*
%TO.C,C5*%
X137350000Y-82750000D03*
X139250000Y-82750000D03*
%TD*%
%TO.C,C14*%
X162780000Y-117947142D03*
X164680000Y-117947142D03*
%TD*%
D28*
%TO.C,L1*%
X155051301Y-89001301D03*
X153548699Y-87498699D03*
%TD*%
D29*
%TO.C,ANT2*%
X155750000Y-70750000D03*
X151500000Y-70750000D03*
X160000000Y-70750000D03*
%TD*%
D30*
%TO.C,Y2*%
X139250000Y-114337500D03*
X139250000Y-113137500D03*
X139250000Y-111937500D03*
%TD*%
D28*
%TO.C,L3*%
X155051301Y-80001301D03*
X153548699Y-78498699D03*
%TD*%
D16*
%TO.C,C3*%
X134200000Y-92750000D03*
X132300000Y-92750000D03*
%TD*%
D31*
%TO.C,R13*%
X157720000Y-107912500D03*
X157720000Y-106087500D03*
%TD*%
D23*
%TO.C,R4*%
X162797500Y-129431426D03*
X164622500Y-129431426D03*
%TD*%
%TO.C,R12*%
X157867500Y-98500000D03*
X159692500Y-98500000D03*
%TD*%
D15*
%TO.C,D3*%
X162812500Y-126567855D03*
X164687500Y-126567855D03*
%TD*%
D11*
%TO.C,R8*%
X164622500Y-115098571D03*
X162797500Y-115098571D03*
%TD*%
D14*
%TO.C,C2*%
X145350000Y-72750000D03*
X147250000Y-72750000D03*
%TD*%
D23*
%TO.C,R10*%
X132317500Y-102750000D03*
X134142500Y-102750000D03*
%TD*%
D16*
%TO.C,C17*%
X159750000Y-85750000D03*
X157850000Y-85750000D03*
%TD*%
D11*
%TO.C,R9*%
X134142500Y-105735000D03*
X132317500Y-105735000D03*
%TD*%
D16*
%TO.C,C9*%
X138700000Y-118250000D03*
X136800000Y-118250000D03*
%TD*%
M02*
