%TF.GenerationSoftware,KiCad,Pcbnew,8.0.7*%
%TF.CreationDate,2025-01-11T16:41:09-06:00*%
%TF.ProjectId,ptSolar,7074536f-6c61-4722-9e6b-696361645f70,rev?*%
%TF.SameCoordinates,Original*%
%TF.FileFunction,Copper,L2,Inr*%
%TF.FilePolarity,Positive*%
%FSLAX46Y46*%
G04 Gerber Fmt 4.6, Leading zero omitted, Abs format (unit mm)*
G04 Created by KiCad (PCBNEW 8.0.7) date 2025-01-11 16:41:09*
%MOMM*%
%LPD*%
G01*
G04 APERTURE LIST*
%TA.AperFunction,ComponentPad*%
%ADD10O,4.000000X3.000000*%
%TD*%
%TA.AperFunction,ComponentPad*%
%ADD11R,1.350000X1.350000*%
%TD*%
%TA.AperFunction,ComponentPad*%
%ADD12O,1.350000X1.350000*%
%TD*%
%TA.AperFunction,ComponentPad*%
%ADD13R,1.700000X1.700000*%
%TD*%
%TA.AperFunction,ComponentPad*%
%ADD14O,1.700000X1.700000*%
%TD*%
%TA.AperFunction,ComponentPad*%
%ADD15R,2.400000X2.400000*%
%TD*%
%TA.AperFunction,ComponentPad*%
%ADD16C,2.400000*%
%TD*%
%TA.AperFunction,ViaPad*%
%ADD17C,0.600000*%
%TD*%
%TA.AperFunction,Conductor*%
%ADD18C,1.200000*%
%TD*%
%TA.AperFunction,Conductor*%
%ADD19C,0.600000*%
%TD*%
G04 APERTURE END LIST*
D10*
%TO.N,+BATT*%
%TO.C,J1*%
X129250000Y-72000000D03*
%TO.N,GND*%
X129250000Y-137500000D03*
%TD*%
%TO.N,+BATT*%
%TO.C,J2*%
X167250000Y-72000000D03*
%TO.N,GND*%
X167250000Y-137500000D03*
%TD*%
D11*
%TO.N,/MISO*%
%TO.C,J4*%
X153265000Y-134250000D03*
D12*
%TO.N,+BATT*%
X153265000Y-132250000D03*
%TO.N,/SCK*%
X155265000Y-134250000D03*
%TO.N,/MOSI*%
X155265000Y-132250000D03*
%TO.N,/RESET*%
X157265000Y-134250000D03*
%TO.N,GND*%
X157265000Y-132250000D03*
%TD*%
D13*
%TO.N,Net-(J3-Pin_1)*%
%TO.C,J3*%
X163250000Y-96275000D03*
D14*
%TO.N,Net-(J3-Pin_2)*%
X163250000Y-93735000D03*
%TO.N,GND*%
X163250000Y-91195000D03*
%TD*%
D15*
%TO.N,+BATT*%
%TO.C,C1*%
X141250000Y-72750000D03*
D16*
%TO.N,GND*%
X141250000Y-80250000D03*
%TD*%
D17*
%TO.N,GND*%
X144250000Y-110750000D03*
X150250000Y-108750000D03*
X148000000Y-70000000D03*
X144500000Y-116250000D03*
X133500000Y-116000000D03*
X131000000Y-132500000D03*
X151250000Y-78583334D03*
X134750000Y-130250000D03*
X162250000Y-87083332D03*
X149750000Y-126000000D03*
X156000000Y-116500000D03*
X162250000Y-84249999D03*
X156750000Y-126000000D03*
X162250000Y-70000000D03*
X135000000Y-111500000D03*
X134750000Y-127750000D03*
X135750000Y-90250000D03*
X149750000Y-127750000D03*
X161250000Y-138750000D03*
X155000000Y-94500000D03*
X143333332Y-70000000D03*
X146750000Y-99250000D03*
X157500000Y-138750000D03*
X162500000Y-108000000D03*
X134000000Y-70000000D03*
X165000000Y-124000000D03*
X151250000Y-80500000D03*
X165000000Y-121500000D03*
X134750000Y-120750000D03*
X155000000Y-102000000D03*
X134750000Y-123250000D03*
X136750000Y-103750000D03*
X134750000Y-125250000D03*
X151250000Y-86000000D03*
X162250000Y-78583333D03*
X149750000Y-130250000D03*
X162250000Y-75750000D03*
X138666666Y-70000000D03*
X151250000Y-75750001D03*
X153750000Y-138750000D03*
X162250000Y-81416666D03*
X150250000Y-116250000D03*
X144000000Y-106500000D03*
%TO.N,Net-(U2-ANTENNA)*%
X155000000Y-92500000D03*
%TO.N,/RESET*%
X155500000Y-115000000D03*
X152250000Y-107750000D03*
%TO.N,/SCK*%
X161250000Y-129750000D03*
%TO.N,/MISO*%
X154710000Y-128250000D03*
%TO.N,+3.3V*%
X135750000Y-105750000D03*
X164750000Y-134250000D03*
X135750000Y-97750000D03*
X138950000Y-119750000D03*
X147750000Y-110250000D03*
X164750000Y-104050000D03*
X156500000Y-99525000D03*
X135750000Y-86250000D03*
%TO.N,Net-(U2-MIC-IN)*%
X161250000Y-117350000D03*
%TO.N,Net-(U2-HIGH{slash}LOW)*%
X149500000Y-86681090D03*
%TO.N,Net-(U7-PC0)*%
X152750000Y-111750000D03*
X132750000Y-111250000D03*
%TO.N,Net-(U2-POWER_SAVE)*%
X141250000Y-95250000D03*
%TO.N,Net-(U3-A1)*%
X150250000Y-111750000D03*
X138750000Y-100750000D03*
%TO.N,Net-(U2-PTT)*%
X144000000Y-95767959D03*
%TO.N,Net-(U2-TX_DATA)*%
X137000000Y-115000000D03*
%TO.N,Net-(U3-A2)*%
X139750000Y-99750000D03*
X149250000Y-109750000D03*
%TO.N,Net-(U2-RX_DATA)*%
X139500000Y-90500000D03*
%TO.N,/BATT-SENSE*%
X149000000Y-98500000D03*
X155750000Y-105250000D03*
%TO.N,Net-(U7-PD3)*%
X162750000Y-110250000D03*
X144175735Y-103324265D03*
%TO.N,Net-(U2-AF-OUT)*%
X135700000Y-110250000D03*
%TD*%
D18*
%TO.N,+BATT*%
X166500000Y-72750000D02*
X167250000Y-72000000D01*
D19*
X153265000Y-132250000D02*
X132750000Y-132250000D01*
X130750000Y-130250000D02*
X130750000Y-72700000D01*
D18*
X141250000Y-72750000D02*
X166500000Y-72750000D01*
D19*
X132750000Y-132250000D02*
X130750000Y-130250000D01*
X130750000Y-72700000D02*
X130050000Y-72000000D01*
%TD*%
%TA.AperFunction,Conductor*%
%TO.N,+3.3V*%
G36*
X166692539Y-68270185D02*
G01*
X166738294Y-68322989D01*
X166749500Y-68374500D01*
X166749500Y-69875500D01*
X166729815Y-69942539D01*
X166677011Y-69988294D01*
X166625500Y-69999500D01*
X166618872Y-69999500D01*
X166387772Y-70029926D01*
X166358884Y-70033730D01*
X166105581Y-70101602D01*
X166105571Y-70101605D01*
X165863309Y-70201953D01*
X165863299Y-70201958D01*
X165636196Y-70333075D01*
X165428148Y-70492718D01*
X165242718Y-70678148D01*
X165083075Y-70886196D01*
X164951958Y-71113299D01*
X164951953Y-71113309D01*
X164851605Y-71355571D01*
X164851603Y-71355578D01*
X164797473Y-71557594D01*
X164761108Y-71617254D01*
X164698261Y-71647783D01*
X164677698Y-71649500D01*
X143074499Y-71649500D01*
X143007460Y-71629815D01*
X142961705Y-71577011D01*
X142950499Y-71525500D01*
X142950499Y-71502129D01*
X142950498Y-71502123D01*
X142950497Y-71502116D01*
X142944091Y-71442517D01*
X142911662Y-71355571D01*
X142893797Y-71307671D01*
X142893793Y-71307664D01*
X142807547Y-71192455D01*
X142807544Y-71192452D01*
X142692335Y-71106206D01*
X142692328Y-71106202D01*
X142557482Y-71055908D01*
X142557483Y-71055908D01*
X142497883Y-71049501D01*
X142497881Y-71049500D01*
X142497873Y-71049500D01*
X142497864Y-71049500D01*
X140002129Y-71049500D01*
X140002123Y-71049501D01*
X139942516Y-71055908D01*
X139807671Y-71106202D01*
X139807664Y-71106206D01*
X139692455Y-71192452D01*
X139692452Y-71192455D01*
X139606206Y-71307664D01*
X139606202Y-71307671D01*
X139555908Y-71442517D01*
X139549501Y-71502116D01*
X139549501Y-71502123D01*
X139549500Y-71502135D01*
X139549500Y-73997870D01*
X139549501Y-73997876D01*
X139555908Y-74057483D01*
X139606202Y-74192328D01*
X139606206Y-74192335D01*
X139692452Y-74307544D01*
X139692455Y-74307547D01*
X139807664Y-74393793D01*
X139807671Y-74393797D01*
X139942517Y-74444091D01*
X139942516Y-74444091D01*
X139949444Y-74444835D01*
X140002127Y-74450500D01*
X142497872Y-74450499D01*
X142557483Y-74444091D01*
X142692331Y-74393796D01*
X142807546Y-74307546D01*
X142893796Y-74192331D01*
X142944091Y-74057483D01*
X142950500Y-73997873D01*
X142950500Y-73974500D01*
X142970185Y-73907461D01*
X143022989Y-73861706D01*
X143074500Y-73850500D01*
X165965280Y-73850500D01*
X166012732Y-73859938D01*
X166105581Y-73898398D01*
X166358884Y-73966270D01*
X166618880Y-74000500D01*
X166625500Y-74000500D01*
X166692539Y-74020185D01*
X166738294Y-74072989D01*
X166749500Y-74124500D01*
X166749500Y-135375500D01*
X166729815Y-135442539D01*
X166677011Y-135488294D01*
X166625500Y-135499500D01*
X166618872Y-135499500D01*
X166387772Y-135529926D01*
X166358884Y-135533730D01*
X166105581Y-135601602D01*
X166105571Y-135601605D01*
X165863309Y-135701953D01*
X165863299Y-135701958D01*
X165636196Y-135833075D01*
X165428148Y-135992718D01*
X165242718Y-136178148D01*
X165083075Y-136386196D01*
X164951958Y-136613299D01*
X164951953Y-136613309D01*
X164851605Y-136855571D01*
X164851602Y-136855581D01*
X164783730Y-137108885D01*
X164749500Y-137368872D01*
X164749500Y-137631127D01*
X164776123Y-137833339D01*
X164783730Y-137891116D01*
X164851602Y-138144418D01*
X164851605Y-138144428D01*
X164951953Y-138386690D01*
X164951958Y-138386700D01*
X165083075Y-138613803D01*
X165242718Y-138821851D01*
X165242726Y-138821860D01*
X165428140Y-139007274D01*
X165428148Y-139007281D01*
X165636196Y-139166924D01*
X165863299Y-139298041D01*
X165863309Y-139298046D01*
X166060720Y-139379816D01*
X166105581Y-139398398D01*
X166358884Y-139466270D01*
X166618880Y-139500500D01*
X166625500Y-139500500D01*
X166692539Y-139520185D01*
X166738294Y-139572989D01*
X166749500Y-139624500D01*
X166749500Y-140625500D01*
X166729815Y-140692539D01*
X166677011Y-140738294D01*
X166625500Y-140749500D01*
X150874000Y-140749500D01*
X150806961Y-140729815D01*
X150761206Y-140677011D01*
X150750000Y-140625500D01*
X150750000Y-138749996D01*
X152944435Y-138749996D01*
X152944435Y-138750003D01*
X152964630Y-138929249D01*
X152964631Y-138929254D01*
X153024211Y-139099523D01*
X153120184Y-139252262D01*
X153247738Y-139379816D01*
X153277311Y-139398398D01*
X153385328Y-139466270D01*
X153400478Y-139475789D01*
X153570745Y-139535368D01*
X153570750Y-139535369D01*
X153749996Y-139555565D01*
X153750000Y-139555565D01*
X153750004Y-139555565D01*
X153929249Y-139535369D01*
X153929252Y-139535368D01*
X153929255Y-139535368D01*
X154099522Y-139475789D01*
X154252262Y-139379816D01*
X154379816Y-139252262D01*
X154475789Y-139099522D01*
X154535368Y-138929255D01*
X154535369Y-138929249D01*
X154555565Y-138750003D01*
X154555565Y-138749996D01*
X156694435Y-138749996D01*
X156694435Y-138750003D01*
X156714630Y-138929249D01*
X156714631Y-138929254D01*
X156774211Y-139099523D01*
X156870184Y-139252262D01*
X156997738Y-139379816D01*
X157027311Y-139398398D01*
X157135328Y-139466270D01*
X157150478Y-139475789D01*
X157320745Y-139535368D01*
X157320750Y-139535369D01*
X157499996Y-139555565D01*
X157500000Y-139555565D01*
X157500004Y-139555565D01*
X157679249Y-139535369D01*
X157679252Y-139535368D01*
X157679255Y-139535368D01*
X157849522Y-139475789D01*
X158002262Y-139379816D01*
X158129816Y-139252262D01*
X158225789Y-139099522D01*
X158285368Y-138929255D01*
X158285369Y-138929249D01*
X158305565Y-138750003D01*
X158305565Y-138749996D01*
X160444435Y-138749996D01*
X160444435Y-138750003D01*
X160464630Y-138929249D01*
X160464631Y-138929254D01*
X160524211Y-139099523D01*
X160620184Y-139252262D01*
X160747738Y-139379816D01*
X160777311Y-139398398D01*
X160885328Y-139466270D01*
X160900478Y-139475789D01*
X161070745Y-139535368D01*
X161070750Y-139535369D01*
X161249996Y-139555565D01*
X161250000Y-139555565D01*
X161250004Y-139555565D01*
X161429249Y-139535369D01*
X161429252Y-139535368D01*
X161429255Y-139535368D01*
X161599522Y-139475789D01*
X161752262Y-139379816D01*
X161879816Y-139252262D01*
X161975789Y-139099522D01*
X162035368Y-138929255D01*
X162035369Y-138929249D01*
X162055565Y-138750003D01*
X162055565Y-138749996D01*
X162035369Y-138570750D01*
X162035368Y-138570745D01*
X161975788Y-138400476D01*
X161879815Y-138247737D01*
X161752262Y-138120184D01*
X161599523Y-138024211D01*
X161429254Y-137964631D01*
X161429249Y-137964630D01*
X161250004Y-137944435D01*
X161249996Y-137944435D01*
X161070750Y-137964630D01*
X161070745Y-137964631D01*
X160900476Y-138024211D01*
X160747737Y-138120184D01*
X160620184Y-138247737D01*
X160524211Y-138400476D01*
X160464631Y-138570745D01*
X160464630Y-138570750D01*
X160444435Y-138749996D01*
X158305565Y-138749996D01*
X158285369Y-138570750D01*
X158285368Y-138570745D01*
X158225788Y-138400476D01*
X158129815Y-138247737D01*
X158002262Y-138120184D01*
X157849523Y-138024211D01*
X157679254Y-137964631D01*
X157679249Y-137964630D01*
X157500004Y-137944435D01*
X157499996Y-137944435D01*
X157320750Y-137964630D01*
X157320745Y-137964631D01*
X157150476Y-138024211D01*
X156997737Y-138120184D01*
X156870184Y-138247737D01*
X156774211Y-138400476D01*
X156714631Y-138570745D01*
X156714630Y-138570750D01*
X156694435Y-138749996D01*
X154555565Y-138749996D01*
X154535369Y-138570750D01*
X154535368Y-138570745D01*
X154475788Y-138400476D01*
X154379815Y-138247737D01*
X154252262Y-138120184D01*
X154099523Y-138024211D01*
X153929254Y-137964631D01*
X153929249Y-137964630D01*
X153750004Y-137944435D01*
X153749996Y-137944435D01*
X153570750Y-137964630D01*
X153570745Y-137964631D01*
X153400476Y-138024211D01*
X153247737Y-138120184D01*
X153120184Y-138247737D01*
X153024211Y-138400476D01*
X152964631Y-138570745D01*
X152964630Y-138570750D01*
X152944435Y-138749996D01*
X150750000Y-138749996D01*
X150750000Y-133174500D01*
X150769685Y-133107461D01*
X150822489Y-133061706D01*
X150874000Y-133050500D01*
X152109714Y-133050500D01*
X152176753Y-133070185D01*
X152222508Y-133122989D01*
X152232452Y-133192147D01*
X152208980Y-133248810D01*
X152181614Y-133285368D01*
X152146204Y-133332668D01*
X152146202Y-133332671D01*
X152095908Y-133467517D01*
X152089501Y-133527116D01*
X152089500Y-133527135D01*
X152089500Y-134972870D01*
X152089501Y-134972876D01*
X152095908Y-135032483D01*
X152146202Y-135167328D01*
X152146206Y-135167335D01*
X152232452Y-135282544D01*
X152232455Y-135282547D01*
X152347664Y-135368793D01*
X152347671Y-135368797D01*
X152482517Y-135419091D01*
X152482516Y-135419091D01*
X152489444Y-135419835D01*
X152542127Y-135425500D01*
X153987872Y-135425499D01*
X154047483Y-135419091D01*
X154182331Y-135368796D01*
X154297546Y-135282546D01*
X154359785Y-135199404D01*
X154415718Y-135157535D01*
X154485410Y-135152551D01*
X154542588Y-135182078D01*
X154553568Y-135192088D01*
X154553570Y-135192089D01*
X154553571Y-135192090D01*
X154738786Y-135306770D01*
X154738792Y-135306773D01*
X154761664Y-135315633D01*
X154941931Y-135385470D01*
X155156074Y-135425500D01*
X155156076Y-135425500D01*
X155373924Y-135425500D01*
X155373926Y-135425500D01*
X155588069Y-135385470D01*
X155791210Y-135306772D01*
X155976432Y-135192088D01*
X156137427Y-135045322D01*
X156166047Y-135007422D01*
X156222153Y-134965787D01*
X156291865Y-134961094D01*
X156353048Y-134994836D01*
X156363946Y-135007414D01*
X156392573Y-135045322D01*
X156553568Y-135192088D01*
X156553575Y-135192092D01*
X156553576Y-135192093D01*
X156738786Y-135306770D01*
X156738792Y-135306773D01*
X156761664Y-135315633D01*
X156941931Y-135385470D01*
X157156074Y-135425500D01*
X157156076Y-135425500D01*
X157373924Y-135425500D01*
X157373926Y-135425500D01*
X157588069Y-135385470D01*
X157791210Y-135306772D01*
X157976432Y-135192088D01*
X158137427Y-135045322D01*
X158268712Y-134871472D01*
X158365817Y-134676459D01*
X158425435Y-134466923D01*
X158445536Y-134250000D01*
X158425435Y-134033077D01*
X158365817Y-133823541D01*
X158268712Y-133628528D01*
X158137427Y-133454678D01*
X158013423Y-133341634D01*
X157977145Y-133281927D01*
X157978905Y-133212079D01*
X158013423Y-133158365D01*
X158137427Y-133045322D01*
X158268712Y-132871472D01*
X158365817Y-132676459D01*
X158425435Y-132466923D01*
X158445536Y-132250000D01*
X158425435Y-132033077D01*
X158365817Y-131823541D01*
X158268712Y-131628528D01*
X158137427Y-131454678D01*
X158096246Y-131417137D01*
X157976433Y-131307913D01*
X157976423Y-131307906D01*
X157791213Y-131193229D01*
X157791207Y-131193226D01*
X157706113Y-131160260D01*
X157588069Y-131114530D01*
X157373926Y-131074500D01*
X157156074Y-131074500D01*
X156941931Y-131114530D01*
X156893130Y-131133435D01*
X156738792Y-131193226D01*
X156738786Y-131193229D01*
X156553576Y-131307906D01*
X156553566Y-131307913D01*
X156392573Y-131454676D01*
X156363953Y-131492576D01*
X156307844Y-131534211D01*
X156238132Y-131538902D01*
X156176950Y-131505159D01*
X156166047Y-131492576D01*
X156137426Y-131454676D01*
X155976433Y-131307913D01*
X155976423Y-131307906D01*
X155791213Y-131193229D01*
X155791207Y-131193226D01*
X155706113Y-131160260D01*
X155588069Y-131114530D01*
X155373926Y-131074500D01*
X155156074Y-131074500D01*
X154941931Y-131114530D01*
X154893130Y-131133435D01*
X154738792Y-131193226D01*
X154738786Y-131193229D01*
X154553576Y-131307906D01*
X154553566Y-131307913D01*
X154392573Y-131454676D01*
X154363953Y-131492576D01*
X154307844Y-131534211D01*
X154238132Y-131538902D01*
X154176950Y-131505159D01*
X154166047Y-131492576D01*
X154137426Y-131454676D01*
X153976433Y-131307913D01*
X153976423Y-131307906D01*
X153791213Y-131193229D01*
X153791207Y-131193226D01*
X153706113Y-131160260D01*
X153588069Y-131114530D01*
X153373926Y-131074500D01*
X153156074Y-131074500D01*
X152941931Y-131114530D01*
X152893130Y-131133435D01*
X152738792Y-131193226D01*
X152738786Y-131193229D01*
X152553576Y-131307906D01*
X152553569Y-131307911D01*
X152553568Y-131307912D01*
X152438094Y-131413181D01*
X152433754Y-131417137D01*
X152370950Y-131447754D01*
X152350216Y-131449500D01*
X133132940Y-131449500D01*
X133065901Y-131429815D01*
X133045259Y-131413181D01*
X131882074Y-130249996D01*
X133944435Y-130249996D01*
X133944435Y-130250003D01*
X133964630Y-130429249D01*
X133964631Y-130429254D01*
X134024211Y-130599523D01*
X134120184Y-130752262D01*
X134247738Y-130879816D01*
X134400478Y-130975789D01*
X134570745Y-131035368D01*
X134570750Y-131035369D01*
X134749996Y-131055565D01*
X134750000Y-131055565D01*
X134750004Y-131055565D01*
X134929249Y-131035369D01*
X134929252Y-131035368D01*
X134929255Y-131035368D01*
X135099522Y-130975789D01*
X135252262Y-130879816D01*
X135379816Y-130752262D01*
X135475789Y-130599522D01*
X135535368Y-130429255D01*
X135535369Y-130429249D01*
X135555565Y-130250003D01*
X135555565Y-130249996D01*
X148944435Y-130249996D01*
X148944435Y-130250003D01*
X148964630Y-130429249D01*
X148964631Y-130429254D01*
X149024211Y-130599523D01*
X149120184Y-130752262D01*
X149247738Y-130879816D01*
X149400478Y-130975789D01*
X149570745Y-131035368D01*
X149570750Y-131035369D01*
X149749996Y-131055565D01*
X149750000Y-131055565D01*
X149750004Y-131055565D01*
X149929249Y-131035369D01*
X149929252Y-131035368D01*
X149929255Y-131035368D01*
X150099522Y-130975789D01*
X150252262Y-130879816D01*
X150379816Y-130752262D01*
X150475789Y-130599522D01*
X150535368Y-130429255D01*
X150535369Y-130429249D01*
X150555565Y-130250003D01*
X150555565Y-130249996D01*
X150535369Y-130070750D01*
X150535368Y-130070745D01*
X150494776Y-129954741D01*
X150475789Y-129900478D01*
X150381235Y-129749996D01*
X160444435Y-129749996D01*
X160444435Y-129750003D01*
X160464630Y-129929249D01*
X160464631Y-129929254D01*
X160524211Y-130099523D01*
X160569223Y-130171158D01*
X160620184Y-130252262D01*
X160747738Y-130379816D01*
X160900478Y-130475789D01*
X161070745Y-130535368D01*
X161070750Y-130535369D01*
X161249996Y-130555565D01*
X161250000Y-130555565D01*
X161250004Y-130555565D01*
X161429249Y-130535369D01*
X161429252Y-130535368D01*
X161429255Y-130535368D01*
X161599522Y-130475789D01*
X161752262Y-130379816D01*
X161879816Y-130252262D01*
X161975789Y-130099522D01*
X162035368Y-129929255D01*
X162036589Y-129918422D01*
X162055565Y-129750003D01*
X162055565Y-129749996D01*
X162035369Y-129570750D01*
X162035368Y-129570745D01*
X161975788Y-129400476D01*
X161879815Y-129247737D01*
X161752262Y-129120184D01*
X161599523Y-129024211D01*
X161429254Y-128964631D01*
X161429249Y-128964630D01*
X161250004Y-128944435D01*
X161249996Y-128944435D01*
X161070750Y-128964630D01*
X161070745Y-128964631D01*
X160900476Y-129024211D01*
X160747737Y-129120184D01*
X160620184Y-129247737D01*
X160524211Y-129400476D01*
X160464631Y-129570745D01*
X160464630Y-129570750D01*
X160444435Y-129749996D01*
X150381235Y-129749996D01*
X150379816Y-129747738D01*
X150252262Y-129620184D01*
X150099523Y-129524211D01*
X149929254Y-129464631D01*
X149929249Y-129464630D01*
X149750004Y-129444435D01*
X149749996Y-129444435D01*
X149570750Y-129464630D01*
X149570745Y-129464631D01*
X149400476Y-129524211D01*
X149247737Y-129620184D01*
X149120184Y-129747737D01*
X149024211Y-129900476D01*
X148964631Y-130070745D01*
X148964630Y-130070750D01*
X148944435Y-130249996D01*
X135555565Y-130249996D01*
X135535369Y-130070750D01*
X135535368Y-130070745D01*
X135494776Y-129954741D01*
X135475789Y-129900478D01*
X135379816Y-129747738D01*
X135252262Y-129620184D01*
X135099523Y-129524211D01*
X134929254Y-129464631D01*
X134929249Y-129464630D01*
X134750004Y-129444435D01*
X134749996Y-129444435D01*
X134570750Y-129464630D01*
X134570745Y-129464631D01*
X134400476Y-129524211D01*
X134247737Y-129620184D01*
X134120184Y-129747737D01*
X134024211Y-129900476D01*
X133964631Y-130070745D01*
X133964630Y-130070750D01*
X133944435Y-130249996D01*
X131882074Y-130249996D01*
X131586819Y-129954741D01*
X131553334Y-129893418D01*
X131550500Y-129867060D01*
X131550500Y-127749996D01*
X133944435Y-127749996D01*
X133944435Y-127750003D01*
X133964630Y-127929249D01*
X133964631Y-127929254D01*
X134024211Y-128099523D01*
X134118760Y-128249996D01*
X134120184Y-128252262D01*
X134247738Y-128379816D01*
X134400478Y-128475789D01*
X134570745Y-128535368D01*
X134570750Y-128535369D01*
X134749996Y-128555565D01*
X134750000Y-128555565D01*
X134750004Y-128555565D01*
X134929249Y-128535369D01*
X134929252Y-128535368D01*
X134929255Y-128535368D01*
X135099522Y-128475789D01*
X135252262Y-128379816D01*
X135379816Y-128252262D01*
X135475789Y-128099522D01*
X135535368Y-127929255D01*
X135535369Y-127929249D01*
X135555565Y-127750003D01*
X135555565Y-127749996D01*
X135535369Y-127570750D01*
X135535368Y-127570745D01*
X135475788Y-127400476D01*
X135379815Y-127247737D01*
X135252262Y-127120184D01*
X135099523Y-127024211D01*
X134929254Y-126964631D01*
X134929249Y-126964630D01*
X134750004Y-126944435D01*
X134749996Y-126944435D01*
X134570750Y-126964630D01*
X134570745Y-126964631D01*
X134400476Y-127024211D01*
X134247737Y-127120184D01*
X134120184Y-127247737D01*
X134024211Y-127400476D01*
X133964631Y-127570745D01*
X133964630Y-127570750D01*
X133944435Y-127749996D01*
X131550500Y-127749996D01*
X131550500Y-125249996D01*
X133944435Y-125249996D01*
X133944435Y-125250003D01*
X133964630Y-125429249D01*
X133964631Y-125429254D01*
X134024211Y-125599523D01*
X134120184Y-125752262D01*
X134247738Y-125879816D01*
X134400478Y-125975789D01*
X134469678Y-126000003D01*
X134570745Y-126035368D01*
X134570750Y-126035369D01*
X134749996Y-126055565D01*
X134750000Y-126055565D01*
X134750004Y-126055565D01*
X134929249Y-126035369D01*
X134929252Y-126035368D01*
X134929255Y-126035368D01*
X135030342Y-125999996D01*
X148944435Y-125999996D01*
X148944435Y-126000003D01*
X148964630Y-126179249D01*
X148964631Y-126179254D01*
X149024211Y-126349523D01*
X149120184Y-126502262D01*
X149247738Y-126629816D01*
X149400478Y-126725789D01*
X149400480Y-126725790D01*
X149492411Y-126757959D01*
X149549187Y-126798680D01*
X149574934Y-126863633D01*
X149561478Y-126932195D01*
X149513090Y-126982597D01*
X149492411Y-126992041D01*
X149400480Y-127024209D01*
X149247737Y-127120184D01*
X149120184Y-127247737D01*
X149024211Y-127400476D01*
X148964631Y-127570745D01*
X148964630Y-127570750D01*
X148944435Y-127749996D01*
X148944435Y-127750003D01*
X148964630Y-127929249D01*
X148964631Y-127929254D01*
X149024211Y-128099523D01*
X149118760Y-128249996D01*
X149120184Y-128252262D01*
X149247738Y-128379816D01*
X149400478Y-128475789D01*
X149570745Y-128535368D01*
X149570750Y-128535369D01*
X149749996Y-128555565D01*
X149750000Y-128555565D01*
X149750004Y-128555565D01*
X149929249Y-128535369D01*
X149929252Y-128535368D01*
X149929255Y-128535368D01*
X150099522Y-128475789D01*
X150252262Y-128379816D01*
X150379816Y-128252262D01*
X150381240Y-128249996D01*
X153904435Y-128249996D01*
X153904435Y-128250003D01*
X153924630Y-128429249D01*
X153924631Y-128429254D01*
X153984211Y-128599523D01*
X154080184Y-128752262D01*
X154207738Y-128879816D01*
X154298080Y-128936582D01*
X154342721Y-128964632D01*
X154360478Y-128975789D01*
X154498860Y-129024211D01*
X154530745Y-129035368D01*
X154530750Y-129035369D01*
X154709996Y-129055565D01*
X154710000Y-129055565D01*
X154710004Y-129055565D01*
X154889249Y-129035369D01*
X154889252Y-129035368D01*
X154889255Y-129035368D01*
X155059522Y-128975789D01*
X155212262Y-128879816D01*
X155339816Y-128752262D01*
X155435789Y-128599522D01*
X155495368Y-128429255D01*
X155495369Y-128429249D01*
X155515565Y-128250003D01*
X155515565Y-128249996D01*
X155495369Y-128070750D01*
X155495368Y-128070745D01*
X155435789Y-127900478D01*
X155339816Y-127747738D01*
X155212262Y-127620184D01*
X155059523Y-127524211D01*
X154889254Y-127464631D01*
X154889249Y-127464630D01*
X154710004Y-127444435D01*
X154709996Y-127444435D01*
X154530750Y-127464630D01*
X154530745Y-127464631D01*
X154360476Y-127524211D01*
X154207737Y-127620184D01*
X154080184Y-127747737D01*
X153984211Y-127900476D01*
X153924631Y-128070745D01*
X153924630Y-128070750D01*
X153904435Y-128249996D01*
X150381240Y-128249996D01*
X150475789Y-128099522D01*
X150535368Y-127929255D01*
X150535369Y-127929249D01*
X150555565Y-127750003D01*
X150555565Y-127749996D01*
X150535369Y-127570750D01*
X150535368Y-127570745D01*
X150475788Y-127400476D01*
X150379815Y-127247737D01*
X150252262Y-127120184D01*
X150099523Y-127024211D01*
X150007588Y-126992042D01*
X149950812Y-126951320D01*
X149925065Y-126886367D01*
X149938521Y-126817806D01*
X149986908Y-126767403D01*
X150007588Y-126757958D01*
X150099522Y-126725789D01*
X150252262Y-126629816D01*
X150379816Y-126502262D01*
X150475789Y-126349522D01*
X150535368Y-126179255D01*
X150535369Y-126179249D01*
X150555565Y-126000003D01*
X150555565Y-125999996D01*
X155944435Y-125999996D01*
X155944435Y-126000003D01*
X155964630Y-126179249D01*
X155964631Y-126179254D01*
X156024211Y-126349523D01*
X156120184Y-126502262D01*
X156247738Y-126629816D01*
X156400478Y-126725789D01*
X156492412Y-126757958D01*
X156570745Y-126785368D01*
X156570750Y-126785369D01*
X156749996Y-126805565D01*
X156750000Y-126805565D01*
X156750004Y-126805565D01*
X156929249Y-126785369D01*
X156929252Y-126785368D01*
X156929255Y-126785368D01*
X157099522Y-126725789D01*
X157252262Y-126629816D01*
X157379816Y-126502262D01*
X157475789Y-126349522D01*
X157535368Y-126179255D01*
X157535369Y-126179249D01*
X157555565Y-126000003D01*
X157555565Y-125999996D01*
X157535369Y-125820750D01*
X157535368Y-125820745D01*
X157475788Y-125650476D01*
X157379815Y-125497737D01*
X157252262Y-125370184D01*
X157099523Y-125274211D01*
X156929254Y-125214631D01*
X156929249Y-125214630D01*
X156750004Y-125194435D01*
X156749996Y-125194435D01*
X156570750Y-125214630D01*
X156570745Y-125214631D01*
X156400476Y-125274211D01*
X156247737Y-125370184D01*
X156120184Y-125497737D01*
X156024211Y-125650476D01*
X155964631Y-125820745D01*
X155964630Y-125820750D01*
X155944435Y-125999996D01*
X150555565Y-125999996D01*
X150535369Y-125820750D01*
X150535368Y-125820745D01*
X150475788Y-125650476D01*
X150379815Y-125497737D01*
X150252262Y-125370184D01*
X150099523Y-125274211D01*
X149929254Y-125214631D01*
X149929249Y-125214630D01*
X149750004Y-125194435D01*
X149749996Y-125194435D01*
X149570750Y-125214630D01*
X149570745Y-125214631D01*
X149400476Y-125274211D01*
X149247737Y-125370184D01*
X149120184Y-125497737D01*
X149024211Y-125650476D01*
X148964631Y-125820745D01*
X148964630Y-125820750D01*
X148944435Y-125999996D01*
X135030342Y-125999996D01*
X135099522Y-125975789D01*
X135252262Y-125879816D01*
X135379816Y-125752262D01*
X135475789Y-125599522D01*
X135535368Y-125429255D01*
X135555565Y-125250000D01*
X135549304Y-125194435D01*
X135535369Y-125070750D01*
X135535368Y-125070745D01*
X135475788Y-124900476D01*
X135403461Y-124785369D01*
X135379816Y-124747738D01*
X135252262Y-124620184D01*
X135099523Y-124524211D01*
X134929254Y-124464631D01*
X134929249Y-124464630D01*
X134750004Y-124444435D01*
X134749996Y-124444435D01*
X134570750Y-124464630D01*
X134570745Y-124464631D01*
X134400476Y-124524211D01*
X134247737Y-124620184D01*
X134120184Y-124747737D01*
X134024211Y-124900476D01*
X133964631Y-125070745D01*
X133964630Y-125070750D01*
X133944435Y-125249996D01*
X131550500Y-125249996D01*
X131550500Y-123249996D01*
X133944435Y-123249996D01*
X133944435Y-123250003D01*
X133964630Y-123429249D01*
X133964631Y-123429254D01*
X134024211Y-123599523D01*
X134120184Y-123752262D01*
X134247738Y-123879816D01*
X134400478Y-123975789D01*
X134469678Y-124000003D01*
X134570745Y-124035368D01*
X134570750Y-124035369D01*
X134749996Y-124055565D01*
X134750000Y-124055565D01*
X134750004Y-124055565D01*
X134929249Y-124035369D01*
X134929252Y-124035368D01*
X134929255Y-124035368D01*
X135030342Y-123999996D01*
X164194435Y-123999996D01*
X164194435Y-124000003D01*
X164214630Y-124179249D01*
X164214631Y-124179254D01*
X164274211Y-124349523D01*
X164333849Y-124444435D01*
X164370184Y-124502262D01*
X164497738Y-124629816D01*
X164650478Y-124725789D01*
X164713202Y-124747737D01*
X164820745Y-124785368D01*
X164820750Y-124785369D01*
X164999996Y-124805565D01*
X165000000Y-124805565D01*
X165000004Y-124805565D01*
X165179249Y-124785369D01*
X165179252Y-124785368D01*
X165179255Y-124785368D01*
X165349522Y-124725789D01*
X165502262Y-124629816D01*
X165629816Y-124502262D01*
X165725789Y-124349522D01*
X165785368Y-124179255D01*
X165785369Y-124179249D01*
X165805565Y-124000003D01*
X165805565Y-123999996D01*
X165785369Y-123820750D01*
X165785368Y-123820745D01*
X165725788Y-123650476D01*
X165629815Y-123497737D01*
X165502262Y-123370184D01*
X165349523Y-123274211D01*
X165179254Y-123214631D01*
X165179249Y-123214630D01*
X165000004Y-123194435D01*
X164999996Y-123194435D01*
X164820750Y-123214630D01*
X164820745Y-123214631D01*
X164650476Y-123274211D01*
X164497737Y-123370184D01*
X164370184Y-123497737D01*
X164274211Y-123650476D01*
X164214631Y-123820745D01*
X164214630Y-123820750D01*
X164194435Y-123999996D01*
X135030342Y-123999996D01*
X135099522Y-123975789D01*
X135252262Y-123879816D01*
X135379816Y-123752262D01*
X135475789Y-123599522D01*
X135535368Y-123429255D01*
X135555565Y-123250000D01*
X135549304Y-123194435D01*
X135535369Y-123070750D01*
X135535368Y-123070745D01*
X135475788Y-122900476D01*
X135379815Y-122747737D01*
X135252262Y-122620184D01*
X135099523Y-122524211D01*
X134929254Y-122464631D01*
X134929249Y-122464630D01*
X134750004Y-122444435D01*
X134749996Y-122444435D01*
X134570750Y-122464630D01*
X134570745Y-122464631D01*
X134400476Y-122524211D01*
X134247737Y-122620184D01*
X134120184Y-122747737D01*
X134024211Y-122900476D01*
X133964631Y-123070745D01*
X133964630Y-123070750D01*
X133944435Y-123249996D01*
X131550500Y-123249996D01*
X131550500Y-120749996D01*
X133944435Y-120749996D01*
X133944435Y-120750003D01*
X133964630Y-120929249D01*
X133964631Y-120929254D01*
X134024211Y-121099523D01*
X134120184Y-121252262D01*
X134247738Y-121379816D01*
X134400478Y-121475789D01*
X134469678Y-121500003D01*
X134570745Y-121535368D01*
X134570750Y-121535369D01*
X134749996Y-121555565D01*
X134750000Y-121555565D01*
X134750004Y-121555565D01*
X134929249Y-121535369D01*
X134929252Y-121535368D01*
X134929255Y-121535368D01*
X135030342Y-121499996D01*
X164194435Y-121499996D01*
X164194435Y-121500003D01*
X164214630Y-121679249D01*
X164214631Y-121679254D01*
X164274211Y-121849523D01*
X164370184Y-122002262D01*
X164497738Y-122129816D01*
X164650478Y-122225789D01*
X164820745Y-122285368D01*
X164820750Y-122285369D01*
X164999996Y-122305565D01*
X165000000Y-122305565D01*
X165000004Y-122305565D01*
X165179249Y-122285369D01*
X165179252Y-122285368D01*
X165179255Y-122285368D01*
X165349522Y-122225789D01*
X165502262Y-122129816D01*
X165629816Y-122002262D01*
X165725789Y-121849522D01*
X165785368Y-121679255D01*
X165785369Y-121679249D01*
X165805565Y-121500003D01*
X165805565Y-121499996D01*
X165785369Y-121320750D01*
X165785368Y-121320745D01*
X165725788Y-121150476D01*
X165629815Y-120997737D01*
X165502262Y-120870184D01*
X165349523Y-120774211D01*
X165179254Y-120714631D01*
X165179249Y-120714630D01*
X165000004Y-120694435D01*
X164999996Y-120694435D01*
X164820750Y-120714630D01*
X164820745Y-120714631D01*
X164650476Y-120774211D01*
X164497737Y-120870184D01*
X164370184Y-120997737D01*
X164274211Y-121150476D01*
X164214631Y-121320745D01*
X164214630Y-121320750D01*
X164194435Y-121499996D01*
X135030342Y-121499996D01*
X135099522Y-121475789D01*
X135252262Y-121379816D01*
X135379816Y-121252262D01*
X135475789Y-121099522D01*
X135535368Y-120929255D01*
X135555565Y-120750000D01*
X135549304Y-120694435D01*
X135535369Y-120570750D01*
X135535368Y-120570745D01*
X135475788Y-120400476D01*
X135379815Y-120247737D01*
X135252262Y-120120184D01*
X135099523Y-120024211D01*
X134929254Y-119964631D01*
X134929249Y-119964630D01*
X134750004Y-119944435D01*
X134749996Y-119944435D01*
X134570750Y-119964630D01*
X134570745Y-119964631D01*
X134400476Y-120024211D01*
X134247737Y-120120184D01*
X134120184Y-120247737D01*
X134024211Y-120400476D01*
X133964631Y-120570745D01*
X133964630Y-120570750D01*
X133944435Y-120749996D01*
X131550500Y-120749996D01*
X131550500Y-117349996D01*
X160444435Y-117349996D01*
X160444435Y-117350003D01*
X160464630Y-117529249D01*
X160464631Y-117529254D01*
X160524211Y-117699523D01*
X160620184Y-117852262D01*
X160747738Y-117979816D01*
X160900478Y-118075789D01*
X161070745Y-118135368D01*
X161070750Y-118135369D01*
X161249996Y-118155565D01*
X161250000Y-118155565D01*
X161250004Y-118155565D01*
X161429249Y-118135369D01*
X161429252Y-118135368D01*
X161429255Y-118135368D01*
X161599522Y-118075789D01*
X161752262Y-117979816D01*
X161879816Y-117852262D01*
X161975789Y-117699522D01*
X162035368Y-117529255D01*
X162055565Y-117350000D01*
X162050558Y-117305565D01*
X162035369Y-117170750D01*
X162035368Y-117170745D01*
X161987998Y-117035369D01*
X161975789Y-117000478D01*
X161879816Y-116847738D01*
X161752262Y-116720184D01*
X161687124Y-116679255D01*
X161599523Y-116624211D01*
X161429254Y-116564631D01*
X161429249Y-116564630D01*
X161250004Y-116544435D01*
X161249996Y-116544435D01*
X161070750Y-116564630D01*
X161070745Y-116564631D01*
X160900476Y-116624211D01*
X160747737Y-116720184D01*
X160620184Y-116847737D01*
X160524211Y-117000476D01*
X160464631Y-117170745D01*
X160464630Y-117170750D01*
X160444435Y-117349996D01*
X131550500Y-117349996D01*
X131550500Y-115999996D01*
X132694435Y-115999996D01*
X132694435Y-116000003D01*
X132714630Y-116179249D01*
X132714631Y-116179254D01*
X132774211Y-116349523D01*
X132868760Y-116499996D01*
X132870184Y-116502262D01*
X132997738Y-116629816D01*
X133076410Y-116679249D01*
X133141557Y-116720184D01*
X133150478Y-116725789D01*
X133320745Y-116785368D01*
X133320750Y-116785369D01*
X133499996Y-116805565D01*
X133500000Y-116805565D01*
X133500004Y-116805565D01*
X133679249Y-116785369D01*
X133679252Y-116785368D01*
X133679255Y-116785368D01*
X133849522Y-116725789D01*
X134002262Y-116629816D01*
X134129816Y-116502262D01*
X134225789Y-116349522D01*
X134260615Y-116249996D01*
X143694435Y-116249996D01*
X143694435Y-116250003D01*
X143714630Y-116429249D01*
X143714631Y-116429254D01*
X143774211Y-116599523D01*
X143850028Y-116720184D01*
X143870184Y-116752262D01*
X143997738Y-116879816D01*
X144150478Y-116975789D01*
X144320745Y-117035368D01*
X144320750Y-117035369D01*
X144499996Y-117055565D01*
X144500000Y-117055565D01*
X144500004Y-117055565D01*
X144679249Y-117035369D01*
X144679252Y-117035368D01*
X144679255Y-117035368D01*
X144849522Y-116975789D01*
X145002262Y-116879816D01*
X145129816Y-116752262D01*
X145225789Y-116599522D01*
X145285368Y-116429255D01*
X145294352Y-116349522D01*
X145305565Y-116250003D01*
X145305565Y-116249996D01*
X149444435Y-116249996D01*
X149444435Y-116250003D01*
X149464630Y-116429249D01*
X149464631Y-116429254D01*
X149524211Y-116599523D01*
X149600028Y-116720184D01*
X149620184Y-116752262D01*
X149747738Y-116879816D01*
X149900478Y-116975789D01*
X150070745Y-117035368D01*
X150070750Y-117035369D01*
X150249996Y-117055565D01*
X150250000Y-117055565D01*
X150250004Y-117055565D01*
X150429249Y-117035369D01*
X150429252Y-117035368D01*
X150429255Y-117035368D01*
X150599522Y-116975789D01*
X150752262Y-116879816D01*
X150879816Y-116752262D01*
X150975789Y-116599522D01*
X151035368Y-116429255D01*
X151044352Y-116349522D01*
X151055565Y-116250003D01*
X151055565Y-116249996D01*
X151035369Y-116070750D01*
X151035368Y-116070745D01*
X151008046Y-115992663D01*
X150975789Y-115900478D01*
X150879816Y-115747738D01*
X150752262Y-115620184D01*
X150752092Y-115620077D01*
X150599523Y-115524211D01*
X150429254Y-115464631D01*
X150429249Y-115464630D01*
X150250004Y-115444435D01*
X150249996Y-115444435D01*
X150070750Y-115464630D01*
X150070745Y-115464631D01*
X149900476Y-115524211D01*
X149747737Y-115620184D01*
X149620184Y-115747737D01*
X149524211Y-115900476D01*
X149464631Y-116070745D01*
X149464630Y-116070750D01*
X149444435Y-116249996D01*
X145305565Y-116249996D01*
X145285369Y-116070750D01*
X145285368Y-116070745D01*
X145258046Y-115992663D01*
X145225789Y-115900478D01*
X145129816Y-115747738D01*
X145002262Y-115620184D01*
X145002092Y-115620077D01*
X144849523Y-115524211D01*
X144679254Y-115464631D01*
X144679249Y-115464630D01*
X144500004Y-115444435D01*
X144499996Y-115444435D01*
X144320750Y-115464630D01*
X144320745Y-115464631D01*
X144150476Y-115524211D01*
X143997737Y-115620184D01*
X143870184Y-115747737D01*
X143774211Y-115900476D01*
X143714631Y-116070745D01*
X143714630Y-116070750D01*
X143694435Y-116249996D01*
X134260615Y-116249996D01*
X134285368Y-116179255D01*
X134285369Y-116179249D01*
X134305565Y-116000003D01*
X134305565Y-115999996D01*
X134285369Y-115820750D01*
X134285368Y-115820745D01*
X134248237Y-115714632D01*
X134225789Y-115650478D01*
X134129816Y-115497738D01*
X134002262Y-115370184D01*
X133969379Y-115349522D01*
X133849523Y-115274211D01*
X133679254Y-115214631D01*
X133679249Y-115214630D01*
X133500004Y-115194435D01*
X133499996Y-115194435D01*
X133320750Y-115214630D01*
X133320745Y-115214631D01*
X133150476Y-115274211D01*
X132997737Y-115370184D01*
X132870184Y-115497737D01*
X132774211Y-115650476D01*
X132714631Y-115820745D01*
X132714630Y-115820750D01*
X132694435Y-115999996D01*
X131550500Y-115999996D01*
X131550500Y-114999996D01*
X136194435Y-114999996D01*
X136194435Y-115000003D01*
X136214630Y-115179249D01*
X136214631Y-115179254D01*
X136274211Y-115349523D01*
X136333849Y-115444435D01*
X136370184Y-115502262D01*
X136497738Y-115629816D01*
X136580397Y-115681754D01*
X136632721Y-115714632D01*
X136650478Y-115725789D01*
X136713202Y-115747737D01*
X136820745Y-115785368D01*
X136820750Y-115785369D01*
X136999996Y-115805565D01*
X137000000Y-115805565D01*
X137000004Y-115805565D01*
X137179249Y-115785369D01*
X137179252Y-115785368D01*
X137179255Y-115785368D01*
X137349522Y-115725789D01*
X137502262Y-115629816D01*
X137629816Y-115502262D01*
X137725789Y-115349522D01*
X137785368Y-115179255D01*
X137805565Y-115000000D01*
X137805565Y-114999996D01*
X154694435Y-114999996D01*
X154694435Y-115000003D01*
X154714630Y-115179249D01*
X154714631Y-115179254D01*
X154774211Y-115349523D01*
X154833849Y-115444435D01*
X154870184Y-115502262D01*
X154997738Y-115629816D01*
X155080397Y-115681754D01*
X155132721Y-115714632D01*
X155150478Y-115725789D01*
X155213202Y-115747737D01*
X155327318Y-115787668D01*
X155326373Y-115790367D01*
X155376132Y-115818192D01*
X155408998Y-115879848D01*
X155403313Y-115949486D01*
X155375259Y-115992663D01*
X155370183Y-115997738D01*
X155274211Y-116150476D01*
X155214631Y-116320745D01*
X155214630Y-116320750D01*
X155194435Y-116499996D01*
X155194435Y-116500003D01*
X155214630Y-116679249D01*
X155214631Y-116679254D01*
X155274211Y-116849523D01*
X155353549Y-116975788D01*
X155370184Y-117002262D01*
X155497738Y-117129816D01*
X155650478Y-117225789D01*
X155820745Y-117285368D01*
X155820750Y-117285369D01*
X155999996Y-117305565D01*
X156000000Y-117305565D01*
X156000004Y-117305565D01*
X156179249Y-117285369D01*
X156179252Y-117285368D01*
X156179255Y-117285368D01*
X156349522Y-117225789D01*
X156502262Y-117129816D01*
X156629816Y-117002262D01*
X156725789Y-116849522D01*
X156785368Y-116679255D01*
X156785369Y-116679249D01*
X156805565Y-116500003D01*
X156805565Y-116499996D01*
X156785369Y-116320750D01*
X156785368Y-116320745D01*
X156760612Y-116249996D01*
X156725789Y-116150478D01*
X156629816Y-115997738D01*
X156502262Y-115870184D01*
X156349523Y-115774211D01*
X156172682Y-115712332D01*
X156173622Y-115709644D01*
X156123814Y-115681754D01*
X156090985Y-115620077D01*
X156096713Y-115550442D01*
X156124745Y-115507332D01*
X156129816Y-115502262D01*
X156225789Y-115349522D01*
X156285368Y-115179255D01*
X156305565Y-115000000D01*
X156285368Y-114820745D01*
X156225789Y-114650478D01*
X156129816Y-114497738D01*
X156002262Y-114370184D01*
X155849523Y-114274211D01*
X155679254Y-114214631D01*
X155679249Y-114214630D01*
X155500004Y-114194435D01*
X155499996Y-114194435D01*
X155320750Y-114214630D01*
X155320745Y-114214631D01*
X155150476Y-114274211D01*
X154997737Y-114370184D01*
X154870184Y-114497737D01*
X154774211Y-114650476D01*
X154714631Y-114820745D01*
X154714630Y-114820750D01*
X154694435Y-114999996D01*
X137805565Y-114999996D01*
X137785368Y-114820745D01*
X137725789Y-114650478D01*
X137629816Y-114497738D01*
X137502262Y-114370184D01*
X137349523Y-114274211D01*
X137179254Y-114214631D01*
X137179249Y-114214630D01*
X137000004Y-114194435D01*
X136999996Y-114194435D01*
X136820750Y-114214630D01*
X136820745Y-114214631D01*
X136650476Y-114274211D01*
X136497737Y-114370184D01*
X136370184Y-114497737D01*
X136274211Y-114650476D01*
X136214631Y-114820745D01*
X136214630Y-114820750D01*
X136194435Y-114999996D01*
X131550500Y-114999996D01*
X131550500Y-111249996D01*
X131944435Y-111249996D01*
X131944435Y-111250003D01*
X131964630Y-111429249D01*
X131964631Y-111429254D01*
X132024211Y-111599523D01*
X132118760Y-111749996D01*
X132120184Y-111752262D01*
X132247738Y-111879816D01*
X132400478Y-111975789D01*
X132570745Y-112035368D01*
X132570750Y-112035369D01*
X132749996Y-112055565D01*
X132750000Y-112055565D01*
X132750004Y-112055565D01*
X132929249Y-112035369D01*
X132929252Y-112035368D01*
X132929255Y-112035368D01*
X133099522Y-111975789D01*
X133252262Y-111879816D01*
X133379816Y-111752262D01*
X133475789Y-111599522D01*
X133510615Y-111499996D01*
X134194435Y-111499996D01*
X134194435Y-111500003D01*
X134214630Y-111679249D01*
X134214631Y-111679254D01*
X134274211Y-111849523D01*
X134353549Y-111975788D01*
X134370184Y-112002262D01*
X134497738Y-112129816D01*
X134650478Y-112225789D01*
X134820745Y-112285368D01*
X134820750Y-112285369D01*
X134999996Y-112305565D01*
X135000000Y-112305565D01*
X135000004Y-112305565D01*
X135179249Y-112285369D01*
X135179252Y-112285368D01*
X135179255Y-112285368D01*
X135349522Y-112225789D01*
X135502262Y-112129816D01*
X135629816Y-112002262D01*
X135725789Y-111849522D01*
X135760615Y-111749996D01*
X149444435Y-111749996D01*
X149444435Y-111750003D01*
X149464630Y-111929249D01*
X149464631Y-111929254D01*
X149524211Y-112099523D01*
X149603549Y-112225788D01*
X149620184Y-112252262D01*
X149747738Y-112379816D01*
X149900478Y-112475789D01*
X150070745Y-112535368D01*
X150070750Y-112535369D01*
X150249996Y-112555565D01*
X150250000Y-112555565D01*
X150250004Y-112555565D01*
X150429249Y-112535369D01*
X150429252Y-112535368D01*
X150429255Y-112535368D01*
X150599522Y-112475789D01*
X150752262Y-112379816D01*
X150879816Y-112252262D01*
X150975789Y-112099522D01*
X151035368Y-111929255D01*
X151035369Y-111929249D01*
X151055565Y-111750003D01*
X151055565Y-111749996D01*
X151944435Y-111749996D01*
X151944435Y-111750003D01*
X151964630Y-111929249D01*
X151964631Y-111929254D01*
X152024211Y-112099523D01*
X152103549Y-112225788D01*
X152120184Y-112252262D01*
X152247738Y-112379816D01*
X152400478Y-112475789D01*
X152570745Y-112535368D01*
X152570750Y-112535369D01*
X152749996Y-112555565D01*
X152750000Y-112555565D01*
X152750004Y-112555565D01*
X152929249Y-112535369D01*
X152929252Y-112535368D01*
X152929255Y-112535368D01*
X153099522Y-112475789D01*
X153252262Y-112379816D01*
X153379816Y-112252262D01*
X153475789Y-112099522D01*
X153535368Y-111929255D01*
X153535369Y-111929249D01*
X153555565Y-111750003D01*
X153555565Y-111749996D01*
X153535369Y-111570750D01*
X153535368Y-111570745D01*
X153502141Y-111475788D01*
X153475789Y-111400478D01*
X153379816Y-111247738D01*
X153252262Y-111120184D01*
X153176738Y-111072729D01*
X153099523Y-111024211D01*
X152929254Y-110964631D01*
X152929249Y-110964630D01*
X152750004Y-110944435D01*
X152749996Y-110944435D01*
X152570750Y-110964630D01*
X152570745Y-110964631D01*
X152400476Y-111024211D01*
X152247737Y-111120184D01*
X152120184Y-111247737D01*
X152024211Y-111400476D01*
X151964631Y-111570745D01*
X151964630Y-111570750D01*
X151944435Y-111749996D01*
X151055565Y-111749996D01*
X151035369Y-111570750D01*
X151035368Y-111570745D01*
X151002141Y-111475788D01*
X150975789Y-111400478D01*
X150879816Y-111247738D01*
X150752262Y-111120184D01*
X150676738Y-111072729D01*
X150599523Y-111024211D01*
X150429254Y-110964631D01*
X150429249Y-110964630D01*
X150250004Y-110944435D01*
X150249996Y-110944435D01*
X150070750Y-110964630D01*
X150070745Y-110964631D01*
X149900476Y-111024211D01*
X149747737Y-111120184D01*
X149620184Y-111247737D01*
X149524211Y-111400476D01*
X149464631Y-111570745D01*
X149464630Y-111570750D01*
X149444435Y-111749996D01*
X135760615Y-111749996D01*
X135785368Y-111679255D01*
X135794352Y-111599522D01*
X135805565Y-111500003D01*
X135805565Y-111499996D01*
X135785369Y-111320750D01*
X135785366Y-111320737D01*
X135744215Y-111203135D01*
X135740653Y-111133356D01*
X135775381Y-111072729D01*
X135837375Y-111040501D01*
X135847351Y-111038962D01*
X135879255Y-111035368D01*
X136049522Y-110975789D01*
X136202262Y-110879816D01*
X136329816Y-110752262D01*
X136331240Y-110749996D01*
X143444435Y-110749996D01*
X143444435Y-110750003D01*
X143464630Y-110929249D01*
X143464631Y-110929254D01*
X143524211Y-111099523D01*
X143589315Y-111203135D01*
X143620184Y-111252262D01*
X143747738Y-111379816D01*
X143900478Y-111475789D01*
X143969678Y-111500003D01*
X144070745Y-111535368D01*
X144070750Y-111535369D01*
X144249996Y-111555565D01*
X144250000Y-111555565D01*
X144250004Y-111555565D01*
X144429249Y-111535369D01*
X144429252Y-111535368D01*
X144429255Y-111535368D01*
X144599522Y-111475789D01*
X144752262Y-111379816D01*
X144879816Y-111252262D01*
X144975789Y-111099522D01*
X145035368Y-110929255D01*
X145035369Y-110929249D01*
X145055565Y-110750003D01*
X145055565Y-110749996D01*
X145035369Y-110570750D01*
X145035368Y-110570745D01*
X144985859Y-110429257D01*
X144975789Y-110400478D01*
X144879816Y-110247738D01*
X144752262Y-110120184D01*
X144719379Y-110099522D01*
X144599523Y-110024211D01*
X144429254Y-109964631D01*
X144429249Y-109964630D01*
X144250004Y-109944435D01*
X144249996Y-109944435D01*
X144070750Y-109964630D01*
X144070745Y-109964631D01*
X143900476Y-110024211D01*
X143747737Y-110120184D01*
X143620184Y-110247737D01*
X143524211Y-110400476D01*
X143464631Y-110570745D01*
X143464630Y-110570750D01*
X143444435Y-110749996D01*
X136331240Y-110749996D01*
X136425789Y-110599522D01*
X136485368Y-110429255D01*
X136485369Y-110429249D01*
X136505565Y-110250003D01*
X136505565Y-110249996D01*
X136485369Y-110070750D01*
X136485368Y-110070745D01*
X136441170Y-109944435D01*
X136425789Y-109900478D01*
X136331235Y-109749996D01*
X148444435Y-109749996D01*
X148444435Y-109750003D01*
X148464630Y-109929249D01*
X148464631Y-109929254D01*
X148524211Y-110099523D01*
X148617341Y-110247737D01*
X148620184Y-110252262D01*
X148747738Y-110379816D01*
X148826410Y-110429249D01*
X148882721Y-110464632D01*
X148900478Y-110475789D01*
X149038860Y-110524211D01*
X149070745Y-110535368D01*
X149070750Y-110535369D01*
X149249996Y-110555565D01*
X149250000Y-110555565D01*
X149250004Y-110555565D01*
X149429249Y-110535369D01*
X149429252Y-110535368D01*
X149429255Y-110535368D01*
X149599522Y-110475789D01*
X149752262Y-110379816D01*
X149879816Y-110252262D01*
X149881240Y-110249996D01*
X161944435Y-110249996D01*
X161944435Y-110250003D01*
X161964630Y-110429249D01*
X161964631Y-110429254D01*
X162024211Y-110599523D01*
X162094282Y-110711039D01*
X162120184Y-110752262D01*
X162247738Y-110879816D01*
X162326410Y-110929249D01*
X162382721Y-110964632D01*
X162400478Y-110975789D01*
X162463202Y-110997737D01*
X162570745Y-111035368D01*
X162570750Y-111035369D01*
X162749996Y-111055565D01*
X162750000Y-111055565D01*
X162750004Y-111055565D01*
X162929249Y-111035369D01*
X162929252Y-111035368D01*
X162929255Y-111035368D01*
X163099522Y-110975789D01*
X163252262Y-110879816D01*
X163379816Y-110752262D01*
X163475789Y-110599522D01*
X163535368Y-110429255D01*
X163535369Y-110429249D01*
X163555565Y-110250003D01*
X163555565Y-110249996D01*
X163535369Y-110070750D01*
X163535368Y-110070745D01*
X163491170Y-109944435D01*
X163475789Y-109900478D01*
X163379816Y-109747738D01*
X163252262Y-109620184D01*
X163246506Y-109616567D01*
X163099523Y-109524211D01*
X162929254Y-109464631D01*
X162929249Y-109464630D01*
X162750004Y-109444435D01*
X162749996Y-109444435D01*
X162570750Y-109464630D01*
X162570745Y-109464631D01*
X162400476Y-109524211D01*
X162247737Y-109620184D01*
X162120184Y-109747737D01*
X162024211Y-109900476D01*
X161964631Y-110070745D01*
X161964630Y-110070750D01*
X161944435Y-110249996D01*
X149881240Y-110249996D01*
X149975789Y-110099522D01*
X150035368Y-109929255D01*
X150035369Y-109929249D01*
X150055565Y-109750003D01*
X150055565Y-109749997D01*
X150048285Y-109685389D01*
X150060339Y-109616567D01*
X150107688Y-109565188D01*
X150175298Y-109547563D01*
X150185385Y-109548284D01*
X150211857Y-109551267D01*
X150249998Y-109555565D01*
X150250000Y-109555565D01*
X150250004Y-109555565D01*
X150429249Y-109535369D01*
X150429252Y-109535368D01*
X150429255Y-109535368D01*
X150599522Y-109475789D01*
X150752262Y-109379816D01*
X150879816Y-109252262D01*
X150975789Y-109099522D01*
X151035368Y-108929255D01*
X151048285Y-108814611D01*
X151055565Y-108750003D01*
X151055565Y-108749996D01*
X151035369Y-108570750D01*
X151035368Y-108570745D01*
X150975788Y-108400476D01*
X150936582Y-108338080D01*
X150879816Y-108247738D01*
X150752262Y-108120184D01*
X150719379Y-108099522D01*
X150599523Y-108024211D01*
X150429254Y-107964631D01*
X150429249Y-107964630D01*
X150250004Y-107944435D01*
X150249996Y-107944435D01*
X150070750Y-107964630D01*
X150070745Y-107964631D01*
X149900476Y-108024211D01*
X149747737Y-108120184D01*
X149620184Y-108247737D01*
X149524211Y-108400476D01*
X149464631Y-108570745D01*
X149464630Y-108570750D01*
X149444435Y-108749996D01*
X149444435Y-108750004D01*
X149451714Y-108814611D01*
X149439659Y-108883433D01*
X149392310Y-108934812D01*
X149324699Y-108952436D01*
X149314611Y-108951714D01*
X149250004Y-108944435D01*
X149249996Y-108944435D01*
X149070750Y-108964630D01*
X149070745Y-108964631D01*
X148900476Y-109024211D01*
X148747737Y-109120184D01*
X148620184Y-109247737D01*
X148524211Y-109400476D01*
X148464631Y-109570745D01*
X148464630Y-109570750D01*
X148444435Y-109749996D01*
X136331235Y-109749996D01*
X136329816Y-109747738D01*
X136202262Y-109620184D01*
X136196506Y-109616567D01*
X136049523Y-109524211D01*
X135879254Y-109464631D01*
X135879249Y-109464630D01*
X135700004Y-109444435D01*
X135699996Y-109444435D01*
X135520750Y-109464630D01*
X135520745Y-109464631D01*
X135350476Y-109524211D01*
X135197737Y-109620184D01*
X135070184Y-109747737D01*
X134974211Y-109900476D01*
X134914631Y-110070745D01*
X134914630Y-110070750D01*
X134894435Y-110249996D01*
X134894435Y-110250003D01*
X134914630Y-110429249D01*
X134914632Y-110429257D01*
X134955785Y-110546865D01*
X134959346Y-110616643D01*
X134924617Y-110677271D01*
X134862624Y-110709498D01*
X134852627Y-110711039D01*
X134820749Y-110714630D01*
X134820745Y-110714631D01*
X134650476Y-110774211D01*
X134497737Y-110870184D01*
X134370184Y-110997737D01*
X134274211Y-111150476D01*
X134214631Y-111320745D01*
X134214630Y-111320750D01*
X134194435Y-111499996D01*
X133510615Y-111499996D01*
X133535368Y-111429255D01*
X133535369Y-111429249D01*
X133555565Y-111250003D01*
X133555565Y-111249996D01*
X133535369Y-111070750D01*
X133535368Y-111070745D01*
X133491170Y-110944435D01*
X133475789Y-110900478D01*
X133379816Y-110747738D01*
X133252262Y-110620184D01*
X133219379Y-110599522D01*
X133099523Y-110524211D01*
X132929254Y-110464631D01*
X132929249Y-110464630D01*
X132750004Y-110444435D01*
X132749996Y-110444435D01*
X132570750Y-110464630D01*
X132570745Y-110464631D01*
X132400476Y-110524211D01*
X132247737Y-110620184D01*
X132120184Y-110747737D01*
X132024211Y-110900476D01*
X131964631Y-111070745D01*
X131964630Y-111070750D01*
X131944435Y-111249996D01*
X131550500Y-111249996D01*
X131550500Y-107749996D01*
X151444435Y-107749996D01*
X151444435Y-107750003D01*
X151464630Y-107929249D01*
X151464631Y-107929254D01*
X151524211Y-108099523D01*
X151617341Y-108247737D01*
X151620184Y-108252262D01*
X151747738Y-108379816D01*
X151900478Y-108475789D01*
X152070745Y-108535368D01*
X152070750Y-108535369D01*
X152249996Y-108555565D01*
X152250000Y-108555565D01*
X152250004Y-108555565D01*
X152429249Y-108535369D01*
X152429252Y-108535368D01*
X152429255Y-108535368D01*
X152599522Y-108475789D01*
X152752262Y-108379816D01*
X152879816Y-108252262D01*
X152975789Y-108099522D01*
X153010615Y-107999996D01*
X161694435Y-107999996D01*
X161694435Y-108000003D01*
X161714630Y-108179249D01*
X161714631Y-108179254D01*
X161774211Y-108349523D01*
X161853549Y-108475788D01*
X161870184Y-108502262D01*
X161997738Y-108629816D01*
X162150478Y-108725789D01*
X162320745Y-108785368D01*
X162320750Y-108785369D01*
X162499996Y-108805565D01*
X162500000Y-108805565D01*
X162500004Y-108805565D01*
X162679249Y-108785369D01*
X162679252Y-108785368D01*
X162679255Y-108785368D01*
X162849522Y-108725789D01*
X163002262Y-108629816D01*
X163129816Y-108502262D01*
X163225789Y-108349522D01*
X163285368Y-108179255D01*
X163305565Y-108000000D01*
X163299304Y-107944435D01*
X163285369Y-107820750D01*
X163285368Y-107820745D01*
X163225788Y-107650476D01*
X163186582Y-107588080D01*
X163129816Y-107497738D01*
X163002262Y-107370184D01*
X162899422Y-107305565D01*
X162849523Y-107274211D01*
X162679254Y-107214631D01*
X162679249Y-107214630D01*
X162500004Y-107194435D01*
X162499996Y-107194435D01*
X162320750Y-107214630D01*
X162320745Y-107214631D01*
X162150476Y-107274211D01*
X161997737Y-107370184D01*
X161870184Y-107497737D01*
X161774211Y-107650476D01*
X161714631Y-107820745D01*
X161714630Y-107820750D01*
X161694435Y-107999996D01*
X153010615Y-107999996D01*
X153035368Y-107929255D01*
X153035369Y-107929249D01*
X153055565Y-107750003D01*
X153055565Y-107749996D01*
X153035369Y-107570750D01*
X153035368Y-107570745D01*
X152975788Y-107400476D01*
X152903461Y-107285369D01*
X152879816Y-107247738D01*
X152752262Y-107120184D01*
X152599523Y-107024211D01*
X152429254Y-106964631D01*
X152429249Y-106964630D01*
X152250004Y-106944435D01*
X152249996Y-106944435D01*
X152070750Y-106964630D01*
X152070745Y-106964631D01*
X151900476Y-107024211D01*
X151747737Y-107120184D01*
X151620184Y-107247737D01*
X151524211Y-107400476D01*
X151464631Y-107570745D01*
X151464630Y-107570750D01*
X151444435Y-107749996D01*
X131550500Y-107749996D01*
X131550500Y-106499996D01*
X143194435Y-106499996D01*
X143194435Y-106500003D01*
X143214630Y-106679249D01*
X143214631Y-106679254D01*
X143274211Y-106849523D01*
X143333849Y-106944435D01*
X143370184Y-107002262D01*
X143497738Y-107129816D01*
X143588080Y-107186582D01*
X143632721Y-107214632D01*
X143650478Y-107225789D01*
X143713202Y-107247737D01*
X143820745Y-107285368D01*
X143820750Y-107285369D01*
X143999996Y-107305565D01*
X144000000Y-107305565D01*
X144000004Y-107305565D01*
X144179249Y-107285369D01*
X144179252Y-107285368D01*
X144179255Y-107285368D01*
X144349522Y-107225789D01*
X144502262Y-107129816D01*
X144629816Y-107002262D01*
X144725789Y-106849522D01*
X144785368Y-106679255D01*
X144805565Y-106500000D01*
X144785368Y-106320745D01*
X144725789Y-106150478D01*
X144629816Y-105997738D01*
X144502262Y-105870184D01*
X144349523Y-105774211D01*
X144179254Y-105714631D01*
X144179249Y-105714630D01*
X144000004Y-105694435D01*
X143999996Y-105694435D01*
X143820750Y-105714630D01*
X143820745Y-105714631D01*
X143650476Y-105774211D01*
X143497737Y-105870184D01*
X143370184Y-105997737D01*
X143274211Y-106150476D01*
X143214631Y-106320745D01*
X143214630Y-106320750D01*
X143194435Y-106499996D01*
X131550500Y-106499996D01*
X131550500Y-105249996D01*
X154944435Y-105249996D01*
X154944435Y-105250003D01*
X154964630Y-105429249D01*
X154964631Y-105429254D01*
X155024211Y-105599523D01*
X155083849Y-105694435D01*
X155120184Y-105752262D01*
X155247738Y-105879816D01*
X155400478Y-105975789D01*
X155463202Y-105997737D01*
X155570745Y-106035368D01*
X155570750Y-106035369D01*
X155749996Y-106055565D01*
X155750000Y-106055565D01*
X155750004Y-106055565D01*
X155929249Y-106035369D01*
X155929252Y-106035368D01*
X155929255Y-106035368D01*
X156099522Y-105975789D01*
X156252262Y-105879816D01*
X156379816Y-105752262D01*
X156475789Y-105599522D01*
X156535368Y-105429255D01*
X156555565Y-105250000D01*
X156535368Y-105070745D01*
X156475789Y-104900478D01*
X156379816Y-104747738D01*
X156252262Y-104620184D01*
X156149422Y-104555565D01*
X156099523Y-104524211D01*
X155929254Y-104464631D01*
X155929249Y-104464630D01*
X155750004Y-104444435D01*
X155749996Y-104444435D01*
X155570750Y-104464630D01*
X155570745Y-104464631D01*
X155400476Y-104524211D01*
X155247737Y-104620184D01*
X155120184Y-104747737D01*
X155024211Y-104900476D01*
X154964631Y-105070745D01*
X154964630Y-105070750D01*
X154944435Y-105249996D01*
X131550500Y-105249996D01*
X131550500Y-103749996D01*
X135944435Y-103749996D01*
X135944435Y-103750003D01*
X135964630Y-103929249D01*
X135964631Y-103929254D01*
X136024211Y-104099523D01*
X136120184Y-104252262D01*
X136247738Y-104379816D01*
X136338080Y-104436582D01*
X136382721Y-104464632D01*
X136400478Y-104475789D01*
X136538860Y-104524211D01*
X136570745Y-104535368D01*
X136570750Y-104535369D01*
X136749996Y-104555565D01*
X136750000Y-104555565D01*
X136750004Y-104555565D01*
X136929249Y-104535369D01*
X136929252Y-104535368D01*
X136929255Y-104535368D01*
X137099522Y-104475789D01*
X137252262Y-104379816D01*
X137379816Y-104252262D01*
X137475789Y-104099522D01*
X137535368Y-103929255D01*
X137555565Y-103750000D01*
X137535368Y-103570745D01*
X137475789Y-103400478D01*
X137427899Y-103324261D01*
X143370170Y-103324261D01*
X143370170Y-103324268D01*
X143390365Y-103503514D01*
X143390366Y-103503519D01*
X143449946Y-103673788D01*
X143545919Y-103826527D01*
X143673473Y-103954081D01*
X143826213Y-104050054D01*
X143967587Y-104099523D01*
X143996480Y-104109633D01*
X143996485Y-104109634D01*
X144175731Y-104129830D01*
X144175735Y-104129830D01*
X144175739Y-104129830D01*
X144354984Y-104109634D01*
X144354987Y-104109633D01*
X144354990Y-104109633D01*
X144525257Y-104050054D01*
X144677997Y-103954081D01*
X144805551Y-103826527D01*
X144901524Y-103673787D01*
X144961103Y-103503520D01*
X144981300Y-103324265D01*
X144972677Y-103247737D01*
X144961104Y-103145015D01*
X144961103Y-103145010D01*
X144952416Y-103120184D01*
X144901524Y-102974743D01*
X144805551Y-102822003D01*
X144677997Y-102694449D01*
X144525258Y-102598476D01*
X144354989Y-102538896D01*
X144354984Y-102538895D01*
X144175739Y-102518700D01*
X144175731Y-102518700D01*
X143996485Y-102538895D01*
X143996480Y-102538896D01*
X143826211Y-102598476D01*
X143673472Y-102694449D01*
X143545919Y-102822002D01*
X143449946Y-102974741D01*
X143390366Y-103145010D01*
X143390365Y-103145015D01*
X143370170Y-103324261D01*
X137427899Y-103324261D01*
X137379816Y-103247738D01*
X137252262Y-103120184D01*
X137099523Y-103024211D01*
X136929254Y-102964631D01*
X136929249Y-102964630D01*
X136750004Y-102944435D01*
X136749996Y-102944435D01*
X136570750Y-102964630D01*
X136570745Y-102964631D01*
X136400476Y-103024211D01*
X136247737Y-103120184D01*
X136120184Y-103247737D01*
X136024211Y-103400476D01*
X135964631Y-103570745D01*
X135964630Y-103570750D01*
X135944435Y-103749996D01*
X131550500Y-103749996D01*
X131550500Y-101999996D01*
X154194435Y-101999996D01*
X154194435Y-102000003D01*
X154214630Y-102179249D01*
X154214631Y-102179254D01*
X154274211Y-102349523D01*
X154370184Y-102502262D01*
X154497738Y-102629816D01*
X154650478Y-102725789D01*
X154820745Y-102785368D01*
X154820750Y-102785369D01*
X154999996Y-102805565D01*
X155000000Y-102805565D01*
X155000004Y-102805565D01*
X155179249Y-102785369D01*
X155179252Y-102785368D01*
X155179255Y-102785368D01*
X155349522Y-102725789D01*
X155502262Y-102629816D01*
X155629816Y-102502262D01*
X155725789Y-102349522D01*
X155785368Y-102179255D01*
X155805565Y-102000000D01*
X155785368Y-101820745D01*
X155725789Y-101650478D01*
X155629816Y-101497738D01*
X155502262Y-101370184D01*
X155349523Y-101274211D01*
X155179254Y-101214631D01*
X155179249Y-101214630D01*
X155000004Y-101194435D01*
X154999996Y-101194435D01*
X154820750Y-101214630D01*
X154820745Y-101214631D01*
X154650476Y-101274211D01*
X154497737Y-101370184D01*
X154370184Y-101497737D01*
X154274211Y-101650476D01*
X154214631Y-101820745D01*
X154214630Y-101820750D01*
X154194435Y-101999996D01*
X131550500Y-101999996D01*
X131550500Y-100749996D01*
X137944435Y-100749996D01*
X137944435Y-100750003D01*
X137964630Y-100929249D01*
X137964631Y-100929254D01*
X138024211Y-101099523D01*
X138083849Y-101194435D01*
X138120184Y-101252262D01*
X138247738Y-101379816D01*
X138400478Y-101475789D01*
X138463202Y-101497737D01*
X138570745Y-101535368D01*
X138570750Y-101535369D01*
X138749996Y-101555565D01*
X138750000Y-101555565D01*
X138750004Y-101555565D01*
X138929249Y-101535369D01*
X138929252Y-101535368D01*
X138929255Y-101535368D01*
X139099522Y-101475789D01*
X139252262Y-101379816D01*
X139379816Y-101252262D01*
X139475789Y-101099522D01*
X139535368Y-100929255D01*
X139555565Y-100750000D01*
X139548285Y-100685388D01*
X139560339Y-100616567D01*
X139607688Y-100565188D01*
X139675298Y-100547563D01*
X139685385Y-100548284D01*
X139711857Y-100551267D01*
X139749998Y-100555565D01*
X139750000Y-100555565D01*
X139750004Y-100555565D01*
X139929249Y-100535369D01*
X139929252Y-100535368D01*
X139929255Y-100535368D01*
X140099522Y-100475789D01*
X140252262Y-100379816D01*
X140379816Y-100252262D01*
X140475789Y-100099522D01*
X140535368Y-99929255D01*
X140540531Y-99883433D01*
X140555565Y-99750003D01*
X140555565Y-99749996D01*
X140535369Y-99570750D01*
X140535368Y-99570745D01*
X140475789Y-99400478D01*
X140381235Y-99249996D01*
X145944435Y-99249996D01*
X145944435Y-99250003D01*
X145964630Y-99429249D01*
X145964631Y-99429254D01*
X146024211Y-99599523D01*
X146118760Y-99749996D01*
X146120184Y-99752262D01*
X146247738Y-99879816D01*
X146326410Y-99929249D01*
X146382721Y-99964632D01*
X146400478Y-99975789D01*
X146538860Y-100024211D01*
X146570745Y-100035368D01*
X146570750Y-100035369D01*
X146749996Y-100055565D01*
X146750000Y-100055565D01*
X146750004Y-100055565D01*
X146929249Y-100035369D01*
X146929252Y-100035368D01*
X146929255Y-100035368D01*
X147099522Y-99975789D01*
X147252262Y-99879816D01*
X147379816Y-99752262D01*
X147475789Y-99599522D01*
X147535368Y-99429255D01*
X147535369Y-99429249D01*
X147555565Y-99250003D01*
X147555565Y-99249996D01*
X147535369Y-99070750D01*
X147535368Y-99070745D01*
X147475788Y-98900476D01*
X147379815Y-98747737D01*
X147252262Y-98620184D01*
X147099523Y-98524211D01*
X147030321Y-98499996D01*
X148194435Y-98499996D01*
X148194435Y-98500003D01*
X148214630Y-98679249D01*
X148214631Y-98679254D01*
X148274211Y-98849523D01*
X148333849Y-98944435D01*
X148370184Y-99002262D01*
X148497738Y-99129816D01*
X148650478Y-99225789D01*
X148719678Y-99250003D01*
X148820745Y-99285368D01*
X148820750Y-99285369D01*
X148999996Y-99305565D01*
X149000000Y-99305565D01*
X149000004Y-99305565D01*
X149179249Y-99285369D01*
X149179252Y-99285368D01*
X149179255Y-99285368D01*
X149349522Y-99225789D01*
X149502262Y-99129816D01*
X149629816Y-99002262D01*
X149725789Y-98849522D01*
X149785368Y-98679255D01*
X149805565Y-98500000D01*
X149799304Y-98444435D01*
X149785369Y-98320750D01*
X149785368Y-98320745D01*
X149725788Y-98150476D01*
X149629815Y-97997737D01*
X149502262Y-97870184D01*
X149349523Y-97774211D01*
X149179254Y-97714631D01*
X149179249Y-97714630D01*
X149000004Y-97694435D01*
X148999996Y-97694435D01*
X148820750Y-97714630D01*
X148820745Y-97714631D01*
X148650476Y-97774211D01*
X148497737Y-97870184D01*
X148370184Y-97997737D01*
X148274211Y-98150476D01*
X148214631Y-98320745D01*
X148214630Y-98320750D01*
X148194435Y-98499996D01*
X147030321Y-98499996D01*
X146929254Y-98464631D01*
X146929249Y-98464630D01*
X146750004Y-98444435D01*
X146749996Y-98444435D01*
X146570750Y-98464630D01*
X146570745Y-98464631D01*
X146400476Y-98524211D01*
X146247737Y-98620184D01*
X146120184Y-98747737D01*
X146024211Y-98900476D01*
X145964631Y-99070745D01*
X145964630Y-99070750D01*
X145944435Y-99249996D01*
X140381235Y-99249996D01*
X140379816Y-99247738D01*
X140252262Y-99120184D01*
X140099523Y-99024211D01*
X139929254Y-98964631D01*
X139929249Y-98964630D01*
X139750004Y-98944435D01*
X139749996Y-98944435D01*
X139570750Y-98964630D01*
X139570745Y-98964631D01*
X139400476Y-99024211D01*
X139247737Y-99120184D01*
X139120184Y-99247737D01*
X139024211Y-99400476D01*
X138964631Y-99570745D01*
X138964630Y-99570750D01*
X138944435Y-99749996D01*
X138944435Y-99750004D01*
X138951714Y-99814611D01*
X138939659Y-99883433D01*
X138892310Y-99934812D01*
X138824699Y-99952436D01*
X138814611Y-99951714D01*
X138750004Y-99944435D01*
X138749996Y-99944435D01*
X138570750Y-99964630D01*
X138570745Y-99964631D01*
X138400476Y-100024211D01*
X138247737Y-100120184D01*
X138120184Y-100247737D01*
X138024211Y-100400476D01*
X137964631Y-100570745D01*
X137964630Y-100570750D01*
X137944435Y-100749996D01*
X131550500Y-100749996D01*
X131550500Y-95249996D01*
X140444435Y-95249996D01*
X140444435Y-95250003D01*
X140464630Y-95429249D01*
X140464631Y-95429254D01*
X140524211Y-95599523D01*
X140620184Y-95752262D01*
X140747738Y-95879816D01*
X140838080Y-95936582D01*
X140854999Y-95947213D01*
X140900478Y-95975789D01*
X141070745Y-96035368D01*
X141070750Y-96035369D01*
X141249996Y-96055565D01*
X141250000Y-96055565D01*
X141250004Y-96055565D01*
X141429249Y-96035369D01*
X141429252Y-96035368D01*
X141429255Y-96035368D01*
X141599522Y-95975789D01*
X141752262Y-95879816D01*
X141864123Y-95767955D01*
X143194435Y-95767955D01*
X143194435Y-95767962D01*
X143214630Y-95947208D01*
X143214631Y-95947213D01*
X143274211Y-96117482D01*
X143370184Y-96270221D01*
X143497738Y-96397775D01*
X143650478Y-96493748D01*
X143820745Y-96553327D01*
X143820750Y-96553328D01*
X143999996Y-96573524D01*
X144000000Y-96573524D01*
X144000004Y-96573524D01*
X144179249Y-96553328D01*
X144179252Y-96553327D01*
X144179255Y-96553327D01*
X144349522Y-96493748D01*
X144502262Y-96397775D01*
X144629816Y-96270221D01*
X144725789Y-96117481D01*
X144785368Y-95947214D01*
X144805565Y-95767959D01*
X144803796Y-95752262D01*
X144785369Y-95588709D01*
X144785368Y-95588704D01*
X144725788Y-95418435D01*
X144654867Y-95305565D01*
X144629816Y-95265697D01*
X144502262Y-95138143D01*
X144395007Y-95070750D01*
X144349523Y-95042170D01*
X144179254Y-94982590D01*
X144179249Y-94982589D01*
X144000004Y-94962394D01*
X143999996Y-94962394D01*
X143820750Y-94982589D01*
X143820745Y-94982590D01*
X143650476Y-95042170D01*
X143497737Y-95138143D01*
X143370184Y-95265696D01*
X143274211Y-95418435D01*
X143214631Y-95588704D01*
X143214630Y-95588709D01*
X143194435Y-95767955D01*
X141864123Y-95767955D01*
X141879816Y-95752262D01*
X141975789Y-95599522D01*
X142035368Y-95429255D01*
X142036587Y-95418435D01*
X142055565Y-95250003D01*
X142055565Y-95249996D01*
X142035369Y-95070750D01*
X142035368Y-95070745D01*
X142011405Y-95002262D01*
X141975789Y-94900478D01*
X141879816Y-94747738D01*
X141752262Y-94620184D01*
X141730317Y-94606395D01*
X141599523Y-94524211D01*
X141530321Y-94499996D01*
X154194435Y-94499996D01*
X154194435Y-94500003D01*
X154214630Y-94679249D01*
X154214631Y-94679254D01*
X154274211Y-94849523D01*
X154321323Y-94924500D01*
X154370184Y-95002262D01*
X154497738Y-95129816D01*
X154650478Y-95225789D01*
X154719678Y-95250003D01*
X154820745Y-95285368D01*
X154820750Y-95285369D01*
X154999996Y-95305565D01*
X155000000Y-95305565D01*
X155000004Y-95305565D01*
X155179249Y-95285369D01*
X155179252Y-95285368D01*
X155179255Y-95285368D01*
X155349522Y-95225789D01*
X155502262Y-95129816D01*
X155629816Y-95002262D01*
X155725789Y-94849522D01*
X155785368Y-94679255D01*
X155792024Y-94620184D01*
X155805565Y-94500003D01*
X155805565Y-94499996D01*
X155785369Y-94320750D01*
X155785368Y-94320745D01*
X155742650Y-94198664D01*
X155725789Y-94150478D01*
X155629816Y-93997738D01*
X155502262Y-93870184D01*
X155349523Y-93774211D01*
X155179254Y-93714631D01*
X155179249Y-93714630D01*
X155000004Y-93694435D01*
X154999996Y-93694435D01*
X154820750Y-93714630D01*
X154820745Y-93714631D01*
X154650476Y-93774211D01*
X154497737Y-93870184D01*
X154370184Y-93997737D01*
X154274211Y-94150476D01*
X154214631Y-94320745D01*
X154214630Y-94320750D01*
X154194435Y-94499996D01*
X141530321Y-94499996D01*
X141429254Y-94464631D01*
X141429249Y-94464630D01*
X141250004Y-94444435D01*
X141249996Y-94444435D01*
X141070750Y-94464630D01*
X141070745Y-94464631D01*
X140900476Y-94524211D01*
X140747737Y-94620184D01*
X140620184Y-94747737D01*
X140524211Y-94900476D01*
X140464631Y-95070745D01*
X140464630Y-95070750D01*
X140444435Y-95249996D01*
X131550500Y-95249996D01*
X131550500Y-92499996D01*
X154194435Y-92499996D01*
X154194435Y-92500003D01*
X154214630Y-92679249D01*
X154214631Y-92679254D01*
X154274211Y-92849523D01*
X154283056Y-92863599D01*
X154370184Y-93002262D01*
X154497738Y-93129816D01*
X154650478Y-93225789D01*
X154780641Y-93271335D01*
X154820745Y-93285368D01*
X154820750Y-93285369D01*
X154999996Y-93305565D01*
X155000000Y-93305565D01*
X155000004Y-93305565D01*
X155179249Y-93285369D01*
X155179252Y-93285368D01*
X155179255Y-93285368D01*
X155349522Y-93225789D01*
X155502262Y-93129816D01*
X155629816Y-93002262D01*
X155725789Y-92849522D01*
X155785368Y-92679255D01*
X155805565Y-92500000D01*
X155801621Y-92465000D01*
X155785369Y-92320750D01*
X155785368Y-92320745D01*
X155725788Y-92150476D01*
X155629815Y-91997737D01*
X155502262Y-91870184D01*
X155349523Y-91774211D01*
X155179254Y-91714631D01*
X155179249Y-91714630D01*
X155000004Y-91694435D01*
X154999996Y-91694435D01*
X154820750Y-91714630D01*
X154820745Y-91714631D01*
X154650476Y-91774211D01*
X154497737Y-91870184D01*
X154370184Y-91997737D01*
X154274211Y-92150476D01*
X154214631Y-92320745D01*
X154214630Y-92320750D01*
X154194435Y-92499996D01*
X131550500Y-92499996D01*
X131550500Y-90249996D01*
X134944435Y-90249996D01*
X134944435Y-90250003D01*
X134964630Y-90429249D01*
X134964631Y-90429254D01*
X135024211Y-90599523D01*
X135107035Y-90731335D01*
X135120184Y-90752262D01*
X135247738Y-90879816D01*
X135338080Y-90936582D01*
X135374700Y-90959592D01*
X135400478Y-90975789D01*
X135570745Y-91035368D01*
X135570750Y-91035369D01*
X135749996Y-91055565D01*
X135750000Y-91055565D01*
X135750004Y-91055565D01*
X135929249Y-91035369D01*
X135929252Y-91035368D01*
X135929255Y-91035368D01*
X136099522Y-90975789D01*
X136252262Y-90879816D01*
X136379816Y-90752262D01*
X136475789Y-90599522D01*
X136510615Y-90499996D01*
X138694435Y-90499996D01*
X138694435Y-90500003D01*
X138714630Y-90679249D01*
X138714631Y-90679254D01*
X138774211Y-90849523D01*
X138843375Y-90959596D01*
X138870184Y-91002262D01*
X138997738Y-91129816D01*
X139150478Y-91225789D01*
X139320745Y-91285368D01*
X139320750Y-91285369D01*
X139499996Y-91305565D01*
X139500000Y-91305565D01*
X139500004Y-91305565D01*
X139679249Y-91285369D01*
X139679252Y-91285368D01*
X139679255Y-91285368D01*
X139849522Y-91225789D01*
X139898524Y-91194999D01*
X161894341Y-91194999D01*
X161894341Y-91195000D01*
X161914936Y-91430403D01*
X161914938Y-91430413D01*
X161976094Y-91658655D01*
X161976096Y-91658659D01*
X161976097Y-91658663D01*
X162002196Y-91714632D01*
X162075965Y-91872830D01*
X162075967Y-91872834D01*
X162211501Y-92066395D01*
X162211506Y-92066402D01*
X162378597Y-92233493D01*
X162378603Y-92233498D01*
X162564158Y-92363425D01*
X162607783Y-92418002D01*
X162614977Y-92487500D01*
X162583454Y-92549855D01*
X162564158Y-92566575D01*
X162378597Y-92696505D01*
X162211505Y-92863597D01*
X162075965Y-93057169D01*
X162075964Y-93057171D01*
X161976098Y-93271335D01*
X161976094Y-93271344D01*
X161914938Y-93499586D01*
X161914936Y-93499596D01*
X161894341Y-93734999D01*
X161894341Y-93735000D01*
X161914936Y-93970403D01*
X161914938Y-93970413D01*
X161976094Y-94198655D01*
X161976096Y-94198659D01*
X161976097Y-94198663D01*
X162033025Y-94320745D01*
X162075965Y-94412830D01*
X162075967Y-94412834D01*
X162112236Y-94464631D01*
X162211501Y-94606396D01*
X162211506Y-94606402D01*
X162333430Y-94728326D01*
X162366915Y-94789649D01*
X162361931Y-94859341D01*
X162320059Y-94915274D01*
X162289083Y-94932189D01*
X162157669Y-94981203D01*
X162157664Y-94981206D01*
X162042455Y-95067452D01*
X162042452Y-95067455D01*
X161956206Y-95182664D01*
X161956202Y-95182671D01*
X161905908Y-95317517D01*
X161899501Y-95377116D01*
X161899501Y-95377123D01*
X161899500Y-95377135D01*
X161899500Y-97172870D01*
X161899501Y-97172876D01*
X161905908Y-97232483D01*
X161956202Y-97367328D01*
X161956206Y-97367335D01*
X162042452Y-97482544D01*
X162042455Y-97482547D01*
X162157664Y-97568793D01*
X162157671Y-97568797D01*
X162292517Y-97619091D01*
X162292516Y-97619091D01*
X162299444Y-97619835D01*
X162352127Y-97625500D01*
X164147872Y-97625499D01*
X164207483Y-97619091D01*
X164342331Y-97568796D01*
X164457546Y-97482546D01*
X164543796Y-97367331D01*
X164594091Y-97232483D01*
X164600500Y-97172873D01*
X164600499Y-95377128D01*
X164594091Y-95317517D01*
X164589633Y-95305565D01*
X164543797Y-95182671D01*
X164543793Y-95182664D01*
X164457547Y-95067455D01*
X164457544Y-95067452D01*
X164342335Y-94981206D01*
X164342328Y-94981202D01*
X164210917Y-94932189D01*
X164154983Y-94890318D01*
X164130566Y-94824853D01*
X164145418Y-94756580D01*
X164166563Y-94728332D01*
X164288495Y-94606401D01*
X164424035Y-94412830D01*
X164523903Y-94198663D01*
X164585063Y-93970408D01*
X164605659Y-93735000D01*
X164585063Y-93499592D01*
X164523903Y-93271337D01*
X164424035Y-93057171D01*
X164385588Y-93002262D01*
X164288494Y-92863597D01*
X164121402Y-92696506D01*
X164121396Y-92696501D01*
X163935842Y-92566575D01*
X163892217Y-92511998D01*
X163885023Y-92442500D01*
X163916546Y-92380145D01*
X163935842Y-92363425D01*
X163996795Y-92320745D01*
X164121401Y-92233495D01*
X164288495Y-92066401D01*
X164424035Y-91872830D01*
X164523903Y-91658663D01*
X164585063Y-91430408D01*
X164605659Y-91195000D01*
X164585063Y-90959592D01*
X164523903Y-90731337D01*
X164424035Y-90517171D01*
X164362476Y-90429254D01*
X164288494Y-90323597D01*
X164121402Y-90156506D01*
X164121395Y-90156501D01*
X164112793Y-90150478D01*
X164082521Y-90129281D01*
X163927834Y-90020967D01*
X163927830Y-90020965D01*
X163927828Y-90020964D01*
X163713663Y-89921097D01*
X163713659Y-89921096D01*
X163713655Y-89921094D01*
X163485413Y-89859938D01*
X163485403Y-89859936D01*
X163250001Y-89839341D01*
X163249999Y-89839341D01*
X163014596Y-89859936D01*
X163014586Y-89859938D01*
X162786344Y-89921094D01*
X162786335Y-89921098D01*
X162572171Y-90020964D01*
X162572169Y-90020965D01*
X162378597Y-90156505D01*
X162211505Y-90323597D01*
X162075965Y-90517169D01*
X162075964Y-90517171D01*
X161976098Y-90731335D01*
X161976094Y-90731344D01*
X161914938Y-90959586D01*
X161914936Y-90959596D01*
X161894341Y-91194999D01*
X139898524Y-91194999D01*
X140002262Y-91129816D01*
X140129816Y-91002262D01*
X140225789Y-90849522D01*
X140285368Y-90679255D01*
X140294352Y-90599522D01*
X140305565Y-90500003D01*
X140305565Y-90499996D01*
X140285369Y-90320750D01*
X140285368Y-90320745D01*
X140227898Y-90156505D01*
X140225789Y-90150478D01*
X140129816Y-89997738D01*
X140002262Y-89870184D01*
X139985954Y-89859937D01*
X139849523Y-89774211D01*
X139679254Y-89714631D01*
X139679249Y-89714630D01*
X139500004Y-89694435D01*
X139499996Y-89694435D01*
X139320750Y-89714630D01*
X139320745Y-89714631D01*
X139150476Y-89774211D01*
X138997737Y-89870184D01*
X138870184Y-89997737D01*
X138774211Y-90150476D01*
X138714631Y-90320745D01*
X138714630Y-90320750D01*
X138694435Y-90499996D01*
X136510615Y-90499996D01*
X136535368Y-90429255D01*
X136535369Y-90429249D01*
X136555565Y-90250003D01*
X136555565Y-90249996D01*
X136535369Y-90070750D01*
X136535368Y-90070745D01*
X136475788Y-89900476D01*
X136379815Y-89747737D01*
X136252262Y-89620184D01*
X136099523Y-89524211D01*
X135929254Y-89464631D01*
X135929249Y-89464630D01*
X135750004Y-89444435D01*
X135749996Y-89444435D01*
X135570750Y-89464630D01*
X135570745Y-89464631D01*
X135400476Y-89524211D01*
X135247737Y-89620184D01*
X135120184Y-89747737D01*
X135024211Y-89900476D01*
X134964631Y-90070745D01*
X134964630Y-90070750D01*
X134944435Y-90249996D01*
X131550500Y-90249996D01*
X131550500Y-86681086D01*
X148694435Y-86681086D01*
X148694435Y-86681093D01*
X148714630Y-86860339D01*
X148714631Y-86860344D01*
X148774211Y-87030613D01*
X148807337Y-87083332D01*
X148870184Y-87183352D01*
X148997738Y-87310906D01*
X149150478Y-87406879D01*
X149320745Y-87466458D01*
X149320750Y-87466459D01*
X149499996Y-87486655D01*
X149500000Y-87486655D01*
X149500004Y-87486655D01*
X149679249Y-87466459D01*
X149679252Y-87466458D01*
X149679255Y-87466458D01*
X149849522Y-87406879D01*
X150002262Y-87310906D01*
X150129816Y-87183352D01*
X150192665Y-87083328D01*
X161444435Y-87083328D01*
X161444435Y-87083335D01*
X161464630Y-87262581D01*
X161464631Y-87262586D01*
X161524211Y-87432855D01*
X161545326Y-87466459D01*
X161620184Y-87585594D01*
X161747738Y-87713148D01*
X161900478Y-87809121D01*
X162070745Y-87868700D01*
X162070750Y-87868701D01*
X162249996Y-87888897D01*
X162250000Y-87888897D01*
X162250004Y-87888897D01*
X162429249Y-87868701D01*
X162429252Y-87868700D01*
X162429255Y-87868700D01*
X162599522Y-87809121D01*
X162752262Y-87713148D01*
X162879816Y-87585594D01*
X162975789Y-87432854D01*
X163035368Y-87262587D01*
X163055565Y-87083332D01*
X163035368Y-86904077D01*
X162975789Y-86733810D01*
X162970748Y-86725788D01*
X162910445Y-86629816D01*
X162879816Y-86581070D01*
X162752262Y-86453516D01*
X162599523Y-86357543D01*
X162429254Y-86297963D01*
X162429249Y-86297962D01*
X162250004Y-86277767D01*
X162249996Y-86277767D01*
X162070750Y-86297962D01*
X162070745Y-86297963D01*
X161900476Y-86357543D01*
X161747737Y-86453516D01*
X161620184Y-86581069D01*
X161524211Y-86733808D01*
X161464631Y-86904077D01*
X161464630Y-86904082D01*
X161444435Y-87083328D01*
X150192665Y-87083328D01*
X150225789Y-87030612D01*
X150285368Y-86860345D01*
X150305565Y-86681090D01*
X150294295Y-86581069D01*
X150285369Y-86501840D01*
X150285368Y-86501835D01*
X150234878Y-86357543D01*
X150225789Y-86331568D01*
X150129816Y-86178828D01*
X150002262Y-86051274D01*
X149920665Y-86000003D01*
X149920654Y-85999996D01*
X150444435Y-85999996D01*
X150444435Y-86000003D01*
X150464630Y-86179249D01*
X150464631Y-86179254D01*
X150524211Y-86349523D01*
X150589555Y-86453516D01*
X150620184Y-86502262D01*
X150747738Y-86629816D01*
X150900478Y-86725789D01*
X150923401Y-86733810D01*
X151070745Y-86785368D01*
X151070750Y-86785369D01*
X151249996Y-86805565D01*
X151250000Y-86805565D01*
X151250004Y-86805565D01*
X151429249Y-86785369D01*
X151429252Y-86785368D01*
X151429255Y-86785368D01*
X151599522Y-86725789D01*
X151752262Y-86629816D01*
X151879816Y-86502262D01*
X151975789Y-86349522D01*
X152035368Y-86179255D01*
X152035416Y-86178828D01*
X152055565Y-86000003D01*
X152055565Y-85999996D01*
X152035369Y-85820750D01*
X152035368Y-85820745D01*
X151975788Y-85650476D01*
X151879815Y-85497737D01*
X151752262Y-85370184D01*
X151599523Y-85274211D01*
X151429254Y-85214631D01*
X151429249Y-85214630D01*
X151250004Y-85194435D01*
X151249996Y-85194435D01*
X151070750Y-85214630D01*
X151070745Y-85214631D01*
X150900476Y-85274211D01*
X150747737Y-85370184D01*
X150620184Y-85497737D01*
X150524211Y-85650476D01*
X150464631Y-85820745D01*
X150464630Y-85820750D01*
X150444435Y-85999996D01*
X149920654Y-85999996D01*
X149849523Y-85955301D01*
X149679254Y-85895721D01*
X149679249Y-85895720D01*
X149500004Y-85875525D01*
X149499996Y-85875525D01*
X149320750Y-85895720D01*
X149320745Y-85895721D01*
X149150476Y-85955301D01*
X148997737Y-86051274D01*
X148870184Y-86178827D01*
X148774211Y-86331566D01*
X148714631Y-86501835D01*
X148714630Y-86501840D01*
X148694435Y-86681086D01*
X131550500Y-86681086D01*
X131550500Y-84249995D01*
X161444435Y-84249995D01*
X161444435Y-84250002D01*
X161464630Y-84429248D01*
X161464631Y-84429253D01*
X161524211Y-84599522D01*
X161620184Y-84752261D01*
X161747738Y-84879815D01*
X161900478Y-84975788D01*
X162070745Y-85035367D01*
X162070750Y-85035368D01*
X162249996Y-85055564D01*
X162250000Y-85055564D01*
X162250004Y-85055564D01*
X162429249Y-85035368D01*
X162429252Y-85035367D01*
X162429255Y-85035367D01*
X162599522Y-84975788D01*
X162752262Y-84879815D01*
X162879816Y-84752261D01*
X162975789Y-84599521D01*
X163035368Y-84429254D01*
X163055565Y-84249999D01*
X163035368Y-84070744D01*
X162975789Y-83900477D01*
X162879816Y-83747737D01*
X162752262Y-83620183D01*
X162599523Y-83524210D01*
X162429254Y-83464630D01*
X162429249Y-83464629D01*
X162250004Y-83444434D01*
X162249996Y-83444434D01*
X162070750Y-83464629D01*
X162070745Y-83464630D01*
X161900476Y-83524210D01*
X161747737Y-83620183D01*
X161620184Y-83747736D01*
X161524211Y-83900475D01*
X161464631Y-84070744D01*
X161464630Y-84070749D01*
X161444435Y-84249995D01*
X131550500Y-84249995D01*
X131550500Y-80249995D01*
X139544732Y-80249995D01*
X139544732Y-80250004D01*
X139563777Y-80504154D01*
X139606395Y-80690877D01*
X139620492Y-80752637D01*
X139713607Y-80989888D01*
X139841041Y-81210612D01*
X139999950Y-81409877D01*
X140186783Y-81583232D01*
X140397366Y-81726805D01*
X140397371Y-81726807D01*
X140397372Y-81726808D01*
X140397373Y-81726809D01*
X140519328Y-81785538D01*
X140626992Y-81837387D01*
X140626993Y-81837387D01*
X140626996Y-81837389D01*
X140870542Y-81912513D01*
X141122565Y-81950500D01*
X141377435Y-81950500D01*
X141629458Y-81912513D01*
X141873004Y-81837389D01*
X142102634Y-81726805D01*
X142313217Y-81583232D01*
X142492737Y-81416662D01*
X161444435Y-81416662D01*
X161444435Y-81416669D01*
X161464630Y-81595915D01*
X161464631Y-81595920D01*
X161524211Y-81766189D01*
X161616151Y-81912510D01*
X161620184Y-81918928D01*
X161747738Y-82046482D01*
X161900478Y-82142455D01*
X162070745Y-82202034D01*
X162070750Y-82202035D01*
X162249996Y-82222231D01*
X162250000Y-82222231D01*
X162250004Y-82222231D01*
X162429249Y-82202035D01*
X162429252Y-82202034D01*
X162429255Y-82202034D01*
X162599522Y-82142455D01*
X162752262Y-82046482D01*
X162879816Y-81918928D01*
X162975789Y-81766188D01*
X163035368Y-81595921D01*
X163055565Y-81416666D01*
X163054800Y-81409878D01*
X163035369Y-81237416D01*
X163035368Y-81237411D01*
X162997719Y-81129816D01*
X162975789Y-81067144D01*
X162879816Y-80914404D01*
X162752262Y-80786850D01*
X162599523Y-80690877D01*
X162429254Y-80631297D01*
X162429249Y-80631296D01*
X162250004Y-80611101D01*
X162249996Y-80611101D01*
X162070750Y-80631296D01*
X162070745Y-80631297D01*
X161900476Y-80690877D01*
X161747737Y-80786850D01*
X161620184Y-80914403D01*
X161524211Y-81067142D01*
X161464631Y-81237411D01*
X161464630Y-81237416D01*
X161444435Y-81416662D01*
X142492737Y-81416662D01*
X142500050Y-81409877D01*
X142658959Y-81210612D01*
X142786393Y-80989888D01*
X142879508Y-80752637D01*
X142936222Y-80504157D01*
X142936534Y-80499996D01*
X150444435Y-80499996D01*
X150444435Y-80500003D01*
X150464630Y-80679249D01*
X150464631Y-80679254D01*
X150524211Y-80849523D01*
X150564978Y-80914403D01*
X150620184Y-81002262D01*
X150747738Y-81129816D01*
X150900478Y-81225789D01*
X151070745Y-81285368D01*
X151070750Y-81285369D01*
X151249996Y-81305565D01*
X151250000Y-81305565D01*
X151250004Y-81305565D01*
X151429249Y-81285369D01*
X151429252Y-81285368D01*
X151429255Y-81285368D01*
X151599522Y-81225789D01*
X151752262Y-81129816D01*
X151879816Y-81002262D01*
X151975789Y-80849522D01*
X152035368Y-80679255D01*
X152035369Y-80679249D01*
X152055565Y-80500003D01*
X152055565Y-80499996D01*
X152035369Y-80320750D01*
X152035368Y-80320745D01*
X152010613Y-80250000D01*
X151975789Y-80150478D01*
X151879816Y-79997738D01*
X151752262Y-79870184D01*
X151599523Y-79774211D01*
X151429254Y-79714631D01*
X151429249Y-79714630D01*
X151250004Y-79694435D01*
X151249996Y-79694435D01*
X151070750Y-79714630D01*
X151070745Y-79714631D01*
X150900476Y-79774211D01*
X150747737Y-79870184D01*
X150620184Y-79997737D01*
X150524211Y-80150476D01*
X150464631Y-80320745D01*
X150464630Y-80320750D01*
X150444435Y-80499996D01*
X142936534Y-80499996D01*
X142955268Y-80250000D01*
X142936222Y-79995843D01*
X142879508Y-79747363D01*
X142786393Y-79510112D01*
X142658959Y-79289388D01*
X142500050Y-79090123D01*
X142313217Y-78916768D01*
X142102634Y-78773195D01*
X142102630Y-78773193D01*
X142102627Y-78773191D01*
X142102626Y-78773190D01*
X141873006Y-78662612D01*
X141873008Y-78662612D01*
X141629466Y-78587489D01*
X141629462Y-78587488D01*
X141629458Y-78587487D01*
X141601880Y-78583330D01*
X150444435Y-78583330D01*
X150444435Y-78583337D01*
X150464630Y-78762583D01*
X150464631Y-78762588D01*
X150524211Y-78932857D01*
X150620183Y-79085595D01*
X150620184Y-79085596D01*
X150747738Y-79213150D01*
X150838080Y-79269916D01*
X150900474Y-79309121D01*
X150900478Y-79309123D01*
X151070742Y-79368701D01*
X151070745Y-79368702D01*
X151070750Y-79368703D01*
X151249996Y-79388899D01*
X151250000Y-79388899D01*
X151250004Y-79388899D01*
X151429249Y-79368703D01*
X151429252Y-79368702D01*
X151429255Y-79368702D01*
X151599522Y-79309123D01*
X151752262Y-79213150D01*
X151879816Y-79085596D01*
X151975789Y-78932856D01*
X152035368Y-78762589D01*
X152055565Y-78583334D01*
X152055564Y-78583329D01*
X161444435Y-78583329D01*
X161444435Y-78583336D01*
X161464630Y-78762582D01*
X161464631Y-78762587D01*
X161524211Y-78932856D01*
X161524212Y-78932857D01*
X161620184Y-79085595D01*
X161747738Y-79213149D01*
X161747740Y-79213150D01*
X161869071Y-79289388D01*
X161900478Y-79309122D01*
X162070745Y-79368701D01*
X162070750Y-79368702D01*
X162249996Y-79388898D01*
X162250000Y-79388898D01*
X162250004Y-79388898D01*
X162429249Y-79368702D01*
X162429252Y-79368701D01*
X162429255Y-79368701D01*
X162599522Y-79309122D01*
X162752262Y-79213149D01*
X162879816Y-79085595D01*
X162975789Y-78932855D01*
X163035368Y-78762588D01*
X163035369Y-78762582D01*
X163055565Y-78583336D01*
X163055565Y-78583329D01*
X163035369Y-78404083D01*
X163035368Y-78404078D01*
X162975788Y-78233809D01*
X162936582Y-78171413D01*
X162879816Y-78081071D01*
X162752262Y-77953517D01*
X162599523Y-77857544D01*
X162429254Y-77797964D01*
X162429249Y-77797963D01*
X162250004Y-77777768D01*
X162249996Y-77777768D01*
X162070750Y-77797963D01*
X162070745Y-77797964D01*
X161900476Y-77857544D01*
X161747737Y-77953517D01*
X161620184Y-78081070D01*
X161524211Y-78233809D01*
X161464631Y-78404078D01*
X161464630Y-78404083D01*
X161444435Y-78583329D01*
X152055564Y-78583329D01*
X152035369Y-78404084D01*
X152035368Y-78404079D01*
X151975788Y-78233810D01*
X151879815Y-78081071D01*
X151752262Y-77953518D01*
X151599523Y-77857545D01*
X151429254Y-77797965D01*
X151429249Y-77797964D01*
X151250004Y-77777769D01*
X151249996Y-77777769D01*
X151070750Y-77797964D01*
X151070745Y-77797965D01*
X150900476Y-77857545D01*
X150747737Y-77953518D01*
X150620184Y-78081071D01*
X150524211Y-78233810D01*
X150464631Y-78404079D01*
X150464630Y-78404084D01*
X150444435Y-78583330D01*
X141601880Y-78583330D01*
X141508231Y-78569214D01*
X141377440Y-78549500D01*
X141377435Y-78549500D01*
X141122565Y-78549500D01*
X141122559Y-78549500D01*
X140965609Y-78573157D01*
X140870542Y-78587487D01*
X140870539Y-78587488D01*
X140870533Y-78587489D01*
X140626992Y-78662612D01*
X140397373Y-78773190D01*
X140397372Y-78773191D01*
X140186782Y-78916768D01*
X139999952Y-79090121D01*
X139999950Y-79090123D01*
X139841041Y-79289388D01*
X139713608Y-79510109D01*
X139620492Y-79747362D01*
X139620490Y-79747369D01*
X139563777Y-79995845D01*
X139544732Y-80249995D01*
X131550500Y-80249995D01*
X131550500Y-75749997D01*
X150444435Y-75749997D01*
X150444435Y-75750004D01*
X150464630Y-75929250D01*
X150464631Y-75929255D01*
X150524211Y-76099524D01*
X150620183Y-76252262D01*
X150620184Y-76252263D01*
X150747738Y-76379817D01*
X150838080Y-76436583D01*
X150900474Y-76475788D01*
X150900478Y-76475790D01*
X151070742Y-76535368D01*
X151070745Y-76535369D01*
X151070750Y-76535370D01*
X151249996Y-76555566D01*
X151250000Y-76555566D01*
X151250004Y-76555566D01*
X151429249Y-76535370D01*
X151429252Y-76535369D01*
X151429255Y-76535369D01*
X151599522Y-76475790D01*
X151752262Y-76379817D01*
X151879816Y-76252263D01*
X151975789Y-76099523D01*
X152035368Y-75929256D01*
X152055565Y-75750001D01*
X152055564Y-75749996D01*
X161444435Y-75749996D01*
X161444435Y-75750003D01*
X161464630Y-75929249D01*
X161464631Y-75929254D01*
X161524211Y-76099523D01*
X161524212Y-76099524D01*
X161620184Y-76252262D01*
X161747738Y-76379816D01*
X161900478Y-76475789D01*
X162070745Y-76535368D01*
X162070750Y-76535369D01*
X162249996Y-76555565D01*
X162250000Y-76555565D01*
X162250004Y-76555565D01*
X162429249Y-76535369D01*
X162429252Y-76535368D01*
X162429255Y-76535368D01*
X162599522Y-76475789D01*
X162752262Y-76379816D01*
X162879816Y-76252262D01*
X162975789Y-76099522D01*
X163035368Y-75929255D01*
X163055565Y-75750000D01*
X163035368Y-75570745D01*
X162975789Y-75400478D01*
X162879816Y-75247738D01*
X162752262Y-75120184D01*
X162599523Y-75024211D01*
X162429254Y-74964631D01*
X162429249Y-74964630D01*
X162250004Y-74944435D01*
X162249996Y-74944435D01*
X162070750Y-74964630D01*
X162070745Y-74964631D01*
X161900476Y-75024211D01*
X161747737Y-75120184D01*
X161620184Y-75247737D01*
X161524211Y-75400476D01*
X161464631Y-75570745D01*
X161464630Y-75570750D01*
X161444435Y-75749996D01*
X152055564Y-75749996D01*
X152035369Y-75570751D01*
X152035368Y-75570746D01*
X151975788Y-75400477D01*
X151879815Y-75247738D01*
X151752262Y-75120185D01*
X151599523Y-75024212D01*
X151429254Y-74964632D01*
X151429249Y-74964631D01*
X151250004Y-74944436D01*
X151249996Y-74944436D01*
X151070750Y-74964631D01*
X151070745Y-74964632D01*
X150900476Y-75024212D01*
X150747737Y-75120185D01*
X150620184Y-75247738D01*
X150524211Y-75400477D01*
X150464631Y-75570746D01*
X150464630Y-75570751D01*
X150444435Y-75749997D01*
X131550500Y-75749997D01*
X131550500Y-72905430D01*
X131559939Y-72857977D01*
X131648398Y-72644419D01*
X131716270Y-72391116D01*
X131750500Y-72131120D01*
X131750500Y-71868880D01*
X131716270Y-71608884D01*
X131648398Y-71355581D01*
X131580829Y-71192455D01*
X131548046Y-71113309D01*
X131548041Y-71113299D01*
X131416924Y-70886196D01*
X131257281Y-70678148D01*
X131257274Y-70678140D01*
X131071860Y-70492726D01*
X131071851Y-70492718D01*
X130863803Y-70333075D01*
X130636700Y-70201958D01*
X130636690Y-70201953D01*
X130394428Y-70101605D01*
X130394421Y-70101603D01*
X130394419Y-70101602D01*
X130141116Y-70033730D01*
X130083339Y-70026123D01*
X129884894Y-69999996D01*
X133194435Y-69999996D01*
X133194435Y-70000003D01*
X133214630Y-70179249D01*
X133214631Y-70179254D01*
X133274211Y-70349523D01*
X133364187Y-70492718D01*
X133370184Y-70502262D01*
X133497738Y-70629816D01*
X133650478Y-70725789D01*
X133820745Y-70785368D01*
X133820750Y-70785369D01*
X133999996Y-70805565D01*
X134000000Y-70805565D01*
X134000004Y-70805565D01*
X134179249Y-70785369D01*
X134179252Y-70785368D01*
X134179255Y-70785368D01*
X134349522Y-70725789D01*
X134502262Y-70629816D01*
X134629816Y-70502262D01*
X134725789Y-70349522D01*
X134785368Y-70179255D01*
X134794117Y-70101605D01*
X134805565Y-70000003D01*
X134805565Y-69999996D01*
X137861101Y-69999996D01*
X137861101Y-70000003D01*
X137881296Y-70179249D01*
X137881297Y-70179254D01*
X137940877Y-70349523D01*
X138030853Y-70492718D01*
X138036850Y-70502262D01*
X138164404Y-70629816D01*
X138317144Y-70725789D01*
X138487411Y-70785368D01*
X138487416Y-70785369D01*
X138666662Y-70805565D01*
X138666666Y-70805565D01*
X138666670Y-70805565D01*
X138845915Y-70785369D01*
X138845918Y-70785368D01*
X138845921Y-70785368D01*
X139016188Y-70725789D01*
X139168928Y-70629816D01*
X139296482Y-70502262D01*
X139392455Y-70349522D01*
X139452034Y-70179255D01*
X139460783Y-70101605D01*
X139472231Y-70000003D01*
X139472231Y-69999996D01*
X142527767Y-69999996D01*
X142527767Y-70000003D01*
X142547962Y-70179249D01*
X142547963Y-70179254D01*
X142607543Y-70349523D01*
X142697519Y-70492718D01*
X142703516Y-70502262D01*
X142831070Y-70629816D01*
X142983810Y-70725789D01*
X143154077Y-70785368D01*
X143154082Y-70785369D01*
X143333328Y-70805565D01*
X143333332Y-70805565D01*
X143333336Y-70805565D01*
X143512581Y-70785369D01*
X143512584Y-70785368D01*
X143512587Y-70785368D01*
X143682854Y-70725789D01*
X143835594Y-70629816D01*
X143963148Y-70502262D01*
X144059121Y-70349522D01*
X144118700Y-70179255D01*
X144127449Y-70101605D01*
X144138897Y-70000003D01*
X144138897Y-69999996D01*
X147194435Y-69999996D01*
X147194435Y-70000003D01*
X147214630Y-70179249D01*
X147214631Y-70179254D01*
X147274211Y-70349523D01*
X147364187Y-70492718D01*
X147370184Y-70502262D01*
X147497738Y-70629816D01*
X147650478Y-70725789D01*
X147820745Y-70785368D01*
X147820750Y-70785369D01*
X147999996Y-70805565D01*
X148000000Y-70805565D01*
X148000004Y-70805565D01*
X148179249Y-70785369D01*
X148179252Y-70785368D01*
X148179255Y-70785368D01*
X148349522Y-70725789D01*
X148502262Y-70629816D01*
X148629816Y-70502262D01*
X148725789Y-70349522D01*
X148785368Y-70179255D01*
X148794117Y-70101605D01*
X148805565Y-70000003D01*
X148805565Y-69999996D01*
X161444435Y-69999996D01*
X161444435Y-70000003D01*
X161464630Y-70179249D01*
X161464631Y-70179254D01*
X161524211Y-70349523D01*
X161614187Y-70492718D01*
X161620184Y-70502262D01*
X161747738Y-70629816D01*
X161900478Y-70725789D01*
X162070745Y-70785368D01*
X162070750Y-70785369D01*
X162249996Y-70805565D01*
X162250000Y-70805565D01*
X162250004Y-70805565D01*
X162429249Y-70785369D01*
X162429252Y-70785368D01*
X162429255Y-70785368D01*
X162599522Y-70725789D01*
X162752262Y-70629816D01*
X162879816Y-70502262D01*
X162975789Y-70349522D01*
X163035368Y-70179255D01*
X163044117Y-70101605D01*
X163055565Y-70000003D01*
X163055565Y-69999996D01*
X163035369Y-69820750D01*
X163035368Y-69820745D01*
X162975788Y-69650476D01*
X162879815Y-69497737D01*
X162752262Y-69370184D01*
X162599523Y-69274211D01*
X162429254Y-69214631D01*
X162429249Y-69214630D01*
X162250004Y-69194435D01*
X162249996Y-69194435D01*
X162070750Y-69214630D01*
X162070745Y-69214631D01*
X161900476Y-69274211D01*
X161747737Y-69370184D01*
X161620184Y-69497737D01*
X161524211Y-69650476D01*
X161464631Y-69820745D01*
X161464630Y-69820750D01*
X161444435Y-69999996D01*
X148805565Y-69999996D01*
X148785369Y-69820750D01*
X148785368Y-69820745D01*
X148725788Y-69650476D01*
X148629815Y-69497737D01*
X148502262Y-69370184D01*
X148349523Y-69274211D01*
X148179254Y-69214631D01*
X148179249Y-69214630D01*
X148000004Y-69194435D01*
X147999996Y-69194435D01*
X147820750Y-69214630D01*
X147820745Y-69214631D01*
X147650476Y-69274211D01*
X147497737Y-69370184D01*
X147370184Y-69497737D01*
X147274211Y-69650476D01*
X147214631Y-69820745D01*
X147214630Y-69820750D01*
X147194435Y-69999996D01*
X144138897Y-69999996D01*
X144118701Y-69820750D01*
X144118700Y-69820745D01*
X144059120Y-69650476D01*
X143963147Y-69497737D01*
X143835594Y-69370184D01*
X143682855Y-69274211D01*
X143512586Y-69214631D01*
X143512581Y-69214630D01*
X143333336Y-69194435D01*
X143333328Y-69194435D01*
X143154082Y-69214630D01*
X143154077Y-69214631D01*
X142983808Y-69274211D01*
X142831069Y-69370184D01*
X142703516Y-69497737D01*
X142607543Y-69650476D01*
X142547963Y-69820745D01*
X142547962Y-69820750D01*
X142527767Y-69999996D01*
X139472231Y-69999996D01*
X139452035Y-69820750D01*
X139452034Y-69820745D01*
X139392454Y-69650476D01*
X139296481Y-69497737D01*
X139168928Y-69370184D01*
X139016189Y-69274211D01*
X138845920Y-69214631D01*
X138845915Y-69214630D01*
X138666670Y-69194435D01*
X138666662Y-69194435D01*
X138487416Y-69214630D01*
X138487411Y-69214631D01*
X138317142Y-69274211D01*
X138164403Y-69370184D01*
X138036850Y-69497737D01*
X137940877Y-69650476D01*
X137881297Y-69820745D01*
X137881296Y-69820750D01*
X137861101Y-69999996D01*
X134805565Y-69999996D01*
X134785369Y-69820750D01*
X134785368Y-69820745D01*
X134725788Y-69650476D01*
X134629815Y-69497737D01*
X134502262Y-69370184D01*
X134349523Y-69274211D01*
X134179254Y-69214631D01*
X134179249Y-69214630D01*
X134000004Y-69194435D01*
X133999996Y-69194435D01*
X133820750Y-69214630D01*
X133820745Y-69214631D01*
X133650476Y-69274211D01*
X133497737Y-69370184D01*
X133370184Y-69497737D01*
X133274211Y-69650476D01*
X133214631Y-69820745D01*
X133214630Y-69820750D01*
X133194435Y-69999996D01*
X129884894Y-69999996D01*
X129881127Y-69999500D01*
X129881120Y-69999500D01*
X129874500Y-69999500D01*
X129807461Y-69979815D01*
X129761706Y-69927011D01*
X129750500Y-69875500D01*
X129750500Y-68374500D01*
X129770185Y-68307461D01*
X129822989Y-68261706D01*
X129874500Y-68250500D01*
X166625500Y-68250500D01*
X166692539Y-68270185D01*
G37*
%TD.AperFunction*%
%TD*%
M02*
