%TF.GenerationSoftware,KiCad,Pcbnew,8.0.7*%
%TF.CreationDate,2025-01-11T16:41:09-06:00*%
%TF.ProjectId,ptSolar,7074536f-6c61-4722-9e6b-696361645f70,rev?*%
%TF.SameCoordinates,Original*%
%TF.FileFunction,Legend,Bot*%
%TF.FilePolarity,Positive*%
%FSLAX46Y46*%
G04 Gerber Fmt 4.6, Leading zero omitted, Abs format (unit mm)*
G04 Created by KiCad (PCBNEW 8.0.7) date 2025-01-11 16:41:09*
%MOMM*%
%LPD*%
G01*
G04 APERTURE LIST*
%ADD10C,0.150000*%
%ADD11C,0.120000*%
%ADD12C,0.100000*%
G04 APERTURE END LIST*
D10*
X149964286Y-127233264D02*
X149964286Y-128233264D01*
X149964286Y-127280883D02*
X149869048Y-127233264D01*
X149869048Y-127233264D02*
X149678572Y-127233264D01*
X149678572Y-127233264D02*
X149583334Y-127280883D01*
X149583334Y-127280883D02*
X149535715Y-127328502D01*
X149535715Y-127328502D02*
X149488096Y-127423740D01*
X149488096Y-127423740D02*
X149488096Y-127709454D01*
X149488096Y-127709454D02*
X149535715Y-127804692D01*
X149535715Y-127804692D02*
X149583334Y-127852312D01*
X149583334Y-127852312D02*
X149678572Y-127899931D01*
X149678572Y-127899931D02*
X149869048Y-127899931D01*
X149869048Y-127899931D02*
X149964286Y-127852312D01*
X149202381Y-127233264D02*
X148821429Y-127233264D01*
X149059524Y-126899931D02*
X149059524Y-127757073D01*
X149059524Y-127757073D02*
X149011905Y-127852312D01*
X149011905Y-127852312D02*
X148916667Y-127899931D01*
X148916667Y-127899931D02*
X148821429Y-127899931D01*
X148535714Y-127852312D02*
X148392857Y-127899931D01*
X148392857Y-127899931D02*
X148154762Y-127899931D01*
X148154762Y-127899931D02*
X148059524Y-127852312D01*
X148059524Y-127852312D02*
X148011905Y-127804692D01*
X148011905Y-127804692D02*
X147964286Y-127709454D01*
X147964286Y-127709454D02*
X147964286Y-127614216D01*
X147964286Y-127614216D02*
X148011905Y-127518978D01*
X148011905Y-127518978D02*
X148059524Y-127471359D01*
X148059524Y-127471359D02*
X148154762Y-127423740D01*
X148154762Y-127423740D02*
X148345238Y-127376121D01*
X148345238Y-127376121D02*
X148440476Y-127328502D01*
X148440476Y-127328502D02*
X148488095Y-127280883D01*
X148488095Y-127280883D02*
X148535714Y-127185645D01*
X148535714Y-127185645D02*
X148535714Y-127090407D01*
X148535714Y-127090407D02*
X148488095Y-126995169D01*
X148488095Y-126995169D02*
X148440476Y-126947550D01*
X148440476Y-126947550D02*
X148345238Y-126899931D01*
X148345238Y-126899931D02*
X148107143Y-126899931D01*
X148107143Y-126899931D02*
X147964286Y-126947550D01*
X147392857Y-127899931D02*
X147488095Y-127852312D01*
X147488095Y-127852312D02*
X147535714Y-127804692D01*
X147535714Y-127804692D02*
X147583333Y-127709454D01*
X147583333Y-127709454D02*
X147583333Y-127423740D01*
X147583333Y-127423740D02*
X147535714Y-127328502D01*
X147535714Y-127328502D02*
X147488095Y-127280883D01*
X147488095Y-127280883D02*
X147392857Y-127233264D01*
X147392857Y-127233264D02*
X147250000Y-127233264D01*
X147250000Y-127233264D02*
X147154762Y-127280883D01*
X147154762Y-127280883D02*
X147107143Y-127328502D01*
X147107143Y-127328502D02*
X147059524Y-127423740D01*
X147059524Y-127423740D02*
X147059524Y-127709454D01*
X147059524Y-127709454D02*
X147107143Y-127804692D01*
X147107143Y-127804692D02*
X147154762Y-127852312D01*
X147154762Y-127852312D02*
X147250000Y-127899931D01*
X147250000Y-127899931D02*
X147392857Y-127899931D01*
X146488095Y-127899931D02*
X146583333Y-127852312D01*
X146583333Y-127852312D02*
X146630952Y-127757073D01*
X146630952Y-127757073D02*
X146630952Y-126899931D01*
X145678571Y-127899931D02*
X145678571Y-127376121D01*
X145678571Y-127376121D02*
X145726190Y-127280883D01*
X145726190Y-127280883D02*
X145821428Y-127233264D01*
X145821428Y-127233264D02*
X146011904Y-127233264D01*
X146011904Y-127233264D02*
X146107142Y-127280883D01*
X145678571Y-127852312D02*
X145773809Y-127899931D01*
X145773809Y-127899931D02*
X146011904Y-127899931D01*
X146011904Y-127899931D02*
X146107142Y-127852312D01*
X146107142Y-127852312D02*
X146154761Y-127757073D01*
X146154761Y-127757073D02*
X146154761Y-127661835D01*
X146154761Y-127661835D02*
X146107142Y-127566597D01*
X146107142Y-127566597D02*
X146011904Y-127518978D01*
X146011904Y-127518978D02*
X145773809Y-127518978D01*
X145773809Y-127518978D02*
X145678571Y-127471359D01*
X145202380Y-127899931D02*
X145202380Y-127233264D01*
X145202380Y-127423740D02*
X145154761Y-127328502D01*
X145154761Y-127328502D02*
X145107142Y-127280883D01*
X145107142Y-127280883D02*
X145011904Y-127233264D01*
X145011904Y-127233264D02*
X144916666Y-127233264D01*
X143964284Y-126899931D02*
X143392856Y-126899931D01*
X143678570Y-127899931D02*
X143678570Y-126899931D01*
X143059522Y-127899931D02*
X143059522Y-127233264D01*
X143059522Y-127423740D02*
X143011903Y-127328502D01*
X143011903Y-127328502D02*
X142964284Y-127280883D01*
X142964284Y-127280883D02*
X142869046Y-127233264D01*
X142869046Y-127233264D02*
X142773808Y-127233264D01*
X142011903Y-127899931D02*
X142011903Y-127376121D01*
X142011903Y-127376121D02*
X142059522Y-127280883D01*
X142059522Y-127280883D02*
X142154760Y-127233264D01*
X142154760Y-127233264D02*
X142345236Y-127233264D01*
X142345236Y-127233264D02*
X142440474Y-127280883D01*
X142011903Y-127852312D02*
X142107141Y-127899931D01*
X142107141Y-127899931D02*
X142345236Y-127899931D01*
X142345236Y-127899931D02*
X142440474Y-127852312D01*
X142440474Y-127852312D02*
X142488093Y-127757073D01*
X142488093Y-127757073D02*
X142488093Y-127661835D01*
X142488093Y-127661835D02*
X142440474Y-127566597D01*
X142440474Y-127566597D02*
X142345236Y-127518978D01*
X142345236Y-127518978D02*
X142107141Y-127518978D01*
X142107141Y-127518978D02*
X142011903Y-127471359D01*
X141107141Y-127852312D02*
X141202379Y-127899931D01*
X141202379Y-127899931D02*
X141392855Y-127899931D01*
X141392855Y-127899931D02*
X141488093Y-127852312D01*
X141488093Y-127852312D02*
X141535712Y-127804692D01*
X141535712Y-127804692D02*
X141583331Y-127709454D01*
X141583331Y-127709454D02*
X141583331Y-127423740D01*
X141583331Y-127423740D02*
X141535712Y-127328502D01*
X141535712Y-127328502D02*
X141488093Y-127280883D01*
X141488093Y-127280883D02*
X141392855Y-127233264D01*
X141392855Y-127233264D02*
X141202379Y-127233264D01*
X141202379Y-127233264D02*
X141107141Y-127280883D01*
X140678569Y-127899931D02*
X140678569Y-126899931D01*
X140583331Y-127518978D02*
X140297617Y-127899931D01*
X140297617Y-127233264D02*
X140678569Y-127614216D01*
X139488093Y-127852312D02*
X139583331Y-127899931D01*
X139583331Y-127899931D02*
X139773807Y-127899931D01*
X139773807Y-127899931D02*
X139869045Y-127852312D01*
X139869045Y-127852312D02*
X139916664Y-127757073D01*
X139916664Y-127757073D02*
X139916664Y-127376121D01*
X139916664Y-127376121D02*
X139869045Y-127280883D01*
X139869045Y-127280883D02*
X139773807Y-127233264D01*
X139773807Y-127233264D02*
X139583331Y-127233264D01*
X139583331Y-127233264D02*
X139488093Y-127280883D01*
X139488093Y-127280883D02*
X139440474Y-127376121D01*
X139440474Y-127376121D02*
X139440474Y-127471359D01*
X139440474Y-127471359D02*
X139916664Y-127566597D01*
X139011902Y-127899931D02*
X139011902Y-127233264D01*
X139011902Y-127423740D02*
X138964283Y-127328502D01*
X138964283Y-127328502D02*
X138916664Y-127280883D01*
X138916664Y-127280883D02*
X138821426Y-127233264D01*
X138821426Y-127233264D02*
X138726188Y-127233264D01*
X137726187Y-127233264D02*
X137488092Y-127899931D01*
X137488092Y-127899931D02*
X137249997Y-127233264D01*
X136345235Y-127899931D02*
X136916663Y-127899931D01*
X136630949Y-127899931D02*
X136630949Y-126899931D01*
X136630949Y-126899931D02*
X136726187Y-127042788D01*
X136726187Y-127042788D02*
X136821425Y-127138026D01*
X136821425Y-127138026D02*
X136916663Y-127185645D01*
X135916663Y-127804692D02*
X135869044Y-127852312D01*
X135869044Y-127852312D02*
X135916663Y-127899931D01*
X135916663Y-127899931D02*
X135964282Y-127852312D01*
X135964282Y-127852312D02*
X135916663Y-127804692D01*
X135916663Y-127804692D02*
X135916663Y-127899931D01*
X135249997Y-126899931D02*
X135154759Y-126899931D01*
X135154759Y-126899931D02*
X135059521Y-126947550D01*
X135059521Y-126947550D02*
X135011902Y-126995169D01*
X135011902Y-126995169D02*
X134964283Y-127090407D01*
X134964283Y-127090407D02*
X134916664Y-127280883D01*
X134916664Y-127280883D02*
X134916664Y-127518978D01*
X134916664Y-127518978D02*
X134964283Y-127709454D01*
X134964283Y-127709454D02*
X135011902Y-127804692D01*
X135011902Y-127804692D02*
X135059521Y-127852312D01*
X135059521Y-127852312D02*
X135154759Y-127899931D01*
X135154759Y-127899931D02*
X135249997Y-127899931D01*
X135249997Y-127899931D02*
X135345235Y-127852312D01*
X135345235Y-127852312D02*
X135392854Y-127804692D01*
X135392854Y-127804692D02*
X135440473Y-127709454D01*
X135440473Y-127709454D02*
X135488092Y-127518978D01*
X135488092Y-127518978D02*
X135488092Y-127280883D01*
X135488092Y-127280883D02*
X135440473Y-127090407D01*
X135440473Y-127090407D02*
X135392854Y-126995169D01*
X135392854Y-126995169D02*
X135345235Y-126947550D01*
X135345235Y-126947550D02*
X135249997Y-126899931D01*
X134488092Y-127804692D02*
X134440473Y-127852312D01*
X134440473Y-127852312D02*
X134488092Y-127899931D01*
X134488092Y-127899931D02*
X134535711Y-127852312D01*
X134535711Y-127852312D02*
X134488092Y-127804692D01*
X134488092Y-127804692D02*
X134488092Y-127899931D01*
X133821426Y-126899931D02*
X133726188Y-126899931D01*
X133726188Y-126899931D02*
X133630950Y-126947550D01*
X133630950Y-126947550D02*
X133583331Y-126995169D01*
X133583331Y-126995169D02*
X133535712Y-127090407D01*
X133535712Y-127090407D02*
X133488093Y-127280883D01*
X133488093Y-127280883D02*
X133488093Y-127518978D01*
X133488093Y-127518978D02*
X133535712Y-127709454D01*
X133535712Y-127709454D02*
X133583331Y-127804692D01*
X133583331Y-127804692D02*
X133630950Y-127852312D01*
X133630950Y-127852312D02*
X133726188Y-127899931D01*
X133726188Y-127899931D02*
X133821426Y-127899931D01*
X133821426Y-127899931D02*
X133916664Y-127852312D01*
X133916664Y-127852312D02*
X133964283Y-127804692D01*
X133964283Y-127804692D02*
X134011902Y-127709454D01*
X134011902Y-127709454D02*
X134059521Y-127518978D01*
X134059521Y-127518978D02*
X134059521Y-127280883D01*
X134059521Y-127280883D02*
X134011902Y-127090407D01*
X134011902Y-127090407D02*
X133964283Y-126995169D01*
X133964283Y-126995169D02*
X133916664Y-126947550D01*
X133916664Y-126947550D02*
X133821426Y-126899931D01*
X151916667Y-129414636D02*
X151964286Y-129462256D01*
X151964286Y-129462256D02*
X152107143Y-129509875D01*
X152107143Y-129509875D02*
X152202381Y-129509875D01*
X152202381Y-129509875D02*
X152345238Y-129462256D01*
X152345238Y-129462256D02*
X152440476Y-129367017D01*
X152440476Y-129367017D02*
X152488095Y-129271779D01*
X152488095Y-129271779D02*
X152535714Y-129081303D01*
X152535714Y-129081303D02*
X152535714Y-128938446D01*
X152535714Y-128938446D02*
X152488095Y-128747970D01*
X152488095Y-128747970D02*
X152440476Y-128652732D01*
X152440476Y-128652732D02*
X152345238Y-128557494D01*
X152345238Y-128557494D02*
X152202381Y-128509875D01*
X152202381Y-128509875D02*
X152107143Y-128509875D01*
X152107143Y-128509875D02*
X151964286Y-128557494D01*
X151964286Y-128557494D02*
X151916667Y-128605113D01*
X151059524Y-128843208D02*
X151059524Y-129509875D01*
X151488095Y-128843208D02*
X151488095Y-129367017D01*
X151488095Y-129367017D02*
X151440476Y-129462256D01*
X151440476Y-129462256D02*
X151345238Y-129509875D01*
X151345238Y-129509875D02*
X151202381Y-129509875D01*
X151202381Y-129509875D02*
X151107143Y-129462256D01*
X151107143Y-129462256D02*
X151059524Y-129414636D01*
X150630952Y-129462256D02*
X150535714Y-129509875D01*
X150535714Y-129509875D02*
X150345238Y-129509875D01*
X150345238Y-129509875D02*
X150250000Y-129462256D01*
X150250000Y-129462256D02*
X150202381Y-129367017D01*
X150202381Y-129367017D02*
X150202381Y-129319398D01*
X150202381Y-129319398D02*
X150250000Y-129224160D01*
X150250000Y-129224160D02*
X150345238Y-129176541D01*
X150345238Y-129176541D02*
X150488095Y-129176541D01*
X150488095Y-129176541D02*
X150583333Y-129128922D01*
X150583333Y-129128922D02*
X150630952Y-129033684D01*
X150630952Y-129033684D02*
X150630952Y-128986065D01*
X150630952Y-128986065D02*
X150583333Y-128890827D01*
X150583333Y-128890827D02*
X150488095Y-128843208D01*
X150488095Y-128843208D02*
X150345238Y-128843208D01*
X150345238Y-128843208D02*
X150250000Y-128890827D01*
X149916666Y-128843208D02*
X149535714Y-128843208D01*
X149773809Y-128509875D02*
X149773809Y-129367017D01*
X149773809Y-129367017D02*
X149726190Y-129462256D01*
X149726190Y-129462256D02*
X149630952Y-129509875D01*
X149630952Y-129509875D02*
X149535714Y-129509875D01*
X149059523Y-129509875D02*
X149154761Y-129462256D01*
X149154761Y-129462256D02*
X149202380Y-129414636D01*
X149202380Y-129414636D02*
X149249999Y-129319398D01*
X149249999Y-129319398D02*
X149249999Y-129033684D01*
X149249999Y-129033684D02*
X149202380Y-128938446D01*
X149202380Y-128938446D02*
X149154761Y-128890827D01*
X149154761Y-128890827D02*
X149059523Y-128843208D01*
X149059523Y-128843208D02*
X148916666Y-128843208D01*
X148916666Y-128843208D02*
X148821428Y-128890827D01*
X148821428Y-128890827D02*
X148773809Y-128938446D01*
X148773809Y-128938446D02*
X148726190Y-129033684D01*
X148726190Y-129033684D02*
X148726190Y-129319398D01*
X148726190Y-129319398D02*
X148773809Y-129414636D01*
X148773809Y-129414636D02*
X148821428Y-129462256D01*
X148821428Y-129462256D02*
X148916666Y-129509875D01*
X148916666Y-129509875D02*
X149059523Y-129509875D01*
X148297618Y-129509875D02*
X148297618Y-128843208D01*
X148297618Y-128938446D02*
X148249999Y-128890827D01*
X148249999Y-128890827D02*
X148154761Y-128843208D01*
X148154761Y-128843208D02*
X148011904Y-128843208D01*
X148011904Y-128843208D02*
X147916666Y-128890827D01*
X147916666Y-128890827D02*
X147869047Y-128986065D01*
X147869047Y-128986065D02*
X147869047Y-129509875D01*
X147869047Y-128986065D02*
X147821428Y-128890827D01*
X147821428Y-128890827D02*
X147726190Y-128843208D01*
X147726190Y-128843208D02*
X147583333Y-128843208D01*
X147583333Y-128843208D02*
X147488094Y-128890827D01*
X147488094Y-128890827D02*
X147440475Y-128986065D01*
X147440475Y-128986065D02*
X147440475Y-129509875D01*
X146202380Y-129509875D02*
X146202380Y-128509875D01*
X146202380Y-128509875D02*
X145964285Y-128509875D01*
X145964285Y-128509875D02*
X145821428Y-128557494D01*
X145821428Y-128557494D02*
X145726190Y-128652732D01*
X145726190Y-128652732D02*
X145678571Y-128747970D01*
X145678571Y-128747970D02*
X145630952Y-128938446D01*
X145630952Y-128938446D02*
X145630952Y-129081303D01*
X145630952Y-129081303D02*
X145678571Y-129271779D01*
X145678571Y-129271779D02*
X145726190Y-129367017D01*
X145726190Y-129367017D02*
X145821428Y-129462256D01*
X145821428Y-129462256D02*
X145964285Y-129509875D01*
X145964285Y-129509875D02*
X146202380Y-129509875D01*
X145202380Y-129509875D02*
X145202380Y-128843208D01*
X145202380Y-128509875D02*
X145249999Y-128557494D01*
X145249999Y-128557494D02*
X145202380Y-128605113D01*
X145202380Y-128605113D02*
X145154761Y-128557494D01*
X145154761Y-128557494D02*
X145202380Y-128509875D01*
X145202380Y-128509875D02*
X145202380Y-128605113D01*
X144297619Y-128843208D02*
X144297619Y-129652732D01*
X144297619Y-129652732D02*
X144345238Y-129747970D01*
X144345238Y-129747970D02*
X144392857Y-129795589D01*
X144392857Y-129795589D02*
X144488095Y-129843208D01*
X144488095Y-129843208D02*
X144630952Y-129843208D01*
X144630952Y-129843208D02*
X144726190Y-129795589D01*
X144297619Y-129462256D02*
X144392857Y-129509875D01*
X144392857Y-129509875D02*
X144583333Y-129509875D01*
X144583333Y-129509875D02*
X144678571Y-129462256D01*
X144678571Y-129462256D02*
X144726190Y-129414636D01*
X144726190Y-129414636D02*
X144773809Y-129319398D01*
X144773809Y-129319398D02*
X144773809Y-129033684D01*
X144773809Y-129033684D02*
X144726190Y-128938446D01*
X144726190Y-128938446D02*
X144678571Y-128890827D01*
X144678571Y-128890827D02*
X144583333Y-128843208D01*
X144583333Y-128843208D02*
X144392857Y-128843208D01*
X144392857Y-128843208D02*
X144297619Y-128890827D01*
X143821428Y-129509875D02*
X143821428Y-128843208D01*
X143821428Y-128509875D02*
X143869047Y-128557494D01*
X143869047Y-128557494D02*
X143821428Y-128605113D01*
X143821428Y-128605113D02*
X143773809Y-128557494D01*
X143773809Y-128557494D02*
X143821428Y-128509875D01*
X143821428Y-128509875D02*
X143821428Y-128605113D01*
X143488095Y-128843208D02*
X143107143Y-128843208D01*
X143345238Y-128509875D02*
X143345238Y-129367017D01*
X143345238Y-129367017D02*
X143297619Y-129462256D01*
X143297619Y-129462256D02*
X143202381Y-129509875D01*
X143202381Y-129509875D02*
X143107143Y-129509875D01*
X142345238Y-129509875D02*
X142345238Y-128986065D01*
X142345238Y-128986065D02*
X142392857Y-128890827D01*
X142392857Y-128890827D02*
X142488095Y-128843208D01*
X142488095Y-128843208D02*
X142678571Y-128843208D01*
X142678571Y-128843208D02*
X142773809Y-128890827D01*
X142345238Y-129462256D02*
X142440476Y-129509875D01*
X142440476Y-129509875D02*
X142678571Y-129509875D01*
X142678571Y-129509875D02*
X142773809Y-129462256D01*
X142773809Y-129462256D02*
X142821428Y-129367017D01*
X142821428Y-129367017D02*
X142821428Y-129271779D01*
X142821428Y-129271779D02*
X142773809Y-129176541D01*
X142773809Y-129176541D02*
X142678571Y-129128922D01*
X142678571Y-129128922D02*
X142440476Y-129128922D01*
X142440476Y-129128922D02*
X142345238Y-129081303D01*
X141726190Y-129509875D02*
X141821428Y-129462256D01*
X141821428Y-129462256D02*
X141869047Y-129367017D01*
X141869047Y-129367017D02*
X141869047Y-128509875D01*
X140630951Y-129462256D02*
X140488094Y-129509875D01*
X140488094Y-129509875D02*
X140249999Y-129509875D01*
X140249999Y-129509875D02*
X140154761Y-129462256D01*
X140154761Y-129462256D02*
X140107142Y-129414636D01*
X140107142Y-129414636D02*
X140059523Y-129319398D01*
X140059523Y-129319398D02*
X140059523Y-129224160D01*
X140059523Y-129224160D02*
X140107142Y-129128922D01*
X140107142Y-129128922D02*
X140154761Y-129081303D01*
X140154761Y-129081303D02*
X140249999Y-129033684D01*
X140249999Y-129033684D02*
X140440475Y-128986065D01*
X140440475Y-128986065D02*
X140535713Y-128938446D01*
X140535713Y-128938446D02*
X140583332Y-128890827D01*
X140583332Y-128890827D02*
X140630951Y-128795589D01*
X140630951Y-128795589D02*
X140630951Y-128700351D01*
X140630951Y-128700351D02*
X140583332Y-128605113D01*
X140583332Y-128605113D02*
X140535713Y-128557494D01*
X140535713Y-128557494D02*
X140440475Y-128509875D01*
X140440475Y-128509875D02*
X140202380Y-128509875D01*
X140202380Y-128509875D02*
X140059523Y-128557494D01*
X139249999Y-129462256D02*
X139345237Y-129509875D01*
X139345237Y-129509875D02*
X139535713Y-129509875D01*
X139535713Y-129509875D02*
X139630951Y-129462256D01*
X139630951Y-129462256D02*
X139678570Y-129367017D01*
X139678570Y-129367017D02*
X139678570Y-128986065D01*
X139678570Y-128986065D02*
X139630951Y-128890827D01*
X139630951Y-128890827D02*
X139535713Y-128843208D01*
X139535713Y-128843208D02*
X139345237Y-128843208D01*
X139345237Y-128843208D02*
X139249999Y-128890827D01*
X139249999Y-128890827D02*
X139202380Y-128986065D01*
X139202380Y-128986065D02*
X139202380Y-129081303D01*
X139202380Y-129081303D02*
X139678570Y-129176541D01*
X138773808Y-129509875D02*
X138773808Y-128843208D01*
X138773808Y-129033684D02*
X138726189Y-128938446D01*
X138726189Y-128938446D02*
X138678570Y-128890827D01*
X138678570Y-128890827D02*
X138583332Y-128843208D01*
X138583332Y-128843208D02*
X138488094Y-128843208D01*
X138249998Y-128843208D02*
X138011903Y-129509875D01*
X138011903Y-129509875D02*
X137773808Y-128843208D01*
X137392855Y-129509875D02*
X137392855Y-128843208D01*
X137392855Y-128509875D02*
X137440474Y-128557494D01*
X137440474Y-128557494D02*
X137392855Y-128605113D01*
X137392855Y-128605113D02*
X137345236Y-128557494D01*
X137345236Y-128557494D02*
X137392855Y-128509875D01*
X137392855Y-128509875D02*
X137392855Y-128605113D01*
X136488094Y-129462256D02*
X136583332Y-129509875D01*
X136583332Y-129509875D02*
X136773808Y-129509875D01*
X136773808Y-129509875D02*
X136869046Y-129462256D01*
X136869046Y-129462256D02*
X136916665Y-129414636D01*
X136916665Y-129414636D02*
X136964284Y-129319398D01*
X136964284Y-129319398D02*
X136964284Y-129033684D01*
X136964284Y-129033684D02*
X136916665Y-128938446D01*
X136916665Y-128938446D02*
X136869046Y-128890827D01*
X136869046Y-128890827D02*
X136773808Y-128843208D01*
X136773808Y-128843208D02*
X136583332Y-128843208D01*
X136583332Y-128843208D02*
X136488094Y-128890827D01*
X135678570Y-129462256D02*
X135773808Y-129509875D01*
X135773808Y-129509875D02*
X135964284Y-129509875D01*
X135964284Y-129509875D02*
X136059522Y-129462256D01*
X136059522Y-129462256D02*
X136107141Y-129367017D01*
X136107141Y-129367017D02*
X136107141Y-128986065D01*
X136107141Y-128986065D02*
X136059522Y-128890827D01*
X136059522Y-128890827D02*
X135964284Y-128843208D01*
X135964284Y-128843208D02*
X135773808Y-128843208D01*
X135773808Y-128843208D02*
X135678570Y-128890827D01*
X135678570Y-128890827D02*
X135630951Y-128986065D01*
X135630951Y-128986065D02*
X135630951Y-129081303D01*
X135630951Y-129081303D02*
X136107141Y-129176541D01*
X135249998Y-129462256D02*
X135154760Y-129509875D01*
X135154760Y-129509875D02*
X134964284Y-129509875D01*
X134964284Y-129509875D02*
X134869046Y-129462256D01*
X134869046Y-129462256D02*
X134821427Y-129367017D01*
X134821427Y-129367017D02*
X134821427Y-129319398D01*
X134821427Y-129319398D02*
X134869046Y-129224160D01*
X134869046Y-129224160D02*
X134964284Y-129176541D01*
X134964284Y-129176541D02*
X135107141Y-129176541D01*
X135107141Y-129176541D02*
X135202379Y-129128922D01*
X135202379Y-129128922D02*
X135249998Y-129033684D01*
X135249998Y-129033684D02*
X135249998Y-128986065D01*
X135249998Y-128986065D02*
X135202379Y-128890827D01*
X135202379Y-128890827D02*
X135107141Y-128843208D01*
X135107141Y-128843208D02*
X134964284Y-128843208D01*
X134964284Y-128843208D02*
X134869046Y-128890827D01*
X134345236Y-129462256D02*
X134345236Y-129509875D01*
X134345236Y-129509875D02*
X134392855Y-129605113D01*
X134392855Y-129605113D02*
X134440474Y-129652732D01*
X132678570Y-129509875D02*
X133154760Y-129509875D01*
X133154760Y-129509875D02*
X133154760Y-128509875D01*
X131869046Y-129509875D02*
X132345236Y-129509875D01*
X132345236Y-129509875D02*
X132345236Y-128509875D01*
X130964284Y-129414636D02*
X131011903Y-129462256D01*
X131011903Y-129462256D02*
X131154760Y-129509875D01*
X131154760Y-129509875D02*
X131249998Y-129509875D01*
X131249998Y-129509875D02*
X131392855Y-129462256D01*
X131392855Y-129462256D02*
X131488093Y-129367017D01*
X131488093Y-129367017D02*
X131535712Y-129271779D01*
X131535712Y-129271779D02*
X131583331Y-129081303D01*
X131583331Y-129081303D02*
X131583331Y-128938446D01*
X131583331Y-128938446D02*
X131535712Y-128747970D01*
X131535712Y-128747970D02*
X131488093Y-128652732D01*
X131488093Y-128652732D02*
X131392855Y-128557494D01*
X131392855Y-128557494D02*
X131249998Y-128509875D01*
X131249998Y-128509875D02*
X131154760Y-128509875D01*
X131154760Y-128509875D02*
X131011903Y-128557494D01*
X131011903Y-128557494D02*
X130964284Y-128605113D01*
X149369046Y-130453152D02*
X149178570Y-131119819D01*
X149178570Y-131119819D02*
X148988094Y-130643628D01*
X148988094Y-130643628D02*
X148797618Y-131119819D01*
X148797618Y-131119819D02*
X148607142Y-130453152D01*
X148321427Y-130453152D02*
X148130951Y-131119819D01*
X148130951Y-131119819D02*
X147940475Y-130643628D01*
X147940475Y-130643628D02*
X147749999Y-131119819D01*
X147749999Y-131119819D02*
X147559523Y-130453152D01*
X147273808Y-130453152D02*
X147083332Y-131119819D01*
X147083332Y-131119819D02*
X146892856Y-130643628D01*
X146892856Y-130643628D02*
X146702380Y-131119819D01*
X146702380Y-131119819D02*
X146511904Y-130453152D01*
X146130951Y-131024580D02*
X146083332Y-131072200D01*
X146083332Y-131072200D02*
X146130951Y-131119819D01*
X146130951Y-131119819D02*
X146178570Y-131072200D01*
X146178570Y-131072200D02*
X146130951Y-131024580D01*
X146130951Y-131024580D02*
X146130951Y-131119819D01*
X145226190Y-131072200D02*
X145321428Y-131119819D01*
X145321428Y-131119819D02*
X145511904Y-131119819D01*
X145511904Y-131119819D02*
X145607142Y-131072200D01*
X145607142Y-131072200D02*
X145654761Y-131024580D01*
X145654761Y-131024580D02*
X145702380Y-130929342D01*
X145702380Y-130929342D02*
X145702380Y-130643628D01*
X145702380Y-130643628D02*
X145654761Y-130548390D01*
X145654761Y-130548390D02*
X145607142Y-130500771D01*
X145607142Y-130500771D02*
X145511904Y-130453152D01*
X145511904Y-130453152D02*
X145321428Y-130453152D01*
X145321428Y-130453152D02*
X145226190Y-130500771D01*
X144369047Y-130453152D02*
X144369047Y-131119819D01*
X144797618Y-130453152D02*
X144797618Y-130976961D01*
X144797618Y-130976961D02*
X144749999Y-131072200D01*
X144749999Y-131072200D02*
X144654761Y-131119819D01*
X144654761Y-131119819D02*
X144511904Y-131119819D01*
X144511904Y-131119819D02*
X144416666Y-131072200D01*
X144416666Y-131072200D02*
X144369047Y-131024580D01*
X143940475Y-131072200D02*
X143845237Y-131119819D01*
X143845237Y-131119819D02*
X143654761Y-131119819D01*
X143654761Y-131119819D02*
X143559523Y-131072200D01*
X143559523Y-131072200D02*
X143511904Y-130976961D01*
X143511904Y-130976961D02*
X143511904Y-130929342D01*
X143511904Y-130929342D02*
X143559523Y-130834104D01*
X143559523Y-130834104D02*
X143654761Y-130786485D01*
X143654761Y-130786485D02*
X143797618Y-130786485D01*
X143797618Y-130786485D02*
X143892856Y-130738866D01*
X143892856Y-130738866D02*
X143940475Y-130643628D01*
X143940475Y-130643628D02*
X143940475Y-130596009D01*
X143940475Y-130596009D02*
X143892856Y-130500771D01*
X143892856Y-130500771D02*
X143797618Y-130453152D01*
X143797618Y-130453152D02*
X143654761Y-130453152D01*
X143654761Y-130453152D02*
X143559523Y-130500771D01*
X143226189Y-130453152D02*
X142845237Y-130453152D01*
X143083332Y-130119819D02*
X143083332Y-130976961D01*
X143083332Y-130976961D02*
X143035713Y-131072200D01*
X143035713Y-131072200D02*
X142940475Y-131119819D01*
X142940475Y-131119819D02*
X142845237Y-131119819D01*
X142369046Y-131119819D02*
X142464284Y-131072200D01*
X142464284Y-131072200D02*
X142511903Y-131024580D01*
X142511903Y-131024580D02*
X142559522Y-130929342D01*
X142559522Y-130929342D02*
X142559522Y-130643628D01*
X142559522Y-130643628D02*
X142511903Y-130548390D01*
X142511903Y-130548390D02*
X142464284Y-130500771D01*
X142464284Y-130500771D02*
X142369046Y-130453152D01*
X142369046Y-130453152D02*
X142226189Y-130453152D01*
X142226189Y-130453152D02*
X142130951Y-130500771D01*
X142130951Y-130500771D02*
X142083332Y-130548390D01*
X142083332Y-130548390D02*
X142035713Y-130643628D01*
X142035713Y-130643628D02*
X142035713Y-130929342D01*
X142035713Y-130929342D02*
X142083332Y-131024580D01*
X142083332Y-131024580D02*
X142130951Y-131072200D01*
X142130951Y-131072200D02*
X142226189Y-131119819D01*
X142226189Y-131119819D02*
X142369046Y-131119819D01*
X141607141Y-131119819D02*
X141607141Y-130453152D01*
X141607141Y-130548390D02*
X141559522Y-130500771D01*
X141559522Y-130500771D02*
X141464284Y-130453152D01*
X141464284Y-130453152D02*
X141321427Y-130453152D01*
X141321427Y-130453152D02*
X141226189Y-130500771D01*
X141226189Y-130500771D02*
X141178570Y-130596009D01*
X141178570Y-130596009D02*
X141178570Y-131119819D01*
X141178570Y-130596009D02*
X141130951Y-130500771D01*
X141130951Y-130500771D02*
X141035713Y-130453152D01*
X141035713Y-130453152D02*
X140892856Y-130453152D01*
X140892856Y-130453152D02*
X140797617Y-130500771D01*
X140797617Y-130500771D02*
X140749998Y-130596009D01*
X140749998Y-130596009D02*
X140749998Y-131119819D01*
X140273808Y-130738866D02*
X139511904Y-130738866D01*
X138607142Y-131119819D02*
X138607142Y-130119819D01*
X138607142Y-131072200D02*
X138702380Y-131119819D01*
X138702380Y-131119819D02*
X138892856Y-131119819D01*
X138892856Y-131119819D02*
X138988094Y-131072200D01*
X138988094Y-131072200D02*
X139035713Y-131024580D01*
X139035713Y-131024580D02*
X139083332Y-130929342D01*
X139083332Y-130929342D02*
X139083332Y-130643628D01*
X139083332Y-130643628D02*
X139035713Y-130548390D01*
X139035713Y-130548390D02*
X138988094Y-130500771D01*
X138988094Y-130500771D02*
X138892856Y-130453152D01*
X138892856Y-130453152D02*
X138702380Y-130453152D01*
X138702380Y-130453152D02*
X138607142Y-130500771D01*
X138178570Y-131072200D02*
X138083332Y-131119819D01*
X138083332Y-131119819D02*
X137892856Y-131119819D01*
X137892856Y-131119819D02*
X137797618Y-131072200D01*
X137797618Y-131072200D02*
X137749999Y-130976961D01*
X137749999Y-130976961D02*
X137749999Y-130929342D01*
X137749999Y-130929342D02*
X137797618Y-130834104D01*
X137797618Y-130834104D02*
X137892856Y-130786485D01*
X137892856Y-130786485D02*
X138035713Y-130786485D01*
X138035713Y-130786485D02*
X138130951Y-130738866D01*
X138130951Y-130738866D02*
X138178570Y-130643628D01*
X138178570Y-130643628D02*
X138178570Y-130596009D01*
X138178570Y-130596009D02*
X138130951Y-130500771D01*
X138130951Y-130500771D02*
X138035713Y-130453152D01*
X138035713Y-130453152D02*
X137892856Y-130453152D01*
X137892856Y-130453152D02*
X137797618Y-130500771D01*
X137321427Y-131024580D02*
X137273808Y-131072200D01*
X137273808Y-131072200D02*
X137321427Y-131119819D01*
X137321427Y-131119819D02*
X137369046Y-131072200D01*
X137369046Y-131072200D02*
X137321427Y-131024580D01*
X137321427Y-131024580D02*
X137321427Y-131119819D01*
X136416666Y-131072200D02*
X136511904Y-131119819D01*
X136511904Y-131119819D02*
X136702380Y-131119819D01*
X136702380Y-131119819D02*
X136797618Y-131072200D01*
X136797618Y-131072200D02*
X136845237Y-131024580D01*
X136845237Y-131024580D02*
X136892856Y-130929342D01*
X136892856Y-130929342D02*
X136892856Y-130643628D01*
X136892856Y-130643628D02*
X136845237Y-130548390D01*
X136845237Y-130548390D02*
X136797618Y-130500771D01*
X136797618Y-130500771D02*
X136702380Y-130453152D01*
X136702380Y-130453152D02*
X136511904Y-130453152D01*
X136511904Y-130453152D02*
X136416666Y-130500771D01*
X135845237Y-131119819D02*
X135940475Y-131072200D01*
X135940475Y-131072200D02*
X135988094Y-131024580D01*
X135988094Y-131024580D02*
X136035713Y-130929342D01*
X136035713Y-130929342D02*
X136035713Y-130643628D01*
X136035713Y-130643628D02*
X135988094Y-130548390D01*
X135988094Y-130548390D02*
X135940475Y-130500771D01*
X135940475Y-130500771D02*
X135845237Y-130453152D01*
X135845237Y-130453152D02*
X135702380Y-130453152D01*
X135702380Y-130453152D02*
X135607142Y-130500771D01*
X135607142Y-130500771D02*
X135559523Y-130548390D01*
X135559523Y-130548390D02*
X135511904Y-130643628D01*
X135511904Y-130643628D02*
X135511904Y-130929342D01*
X135511904Y-130929342D02*
X135559523Y-131024580D01*
X135559523Y-131024580D02*
X135607142Y-131072200D01*
X135607142Y-131072200D02*
X135702380Y-131119819D01*
X135702380Y-131119819D02*
X135845237Y-131119819D01*
X135083332Y-131119819D02*
X135083332Y-130453152D01*
X135083332Y-130548390D02*
X135035713Y-130500771D01*
X135035713Y-130500771D02*
X134940475Y-130453152D01*
X134940475Y-130453152D02*
X134797618Y-130453152D01*
X134797618Y-130453152D02*
X134702380Y-130500771D01*
X134702380Y-130500771D02*
X134654761Y-130596009D01*
X134654761Y-130596009D02*
X134654761Y-131119819D01*
X134654761Y-130596009D02*
X134607142Y-130500771D01*
X134607142Y-130500771D02*
X134511904Y-130453152D01*
X134511904Y-130453152D02*
X134369047Y-130453152D01*
X134369047Y-130453152D02*
X134273808Y-130500771D01*
X134273808Y-130500771D02*
X134226189Y-130596009D01*
X134226189Y-130596009D02*
X134226189Y-131119819D01*
X144797619Y-136057494D02*
X144892857Y-136009875D01*
X144892857Y-136009875D02*
X145035714Y-136009875D01*
X145035714Y-136009875D02*
X145178571Y-136057494D01*
X145178571Y-136057494D02*
X145273809Y-136152732D01*
X145273809Y-136152732D02*
X145321428Y-136247970D01*
X145321428Y-136247970D02*
X145369047Y-136438446D01*
X145369047Y-136438446D02*
X145369047Y-136581303D01*
X145369047Y-136581303D02*
X145321428Y-136771779D01*
X145321428Y-136771779D02*
X145273809Y-136867017D01*
X145273809Y-136867017D02*
X145178571Y-136962256D01*
X145178571Y-136962256D02*
X145035714Y-137009875D01*
X145035714Y-137009875D02*
X144940476Y-137009875D01*
X144940476Y-137009875D02*
X144797619Y-136962256D01*
X144797619Y-136962256D02*
X144750000Y-136914636D01*
X144750000Y-136914636D02*
X144750000Y-136581303D01*
X144750000Y-136581303D02*
X144940476Y-136581303D01*
X144321428Y-137009875D02*
X144321428Y-136009875D01*
X144321428Y-136009875D02*
X143940476Y-136009875D01*
X143940476Y-136009875D02*
X143845238Y-136057494D01*
X143845238Y-136057494D02*
X143797619Y-136105113D01*
X143797619Y-136105113D02*
X143750000Y-136200351D01*
X143750000Y-136200351D02*
X143750000Y-136343208D01*
X143750000Y-136343208D02*
X143797619Y-136438446D01*
X143797619Y-136438446D02*
X143845238Y-136486065D01*
X143845238Y-136486065D02*
X143940476Y-136533684D01*
X143940476Y-136533684D02*
X144321428Y-136533684D01*
X143369047Y-136962256D02*
X143226190Y-137009875D01*
X143226190Y-137009875D02*
X142988095Y-137009875D01*
X142988095Y-137009875D02*
X142892857Y-136962256D01*
X142892857Y-136962256D02*
X142845238Y-136914636D01*
X142845238Y-136914636D02*
X142797619Y-136819398D01*
X142797619Y-136819398D02*
X142797619Y-136724160D01*
X142797619Y-136724160D02*
X142845238Y-136628922D01*
X142845238Y-136628922D02*
X142892857Y-136581303D01*
X142892857Y-136581303D02*
X142988095Y-136533684D01*
X142988095Y-136533684D02*
X143178571Y-136486065D01*
X143178571Y-136486065D02*
X143273809Y-136438446D01*
X143273809Y-136438446D02*
X143321428Y-136390827D01*
X143321428Y-136390827D02*
X143369047Y-136295589D01*
X143369047Y-136295589D02*
X143369047Y-136200351D01*
X143369047Y-136200351D02*
X143321428Y-136105113D01*
X143321428Y-136105113D02*
X143273809Y-136057494D01*
X143273809Y-136057494D02*
X143178571Y-136009875D01*
X143178571Y-136009875D02*
X142940476Y-136009875D01*
X142940476Y-136009875D02*
X142797619Y-136057494D01*
X141654761Y-136724160D02*
X141178571Y-136724160D01*
X141749999Y-137009875D02*
X141416666Y-136009875D01*
X141416666Y-136009875D02*
X141083333Y-137009875D01*
X140749999Y-136343208D02*
X140749999Y-137009875D01*
X140749999Y-136438446D02*
X140702380Y-136390827D01*
X140702380Y-136390827D02*
X140607142Y-136343208D01*
X140607142Y-136343208D02*
X140464285Y-136343208D01*
X140464285Y-136343208D02*
X140369047Y-136390827D01*
X140369047Y-136390827D02*
X140321428Y-136486065D01*
X140321428Y-136486065D02*
X140321428Y-137009875D01*
X139988094Y-136343208D02*
X139607142Y-136343208D01*
X139845237Y-136009875D02*
X139845237Y-136867017D01*
X139845237Y-136867017D02*
X139797618Y-136962256D01*
X139797618Y-136962256D02*
X139702380Y-137009875D01*
X139702380Y-137009875D02*
X139607142Y-137009875D01*
X138892856Y-136962256D02*
X138988094Y-137009875D01*
X138988094Y-137009875D02*
X139178570Y-137009875D01*
X139178570Y-137009875D02*
X139273808Y-136962256D01*
X139273808Y-136962256D02*
X139321427Y-136867017D01*
X139321427Y-136867017D02*
X139321427Y-136486065D01*
X139321427Y-136486065D02*
X139273808Y-136390827D01*
X139273808Y-136390827D02*
X139178570Y-136343208D01*
X139178570Y-136343208D02*
X138988094Y-136343208D01*
X138988094Y-136343208D02*
X138892856Y-136390827D01*
X138892856Y-136390827D02*
X138845237Y-136486065D01*
X138845237Y-136486065D02*
X138845237Y-136581303D01*
X138845237Y-136581303D02*
X139321427Y-136676541D01*
X138416665Y-136343208D02*
X138416665Y-137009875D01*
X138416665Y-136438446D02*
X138369046Y-136390827D01*
X138369046Y-136390827D02*
X138273808Y-136343208D01*
X138273808Y-136343208D02*
X138130951Y-136343208D01*
X138130951Y-136343208D02*
X138035713Y-136390827D01*
X138035713Y-136390827D02*
X137988094Y-136486065D01*
X137988094Y-136486065D02*
X137988094Y-137009875D01*
X137511903Y-136343208D02*
X137511903Y-137009875D01*
X137511903Y-136438446D02*
X137464284Y-136390827D01*
X137464284Y-136390827D02*
X137369046Y-136343208D01*
X137369046Y-136343208D02*
X137226189Y-136343208D01*
X137226189Y-136343208D02*
X137130951Y-136390827D01*
X137130951Y-136390827D02*
X137083332Y-136486065D01*
X137083332Y-136486065D02*
X137083332Y-137009875D01*
X136178570Y-137009875D02*
X136178570Y-136486065D01*
X136178570Y-136486065D02*
X136226189Y-136390827D01*
X136226189Y-136390827D02*
X136321427Y-136343208D01*
X136321427Y-136343208D02*
X136511903Y-136343208D01*
X136511903Y-136343208D02*
X136607141Y-136390827D01*
X136178570Y-136962256D02*
X136273808Y-137009875D01*
X136273808Y-137009875D02*
X136511903Y-137009875D01*
X136511903Y-137009875D02*
X136607141Y-136962256D01*
X136607141Y-136962256D02*
X136654760Y-136867017D01*
X136654760Y-136867017D02*
X136654760Y-136771779D01*
X136654760Y-136771779D02*
X136607141Y-136676541D01*
X136607141Y-136676541D02*
X136511903Y-136628922D01*
X136511903Y-136628922D02*
X136273808Y-136628922D01*
X136273808Y-136628922D02*
X136178570Y-136581303D01*
X144345237Y-138619819D02*
X144345237Y-137619819D01*
X144345237Y-137619819D02*
X143773809Y-138619819D01*
X143773809Y-138619819D02*
X143773809Y-137619819D01*
X143107142Y-137619819D02*
X142916666Y-137619819D01*
X142916666Y-137619819D02*
X142821428Y-137667438D01*
X142821428Y-137667438D02*
X142726190Y-137762676D01*
X142726190Y-137762676D02*
X142678571Y-137953152D01*
X142678571Y-137953152D02*
X142678571Y-138286485D01*
X142678571Y-138286485D02*
X142726190Y-138476961D01*
X142726190Y-138476961D02*
X142821428Y-138572200D01*
X142821428Y-138572200D02*
X142916666Y-138619819D01*
X142916666Y-138619819D02*
X143107142Y-138619819D01*
X143107142Y-138619819D02*
X143202380Y-138572200D01*
X143202380Y-138572200D02*
X143297618Y-138476961D01*
X143297618Y-138476961D02*
X143345237Y-138286485D01*
X143345237Y-138286485D02*
X143345237Y-137953152D01*
X143345237Y-137953152D02*
X143297618Y-137762676D01*
X143297618Y-137762676D02*
X143202380Y-137667438D01*
X143202380Y-137667438D02*
X143107142Y-137619819D01*
X140916666Y-138524580D02*
X140964285Y-138572200D01*
X140964285Y-138572200D02*
X141107142Y-138619819D01*
X141107142Y-138619819D02*
X141202380Y-138619819D01*
X141202380Y-138619819D02*
X141345237Y-138572200D01*
X141345237Y-138572200D02*
X141440475Y-138476961D01*
X141440475Y-138476961D02*
X141488094Y-138381723D01*
X141488094Y-138381723D02*
X141535713Y-138191247D01*
X141535713Y-138191247D02*
X141535713Y-138048390D01*
X141535713Y-138048390D02*
X141488094Y-137857914D01*
X141488094Y-137857914D02*
X141440475Y-137762676D01*
X141440475Y-137762676D02*
X141345237Y-137667438D01*
X141345237Y-137667438D02*
X141202380Y-137619819D01*
X141202380Y-137619819D02*
X141107142Y-137619819D01*
X141107142Y-137619819D02*
X140964285Y-137667438D01*
X140964285Y-137667438D02*
X140916666Y-137715057D01*
X140297618Y-137619819D02*
X140107142Y-137619819D01*
X140107142Y-137619819D02*
X140011904Y-137667438D01*
X140011904Y-137667438D02*
X139916666Y-137762676D01*
X139916666Y-137762676D02*
X139869047Y-137953152D01*
X139869047Y-137953152D02*
X139869047Y-138286485D01*
X139869047Y-138286485D02*
X139916666Y-138476961D01*
X139916666Y-138476961D02*
X140011904Y-138572200D01*
X140011904Y-138572200D02*
X140107142Y-138619819D01*
X140107142Y-138619819D02*
X140297618Y-138619819D01*
X140297618Y-138619819D02*
X140392856Y-138572200D01*
X140392856Y-138572200D02*
X140488094Y-138476961D01*
X140488094Y-138476961D02*
X140535713Y-138286485D01*
X140535713Y-138286485D02*
X140535713Y-137953152D01*
X140535713Y-137953152D02*
X140488094Y-137762676D01*
X140488094Y-137762676D02*
X140392856Y-137667438D01*
X140392856Y-137667438D02*
X140297618Y-137619819D01*
X139583332Y-137619819D02*
X139249999Y-138619819D01*
X139249999Y-138619819D02*
X138916666Y-137619819D01*
X138583332Y-138096009D02*
X138249999Y-138096009D01*
X138107142Y-138619819D02*
X138583332Y-138619819D01*
X138583332Y-138619819D02*
X138583332Y-137619819D01*
X138583332Y-137619819D02*
X138107142Y-137619819D01*
X137107142Y-138619819D02*
X137440475Y-138143628D01*
X137678570Y-138619819D02*
X137678570Y-137619819D01*
X137678570Y-137619819D02*
X137297618Y-137619819D01*
X137297618Y-137619819D02*
X137202380Y-137667438D01*
X137202380Y-137667438D02*
X137154761Y-137715057D01*
X137154761Y-137715057D02*
X137107142Y-137810295D01*
X137107142Y-137810295D02*
X137107142Y-137953152D01*
X137107142Y-137953152D02*
X137154761Y-138048390D01*
X137154761Y-138048390D02*
X137202380Y-138096009D01*
X137202380Y-138096009D02*
X137297618Y-138143628D01*
X137297618Y-138143628D02*
X137678570Y-138143628D01*
X132359580Y-76333333D02*
X132407200Y-76285714D01*
X132407200Y-76285714D02*
X132454819Y-76142857D01*
X132454819Y-76142857D02*
X132454819Y-76047619D01*
X132454819Y-76047619D02*
X132407200Y-75904762D01*
X132407200Y-75904762D02*
X132311961Y-75809524D01*
X132311961Y-75809524D02*
X132216723Y-75761905D01*
X132216723Y-75761905D02*
X132026247Y-75714286D01*
X132026247Y-75714286D02*
X131883390Y-75714286D01*
X131883390Y-75714286D02*
X131692914Y-75761905D01*
X131692914Y-75761905D02*
X131597676Y-75809524D01*
X131597676Y-75809524D02*
X131502438Y-75904762D01*
X131502438Y-75904762D02*
X131454819Y-76047619D01*
X131454819Y-76047619D02*
X131454819Y-76142857D01*
X131454819Y-76142857D02*
X131502438Y-76285714D01*
X131502438Y-76285714D02*
X131550057Y-76333333D01*
X132454819Y-77285714D02*
X132454819Y-76714286D01*
X132454819Y-77000000D02*
X131454819Y-77000000D01*
X131454819Y-77000000D02*
X131597676Y-76904762D01*
X131597676Y-76904762D02*
X131692914Y-76809524D01*
X131692914Y-76809524D02*
X131740533Y-76714286D01*
X156261904Y-84954819D02*
X156261904Y-85764342D01*
X156261904Y-85764342D02*
X156214285Y-85859580D01*
X156214285Y-85859580D02*
X156166666Y-85907200D01*
X156166666Y-85907200D02*
X156071428Y-85954819D01*
X156071428Y-85954819D02*
X155880952Y-85954819D01*
X155880952Y-85954819D02*
X155785714Y-85907200D01*
X155785714Y-85907200D02*
X155738095Y-85859580D01*
X155738095Y-85859580D02*
X155690476Y-85764342D01*
X155690476Y-85764342D02*
X155690476Y-84954819D01*
X155261904Y-85050057D02*
X155214285Y-85002438D01*
X155214285Y-85002438D02*
X155119047Y-84954819D01*
X155119047Y-84954819D02*
X154880952Y-84954819D01*
X154880952Y-84954819D02*
X154785714Y-85002438D01*
X154785714Y-85002438D02*
X154738095Y-85050057D01*
X154738095Y-85050057D02*
X154690476Y-85145295D01*
X154690476Y-85145295D02*
X154690476Y-85240533D01*
X154690476Y-85240533D02*
X154738095Y-85383390D01*
X154738095Y-85383390D02*
X155309523Y-85954819D01*
X155309523Y-85954819D02*
X154690476Y-85954819D01*
X152666666Y-85907200D02*
X152523809Y-85954819D01*
X152523809Y-85954819D02*
X152285714Y-85954819D01*
X152285714Y-85954819D02*
X152190476Y-85907200D01*
X152190476Y-85907200D02*
X152142857Y-85859580D01*
X152142857Y-85859580D02*
X152095238Y-85764342D01*
X152095238Y-85764342D02*
X152095238Y-85669104D01*
X152095238Y-85669104D02*
X152142857Y-85573866D01*
X152142857Y-85573866D02*
X152190476Y-85526247D01*
X152190476Y-85526247D02*
X152285714Y-85478628D01*
X152285714Y-85478628D02*
X152476190Y-85431009D01*
X152476190Y-85431009D02*
X152571428Y-85383390D01*
X152571428Y-85383390D02*
X152619047Y-85335771D01*
X152619047Y-85335771D02*
X152666666Y-85240533D01*
X152666666Y-85240533D02*
X152666666Y-85145295D01*
X152666666Y-85145295D02*
X152619047Y-85050057D01*
X152619047Y-85050057D02*
X152571428Y-85002438D01*
X152571428Y-85002438D02*
X152476190Y-84954819D01*
X152476190Y-84954819D02*
X152238095Y-84954819D01*
X152238095Y-84954819D02*
X152095238Y-85002438D01*
X151714285Y-85669104D02*
X151238095Y-85669104D01*
X151809523Y-85954819D02*
X151476190Y-84954819D01*
X151476190Y-84954819D02*
X151142857Y-85954819D01*
X150666666Y-85383390D02*
X150761904Y-85335771D01*
X150761904Y-85335771D02*
X150809523Y-85288152D01*
X150809523Y-85288152D02*
X150857142Y-85192914D01*
X150857142Y-85192914D02*
X150857142Y-85145295D01*
X150857142Y-85145295D02*
X150809523Y-85050057D01*
X150809523Y-85050057D02*
X150761904Y-85002438D01*
X150761904Y-85002438D02*
X150666666Y-84954819D01*
X150666666Y-84954819D02*
X150476190Y-84954819D01*
X150476190Y-84954819D02*
X150380952Y-85002438D01*
X150380952Y-85002438D02*
X150333333Y-85050057D01*
X150333333Y-85050057D02*
X150285714Y-85145295D01*
X150285714Y-85145295D02*
X150285714Y-85192914D01*
X150285714Y-85192914D02*
X150333333Y-85288152D01*
X150333333Y-85288152D02*
X150380952Y-85335771D01*
X150380952Y-85335771D02*
X150476190Y-85383390D01*
X150476190Y-85383390D02*
X150666666Y-85383390D01*
X150666666Y-85383390D02*
X150761904Y-85431009D01*
X150761904Y-85431009D02*
X150809523Y-85478628D01*
X150809523Y-85478628D02*
X150857142Y-85573866D01*
X150857142Y-85573866D02*
X150857142Y-85764342D01*
X150857142Y-85764342D02*
X150809523Y-85859580D01*
X150809523Y-85859580D02*
X150761904Y-85907200D01*
X150761904Y-85907200D02*
X150666666Y-85954819D01*
X150666666Y-85954819D02*
X150476190Y-85954819D01*
X150476190Y-85954819D02*
X150380952Y-85907200D01*
X150380952Y-85907200D02*
X150333333Y-85859580D01*
X150333333Y-85859580D02*
X150285714Y-85764342D01*
X150285714Y-85764342D02*
X150285714Y-85573866D01*
X150285714Y-85573866D02*
X150333333Y-85478628D01*
X150333333Y-85478628D02*
X150380952Y-85431009D01*
X150380952Y-85431009D02*
X150476190Y-85383390D01*
X149333333Y-85954819D02*
X149904761Y-85954819D01*
X149619047Y-85954819D02*
X149619047Y-84954819D01*
X149619047Y-84954819D02*
X149714285Y-85097676D01*
X149714285Y-85097676D02*
X149809523Y-85192914D01*
X149809523Y-85192914D02*
X149904761Y-85240533D01*
X148761904Y-85383390D02*
X148857142Y-85335771D01*
X148857142Y-85335771D02*
X148904761Y-85288152D01*
X148904761Y-85288152D02*
X148952380Y-85192914D01*
X148952380Y-85192914D02*
X148952380Y-85145295D01*
X148952380Y-85145295D02*
X148904761Y-85050057D01*
X148904761Y-85050057D02*
X148857142Y-85002438D01*
X148857142Y-85002438D02*
X148761904Y-84954819D01*
X148761904Y-84954819D02*
X148571428Y-84954819D01*
X148571428Y-84954819D02*
X148476190Y-85002438D01*
X148476190Y-85002438D02*
X148428571Y-85050057D01*
X148428571Y-85050057D02*
X148380952Y-85145295D01*
X148380952Y-85145295D02*
X148380952Y-85192914D01*
X148380952Y-85192914D02*
X148428571Y-85288152D01*
X148428571Y-85288152D02*
X148476190Y-85335771D01*
X148476190Y-85335771D02*
X148571428Y-85383390D01*
X148571428Y-85383390D02*
X148761904Y-85383390D01*
X148761904Y-85383390D02*
X148857142Y-85431009D01*
X148857142Y-85431009D02*
X148904761Y-85478628D01*
X148904761Y-85478628D02*
X148952380Y-85573866D01*
X148952380Y-85573866D02*
X148952380Y-85764342D01*
X148952380Y-85764342D02*
X148904761Y-85859580D01*
X148904761Y-85859580D02*
X148857142Y-85907200D01*
X148857142Y-85907200D02*
X148761904Y-85954819D01*
X148761904Y-85954819D02*
X148571428Y-85954819D01*
X148571428Y-85954819D02*
X148476190Y-85907200D01*
X148476190Y-85907200D02*
X148428571Y-85859580D01*
X148428571Y-85859580D02*
X148380952Y-85764342D01*
X148380952Y-85764342D02*
X148380952Y-85573866D01*
X148380952Y-85573866D02*
X148428571Y-85478628D01*
X148428571Y-85478628D02*
X148476190Y-85431009D01*
X148476190Y-85431009D02*
X148571428Y-85383390D01*
X147999999Y-85907200D02*
X147857142Y-85954819D01*
X147857142Y-85954819D02*
X147619047Y-85954819D01*
X147619047Y-85954819D02*
X147523809Y-85907200D01*
X147523809Y-85907200D02*
X147476190Y-85859580D01*
X147476190Y-85859580D02*
X147428571Y-85764342D01*
X147428571Y-85764342D02*
X147428571Y-85669104D01*
X147428571Y-85669104D02*
X147476190Y-85573866D01*
X147476190Y-85573866D02*
X147523809Y-85526247D01*
X147523809Y-85526247D02*
X147619047Y-85478628D01*
X147619047Y-85478628D02*
X147809523Y-85431009D01*
X147809523Y-85431009D02*
X147904761Y-85383390D01*
X147904761Y-85383390D02*
X147952380Y-85335771D01*
X147952380Y-85335771D02*
X147999999Y-85240533D01*
X147999999Y-85240533D02*
X147999999Y-85145295D01*
X147999999Y-85145295D02*
X147952380Y-85050057D01*
X147952380Y-85050057D02*
X147904761Y-85002438D01*
X147904761Y-85002438D02*
X147809523Y-84954819D01*
X147809523Y-84954819D02*
X147571428Y-84954819D01*
X147571428Y-84954819D02*
X147428571Y-85002438D01*
X146999999Y-85573866D02*
X146238095Y-85573866D01*
X145904761Y-84954819D02*
X145571428Y-85954819D01*
X145571428Y-85954819D02*
X145238095Y-84954819D01*
D11*
%TO.C,C1*%
X136695000Y-69410509D02*
X136695000Y-67810509D01*
X137495000Y-68610509D02*
X135895000Y-68610509D01*
X139810000Y-78821000D02*
X133508000Y-78821000D01*
X139810000Y-78861000D02*
X133520000Y-78861000D01*
X139810000Y-78901000D02*
X133532000Y-78901000D01*
X139810000Y-78941000D02*
X133545000Y-78941000D01*
X139810000Y-78981000D02*
X133557000Y-78981000D01*
X139810000Y-79021000D02*
X133570000Y-79021000D01*
X139810000Y-79061000D02*
X133584000Y-79061000D01*
X139810000Y-79101000D02*
X133597000Y-79101000D01*
X139810000Y-79141000D02*
X133611000Y-79141000D01*
X139810000Y-79181000D02*
X133625000Y-79181000D01*
X139810000Y-79221000D02*
X133639000Y-79221000D01*
X139810000Y-79261000D02*
X133653000Y-79261000D01*
X139810000Y-79301000D02*
X133668000Y-79301000D01*
X139810000Y-79341000D02*
X133682000Y-79341000D01*
X139810000Y-79381000D02*
X133697000Y-79381000D01*
X139810000Y-79421000D02*
X133713000Y-79421000D01*
X139810000Y-79461000D02*
X133728000Y-79461000D01*
X139810000Y-79501000D02*
X133744000Y-79501000D01*
X139810000Y-79541000D02*
X133760000Y-79541000D01*
X139810000Y-79581000D02*
X133776000Y-79581000D01*
X139810000Y-79621000D02*
X133793000Y-79621000D01*
X139810000Y-79661000D02*
X133810000Y-79661000D01*
X139810000Y-79701000D02*
X133827000Y-79701000D01*
X139810000Y-79741000D02*
X133844000Y-79741000D01*
X139810000Y-79781000D02*
X133861000Y-79781000D01*
X139810000Y-79821000D02*
X133879000Y-79821000D01*
X139810000Y-79861000D02*
X133897000Y-79861000D01*
X139810000Y-79901000D02*
X133916000Y-79901000D01*
X139810000Y-79941000D02*
X133934000Y-79941000D01*
X139810000Y-79981000D02*
X133953000Y-79981000D01*
X139810000Y-80021000D02*
X133972000Y-80021000D01*
X139810000Y-80061000D02*
X133992000Y-80061000D01*
X139810000Y-80101000D02*
X134011000Y-80101000D01*
X139810000Y-80141000D02*
X134031000Y-80141000D01*
X139810000Y-80181000D02*
X134051000Y-80181000D01*
X139810000Y-80221000D02*
X134072000Y-80221000D01*
X139810000Y-80261000D02*
X134093000Y-80261000D01*
X139810000Y-80301000D02*
X134114000Y-80301000D01*
X139810000Y-80341000D02*
X134135000Y-80341000D01*
X139810000Y-80381000D02*
X134156000Y-80381000D01*
X139810000Y-80421000D02*
X134178000Y-80421000D01*
X139810000Y-80461000D02*
X134201000Y-80461000D01*
X139810000Y-80501000D02*
X134223000Y-80501000D01*
X139810000Y-80541000D02*
X134246000Y-80541000D01*
X139810000Y-80581000D02*
X134269000Y-80581000D01*
X139810000Y-80621000D02*
X134292000Y-80621000D01*
X139810000Y-80661000D02*
X134316000Y-80661000D01*
X139810000Y-80701000D02*
X134340000Y-80701000D01*
X139810000Y-80741000D02*
X134364000Y-80741000D01*
X139810000Y-80781000D02*
X134389000Y-80781000D01*
X139810000Y-80821000D02*
X134414000Y-80821000D01*
X139810000Y-80861000D02*
X134439000Y-80861000D01*
X139810000Y-80901000D02*
X134465000Y-80901000D01*
X139810000Y-80941000D02*
X134491000Y-80941000D01*
X139810000Y-80981000D02*
X134517000Y-80981000D01*
X139810000Y-81021000D02*
X134544000Y-81021000D01*
X139810000Y-81061000D02*
X134571000Y-81061000D01*
X139810000Y-81101000D02*
X134598000Y-81101000D01*
X139810000Y-81141000D02*
X134626000Y-81141000D01*
X139810000Y-81181000D02*
X134654000Y-81181000D01*
X139810000Y-81221000D02*
X134682000Y-81221000D01*
X139810000Y-81261000D02*
X134711000Y-81261000D01*
X139810000Y-81301000D02*
X134740000Y-81301000D01*
X139810000Y-81341000D02*
X134770000Y-81341000D01*
X139810000Y-81381000D02*
X134800000Y-81381000D01*
X139810000Y-81421000D02*
X134830000Y-81421000D01*
X139810000Y-81461000D02*
X134860000Y-81461000D01*
X139810000Y-81501000D02*
X134892000Y-81501000D01*
X139810000Y-81541000D02*
X134923000Y-81541000D01*
X139810000Y-81581000D02*
X134955000Y-81581000D01*
X139810000Y-81621000D02*
X134987000Y-81621000D01*
X139810000Y-81661000D02*
X135020000Y-81661000D01*
X142015000Y-84581000D02*
X140485000Y-84581000D01*
X142348000Y-84541000D02*
X140152000Y-84541000D01*
X142601000Y-84501000D02*
X139899000Y-84501000D01*
X142814000Y-84461000D02*
X139686000Y-84461000D01*
X143002000Y-84421000D02*
X139498000Y-84421000D01*
X143170000Y-84381000D02*
X139330000Y-84381000D01*
X143324000Y-84341000D02*
X139176000Y-84341000D01*
X143468000Y-84301000D02*
X139032000Y-84301000D01*
X143601000Y-84261000D02*
X138899000Y-84261000D01*
X143728000Y-84221000D02*
X138772000Y-84221000D01*
X143847000Y-84181000D02*
X138653000Y-84181000D01*
X143961000Y-84141000D02*
X138539000Y-84141000D01*
X144070000Y-84101000D02*
X138430000Y-84101000D01*
X144174000Y-84061000D02*
X138326000Y-84061000D01*
X144274000Y-84021000D02*
X138226000Y-84021000D01*
X144370000Y-83981000D02*
X138130000Y-83981000D01*
X144463000Y-83941000D02*
X138037000Y-83941000D01*
X144553000Y-83901000D02*
X137947000Y-83901000D01*
X144640000Y-83861000D02*
X137860000Y-83861000D01*
X144725000Y-83821000D02*
X137775000Y-83821000D01*
X144807000Y-83781000D02*
X137693000Y-83781000D01*
X144887000Y-83741000D02*
X137613000Y-83741000D01*
X144965000Y-83701000D02*
X137535000Y-83701000D01*
X145040000Y-83661000D02*
X137460000Y-83661000D01*
X145114000Y-83621000D02*
X137386000Y-83621000D01*
X145186000Y-83581000D02*
X137314000Y-83581000D01*
X145257000Y-83541000D02*
X137243000Y-83541000D01*
X145326000Y-83501000D02*
X137174000Y-83501000D01*
X145393000Y-83461000D02*
X137107000Y-83461000D01*
X145459000Y-83421000D02*
X137041000Y-83421000D01*
X145523000Y-83381000D02*
X136977000Y-83381000D01*
X145586000Y-83341000D02*
X136914000Y-83341000D01*
X145648000Y-83301000D02*
X136852000Y-83301000D01*
X145709000Y-83261000D02*
X136791000Y-83261000D01*
X145769000Y-83221000D02*
X136731000Y-83221000D01*
X145827000Y-83181000D02*
X136673000Y-83181000D01*
X145884000Y-83141000D02*
X136616000Y-83141000D01*
X145941000Y-83101000D02*
X136559000Y-83101000D01*
X145996000Y-83061000D02*
X136504000Y-83061000D01*
X146050000Y-83021000D02*
X136450000Y-83021000D01*
X146104000Y-82981000D02*
X136396000Y-82981000D01*
X146156000Y-82941000D02*
X136344000Y-82941000D01*
X146208000Y-82901000D02*
X136292000Y-82901000D01*
X146259000Y-82861000D02*
X136241000Y-82861000D01*
X146309000Y-82821000D02*
X136191000Y-82821000D01*
X146358000Y-82781000D02*
X136142000Y-82781000D01*
X146406000Y-82741000D02*
X136094000Y-82741000D01*
X146454000Y-82701000D02*
X136046000Y-82701000D01*
X146501000Y-82661000D02*
X135999000Y-82661000D01*
X146547000Y-82621000D02*
X135953000Y-82621000D01*
X146593000Y-82581000D02*
X135907000Y-82581000D01*
X146638000Y-82541000D02*
X135862000Y-82541000D01*
X146682000Y-82501000D02*
X135818000Y-82501000D01*
X146725000Y-82461000D02*
X135775000Y-82461000D01*
X146768000Y-82421000D02*
X135732000Y-82421000D01*
X146810000Y-82381000D02*
X135690000Y-82381000D01*
X146852000Y-82341000D02*
X135648000Y-82341000D01*
X146893000Y-82301000D02*
X135607000Y-82301000D01*
X146934000Y-82261000D02*
X135566000Y-82261000D01*
X146974000Y-82221000D02*
X135526000Y-82221000D01*
X147013000Y-82181000D02*
X135487000Y-82181000D01*
X147052000Y-82141000D02*
X135448000Y-82141000D01*
X147090000Y-82101000D02*
X135410000Y-82101000D01*
X147128000Y-82061000D02*
X135372000Y-82061000D01*
X147166000Y-82021000D02*
X135334000Y-82021000D01*
X147202000Y-81981000D02*
X135298000Y-81981000D01*
X147239000Y-81941000D02*
X135261000Y-81941000D01*
X147275000Y-81901000D02*
X135225000Y-81901000D01*
X147310000Y-81861000D02*
X135190000Y-81861000D01*
X147345000Y-81821000D02*
X135155000Y-81821000D01*
X147379000Y-81781000D02*
X135121000Y-81781000D01*
X147413000Y-81741000D02*
X135087000Y-81741000D01*
X147447000Y-81701000D02*
X135053000Y-81701000D01*
X147480000Y-81661000D02*
X142690000Y-81661000D01*
X147513000Y-81621000D02*
X142690000Y-81621000D01*
X147545000Y-81581000D02*
X142690000Y-81581000D01*
X147577000Y-81541000D02*
X142690000Y-81541000D01*
X147608000Y-81501000D02*
X142690000Y-81501000D01*
X147640000Y-81461000D02*
X142690000Y-81461000D01*
X147670000Y-81421000D02*
X142690000Y-81421000D01*
X147700000Y-81381000D02*
X142690000Y-81381000D01*
X147730000Y-81341000D02*
X142690000Y-81341000D01*
X147760000Y-81301000D02*
X142690000Y-81301000D01*
X147789000Y-81261000D02*
X142690000Y-81261000D01*
X147818000Y-81221000D02*
X142690000Y-81221000D01*
X147846000Y-81181000D02*
X142690000Y-81181000D01*
X147874000Y-81141000D02*
X142690000Y-81141000D01*
X147902000Y-81101000D02*
X142690000Y-81101000D01*
X147929000Y-81061000D02*
X142690000Y-81061000D01*
X147956000Y-81021000D02*
X142690000Y-81021000D01*
X147983000Y-80981000D02*
X142690000Y-80981000D01*
X148009000Y-80941000D02*
X142690000Y-80941000D01*
X148035000Y-80901000D02*
X142690000Y-80901000D01*
X148061000Y-80861000D02*
X142690000Y-80861000D01*
X148086000Y-80821000D02*
X142690000Y-80821000D01*
X148111000Y-80781000D02*
X142690000Y-80781000D01*
X148136000Y-80741000D02*
X142690000Y-80741000D01*
X148160000Y-80701000D02*
X142690000Y-80701000D01*
X148184000Y-80661000D02*
X142690000Y-80661000D01*
X148208000Y-80621000D02*
X142690000Y-80621000D01*
X148231000Y-80581000D02*
X142690000Y-80581000D01*
X148254000Y-80541000D02*
X142690000Y-80541000D01*
X148277000Y-80501000D02*
X142690000Y-80501000D01*
X148299000Y-80461000D02*
X142690000Y-80461000D01*
X148322000Y-80421000D02*
X142690000Y-80421000D01*
X148344000Y-80381000D02*
X142690000Y-80381000D01*
X148365000Y-80341000D02*
X142690000Y-80341000D01*
X148386000Y-80301000D02*
X142690000Y-80301000D01*
X148407000Y-80261000D02*
X142690000Y-80261000D01*
X148428000Y-80221000D02*
X142690000Y-80221000D01*
X148449000Y-80181000D02*
X142690000Y-80181000D01*
X148469000Y-80141000D02*
X142690000Y-80141000D01*
X148489000Y-80101000D02*
X142690000Y-80101000D01*
X148508000Y-80061000D02*
X142690000Y-80061000D01*
X148528000Y-80021000D02*
X142690000Y-80021000D01*
X148547000Y-79981000D02*
X142690000Y-79981000D01*
X148566000Y-79941000D02*
X142690000Y-79941000D01*
X148584000Y-79901000D02*
X142690000Y-79901000D01*
X148603000Y-79861000D02*
X142690000Y-79861000D01*
X148621000Y-79821000D02*
X142690000Y-79821000D01*
X148639000Y-79781000D02*
X142690000Y-79781000D01*
X148656000Y-79741000D02*
X142690000Y-79741000D01*
X148673000Y-79701000D02*
X142690000Y-79701000D01*
X148690000Y-79661000D02*
X142690000Y-79661000D01*
X148707000Y-79621000D02*
X142690000Y-79621000D01*
X148724000Y-79581000D02*
X142690000Y-79581000D01*
X148740000Y-79541000D02*
X142690000Y-79541000D01*
X148756000Y-79501000D02*
X142690000Y-79501000D01*
X148772000Y-79461000D02*
X142690000Y-79461000D01*
X148787000Y-79421000D02*
X142690000Y-79421000D01*
X148803000Y-79381000D02*
X142690000Y-79381000D01*
X148818000Y-79341000D02*
X142690000Y-79341000D01*
X148832000Y-79301000D02*
X142690000Y-79301000D01*
X148847000Y-79261000D02*
X142690000Y-79261000D01*
X148861000Y-79221000D02*
X142690000Y-79221000D01*
X148875000Y-79181000D02*
X142690000Y-79181000D01*
X148889000Y-79141000D02*
X142690000Y-79141000D01*
X148903000Y-79101000D02*
X142690000Y-79101000D01*
X148916000Y-79061000D02*
X142690000Y-79061000D01*
X148930000Y-79021000D02*
X142690000Y-79021000D01*
X148943000Y-78981000D02*
X142690000Y-78981000D01*
X148955000Y-78941000D02*
X142690000Y-78941000D01*
X148968000Y-78901000D02*
X142690000Y-78901000D01*
X148980000Y-78861000D02*
X142690000Y-78861000D01*
X148992000Y-78821000D02*
X142690000Y-78821000D01*
X149004000Y-78781000D02*
X133496000Y-78781000D01*
X149015000Y-78741000D02*
X133485000Y-78741000D01*
X149027000Y-78701000D02*
X133473000Y-78701000D01*
X149038000Y-78661000D02*
X133462000Y-78661000D01*
X149049000Y-78621000D02*
X133451000Y-78621000D01*
X149060000Y-78581000D02*
X133440000Y-78581000D01*
X149070000Y-78541000D02*
X133430000Y-78541000D01*
X149080000Y-78501000D02*
X133420000Y-78501000D01*
X149090000Y-78461000D02*
X133410000Y-78461000D01*
X149100000Y-78421000D02*
X133400000Y-78421000D01*
X149110000Y-78381000D02*
X133390000Y-78381000D01*
X149119000Y-78341000D02*
X133381000Y-78341000D01*
X149128000Y-78301000D02*
X133372000Y-78301000D01*
X149137000Y-78261000D02*
X133363000Y-78261000D01*
X149146000Y-78221000D02*
X133354000Y-78221000D01*
X149155000Y-78181000D02*
X133345000Y-78181000D01*
X149163000Y-78141000D02*
X133337000Y-78141000D01*
X149171000Y-78101000D02*
X133329000Y-78101000D01*
X149179000Y-78061000D02*
X133321000Y-78061000D01*
X149187000Y-78021000D02*
X133313000Y-78021000D01*
X149194000Y-77981000D02*
X133306000Y-77981000D01*
X149202000Y-77941000D02*
X133298000Y-77941000D01*
X149209000Y-77901000D02*
X133291000Y-77901000D01*
X149216000Y-77861000D02*
X133284000Y-77861000D01*
X149222000Y-77821000D02*
X133278000Y-77821000D01*
X149229000Y-77781000D02*
X133271000Y-77781000D01*
X149235000Y-77741000D02*
X133265000Y-77741000D01*
X149241000Y-77701000D02*
X133259000Y-77701000D01*
X149247000Y-77661000D02*
X133253000Y-77661000D01*
X149253000Y-77621000D02*
X133247000Y-77621000D01*
X149258000Y-77581000D02*
X133242000Y-77581000D01*
X149264000Y-77541000D02*
X133236000Y-77541000D01*
X149269000Y-77501000D02*
X133231000Y-77501000D01*
X149274000Y-77461000D02*
X133226000Y-77461000D01*
X149278000Y-77421000D02*
X133222000Y-77421000D01*
X149283000Y-77381000D02*
X133217000Y-77381000D01*
X149287000Y-77341000D02*
X133213000Y-77341000D01*
X149291000Y-77301000D02*
X133209000Y-77301000D01*
X149295000Y-77261000D02*
X133205000Y-77261000D01*
X149299000Y-77221000D02*
X133201000Y-77221000D01*
X149302000Y-77180000D02*
X133198000Y-77180000D01*
X149305000Y-77140000D02*
X133195000Y-77140000D01*
X149308000Y-77100000D02*
X133192000Y-77100000D01*
X149311000Y-77060000D02*
X133189000Y-77060000D01*
X149314000Y-77020000D02*
X133186000Y-77020000D01*
X149316000Y-76980000D02*
X133184000Y-76980000D01*
X149319000Y-76940000D02*
X133181000Y-76940000D01*
X149321000Y-76900000D02*
X133179000Y-76900000D01*
X149323000Y-76860000D02*
X133177000Y-76860000D01*
X149324000Y-76820000D02*
X133176000Y-76820000D01*
X149326000Y-76780000D02*
X133174000Y-76780000D01*
X149327000Y-76740000D02*
X133173000Y-76740000D01*
X149328000Y-76700000D02*
X133172000Y-76700000D01*
X149329000Y-76660000D02*
X133171000Y-76660000D01*
X149330000Y-76540000D02*
X133170000Y-76540000D01*
X149330000Y-76580000D02*
X133170000Y-76580000D01*
X149330000Y-76620000D02*
X133170000Y-76620000D01*
X149331000Y-76500000D02*
X133169000Y-76500000D01*
X149370000Y-76500000D02*
G75*
G02*
X133130000Y-76500000I-8120000J0D01*
G01*
X133130000Y-76500000D02*
G75*
G02*
X149370000Y-76500000I8120000J0D01*
G01*
D12*
%TO.C,U2*%
X139500000Y-87700000D02*
X160300000Y-87700000D01*
X139500000Y-124600000D02*
X139500000Y-87700000D01*
X160300000Y-87700000D02*
X160300000Y-124600000D01*
X160300000Y-124600000D02*
X139500000Y-124600000D01*
%TD*%
M02*
