%TF.GenerationSoftware,KiCad,Pcbnew,9.0.0*%
%TF.CreationDate,2025-03-02T17:32:46-06:00*%
%TF.ProjectId,ptSolar-Breakout,7074536f-6c61-4722-9d42-7265616b6f75,rev?*%
%TF.SameCoordinates,Original*%
%TF.FileFunction,Copper,L2,Bot*%
%TF.FilePolarity,Positive*%
%FSLAX46Y46*%
G04 Gerber Fmt 4.6, Leading zero omitted, Abs format (unit mm)*
G04 Created by KiCad (PCBNEW 9.0.0) date 2025-03-02 17:32:46*
%MOMM*%
%LPD*%
G01*
G04 APERTURE LIST*
%TA.AperFunction,ComponentPad*%
%ADD10R,1.700000X1.700000*%
%TD*%
%TA.AperFunction,ComponentPad*%
%ADD11O,1.700000X1.700000*%
%TD*%
%TA.AperFunction,ComponentPad*%
%ADD12R,2.000000X2.000000*%
%TD*%
%TA.AperFunction,ComponentPad*%
%ADD13C,2.000000*%
%TD*%
%TA.AperFunction,ViaPad*%
%ADD14C,0.600000*%
%TD*%
%TA.AperFunction,Conductor*%
%ADD15C,0.200000*%
%TD*%
%TA.AperFunction,Conductor*%
%ADD16C,0.600000*%
%TD*%
G04 APERTURE END LIST*
D10*
%TO.P,J2,1,Pin_1*%
%TO.N,Net-(J2-Pin_1)*%
X155700000Y-90740000D03*
D11*
%TO.P,J2,2,Pin_2*%
%TO.N,+3.3V*%
X155700000Y-88200000D03*
%TO.P,J2,3,Pin_3*%
%TO.N,Net-(J2-Pin_3)*%
X158240000Y-90740000D03*
%TO.P,J2,4,Pin_4*%
%TO.N,Net-(J2-Pin_4)*%
X158240000Y-88200000D03*
%TO.P,J2,5,Pin_5*%
%TO.N,GND*%
X160780000Y-90740000D03*
%TO.P,J2,6,Pin_6*%
%TO.N,Net-(J2-Pin_6)*%
X160780000Y-88200000D03*
%TO.P,J2,7,Pin_7*%
%TO.N,unconnected-(J2-Pin_7-Pad7)*%
X163320000Y-90740000D03*
%TO.P,J2,8,Pin_8*%
%TO.N,Net-(J2-Pin_8)*%
X163320000Y-88200000D03*
%TD*%
D10*
%TO.P,J1,1,Pin_1*%
%TO.N,/MISO*%
X165000000Y-129500000D03*
D11*
%TO.P,J1,2,Pin_2*%
%TO.N,+BATT*%
X162460000Y-129500000D03*
%TO.P,J1,3,Pin_3*%
%TO.N,/SCK*%
X165000000Y-126960000D03*
%TO.P,J1,4,Pin_4*%
%TO.N,/MOSI*%
X162460000Y-126960000D03*
%TO.P,J1,5,Pin_5*%
%TO.N,/RESET*%
X165000000Y-124420000D03*
%TO.P,J1,6,Pin_6*%
%TO.N,GND*%
X162460000Y-124420000D03*
%TD*%
D10*
%TO.P,J3,1,Pin_1*%
%TO.N,/MISO*%
X155700000Y-139000000D03*
D11*
%TO.P,J3,2,Pin_2*%
%TO.N,+BATT*%
X155700000Y-136460000D03*
%TO.P,J3,3,Pin_3*%
%TO.N,/SCK*%
X158240000Y-139000000D03*
%TO.P,J3,4,Pin_4*%
%TO.N,/MOSI*%
X158240000Y-136460000D03*
%TO.P,J3,5,Pin_5*%
%TO.N,/RESET*%
X160780000Y-139000000D03*
%TO.P,J3,6,Pin_6*%
%TO.N,GND*%
X160780000Y-136460000D03*
%TD*%
D10*
%TO.P,J5,1,Pin_1*%
%TO.N,Net-(J2-Pin_1)*%
X145750000Y-87920000D03*
D11*
%TO.P,J5,2,Pin_2*%
%TO.N,Net-(J2-Pin_3)*%
X145750000Y-90460000D03*
%TO.P,J5,3,Pin_3*%
%TO.N,GND*%
X145750000Y-93000000D03*
%TD*%
D12*
%TO.P,PZ1,1*%
%TO.N,+BATT*%
X156926041Y-99750000D03*
D13*
%TO.P,PZ1,2*%
%TO.N,Net-(D1-A)*%
X161926041Y-99750000D03*
%TD*%
D14*
%TO.N,+3.3V*%
X151000000Y-78500000D03*
%TO.N,+BATT*%
X165500000Y-111750000D03*
%TO.N,Net-(U1-VI)*%
X163625000Y-109625000D03*
X160000000Y-84250000D03*
%TO.N,GND*%
X159500000Y-107000000D03*
X165500000Y-138750000D03*
X160250000Y-70500000D03*
X149000000Y-120000000D03*
X145750000Y-81250000D03*
X154000000Y-70500000D03*
X154000000Y-107000000D03*
X159500000Y-120000000D03*
X163750000Y-107000000D03*
X144750000Y-120000000D03*
X164750000Y-120000000D03*
X157750000Y-84500000D03*
X154000000Y-120000000D03*
X165750000Y-70500000D03*
X144750000Y-106750000D03*
X149000000Y-106750000D03*
%TD*%
D15*
%TO.N,+3.3V*%
X151000000Y-83500000D02*
X151000000Y-78500000D01*
X155700000Y-88200000D02*
X151000000Y-83500000D01*
D16*
%TO.N,+BATT*%
X161000000Y-129500000D02*
X156926041Y-125426041D01*
X165500000Y-111750000D02*
X156926041Y-111750000D01*
X156926041Y-125426041D02*
X156926041Y-111750000D01*
X156926041Y-111750000D02*
X156926041Y-99750000D01*
X162460000Y-129500000D02*
X161000000Y-129500000D01*
%TO.N,Net-(U1-VI)*%
X166126041Y-107123959D02*
X166126041Y-86876041D01*
X163500000Y-84250000D02*
X160000000Y-84250000D01*
X163625000Y-109625000D02*
X166126041Y-107123959D01*
X166126041Y-86876041D02*
X163500000Y-84250000D01*
D15*
%TO.N,/SCK*%
X165000000Y-126960000D02*
X163850000Y-128110000D01*
X163850000Y-135016346D02*
X161116346Y-137750000D01*
X161116346Y-137750000D02*
X159490000Y-137750000D01*
X159490000Y-137750000D02*
X158240000Y-139000000D01*
X163850000Y-128110000D02*
X163850000Y-135016346D01*
%TD*%
%TA.AperFunction,Conductor*%
%TO.N,GND*%
G36*
X166692539Y-68270185D02*
G01*
X166738294Y-68322989D01*
X166749500Y-68374500D01*
X166749500Y-86068059D01*
X166729815Y-86135098D01*
X166677011Y-86180853D01*
X166607853Y-86190797D01*
X166544297Y-86161772D01*
X166537819Y-86155740D01*
X164010292Y-83628213D01*
X164010288Y-83628210D01*
X163879185Y-83540609D01*
X163879172Y-83540602D01*
X163733501Y-83480264D01*
X163733489Y-83480261D01*
X163578845Y-83449500D01*
X163578842Y-83449500D01*
X159921158Y-83449500D01*
X159921155Y-83449500D01*
X159766510Y-83480261D01*
X159766498Y-83480264D01*
X159620827Y-83540602D01*
X159620814Y-83540609D01*
X159489711Y-83628210D01*
X159489707Y-83628213D01*
X159378213Y-83739707D01*
X159378210Y-83739711D01*
X159290609Y-83870814D01*
X159290602Y-83870827D01*
X159230264Y-84016498D01*
X159230261Y-84016510D01*
X159199500Y-84171153D01*
X159199500Y-84328846D01*
X159230261Y-84483489D01*
X159230264Y-84483501D01*
X159290602Y-84629172D01*
X159290609Y-84629185D01*
X159378210Y-84760288D01*
X159378213Y-84760292D01*
X159489707Y-84871786D01*
X159489711Y-84871789D01*
X159620814Y-84959390D01*
X159620827Y-84959397D01*
X159766498Y-85019735D01*
X159766503Y-85019737D01*
X159921153Y-85050499D01*
X159921156Y-85050500D01*
X159921158Y-85050500D01*
X163117060Y-85050500D01*
X163184099Y-85070185D01*
X163204741Y-85086819D01*
X165289222Y-87171300D01*
X165322707Y-87232623D01*
X165325541Y-87258981D01*
X165325541Y-106741018D01*
X165305856Y-106808057D01*
X165289222Y-106828699D01*
X163003213Y-109114707D01*
X163003210Y-109114711D01*
X162915609Y-109245814D01*
X162915602Y-109245827D01*
X162855264Y-109391498D01*
X162855261Y-109391510D01*
X162824500Y-109546153D01*
X162824500Y-109703846D01*
X162855261Y-109858489D01*
X162855264Y-109858501D01*
X162915602Y-110004172D01*
X162915609Y-110004185D01*
X163003210Y-110135288D01*
X163003213Y-110135292D01*
X163114707Y-110246786D01*
X163114711Y-110246789D01*
X163245814Y-110334390D01*
X163245827Y-110334397D01*
X163391498Y-110394735D01*
X163391503Y-110394737D01*
X163546153Y-110425499D01*
X163546156Y-110425500D01*
X163546158Y-110425500D01*
X163703844Y-110425500D01*
X163703845Y-110425499D01*
X163858497Y-110394737D01*
X164004179Y-110334394D01*
X164135289Y-110246789D01*
X166537819Y-107844259D01*
X166599142Y-107810774D01*
X166668834Y-107815758D01*
X166724767Y-107857630D01*
X166749184Y-107923094D01*
X166749500Y-107931940D01*
X166749500Y-140625500D01*
X166729815Y-140692539D01*
X166677011Y-140738294D01*
X166625500Y-140749500D01*
X152474352Y-140749500D01*
X152407313Y-140729815D01*
X152361558Y-140677011D01*
X152354897Y-140658766D01*
X152269050Y-140350498D01*
X151156021Y-136353713D01*
X154349500Y-136353713D01*
X154349500Y-136566286D01*
X154382753Y-136776239D01*
X154448444Y-136978414D01*
X154544951Y-137167820D01*
X154669890Y-137339786D01*
X154783430Y-137453326D01*
X154816915Y-137514649D01*
X154811931Y-137584341D01*
X154770059Y-137640274D01*
X154739083Y-137657189D01*
X154607669Y-137706203D01*
X154607664Y-137706206D01*
X154492455Y-137792452D01*
X154492452Y-137792455D01*
X154406206Y-137907664D01*
X154406202Y-137907671D01*
X154355908Y-138042517D01*
X154349501Y-138102116D01*
X154349500Y-138102135D01*
X154349500Y-139897870D01*
X154349501Y-139897876D01*
X154355908Y-139957483D01*
X154406202Y-140092328D01*
X154406206Y-140092335D01*
X154492452Y-140207544D01*
X154492455Y-140207547D01*
X154607664Y-140293793D01*
X154607671Y-140293797D01*
X154742517Y-140344091D01*
X154742516Y-140344091D01*
X154749444Y-140344835D01*
X154802127Y-140350500D01*
X156597872Y-140350499D01*
X156657483Y-140344091D01*
X156792331Y-140293796D01*
X156907546Y-140207546D01*
X156993796Y-140092331D01*
X157042810Y-139960916D01*
X157084681Y-139904984D01*
X157150145Y-139880566D01*
X157218418Y-139895417D01*
X157246673Y-139916569D01*
X157360213Y-140030109D01*
X157532179Y-140155048D01*
X157532181Y-140155049D01*
X157532184Y-140155051D01*
X157721588Y-140251557D01*
X157923757Y-140317246D01*
X158133713Y-140350500D01*
X158133714Y-140350500D01*
X158346286Y-140350500D01*
X158346287Y-140350500D01*
X158556243Y-140317246D01*
X158758412Y-140251557D01*
X158947816Y-140155051D01*
X159034138Y-140092335D01*
X159119786Y-140030109D01*
X159119788Y-140030106D01*
X159119792Y-140030104D01*
X159270104Y-139879792D01*
X159270106Y-139879788D01*
X159270109Y-139879786D01*
X159395048Y-139707820D01*
X159395047Y-139707820D01*
X159395051Y-139707816D01*
X159399514Y-139699054D01*
X159447488Y-139648259D01*
X159515308Y-139631463D01*
X159581444Y-139653999D01*
X159620486Y-139699056D01*
X159624951Y-139707820D01*
X159749890Y-139879786D01*
X159900213Y-140030109D01*
X160072179Y-140155048D01*
X160072181Y-140155049D01*
X160072184Y-140155051D01*
X160261588Y-140251557D01*
X160463757Y-140317246D01*
X160673713Y-140350500D01*
X160673714Y-140350500D01*
X160886286Y-140350500D01*
X160886287Y-140350500D01*
X161096243Y-140317246D01*
X161298412Y-140251557D01*
X161487816Y-140155051D01*
X161574138Y-140092335D01*
X161659786Y-140030109D01*
X161659788Y-140030106D01*
X161659792Y-140030104D01*
X161810104Y-139879792D01*
X161810106Y-139879788D01*
X161810109Y-139879786D01*
X161935048Y-139707820D01*
X161935047Y-139707820D01*
X161935051Y-139707816D01*
X162031557Y-139518412D01*
X162097246Y-139316243D01*
X162130500Y-139106287D01*
X162130500Y-138893713D01*
X162097246Y-138683757D01*
X162031557Y-138481588D01*
X161935051Y-138292184D01*
X161935049Y-138292181D01*
X161935048Y-138292179D01*
X161810109Y-138120213D01*
X161790419Y-138100523D01*
X161756934Y-138039200D01*
X161761918Y-137969508D01*
X161790419Y-137925161D01*
X162262255Y-137453325D01*
X164330520Y-135385062D01*
X164409577Y-135248130D01*
X164450501Y-135095403D01*
X164450501Y-134937288D01*
X164450501Y-134929693D01*
X164450500Y-134929675D01*
X164450500Y-130974499D01*
X164470185Y-130907460D01*
X164522989Y-130861705D01*
X164574500Y-130850499D01*
X165897871Y-130850499D01*
X165897872Y-130850499D01*
X165957483Y-130844091D01*
X166092331Y-130793796D01*
X166207546Y-130707546D01*
X166293796Y-130592331D01*
X166344091Y-130457483D01*
X166350500Y-130397873D01*
X166350499Y-128602128D01*
X166344091Y-128542517D01*
X166317004Y-128469894D01*
X166293797Y-128407671D01*
X166293793Y-128407664D01*
X166207547Y-128292455D01*
X166207544Y-128292452D01*
X166092335Y-128206206D01*
X166092328Y-128206202D01*
X165960917Y-128157189D01*
X165904983Y-128115318D01*
X165880566Y-128049853D01*
X165895418Y-127981580D01*
X165916563Y-127953332D01*
X166030104Y-127839792D01*
X166155051Y-127667816D01*
X166251557Y-127478412D01*
X166317246Y-127276243D01*
X166350500Y-127066287D01*
X166350500Y-126853713D01*
X166317246Y-126643757D01*
X166251557Y-126441588D01*
X166155051Y-126252184D01*
X166155049Y-126252181D01*
X166155048Y-126252179D01*
X166030109Y-126080213D01*
X165879786Y-125929890D01*
X165707820Y-125804951D01*
X165707115Y-125804591D01*
X165699054Y-125800485D01*
X165648259Y-125752512D01*
X165631463Y-125684692D01*
X165653999Y-125618556D01*
X165699054Y-125579515D01*
X165707816Y-125575051D01*
X165729789Y-125559086D01*
X165879786Y-125450109D01*
X165879788Y-125450106D01*
X165879792Y-125450104D01*
X166030104Y-125299792D01*
X166030106Y-125299788D01*
X166030109Y-125299786D01*
X166155048Y-125127820D01*
X166155050Y-125127817D01*
X166155051Y-125127816D01*
X166251557Y-124938412D01*
X166317246Y-124736243D01*
X166350500Y-124526287D01*
X166350500Y-124313713D01*
X166317246Y-124103757D01*
X166251557Y-123901588D01*
X166155051Y-123712184D01*
X166155049Y-123712181D01*
X166155048Y-123712179D01*
X166030109Y-123540213D01*
X165879786Y-123389890D01*
X165707820Y-123264951D01*
X165518414Y-123168444D01*
X165518413Y-123168443D01*
X165518412Y-123168443D01*
X165316243Y-123102754D01*
X165316241Y-123102753D01*
X165316240Y-123102753D01*
X165154957Y-123077208D01*
X165106287Y-123069500D01*
X164893713Y-123069500D01*
X164845042Y-123077208D01*
X164683760Y-123102753D01*
X164481585Y-123168444D01*
X164292179Y-123264951D01*
X164120213Y-123389890D01*
X163969890Y-123540213D01*
X163844949Y-123712182D01*
X163840202Y-123721499D01*
X163792227Y-123772293D01*
X163724405Y-123789087D01*
X163658271Y-123766548D01*
X163619234Y-123721495D01*
X163614622Y-123712444D01*
X163489727Y-123540540D01*
X163489723Y-123540535D01*
X163339464Y-123390276D01*
X163339459Y-123390272D01*
X163167557Y-123265379D01*
X162978215Y-123168903D01*
X162776124Y-123103241D01*
X162710000Y-123092768D01*
X162710000Y-123986988D01*
X162652993Y-123954075D01*
X162525826Y-123920000D01*
X162394174Y-123920000D01*
X162267007Y-123954075D01*
X162210000Y-123986988D01*
X162210000Y-123092768D01*
X162209999Y-123092768D01*
X162143875Y-123103241D01*
X161941784Y-123168903D01*
X161752442Y-123265379D01*
X161580540Y-123390272D01*
X161580535Y-123390276D01*
X161430276Y-123540535D01*
X161430272Y-123540540D01*
X161305379Y-123712442D01*
X161208904Y-123901782D01*
X161143242Y-124103870D01*
X161143242Y-124103873D01*
X161132769Y-124170000D01*
X162026988Y-124170000D01*
X161994075Y-124227007D01*
X161960000Y-124354174D01*
X161960000Y-124485826D01*
X161994075Y-124612993D01*
X162026988Y-124670000D01*
X161132769Y-124670000D01*
X161143242Y-124736126D01*
X161143242Y-124736129D01*
X161208904Y-124938217D01*
X161305379Y-125127557D01*
X161430272Y-125299459D01*
X161430276Y-125299464D01*
X161580535Y-125449723D01*
X161580540Y-125449727D01*
X161752444Y-125574622D01*
X161761495Y-125579234D01*
X161812292Y-125627208D01*
X161829087Y-125695029D01*
X161806550Y-125761164D01*
X161761499Y-125800202D01*
X161752182Y-125804949D01*
X161580213Y-125929890D01*
X161429890Y-126080213D01*
X161304951Y-126252179D01*
X161208444Y-126441585D01*
X161142753Y-126643760D01*
X161109500Y-126853713D01*
X161109500Y-127066286D01*
X161142753Y-127276239D01*
X161208444Y-127478414D01*
X161304951Y-127667820D01*
X161429890Y-127839786D01*
X161580213Y-127990109D01*
X161752182Y-128115050D01*
X161760946Y-128119516D01*
X161811742Y-128167491D01*
X161828536Y-128235312D01*
X161805998Y-128301447D01*
X161760946Y-128340484D01*
X161752182Y-128344949D01*
X161580213Y-128469890D01*
X161580209Y-128469894D01*
X161428772Y-128621332D01*
X161367449Y-128654817D01*
X161297757Y-128649833D01*
X161253410Y-128621332D01*
X157762860Y-125130782D01*
X157729375Y-125069459D01*
X157726541Y-125043101D01*
X157726541Y-112674500D01*
X157746226Y-112607461D01*
X157799030Y-112561706D01*
X157850541Y-112550500D01*
X165578844Y-112550500D01*
X165578845Y-112550499D01*
X165733497Y-112519737D01*
X165879179Y-112459394D01*
X166010289Y-112371789D01*
X166121789Y-112260289D01*
X166209394Y-112129179D01*
X166269737Y-111983497D01*
X166300500Y-111828842D01*
X166300500Y-111671158D01*
X166300500Y-111671155D01*
X166300499Y-111671153D01*
X166269738Y-111516510D01*
X166269737Y-111516503D01*
X166269735Y-111516498D01*
X166209397Y-111370827D01*
X166209390Y-111370814D01*
X166121789Y-111239711D01*
X166121786Y-111239707D01*
X166010292Y-111128213D01*
X166010288Y-111128210D01*
X165879185Y-111040609D01*
X165879172Y-111040602D01*
X165733501Y-110980264D01*
X165733489Y-110980261D01*
X165578845Y-110949500D01*
X165578842Y-110949500D01*
X157850541Y-110949500D01*
X157783502Y-110929815D01*
X157737747Y-110877011D01*
X157726541Y-110825500D01*
X157726541Y-101374499D01*
X157746226Y-101307460D01*
X157799030Y-101261705D01*
X157850541Y-101250499D01*
X157973912Y-101250499D01*
X157973913Y-101250499D01*
X158033524Y-101244091D01*
X158168372Y-101193796D01*
X158283587Y-101107546D01*
X158369837Y-100992331D01*
X158420132Y-100857483D01*
X158426541Y-100797873D01*
X158426540Y-99631902D01*
X160425541Y-99631902D01*
X160425541Y-99868097D01*
X160462487Y-100101368D01*
X160535474Y-100325996D01*
X160642698Y-100536433D01*
X160781524Y-100727510D01*
X160948531Y-100894517D01*
X161139608Y-101033343D01*
X161239032Y-101084002D01*
X161350044Y-101140566D01*
X161350046Y-101140566D01*
X161350049Y-101140568D01*
X161470453Y-101179689D01*
X161574672Y-101213553D01*
X161807944Y-101250500D01*
X161807949Y-101250500D01*
X162044138Y-101250500D01*
X162277409Y-101213553D01*
X162502033Y-101140568D01*
X162712474Y-101033343D01*
X162903551Y-100894517D01*
X163070558Y-100727510D01*
X163209384Y-100536433D01*
X163316609Y-100325992D01*
X163389594Y-100101368D01*
X163426541Y-99868097D01*
X163426541Y-99631902D01*
X163389594Y-99398631D01*
X163316607Y-99174003D01*
X163209383Y-98963566D01*
X163070558Y-98772490D01*
X162903551Y-98605483D01*
X162712474Y-98466657D01*
X162502037Y-98359433D01*
X162277409Y-98286446D01*
X162044138Y-98249500D01*
X162044133Y-98249500D01*
X161807949Y-98249500D01*
X161807944Y-98249500D01*
X161574672Y-98286446D01*
X161350044Y-98359433D01*
X161139607Y-98466657D01*
X161083160Y-98507669D01*
X160948531Y-98605483D01*
X160948529Y-98605485D01*
X160948528Y-98605485D01*
X160781526Y-98772487D01*
X160781526Y-98772488D01*
X160781524Y-98772490D01*
X160721903Y-98854550D01*
X160642698Y-98963566D01*
X160535474Y-99174003D01*
X160462487Y-99398631D01*
X160425541Y-99631902D01*
X158426540Y-99631902D01*
X158426540Y-98702128D01*
X158420132Y-98642517D01*
X158406319Y-98605483D01*
X158369838Y-98507671D01*
X158369834Y-98507664D01*
X158283588Y-98392455D01*
X158283585Y-98392452D01*
X158168376Y-98306206D01*
X158168369Y-98306202D01*
X158033523Y-98255908D01*
X158033524Y-98255908D01*
X157973924Y-98249501D01*
X157973922Y-98249500D01*
X157973914Y-98249500D01*
X157973905Y-98249500D01*
X155878170Y-98249500D01*
X155878164Y-98249501D01*
X155818557Y-98255908D01*
X155683712Y-98306202D01*
X155683705Y-98306206D01*
X155568496Y-98392452D01*
X155568493Y-98392455D01*
X155482247Y-98507664D01*
X155482243Y-98507671D01*
X155431949Y-98642517D01*
X155425542Y-98702116D01*
X155425542Y-98702123D01*
X155425541Y-98702135D01*
X155425541Y-100797870D01*
X155425542Y-100797876D01*
X155431949Y-100857483D01*
X155482243Y-100992328D01*
X155482247Y-100992335D01*
X155568493Y-101107544D01*
X155568496Y-101107547D01*
X155683705Y-101193793D01*
X155683712Y-101193797D01*
X155728659Y-101210561D01*
X155818558Y-101244091D01*
X155878168Y-101250500D01*
X156001541Y-101250499D01*
X156068580Y-101270183D01*
X156114335Y-101322987D01*
X156125541Y-101374499D01*
X156125541Y-125504887D01*
X156156302Y-125659530D01*
X156156305Y-125659542D01*
X156216643Y-125805213D01*
X156216650Y-125805226D01*
X156304251Y-125936329D01*
X156304254Y-125936333D01*
X160378211Y-130010289D01*
X160489711Y-130121789D01*
X160489712Y-130121790D01*
X160620814Y-130209390D01*
X160620827Y-130209397D01*
X160766498Y-130269735D01*
X160766503Y-130269737D01*
X160921153Y-130300499D01*
X160921156Y-130300500D01*
X160921158Y-130300500D01*
X161309106Y-130300500D01*
X161376145Y-130320185D01*
X161409422Y-130351612D01*
X161429896Y-130379792D01*
X161429898Y-130379794D01*
X161580213Y-130530109D01*
X161752179Y-130655048D01*
X161752181Y-130655049D01*
X161752184Y-130655051D01*
X161941588Y-130751557D01*
X162143757Y-130817246D01*
X162353713Y-130850500D01*
X162353714Y-130850500D01*
X162566286Y-130850500D01*
X162566287Y-130850500D01*
X162776243Y-130817246D01*
X162978412Y-130751557D01*
X163069204Y-130705295D01*
X163137874Y-130692399D01*
X163202614Y-130718675D01*
X163242872Y-130775781D01*
X163249500Y-130815780D01*
X163249500Y-134716248D01*
X163229815Y-134783287D01*
X163213181Y-134803929D01*
X162166708Y-135850401D01*
X162105385Y-135883886D01*
X162035693Y-135878902D01*
X161979760Y-135837030D01*
X161968543Y-135819016D01*
X161934622Y-135752444D01*
X161809727Y-135580540D01*
X161809723Y-135580535D01*
X161659464Y-135430276D01*
X161659459Y-135430272D01*
X161487557Y-135305379D01*
X161298215Y-135208903D01*
X161096124Y-135143241D01*
X161030000Y-135132768D01*
X161030000Y-136026988D01*
X160972993Y-135994075D01*
X160845826Y-135960000D01*
X160714174Y-135960000D01*
X160587007Y-135994075D01*
X160530000Y-136026988D01*
X160530000Y-135132768D01*
X160529999Y-135132768D01*
X160463875Y-135143241D01*
X160261784Y-135208903D01*
X160072442Y-135305379D01*
X159900540Y-135430272D01*
X159900535Y-135430276D01*
X159750276Y-135580535D01*
X159750272Y-135580540D01*
X159625378Y-135752443D01*
X159620762Y-135761502D01*
X159572784Y-135812295D01*
X159504963Y-135829087D01*
X159438829Y-135806546D01*
X159399794Y-135761493D01*
X159395051Y-135752184D01*
X159395049Y-135752181D01*
X159395048Y-135752179D01*
X159270109Y-135580213D01*
X159119786Y-135429890D01*
X158947820Y-135304951D01*
X158758414Y-135208444D01*
X158758413Y-135208443D01*
X158758412Y-135208443D01*
X158556243Y-135142754D01*
X158556241Y-135142753D01*
X158556240Y-135142753D01*
X158394957Y-135117208D01*
X158346287Y-135109500D01*
X158133713Y-135109500D01*
X158085042Y-135117208D01*
X157923760Y-135142753D01*
X157721585Y-135208444D01*
X157532179Y-135304951D01*
X157360213Y-135429890D01*
X157209890Y-135580213D01*
X157084949Y-135752182D01*
X157080484Y-135760946D01*
X157032509Y-135811742D01*
X156964688Y-135828536D01*
X156898553Y-135805998D01*
X156859516Y-135760946D01*
X156855050Y-135752182D01*
X156730109Y-135580213D01*
X156579786Y-135429890D01*
X156407820Y-135304951D01*
X156218414Y-135208444D01*
X156218413Y-135208443D01*
X156218412Y-135208443D01*
X156016243Y-135142754D01*
X156016241Y-135142753D01*
X156016240Y-135142753D01*
X155854957Y-135117208D01*
X155806287Y-135109500D01*
X155593713Y-135109500D01*
X155545042Y-135117208D01*
X155383760Y-135142753D01*
X155181585Y-135208444D01*
X154992179Y-135304951D01*
X154820213Y-135429890D01*
X154669890Y-135580213D01*
X154544951Y-135752179D01*
X154448444Y-135941585D01*
X154382753Y-136143760D01*
X154349500Y-136353713D01*
X151156021Y-136353713D01*
X151003493Y-135805998D01*
X149658013Y-130974499D01*
X146982819Y-121368122D01*
X146966392Y-121306814D01*
X146965145Y-121304656D01*
X146964478Y-121302258D01*
X146964476Y-121302256D01*
X146964476Y-121302253D01*
X146932458Y-121248030D01*
X146931923Y-121247112D01*
X146900504Y-121192692D01*
X146900501Y-121192689D01*
X146900500Y-121192686D01*
X146900497Y-121192683D01*
X146898611Y-121190226D01*
X146898589Y-121190198D01*
X146897585Y-121188889D01*
X146852560Y-121144738D01*
X146852147Y-121144333D01*
X146807314Y-121099500D01*
X146805155Y-121098253D01*
X146803375Y-121096508D01*
X146748669Y-121065634D01*
X146747627Y-121065039D01*
X146693182Y-121033605D01*
X146690314Y-121032417D01*
X146688780Y-121031781D01*
X146627703Y-121016056D01*
X146627703Y-121016055D01*
X146627037Y-121015883D01*
X146565892Y-120999500D01*
X146563402Y-120999500D01*
X146560982Y-120998877D01*
X146498155Y-120999494D01*
X146496939Y-120999500D01*
X143374500Y-120999500D01*
X143307461Y-120979815D01*
X143261706Y-120927011D01*
X143250500Y-120875500D01*
X143250500Y-87022135D01*
X144399500Y-87022135D01*
X144399500Y-88817870D01*
X144399501Y-88817876D01*
X144405908Y-88877483D01*
X144456202Y-89012328D01*
X144456206Y-89012335D01*
X144542452Y-89127544D01*
X144542455Y-89127547D01*
X144657664Y-89213793D01*
X144657671Y-89213797D01*
X144789082Y-89262810D01*
X144845016Y-89304681D01*
X144869433Y-89370145D01*
X144854582Y-89438418D01*
X144833431Y-89466673D01*
X144719889Y-89580215D01*
X144594951Y-89752179D01*
X144498444Y-89941585D01*
X144432753Y-90143760D01*
X144399500Y-90353713D01*
X144399500Y-90566286D01*
X144428788Y-90751206D01*
X144432754Y-90776243D01*
X144483685Y-90932993D01*
X144498444Y-90978414D01*
X144594951Y-91167820D01*
X144719890Y-91339786D01*
X144870213Y-91490109D01*
X145042179Y-91615048D01*
X145042181Y-91615049D01*
X145042184Y-91615051D01*
X145051493Y-91619794D01*
X145102290Y-91667766D01*
X145119087Y-91735587D01*
X145096552Y-91801722D01*
X145051502Y-91840762D01*
X145042443Y-91845378D01*
X144870540Y-91970272D01*
X144870535Y-91970276D01*
X144720276Y-92120535D01*
X144720272Y-92120540D01*
X144595379Y-92292442D01*
X144498904Y-92481782D01*
X144433242Y-92683870D01*
X144433242Y-92683873D01*
X144422769Y-92750000D01*
X145316988Y-92750000D01*
X145284075Y-92807007D01*
X145250000Y-92934174D01*
X145250000Y-93065826D01*
X145284075Y-93192993D01*
X145316988Y-93250000D01*
X144422769Y-93250000D01*
X144433242Y-93316126D01*
X144433242Y-93316129D01*
X144498904Y-93518217D01*
X144595379Y-93707557D01*
X144720272Y-93879459D01*
X144720276Y-93879464D01*
X144870535Y-94029723D01*
X144870540Y-94029727D01*
X145042442Y-94154620D01*
X145231782Y-94251095D01*
X145433871Y-94316757D01*
X145500000Y-94327231D01*
X145500000Y-93433012D01*
X145557007Y-93465925D01*
X145684174Y-93500000D01*
X145815826Y-93500000D01*
X145942993Y-93465925D01*
X146000000Y-93433012D01*
X146000000Y-94327230D01*
X146066126Y-94316757D01*
X146066129Y-94316757D01*
X146268217Y-94251095D01*
X146457557Y-94154620D01*
X146629459Y-94029727D01*
X146629464Y-94029723D01*
X146779723Y-93879464D01*
X146779727Y-93879459D01*
X146904620Y-93707557D01*
X147001095Y-93518217D01*
X147066757Y-93316129D01*
X147066757Y-93316126D01*
X147077231Y-93250000D01*
X146183012Y-93250000D01*
X146215925Y-93192993D01*
X146250000Y-93065826D01*
X146250000Y-92934174D01*
X146215925Y-92807007D01*
X146183012Y-92750000D01*
X147077231Y-92750000D01*
X147066757Y-92683873D01*
X147066757Y-92683870D01*
X147001095Y-92481782D01*
X146904620Y-92292442D01*
X146779727Y-92120540D01*
X146779723Y-92120535D01*
X146629464Y-91970276D01*
X146629459Y-91970272D01*
X146457555Y-91845377D01*
X146448500Y-91840763D01*
X146397706Y-91792788D01*
X146380912Y-91724966D01*
X146403451Y-91658832D01*
X146448508Y-91619793D01*
X146457816Y-91615051D01*
X146537007Y-91557515D01*
X146629786Y-91490109D01*
X146629788Y-91490106D01*
X146629792Y-91490104D01*
X146780104Y-91339792D01*
X146780106Y-91339788D01*
X146780109Y-91339786D01*
X146905048Y-91167820D01*
X146905047Y-91167820D01*
X146905051Y-91167816D01*
X147001557Y-90978412D01*
X147067246Y-90776243D01*
X147100500Y-90566287D01*
X147100500Y-90353713D01*
X147067246Y-90143757D01*
X147001557Y-89941588D01*
X146905051Y-89752184D01*
X146905049Y-89752181D01*
X146905048Y-89752179D01*
X146780109Y-89580213D01*
X146666569Y-89466673D01*
X146633084Y-89405350D01*
X146638068Y-89335658D01*
X146679940Y-89279725D01*
X146710915Y-89262810D01*
X146842331Y-89213796D01*
X146957546Y-89127546D01*
X147043796Y-89012331D01*
X147094091Y-88877483D01*
X147100500Y-88817873D01*
X147100499Y-87022128D01*
X147094091Y-86962517D01*
X147069465Y-86896492D01*
X147043797Y-86827671D01*
X147043793Y-86827664D01*
X146957547Y-86712455D01*
X146957544Y-86712452D01*
X146842335Y-86626206D01*
X146842328Y-86626202D01*
X146707482Y-86575908D01*
X146707483Y-86575908D01*
X146647883Y-86569501D01*
X146647881Y-86569500D01*
X146647873Y-86569500D01*
X146647864Y-86569500D01*
X144852129Y-86569500D01*
X144852123Y-86569501D01*
X144792516Y-86575908D01*
X144657671Y-86626202D01*
X144657664Y-86626206D01*
X144542455Y-86712452D01*
X144542452Y-86712455D01*
X144456206Y-86827664D01*
X144456202Y-86827671D01*
X144405908Y-86962517D01*
X144399501Y-87022116D01*
X144399501Y-87022123D01*
X144399500Y-87022135D01*
X143250500Y-87022135D01*
X143250500Y-78421153D01*
X150199500Y-78421153D01*
X150199500Y-78578846D01*
X150230261Y-78733489D01*
X150230264Y-78733501D01*
X150290602Y-78879172D01*
X150290609Y-78879185D01*
X150378602Y-79010874D01*
X150399480Y-79077551D01*
X150399500Y-79079765D01*
X150399500Y-83413330D01*
X150399499Y-83413348D01*
X150399499Y-83579054D01*
X150399498Y-83579054D01*
X150440423Y-83731785D01*
X150469358Y-83781900D01*
X150469359Y-83781904D01*
X150469360Y-83781904D01*
X150519479Y-83868714D01*
X150519481Y-83868717D01*
X150638349Y-83987585D01*
X150638355Y-83987590D01*
X154366241Y-87715476D01*
X154399726Y-87776799D01*
X154396492Y-87841473D01*
X154382753Y-87883757D01*
X154349500Y-88093713D01*
X154349500Y-88306286D01*
X154382753Y-88516239D01*
X154448444Y-88718414D01*
X154544951Y-88907820D01*
X154669890Y-89079786D01*
X154783430Y-89193326D01*
X154816915Y-89254649D01*
X154811931Y-89324341D01*
X154770059Y-89380274D01*
X154739083Y-89397189D01*
X154607669Y-89446203D01*
X154607664Y-89446206D01*
X154492455Y-89532452D01*
X154492452Y-89532455D01*
X154406206Y-89647664D01*
X154406202Y-89647671D01*
X154355908Y-89782517D01*
X154349501Y-89842116D01*
X154349500Y-89842135D01*
X154349500Y-91637870D01*
X154349501Y-91637876D01*
X154355908Y-91697483D01*
X154406202Y-91832328D01*
X154406206Y-91832335D01*
X154492452Y-91947544D01*
X154492455Y-91947547D01*
X154607664Y-92033793D01*
X154607671Y-92033797D01*
X154742517Y-92084091D01*
X154742516Y-92084091D01*
X154749444Y-92084835D01*
X154802127Y-92090500D01*
X156597872Y-92090499D01*
X156657483Y-92084091D01*
X156792331Y-92033796D01*
X156907546Y-91947546D01*
X156993796Y-91832331D01*
X157042810Y-91700916D01*
X157084681Y-91644984D01*
X157150145Y-91620566D01*
X157218418Y-91635417D01*
X157246673Y-91656569D01*
X157360213Y-91770109D01*
X157532179Y-91895048D01*
X157532181Y-91895049D01*
X157532184Y-91895051D01*
X157721588Y-91991557D01*
X157923757Y-92057246D01*
X158133713Y-92090500D01*
X158133714Y-92090500D01*
X158346286Y-92090500D01*
X158346287Y-92090500D01*
X158556243Y-92057246D01*
X158758412Y-91991557D01*
X158947816Y-91895051D01*
X158969789Y-91879086D01*
X159119786Y-91770109D01*
X159119788Y-91770106D01*
X159119792Y-91770104D01*
X159270104Y-91619792D01*
X159270106Y-91619788D01*
X159270109Y-91619786D01*
X159337515Y-91527007D01*
X159395051Y-91447816D01*
X159399793Y-91438508D01*
X159447763Y-91387711D01*
X159515583Y-91370911D01*
X159581719Y-91393445D01*
X159620763Y-91438500D01*
X159625377Y-91447555D01*
X159750272Y-91619459D01*
X159750276Y-91619464D01*
X159900535Y-91769723D01*
X159900540Y-91769727D01*
X160072442Y-91894620D01*
X160261782Y-91991095D01*
X160463871Y-92056757D01*
X160530000Y-92067231D01*
X160530000Y-91173012D01*
X160587007Y-91205925D01*
X160714174Y-91240000D01*
X160845826Y-91240000D01*
X160972993Y-91205925D01*
X161030000Y-91173012D01*
X161030000Y-92067230D01*
X161096126Y-92056757D01*
X161096129Y-92056757D01*
X161298217Y-91991095D01*
X161487557Y-91894620D01*
X161659459Y-91769727D01*
X161659464Y-91769723D01*
X161809723Y-91619464D01*
X161809727Y-91619459D01*
X161934620Y-91447558D01*
X161939232Y-91438507D01*
X161987205Y-91387709D01*
X162055025Y-91370912D01*
X162121161Y-91393447D01*
X162160204Y-91438504D01*
X162164949Y-91447817D01*
X162289890Y-91619786D01*
X162440213Y-91770109D01*
X162612179Y-91895048D01*
X162612181Y-91895049D01*
X162612184Y-91895051D01*
X162801588Y-91991557D01*
X163003757Y-92057246D01*
X163213713Y-92090500D01*
X163213714Y-92090500D01*
X163426286Y-92090500D01*
X163426287Y-92090500D01*
X163636243Y-92057246D01*
X163838412Y-91991557D01*
X164027816Y-91895051D01*
X164049789Y-91879086D01*
X164199786Y-91770109D01*
X164199788Y-91770106D01*
X164199792Y-91770104D01*
X164350104Y-91619792D01*
X164350106Y-91619788D01*
X164350109Y-91619786D01*
X164475048Y-91447820D01*
X164475047Y-91447820D01*
X164475051Y-91447816D01*
X164571557Y-91258412D01*
X164637246Y-91056243D01*
X164670500Y-90846287D01*
X164670500Y-90633713D01*
X164637246Y-90423757D01*
X164571557Y-90221588D01*
X164475051Y-90032184D01*
X164475049Y-90032181D01*
X164475048Y-90032179D01*
X164350109Y-89860213D01*
X164199786Y-89709890D01*
X164027820Y-89584951D01*
X164019600Y-89580763D01*
X164019054Y-89580485D01*
X163968259Y-89532512D01*
X163951463Y-89464692D01*
X163973999Y-89398556D01*
X164019054Y-89359515D01*
X164027816Y-89355051D01*
X164117554Y-89289853D01*
X164199786Y-89230109D01*
X164199788Y-89230106D01*
X164199792Y-89230104D01*
X164350104Y-89079792D01*
X164350106Y-89079788D01*
X164350109Y-89079786D01*
X164475048Y-88907820D01*
X164475047Y-88907820D01*
X164475051Y-88907816D01*
X164571557Y-88718412D01*
X164637246Y-88516243D01*
X164670500Y-88306287D01*
X164670500Y-88093713D01*
X164637246Y-87883757D01*
X164571557Y-87681588D01*
X164475051Y-87492184D01*
X164475049Y-87492181D01*
X164475048Y-87492179D01*
X164350109Y-87320213D01*
X164199786Y-87169890D01*
X164027820Y-87044951D01*
X163838414Y-86948444D01*
X163838413Y-86948443D01*
X163838412Y-86948443D01*
X163636243Y-86882754D01*
X163636241Y-86882753D01*
X163636240Y-86882753D01*
X163474957Y-86857208D01*
X163426287Y-86849500D01*
X163213713Y-86849500D01*
X163165042Y-86857208D01*
X163003760Y-86882753D01*
X162801585Y-86948444D01*
X162612179Y-87044951D01*
X162440213Y-87169890D01*
X162289890Y-87320213D01*
X162164949Y-87492182D01*
X162160484Y-87500946D01*
X162112509Y-87551742D01*
X162044688Y-87568536D01*
X161978553Y-87545998D01*
X161939516Y-87500946D01*
X161935050Y-87492182D01*
X161810109Y-87320213D01*
X161659786Y-87169890D01*
X161487820Y-87044951D01*
X161298414Y-86948444D01*
X161298413Y-86948443D01*
X161298412Y-86948443D01*
X161096243Y-86882754D01*
X161096241Y-86882753D01*
X161096240Y-86882753D01*
X160934957Y-86857208D01*
X160886287Y-86849500D01*
X160673713Y-86849500D01*
X160625042Y-86857208D01*
X160463760Y-86882753D01*
X160261585Y-86948444D01*
X160072179Y-87044951D01*
X159900213Y-87169890D01*
X159749890Y-87320213D01*
X159624949Y-87492182D01*
X159620484Y-87500946D01*
X159572509Y-87551742D01*
X159504688Y-87568536D01*
X159438553Y-87545998D01*
X159399516Y-87500946D01*
X159395050Y-87492182D01*
X159270109Y-87320213D01*
X159119786Y-87169890D01*
X158947820Y-87044951D01*
X158758414Y-86948444D01*
X158758413Y-86948443D01*
X158758412Y-86948443D01*
X158556243Y-86882754D01*
X158556241Y-86882753D01*
X158556240Y-86882753D01*
X158394957Y-86857208D01*
X158346287Y-86849500D01*
X158133713Y-86849500D01*
X158085042Y-86857208D01*
X157923760Y-86882753D01*
X157721585Y-86948444D01*
X157532179Y-87044951D01*
X157360213Y-87169890D01*
X157209890Y-87320213D01*
X157084949Y-87492182D01*
X157080484Y-87500946D01*
X157032509Y-87551742D01*
X156964688Y-87568536D01*
X156898553Y-87545998D01*
X156859516Y-87500946D01*
X156855050Y-87492182D01*
X156730109Y-87320213D01*
X156579786Y-87169890D01*
X156407820Y-87044951D01*
X156218414Y-86948444D01*
X156218413Y-86948443D01*
X156218412Y-86948443D01*
X156016243Y-86882754D01*
X156016241Y-86882753D01*
X156016240Y-86882753D01*
X155854957Y-86857208D01*
X155806287Y-86849500D01*
X155593713Y-86849500D01*
X155565006Y-86854046D01*
X155383757Y-86882753D01*
X155341473Y-86896492D01*
X155271632Y-86898486D01*
X155215476Y-86866241D01*
X151636819Y-83287583D01*
X151603334Y-83226260D01*
X151600500Y-83199902D01*
X151600500Y-79079765D01*
X151620185Y-79012726D01*
X151621398Y-79010874D01*
X151709390Y-78879185D01*
X151709390Y-78879184D01*
X151709394Y-78879179D01*
X151769737Y-78733497D01*
X151800500Y-78578842D01*
X151800500Y-78421158D01*
X151800500Y-78421155D01*
X151800499Y-78421153D01*
X151769738Y-78266510D01*
X151769737Y-78266503D01*
X151769735Y-78266498D01*
X151709397Y-78120827D01*
X151709390Y-78120814D01*
X151621789Y-77989711D01*
X151621786Y-77989707D01*
X151510292Y-77878213D01*
X151510288Y-77878210D01*
X151379185Y-77790609D01*
X151379172Y-77790602D01*
X151233501Y-77730264D01*
X151233489Y-77730261D01*
X151078845Y-77699500D01*
X151078842Y-77699500D01*
X150921158Y-77699500D01*
X150921155Y-77699500D01*
X150766510Y-77730261D01*
X150766498Y-77730264D01*
X150620827Y-77790602D01*
X150620814Y-77790609D01*
X150489711Y-77878210D01*
X150489707Y-77878213D01*
X150378213Y-77989707D01*
X150378210Y-77989711D01*
X150290609Y-78120814D01*
X150290602Y-78120827D01*
X150230264Y-78266498D01*
X150230261Y-78266510D01*
X150199500Y-78421153D01*
X143250500Y-78421153D01*
X143250500Y-75901577D01*
X157249500Y-75901577D01*
X157249500Y-76098422D01*
X157280290Y-76292826D01*
X157341117Y-76480029D01*
X157430476Y-76655405D01*
X157546172Y-76814646D01*
X157685354Y-76953828D01*
X157844595Y-77069524D01*
X157927455Y-77111743D01*
X158019970Y-77158882D01*
X158019972Y-77158882D01*
X158019975Y-77158884D01*
X158120317Y-77191487D01*
X158207173Y-77219709D01*
X158401578Y-77250500D01*
X158401583Y-77250500D01*
X158598422Y-77250500D01*
X158792826Y-77219709D01*
X158980025Y-77158884D01*
X159155405Y-77069524D01*
X159314646Y-76953828D01*
X159453828Y-76814646D01*
X159569524Y-76655405D01*
X159658884Y-76480025D01*
X159701605Y-76348543D01*
X161899499Y-76348543D01*
X161937947Y-76541829D01*
X161937950Y-76541839D01*
X162013364Y-76723907D01*
X162013371Y-76723920D01*
X162122860Y-76887781D01*
X162122863Y-76887785D01*
X162262214Y-77027136D01*
X162262218Y-77027139D01*
X162426079Y-77136628D01*
X162426092Y-77136635D01*
X162608160Y-77212049D01*
X162608165Y-77212051D01*
X162608169Y-77212051D01*
X162608170Y-77212052D01*
X162801456Y-77250500D01*
X162801459Y-77250500D01*
X162998543Y-77250500D01*
X163153336Y-77219709D01*
X163191835Y-77212051D01*
X163373914Y-77136632D01*
X163537782Y-77027139D01*
X163677139Y-76887782D01*
X163786632Y-76723914D01*
X163862051Y-76541835D01*
X163900500Y-76348541D01*
X163900500Y-75651459D01*
X163900500Y-75651456D01*
X163862052Y-75458170D01*
X163862051Y-75458169D01*
X163862051Y-75458165D01*
X163815009Y-75344594D01*
X163786635Y-75276092D01*
X163786628Y-75276079D01*
X163677139Y-75112218D01*
X163677136Y-75112214D01*
X163537785Y-74972863D01*
X163537781Y-74972860D01*
X163373920Y-74863371D01*
X163373907Y-74863364D01*
X163191839Y-74787950D01*
X163191829Y-74787947D01*
X162998543Y-74749500D01*
X162998541Y-74749500D01*
X162801459Y-74749500D01*
X162801457Y-74749500D01*
X162608170Y-74787947D01*
X162608160Y-74787950D01*
X162426092Y-74863364D01*
X162426079Y-74863371D01*
X162262218Y-74972860D01*
X162262214Y-74972863D01*
X162122863Y-75112214D01*
X162122860Y-75112218D01*
X162013371Y-75276079D01*
X162013364Y-75276092D01*
X161937950Y-75458160D01*
X161937947Y-75458170D01*
X161899500Y-75651456D01*
X161899500Y-75651459D01*
X161899500Y-76348541D01*
X161899500Y-76348543D01*
X161899499Y-76348543D01*
X159701605Y-76348543D01*
X159719709Y-76292826D01*
X159750500Y-76098422D01*
X159750500Y-75901577D01*
X159732586Y-75788483D01*
X159719709Y-75707174D01*
X159719707Y-75707169D01*
X159719707Y-75707166D01*
X159712081Y-75683696D01*
X159712077Y-75683686D01*
X159701605Y-75651456D01*
X159658884Y-75519975D01*
X159569524Y-75344595D01*
X159453828Y-75185354D01*
X159314646Y-75046172D01*
X159155405Y-74930476D01*
X158980029Y-74841117D01*
X158792826Y-74780290D01*
X158598422Y-74749500D01*
X158598417Y-74749500D01*
X158401583Y-74749500D01*
X158401578Y-74749500D01*
X158207173Y-74780290D01*
X158019970Y-74841117D01*
X157844594Y-74930476D01*
X157753741Y-74996485D01*
X157685354Y-75046172D01*
X157685352Y-75046174D01*
X157685351Y-75046174D01*
X157546174Y-75185351D01*
X157546174Y-75185352D01*
X157546172Y-75185354D01*
X157496485Y-75253741D01*
X157430476Y-75344594D01*
X157341117Y-75519970D01*
X157280290Y-75707173D01*
X157249500Y-75901577D01*
X143250500Y-75901577D01*
X143250500Y-68374500D01*
X143270185Y-68307461D01*
X143322989Y-68261706D01*
X143374500Y-68250500D01*
X166625500Y-68250500D01*
X166692539Y-68270185D01*
G37*
%TD.AperFunction*%
%TD*%
M02*
