%TF.GenerationSoftware,KiCad,Pcbnew,8.0.7*%
%TF.CreationDate,2025-01-11T16:41:09-06:00*%
%TF.ProjectId,ptSolar,7074536f-6c61-4722-9e6b-696361645f70,rev?*%
%TF.SameCoordinates,Original*%
%TF.FileFunction,Legend,Top*%
%TF.FilePolarity,Positive*%
%FSLAX46Y46*%
G04 Gerber Fmt 4.6, Leading zero omitted, Abs format (unit mm)*
G04 Created by KiCad (PCBNEW 8.0.7) date 2025-01-11 16:41:09*
%MOMM*%
%LPD*%
G01*
G04 APERTURE LIST*
%ADD10C,0.300000*%
%ADD11C,0.150000*%
%ADD12C,0.100000*%
%ADD13C,0.120000*%
G04 APERTURE END LIST*
D10*
X164650000Y-98500000D02*
G75*
G02*
X164350000Y-98500000I-150000J0D01*
G01*
X164350000Y-98500000D02*
G75*
G02*
X164650000Y-98500000I150000J0D01*
G01*
D11*
X161289160Y-124822200D02*
X161432017Y-124869819D01*
X161432017Y-124869819D02*
X161670112Y-124869819D01*
X161670112Y-124869819D02*
X161765350Y-124822200D01*
X161765350Y-124822200D02*
X161812969Y-124774580D01*
X161812969Y-124774580D02*
X161860588Y-124679342D01*
X161860588Y-124679342D02*
X161860588Y-124584104D01*
X161860588Y-124584104D02*
X161812969Y-124488866D01*
X161812969Y-124488866D02*
X161765350Y-124441247D01*
X161765350Y-124441247D02*
X161670112Y-124393628D01*
X161670112Y-124393628D02*
X161479636Y-124346009D01*
X161479636Y-124346009D02*
X161384398Y-124298390D01*
X161384398Y-124298390D02*
X161336779Y-124250771D01*
X161336779Y-124250771D02*
X161289160Y-124155533D01*
X161289160Y-124155533D02*
X161289160Y-124060295D01*
X161289160Y-124060295D02*
X161336779Y-123965057D01*
X161336779Y-123965057D02*
X161384398Y-123917438D01*
X161384398Y-123917438D02*
X161479636Y-123869819D01*
X161479636Y-123869819D02*
X161717731Y-123869819D01*
X161717731Y-123869819D02*
X161860588Y-123917438D01*
X162146303Y-124203152D02*
X162527255Y-124203152D01*
X162289160Y-123869819D02*
X162289160Y-124726961D01*
X162289160Y-124726961D02*
X162336779Y-124822200D01*
X162336779Y-124822200D02*
X162432017Y-124869819D01*
X162432017Y-124869819D02*
X162527255Y-124869819D01*
X163289160Y-124869819D02*
X163289160Y-124346009D01*
X163289160Y-124346009D02*
X163241541Y-124250771D01*
X163241541Y-124250771D02*
X163146303Y-124203152D01*
X163146303Y-124203152D02*
X162955827Y-124203152D01*
X162955827Y-124203152D02*
X162860589Y-124250771D01*
X163289160Y-124822200D02*
X163193922Y-124869819D01*
X163193922Y-124869819D02*
X162955827Y-124869819D01*
X162955827Y-124869819D02*
X162860589Y-124822200D01*
X162860589Y-124822200D02*
X162812970Y-124726961D01*
X162812970Y-124726961D02*
X162812970Y-124631723D01*
X162812970Y-124631723D02*
X162860589Y-124536485D01*
X162860589Y-124536485D02*
X162955827Y-124488866D01*
X162955827Y-124488866D02*
X163193922Y-124488866D01*
X163193922Y-124488866D02*
X163289160Y-124441247D01*
X163622494Y-124203152D02*
X164003446Y-124203152D01*
X163765351Y-123869819D02*
X163765351Y-124726961D01*
X163765351Y-124726961D02*
X163812970Y-124822200D01*
X163812970Y-124822200D02*
X163908208Y-124869819D01*
X163908208Y-124869819D02*
X164003446Y-124869819D01*
X164765351Y-124203152D02*
X164765351Y-124869819D01*
X164336780Y-124203152D02*
X164336780Y-124726961D01*
X164336780Y-124726961D02*
X164384399Y-124822200D01*
X164384399Y-124822200D02*
X164479637Y-124869819D01*
X164479637Y-124869819D02*
X164622494Y-124869819D01*
X164622494Y-124869819D02*
X164717732Y-124822200D01*
X164717732Y-124822200D02*
X164765351Y-124774580D01*
X165193923Y-124822200D02*
X165289161Y-124869819D01*
X165289161Y-124869819D02*
X165479637Y-124869819D01*
X165479637Y-124869819D02*
X165574875Y-124822200D01*
X165574875Y-124822200D02*
X165622494Y-124726961D01*
X165622494Y-124726961D02*
X165622494Y-124679342D01*
X165622494Y-124679342D02*
X165574875Y-124584104D01*
X165574875Y-124584104D02*
X165479637Y-124536485D01*
X165479637Y-124536485D02*
X165336780Y-124536485D01*
X165336780Y-124536485D02*
X165241542Y-124488866D01*
X165241542Y-124488866D02*
X165193923Y-124393628D01*
X165193923Y-124393628D02*
X165193923Y-124346009D01*
X165193923Y-124346009D02*
X165241542Y-124250771D01*
X165241542Y-124250771D02*
X165336780Y-124203152D01*
X165336780Y-124203152D02*
X165479637Y-124203152D01*
X165479637Y-124203152D02*
X165574875Y-124250771D01*
X147741541Y-97369819D02*
X148408207Y-98369819D01*
X148408207Y-97369819D02*
X147741541Y-98369819D01*
X148789160Y-98369819D02*
X148789160Y-97703152D01*
X148789160Y-97798390D02*
X148836779Y-97750771D01*
X148836779Y-97750771D02*
X148932017Y-97703152D01*
X148932017Y-97703152D02*
X149074874Y-97703152D01*
X149074874Y-97703152D02*
X149170112Y-97750771D01*
X149170112Y-97750771D02*
X149217731Y-97846009D01*
X149217731Y-97846009D02*
X149217731Y-98369819D01*
X149217731Y-97846009D02*
X149265350Y-97750771D01*
X149265350Y-97750771D02*
X149360588Y-97703152D01*
X149360588Y-97703152D02*
X149503445Y-97703152D01*
X149503445Y-97703152D02*
X149598684Y-97750771D01*
X149598684Y-97750771D02*
X149646303Y-97846009D01*
X149646303Y-97846009D02*
X149646303Y-98369819D01*
X150122493Y-98369819D02*
X150122493Y-97703152D01*
X150122493Y-97369819D02*
X150074874Y-97417438D01*
X150074874Y-97417438D02*
X150122493Y-97465057D01*
X150122493Y-97465057D02*
X150170112Y-97417438D01*
X150170112Y-97417438D02*
X150122493Y-97369819D01*
X150122493Y-97369819D02*
X150122493Y-97465057D01*
X150455826Y-97703152D02*
X150836778Y-97703152D01*
X150598683Y-97369819D02*
X150598683Y-98226961D01*
X150598683Y-98226961D02*
X150646302Y-98322200D01*
X150646302Y-98322200D02*
X150741540Y-98369819D01*
X150741540Y-98369819D02*
X150836778Y-98369819D01*
X141836779Y-87236569D02*
X141836779Y-86236569D01*
X141836779Y-86236569D02*
X142217731Y-86236569D01*
X142217731Y-86236569D02*
X142312969Y-86284188D01*
X142312969Y-86284188D02*
X142360588Y-86331807D01*
X142360588Y-86331807D02*
X142408207Y-86427045D01*
X142408207Y-86427045D02*
X142408207Y-86569902D01*
X142408207Y-86569902D02*
X142360588Y-86665140D01*
X142360588Y-86665140D02*
X142312969Y-86712759D01*
X142312969Y-86712759D02*
X142217731Y-86760378D01*
X142217731Y-86760378D02*
X141836779Y-86760378D01*
X142741541Y-86569902D02*
X142932017Y-87236569D01*
X142932017Y-87236569D02*
X143122493Y-86760378D01*
X143122493Y-86760378D02*
X143312969Y-87236569D01*
X143312969Y-87236569D02*
X143503445Y-86569902D01*
X143884398Y-87236569D02*
X143884398Y-86569902D01*
X143884398Y-86760378D02*
X143932017Y-86665140D01*
X143932017Y-86665140D02*
X143979636Y-86617521D01*
X143979636Y-86617521D02*
X144074874Y-86569902D01*
X144074874Y-86569902D02*
X144170112Y-86569902D01*
X131086779Y-135738866D02*
X131848684Y-135738866D01*
X131086779Y-73738866D02*
X131848684Y-73738866D01*
X131467731Y-74119819D02*
X131467731Y-73357914D01*
X140130952Y-135419104D02*
X140607142Y-135419104D01*
X140035714Y-135704819D02*
X140369047Y-134704819D01*
X140369047Y-134704819D02*
X140702380Y-135704819D01*
X141035714Y-135704819D02*
X141035714Y-134704819D01*
X141035714Y-134704819D02*
X141607142Y-135704819D01*
X141607142Y-135704819D02*
X141607142Y-134704819D01*
X141940476Y-134704819D02*
X142511904Y-134704819D01*
X142226190Y-135704819D02*
X142226190Y-134704819D01*
X143369047Y-135704819D02*
X142797619Y-135704819D01*
X143083333Y-135704819D02*
X143083333Y-134704819D01*
X143083333Y-134704819D02*
X142988095Y-134847676D01*
X142988095Y-134847676D02*
X142892857Y-134942914D01*
X142892857Y-134942914D02*
X142797619Y-134990533D01*
X160543333Y-132704819D02*
X160210000Y-132228628D01*
X159971905Y-132704819D02*
X159971905Y-131704819D01*
X159971905Y-131704819D02*
X160352857Y-131704819D01*
X160352857Y-131704819D02*
X160448095Y-131752438D01*
X160448095Y-131752438D02*
X160495714Y-131800057D01*
X160495714Y-131800057D02*
X160543333Y-131895295D01*
X160543333Y-131895295D02*
X160543333Y-132038152D01*
X160543333Y-132038152D02*
X160495714Y-132133390D01*
X160495714Y-132133390D02*
X160448095Y-132181009D01*
X160448095Y-132181009D02*
X160352857Y-132228628D01*
X160352857Y-132228628D02*
X159971905Y-132228628D01*
X161400476Y-131704819D02*
X161210000Y-131704819D01*
X161210000Y-131704819D02*
X161114762Y-131752438D01*
X161114762Y-131752438D02*
X161067143Y-131800057D01*
X161067143Y-131800057D02*
X160971905Y-131942914D01*
X160971905Y-131942914D02*
X160924286Y-132133390D01*
X160924286Y-132133390D02*
X160924286Y-132514342D01*
X160924286Y-132514342D02*
X160971905Y-132609580D01*
X160971905Y-132609580D02*
X161019524Y-132657200D01*
X161019524Y-132657200D02*
X161114762Y-132704819D01*
X161114762Y-132704819D02*
X161305238Y-132704819D01*
X161305238Y-132704819D02*
X161400476Y-132657200D01*
X161400476Y-132657200D02*
X161448095Y-132609580D01*
X161448095Y-132609580D02*
X161495714Y-132514342D01*
X161495714Y-132514342D02*
X161495714Y-132276247D01*
X161495714Y-132276247D02*
X161448095Y-132181009D01*
X161448095Y-132181009D02*
X161400476Y-132133390D01*
X161400476Y-132133390D02*
X161305238Y-132085771D01*
X161305238Y-132085771D02*
X161114762Y-132085771D01*
X161114762Y-132085771D02*
X161019524Y-132133390D01*
X161019524Y-132133390D02*
X160971905Y-132181009D01*
X160971905Y-132181009D02*
X160924286Y-132276247D01*
X158954819Y-103833333D02*
X159669104Y-103833333D01*
X159669104Y-103833333D02*
X159811961Y-103880952D01*
X159811961Y-103880952D02*
X159907200Y-103976190D01*
X159907200Y-103976190D02*
X159954819Y-104119047D01*
X159954819Y-104119047D02*
X159954819Y-104214285D01*
X158954819Y-102880952D02*
X158954819Y-103357142D01*
X158954819Y-103357142D02*
X159431009Y-103404761D01*
X159431009Y-103404761D02*
X159383390Y-103357142D01*
X159383390Y-103357142D02*
X159335771Y-103261904D01*
X159335771Y-103261904D02*
X159335771Y-103023809D01*
X159335771Y-103023809D02*
X159383390Y-102928571D01*
X159383390Y-102928571D02*
X159431009Y-102880952D01*
X159431009Y-102880952D02*
X159526247Y-102833333D01*
X159526247Y-102833333D02*
X159764342Y-102833333D01*
X159764342Y-102833333D02*
X159859580Y-102880952D01*
X159859580Y-102880952D02*
X159907200Y-102928571D01*
X159907200Y-102928571D02*
X159954819Y-103023809D01*
X159954819Y-103023809D02*
X159954819Y-103261904D01*
X159954819Y-103261904D02*
X159907200Y-103357142D01*
X159907200Y-103357142D02*
X159859580Y-103404761D01*
X163202381Y-109550057D02*
X163107143Y-109502438D01*
X163107143Y-109502438D02*
X163011905Y-109407200D01*
X163011905Y-109407200D02*
X162869048Y-109264342D01*
X162869048Y-109264342D02*
X162773810Y-109216723D01*
X162773810Y-109216723D02*
X162678572Y-109216723D01*
X162726191Y-109454819D02*
X162630953Y-109407200D01*
X162630953Y-109407200D02*
X162535715Y-109311961D01*
X162535715Y-109311961D02*
X162488096Y-109121485D01*
X162488096Y-109121485D02*
X162488096Y-108788152D01*
X162488096Y-108788152D02*
X162535715Y-108597676D01*
X162535715Y-108597676D02*
X162630953Y-108502438D01*
X162630953Y-108502438D02*
X162726191Y-108454819D01*
X162726191Y-108454819D02*
X162916667Y-108454819D01*
X162916667Y-108454819D02*
X163011905Y-108502438D01*
X163011905Y-108502438D02*
X163107143Y-108597676D01*
X163107143Y-108597676D02*
X163154762Y-108788152D01*
X163154762Y-108788152D02*
X163154762Y-109121485D01*
X163154762Y-109121485D02*
X163107143Y-109311961D01*
X163107143Y-109311961D02*
X163011905Y-109407200D01*
X163011905Y-109407200D02*
X162916667Y-109454819D01*
X162916667Y-109454819D02*
X162726191Y-109454819D01*
X163488096Y-108788152D02*
X163678572Y-109454819D01*
X163678572Y-109454819D02*
X163869048Y-108978628D01*
X163869048Y-108978628D02*
X164059524Y-109454819D01*
X164059524Y-109454819D02*
X164250000Y-108788152D01*
X164630953Y-109454819D02*
X164630953Y-108788152D01*
X164630953Y-108454819D02*
X164583334Y-108502438D01*
X164583334Y-108502438D02*
X164630953Y-108550057D01*
X164630953Y-108550057D02*
X164678572Y-108502438D01*
X164678572Y-108502438D02*
X164630953Y-108454819D01*
X164630953Y-108454819D02*
X164630953Y-108550057D01*
X165107143Y-109454819D02*
X165107143Y-108788152D01*
X165107143Y-108454819D02*
X165059524Y-108502438D01*
X165059524Y-108502438D02*
X165107143Y-108550057D01*
X165107143Y-108550057D02*
X165154762Y-108502438D01*
X165154762Y-108502438D02*
X165107143Y-108454819D01*
X165107143Y-108454819D02*
X165107143Y-108550057D01*
X166011904Y-109407200D02*
X165916666Y-109454819D01*
X165916666Y-109454819D02*
X165726190Y-109454819D01*
X165726190Y-109454819D02*
X165630952Y-109407200D01*
X165630952Y-109407200D02*
X165583333Y-109359580D01*
X165583333Y-109359580D02*
X165535714Y-109264342D01*
X165535714Y-109264342D02*
X165535714Y-108978628D01*
X165535714Y-108978628D02*
X165583333Y-108883390D01*
X165583333Y-108883390D02*
X165630952Y-108835771D01*
X165630952Y-108835771D02*
X165726190Y-108788152D01*
X165726190Y-108788152D02*
X165916666Y-108788152D01*
X165916666Y-108788152D02*
X166011904Y-108835771D01*
X141107142Y-88609580D02*
X141059523Y-88657200D01*
X141059523Y-88657200D02*
X140916666Y-88704819D01*
X140916666Y-88704819D02*
X140821428Y-88704819D01*
X140821428Y-88704819D02*
X140678571Y-88657200D01*
X140678571Y-88657200D02*
X140583333Y-88561961D01*
X140583333Y-88561961D02*
X140535714Y-88466723D01*
X140535714Y-88466723D02*
X140488095Y-88276247D01*
X140488095Y-88276247D02*
X140488095Y-88133390D01*
X140488095Y-88133390D02*
X140535714Y-87942914D01*
X140535714Y-87942914D02*
X140583333Y-87847676D01*
X140583333Y-87847676D02*
X140678571Y-87752438D01*
X140678571Y-87752438D02*
X140821428Y-87704819D01*
X140821428Y-87704819D02*
X140916666Y-87704819D01*
X140916666Y-87704819D02*
X141059523Y-87752438D01*
X141059523Y-87752438D02*
X141107142Y-87800057D01*
X142059523Y-88704819D02*
X141488095Y-88704819D01*
X141773809Y-88704819D02*
X141773809Y-87704819D01*
X141773809Y-87704819D02*
X141678571Y-87847676D01*
X141678571Y-87847676D02*
X141583333Y-87942914D01*
X141583333Y-87942914D02*
X141488095Y-87990533D01*
X143011904Y-88704819D02*
X142440476Y-88704819D01*
X142726190Y-88704819D02*
X142726190Y-87704819D01*
X142726190Y-87704819D02*
X142630952Y-87847676D01*
X142630952Y-87847676D02*
X142535714Y-87942914D01*
X142535714Y-87942914D02*
X142440476Y-87990533D01*
X151261905Y-96454819D02*
X151261905Y-95454819D01*
X151261905Y-95454819D02*
X151500000Y-95454819D01*
X151500000Y-95454819D02*
X151642857Y-95502438D01*
X151642857Y-95502438D02*
X151738095Y-95597676D01*
X151738095Y-95597676D02*
X151785714Y-95692914D01*
X151785714Y-95692914D02*
X151833333Y-95883390D01*
X151833333Y-95883390D02*
X151833333Y-96026247D01*
X151833333Y-96026247D02*
X151785714Y-96216723D01*
X151785714Y-96216723D02*
X151738095Y-96311961D01*
X151738095Y-96311961D02*
X151642857Y-96407200D01*
X151642857Y-96407200D02*
X151500000Y-96454819D01*
X151500000Y-96454819D02*
X151261905Y-96454819D01*
X152214286Y-95550057D02*
X152261905Y-95502438D01*
X152261905Y-95502438D02*
X152357143Y-95454819D01*
X152357143Y-95454819D02*
X152595238Y-95454819D01*
X152595238Y-95454819D02*
X152690476Y-95502438D01*
X152690476Y-95502438D02*
X152738095Y-95550057D01*
X152738095Y-95550057D02*
X152785714Y-95645295D01*
X152785714Y-95645295D02*
X152785714Y-95740533D01*
X152785714Y-95740533D02*
X152738095Y-95883390D01*
X152738095Y-95883390D02*
X152166667Y-96454819D01*
X152166667Y-96454819D02*
X152785714Y-96454819D01*
X158157142Y-92609580D02*
X158109523Y-92657200D01*
X158109523Y-92657200D02*
X157966666Y-92704819D01*
X157966666Y-92704819D02*
X157871428Y-92704819D01*
X157871428Y-92704819D02*
X157728571Y-92657200D01*
X157728571Y-92657200D02*
X157633333Y-92561961D01*
X157633333Y-92561961D02*
X157585714Y-92466723D01*
X157585714Y-92466723D02*
X157538095Y-92276247D01*
X157538095Y-92276247D02*
X157538095Y-92133390D01*
X157538095Y-92133390D02*
X157585714Y-91942914D01*
X157585714Y-91942914D02*
X157633333Y-91847676D01*
X157633333Y-91847676D02*
X157728571Y-91752438D01*
X157728571Y-91752438D02*
X157871428Y-91704819D01*
X157871428Y-91704819D02*
X157966666Y-91704819D01*
X157966666Y-91704819D02*
X158109523Y-91752438D01*
X158109523Y-91752438D02*
X158157142Y-91800057D01*
X159109523Y-92704819D02*
X158538095Y-92704819D01*
X158823809Y-92704819D02*
X158823809Y-91704819D01*
X158823809Y-91704819D02*
X158728571Y-91847676D01*
X158728571Y-91847676D02*
X158633333Y-91942914D01*
X158633333Y-91942914D02*
X158538095Y-91990533D01*
X159966666Y-91704819D02*
X159776190Y-91704819D01*
X159776190Y-91704819D02*
X159680952Y-91752438D01*
X159680952Y-91752438D02*
X159633333Y-91800057D01*
X159633333Y-91800057D02*
X159538095Y-91942914D01*
X159538095Y-91942914D02*
X159490476Y-92133390D01*
X159490476Y-92133390D02*
X159490476Y-92514342D01*
X159490476Y-92514342D02*
X159538095Y-92609580D01*
X159538095Y-92609580D02*
X159585714Y-92657200D01*
X159585714Y-92657200D02*
X159680952Y-92704819D01*
X159680952Y-92704819D02*
X159871428Y-92704819D01*
X159871428Y-92704819D02*
X159966666Y-92657200D01*
X159966666Y-92657200D02*
X160014285Y-92609580D01*
X160014285Y-92609580D02*
X160061904Y-92514342D01*
X160061904Y-92514342D02*
X160061904Y-92276247D01*
X160061904Y-92276247D02*
X160014285Y-92181009D01*
X160014285Y-92181009D02*
X159966666Y-92133390D01*
X159966666Y-92133390D02*
X159871428Y-92085771D01*
X159871428Y-92085771D02*
X159680952Y-92085771D01*
X159680952Y-92085771D02*
X159585714Y-92133390D01*
X159585714Y-92133390D02*
X159538095Y-92181009D01*
X159538095Y-92181009D02*
X159490476Y-92276247D01*
X135454819Y-96261904D02*
X136264342Y-96261904D01*
X136264342Y-96261904D02*
X136359580Y-96214285D01*
X136359580Y-96214285D02*
X136407200Y-96166666D01*
X136407200Y-96166666D02*
X136454819Y-96071428D01*
X136454819Y-96071428D02*
X136454819Y-95880952D01*
X136454819Y-95880952D02*
X136407200Y-95785714D01*
X136407200Y-95785714D02*
X136359580Y-95738095D01*
X136359580Y-95738095D02*
X136264342Y-95690476D01*
X136264342Y-95690476D02*
X135454819Y-95690476D01*
X135454819Y-95309523D02*
X135454819Y-94690476D01*
X135454819Y-94690476D02*
X135835771Y-95023809D01*
X135835771Y-95023809D02*
X135835771Y-94880952D01*
X135835771Y-94880952D02*
X135883390Y-94785714D01*
X135883390Y-94785714D02*
X135931009Y-94738095D01*
X135931009Y-94738095D02*
X136026247Y-94690476D01*
X136026247Y-94690476D02*
X136264342Y-94690476D01*
X136264342Y-94690476D02*
X136359580Y-94738095D01*
X136359580Y-94738095D02*
X136407200Y-94785714D01*
X136407200Y-94785714D02*
X136454819Y-94880952D01*
X136454819Y-94880952D02*
X136454819Y-95166666D01*
X136454819Y-95166666D02*
X136407200Y-95261904D01*
X136407200Y-95261904D02*
X136359580Y-95309523D01*
X159857142Y-112859580D02*
X159809523Y-112907200D01*
X159809523Y-112907200D02*
X159666666Y-112954819D01*
X159666666Y-112954819D02*
X159571428Y-112954819D01*
X159571428Y-112954819D02*
X159428571Y-112907200D01*
X159428571Y-112907200D02*
X159333333Y-112811961D01*
X159333333Y-112811961D02*
X159285714Y-112716723D01*
X159285714Y-112716723D02*
X159238095Y-112526247D01*
X159238095Y-112526247D02*
X159238095Y-112383390D01*
X159238095Y-112383390D02*
X159285714Y-112192914D01*
X159285714Y-112192914D02*
X159333333Y-112097676D01*
X159333333Y-112097676D02*
X159428571Y-112002438D01*
X159428571Y-112002438D02*
X159571428Y-111954819D01*
X159571428Y-111954819D02*
X159666666Y-111954819D01*
X159666666Y-111954819D02*
X159809523Y-112002438D01*
X159809523Y-112002438D02*
X159857142Y-112050057D01*
X160809523Y-112954819D02*
X160238095Y-112954819D01*
X160523809Y-112954819D02*
X160523809Y-111954819D01*
X160523809Y-111954819D02*
X160428571Y-112097676D01*
X160428571Y-112097676D02*
X160333333Y-112192914D01*
X160333333Y-112192914D02*
X160238095Y-112240533D01*
X161142857Y-111954819D02*
X161761904Y-111954819D01*
X161761904Y-111954819D02*
X161428571Y-112335771D01*
X161428571Y-112335771D02*
X161571428Y-112335771D01*
X161571428Y-112335771D02*
X161666666Y-112383390D01*
X161666666Y-112383390D02*
X161714285Y-112431009D01*
X161714285Y-112431009D02*
X161761904Y-112526247D01*
X161761904Y-112526247D02*
X161761904Y-112764342D01*
X161761904Y-112764342D02*
X161714285Y-112859580D01*
X161714285Y-112859580D02*
X161666666Y-112907200D01*
X161666666Y-112907200D02*
X161571428Y-112954819D01*
X161571428Y-112954819D02*
X161285714Y-112954819D01*
X161285714Y-112954819D02*
X161190476Y-112907200D01*
X161190476Y-112907200D02*
X161142857Y-112859580D01*
X153278095Y-96514819D02*
X153278095Y-97324342D01*
X153278095Y-97324342D02*
X153325714Y-97419580D01*
X153325714Y-97419580D02*
X153373333Y-97467200D01*
X153373333Y-97467200D02*
X153468571Y-97514819D01*
X153468571Y-97514819D02*
X153659047Y-97514819D01*
X153659047Y-97514819D02*
X153754285Y-97467200D01*
X153754285Y-97467200D02*
X153801904Y-97419580D01*
X153801904Y-97419580D02*
X153849523Y-97324342D01*
X153849523Y-97324342D02*
X153849523Y-96514819D01*
X154754285Y-96848152D02*
X154754285Y-97514819D01*
X154516190Y-96467200D02*
X154278095Y-97181485D01*
X154278095Y-97181485D02*
X154897142Y-97181485D01*
X151619047Y-102431009D02*
X151761904Y-102478628D01*
X151761904Y-102478628D02*
X151809523Y-102526247D01*
X151809523Y-102526247D02*
X151857142Y-102621485D01*
X151857142Y-102621485D02*
X151857142Y-102764342D01*
X151857142Y-102764342D02*
X151809523Y-102859580D01*
X151809523Y-102859580D02*
X151761904Y-102907200D01*
X151761904Y-102907200D02*
X151666666Y-102954819D01*
X151666666Y-102954819D02*
X151285714Y-102954819D01*
X151285714Y-102954819D02*
X151285714Y-101954819D01*
X151285714Y-101954819D02*
X151619047Y-101954819D01*
X151619047Y-101954819D02*
X151714285Y-102002438D01*
X151714285Y-102002438D02*
X151761904Y-102050057D01*
X151761904Y-102050057D02*
X151809523Y-102145295D01*
X151809523Y-102145295D02*
X151809523Y-102240533D01*
X151809523Y-102240533D02*
X151761904Y-102335771D01*
X151761904Y-102335771D02*
X151714285Y-102383390D01*
X151714285Y-102383390D02*
X151619047Y-102431009D01*
X151619047Y-102431009D02*
X151285714Y-102431009D01*
X152285714Y-102954819D02*
X152285714Y-101954819D01*
X152285714Y-101954819D02*
X152619047Y-102669104D01*
X152619047Y-102669104D02*
X152952380Y-101954819D01*
X152952380Y-101954819D02*
X152952380Y-102954819D01*
X153428571Y-102431009D02*
X153761904Y-102431009D01*
X153904761Y-102954819D02*
X153428571Y-102954819D01*
X153428571Y-102954819D02*
X153428571Y-101954819D01*
X153428571Y-101954819D02*
X153904761Y-101954819D01*
X154285714Y-102050057D02*
X154333333Y-102002438D01*
X154333333Y-102002438D02*
X154428571Y-101954819D01*
X154428571Y-101954819D02*
X154666666Y-101954819D01*
X154666666Y-101954819D02*
X154761904Y-102002438D01*
X154761904Y-102002438D02*
X154809523Y-102050057D01*
X154809523Y-102050057D02*
X154857142Y-102145295D01*
X154857142Y-102145295D02*
X154857142Y-102240533D01*
X154857142Y-102240533D02*
X154809523Y-102383390D01*
X154809523Y-102383390D02*
X154238095Y-102954819D01*
X154238095Y-102954819D02*
X154857142Y-102954819D01*
X155428571Y-102383390D02*
X155333333Y-102335771D01*
X155333333Y-102335771D02*
X155285714Y-102288152D01*
X155285714Y-102288152D02*
X155238095Y-102192914D01*
X155238095Y-102192914D02*
X155238095Y-102145295D01*
X155238095Y-102145295D02*
X155285714Y-102050057D01*
X155285714Y-102050057D02*
X155333333Y-102002438D01*
X155333333Y-102002438D02*
X155428571Y-101954819D01*
X155428571Y-101954819D02*
X155619047Y-101954819D01*
X155619047Y-101954819D02*
X155714285Y-102002438D01*
X155714285Y-102002438D02*
X155761904Y-102050057D01*
X155761904Y-102050057D02*
X155809523Y-102145295D01*
X155809523Y-102145295D02*
X155809523Y-102192914D01*
X155809523Y-102192914D02*
X155761904Y-102288152D01*
X155761904Y-102288152D02*
X155714285Y-102335771D01*
X155714285Y-102335771D02*
X155619047Y-102383390D01*
X155619047Y-102383390D02*
X155428571Y-102383390D01*
X155428571Y-102383390D02*
X155333333Y-102431009D01*
X155333333Y-102431009D02*
X155285714Y-102478628D01*
X155285714Y-102478628D02*
X155238095Y-102573866D01*
X155238095Y-102573866D02*
X155238095Y-102764342D01*
X155238095Y-102764342D02*
X155285714Y-102859580D01*
X155285714Y-102859580D02*
X155333333Y-102907200D01*
X155333333Y-102907200D02*
X155428571Y-102954819D01*
X155428571Y-102954819D02*
X155619047Y-102954819D01*
X155619047Y-102954819D02*
X155714285Y-102907200D01*
X155714285Y-102907200D02*
X155761904Y-102859580D01*
X155761904Y-102859580D02*
X155809523Y-102764342D01*
X155809523Y-102764342D02*
X155809523Y-102573866D01*
X155809523Y-102573866D02*
X155761904Y-102478628D01*
X155761904Y-102478628D02*
X155714285Y-102431009D01*
X155714285Y-102431009D02*
X155619047Y-102383390D01*
X156428571Y-101954819D02*
X156523809Y-101954819D01*
X156523809Y-101954819D02*
X156619047Y-102002438D01*
X156619047Y-102002438D02*
X156666666Y-102050057D01*
X156666666Y-102050057D02*
X156714285Y-102145295D01*
X156714285Y-102145295D02*
X156761904Y-102335771D01*
X156761904Y-102335771D02*
X156761904Y-102573866D01*
X156761904Y-102573866D02*
X156714285Y-102764342D01*
X156714285Y-102764342D02*
X156666666Y-102859580D01*
X156666666Y-102859580D02*
X156619047Y-102907200D01*
X156619047Y-102907200D02*
X156523809Y-102954819D01*
X156523809Y-102954819D02*
X156428571Y-102954819D01*
X156428571Y-102954819D02*
X156333333Y-102907200D01*
X156333333Y-102907200D02*
X156285714Y-102859580D01*
X156285714Y-102859580D02*
X156238095Y-102764342D01*
X156238095Y-102764342D02*
X156190476Y-102573866D01*
X156190476Y-102573866D02*
X156190476Y-102335771D01*
X156190476Y-102335771D02*
X156238095Y-102145295D01*
X156238095Y-102145295D02*
X156285714Y-102050057D01*
X156285714Y-102050057D02*
X156333333Y-102002438D01*
X156333333Y-102002438D02*
X156428571Y-101954819D01*
X152238095Y-115954819D02*
X152238095Y-116764342D01*
X152238095Y-116764342D02*
X152285714Y-116859580D01*
X152285714Y-116859580D02*
X152333333Y-116907200D01*
X152333333Y-116907200D02*
X152428571Y-116954819D01*
X152428571Y-116954819D02*
X152619047Y-116954819D01*
X152619047Y-116954819D02*
X152714285Y-116907200D01*
X152714285Y-116907200D02*
X152761904Y-116859580D01*
X152761904Y-116859580D02*
X152809523Y-116764342D01*
X152809523Y-116764342D02*
X152809523Y-115954819D01*
X153190476Y-115954819D02*
X153857142Y-115954819D01*
X153857142Y-115954819D02*
X153428571Y-116954819D01*
X132400595Y-84354819D02*
X132400595Y-85164342D01*
X132400595Y-85164342D02*
X132448214Y-85259580D01*
X132448214Y-85259580D02*
X132495833Y-85307200D01*
X132495833Y-85307200D02*
X132591071Y-85354819D01*
X132591071Y-85354819D02*
X132781547Y-85354819D01*
X132781547Y-85354819D02*
X132876785Y-85307200D01*
X132876785Y-85307200D02*
X132924404Y-85259580D01*
X132924404Y-85259580D02*
X132972023Y-85164342D01*
X132972023Y-85164342D02*
X132972023Y-84354819D01*
X133924404Y-84354819D02*
X133448214Y-84354819D01*
X133448214Y-84354819D02*
X133400595Y-84831009D01*
X133400595Y-84831009D02*
X133448214Y-84783390D01*
X133448214Y-84783390D02*
X133543452Y-84735771D01*
X133543452Y-84735771D02*
X133781547Y-84735771D01*
X133781547Y-84735771D02*
X133876785Y-84783390D01*
X133876785Y-84783390D02*
X133924404Y-84831009D01*
X133924404Y-84831009D02*
X133972023Y-84926247D01*
X133972023Y-84926247D02*
X133972023Y-85164342D01*
X133972023Y-85164342D02*
X133924404Y-85259580D01*
X133924404Y-85259580D02*
X133876785Y-85307200D01*
X133876785Y-85307200D02*
X133781547Y-85354819D01*
X133781547Y-85354819D02*
X133543452Y-85354819D01*
X133543452Y-85354819D02*
X133448214Y-85307200D01*
X133448214Y-85307200D02*
X133400595Y-85259580D01*
X148537142Y-82124580D02*
X148489523Y-82172200D01*
X148489523Y-82172200D02*
X148346666Y-82219819D01*
X148346666Y-82219819D02*
X148251428Y-82219819D01*
X148251428Y-82219819D02*
X148108571Y-82172200D01*
X148108571Y-82172200D02*
X148013333Y-82076961D01*
X148013333Y-82076961D02*
X147965714Y-81981723D01*
X147965714Y-81981723D02*
X147918095Y-81791247D01*
X147918095Y-81791247D02*
X147918095Y-81648390D01*
X147918095Y-81648390D02*
X147965714Y-81457914D01*
X147965714Y-81457914D02*
X148013333Y-81362676D01*
X148013333Y-81362676D02*
X148108571Y-81267438D01*
X148108571Y-81267438D02*
X148251428Y-81219819D01*
X148251428Y-81219819D02*
X148346666Y-81219819D01*
X148346666Y-81219819D02*
X148489523Y-81267438D01*
X148489523Y-81267438D02*
X148537142Y-81315057D01*
X149489523Y-82219819D02*
X148918095Y-82219819D01*
X149203809Y-82219819D02*
X149203809Y-81219819D01*
X149203809Y-81219819D02*
X149108571Y-81362676D01*
X149108571Y-81362676D02*
X149013333Y-81457914D01*
X149013333Y-81457914D02*
X148918095Y-81505533D01*
X150108571Y-81219819D02*
X150203809Y-81219819D01*
X150203809Y-81219819D02*
X150299047Y-81267438D01*
X150299047Y-81267438D02*
X150346666Y-81315057D01*
X150346666Y-81315057D02*
X150394285Y-81410295D01*
X150394285Y-81410295D02*
X150441904Y-81600771D01*
X150441904Y-81600771D02*
X150441904Y-81838866D01*
X150441904Y-81838866D02*
X150394285Y-82029342D01*
X150394285Y-82029342D02*
X150346666Y-82124580D01*
X150346666Y-82124580D02*
X150299047Y-82172200D01*
X150299047Y-82172200D02*
X150203809Y-82219819D01*
X150203809Y-82219819D02*
X150108571Y-82219819D01*
X150108571Y-82219819D02*
X150013333Y-82172200D01*
X150013333Y-82172200D02*
X149965714Y-82124580D01*
X149965714Y-82124580D02*
X149918095Y-82029342D01*
X149918095Y-82029342D02*
X149870476Y-81838866D01*
X149870476Y-81838866D02*
X149870476Y-81600771D01*
X149870476Y-81600771D02*
X149918095Y-81410295D01*
X149918095Y-81410295D02*
X149965714Y-81315057D01*
X149965714Y-81315057D02*
X150013333Y-81267438D01*
X150013333Y-81267438D02*
X150108571Y-81219819D01*
X141359580Y-108916666D02*
X141407200Y-108964285D01*
X141407200Y-108964285D02*
X141454819Y-109107142D01*
X141454819Y-109107142D02*
X141454819Y-109202380D01*
X141454819Y-109202380D02*
X141407200Y-109345237D01*
X141407200Y-109345237D02*
X141311961Y-109440475D01*
X141311961Y-109440475D02*
X141216723Y-109488094D01*
X141216723Y-109488094D02*
X141026247Y-109535713D01*
X141026247Y-109535713D02*
X140883390Y-109535713D01*
X140883390Y-109535713D02*
X140692914Y-109488094D01*
X140692914Y-109488094D02*
X140597676Y-109440475D01*
X140597676Y-109440475D02*
X140502438Y-109345237D01*
X140502438Y-109345237D02*
X140454819Y-109202380D01*
X140454819Y-109202380D02*
X140454819Y-109107142D01*
X140454819Y-109107142D02*
X140502438Y-108964285D01*
X140502438Y-108964285D02*
X140550057Y-108916666D01*
X140883390Y-108345237D02*
X140835771Y-108440475D01*
X140835771Y-108440475D02*
X140788152Y-108488094D01*
X140788152Y-108488094D02*
X140692914Y-108535713D01*
X140692914Y-108535713D02*
X140645295Y-108535713D01*
X140645295Y-108535713D02*
X140550057Y-108488094D01*
X140550057Y-108488094D02*
X140502438Y-108440475D01*
X140502438Y-108440475D02*
X140454819Y-108345237D01*
X140454819Y-108345237D02*
X140454819Y-108154761D01*
X140454819Y-108154761D02*
X140502438Y-108059523D01*
X140502438Y-108059523D02*
X140550057Y-108011904D01*
X140550057Y-108011904D02*
X140645295Y-107964285D01*
X140645295Y-107964285D02*
X140692914Y-107964285D01*
X140692914Y-107964285D02*
X140788152Y-108011904D01*
X140788152Y-108011904D02*
X140835771Y-108059523D01*
X140835771Y-108059523D02*
X140883390Y-108154761D01*
X140883390Y-108154761D02*
X140883390Y-108345237D01*
X140883390Y-108345237D02*
X140931009Y-108440475D01*
X140931009Y-108440475D02*
X140978628Y-108488094D01*
X140978628Y-108488094D02*
X141073866Y-108535713D01*
X141073866Y-108535713D02*
X141264342Y-108535713D01*
X141264342Y-108535713D02*
X141359580Y-108488094D01*
X141359580Y-108488094D02*
X141407200Y-108440475D01*
X141407200Y-108440475D02*
X141454819Y-108345237D01*
X141454819Y-108345237D02*
X141454819Y-108154761D01*
X141454819Y-108154761D02*
X141407200Y-108059523D01*
X141407200Y-108059523D02*
X141359580Y-108011904D01*
X141359580Y-108011904D02*
X141264342Y-107964285D01*
X141264342Y-107964285D02*
X141073866Y-107964285D01*
X141073866Y-107964285D02*
X140978628Y-108011904D01*
X140978628Y-108011904D02*
X140931009Y-108059523D01*
X140931009Y-108059523D02*
X140883390Y-108154761D01*
X148833333Y-89704819D02*
X148500000Y-89228628D01*
X148261905Y-89704819D02*
X148261905Y-88704819D01*
X148261905Y-88704819D02*
X148642857Y-88704819D01*
X148642857Y-88704819D02*
X148738095Y-88752438D01*
X148738095Y-88752438D02*
X148785714Y-88800057D01*
X148785714Y-88800057D02*
X148833333Y-88895295D01*
X148833333Y-88895295D02*
X148833333Y-89038152D01*
X148833333Y-89038152D02*
X148785714Y-89133390D01*
X148785714Y-89133390D02*
X148738095Y-89181009D01*
X148738095Y-89181009D02*
X148642857Y-89228628D01*
X148642857Y-89228628D02*
X148261905Y-89228628D01*
X149166667Y-88704819D02*
X149833333Y-88704819D01*
X149833333Y-88704819D02*
X149404762Y-89704819D01*
X136583333Y-76109580D02*
X136535714Y-76157200D01*
X136535714Y-76157200D02*
X136392857Y-76204819D01*
X136392857Y-76204819D02*
X136297619Y-76204819D01*
X136297619Y-76204819D02*
X136154762Y-76157200D01*
X136154762Y-76157200D02*
X136059524Y-76061961D01*
X136059524Y-76061961D02*
X136011905Y-75966723D01*
X136011905Y-75966723D02*
X135964286Y-75776247D01*
X135964286Y-75776247D02*
X135964286Y-75633390D01*
X135964286Y-75633390D02*
X136011905Y-75442914D01*
X136011905Y-75442914D02*
X136059524Y-75347676D01*
X136059524Y-75347676D02*
X136154762Y-75252438D01*
X136154762Y-75252438D02*
X136297619Y-75204819D01*
X136297619Y-75204819D02*
X136392857Y-75204819D01*
X136392857Y-75204819D02*
X136535714Y-75252438D01*
X136535714Y-75252438D02*
X136583333Y-75300057D01*
X137440476Y-75538152D02*
X137440476Y-76204819D01*
X137202381Y-75157200D02*
X136964286Y-75871485D01*
X136964286Y-75871485D02*
X137583333Y-75871485D01*
X136107142Y-109109580D02*
X136059523Y-109157200D01*
X136059523Y-109157200D02*
X135916666Y-109204819D01*
X135916666Y-109204819D02*
X135821428Y-109204819D01*
X135821428Y-109204819D02*
X135678571Y-109157200D01*
X135678571Y-109157200D02*
X135583333Y-109061961D01*
X135583333Y-109061961D02*
X135535714Y-108966723D01*
X135535714Y-108966723D02*
X135488095Y-108776247D01*
X135488095Y-108776247D02*
X135488095Y-108633390D01*
X135488095Y-108633390D02*
X135535714Y-108442914D01*
X135535714Y-108442914D02*
X135583333Y-108347676D01*
X135583333Y-108347676D02*
X135678571Y-108252438D01*
X135678571Y-108252438D02*
X135821428Y-108204819D01*
X135821428Y-108204819D02*
X135916666Y-108204819D01*
X135916666Y-108204819D02*
X136059523Y-108252438D01*
X136059523Y-108252438D02*
X136107142Y-108300057D01*
X137059523Y-109204819D02*
X136488095Y-109204819D01*
X136773809Y-109204819D02*
X136773809Y-108204819D01*
X136773809Y-108204819D02*
X136678571Y-108347676D01*
X136678571Y-108347676D02*
X136583333Y-108442914D01*
X136583333Y-108442914D02*
X136488095Y-108490533D01*
X137964285Y-108204819D02*
X137488095Y-108204819D01*
X137488095Y-108204819D02*
X137440476Y-108681009D01*
X137440476Y-108681009D02*
X137488095Y-108633390D01*
X137488095Y-108633390D02*
X137583333Y-108585771D01*
X137583333Y-108585771D02*
X137821428Y-108585771D01*
X137821428Y-108585771D02*
X137916666Y-108633390D01*
X137916666Y-108633390D02*
X137964285Y-108681009D01*
X137964285Y-108681009D02*
X138011904Y-108776247D01*
X138011904Y-108776247D02*
X138011904Y-109014342D01*
X138011904Y-109014342D02*
X137964285Y-109109580D01*
X137964285Y-109109580D02*
X137916666Y-109157200D01*
X137916666Y-109157200D02*
X137821428Y-109204819D01*
X137821428Y-109204819D02*
X137583333Y-109204819D01*
X137583333Y-109204819D02*
X137488095Y-109157200D01*
X137488095Y-109157200D02*
X137440476Y-109109580D01*
X133083333Y-99789580D02*
X133035714Y-99837200D01*
X133035714Y-99837200D02*
X132892857Y-99884819D01*
X132892857Y-99884819D02*
X132797619Y-99884819D01*
X132797619Y-99884819D02*
X132654762Y-99837200D01*
X132654762Y-99837200D02*
X132559524Y-99741961D01*
X132559524Y-99741961D02*
X132511905Y-99646723D01*
X132511905Y-99646723D02*
X132464286Y-99456247D01*
X132464286Y-99456247D02*
X132464286Y-99313390D01*
X132464286Y-99313390D02*
X132511905Y-99122914D01*
X132511905Y-99122914D02*
X132559524Y-99027676D01*
X132559524Y-99027676D02*
X132654762Y-98932438D01*
X132654762Y-98932438D02*
X132797619Y-98884819D01*
X132797619Y-98884819D02*
X132892857Y-98884819D01*
X132892857Y-98884819D02*
X133035714Y-98932438D01*
X133035714Y-98932438D02*
X133083333Y-98980057D01*
X133416667Y-98884819D02*
X134083333Y-98884819D01*
X134083333Y-98884819D02*
X133654762Y-99884819D01*
X149013333Y-79704819D02*
X148680000Y-79228628D01*
X148441905Y-79704819D02*
X148441905Y-78704819D01*
X148441905Y-78704819D02*
X148822857Y-78704819D01*
X148822857Y-78704819D02*
X148918095Y-78752438D01*
X148918095Y-78752438D02*
X148965714Y-78800057D01*
X148965714Y-78800057D02*
X149013333Y-78895295D01*
X149013333Y-78895295D02*
X149013333Y-79038152D01*
X149013333Y-79038152D02*
X148965714Y-79133390D01*
X148965714Y-79133390D02*
X148918095Y-79181009D01*
X148918095Y-79181009D02*
X148822857Y-79228628D01*
X148822857Y-79228628D02*
X148441905Y-79228628D01*
X149965714Y-79704819D02*
X149394286Y-79704819D01*
X149680000Y-79704819D02*
X149680000Y-78704819D01*
X149680000Y-78704819D02*
X149584762Y-78847676D01*
X149584762Y-78847676D02*
X149489524Y-78942914D01*
X149489524Y-78942914D02*
X149394286Y-78990533D01*
X148454819Y-127261904D02*
X149264342Y-127261904D01*
X149264342Y-127261904D02*
X149359580Y-127214285D01*
X149359580Y-127214285D02*
X149407200Y-127166666D01*
X149407200Y-127166666D02*
X149454819Y-127071428D01*
X149454819Y-127071428D02*
X149454819Y-126880952D01*
X149454819Y-126880952D02*
X149407200Y-126785714D01*
X149407200Y-126785714D02*
X149359580Y-126738095D01*
X149359580Y-126738095D02*
X149264342Y-126690476D01*
X149264342Y-126690476D02*
X148454819Y-126690476D01*
X149454819Y-125690476D02*
X149454819Y-126261904D01*
X149454819Y-125976190D02*
X148454819Y-125976190D01*
X148454819Y-125976190D02*
X148597676Y-126071428D01*
X148597676Y-126071428D02*
X148692914Y-126166666D01*
X148692914Y-126166666D02*
X148740533Y-126261904D01*
X153407738Y-83093440D02*
X153071021Y-83430158D01*
X153071021Y-83430158D02*
X152363914Y-82723051D01*
X152970006Y-82251646D02*
X152970006Y-82184303D01*
X152970006Y-82184303D02*
X153003677Y-82083287D01*
X153003677Y-82083287D02*
X153172036Y-81914929D01*
X153172036Y-81914929D02*
X153273051Y-81881257D01*
X153273051Y-81881257D02*
X153340395Y-81881257D01*
X153340395Y-81881257D02*
X153441410Y-81914929D01*
X153441410Y-81914929D02*
X153508754Y-81982272D01*
X153508754Y-81982272D02*
X153576097Y-82116959D01*
X153576097Y-82116959D02*
X153576097Y-82925081D01*
X153576097Y-82925081D02*
X154013830Y-82487348D01*
X164336779Y-135738866D02*
X165098684Y-135738866D01*
X164836779Y-74488866D02*
X165598684Y-74488866D01*
X165217731Y-74869819D02*
X165217731Y-74107914D01*
X158157142Y-83789580D02*
X158109523Y-83837200D01*
X158109523Y-83837200D02*
X157966666Y-83884819D01*
X157966666Y-83884819D02*
X157871428Y-83884819D01*
X157871428Y-83884819D02*
X157728571Y-83837200D01*
X157728571Y-83837200D02*
X157633333Y-83741961D01*
X157633333Y-83741961D02*
X157585714Y-83646723D01*
X157585714Y-83646723D02*
X157538095Y-83456247D01*
X157538095Y-83456247D02*
X157538095Y-83313390D01*
X157538095Y-83313390D02*
X157585714Y-83122914D01*
X157585714Y-83122914D02*
X157633333Y-83027676D01*
X157633333Y-83027676D02*
X157728571Y-82932438D01*
X157728571Y-82932438D02*
X157871428Y-82884819D01*
X157871428Y-82884819D02*
X157966666Y-82884819D01*
X157966666Y-82884819D02*
X158109523Y-82932438D01*
X158109523Y-82932438D02*
X158157142Y-82980057D01*
X159109523Y-83884819D02*
X158538095Y-83884819D01*
X158823809Y-83884819D02*
X158823809Y-82884819D01*
X158823809Y-82884819D02*
X158728571Y-83027676D01*
X158728571Y-83027676D02*
X158633333Y-83122914D01*
X158633333Y-83122914D02*
X158538095Y-83170533D01*
X159680952Y-83313390D02*
X159585714Y-83265771D01*
X159585714Y-83265771D02*
X159538095Y-83218152D01*
X159538095Y-83218152D02*
X159490476Y-83122914D01*
X159490476Y-83122914D02*
X159490476Y-83075295D01*
X159490476Y-83075295D02*
X159538095Y-82980057D01*
X159538095Y-82980057D02*
X159585714Y-82932438D01*
X159585714Y-82932438D02*
X159680952Y-82884819D01*
X159680952Y-82884819D02*
X159871428Y-82884819D01*
X159871428Y-82884819D02*
X159966666Y-82932438D01*
X159966666Y-82932438D02*
X160014285Y-82980057D01*
X160014285Y-82980057D02*
X160061904Y-83075295D01*
X160061904Y-83075295D02*
X160061904Y-83122914D01*
X160061904Y-83122914D02*
X160014285Y-83218152D01*
X160014285Y-83218152D02*
X159966666Y-83265771D01*
X159966666Y-83265771D02*
X159871428Y-83313390D01*
X159871428Y-83313390D02*
X159680952Y-83313390D01*
X159680952Y-83313390D02*
X159585714Y-83361009D01*
X159585714Y-83361009D02*
X159538095Y-83408628D01*
X159538095Y-83408628D02*
X159490476Y-83503866D01*
X159490476Y-83503866D02*
X159490476Y-83694342D01*
X159490476Y-83694342D02*
X159538095Y-83789580D01*
X159538095Y-83789580D02*
X159585714Y-83837200D01*
X159585714Y-83837200D02*
X159680952Y-83884819D01*
X159680952Y-83884819D02*
X159871428Y-83884819D01*
X159871428Y-83884819D02*
X159966666Y-83837200D01*
X159966666Y-83837200D02*
X160014285Y-83789580D01*
X160014285Y-83789580D02*
X160061904Y-83694342D01*
X160061904Y-83694342D02*
X160061904Y-83503866D01*
X160061904Y-83503866D02*
X160014285Y-83408628D01*
X160014285Y-83408628D02*
X159966666Y-83361009D01*
X159966666Y-83361009D02*
X159871428Y-83313390D01*
X142553333Y-115704819D02*
X142220000Y-115228628D01*
X141981905Y-115704819D02*
X141981905Y-114704819D01*
X141981905Y-114704819D02*
X142362857Y-114704819D01*
X142362857Y-114704819D02*
X142458095Y-114752438D01*
X142458095Y-114752438D02*
X142505714Y-114800057D01*
X142505714Y-114800057D02*
X142553333Y-114895295D01*
X142553333Y-114895295D02*
X142553333Y-115038152D01*
X142553333Y-115038152D02*
X142505714Y-115133390D01*
X142505714Y-115133390D02*
X142458095Y-115181009D01*
X142458095Y-115181009D02*
X142362857Y-115228628D01*
X142362857Y-115228628D02*
X141981905Y-115228628D01*
X143458095Y-114704819D02*
X142981905Y-114704819D01*
X142981905Y-114704819D02*
X142934286Y-115181009D01*
X142934286Y-115181009D02*
X142981905Y-115133390D01*
X142981905Y-115133390D02*
X143077143Y-115085771D01*
X143077143Y-115085771D02*
X143315238Y-115085771D01*
X143315238Y-115085771D02*
X143410476Y-115133390D01*
X143410476Y-115133390D02*
X143458095Y-115181009D01*
X143458095Y-115181009D02*
X143505714Y-115276247D01*
X143505714Y-115276247D02*
X143505714Y-115514342D01*
X143505714Y-115514342D02*
X143458095Y-115609580D01*
X143458095Y-115609580D02*
X143410476Y-115657200D01*
X143410476Y-115657200D02*
X143315238Y-115704819D01*
X143315238Y-115704819D02*
X143077143Y-115704819D01*
X143077143Y-115704819D02*
X142981905Y-115657200D01*
X142981905Y-115657200D02*
X142934286Y-115609580D01*
X158107142Y-79609580D02*
X158059523Y-79657200D01*
X158059523Y-79657200D02*
X157916666Y-79704819D01*
X157916666Y-79704819D02*
X157821428Y-79704819D01*
X157821428Y-79704819D02*
X157678571Y-79657200D01*
X157678571Y-79657200D02*
X157583333Y-79561961D01*
X157583333Y-79561961D02*
X157535714Y-79466723D01*
X157535714Y-79466723D02*
X157488095Y-79276247D01*
X157488095Y-79276247D02*
X157488095Y-79133390D01*
X157488095Y-79133390D02*
X157535714Y-78942914D01*
X157535714Y-78942914D02*
X157583333Y-78847676D01*
X157583333Y-78847676D02*
X157678571Y-78752438D01*
X157678571Y-78752438D02*
X157821428Y-78704819D01*
X157821428Y-78704819D02*
X157916666Y-78704819D01*
X157916666Y-78704819D02*
X158059523Y-78752438D01*
X158059523Y-78752438D02*
X158107142Y-78800057D01*
X159059523Y-79704819D02*
X158488095Y-79704819D01*
X158773809Y-79704819D02*
X158773809Y-78704819D01*
X158773809Y-78704819D02*
X158678571Y-78847676D01*
X158678571Y-78847676D02*
X158583333Y-78942914D01*
X158583333Y-78942914D02*
X158488095Y-78990533D01*
X159535714Y-79704819D02*
X159726190Y-79704819D01*
X159726190Y-79704819D02*
X159821428Y-79657200D01*
X159821428Y-79657200D02*
X159869047Y-79609580D01*
X159869047Y-79609580D02*
X159964285Y-79466723D01*
X159964285Y-79466723D02*
X160011904Y-79276247D01*
X160011904Y-79276247D02*
X160011904Y-78895295D01*
X160011904Y-78895295D02*
X159964285Y-78800057D01*
X159964285Y-78800057D02*
X159916666Y-78752438D01*
X159916666Y-78752438D02*
X159821428Y-78704819D01*
X159821428Y-78704819D02*
X159630952Y-78704819D01*
X159630952Y-78704819D02*
X159535714Y-78752438D01*
X159535714Y-78752438D02*
X159488095Y-78800057D01*
X159488095Y-78800057D02*
X159440476Y-78895295D01*
X159440476Y-78895295D02*
X159440476Y-79133390D01*
X159440476Y-79133390D02*
X159488095Y-79228628D01*
X159488095Y-79228628D02*
X159535714Y-79276247D01*
X159535714Y-79276247D02*
X159630952Y-79323866D01*
X159630952Y-79323866D02*
X159821428Y-79323866D01*
X159821428Y-79323866D02*
X159916666Y-79276247D01*
X159916666Y-79276247D02*
X159964285Y-79228628D01*
X159964285Y-79228628D02*
X160011904Y-79133390D01*
X151333333Y-93454819D02*
X151000000Y-92978628D01*
X150761905Y-93454819D02*
X150761905Y-92454819D01*
X150761905Y-92454819D02*
X151142857Y-92454819D01*
X151142857Y-92454819D02*
X151238095Y-92502438D01*
X151238095Y-92502438D02*
X151285714Y-92550057D01*
X151285714Y-92550057D02*
X151333333Y-92645295D01*
X151333333Y-92645295D02*
X151333333Y-92788152D01*
X151333333Y-92788152D02*
X151285714Y-92883390D01*
X151285714Y-92883390D02*
X151238095Y-92931009D01*
X151238095Y-92931009D02*
X151142857Y-92978628D01*
X151142857Y-92978628D02*
X150761905Y-92978628D01*
X151666667Y-92454819D02*
X152285714Y-92454819D01*
X152285714Y-92454819D02*
X151952381Y-92835771D01*
X151952381Y-92835771D02*
X152095238Y-92835771D01*
X152095238Y-92835771D02*
X152190476Y-92883390D01*
X152190476Y-92883390D02*
X152238095Y-92931009D01*
X152238095Y-92931009D02*
X152285714Y-93026247D01*
X152285714Y-93026247D02*
X152285714Y-93264342D01*
X152285714Y-93264342D02*
X152238095Y-93359580D01*
X152238095Y-93359580D02*
X152190476Y-93407200D01*
X152190476Y-93407200D02*
X152095238Y-93454819D01*
X152095238Y-93454819D02*
X151809524Y-93454819D01*
X151809524Y-93454819D02*
X151714286Y-93407200D01*
X151714286Y-93407200D02*
X151666667Y-93359580D01*
X149013333Y-84734819D02*
X148680000Y-84258628D01*
X148441905Y-84734819D02*
X148441905Y-83734819D01*
X148441905Y-83734819D02*
X148822857Y-83734819D01*
X148822857Y-83734819D02*
X148918095Y-83782438D01*
X148918095Y-83782438D02*
X148965714Y-83830057D01*
X148965714Y-83830057D02*
X149013333Y-83925295D01*
X149013333Y-83925295D02*
X149013333Y-84068152D01*
X149013333Y-84068152D02*
X148965714Y-84163390D01*
X148965714Y-84163390D02*
X148918095Y-84211009D01*
X148918095Y-84211009D02*
X148822857Y-84258628D01*
X148822857Y-84258628D02*
X148441905Y-84258628D01*
X149394286Y-83830057D02*
X149441905Y-83782438D01*
X149441905Y-83782438D02*
X149537143Y-83734819D01*
X149537143Y-83734819D02*
X149775238Y-83734819D01*
X149775238Y-83734819D02*
X149870476Y-83782438D01*
X149870476Y-83782438D02*
X149918095Y-83830057D01*
X149918095Y-83830057D02*
X149965714Y-83925295D01*
X149965714Y-83925295D02*
X149965714Y-84020533D01*
X149965714Y-84020533D02*
X149918095Y-84163390D01*
X149918095Y-84163390D02*
X149346667Y-84734819D01*
X149346667Y-84734819D02*
X149965714Y-84734819D01*
X148857142Y-87219819D02*
X148523809Y-86743628D01*
X148285714Y-87219819D02*
X148285714Y-86219819D01*
X148285714Y-86219819D02*
X148666666Y-86219819D01*
X148666666Y-86219819D02*
X148761904Y-86267438D01*
X148761904Y-86267438D02*
X148809523Y-86315057D01*
X148809523Y-86315057D02*
X148857142Y-86410295D01*
X148857142Y-86410295D02*
X148857142Y-86553152D01*
X148857142Y-86553152D02*
X148809523Y-86648390D01*
X148809523Y-86648390D02*
X148761904Y-86696009D01*
X148761904Y-86696009D02*
X148666666Y-86743628D01*
X148666666Y-86743628D02*
X148285714Y-86743628D01*
X149809523Y-87219819D02*
X149238095Y-87219819D01*
X149523809Y-87219819D02*
X149523809Y-86219819D01*
X149523809Y-86219819D02*
X149428571Y-86362676D01*
X149428571Y-86362676D02*
X149333333Y-86457914D01*
X149333333Y-86457914D02*
X149238095Y-86505533D01*
X150761904Y-87219819D02*
X150190476Y-87219819D01*
X150476190Y-87219819D02*
X150476190Y-86219819D01*
X150476190Y-86219819D02*
X150380952Y-86362676D01*
X150380952Y-86362676D02*
X150285714Y-86457914D01*
X150285714Y-86457914D02*
X150190476Y-86505533D01*
X141083333Y-85859580D02*
X141035714Y-85907200D01*
X141035714Y-85907200D02*
X140892857Y-85954819D01*
X140892857Y-85954819D02*
X140797619Y-85954819D01*
X140797619Y-85954819D02*
X140654762Y-85907200D01*
X140654762Y-85907200D02*
X140559524Y-85811961D01*
X140559524Y-85811961D02*
X140511905Y-85716723D01*
X140511905Y-85716723D02*
X140464286Y-85526247D01*
X140464286Y-85526247D02*
X140464286Y-85383390D01*
X140464286Y-85383390D02*
X140511905Y-85192914D01*
X140511905Y-85192914D02*
X140559524Y-85097676D01*
X140559524Y-85097676D02*
X140654762Y-85002438D01*
X140654762Y-85002438D02*
X140797619Y-84954819D01*
X140797619Y-84954819D02*
X140892857Y-84954819D01*
X140892857Y-84954819D02*
X141035714Y-85002438D01*
X141035714Y-85002438D02*
X141083333Y-85050057D01*
X141940476Y-84954819D02*
X141750000Y-84954819D01*
X141750000Y-84954819D02*
X141654762Y-85002438D01*
X141654762Y-85002438D02*
X141607143Y-85050057D01*
X141607143Y-85050057D02*
X141511905Y-85192914D01*
X141511905Y-85192914D02*
X141464286Y-85383390D01*
X141464286Y-85383390D02*
X141464286Y-85764342D01*
X141464286Y-85764342D02*
X141511905Y-85859580D01*
X141511905Y-85859580D02*
X141559524Y-85907200D01*
X141559524Y-85907200D02*
X141654762Y-85954819D01*
X141654762Y-85954819D02*
X141845238Y-85954819D01*
X141845238Y-85954819D02*
X141940476Y-85907200D01*
X141940476Y-85907200D02*
X141988095Y-85859580D01*
X141988095Y-85859580D02*
X142035714Y-85764342D01*
X142035714Y-85764342D02*
X142035714Y-85526247D01*
X142035714Y-85526247D02*
X141988095Y-85431009D01*
X141988095Y-85431009D02*
X141940476Y-85383390D01*
X141940476Y-85383390D02*
X141845238Y-85335771D01*
X141845238Y-85335771D02*
X141654762Y-85335771D01*
X141654762Y-85335771D02*
X141559524Y-85383390D01*
X141559524Y-85383390D02*
X141511905Y-85431009D01*
X141511905Y-85431009D02*
X141464286Y-85526247D01*
X157859580Y-115142857D02*
X157907200Y-115190476D01*
X157907200Y-115190476D02*
X157954819Y-115333333D01*
X157954819Y-115333333D02*
X157954819Y-115428571D01*
X157954819Y-115428571D02*
X157907200Y-115571428D01*
X157907200Y-115571428D02*
X157811961Y-115666666D01*
X157811961Y-115666666D02*
X157716723Y-115714285D01*
X157716723Y-115714285D02*
X157526247Y-115761904D01*
X157526247Y-115761904D02*
X157383390Y-115761904D01*
X157383390Y-115761904D02*
X157192914Y-115714285D01*
X157192914Y-115714285D02*
X157097676Y-115666666D01*
X157097676Y-115666666D02*
X157002438Y-115571428D01*
X157002438Y-115571428D02*
X156954819Y-115428571D01*
X156954819Y-115428571D02*
X156954819Y-115333333D01*
X156954819Y-115333333D02*
X157002438Y-115190476D01*
X157002438Y-115190476D02*
X157050057Y-115142857D01*
X157954819Y-114190476D02*
X157954819Y-114761904D01*
X157954819Y-114476190D02*
X156954819Y-114476190D01*
X156954819Y-114476190D02*
X157097676Y-114571428D01*
X157097676Y-114571428D02*
X157192914Y-114666666D01*
X157192914Y-114666666D02*
X157240533Y-114761904D01*
X157050057Y-113809523D02*
X157002438Y-113761904D01*
X157002438Y-113761904D02*
X156954819Y-113666666D01*
X156954819Y-113666666D02*
X156954819Y-113428571D01*
X156954819Y-113428571D02*
X157002438Y-113333333D01*
X157002438Y-113333333D02*
X157050057Y-113285714D01*
X157050057Y-113285714D02*
X157145295Y-113238095D01*
X157145295Y-113238095D02*
X157240533Y-113238095D01*
X157240533Y-113238095D02*
X157383390Y-113285714D01*
X157383390Y-113285714D02*
X157954819Y-113857142D01*
X157954819Y-113857142D02*
X157954819Y-113238095D01*
X141083333Y-83109580D02*
X141035714Y-83157200D01*
X141035714Y-83157200D02*
X140892857Y-83204819D01*
X140892857Y-83204819D02*
X140797619Y-83204819D01*
X140797619Y-83204819D02*
X140654762Y-83157200D01*
X140654762Y-83157200D02*
X140559524Y-83061961D01*
X140559524Y-83061961D02*
X140511905Y-82966723D01*
X140511905Y-82966723D02*
X140464286Y-82776247D01*
X140464286Y-82776247D02*
X140464286Y-82633390D01*
X140464286Y-82633390D02*
X140511905Y-82442914D01*
X140511905Y-82442914D02*
X140559524Y-82347676D01*
X140559524Y-82347676D02*
X140654762Y-82252438D01*
X140654762Y-82252438D02*
X140797619Y-82204819D01*
X140797619Y-82204819D02*
X140892857Y-82204819D01*
X140892857Y-82204819D02*
X141035714Y-82252438D01*
X141035714Y-82252438D02*
X141083333Y-82300057D01*
X141988095Y-82204819D02*
X141511905Y-82204819D01*
X141511905Y-82204819D02*
X141464286Y-82681009D01*
X141464286Y-82681009D02*
X141511905Y-82633390D01*
X141511905Y-82633390D02*
X141607143Y-82585771D01*
X141607143Y-82585771D02*
X141845238Y-82585771D01*
X141845238Y-82585771D02*
X141940476Y-82633390D01*
X141940476Y-82633390D02*
X141988095Y-82681009D01*
X141988095Y-82681009D02*
X142035714Y-82776247D01*
X142035714Y-82776247D02*
X142035714Y-83014342D01*
X142035714Y-83014342D02*
X141988095Y-83109580D01*
X141988095Y-83109580D02*
X141940476Y-83157200D01*
X141940476Y-83157200D02*
X141845238Y-83204819D01*
X141845238Y-83204819D02*
X141607143Y-83204819D01*
X141607143Y-83204819D02*
X141511905Y-83157200D01*
X141511905Y-83157200D02*
X141464286Y-83109580D01*
X159587142Y-118306722D02*
X159539523Y-118354342D01*
X159539523Y-118354342D02*
X159396666Y-118401961D01*
X159396666Y-118401961D02*
X159301428Y-118401961D01*
X159301428Y-118401961D02*
X159158571Y-118354342D01*
X159158571Y-118354342D02*
X159063333Y-118259103D01*
X159063333Y-118259103D02*
X159015714Y-118163865D01*
X159015714Y-118163865D02*
X158968095Y-117973389D01*
X158968095Y-117973389D02*
X158968095Y-117830532D01*
X158968095Y-117830532D02*
X159015714Y-117640056D01*
X159015714Y-117640056D02*
X159063333Y-117544818D01*
X159063333Y-117544818D02*
X159158571Y-117449580D01*
X159158571Y-117449580D02*
X159301428Y-117401961D01*
X159301428Y-117401961D02*
X159396666Y-117401961D01*
X159396666Y-117401961D02*
X159539523Y-117449580D01*
X159539523Y-117449580D02*
X159587142Y-117497199D01*
X160539523Y-118401961D02*
X159968095Y-118401961D01*
X160253809Y-118401961D02*
X160253809Y-117401961D01*
X160253809Y-117401961D02*
X160158571Y-117544818D01*
X160158571Y-117544818D02*
X160063333Y-117640056D01*
X160063333Y-117640056D02*
X159968095Y-117687675D01*
X161396666Y-117735294D02*
X161396666Y-118401961D01*
X161158571Y-117354342D02*
X160920476Y-118068627D01*
X160920476Y-118068627D02*
X161539523Y-118068627D01*
X152764527Y-89549770D02*
X152427809Y-89213053D01*
X152427809Y-89213053D02*
X153134916Y-88505946D01*
X153370619Y-90155862D02*
X152966558Y-89751801D01*
X153168588Y-89953831D02*
X153875695Y-89246725D01*
X153875695Y-89246725D02*
X153707336Y-89280396D01*
X153707336Y-89280396D02*
X153572649Y-89280396D01*
X153572649Y-89280396D02*
X153471634Y-89246725D01*
X151130952Y-74879104D02*
X151607142Y-74879104D01*
X151035714Y-75164819D02*
X151369047Y-74164819D01*
X151369047Y-74164819D02*
X151702380Y-75164819D01*
X152035714Y-75164819D02*
X152035714Y-74164819D01*
X152035714Y-74164819D02*
X152607142Y-75164819D01*
X152607142Y-75164819D02*
X152607142Y-74164819D01*
X152940476Y-74164819D02*
X153511904Y-74164819D01*
X153226190Y-75164819D02*
X153226190Y-74164819D01*
X153797619Y-74260057D02*
X153845238Y-74212438D01*
X153845238Y-74212438D02*
X153940476Y-74164819D01*
X153940476Y-74164819D02*
X154178571Y-74164819D01*
X154178571Y-74164819D02*
X154273809Y-74212438D01*
X154273809Y-74212438D02*
X154321428Y-74260057D01*
X154321428Y-74260057D02*
X154369047Y-74355295D01*
X154369047Y-74355295D02*
X154369047Y-74450533D01*
X154369047Y-74450533D02*
X154321428Y-74593390D01*
X154321428Y-74593390D02*
X153750000Y-75164819D01*
X153750000Y-75164819D02*
X154369047Y-75164819D01*
X137228628Y-113726190D02*
X137704819Y-113726190D01*
X136704819Y-114059523D02*
X137228628Y-113726190D01*
X137228628Y-113726190D02*
X136704819Y-113392857D01*
X136800057Y-113107142D02*
X136752438Y-113059523D01*
X136752438Y-113059523D02*
X136704819Y-112964285D01*
X136704819Y-112964285D02*
X136704819Y-112726190D01*
X136704819Y-112726190D02*
X136752438Y-112630952D01*
X136752438Y-112630952D02*
X136800057Y-112583333D01*
X136800057Y-112583333D02*
X136895295Y-112535714D01*
X136895295Y-112535714D02*
X136990533Y-112535714D01*
X136990533Y-112535714D02*
X137133390Y-112583333D01*
X137133390Y-112583333D02*
X137704819Y-113154761D01*
X137704819Y-113154761D02*
X137704819Y-112535714D01*
X137904762Y-115883390D02*
X137809524Y-115835771D01*
X137809524Y-115835771D02*
X137761905Y-115788152D01*
X137761905Y-115788152D02*
X137714286Y-115692914D01*
X137714286Y-115692914D02*
X137714286Y-115645295D01*
X137714286Y-115645295D02*
X137761905Y-115550057D01*
X137761905Y-115550057D02*
X137809524Y-115502438D01*
X137809524Y-115502438D02*
X137904762Y-115454819D01*
X137904762Y-115454819D02*
X138095238Y-115454819D01*
X138095238Y-115454819D02*
X138190476Y-115502438D01*
X138190476Y-115502438D02*
X138238095Y-115550057D01*
X138238095Y-115550057D02*
X138285714Y-115645295D01*
X138285714Y-115645295D02*
X138285714Y-115692914D01*
X138285714Y-115692914D02*
X138238095Y-115788152D01*
X138238095Y-115788152D02*
X138190476Y-115835771D01*
X138190476Y-115835771D02*
X138095238Y-115883390D01*
X138095238Y-115883390D02*
X137904762Y-115883390D01*
X137904762Y-115883390D02*
X137809524Y-115931009D01*
X137809524Y-115931009D02*
X137761905Y-115978628D01*
X137761905Y-115978628D02*
X137714286Y-116073866D01*
X137714286Y-116073866D02*
X137714286Y-116264342D01*
X137714286Y-116264342D02*
X137761905Y-116359580D01*
X137761905Y-116359580D02*
X137809524Y-116407200D01*
X137809524Y-116407200D02*
X137904762Y-116454819D01*
X137904762Y-116454819D02*
X138095238Y-116454819D01*
X138095238Y-116454819D02*
X138190476Y-116407200D01*
X138190476Y-116407200D02*
X138238095Y-116359580D01*
X138238095Y-116359580D02*
X138285714Y-116264342D01*
X138285714Y-116264342D02*
X138285714Y-116073866D01*
X138285714Y-116073866D02*
X138238095Y-115978628D01*
X138238095Y-115978628D02*
X138190476Y-115931009D01*
X138190476Y-115931009D02*
X138095238Y-115883390D01*
X138714286Y-116454819D02*
X138714286Y-115454819D01*
X138714286Y-115454819D02*
X139047619Y-116169104D01*
X139047619Y-116169104D02*
X139380952Y-115454819D01*
X139380952Y-115454819D02*
X139380952Y-116454819D01*
X139857143Y-116454819D02*
X139857143Y-115454819D01*
X139857143Y-115931009D02*
X140428571Y-115931009D01*
X140428571Y-116454819D02*
X140428571Y-115454819D01*
X140809524Y-115788152D02*
X141333333Y-115788152D01*
X141333333Y-115788152D02*
X140809524Y-116454819D01*
X140809524Y-116454819D02*
X141333333Y-116454819D01*
X152764527Y-80549770D02*
X152427809Y-80213053D01*
X152427809Y-80213053D02*
X153134916Y-79505946D01*
X153639993Y-80011022D02*
X154077725Y-80448755D01*
X154077725Y-80448755D02*
X153572649Y-80482427D01*
X153572649Y-80482427D02*
X153673664Y-80583442D01*
X153673664Y-80583442D02*
X153707336Y-80684457D01*
X153707336Y-80684457D02*
X153707336Y-80751801D01*
X153707336Y-80751801D02*
X153673664Y-80852816D01*
X153673664Y-80852816D02*
X153505306Y-81021175D01*
X153505306Y-81021175D02*
X153404290Y-81054847D01*
X153404290Y-81054847D02*
X153336947Y-81054847D01*
X153336947Y-81054847D02*
X153235932Y-81021175D01*
X153235932Y-81021175D02*
X153033901Y-80819144D01*
X153033901Y-80819144D02*
X153000229Y-80718129D01*
X153000229Y-80718129D02*
X153000229Y-80650786D01*
X133083333Y-94789580D02*
X133035714Y-94837200D01*
X133035714Y-94837200D02*
X132892857Y-94884819D01*
X132892857Y-94884819D02*
X132797619Y-94884819D01*
X132797619Y-94884819D02*
X132654762Y-94837200D01*
X132654762Y-94837200D02*
X132559524Y-94741961D01*
X132559524Y-94741961D02*
X132511905Y-94646723D01*
X132511905Y-94646723D02*
X132464286Y-94456247D01*
X132464286Y-94456247D02*
X132464286Y-94313390D01*
X132464286Y-94313390D02*
X132511905Y-94122914D01*
X132511905Y-94122914D02*
X132559524Y-94027676D01*
X132559524Y-94027676D02*
X132654762Y-93932438D01*
X132654762Y-93932438D02*
X132797619Y-93884819D01*
X132797619Y-93884819D02*
X132892857Y-93884819D01*
X132892857Y-93884819D02*
X133035714Y-93932438D01*
X133035714Y-93932438D02*
X133083333Y-93980057D01*
X133416667Y-93884819D02*
X134035714Y-93884819D01*
X134035714Y-93884819D02*
X133702381Y-94265771D01*
X133702381Y-94265771D02*
X133845238Y-94265771D01*
X133845238Y-94265771D02*
X133940476Y-94313390D01*
X133940476Y-94313390D02*
X133988095Y-94361009D01*
X133988095Y-94361009D02*
X134035714Y-94456247D01*
X134035714Y-94456247D02*
X134035714Y-94694342D01*
X134035714Y-94694342D02*
X133988095Y-94789580D01*
X133988095Y-94789580D02*
X133940476Y-94837200D01*
X133940476Y-94837200D02*
X133845238Y-94884819D01*
X133845238Y-94884819D02*
X133559524Y-94884819D01*
X133559524Y-94884819D02*
X133464286Y-94837200D01*
X133464286Y-94837200D02*
X133416667Y-94789580D01*
X159954819Y-107642857D02*
X159478628Y-107976190D01*
X159954819Y-108214285D02*
X158954819Y-108214285D01*
X158954819Y-108214285D02*
X158954819Y-107833333D01*
X158954819Y-107833333D02*
X159002438Y-107738095D01*
X159002438Y-107738095D02*
X159050057Y-107690476D01*
X159050057Y-107690476D02*
X159145295Y-107642857D01*
X159145295Y-107642857D02*
X159288152Y-107642857D01*
X159288152Y-107642857D02*
X159383390Y-107690476D01*
X159383390Y-107690476D02*
X159431009Y-107738095D01*
X159431009Y-107738095D02*
X159478628Y-107833333D01*
X159478628Y-107833333D02*
X159478628Y-108214285D01*
X159954819Y-106690476D02*
X159954819Y-107261904D01*
X159954819Y-106976190D02*
X158954819Y-106976190D01*
X158954819Y-106976190D02*
X159097676Y-107071428D01*
X159097676Y-107071428D02*
X159192914Y-107166666D01*
X159192914Y-107166666D02*
X159240533Y-107261904D01*
X158954819Y-106357142D02*
X158954819Y-105738095D01*
X158954819Y-105738095D02*
X159335771Y-106071428D01*
X159335771Y-106071428D02*
X159335771Y-105928571D01*
X159335771Y-105928571D02*
X159383390Y-105833333D01*
X159383390Y-105833333D02*
X159431009Y-105785714D01*
X159431009Y-105785714D02*
X159526247Y-105738095D01*
X159526247Y-105738095D02*
X159764342Y-105738095D01*
X159764342Y-105738095D02*
X159859580Y-105785714D01*
X159859580Y-105785714D02*
X159907200Y-105833333D01*
X159907200Y-105833333D02*
X159954819Y-105928571D01*
X159954819Y-105928571D02*
X159954819Y-106214285D01*
X159954819Y-106214285D02*
X159907200Y-106309523D01*
X159907200Y-106309523D02*
X159859580Y-106357142D01*
X160868333Y-129886245D02*
X160535000Y-129410054D01*
X160296905Y-129886245D02*
X160296905Y-128886245D01*
X160296905Y-128886245D02*
X160677857Y-128886245D01*
X160677857Y-128886245D02*
X160773095Y-128933864D01*
X160773095Y-128933864D02*
X160820714Y-128981483D01*
X160820714Y-128981483D02*
X160868333Y-129076721D01*
X160868333Y-129076721D02*
X160868333Y-129219578D01*
X160868333Y-129219578D02*
X160820714Y-129314816D01*
X160820714Y-129314816D02*
X160773095Y-129362435D01*
X160773095Y-129362435D02*
X160677857Y-129410054D01*
X160677857Y-129410054D02*
X160296905Y-129410054D01*
X161725476Y-129219578D02*
X161725476Y-129886245D01*
X161487381Y-128838626D02*
X161249286Y-129552911D01*
X161249286Y-129552911D02*
X161868333Y-129552911D01*
X159416666Y-134204819D02*
X159416666Y-134919104D01*
X159416666Y-134919104D02*
X159369047Y-135061961D01*
X159369047Y-135061961D02*
X159273809Y-135157200D01*
X159273809Y-135157200D02*
X159130952Y-135204819D01*
X159130952Y-135204819D02*
X159035714Y-135204819D01*
X160321428Y-134538152D02*
X160321428Y-135204819D01*
X160083333Y-134157200D02*
X159845238Y-134871485D01*
X159845238Y-134871485D02*
X160464285Y-134871485D01*
X152273810Y-130204819D02*
X152273810Y-129204819D01*
X153321428Y-130109580D02*
X153273809Y-130157200D01*
X153273809Y-130157200D02*
X153130952Y-130204819D01*
X153130952Y-130204819D02*
X153035714Y-130204819D01*
X153035714Y-130204819D02*
X152892857Y-130157200D01*
X152892857Y-130157200D02*
X152797619Y-130061961D01*
X152797619Y-130061961D02*
X152750000Y-129966723D01*
X152750000Y-129966723D02*
X152702381Y-129776247D01*
X152702381Y-129776247D02*
X152702381Y-129633390D01*
X152702381Y-129633390D02*
X152750000Y-129442914D01*
X152750000Y-129442914D02*
X152797619Y-129347676D01*
X152797619Y-129347676D02*
X152892857Y-129252438D01*
X152892857Y-129252438D02*
X153035714Y-129204819D01*
X153035714Y-129204819D02*
X153130952Y-129204819D01*
X153130952Y-129204819D02*
X153273809Y-129252438D01*
X153273809Y-129252438D02*
X153321428Y-129300057D01*
X153702381Y-130157200D02*
X153845238Y-130204819D01*
X153845238Y-130204819D02*
X154083333Y-130204819D01*
X154083333Y-130204819D02*
X154178571Y-130157200D01*
X154178571Y-130157200D02*
X154226190Y-130109580D01*
X154226190Y-130109580D02*
X154273809Y-130014342D01*
X154273809Y-130014342D02*
X154273809Y-129919104D01*
X154273809Y-129919104D02*
X154226190Y-129823866D01*
X154226190Y-129823866D02*
X154178571Y-129776247D01*
X154178571Y-129776247D02*
X154083333Y-129728628D01*
X154083333Y-129728628D02*
X153892857Y-129681009D01*
X153892857Y-129681009D02*
X153797619Y-129633390D01*
X153797619Y-129633390D02*
X153750000Y-129585771D01*
X153750000Y-129585771D02*
X153702381Y-129490533D01*
X153702381Y-129490533D02*
X153702381Y-129395295D01*
X153702381Y-129395295D02*
X153750000Y-129300057D01*
X153750000Y-129300057D02*
X153797619Y-129252438D01*
X153797619Y-129252438D02*
X153892857Y-129204819D01*
X153892857Y-129204819D02*
X154130952Y-129204819D01*
X154130952Y-129204819D02*
X154273809Y-129252438D01*
X154702381Y-130204819D02*
X154702381Y-129204819D01*
X154702381Y-129204819D02*
X155083333Y-129204819D01*
X155083333Y-129204819D02*
X155178571Y-129252438D01*
X155178571Y-129252438D02*
X155226190Y-129300057D01*
X155226190Y-129300057D02*
X155273809Y-129395295D01*
X155273809Y-129395295D02*
X155273809Y-129538152D01*
X155273809Y-129538152D02*
X155226190Y-129633390D01*
X155226190Y-129633390D02*
X155178571Y-129681009D01*
X155178571Y-129681009D02*
X155083333Y-129728628D01*
X155083333Y-129728628D02*
X154702381Y-129728628D01*
X158137142Y-97304819D02*
X157803809Y-96828628D01*
X157565714Y-97304819D02*
X157565714Y-96304819D01*
X157565714Y-96304819D02*
X157946666Y-96304819D01*
X157946666Y-96304819D02*
X158041904Y-96352438D01*
X158041904Y-96352438D02*
X158089523Y-96400057D01*
X158089523Y-96400057D02*
X158137142Y-96495295D01*
X158137142Y-96495295D02*
X158137142Y-96638152D01*
X158137142Y-96638152D02*
X158089523Y-96733390D01*
X158089523Y-96733390D02*
X158041904Y-96781009D01*
X158041904Y-96781009D02*
X157946666Y-96828628D01*
X157946666Y-96828628D02*
X157565714Y-96828628D01*
X159089523Y-97304819D02*
X158518095Y-97304819D01*
X158803809Y-97304819D02*
X158803809Y-96304819D01*
X158803809Y-96304819D02*
X158708571Y-96447676D01*
X158708571Y-96447676D02*
X158613333Y-96542914D01*
X158613333Y-96542914D02*
X158518095Y-96590533D01*
X159470476Y-96400057D02*
X159518095Y-96352438D01*
X159518095Y-96352438D02*
X159613333Y-96304819D01*
X159613333Y-96304819D02*
X159851428Y-96304819D01*
X159851428Y-96304819D02*
X159946666Y-96352438D01*
X159946666Y-96352438D02*
X159994285Y-96400057D01*
X159994285Y-96400057D02*
X160041904Y-96495295D01*
X160041904Y-96495295D02*
X160041904Y-96590533D01*
X160041904Y-96590533D02*
X159994285Y-96733390D01*
X159994285Y-96733390D02*
X159422857Y-97304819D01*
X159422857Y-97304819D02*
X160041904Y-97304819D01*
X160011905Y-127022674D02*
X160011905Y-126022674D01*
X160011905Y-126022674D02*
X160250000Y-126022674D01*
X160250000Y-126022674D02*
X160392857Y-126070293D01*
X160392857Y-126070293D02*
X160488095Y-126165531D01*
X160488095Y-126165531D02*
X160535714Y-126260769D01*
X160535714Y-126260769D02*
X160583333Y-126451245D01*
X160583333Y-126451245D02*
X160583333Y-126594102D01*
X160583333Y-126594102D02*
X160535714Y-126784578D01*
X160535714Y-126784578D02*
X160488095Y-126879816D01*
X160488095Y-126879816D02*
X160392857Y-126975055D01*
X160392857Y-126975055D02*
X160250000Y-127022674D01*
X160250000Y-127022674D02*
X160011905Y-127022674D01*
X160916667Y-126022674D02*
X161535714Y-126022674D01*
X161535714Y-126022674D02*
X161202381Y-126403626D01*
X161202381Y-126403626D02*
X161345238Y-126403626D01*
X161345238Y-126403626D02*
X161440476Y-126451245D01*
X161440476Y-126451245D02*
X161488095Y-126498864D01*
X161488095Y-126498864D02*
X161535714Y-126594102D01*
X161535714Y-126594102D02*
X161535714Y-126832197D01*
X161535714Y-126832197D02*
X161488095Y-126927435D01*
X161488095Y-126927435D02*
X161440476Y-126975055D01*
X161440476Y-126975055D02*
X161345238Y-127022674D01*
X161345238Y-127022674D02*
X161059524Y-127022674D01*
X161059524Y-127022674D02*
X160964286Y-126975055D01*
X160964286Y-126975055D02*
X160916667Y-126927435D01*
X161916666Y-88229819D02*
X161916666Y-88944104D01*
X161916666Y-88944104D02*
X161869047Y-89086961D01*
X161869047Y-89086961D02*
X161773809Y-89182200D01*
X161773809Y-89182200D02*
X161630952Y-89229819D01*
X161630952Y-89229819D02*
X161535714Y-89229819D01*
X162297619Y-88229819D02*
X162916666Y-88229819D01*
X162916666Y-88229819D02*
X162583333Y-88610771D01*
X162583333Y-88610771D02*
X162726190Y-88610771D01*
X162726190Y-88610771D02*
X162821428Y-88658390D01*
X162821428Y-88658390D02*
X162869047Y-88706009D01*
X162869047Y-88706009D02*
X162916666Y-88801247D01*
X162916666Y-88801247D02*
X162916666Y-89039342D01*
X162916666Y-89039342D02*
X162869047Y-89134580D01*
X162869047Y-89134580D02*
X162821428Y-89182200D01*
X162821428Y-89182200D02*
X162726190Y-89229819D01*
X162726190Y-89229819D02*
X162440476Y-89229819D01*
X162440476Y-89229819D02*
X162345238Y-89182200D01*
X162345238Y-89182200D02*
X162297619Y-89134580D01*
X160543333Y-115553390D02*
X160210000Y-115077199D01*
X159971905Y-115553390D02*
X159971905Y-114553390D01*
X159971905Y-114553390D02*
X160352857Y-114553390D01*
X160352857Y-114553390D02*
X160448095Y-114601009D01*
X160448095Y-114601009D02*
X160495714Y-114648628D01*
X160495714Y-114648628D02*
X160543333Y-114743866D01*
X160543333Y-114743866D02*
X160543333Y-114886723D01*
X160543333Y-114886723D02*
X160495714Y-114981961D01*
X160495714Y-114981961D02*
X160448095Y-115029580D01*
X160448095Y-115029580D02*
X160352857Y-115077199D01*
X160352857Y-115077199D02*
X159971905Y-115077199D01*
X161114762Y-114981961D02*
X161019524Y-114934342D01*
X161019524Y-114934342D02*
X160971905Y-114886723D01*
X160971905Y-114886723D02*
X160924286Y-114791485D01*
X160924286Y-114791485D02*
X160924286Y-114743866D01*
X160924286Y-114743866D02*
X160971905Y-114648628D01*
X160971905Y-114648628D02*
X161019524Y-114601009D01*
X161019524Y-114601009D02*
X161114762Y-114553390D01*
X161114762Y-114553390D02*
X161305238Y-114553390D01*
X161305238Y-114553390D02*
X161400476Y-114601009D01*
X161400476Y-114601009D02*
X161448095Y-114648628D01*
X161448095Y-114648628D02*
X161495714Y-114743866D01*
X161495714Y-114743866D02*
X161495714Y-114791485D01*
X161495714Y-114791485D02*
X161448095Y-114886723D01*
X161448095Y-114886723D02*
X161400476Y-114934342D01*
X161400476Y-114934342D02*
X161305238Y-114981961D01*
X161305238Y-114981961D02*
X161114762Y-114981961D01*
X161114762Y-114981961D02*
X161019524Y-115029580D01*
X161019524Y-115029580D02*
X160971905Y-115077199D01*
X160971905Y-115077199D02*
X160924286Y-115172437D01*
X160924286Y-115172437D02*
X160924286Y-115362913D01*
X160924286Y-115362913D02*
X160971905Y-115458151D01*
X160971905Y-115458151D02*
X161019524Y-115505771D01*
X161019524Y-115505771D02*
X161114762Y-115553390D01*
X161114762Y-115553390D02*
X161305238Y-115553390D01*
X161305238Y-115553390D02*
X161400476Y-115505771D01*
X161400476Y-115505771D02*
X161448095Y-115458151D01*
X161448095Y-115458151D02*
X161495714Y-115362913D01*
X161495714Y-115362913D02*
X161495714Y-115172437D01*
X161495714Y-115172437D02*
X161448095Y-115077199D01*
X161448095Y-115077199D02*
X161400476Y-115029580D01*
X161400476Y-115029580D02*
X161305238Y-114981961D01*
X146133333Y-75109580D02*
X146085714Y-75157200D01*
X146085714Y-75157200D02*
X145942857Y-75204819D01*
X145942857Y-75204819D02*
X145847619Y-75204819D01*
X145847619Y-75204819D02*
X145704762Y-75157200D01*
X145704762Y-75157200D02*
X145609524Y-75061961D01*
X145609524Y-75061961D02*
X145561905Y-74966723D01*
X145561905Y-74966723D02*
X145514286Y-74776247D01*
X145514286Y-74776247D02*
X145514286Y-74633390D01*
X145514286Y-74633390D02*
X145561905Y-74442914D01*
X145561905Y-74442914D02*
X145609524Y-74347676D01*
X145609524Y-74347676D02*
X145704762Y-74252438D01*
X145704762Y-74252438D02*
X145847619Y-74204819D01*
X145847619Y-74204819D02*
X145942857Y-74204819D01*
X145942857Y-74204819D02*
X146085714Y-74252438D01*
X146085714Y-74252438D02*
X146133333Y-74300057D01*
X146514286Y-74300057D02*
X146561905Y-74252438D01*
X146561905Y-74252438D02*
X146657143Y-74204819D01*
X146657143Y-74204819D02*
X146895238Y-74204819D01*
X146895238Y-74204819D02*
X146990476Y-74252438D01*
X146990476Y-74252438D02*
X147038095Y-74300057D01*
X147038095Y-74300057D02*
X147085714Y-74395295D01*
X147085714Y-74395295D02*
X147085714Y-74490533D01*
X147085714Y-74490533D02*
X147038095Y-74633390D01*
X147038095Y-74633390D02*
X146466667Y-75204819D01*
X146466667Y-75204819D02*
X147085714Y-75204819D01*
X136087142Y-103204819D02*
X135753809Y-102728628D01*
X135515714Y-103204819D02*
X135515714Y-102204819D01*
X135515714Y-102204819D02*
X135896666Y-102204819D01*
X135896666Y-102204819D02*
X135991904Y-102252438D01*
X135991904Y-102252438D02*
X136039523Y-102300057D01*
X136039523Y-102300057D02*
X136087142Y-102395295D01*
X136087142Y-102395295D02*
X136087142Y-102538152D01*
X136087142Y-102538152D02*
X136039523Y-102633390D01*
X136039523Y-102633390D02*
X135991904Y-102681009D01*
X135991904Y-102681009D02*
X135896666Y-102728628D01*
X135896666Y-102728628D02*
X135515714Y-102728628D01*
X137039523Y-103204819D02*
X136468095Y-103204819D01*
X136753809Y-103204819D02*
X136753809Y-102204819D01*
X136753809Y-102204819D02*
X136658571Y-102347676D01*
X136658571Y-102347676D02*
X136563333Y-102442914D01*
X136563333Y-102442914D02*
X136468095Y-102490533D01*
X137658571Y-102204819D02*
X137753809Y-102204819D01*
X137753809Y-102204819D02*
X137849047Y-102252438D01*
X137849047Y-102252438D02*
X137896666Y-102300057D01*
X137896666Y-102300057D02*
X137944285Y-102395295D01*
X137944285Y-102395295D02*
X137991904Y-102585771D01*
X137991904Y-102585771D02*
X137991904Y-102823866D01*
X137991904Y-102823866D02*
X137944285Y-103014342D01*
X137944285Y-103014342D02*
X137896666Y-103109580D01*
X137896666Y-103109580D02*
X137849047Y-103157200D01*
X137849047Y-103157200D02*
X137753809Y-103204819D01*
X137753809Y-103204819D02*
X137658571Y-103204819D01*
X137658571Y-103204819D02*
X137563333Y-103157200D01*
X137563333Y-103157200D02*
X137515714Y-103109580D01*
X137515714Y-103109580D02*
X137468095Y-103014342D01*
X137468095Y-103014342D02*
X137420476Y-102823866D01*
X137420476Y-102823866D02*
X137420476Y-102585771D01*
X137420476Y-102585771D02*
X137468095Y-102395295D01*
X137468095Y-102395295D02*
X137515714Y-102300057D01*
X137515714Y-102300057D02*
X137563333Y-102252438D01*
X137563333Y-102252438D02*
X137658571Y-102204819D01*
X158157142Y-87789580D02*
X158109523Y-87837200D01*
X158109523Y-87837200D02*
X157966666Y-87884819D01*
X157966666Y-87884819D02*
X157871428Y-87884819D01*
X157871428Y-87884819D02*
X157728571Y-87837200D01*
X157728571Y-87837200D02*
X157633333Y-87741961D01*
X157633333Y-87741961D02*
X157585714Y-87646723D01*
X157585714Y-87646723D02*
X157538095Y-87456247D01*
X157538095Y-87456247D02*
X157538095Y-87313390D01*
X157538095Y-87313390D02*
X157585714Y-87122914D01*
X157585714Y-87122914D02*
X157633333Y-87027676D01*
X157633333Y-87027676D02*
X157728571Y-86932438D01*
X157728571Y-86932438D02*
X157871428Y-86884819D01*
X157871428Y-86884819D02*
X157966666Y-86884819D01*
X157966666Y-86884819D02*
X158109523Y-86932438D01*
X158109523Y-86932438D02*
X158157142Y-86980057D01*
X159109523Y-87884819D02*
X158538095Y-87884819D01*
X158823809Y-87884819D02*
X158823809Y-86884819D01*
X158823809Y-86884819D02*
X158728571Y-87027676D01*
X158728571Y-87027676D02*
X158633333Y-87122914D01*
X158633333Y-87122914D02*
X158538095Y-87170533D01*
X159442857Y-86884819D02*
X160109523Y-86884819D01*
X160109523Y-86884819D02*
X159680952Y-87884819D01*
X135885833Y-106189819D02*
X135552500Y-105713628D01*
X135314405Y-106189819D02*
X135314405Y-105189819D01*
X135314405Y-105189819D02*
X135695357Y-105189819D01*
X135695357Y-105189819D02*
X135790595Y-105237438D01*
X135790595Y-105237438D02*
X135838214Y-105285057D01*
X135838214Y-105285057D02*
X135885833Y-105380295D01*
X135885833Y-105380295D02*
X135885833Y-105523152D01*
X135885833Y-105523152D02*
X135838214Y-105618390D01*
X135838214Y-105618390D02*
X135790595Y-105666009D01*
X135790595Y-105666009D02*
X135695357Y-105713628D01*
X135695357Y-105713628D02*
X135314405Y-105713628D01*
X136362024Y-106189819D02*
X136552500Y-106189819D01*
X136552500Y-106189819D02*
X136647738Y-106142200D01*
X136647738Y-106142200D02*
X136695357Y-106094580D01*
X136695357Y-106094580D02*
X136790595Y-105951723D01*
X136790595Y-105951723D02*
X136838214Y-105761247D01*
X136838214Y-105761247D02*
X136838214Y-105380295D01*
X136838214Y-105380295D02*
X136790595Y-105285057D01*
X136790595Y-105285057D02*
X136742976Y-105237438D01*
X136742976Y-105237438D02*
X136647738Y-105189819D01*
X136647738Y-105189819D02*
X136457262Y-105189819D01*
X136457262Y-105189819D02*
X136362024Y-105237438D01*
X136362024Y-105237438D02*
X136314405Y-105285057D01*
X136314405Y-105285057D02*
X136266786Y-105380295D01*
X136266786Y-105380295D02*
X136266786Y-105618390D01*
X136266786Y-105618390D02*
X136314405Y-105713628D01*
X136314405Y-105713628D02*
X136362024Y-105761247D01*
X136362024Y-105761247D02*
X136457262Y-105808866D01*
X136457262Y-105808866D02*
X136647738Y-105808866D01*
X136647738Y-105808866D02*
X136742976Y-105761247D01*
X136742976Y-105761247D02*
X136790595Y-105713628D01*
X136790595Y-105713628D02*
X136838214Y-105618390D01*
X140583333Y-118609580D02*
X140535714Y-118657200D01*
X140535714Y-118657200D02*
X140392857Y-118704819D01*
X140392857Y-118704819D02*
X140297619Y-118704819D01*
X140297619Y-118704819D02*
X140154762Y-118657200D01*
X140154762Y-118657200D02*
X140059524Y-118561961D01*
X140059524Y-118561961D02*
X140011905Y-118466723D01*
X140011905Y-118466723D02*
X139964286Y-118276247D01*
X139964286Y-118276247D02*
X139964286Y-118133390D01*
X139964286Y-118133390D02*
X140011905Y-117942914D01*
X140011905Y-117942914D02*
X140059524Y-117847676D01*
X140059524Y-117847676D02*
X140154762Y-117752438D01*
X140154762Y-117752438D02*
X140297619Y-117704819D01*
X140297619Y-117704819D02*
X140392857Y-117704819D01*
X140392857Y-117704819D02*
X140535714Y-117752438D01*
X140535714Y-117752438D02*
X140583333Y-117800057D01*
X141059524Y-118704819D02*
X141250000Y-118704819D01*
X141250000Y-118704819D02*
X141345238Y-118657200D01*
X141345238Y-118657200D02*
X141392857Y-118609580D01*
X141392857Y-118609580D02*
X141488095Y-118466723D01*
X141488095Y-118466723D02*
X141535714Y-118276247D01*
X141535714Y-118276247D02*
X141535714Y-117895295D01*
X141535714Y-117895295D02*
X141488095Y-117800057D01*
X141488095Y-117800057D02*
X141440476Y-117752438D01*
X141440476Y-117752438D02*
X141345238Y-117704819D01*
X141345238Y-117704819D02*
X141154762Y-117704819D01*
X141154762Y-117704819D02*
X141059524Y-117752438D01*
X141059524Y-117752438D02*
X141011905Y-117800057D01*
X141011905Y-117800057D02*
X140964286Y-117895295D01*
X140964286Y-117895295D02*
X140964286Y-118133390D01*
X140964286Y-118133390D02*
X141011905Y-118228628D01*
X141011905Y-118228628D02*
X141059524Y-118276247D01*
X141059524Y-118276247D02*
X141154762Y-118323866D01*
X141154762Y-118323866D02*
X141345238Y-118323866D01*
X141345238Y-118323866D02*
X141440476Y-118276247D01*
X141440476Y-118276247D02*
X141488095Y-118228628D01*
X141488095Y-118228628D02*
X141535714Y-118133390D01*
D12*
%TO.C,ANT1*%
X136250000Y-136250000D02*
X146250000Y-136250000D01*
X136250000Y-139250000D02*
X136250000Y-136250000D01*
X146250000Y-136250000D02*
X146250000Y-139250000D01*
X146250000Y-139250000D02*
X136250000Y-139250000D01*
D13*
%TO.C,R6*%
X163937064Y-131515000D02*
X163482936Y-131515000D01*
X163937064Y-132985000D02*
X163482936Y-132985000D01*
%TO.C,J5*%
X161590000Y-101140000D02*
X161590000Y-102190000D01*
X161590000Y-106310000D02*
X160600000Y-106310000D01*
X161590000Y-107360000D02*
X161590000Y-106310000D01*
X164090000Y-101140000D02*
X161590000Y-101140000D01*
X164090000Y-107360000D02*
X161590000Y-107360000D01*
X166060000Y-106190000D02*
X166060000Y-102310000D01*
%TO.C,C11*%
X138038748Y-87515000D02*
X138561252Y-87515000D01*
X138038748Y-88985000D02*
X138561252Y-88985000D01*
%TO.C,D2*%
X147315000Y-95040000D02*
X147315000Y-96960000D01*
X147315000Y-96960000D02*
X150000000Y-96960000D01*
X150000000Y-95040000D02*
X147315000Y-95040000D01*
%TO.C,C16*%
X159061252Y-89515000D02*
X158538748Y-89515000D01*
X159061252Y-90985000D02*
X158538748Y-90985000D01*
%TO.C,U3*%
X136775000Y-95275000D02*
X136775000Y-93325000D01*
X136775000Y-95275000D02*
X136775000Y-97225000D01*
X145645000Y-95275000D02*
X145645000Y-93325000D01*
X145645000Y-95275000D02*
X145645000Y-97225000D01*
X136840000Y-97975000D02*
X136510000Y-98215000D01*
X136510000Y-97735000D01*
X136840000Y-97975000D01*
G36*
X136840000Y-97975000D02*
G01*
X136510000Y-98215000D01*
X136510000Y-97735000D01*
X136840000Y-97975000D01*
G37*
%TO.C,C13*%
X163468748Y-111515000D02*
X163991252Y-111515000D01*
X163468748Y-112985000D02*
X163991252Y-112985000D01*
D12*
%TO.C,U4*%
X152675000Y-100875000D02*
X152675000Y-100725000D01*
X152675000Y-100885000D02*
X152825000Y-100885000D01*
X155225000Y-98175000D02*
X155375000Y-98175000D01*
X155375000Y-98175000D02*
X155375000Y-98325000D01*
X155375000Y-100875000D02*
X155225000Y-100875000D01*
X155375000Y-100875000D02*
X155375000Y-100725000D01*
D13*
X152675000Y-98175000D02*
X152315000Y-98175000D01*
X152675000Y-97815000D01*
X152675000Y-98175000D01*
G36*
X152675000Y-98175000D02*
G01*
X152315000Y-98175000D01*
X152675000Y-97815000D01*
X152675000Y-98175000D01*
G37*
D11*
%TO.C,U7*%
X146625000Y-106375000D02*
X146625000Y-106600000D01*
X146625000Y-106375000D02*
X146950000Y-106375000D01*
X146625000Y-113625000D02*
X146625000Y-113300000D01*
X146625000Y-113625000D02*
X146950000Y-113625000D01*
X153875000Y-106375000D02*
X153550000Y-106375000D01*
X153875000Y-106375000D02*
X153875000Y-106700000D01*
X153875000Y-113625000D02*
X153550000Y-113625000D01*
X153875000Y-113625000D02*
X153875000Y-113300000D01*
D13*
X145860000Y-106660000D02*
X145520000Y-106190000D01*
X146200000Y-106190000D01*
X145860000Y-106660000D01*
G36*
X145860000Y-106660000D02*
G01*
X145520000Y-106190000D01*
X146200000Y-106190000D01*
X145860000Y-106660000D01*
G37*
%TO.C,U5*%
X133162500Y-85740000D02*
X132362500Y-85740000D01*
X133162500Y-85740000D02*
X133962500Y-85740000D01*
X133162500Y-88860000D02*
X132362500Y-88860000D01*
X133162500Y-88860000D02*
X133962500Y-88860000D01*
X131862500Y-85790000D02*
X131622500Y-85460000D01*
X132102500Y-85460000D01*
X131862500Y-85790000D01*
G36*
X131862500Y-85790000D02*
G01*
X131622500Y-85460000D01*
X132102500Y-85460000D01*
X131862500Y-85790000D01*
G37*
%TO.C,C10*%
X146491252Y-81030000D02*
X145968748Y-81030000D01*
X146491252Y-82500000D02*
X145968748Y-82500000D01*
%TO.C,C8*%
X142015000Y-109011252D02*
X142015000Y-108488748D01*
X143485000Y-109011252D02*
X143485000Y-108488748D01*
%TO.C,R7*%
X146022936Y-88515000D02*
X146477064Y-88515000D01*
X146022936Y-89985000D02*
X146477064Y-89985000D01*
%TO.C,D1*%
X135610000Y-80250000D02*
X131600000Y-80250000D01*
X135610000Y-82250000D02*
X131600000Y-82250000D01*
X135610000Y-82250000D02*
X135610000Y-80250000D01*
%TO.C,C4*%
X133511252Y-75015000D02*
X132988748Y-75015000D01*
X133511252Y-76485000D02*
X132988748Y-76485000D01*
%TO.C,C15*%
X132988748Y-108015000D02*
X133511252Y-108015000D01*
X132988748Y-109485000D02*
X133511252Y-109485000D01*
%TO.C,C7*%
X133511252Y-97015000D02*
X132988748Y-97015000D01*
X133511252Y-98485000D02*
X132988748Y-98485000D01*
%TO.C,R1*%
X146477064Y-78515000D02*
X146022936Y-78515000D01*
X146477064Y-79985000D02*
X146022936Y-79985000D01*
D12*
%TO.C,U1*%
X136750000Y-121750000D02*
X137250000Y-121750000D01*
X136750000Y-131450000D02*
X136750000Y-121750000D01*
X137250000Y-131450000D02*
X136750000Y-131450000D01*
X147250000Y-121750000D02*
X147750000Y-121750000D01*
X147750000Y-121750000D02*
X147750000Y-131450000D01*
X147750000Y-131450000D02*
X147250000Y-131450000D01*
D13*
%TO.C,L2*%
X153621445Y-83636596D02*
X154186596Y-83071445D01*
X154413404Y-84428555D02*
X154978555Y-83863404D01*
%TO.C,C18*%
X159061252Y-81015000D02*
X158538748Y-81015000D01*
X159061252Y-82485000D02*
X158538748Y-82485000D01*
%TO.C,R5*%
X141985000Y-112610436D02*
X141985000Y-113064564D01*
X143455000Y-112610436D02*
X143455000Y-113064564D01*
%TO.C,C19*%
X159061252Y-76515000D02*
X158538748Y-76515000D01*
X159061252Y-77985000D02*
X158538748Y-77985000D01*
%TO.C,R3*%
X148772936Y-92265000D02*
X149227064Y-92265000D01*
X148772936Y-93735000D02*
X149227064Y-93735000D01*
%TO.C,R2*%
X146022936Y-83545000D02*
X146477064Y-83545000D01*
X146022936Y-85015000D02*
X146477064Y-85015000D01*
%TO.C,R11*%
X146022936Y-86030000D02*
X146477064Y-86030000D01*
X146022936Y-87500000D02*
X146477064Y-87500000D01*
%TO.C,C6*%
X138038748Y-84765000D02*
X138561252Y-84765000D01*
X138038748Y-86235000D02*
X138561252Y-86235000D01*
%TO.C,C12*%
X157015000Y-111261252D02*
X157015000Y-110738748D01*
X158485000Y-111261252D02*
X158485000Y-110738748D01*
%TO.C,C5*%
X138038748Y-82015000D02*
X138561252Y-82015000D01*
X138038748Y-83485000D02*
X138561252Y-83485000D01*
%TO.C,C14*%
X163468748Y-117212142D02*
X163991252Y-117212142D01*
X163468748Y-118682142D02*
X163991252Y-118682142D01*
%TO.C,L1*%
X154186596Y-88928555D02*
X153621445Y-88363404D01*
X154978555Y-88136596D02*
X154413404Y-87571445D01*
%TO.C,ANT2*%
X155500000Y-74460000D02*
X156000000Y-74460000D01*
X155750000Y-73960000D02*
X155500000Y-74460000D01*
X156000000Y-74460000D02*
X155750000Y-73960000D01*
%TO.C,Y2*%
X138050000Y-111337500D02*
X140050000Y-111337500D01*
X138050000Y-112137500D02*
X138050000Y-111337500D01*
X138050000Y-114937500D02*
X138050000Y-113937500D01*
X138050000Y-115137500D02*
X140050000Y-115137500D01*
X140050000Y-111337500D02*
X140450000Y-111337500D01*
X140050000Y-114937500D02*
X138050000Y-114937500D01*
X140050000Y-114937500D02*
X140450000Y-114937500D01*
X140050000Y-115137500D02*
X140450000Y-115137500D01*
X140450000Y-111337500D02*
X140450000Y-112137500D01*
X140450000Y-113937500D02*
X140450000Y-114937500D01*
X140450000Y-113937500D02*
X140850000Y-113937500D01*
%TO.C,L3*%
X154186596Y-79928555D02*
X153621445Y-79363404D01*
X154978555Y-79136596D02*
X154413404Y-78571445D01*
%TO.C,C3*%
X133511252Y-92015000D02*
X132988748Y-92015000D01*
X133511252Y-93485000D02*
X132988748Y-93485000D01*
%TO.C,R13*%
X156985000Y-107227064D02*
X156985000Y-106772936D01*
X158455000Y-107227064D02*
X158455000Y-106772936D01*
%TO.C,R4*%
X163482936Y-128696426D02*
X163937064Y-128696426D01*
X163482936Y-130166426D02*
X163937064Y-130166426D01*
%TO.C,J4*%
X152205000Y-131190000D02*
X158325000Y-131190000D01*
X152205000Y-133250000D02*
X152205000Y-131190000D01*
X152205000Y-135310000D02*
X152205000Y-134250000D01*
X153265000Y-135310000D02*
X152205000Y-135310000D01*
X154265000Y-133250000D02*
X152205000Y-133250000D01*
X154265000Y-135310000D02*
X154265000Y-133250000D01*
X154265000Y-135310000D02*
X158325000Y-135310000D01*
X158325000Y-135310000D02*
X158325000Y-131190000D01*
%TO.C,R12*%
X158552936Y-97765000D02*
X159007064Y-97765000D01*
X158552936Y-99235000D02*
X159007064Y-99235000D01*
%TO.C,D3*%
X162065000Y-125607855D02*
X162065000Y-127527855D01*
X162065000Y-127527855D02*
X164750000Y-127527855D01*
X164750000Y-125607855D02*
X162065000Y-125607855D01*
%TO.C,J3*%
X161920000Y-95005000D02*
X161920000Y-89865000D01*
X164580000Y-89865000D02*
X161920000Y-89865000D01*
X164580000Y-95005000D02*
X161920000Y-95005000D01*
X164580000Y-95005000D02*
X164580000Y-89865000D01*
X164580000Y-96275000D02*
X164580000Y-97605000D01*
X164580000Y-97605000D02*
X163250000Y-97605000D01*
%TO.C,R8*%
X163937064Y-114363571D02*
X163482936Y-114363571D01*
X163937064Y-115833571D02*
X163482936Y-115833571D01*
%TO.C,C2*%
X146038748Y-72015000D02*
X146561252Y-72015000D01*
X146038748Y-73485000D02*
X146561252Y-73485000D01*
%TO.C,R10*%
X133002936Y-102015000D02*
X133457064Y-102015000D01*
X133002936Y-103485000D02*
X133457064Y-103485000D01*
%TO.C,C17*%
X159061252Y-85015000D02*
X158538748Y-85015000D01*
X159061252Y-86485000D02*
X158538748Y-86485000D01*
%TO.C,R9*%
X133457064Y-105000000D02*
X133002936Y-105000000D01*
X133457064Y-106470000D02*
X133002936Y-106470000D01*
%TO.C,C9*%
X138011252Y-117515000D02*
X137488748Y-117515000D01*
X138011252Y-118985000D02*
X137488748Y-118985000D01*
%TD*%
M02*
