%TF.GenerationSoftware,KiCad,Pcbnew,8.0.7*%
%TF.CreationDate,2025-01-11T16:41:09-06:00*%
%TF.ProjectId,ptSolar,7074536f-6c61-4722-9e6b-696361645f70,rev?*%
%TF.SameCoordinates,Original*%
%TF.FileFunction,Copper,L1,Top*%
%TF.FilePolarity,Positive*%
%FSLAX46Y46*%
G04 Gerber Fmt 4.6, Leading zero omitted, Abs format (unit mm)*
G04 Created by KiCad (PCBNEW 8.0.7) date 2025-01-11 16:41:09*
%MOMM*%
%LPD*%
G01*
G04 APERTURE LIST*
G04 Aperture macros list*
%AMRoundRect*
0 Rectangle with rounded corners*
0 $1 Rounding radius*
0 $2 $3 $4 $5 $6 $7 $8 $9 X,Y pos of 4 corners*
0 Add a 4 corners polygon primitive as box body*
4,1,4,$2,$3,$4,$5,$6,$7,$8,$9,$2,$3,0*
0 Add four circle primitives for the rounded corners*
1,1,$1+$1,$2,$3*
1,1,$1+$1,$4,$5*
1,1,$1+$1,$6,$7*
1,1,$1+$1,$8,$9*
0 Add four rect primitives between the rounded corners*
20,1,$1+$1,$2,$3,$4,$5,0*
20,1,$1+$1,$4,$5,$6,$7,0*
20,1,$1+$1,$6,$7,$8,$9,0*
20,1,$1+$1,$8,$9,$2,$3,0*%
G04 Aperture macros list end*
%TA.AperFunction,ComponentPad*%
%ADD10O,4.000000X3.000000*%
%TD*%
%TA.AperFunction,SMDPad,CuDef*%
%ADD11RoundRect,0.375000X0.375000X0.625000X-0.375000X0.625000X-0.375000X-0.625000X0.375000X-0.625000X0*%
%TD*%
%TA.AperFunction,SMDPad,CuDef*%
%ADD12RoundRect,0.250000X0.262500X0.450000X-0.262500X0.450000X-0.262500X-0.450000X0.262500X-0.450000X0*%
%TD*%
%TA.AperFunction,SMDPad,CuDef*%
%ADD13RoundRect,0.150000X0.625000X-0.150000X0.625000X0.150000X-0.625000X0.150000X-0.625000X-0.150000X0*%
%TD*%
%TA.AperFunction,SMDPad,CuDef*%
%ADD14RoundRect,0.250000X0.650000X-0.350000X0.650000X0.350000X-0.650000X0.350000X-0.650000X-0.350000X0*%
%TD*%
%TA.AperFunction,SMDPad,CuDef*%
%ADD15RoundRect,0.250000X-0.250000X-0.475000X0.250000X-0.475000X0.250000X0.475000X-0.250000X0.475000X0*%
%TD*%
%TA.AperFunction,SMDPad,CuDef*%
%ADD16RoundRect,0.243750X-0.243750X-0.456250X0.243750X-0.456250X0.243750X0.456250X-0.243750X0.456250X0*%
%TD*%
%TA.AperFunction,SMDPad,CuDef*%
%ADD17RoundRect,0.250000X0.250000X0.475000X-0.250000X0.475000X-0.250000X-0.475000X0.250000X-0.475000X0*%
%TD*%
%TA.AperFunction,SMDPad,CuDef*%
%ADD18RoundRect,0.150000X0.150000X-0.825000X0.150000X0.825000X-0.150000X0.825000X-0.150000X-0.825000X0*%
%TD*%
%TA.AperFunction,SMDPad,CuDef*%
%ADD19R,0.350000X0.500000*%
%TD*%
%TA.AperFunction,SMDPad,CuDef*%
%ADD20R,1.600000X0.550000*%
%TD*%
%TA.AperFunction,SMDPad,CuDef*%
%ADD21R,0.550000X1.600000*%
%TD*%
%TA.AperFunction,SMDPad,CuDef*%
%ADD22RoundRect,0.150000X-0.512500X-0.150000X0.512500X-0.150000X0.512500X0.150000X-0.512500X0.150000X0*%
%TD*%
%TA.AperFunction,SMDPad,CuDef*%
%ADD23RoundRect,0.250000X0.475000X-0.250000X0.475000X0.250000X-0.475000X0.250000X-0.475000X-0.250000X0*%
%TD*%
%TA.AperFunction,SMDPad,CuDef*%
%ADD24RoundRect,0.250000X-0.262500X-0.450000X0.262500X-0.450000X0.262500X0.450000X-0.262500X0.450000X0*%
%TD*%
%TA.AperFunction,SMDPad,CuDef*%
%ADD25RoundRect,0.225000X0.225000X0.375000X-0.225000X0.375000X-0.225000X-0.375000X0.225000X-0.375000X0*%
%TD*%
%TA.AperFunction,SMDPad,CuDef*%
%ADD26RoundRect,0.080000X0.320000X-0.820000X0.320000X0.820000X-0.320000X0.820000X-0.320000X-0.820000X0*%
%TD*%
%TA.AperFunction,SMDPad,CuDef*%
%ADD27RoundRect,0.218750X0.114905X-0.424264X0.424264X-0.114905X-0.114905X0.424264X-0.424264X0.114905X0*%
%TD*%
%TA.AperFunction,SMDPad,CuDef*%
%ADD28RoundRect,0.250000X-0.450000X0.262500X-0.450000X-0.262500X0.450000X-0.262500X0.450000X0.262500X0*%
%TD*%
%TA.AperFunction,SMDPad,CuDef*%
%ADD29RoundRect,0.218750X0.424264X0.114905X0.114905X0.424264X-0.424264X-0.114905X-0.114905X-0.424264X0*%
%TD*%
%TA.AperFunction,SMDPad,CuDef*%
%ADD30R,1.500000X5.080000*%
%TD*%
%TA.AperFunction,SMDPad,CuDef*%
%ADD31R,1.900000X0.400000*%
%TD*%
%TA.AperFunction,SMDPad,CuDef*%
%ADD32RoundRect,0.250000X0.450000X-0.262500X0.450000X0.262500X-0.450000X0.262500X-0.450000X-0.262500X0*%
%TD*%
%TA.AperFunction,ComponentPad*%
%ADD33R,1.350000X1.350000*%
%TD*%
%TA.AperFunction,ComponentPad*%
%ADD34O,1.350000X1.350000*%
%TD*%
%TA.AperFunction,ComponentPad*%
%ADD35R,1.700000X1.700000*%
%TD*%
%TA.AperFunction,ComponentPad*%
%ADD36O,1.700000X1.700000*%
%TD*%
%TA.AperFunction,ComponentPad*%
%ADD37R,2.400000X2.400000*%
%TD*%
%TA.AperFunction,ComponentPad*%
%ADD38C,2.400000*%
%TD*%
%TA.AperFunction,ViaPad*%
%ADD39C,0.600000*%
%TD*%
%TA.AperFunction,Conductor*%
%ADD40C,0.200000*%
%TD*%
%TA.AperFunction,Conductor*%
%ADD41C,1.200000*%
%TD*%
%TA.AperFunction,Conductor*%
%ADD42C,0.600000*%
%TD*%
G04 APERTURE END LIST*
D10*
%TO.P,J1,1,V+*%
%TO.N,+BATT*%
X129250000Y-72000000D03*
%TO.P,J1,2,V-*%
%TO.N,GND*%
X129250000Y-137500000D03*
%TD*%
D11*
%TO.P,ANT1,1,RF*%
%TO.N,Net-(ANT1-RF)*%
X137250000Y-137750000D03*
%TO.P,ANT1,2*%
%TO.N,N/C*%
X145250000Y-137750000D03*
%TD*%
D12*
%TO.P,R6,1*%
%TO.N,+3.3V*%
X164622500Y-132250000D03*
%TO.P,R6,2*%
%TO.N,/RESET*%
X162797500Y-132250000D03*
%TD*%
D13*
%TO.P,J5,1,Pin_1*%
%TO.N,GND*%
X161375000Y-105750000D03*
%TO.P,J5,2,Pin_2*%
%TO.N,+3.3V*%
X161375000Y-104750000D03*
%TO.P,J5,3,Pin_3*%
%TO.N,/SDA*%
X161375000Y-103750000D03*
%TO.P,J5,4,Pin_4*%
%TO.N,/SCL*%
X161375000Y-102750000D03*
D14*
%TO.P,J5,MP*%
%TO.N,N/C*%
X165250000Y-107050000D03*
X165250000Y-101450000D03*
%TD*%
D15*
%TO.P,C11,1*%
%TO.N,Net-(U5-BP)*%
X137350000Y-88250000D03*
%TO.P,C11,2*%
%TO.N,GND*%
X139250000Y-88250000D03*
%TD*%
D16*
%TO.P,D2,1,K*%
%TO.N,GND*%
X148062500Y-96000000D03*
%TO.P,D2,2,A*%
%TO.N,Net-(D2-A)*%
X149937500Y-96000000D03*
%TD*%
D17*
%TO.P,C16,1*%
%TO.N,GND*%
X159750000Y-90250000D03*
%TO.P,C16,2*%
%TO.N,Net-(U2-ANTENNA)*%
X157850000Y-90250000D03*
%TD*%
D18*
%TO.P,U3,1,VCCA*%
%TO.N,+3.3V*%
X137400000Y-97750000D03*
%TO.P,U3,2,A1*%
%TO.N,Net-(U3-A1)*%
X138670000Y-97750000D03*
%TO.P,U3,3,A2*%
%TO.N,Net-(U3-A2)*%
X139940000Y-97750000D03*
%TO.P,U3,4,A3*%
%TO.N,Net-(U3-A3)*%
X141210000Y-97750000D03*
%TO.P,U3,5,A4*%
%TO.N,/DIG-PTT*%
X142480000Y-97750000D03*
%TO.P,U3,6,NC*%
%TO.N,unconnected-(U3-NC-Pad6)*%
X143750000Y-97750000D03*
%TO.P,U3,7,GND*%
%TO.N,GND*%
X145020000Y-97750000D03*
%TO.P,U3,8,OE*%
%TO.N,Net-(U3-OE)*%
X145020000Y-92800000D03*
%TO.P,U3,9,NC*%
%TO.N,unconnected-(U3-NC-Pad9)*%
X143750000Y-92800000D03*
%TO.P,U3,10,B4*%
%TO.N,Net-(U2-PTT)*%
X142480000Y-92800000D03*
%TO.P,U3,11,B3*%
%TO.N,Net-(U2-POWER_SAVE)*%
X141210000Y-92800000D03*
%TO.P,U3,12,B2*%
%TO.N,Net-(U2-RX_DATA)*%
X139940000Y-92800000D03*
%TO.P,U3,13,B1*%
%TO.N,Net-(U2-TX_DATA)*%
X138670000Y-92800000D03*
%TO.P,U3,14,VCCB*%
%TO.N,+BATT*%
X137400000Y-92800000D03*
%TD*%
D15*
%TO.P,C13,1*%
%TO.N,Net-(U7-PD3)*%
X162780000Y-112250000D03*
%TO.P,C13,2*%
%TO.N,Net-(C13-Pad2)*%
X164680000Y-112250000D03*
%TD*%
D19*
%TO.P,U4,1,GND*%
%TO.N,GND*%
X153050000Y-98500000D03*
%TO.P,U4,2,CSB*%
%TO.N,+3.3V*%
X153700000Y-98500000D03*
%TO.P,U4,3,SDI*%
%TO.N,/SDA*%
X154350000Y-98500000D03*
%TO.P,U4,4,SCK*%
%TO.N,/SCL*%
X155000000Y-98500000D03*
%TO.P,U4,5,SDO*%
%TO.N,GND*%
X155000000Y-100550000D03*
%TO.P,U4,6,VDDIO*%
%TO.N,+3.3V*%
X154350000Y-100550000D03*
%TO.P,U4,7,GND*%
%TO.N,GND*%
X153700000Y-100550000D03*
%TO.P,U4,8,VDD*%
%TO.N,+3.3V*%
X153050000Y-100550000D03*
%TD*%
D20*
%TO.P,U7,1,PD3*%
%TO.N,Net-(U7-PD3)*%
X146000000Y-107200000D03*
%TO.P,U7,2,PD4*%
%TO.N,Net-(U3-A3)*%
X146000000Y-108000000D03*
%TO.P,U7,3,GND*%
%TO.N,GND*%
X146000000Y-108800000D03*
%TO.P,U7,4,VCC*%
%TO.N,+3.3V*%
X146000000Y-109600000D03*
%TO.P,U7,5,GND*%
%TO.N,GND*%
X146000000Y-110400000D03*
%TO.P,U7,6,VCC*%
%TO.N,+3.3V*%
X146000000Y-111200000D03*
%TO.P,U7,7,XTAL1/PB6*%
%TO.N,Net-(U7-XTAL1{slash}PB6)*%
X146000000Y-112000000D03*
%TO.P,U7,8,XTAL2/PB7*%
%TO.N,Net-(U7-XTAL2{slash}PB7)*%
X146000000Y-112800000D03*
D21*
%TO.P,U7,9,PD5*%
%TO.N,unconnected-(U7-PD5-Pad9)*%
X147450000Y-114250000D03*
%TO.P,U7,10,PD6*%
%TO.N,/GPS-EN*%
X148250000Y-114250000D03*
%TO.P,U7,11,PD7*%
%TO.N,/GPS-TX*%
X149050000Y-114250000D03*
%TO.P,U7,12,PB0*%
%TO.N,/GPS-RX*%
X149850000Y-114250000D03*
%TO.P,U7,13,PB1*%
%TO.N,Net-(U3-A2)*%
X150650000Y-114250000D03*
%TO.P,U7,14,PB2*%
%TO.N,Net-(U3-A1)*%
X151450000Y-114250000D03*
%TO.P,U7,15,PB3*%
%TO.N,/MOSI*%
X152250000Y-114250000D03*
%TO.P,U7,16,PB4*%
%TO.N,/MISO*%
X153050000Y-114250000D03*
D20*
%TO.P,U7,17,PB5*%
%TO.N,/SCK*%
X154500000Y-112800000D03*
%TO.P,U7,18,AVCC*%
%TO.N,unconnected-(U7-AVCC-Pad18)*%
X154500000Y-112000000D03*
%TO.P,U7,19,ADC6*%
%TO.N,unconnected-(U7-ADC6-Pad19)*%
X154500000Y-111200000D03*
%TO.P,U7,20,AREF*%
%TO.N,Net-(U7-AREF)*%
X154500000Y-110400000D03*
%TO.P,U7,21,GND*%
%TO.N,GND*%
X154500000Y-109600000D03*
%TO.P,U7,22,ADC7*%
%TO.N,unconnected-(U7-ADC7-Pad22)*%
X154500000Y-108800000D03*
%TO.P,U7,23,PC0*%
%TO.N,Net-(U7-PC0)*%
X154500000Y-108000000D03*
%TO.P,U7,24,PC1*%
%TO.N,/BATT-SENSE*%
X154500000Y-107200000D03*
D21*
%TO.P,U7,25,PC2*%
%TO.N,unconnected-(U7-PC2-Pad25)*%
X153050000Y-105750000D03*
%TO.P,U7,26,PC3*%
%TO.N,unconnected-(U7-PC3-Pad26)*%
X152250000Y-105750000D03*
%TO.P,U7,27,PC4*%
%TO.N,/SDA*%
X151450000Y-105750000D03*
%TO.P,U7,28,PC5*%
%TO.N,/SCL*%
X150650000Y-105750000D03*
%TO.P,U7,29,~{RESET}/PC6*%
%TO.N,/RESET*%
X149850000Y-105750000D03*
%TO.P,U7,30,PD0*%
%TO.N,Net-(J3-Pin_1)*%
X149050000Y-105750000D03*
%TO.P,U7,31,PD1*%
%TO.N,Net-(J3-Pin_2)*%
X148250000Y-105750000D03*
%TO.P,U7,32,PD2*%
%TO.N,/DIG-PTT*%
X147450000Y-105750000D03*
%TD*%
D22*
%TO.P,U5,1,IN*%
%TO.N,+BATT*%
X132025000Y-86350000D03*
%TO.P,U5,2,GND*%
%TO.N,GND*%
X132025000Y-87300000D03*
%TO.P,U5,3,EN*%
%TO.N,+BATT*%
X132025000Y-88250000D03*
%TO.P,U5,4,BP*%
%TO.N,Net-(U5-BP)*%
X134300000Y-88250000D03*
%TO.P,U5,5,OUT*%
%TO.N,+3.3V*%
X134300000Y-86350000D03*
%TD*%
D17*
%TO.P,C10,1*%
%TO.N,/BATT-SENSE*%
X147180000Y-81765000D03*
%TO.P,C10,2*%
%TO.N,GND*%
X145280000Y-81765000D03*
%TD*%
D23*
%TO.P,C8,1*%
%TO.N,+3.3V*%
X142750000Y-109700000D03*
%TO.P,C8,2*%
%TO.N,GND*%
X142750000Y-107800000D03*
%TD*%
D24*
%TO.P,R7,1*%
%TO.N,GND*%
X145337500Y-89250000D03*
%TO.P,R7,2*%
%TO.N,Net-(U3-OE)*%
X147162500Y-89250000D03*
%TD*%
D25*
%TO.P,D1,1,K*%
%TO.N,+BATT*%
X134900000Y-81250000D03*
%TO.P,D1,2,A*%
%TO.N,GND*%
X131600000Y-81250000D03*
%TD*%
D17*
%TO.P,C4,1*%
%TO.N,+BATT*%
X134200000Y-75750000D03*
%TO.P,C4,2*%
%TO.N,GND*%
X132300000Y-75750000D03*
%TD*%
D15*
%TO.P,C15,1*%
%TO.N,Net-(U7-PC0)*%
X132300000Y-108750000D03*
%TO.P,C15,2*%
%TO.N,Net-(U2-AF-OUT)*%
X134200000Y-108750000D03*
%TD*%
D17*
%TO.P,C7,1*%
%TO.N,+3.3V*%
X134200000Y-97750000D03*
%TO.P,C7,2*%
%TO.N,GND*%
X132300000Y-97750000D03*
%TD*%
D12*
%TO.P,R1,1*%
%TO.N,/BATT-SENSE*%
X147162500Y-79250000D03*
%TO.P,R1,2*%
%TO.N,+BATT*%
X145337500Y-79250000D03*
%TD*%
D26*
%TO.P,U1,1,GND*%
%TO.N,GND*%
X146650000Y-121750000D03*
%TO.P,U1,2,TXD*%
%TO.N,/GPS-RX*%
X145550000Y-121750000D03*
%TO.P,U1,3,RXD*%
%TO.N,/GPS-TX*%
X144450000Y-121750000D03*
%TO.P,U1,4,1PPS*%
%TO.N,unconnected-(U1-1PPS-Pad4)*%
X143350000Y-121750000D03*
%TO.P,U1,5,ON/OFF*%
%TO.N,/GPS-EN*%
X142250000Y-121750000D03*
%TO.P,U1,6,VBATT*%
%TO.N,+3.3V*%
X141150000Y-121750000D03*
%TO.P,U1,7,NC*%
%TO.N,unconnected-(U1-NC-Pad7)*%
X140050000Y-121750000D03*
%TO.P,U1,8,VCC*%
%TO.N,+3.3V*%
X138950000Y-121750000D03*
%TO.P,U1,9,NRESET*%
%TO.N,unconnected-(U1-NRESET-Pad9)*%
X137850000Y-121750000D03*
%TO.P,U1,10,GND*%
%TO.N,GND*%
X137850000Y-131450000D03*
%TO.P,U1,11,RF_IN*%
%TO.N,Net-(ANT1-RF)*%
X138950000Y-131450000D03*
%TO.P,U1,12,GND*%
%TO.N,GND*%
X140050000Y-131450000D03*
%TO.P,U1,13,NC*%
%TO.N,unconnected-(U1-NC-Pad13)*%
X141150000Y-131450000D03*
%TO.P,U1,14,VCC_RF*%
%TO.N,unconnected-(U1-VCC_RF-Pad14)*%
X142250000Y-131450000D03*
%TO.P,U1,15,RESERVED*%
%TO.N,unconnected-(U1-RESERVED-Pad15)*%
X143350000Y-131450000D03*
%TO.P,U1,16,SDA*%
%TO.N,unconnected-(U1-SDA-Pad16)*%
X144450000Y-131450000D03*
%TO.P,U1,17,SCL*%
%TO.N,unconnected-(U1-SCL-Pad17)*%
X145550000Y-131450000D03*
%TO.P,U1,18,RESERVED*%
%TO.N,unconnected-(U1-RESERVED-Pad18)*%
X146650000Y-131450000D03*
%TD*%
D27*
%TO.P,L2,1,1*%
%TO.N,Net-(C17-Pad2)*%
X153548699Y-84501301D03*
%TO.P,L2,2,2*%
%TO.N,Net-(C18-Pad2)*%
X155051301Y-82998699D03*
%TD*%
D10*
%TO.P,J2,1,V+*%
%TO.N,+BATT*%
X167250000Y-72000000D03*
%TO.P,J2,2,V-*%
%TO.N,GND*%
X167250000Y-137500000D03*
%TD*%
D17*
%TO.P,C18,1*%
%TO.N,GND*%
X159750000Y-81750000D03*
%TO.P,C18,2*%
%TO.N,Net-(C18-Pad2)*%
X157850000Y-81750000D03*
%TD*%
D28*
%TO.P,R5,1*%
%TO.N,Net-(U7-XTAL1{slash}PB6)*%
X142720000Y-111925000D03*
%TO.P,R5,2*%
%TO.N,Net-(U7-XTAL2{slash}PB7)*%
X142720000Y-113750000D03*
%TD*%
D17*
%TO.P,C19,1*%
%TO.N,GND*%
X159750000Y-77250000D03*
%TO.P,C19,2*%
%TO.N,Net-(ANT2-In)*%
X157850000Y-77250000D03*
%TD*%
D24*
%TO.P,R3,1*%
%TO.N,/DIG-PTT*%
X148087500Y-93000000D03*
%TO.P,R3,2*%
%TO.N,Net-(D2-A)*%
X149912500Y-93000000D03*
%TD*%
%TO.P,R2,1*%
%TO.N,GND*%
X145337500Y-84280000D03*
%TO.P,R2,2*%
%TO.N,/BATT-SENSE*%
X147162500Y-84280000D03*
%TD*%
%TO.P,R11,1*%
%TO.N,GND*%
X145337500Y-86765000D03*
%TO.P,R11,2*%
%TO.N,Net-(U2-HIGH{slash}LOW)*%
X147162500Y-86765000D03*
%TD*%
D15*
%TO.P,C6,1*%
%TO.N,+3.3V*%
X137350000Y-85500000D03*
%TO.P,C6,2*%
%TO.N,GND*%
X139250000Y-85500000D03*
%TD*%
D23*
%TO.P,C12,1*%
%TO.N,Net-(U7-AREF)*%
X157750000Y-111950000D03*
%TO.P,C12,2*%
%TO.N,GND*%
X157750000Y-110050000D03*
%TD*%
D15*
%TO.P,C5,1*%
%TO.N,+BATT*%
X137350000Y-82750000D03*
%TO.P,C5,2*%
%TO.N,GND*%
X139250000Y-82750000D03*
%TD*%
%TO.P,C14,1*%
%TO.N,Net-(U2-MIC-IN)*%
X162780000Y-117947142D03*
%TO.P,C14,2*%
%TO.N,GND*%
X164680000Y-117947142D03*
%TD*%
D29*
%TO.P,L1,1,1*%
%TO.N,Net-(U2-ANTENNA)*%
X155051301Y-89001301D03*
%TO.P,L1,2,2*%
%TO.N,Net-(C17-Pad2)*%
X153548699Y-87498699D03*
%TD*%
D30*
%TO.P,ANT2,1,In*%
%TO.N,Net-(ANT2-In)*%
X155750000Y-70750000D03*
%TO.P,ANT2,2,Ext*%
%TO.N,GND*%
X151500000Y-70750000D03*
X160000000Y-70750000D03*
%TD*%
D31*
%TO.P,Y2,1,1*%
%TO.N,Net-(U7-XTAL2{slash}PB7)*%
X139250000Y-114337500D03*
%TO.P,Y2,2,2*%
%TO.N,GND*%
X139250000Y-113137500D03*
%TO.P,Y2,3,3*%
%TO.N,Net-(U7-XTAL1{slash}PB6)*%
X139250000Y-111937500D03*
%TD*%
D29*
%TO.P,L3,1,1*%
%TO.N,Net-(C18-Pad2)*%
X155051301Y-80001301D03*
%TO.P,L3,2,2*%
%TO.N,Net-(ANT2-In)*%
X153548699Y-78498699D03*
%TD*%
D17*
%TO.P,C3,1*%
%TO.N,+BATT*%
X134200000Y-92750000D03*
%TO.P,C3,2*%
%TO.N,GND*%
X132300000Y-92750000D03*
%TD*%
D32*
%TO.P,R13,1*%
%TO.N,+3.3V*%
X157720000Y-107912500D03*
%TO.P,R13,2*%
%TO.N,/SDA*%
X157720000Y-106087500D03*
%TD*%
D24*
%TO.P,R4,1*%
%TO.N,/SCK*%
X162797500Y-129431426D03*
%TO.P,R4,2*%
%TO.N,Net-(D3-A)*%
X164622500Y-129431426D03*
%TD*%
D33*
%TO.P,J4,1,Pin_1*%
%TO.N,/MISO*%
X153265000Y-134250000D03*
D34*
%TO.P,J4,2,Pin_2*%
%TO.N,+BATT*%
X153265000Y-132250000D03*
%TO.P,J4,3,Pin_3*%
%TO.N,/SCK*%
X155265000Y-134250000D03*
%TO.P,J4,4,Pin_4*%
%TO.N,/MOSI*%
X155265000Y-132250000D03*
%TO.P,J4,5,Pin_5*%
%TO.N,/RESET*%
X157265000Y-134250000D03*
%TO.P,J4,6,Pin_6*%
%TO.N,GND*%
X157265000Y-132250000D03*
%TD*%
D24*
%TO.P,R12,1*%
%TO.N,+3.3V*%
X157867500Y-98500000D03*
%TO.P,R12,2*%
%TO.N,/SCL*%
X159692500Y-98500000D03*
%TD*%
D16*
%TO.P,D3,1,K*%
%TO.N,GND*%
X162812500Y-126567855D03*
%TO.P,D3,2,A*%
%TO.N,Net-(D3-A)*%
X164687500Y-126567855D03*
%TD*%
D35*
%TO.P,J3,1,Pin_1*%
%TO.N,Net-(J3-Pin_1)*%
X163250000Y-96275000D03*
D36*
%TO.P,J3,2,Pin_2*%
%TO.N,Net-(J3-Pin_2)*%
X163250000Y-93735000D03*
%TO.P,J3,3,Pin_3*%
%TO.N,GND*%
X163250000Y-91195000D03*
%TD*%
D12*
%TO.P,R8,1*%
%TO.N,Net-(C13-Pad2)*%
X164622500Y-115098571D03*
%TO.P,R8,2*%
%TO.N,Net-(U2-MIC-IN)*%
X162797500Y-115098571D03*
%TD*%
D15*
%TO.P,C2,1*%
%TO.N,+BATT*%
X145350000Y-72750000D03*
%TO.P,C2,2*%
%TO.N,GND*%
X147250000Y-72750000D03*
%TD*%
D24*
%TO.P,R10,1*%
%TO.N,Net-(U7-PC0)*%
X132317500Y-102750000D03*
%TO.P,R10,2*%
%TO.N,GND*%
X134142500Y-102750000D03*
%TD*%
D17*
%TO.P,C17,1*%
%TO.N,GND*%
X159750000Y-85750000D03*
%TO.P,C17,2*%
%TO.N,Net-(C17-Pad2)*%
X157850000Y-85750000D03*
%TD*%
D12*
%TO.P,R9,1*%
%TO.N,+3.3V*%
X134142500Y-105735000D03*
%TO.P,R9,2*%
%TO.N,Net-(U7-PC0)*%
X132317500Y-105735000D03*
%TD*%
D17*
%TO.P,C9,1*%
%TO.N,+3.3V*%
X138700000Y-118250000D03*
%TO.P,C9,2*%
%TO.N,GND*%
X136800000Y-118250000D03*
%TD*%
D37*
%TO.P,C1,1*%
%TO.N,+BATT*%
X141250000Y-72750000D03*
D38*
%TO.P,C1,2*%
%TO.N,GND*%
X141250000Y-80250000D03*
%TD*%
D39*
%TO.N,GND*%
X144250000Y-110750000D03*
X150250000Y-108750000D03*
X148000000Y-70000000D03*
X144500000Y-116250000D03*
X133500000Y-116000000D03*
X131000000Y-132500000D03*
X151250000Y-78583334D03*
X134750000Y-130250000D03*
X162250000Y-87083332D03*
X149750000Y-126000000D03*
X156000000Y-116500000D03*
X162250000Y-84249999D03*
X156750000Y-126000000D03*
X162250000Y-70000000D03*
X135000000Y-111500000D03*
X134750000Y-127750000D03*
X135750000Y-90250000D03*
X149750000Y-127750000D03*
X161250000Y-138750000D03*
X155000000Y-94500000D03*
X143333332Y-70000000D03*
X146750000Y-99250000D03*
X157500000Y-138750000D03*
X162500000Y-108000000D03*
X134000000Y-70000000D03*
X165000000Y-124000000D03*
X151250000Y-80500000D03*
X165000000Y-121500000D03*
X134750000Y-120750000D03*
X155000000Y-102000000D03*
X134750000Y-123250000D03*
X136750000Y-103750000D03*
X134750000Y-125250000D03*
X151250000Y-86000000D03*
X162250000Y-78583333D03*
X149750000Y-130250000D03*
X162250000Y-75750000D03*
X138666666Y-70000000D03*
X151250000Y-75750001D03*
X153750000Y-138750000D03*
X162250000Y-81416666D03*
X150250000Y-116250000D03*
X144000000Y-106500000D03*
%TO.N,Net-(U2-ANTENNA)*%
X155000000Y-92500000D03*
%TO.N,/RESET*%
X155500000Y-115000000D03*
X152250000Y-107750000D03*
%TO.N,/SCK*%
X161250000Y-129750000D03*
%TO.N,/MISO*%
X154710000Y-128250000D03*
%TO.N,+3.3V*%
X135750000Y-105750000D03*
X164750000Y-134250000D03*
X135750000Y-97750000D03*
X138950000Y-119750000D03*
X147750000Y-110250000D03*
X164750000Y-104050000D03*
X156500000Y-99525000D03*
X135750000Y-86250000D03*
%TO.N,Net-(U2-MIC-IN)*%
X161250000Y-117350000D03*
%TO.N,Net-(U2-HIGH{slash}LOW)*%
X149500000Y-86681090D03*
%TO.N,Net-(U7-PC0)*%
X152750000Y-111750000D03*
X132750000Y-111250000D03*
%TO.N,Net-(U2-POWER_SAVE)*%
X141250000Y-95250000D03*
%TO.N,Net-(U3-A1)*%
X150250000Y-111750000D03*
X138750000Y-100750000D03*
%TO.N,Net-(U2-PTT)*%
X144000000Y-95767959D03*
%TO.N,Net-(U2-TX_DATA)*%
X137000000Y-115000000D03*
%TO.N,Net-(U3-A2)*%
X139750000Y-99750000D03*
X149250000Y-109750000D03*
%TO.N,Net-(U2-RX_DATA)*%
X139500000Y-90500000D03*
%TO.N,/BATT-SENSE*%
X149000000Y-98500000D03*
X155750000Y-105250000D03*
%TO.N,Net-(U7-PD3)*%
X162750000Y-110250000D03*
X144175735Y-103324265D03*
%TO.N,Net-(U2-AF-OUT)*%
X135700000Y-110250000D03*
%TD*%
D40*
%TO.N,+BATT*%
X134900000Y-82750000D02*
X134900000Y-81250000D01*
X134150000Y-92750000D02*
X137350000Y-92750000D01*
X137350000Y-82750000D02*
X134900000Y-82750000D01*
D41*
X134750000Y-72750000D02*
X131100000Y-72750000D01*
D40*
X133300000Y-86250000D02*
X133300000Y-85300000D01*
X132025000Y-86350000D02*
X133200000Y-86350000D01*
D41*
X141250000Y-72750000D02*
X134750000Y-72750000D01*
D42*
X134700000Y-75750000D02*
X134700000Y-72800000D01*
X134700000Y-72800000D02*
X134750000Y-72750000D01*
X134900000Y-75950000D02*
X134700000Y-75750000D01*
D40*
X133300000Y-85300000D02*
X134900000Y-83700000D01*
X132025000Y-88250000D02*
X133300000Y-88250000D01*
X134900000Y-83700000D02*
X134900000Y-82750000D01*
D42*
X134900000Y-81250000D02*
X134900000Y-75950000D01*
D40*
X133300000Y-88250000D02*
X133300000Y-86250000D01*
X134150000Y-92750000D02*
X133300000Y-91900000D01*
D42*
X141250000Y-72750000D02*
X145350000Y-72750000D01*
D40*
X137350000Y-92750000D02*
X137400000Y-92800000D01*
X133200000Y-86350000D02*
X133300000Y-86250000D01*
X145337500Y-79250000D02*
X145337500Y-72762500D01*
X145337500Y-72762500D02*
X145350000Y-72750000D01*
X133300000Y-91900000D02*
X133300000Y-88250000D01*
D41*
X131100000Y-72750000D02*
X130350000Y-72000000D01*
D40*
%TO.N,GND*%
X155000000Y-100550000D02*
X155000000Y-101500000D01*
X157750000Y-110050000D02*
X157300000Y-109600000D01*
X153700000Y-100550000D02*
X153700000Y-101000000D01*
X146520000Y-99250000D02*
X146750000Y-99250000D01*
X155000000Y-102000000D02*
X155000000Y-101500000D01*
X157300000Y-109600000D02*
X154500000Y-109600000D01*
X150200000Y-108800000D02*
X146000000Y-108800000D01*
X146000000Y-110400000D02*
X144600000Y-110400000D01*
X150250000Y-108750000D02*
X150200000Y-108800000D01*
X144600000Y-110400000D02*
X144250000Y-110750000D01*
X140050000Y-131450000D02*
X140050000Y-129050000D01*
X146000000Y-108800000D02*
X143750000Y-108800000D01*
X154200000Y-101500000D02*
X155000000Y-101500000D01*
X140050000Y-129050000D02*
X140000000Y-129000000D01*
X153700000Y-101000000D02*
X154200000Y-101500000D01*
X143750000Y-108800000D02*
X142750000Y-107800000D01*
%TO.N,Net-(U2-ANTENNA)*%
X155000000Y-89052602D02*
X155051301Y-89001301D01*
X155000000Y-92500000D02*
X155000000Y-89052602D01*
%TO.N,/RESET*%
X157265000Y-134250000D02*
X158240000Y-133275000D01*
X155065686Y-115000000D02*
X153450000Y-116615686D01*
X158240000Y-133275000D02*
X158240000Y-132250000D01*
X153450000Y-125575785D02*
X156640000Y-128765785D01*
X150850000Y-107750000D02*
X149850000Y-106750000D01*
X158240000Y-131740000D02*
X158240000Y-132250000D01*
X162837500Y-132250000D02*
X158240000Y-132250000D01*
X153450000Y-116615686D02*
X153450000Y-125575785D01*
X156640000Y-130140000D02*
X158240000Y-131740000D01*
X152250000Y-107750000D02*
X150850000Y-107750000D01*
X156640000Y-128765785D02*
X156640000Y-130140000D01*
X155500000Y-115000000D02*
X155065686Y-115000000D01*
X149850000Y-106750000D02*
X149850000Y-105750000D01*
%TO.N,/MOSI*%
X152250000Y-126742500D02*
X152250000Y-114250000D01*
X155265000Y-132250000D02*
X155265000Y-129757500D01*
X155265000Y-129757500D02*
X152250000Y-126742500D01*
%TO.N,/SCK*%
X162837500Y-129750000D02*
X161250000Y-129750000D01*
X153050000Y-125741471D02*
X156240000Y-128931471D01*
X156240000Y-133275000D02*
X155265000Y-134250000D01*
X153050000Y-116450000D02*
X153050000Y-125741471D01*
X154250000Y-113050000D02*
X154250000Y-115250000D01*
X154500000Y-112800000D02*
X154250000Y-113050000D01*
X156240000Y-128931471D02*
X156240000Y-133275000D01*
X154250000Y-115250000D02*
X153050000Y-116450000D01*
%TO.N,/MISO*%
X152650000Y-126190000D02*
X154710000Y-128250000D01*
X152825000Y-115175000D02*
X152650000Y-115350000D01*
X152825000Y-114475000D02*
X152825000Y-115175000D01*
X153050000Y-114250000D02*
X152825000Y-114475000D01*
X152650000Y-115350000D02*
X152650000Y-126190000D01*
%TO.N,/SCL*%
X160959448Y-102750000D02*
X160209448Y-103500000D01*
X155000000Y-98000000D02*
X155500000Y-97500000D01*
X159500000Y-103500000D02*
X151900000Y-103500000D01*
X159692500Y-98500000D02*
X159692500Y-103307500D01*
X159692500Y-98192500D02*
X159692500Y-98500000D01*
X161375000Y-102750000D02*
X160959448Y-102750000D01*
X155000000Y-98500000D02*
X155000000Y-98000000D01*
X160209448Y-103500000D02*
X159500000Y-103500000D01*
X159000000Y-97500000D02*
X159692500Y-98192500D01*
X151900000Y-103500000D02*
X150650000Y-104750000D01*
X150650000Y-104750000D02*
X150650000Y-105750000D01*
X155500000Y-97500000D02*
X159000000Y-97500000D01*
X159692500Y-103307500D02*
X159500000Y-103500000D01*
%TO.N,/SDA*%
X151450000Y-104750000D02*
X151450000Y-105750000D01*
X154350000Y-98084315D02*
X155434315Y-97000000D01*
X155434315Y-97000000D02*
X160000000Y-97000000D01*
X161375000Y-103750000D02*
X161125000Y-104000000D01*
X163000000Y-103000000D02*
X162250000Y-103750000D01*
X163000000Y-100000000D02*
X163000000Y-103000000D01*
X160000000Y-97000000D02*
X163000000Y-100000000D01*
X162250000Y-103750000D02*
X161375000Y-103750000D01*
X157720000Y-104220000D02*
X157500000Y-104000000D01*
X154350000Y-98500000D02*
X154350000Y-98084315D01*
X157500000Y-104000000D02*
X152200000Y-104000000D01*
X157720000Y-106087500D02*
X157720000Y-104220000D01*
X152200000Y-104000000D02*
X151450000Y-104750000D01*
X161125000Y-104000000D02*
X157500000Y-104000000D01*
%TO.N,+3.3V*%
X135750000Y-97750000D02*
X137400000Y-97750000D01*
X156842500Y-99525000D02*
X157867500Y-98500000D01*
X141150000Y-120850000D02*
X140050000Y-119750000D01*
X164662500Y-134162500D02*
X164750000Y-134250000D01*
X145300000Y-109700000D02*
X142750000Y-109700000D01*
X147100000Y-109600000D02*
X147750000Y-110250000D01*
X153700000Y-99525000D02*
X156842500Y-99525000D01*
X156500000Y-99525000D02*
X156842500Y-99525000D01*
X138950000Y-118500000D02*
X138700000Y-118250000D01*
X145400000Y-109600000D02*
X145300000Y-109700000D01*
X161375000Y-104750000D02*
X160250000Y-104750000D01*
X164050000Y-104750000D02*
X161375000Y-104750000D01*
X146000000Y-109600000D02*
X145400000Y-109600000D01*
X140050000Y-119750000D02*
X138950000Y-119750000D01*
X134200000Y-97750000D02*
X135750000Y-97750000D01*
X135650000Y-86350000D02*
X135750000Y-86250000D01*
X135750000Y-86250000D02*
X135750000Y-86350000D01*
X134157500Y-105750000D02*
X134142500Y-105735000D01*
X146000000Y-109600000D02*
X147100000Y-109600000D01*
X137350000Y-85500000D02*
X136500000Y-85500000D01*
X153050000Y-100175000D02*
X153700000Y-99525000D01*
X138950000Y-121750000D02*
X138950000Y-119750000D01*
X135750000Y-105750000D02*
X134157500Y-105750000D01*
X138950000Y-119750000D02*
X138950000Y-118500000D01*
X154350000Y-100175000D02*
X154350000Y-100550000D01*
X141150000Y-121750000D02*
X141150000Y-120850000D01*
X134300000Y-86350000D02*
X135650000Y-86350000D01*
X153050000Y-100550000D02*
X153050000Y-100175000D01*
X153700000Y-99525000D02*
X154350000Y-100175000D01*
X158587500Y-107912500D02*
X157720000Y-107912500D01*
X146000000Y-111200000D02*
X146800000Y-111200000D01*
X159500000Y-105500000D02*
X159500000Y-107000000D01*
X164750000Y-104050000D02*
X164050000Y-104750000D01*
X164662500Y-132250000D02*
X164662500Y-134162500D01*
X159500000Y-107000000D02*
X158587500Y-107912500D01*
X160250000Y-104750000D02*
X159500000Y-105500000D01*
X136500000Y-85500000D02*
X135750000Y-86250000D01*
X146800000Y-111200000D02*
X147750000Y-110250000D01*
X153700000Y-98500000D02*
X153700000Y-99525000D01*
%TO.N,Net-(U7-XTAL1{slash}PB6)*%
X142737500Y-111937500D02*
X142750000Y-111925000D01*
X142825000Y-112000000D02*
X142750000Y-111925000D01*
X139250000Y-111937500D02*
X142737500Y-111937500D01*
X146000000Y-112000000D02*
X142825000Y-112000000D01*
X142912500Y-112087500D02*
X142750000Y-111925000D01*
%TO.N,Net-(U7-XTAL2{slash}PB7)*%
X142162500Y-114337500D02*
X142750000Y-113750000D01*
X139250000Y-114337500D02*
X142162500Y-114337500D01*
X146000000Y-112800000D02*
X143700000Y-112800000D01*
X143700000Y-112800000D02*
X142750000Y-113750000D01*
%TO.N,Net-(U2-MIC-IN)*%
X162780000Y-117947142D02*
X161847142Y-117947142D01*
X161847142Y-117947142D02*
X161250000Y-117350000D01*
X162837500Y-115250000D02*
X162837500Y-118212500D01*
X162837500Y-118212500D02*
X162800000Y-118250000D01*
%TO.N,/DIG-PTT*%
X144525000Y-96475000D02*
X147863571Y-93136429D01*
X147450000Y-105750000D02*
X147450000Y-103450000D01*
X146750000Y-102750000D02*
X142480000Y-98480000D01*
X147450000Y-103450000D02*
X146750000Y-102750000D01*
X147450000Y-106450000D02*
X147450000Y-105750000D01*
X142480000Y-97404448D02*
X143409448Y-96475000D01*
X142480000Y-98480000D02*
X142480000Y-97750000D01*
X143409448Y-96475000D02*
X144525000Y-96475000D01*
X147863571Y-93136429D02*
X148047500Y-93136429D01*
X142480000Y-97750000D02*
X142480000Y-97404448D01*
%TO.N,Net-(D3-A)*%
X164662500Y-126775000D02*
X164687500Y-126750000D01*
X164662500Y-129750000D02*
X164662500Y-126775000D01*
%TO.N,Net-(U2-HIGH{slash}LOW)*%
X149416090Y-86765000D02*
X147162500Y-86765000D01*
X149500000Y-86681090D02*
X149416090Y-86765000D01*
%TO.N,Net-(U3-OE)*%
X147162500Y-90657500D02*
X145020000Y-92800000D01*
X147162500Y-89250000D02*
X147162500Y-90657500D01*
%TO.N,Net-(U7-PC0)*%
X132337500Y-105072500D02*
X132515000Y-105250000D01*
X152750000Y-111750000D02*
X152750000Y-108750000D01*
X152750000Y-108750000D02*
X153500000Y-108000000D01*
X153500000Y-108000000D02*
X154500000Y-108000000D01*
X132750000Y-111250000D02*
X132300000Y-110800000D01*
X132337500Y-102250000D02*
X132337500Y-105072500D01*
X132300000Y-110800000D02*
X132300000Y-108750000D01*
X132300000Y-105465000D02*
X132515000Y-105250000D01*
X132300000Y-108750000D02*
X132300000Y-105465000D01*
%TO.N,Net-(U2-POWER_SAVE)*%
X141250000Y-93814999D02*
X141210000Y-93774999D01*
X141250000Y-95250000D02*
X141250000Y-93814999D01*
X141210000Y-93774999D02*
X141210000Y-92800000D01*
%TO.N,Net-(U3-A1)*%
X151450000Y-112950000D02*
X151450000Y-114250000D01*
X150250000Y-111750000D02*
X151450000Y-112950000D01*
X138670000Y-97750000D02*
X138670000Y-100670000D01*
X138670000Y-100670000D02*
X138750000Y-100750000D01*
%TO.N,Net-(U3-A3)*%
X144900000Y-107775000D02*
X145125000Y-108000000D01*
X145125000Y-108000000D02*
X146000000Y-108000000D01*
X144900000Y-105400000D02*
X144900000Y-107775000D01*
X141210000Y-101710000D02*
X144900000Y-105400000D01*
X141210000Y-97750000D02*
X141210000Y-101710000D01*
%TO.N,Net-(U2-PTT)*%
X142480000Y-94247959D02*
X142480000Y-92800000D01*
X144000000Y-95767959D02*
X142480000Y-94247959D01*
%TO.N,Net-(U2-TX_DATA)*%
X135500000Y-115000000D02*
X137000000Y-115000000D01*
X131000000Y-110500000D02*
X135500000Y-115000000D01*
X138670000Y-93774999D02*
X137444999Y-95000000D01*
X131000000Y-96500000D02*
X131000000Y-110500000D01*
X137444999Y-95000000D02*
X132500000Y-95000000D01*
X132500000Y-95000000D02*
X131000000Y-96500000D01*
X138670000Y-92800000D02*
X138670000Y-93774999D01*
%TO.N,Net-(U3-A2)*%
X139940000Y-99560000D02*
X139750000Y-99750000D01*
X149250000Y-109750000D02*
X149250000Y-111850000D01*
X139940000Y-97750000D02*
X139940000Y-99560000D01*
X149250000Y-111850000D02*
X150650000Y-113250000D01*
X150650000Y-113250000D02*
X150650000Y-114250000D01*
%TO.N,Net-(U2-RX_DATA)*%
X139940000Y-92800000D02*
X139940000Y-90940000D01*
X139940000Y-90940000D02*
X139500000Y-90500000D01*
%TO.N,Net-(U7-AREF)*%
X156200000Y-110400000D02*
X157750000Y-111950000D01*
X154500000Y-110400000D02*
X156200000Y-110400000D01*
%TO.N,/GPS-RX*%
X145550000Y-121750000D02*
X145550000Y-119425000D01*
X149850000Y-115125000D02*
X149850000Y-114250000D01*
X145550000Y-119425000D02*
X149850000Y-115125000D01*
%TO.N,/GPS-EN*%
X142250000Y-121750000D02*
X142250000Y-121125000D01*
X148250000Y-115125000D02*
X148250000Y-114250000D01*
X142250000Y-121125000D02*
X148250000Y-115125000D01*
%TO.N,/BATT-SENSE*%
X147180000Y-81765000D02*
X147180000Y-82180000D01*
X154500000Y-106500000D02*
X155750000Y-105250000D01*
X151000000Y-96500000D02*
X151000000Y-87000000D01*
X147162500Y-81747500D02*
X147180000Y-81765000D01*
X147162500Y-79250000D02*
X147162500Y-81747500D01*
X147180000Y-82180000D02*
X147162500Y-82197500D01*
X149000000Y-98500000D02*
X151000000Y-96500000D01*
X151000000Y-87000000D02*
X148280000Y-84280000D01*
X147162500Y-82197500D02*
X147162500Y-84280000D01*
X154500000Y-107200000D02*
X154500000Y-106500000D01*
X148280000Y-84280000D02*
X147162500Y-84280000D01*
%TO.N,Net-(U7-PD3)*%
X146000000Y-105148530D02*
X146000000Y-107200000D01*
X162800000Y-112250000D02*
X162800000Y-110300000D01*
X162800000Y-110300000D02*
X162750000Y-110250000D01*
X144175735Y-103324265D02*
X146000000Y-105148530D01*
%TO.N,/GPS-TX*%
X144450000Y-121750000D02*
X144450000Y-119725000D01*
X149050000Y-115125000D02*
X149050000Y-114250000D01*
X144450000Y-119725000D02*
X149050000Y-115125000D01*
%TO.N,Net-(U5-BP)*%
X134300000Y-88250000D02*
X137350000Y-88250000D01*
%TO.N,Net-(U2-AF-OUT)*%
X135700000Y-110250000D02*
X134200000Y-108750000D01*
%TO.N,Net-(C17-Pad2)*%
X153548699Y-85950000D02*
X153548699Y-87498699D01*
X157850000Y-85750000D02*
X153748699Y-85750000D01*
X153748699Y-85750000D02*
X153548699Y-85950000D01*
X153548699Y-84501301D02*
X153548699Y-85950000D01*
%TO.N,Net-(D2-A)*%
X149872500Y-93136429D02*
X149872500Y-95935000D01*
%TO.N,Net-(ANT1-RF)*%
X137250000Y-135250000D02*
X137250000Y-137750000D01*
X138950000Y-133550000D02*
X137250000Y-135250000D01*
X138950000Y-131450000D02*
X138950000Y-133550000D01*
%TO.N,Net-(ANT2-In)*%
X155750000Y-77250000D02*
X155273699Y-76773699D01*
X155750000Y-76297398D02*
X155273699Y-76773699D01*
X157850000Y-77250000D02*
X155750000Y-77250000D01*
X155273699Y-76773699D02*
X153548699Y-78498699D01*
X155750000Y-70750000D02*
X155750000Y-76297398D01*
%TO.N,Net-(C18-Pad2)*%
X155051301Y-80001301D02*
X155051301Y-81950000D01*
X155051301Y-81950000D02*
X155051301Y-82998699D01*
X157850000Y-81750000D02*
X155251301Y-81750000D01*
X155251301Y-81750000D02*
X155051301Y-81950000D01*
%TO.N,Net-(C13-Pad2)*%
X164700000Y-112250000D02*
X164700000Y-115212500D01*
X164700000Y-115212500D02*
X164662500Y-115250000D01*
%TO.N,Net-(J3-Pin_1)*%
X149050000Y-104950000D02*
X149050000Y-105750000D01*
X150500000Y-103500000D02*
X149050000Y-104950000D01*
X153000000Y-96500000D02*
X150500000Y-99000000D01*
X150500000Y-99000000D02*
X150500000Y-103500000D01*
X163250000Y-96275000D02*
X163025000Y-96500000D01*
X163025000Y-96500000D02*
X153000000Y-96500000D01*
%TO.N,Net-(J3-Pin_2)*%
X148250000Y-105750000D02*
X148250000Y-104674264D01*
X150000000Y-98500000D02*
X152500000Y-96000000D01*
X148250000Y-104674264D02*
X150000000Y-102924264D01*
X152500000Y-96000000D02*
X160985000Y-96000000D01*
X150000000Y-102924264D02*
X150000000Y-98500000D01*
X160985000Y-96000000D02*
X163250000Y-93735000D01*
%TD*%
%TA.AperFunction,Conductor*%
%TO.N,GND*%
G36*
X150193039Y-68270185D02*
G01*
X150238794Y-68322989D01*
X150250000Y-68374500D01*
X150250000Y-70500000D01*
X152750000Y-70500000D01*
X152750000Y-68374500D01*
X152769685Y-68307461D01*
X152822489Y-68261706D01*
X152874000Y-68250500D01*
X154375500Y-68250500D01*
X154442539Y-68270185D01*
X154488294Y-68322989D01*
X154499500Y-68374500D01*
X154499500Y-73337870D01*
X154499501Y-73337876D01*
X154505908Y-73397483D01*
X154556202Y-73532328D01*
X154556206Y-73532335D01*
X154642452Y-73647544D01*
X154642455Y-73647547D01*
X154757664Y-73733793D01*
X154757671Y-73733797D01*
X154802618Y-73750561D01*
X154892517Y-73784091D01*
X154952127Y-73790500D01*
X155025500Y-73790499D01*
X155092538Y-73810183D01*
X155138294Y-73862986D01*
X155149500Y-73914499D01*
X155149500Y-75997301D01*
X155129815Y-76064340D01*
X155113181Y-76084982D01*
X154904983Y-76293180D01*
X153873652Y-77324509D01*
X153812329Y-77357994D01*
X153757376Y-77357486D01*
X153747672Y-77355186D01*
X153579536Y-77355186D01*
X153415931Y-77393961D01*
X153415927Y-77393962D01*
X153265683Y-77469417D01*
X153265682Y-77469418D01*
X153265680Y-77469419D01*
X153265679Y-77469420D01*
X153228140Y-77500000D01*
X153188904Y-77531962D01*
X153188898Y-77531967D01*
X152581967Y-78138898D01*
X152581962Y-78138904D01*
X152581961Y-78138905D01*
X152526256Y-78207288D01*
X152519418Y-78215682D01*
X152519417Y-78215683D01*
X152443962Y-78365927D01*
X152443961Y-78365930D01*
X152443961Y-78365931D01*
X152405186Y-78529536D01*
X152405186Y-78697672D01*
X152443303Y-78858499D01*
X152443962Y-78861279D01*
X152519416Y-79011522D01*
X152519420Y-79011529D01*
X152581961Y-79088303D01*
X152959095Y-79465437D01*
X153035869Y-79527978D01*
X153186122Y-79603437D01*
X153349726Y-79642212D01*
X153349728Y-79642212D01*
X153517860Y-79642212D01*
X153517862Y-79642212D01*
X153681467Y-79603437D01*
X153831719Y-79527978D01*
X153908493Y-79465437D01*
X154515437Y-78858493D01*
X154577978Y-78781719D01*
X154653437Y-78631467D01*
X154692212Y-78467862D01*
X154692212Y-78299726D01*
X154689912Y-78290022D01*
X154693604Y-78220251D01*
X154722886Y-78173745D01*
X155186017Y-77710615D01*
X155247340Y-77677130D01*
X155317032Y-77682114D01*
X155361379Y-77710615D01*
X155381284Y-77730520D01*
X155381286Y-77730521D01*
X155381290Y-77730524D01*
X155518209Y-77809573D01*
X155518216Y-77809577D01*
X155630019Y-77839534D01*
X155670942Y-77850500D01*
X155670943Y-77850500D01*
X156761415Y-77850500D01*
X156828454Y-77870185D01*
X156874209Y-77922989D01*
X156879118Y-77935489D01*
X156915186Y-78044334D01*
X157007288Y-78193656D01*
X157131344Y-78317712D01*
X157280666Y-78409814D01*
X157447203Y-78464999D01*
X157549991Y-78475500D01*
X158150008Y-78475499D01*
X158150016Y-78475498D01*
X158150019Y-78475498D01*
X158206302Y-78469748D01*
X158252797Y-78464999D01*
X158419334Y-78409814D01*
X158568656Y-78317712D01*
X158692712Y-78193656D01*
X158694752Y-78190347D01*
X158696745Y-78188555D01*
X158697193Y-78187989D01*
X158697289Y-78188065D01*
X158746694Y-78143623D01*
X158815656Y-78132395D01*
X158879740Y-78160234D01*
X158905829Y-78190339D01*
X158907681Y-78193341D01*
X158907683Y-78193344D01*
X159031654Y-78317315D01*
X159180875Y-78409356D01*
X159180880Y-78409358D01*
X159347302Y-78464505D01*
X159347309Y-78464506D01*
X159450019Y-78474999D01*
X160000000Y-78474999D01*
X160049972Y-78474999D01*
X160049986Y-78474998D01*
X160152697Y-78464505D01*
X160319119Y-78409358D01*
X160319124Y-78409356D01*
X160468345Y-78317315D01*
X160592315Y-78193345D01*
X160684356Y-78044124D01*
X160684358Y-78044119D01*
X160739505Y-77877697D01*
X160739506Y-77877690D01*
X160749999Y-77774986D01*
X160750000Y-77774973D01*
X160750000Y-77500000D01*
X160000000Y-77500000D01*
X160000000Y-78474999D01*
X159450019Y-78474999D01*
X159499999Y-78474998D01*
X159500000Y-78474998D01*
X159500000Y-77000000D01*
X160000000Y-77000000D01*
X160749999Y-77000000D01*
X160749999Y-76725028D01*
X160749998Y-76725013D01*
X160739505Y-76622302D01*
X160684358Y-76455880D01*
X160684356Y-76455875D01*
X160592315Y-76306654D01*
X160468345Y-76182684D01*
X160319124Y-76090643D01*
X160319119Y-76090641D01*
X160152697Y-76035494D01*
X160152690Y-76035493D01*
X160049986Y-76025000D01*
X160000000Y-76025000D01*
X160000000Y-77000000D01*
X159500000Y-77000000D01*
X159500000Y-76025000D01*
X159499999Y-76024999D01*
X159450029Y-76025000D01*
X159450011Y-76025001D01*
X159347302Y-76035494D01*
X159180880Y-76090641D01*
X159180875Y-76090643D01*
X159031654Y-76182684D01*
X158907683Y-76306655D01*
X158907679Y-76306660D01*
X158905826Y-76309665D01*
X158904018Y-76311290D01*
X158903202Y-76312323D01*
X158903025Y-76312183D01*
X158853874Y-76356385D01*
X158784911Y-76367601D01*
X158720831Y-76339752D01*
X158694753Y-76309653D01*
X158694737Y-76309628D01*
X158692712Y-76306344D01*
X158568656Y-76182288D01*
X158419334Y-76090186D01*
X158252797Y-76035001D01*
X158252795Y-76035000D01*
X158150010Y-76024500D01*
X157549998Y-76024500D01*
X157549980Y-76024501D01*
X157447203Y-76035000D01*
X157447200Y-76035001D01*
X157280668Y-76090185D01*
X157280663Y-76090187D01*
X157131342Y-76182289D01*
X157007289Y-76306342D01*
X156915187Y-76455663D01*
X156915185Y-76455668D01*
X156915115Y-76455880D01*
X156885805Y-76544334D01*
X156879121Y-76564504D01*
X156839348Y-76621949D01*
X156774833Y-76648772D01*
X156761415Y-76649500D01*
X156438938Y-76649500D01*
X156371899Y-76629815D01*
X156326144Y-76577011D01*
X156316200Y-76507853D01*
X156319163Y-76493406D01*
X156329220Y-76455875D01*
X156342856Y-76404983D01*
X156350500Y-76376456D01*
X156350500Y-76218341D01*
X156350500Y-73914499D01*
X156370185Y-73847460D01*
X156422989Y-73801705D01*
X156474500Y-73790499D01*
X156547871Y-73790499D01*
X156547872Y-73790499D01*
X156607483Y-73784091D01*
X156742331Y-73733796D01*
X156857546Y-73647546D01*
X156943796Y-73532331D01*
X156994091Y-73397483D01*
X157000500Y-73337873D01*
X157000500Y-73337844D01*
X158750000Y-73337844D01*
X158756401Y-73397372D01*
X158756403Y-73397379D01*
X158806645Y-73532086D01*
X158806649Y-73532093D01*
X158892809Y-73647187D01*
X158892812Y-73647190D01*
X159007906Y-73733350D01*
X159007913Y-73733354D01*
X159142620Y-73783596D01*
X159142627Y-73783598D01*
X159202155Y-73789999D01*
X159202172Y-73790000D01*
X159750000Y-73790000D01*
X160250000Y-73790000D01*
X160797828Y-73790000D01*
X160797844Y-73789999D01*
X160857372Y-73783598D01*
X160857379Y-73783596D01*
X160992086Y-73733354D01*
X160992093Y-73733350D01*
X161107187Y-73647190D01*
X161107190Y-73647187D01*
X161193350Y-73532093D01*
X161193354Y-73532086D01*
X161243596Y-73397379D01*
X161243598Y-73397372D01*
X161249999Y-73337844D01*
X161250000Y-73337827D01*
X161250000Y-71000000D01*
X160250000Y-71000000D01*
X160250000Y-73790000D01*
X159750000Y-73790000D01*
X159750000Y-71000000D01*
X158750000Y-71000000D01*
X158750000Y-73337844D01*
X157000500Y-73337844D01*
X157000499Y-68374499D01*
X157020184Y-68307461D01*
X157072988Y-68261706D01*
X157124499Y-68250500D01*
X158626000Y-68250500D01*
X158693039Y-68270185D01*
X158738794Y-68322989D01*
X158750000Y-68374500D01*
X158750000Y-70500000D01*
X161250000Y-70500000D01*
X161250000Y-68374500D01*
X161269685Y-68307461D01*
X161322489Y-68261706D01*
X161374000Y-68250500D01*
X166625500Y-68250500D01*
X166692539Y-68270185D01*
X166738294Y-68322989D01*
X166749500Y-68374500D01*
X166749500Y-69875500D01*
X166729815Y-69942539D01*
X166677011Y-69988294D01*
X166625500Y-69999500D01*
X166618872Y-69999500D01*
X166387772Y-70029926D01*
X166358884Y-70033730D01*
X166105581Y-70101602D01*
X166105571Y-70101605D01*
X165863309Y-70201953D01*
X165863299Y-70201958D01*
X165636196Y-70333075D01*
X165428148Y-70492718D01*
X165242718Y-70678148D01*
X165083075Y-70886196D01*
X164951958Y-71113299D01*
X164951953Y-71113309D01*
X164851605Y-71355571D01*
X164851603Y-71355578D01*
X164851602Y-71355581D01*
X164788741Y-71590185D01*
X164783730Y-71608885D01*
X164749500Y-71868872D01*
X164749500Y-72131127D01*
X164776123Y-72333339D01*
X164783730Y-72391116D01*
X164851602Y-72644418D01*
X164851605Y-72644428D01*
X164951953Y-72886690D01*
X164951958Y-72886700D01*
X165083075Y-73113803D01*
X165242718Y-73321851D01*
X165242726Y-73321860D01*
X165428140Y-73507274D01*
X165428148Y-73507281D01*
X165428149Y-73507282D01*
X165476156Y-73544119D01*
X165636196Y-73666924D01*
X165863299Y-73798041D01*
X165863309Y-73798046D01*
X166068117Y-73882880D01*
X166105581Y-73898398D01*
X166358884Y-73966270D01*
X166618880Y-74000500D01*
X166625500Y-74000500D01*
X166692539Y-74020185D01*
X166738294Y-74072989D01*
X166749500Y-74124500D01*
X166749500Y-100610425D01*
X166729815Y-100677464D01*
X166677011Y-100723219D01*
X166607853Y-100733163D01*
X166544297Y-100704138D01*
X166519962Y-100675522D01*
X166492714Y-100631347D01*
X166492711Y-100631343D01*
X166368657Y-100507289D01*
X166368656Y-100507288D01*
X166219334Y-100415186D01*
X166052797Y-100360001D01*
X166052795Y-100360000D01*
X165950010Y-100349500D01*
X164549998Y-100349500D01*
X164549981Y-100349501D01*
X164447203Y-100360000D01*
X164447200Y-100360001D01*
X164280668Y-100415185D01*
X164280663Y-100415187D01*
X164131342Y-100507289D01*
X164007289Y-100631342D01*
X163915187Y-100780663D01*
X163915186Y-100780666D01*
X163860001Y-100947203D01*
X163860001Y-100947204D01*
X163860000Y-100947204D01*
X163849500Y-101049983D01*
X163849500Y-101850001D01*
X163849501Y-101850019D01*
X163860000Y-101952796D01*
X163860001Y-101952799D01*
X163901727Y-102078717D01*
X163915186Y-102119334D01*
X164007288Y-102268656D01*
X164131344Y-102392712D01*
X164280666Y-102484814D01*
X164447203Y-102539999D01*
X164549991Y-102550500D01*
X165950008Y-102550499D01*
X166052797Y-102539999D01*
X166219334Y-102484814D01*
X166368656Y-102392712D01*
X166492712Y-102268656D01*
X166519961Y-102224477D01*
X166571909Y-102177753D01*
X166640871Y-102166530D01*
X166704953Y-102194373D01*
X166743810Y-102252442D01*
X166749500Y-102289574D01*
X166749500Y-106210425D01*
X166729815Y-106277464D01*
X166677011Y-106323219D01*
X166607853Y-106333163D01*
X166544297Y-106304138D01*
X166519962Y-106275522D01*
X166492714Y-106231347D01*
X166492711Y-106231343D01*
X166368657Y-106107289D01*
X166368656Y-106107288D01*
X166267930Y-106045160D01*
X166219336Y-106015187D01*
X166219331Y-106015185D01*
X166181008Y-106002486D01*
X166052797Y-105960001D01*
X166052795Y-105960000D01*
X165950010Y-105949500D01*
X164549998Y-105949500D01*
X164549981Y-105949501D01*
X164447203Y-105960000D01*
X164447200Y-105960001D01*
X164280668Y-106015185D01*
X164280663Y-106015187D01*
X164131342Y-106107289D01*
X164007289Y-106231342D01*
X163915187Y-106380663D01*
X163915185Y-106380668D01*
X163902921Y-106417678D01*
X163860001Y-106547203D01*
X163860001Y-106547204D01*
X163860000Y-106547204D01*
X163849500Y-106649983D01*
X163849500Y-107450001D01*
X163849501Y-107450019D01*
X163860000Y-107552796D01*
X163860001Y-107552799D01*
X163902910Y-107682287D01*
X163915186Y-107719334D01*
X164007288Y-107868656D01*
X164131344Y-107992712D01*
X164280666Y-108084814D01*
X164447203Y-108139999D01*
X164549991Y-108150500D01*
X165950008Y-108150499D01*
X166052797Y-108139999D01*
X166219334Y-108084814D01*
X166368656Y-107992712D01*
X166492712Y-107868656D01*
X166519961Y-107824477D01*
X166571909Y-107777753D01*
X166640871Y-107766530D01*
X166704953Y-107794373D01*
X166743810Y-107852442D01*
X166749500Y-107889574D01*
X166749500Y-135376000D01*
X166729815Y-135443039D01*
X166677011Y-135488794D01*
X166625500Y-135500000D01*
X166618905Y-135500000D01*
X166358990Y-135534220D01*
X166358979Y-135534222D01*
X166105744Y-135602075D01*
X165863528Y-135702404D01*
X165863517Y-135702409D01*
X165636471Y-135833496D01*
X165428480Y-135993092D01*
X165428473Y-135993098D01*
X165243098Y-136178473D01*
X165243092Y-136178480D01*
X165083496Y-136386471D01*
X164952409Y-136613517D01*
X164952404Y-136613528D01*
X164852075Y-136855744D01*
X164784221Y-137108983D01*
X164765654Y-137249999D01*
X164765655Y-137250000D01*
X166024015Y-137250000D01*
X166000000Y-137401623D01*
X166000000Y-137598377D01*
X166024015Y-137750000D01*
X164765655Y-137750000D01*
X164784221Y-137891016D01*
X164852075Y-138144255D01*
X164952404Y-138386471D01*
X164952409Y-138386482D01*
X165083496Y-138613528D01*
X165243092Y-138821519D01*
X165243098Y-138821526D01*
X165428473Y-139006901D01*
X165428480Y-139006907D01*
X165636471Y-139166503D01*
X165863517Y-139297590D01*
X165863528Y-139297595D01*
X166105744Y-139397924D01*
X166358979Y-139465777D01*
X166358990Y-139465779D01*
X166618905Y-139499999D01*
X166618920Y-139500000D01*
X166625500Y-139500000D01*
X166692539Y-139519685D01*
X166738294Y-139572489D01*
X166749500Y-139624000D01*
X166749500Y-140625500D01*
X166729815Y-140692539D01*
X166677011Y-140738294D01*
X166625500Y-140749500D01*
X150874000Y-140749500D01*
X150806961Y-140729815D01*
X150761206Y-140677011D01*
X150750000Y-140625500D01*
X150750000Y-132750000D01*
X147583734Y-132750000D01*
X147516695Y-132730315D01*
X147470940Y-132677511D01*
X147460996Y-132608353D01*
X147474151Y-132570344D01*
X147473956Y-132570264D01*
X147475313Y-132566985D01*
X147476348Y-132563998D01*
X147477060Y-132562761D01*
X147477066Y-132562755D01*
X147535558Y-132421541D01*
X147550500Y-132308047D01*
X147550499Y-130591954D01*
X147535558Y-130478459D01*
X147477066Y-130337245D01*
X147477065Y-130337244D01*
X147477065Y-130337243D01*
X147384017Y-130215982D01*
X147262756Y-130122934D01*
X147262753Y-130122933D01*
X147121544Y-130064443D01*
X147121542Y-130064442D01*
X147121541Y-130064442D01*
X147008047Y-130049500D01*
X146291951Y-130049500D01*
X146178461Y-130064440D01*
X146178456Y-130064442D01*
X146147451Y-130077285D01*
X146077982Y-130084754D01*
X146052556Y-130077288D01*
X146021541Y-130064442D01*
X146021538Y-130064441D01*
X146021537Y-130064441D01*
X145908047Y-130049500D01*
X145191951Y-130049500D01*
X145078461Y-130064440D01*
X145078456Y-130064442D01*
X145047451Y-130077285D01*
X144977982Y-130084754D01*
X144952556Y-130077288D01*
X144921541Y-130064442D01*
X144921538Y-130064441D01*
X144921537Y-130064441D01*
X144808047Y-130049500D01*
X144091951Y-130049500D01*
X143978461Y-130064440D01*
X143978456Y-130064442D01*
X143947451Y-130077285D01*
X143877982Y-130084754D01*
X143852556Y-130077288D01*
X143821541Y-130064442D01*
X143821538Y-130064441D01*
X143821537Y-130064441D01*
X143708047Y-130049500D01*
X142991951Y-130049500D01*
X142878461Y-130064440D01*
X142878456Y-130064442D01*
X142847451Y-130077285D01*
X142777982Y-130084754D01*
X142752556Y-130077288D01*
X142721541Y-130064442D01*
X142721538Y-130064441D01*
X142721537Y-130064441D01*
X142608047Y-130049500D01*
X141891951Y-130049500D01*
X141778461Y-130064440D01*
X141778456Y-130064442D01*
X141747451Y-130077285D01*
X141677982Y-130084754D01*
X141652556Y-130077288D01*
X141621541Y-130064442D01*
X141621538Y-130064441D01*
X141621537Y-130064441D01*
X141508047Y-130049500D01*
X140791951Y-130049500D01*
X140678461Y-130064440D01*
X140678459Y-130064441D01*
X140646797Y-130077556D01*
X140577327Y-130085023D01*
X140551895Y-130077556D01*
X140521409Y-130064929D01*
X140408023Y-130050000D01*
X139691976Y-130050000D01*
X139578591Y-130064929D01*
X139578586Y-130064930D01*
X139548103Y-130077556D01*
X139478633Y-130085023D01*
X139453203Y-130077556D01*
X139421544Y-130064443D01*
X139421542Y-130064442D01*
X139421541Y-130064442D01*
X139308047Y-130049500D01*
X138591951Y-130049500D01*
X138478461Y-130064440D01*
X138478459Y-130064441D01*
X138446797Y-130077556D01*
X138377327Y-130085023D01*
X138351895Y-130077556D01*
X138321409Y-130064929D01*
X138208023Y-130050000D01*
X137491976Y-130050000D01*
X137378591Y-130064929D01*
X137378586Y-130064930D01*
X137237499Y-130123369D01*
X137116335Y-130216342D01*
X137052753Y-130299202D01*
X137939094Y-131185543D01*
X137972579Y-131246866D01*
X137967595Y-131316558D01*
X137939095Y-131360905D01*
X137850000Y-131450000D01*
X137939094Y-131539094D01*
X137972579Y-131600417D01*
X137967595Y-131670109D01*
X137939094Y-131714456D01*
X137052755Y-132600794D01*
X137050572Y-132634110D01*
X137026544Y-132699719D01*
X136970861Y-132741922D01*
X136926837Y-132750000D01*
X132250000Y-132750000D01*
X132250000Y-140625500D01*
X132230315Y-140692539D01*
X132177511Y-140738294D01*
X132126000Y-140749500D01*
X129874500Y-140749500D01*
X129807461Y-140729815D01*
X129761706Y-140677011D01*
X129750500Y-140625500D01*
X129750500Y-139624000D01*
X129770185Y-139556961D01*
X129822989Y-139511206D01*
X129874500Y-139500000D01*
X129881080Y-139500000D01*
X129881094Y-139499999D01*
X130141009Y-139465779D01*
X130141020Y-139465777D01*
X130394255Y-139397924D01*
X130636471Y-139297595D01*
X130636482Y-139297590D01*
X130863528Y-139166503D01*
X131071519Y-139006907D01*
X131071526Y-139006901D01*
X131256901Y-138821526D01*
X131256907Y-138821519D01*
X131416503Y-138613528D01*
X131547590Y-138386482D01*
X131547595Y-138386471D01*
X131647924Y-138144255D01*
X131715778Y-137891016D01*
X131734345Y-137750000D01*
X130475985Y-137750000D01*
X130500000Y-137598377D01*
X130500000Y-137401623D01*
X130475985Y-137250000D01*
X131734345Y-137250000D01*
X131734345Y-137249999D01*
X131715778Y-137108983D01*
X131647924Y-136855744D01*
X131547595Y-136613528D01*
X131547590Y-136613517D01*
X131416503Y-136386471D01*
X131256907Y-136178480D01*
X131256901Y-136178473D01*
X131071526Y-135993098D01*
X131071519Y-135993092D01*
X130863528Y-135833496D01*
X130636482Y-135702409D01*
X130636471Y-135702404D01*
X130394255Y-135602075D01*
X130141020Y-135534222D01*
X130141009Y-135534220D01*
X129881094Y-135500000D01*
X129874500Y-135500000D01*
X129807461Y-135480315D01*
X129761706Y-135427511D01*
X129750500Y-135376000D01*
X129750500Y-131996448D01*
X136950000Y-131996448D01*
X137496447Y-131450000D01*
X137496447Y-131449999D01*
X136950000Y-130903551D01*
X136950000Y-131996448D01*
X129750500Y-131996448D01*
X129750500Y-118774986D01*
X135800001Y-118774986D01*
X135810494Y-118877697D01*
X135865641Y-119044119D01*
X135865643Y-119044124D01*
X135957684Y-119193345D01*
X136081654Y-119317315D01*
X136230875Y-119409356D01*
X136230880Y-119409358D01*
X136397302Y-119464505D01*
X136397309Y-119464506D01*
X136500019Y-119474999D01*
X136549999Y-119474998D01*
X136550000Y-119474998D01*
X136550000Y-118500000D01*
X135800001Y-118500000D01*
X135800001Y-118774986D01*
X129750500Y-118774986D01*
X129750500Y-117725013D01*
X135800000Y-117725013D01*
X135800000Y-118000000D01*
X136550000Y-118000000D01*
X136550000Y-117025000D01*
X136549999Y-117024999D01*
X136500029Y-117025000D01*
X136500011Y-117025001D01*
X136397302Y-117035494D01*
X136230880Y-117090641D01*
X136230875Y-117090643D01*
X136081654Y-117182684D01*
X135957684Y-117306654D01*
X135865643Y-117455875D01*
X135865641Y-117455880D01*
X135810494Y-117622302D01*
X135810493Y-117622309D01*
X135800000Y-117725013D01*
X129750500Y-117725013D01*
X129750500Y-93274986D01*
X131300001Y-93274986D01*
X131310494Y-93377697D01*
X131365641Y-93544119D01*
X131365643Y-93544124D01*
X131457684Y-93693345D01*
X131581654Y-93817315D01*
X131730875Y-93909356D01*
X131730880Y-93909358D01*
X131897302Y-93964505D01*
X131897309Y-93964506D01*
X132000019Y-93974999D01*
X132049999Y-93974998D01*
X132050000Y-93974998D01*
X132050000Y-93000000D01*
X131300001Y-93000000D01*
X131300001Y-93274986D01*
X129750500Y-93274986D01*
X129750500Y-92225013D01*
X131300000Y-92225013D01*
X131300000Y-92500000D01*
X132050000Y-92500000D01*
X132050000Y-91525000D01*
X132049999Y-91524999D01*
X132000029Y-91525000D01*
X132000011Y-91525001D01*
X131897302Y-91535494D01*
X131730880Y-91590641D01*
X131730875Y-91590643D01*
X131581654Y-91682684D01*
X131457684Y-91806654D01*
X131365643Y-91955875D01*
X131365641Y-91955880D01*
X131310494Y-92122302D01*
X131310493Y-92122309D01*
X131300000Y-92225013D01*
X129750500Y-92225013D01*
X129750500Y-81673322D01*
X130650001Y-81673322D01*
X130660144Y-81772607D01*
X130713452Y-81933481D01*
X130713457Y-81933492D01*
X130802424Y-82077728D01*
X130802427Y-82077732D01*
X130922267Y-82197572D01*
X130922271Y-82197575D01*
X131066507Y-82286542D01*
X131066518Y-82286547D01*
X131227393Y-82339855D01*
X131326683Y-82349999D01*
X131850000Y-82349999D01*
X131873308Y-82349999D01*
X131873322Y-82349998D01*
X131972607Y-82339855D01*
X132133481Y-82286547D01*
X132133492Y-82286542D01*
X132277728Y-82197575D01*
X132277732Y-82197572D01*
X132397572Y-82077732D01*
X132397575Y-82077728D01*
X132486542Y-81933492D01*
X132486547Y-81933481D01*
X132539855Y-81772606D01*
X132549999Y-81673322D01*
X132550000Y-81673309D01*
X132550000Y-81500000D01*
X131850000Y-81500000D01*
X131850000Y-82349999D01*
X131326683Y-82349999D01*
X131350000Y-82349998D01*
X131350000Y-81500000D01*
X130650001Y-81500000D01*
X130650001Y-81673322D01*
X129750500Y-81673322D01*
X129750500Y-80826677D01*
X130650000Y-80826677D01*
X130650000Y-81000000D01*
X131350000Y-81000000D01*
X131850000Y-81000000D01*
X132549999Y-81000000D01*
X132549999Y-80826692D01*
X132549998Y-80826677D01*
X132539855Y-80727392D01*
X132486547Y-80566518D01*
X132486542Y-80566507D01*
X132397575Y-80422271D01*
X132397572Y-80422267D01*
X132277732Y-80302427D01*
X132277728Y-80302424D01*
X132133492Y-80213457D01*
X132133481Y-80213452D01*
X131972606Y-80160144D01*
X131873322Y-80150000D01*
X131850000Y-80150000D01*
X131850000Y-81000000D01*
X131350000Y-81000000D01*
X131350000Y-80149999D01*
X131326693Y-80150000D01*
X131326674Y-80150001D01*
X131227392Y-80160144D01*
X131066518Y-80213452D01*
X131066507Y-80213457D01*
X130922271Y-80302424D01*
X130922267Y-80302427D01*
X130802427Y-80422267D01*
X130802424Y-80422271D01*
X130713457Y-80566507D01*
X130713452Y-80566518D01*
X130660144Y-80727393D01*
X130650000Y-80826677D01*
X129750500Y-80826677D01*
X129750500Y-76274986D01*
X131300001Y-76274986D01*
X131310494Y-76377697D01*
X131365641Y-76544119D01*
X131365643Y-76544124D01*
X131457684Y-76693345D01*
X131581654Y-76817315D01*
X131730875Y-76909356D01*
X131730880Y-76909358D01*
X131897302Y-76964505D01*
X131897309Y-76964506D01*
X132000019Y-76974999D01*
X132049999Y-76974998D01*
X132050000Y-76974998D01*
X132050000Y-76000000D01*
X131300001Y-76000000D01*
X131300001Y-76274986D01*
X129750500Y-76274986D01*
X129750500Y-75225013D01*
X131300000Y-75225013D01*
X131300000Y-75500000D01*
X132050000Y-75500000D01*
X132050000Y-74525000D01*
X132049999Y-74524999D01*
X132000029Y-74525000D01*
X132000011Y-74525001D01*
X131897302Y-74535494D01*
X131730880Y-74590641D01*
X131730875Y-74590643D01*
X131581654Y-74682684D01*
X131457684Y-74806654D01*
X131365643Y-74955875D01*
X131365641Y-74955880D01*
X131310494Y-75122302D01*
X131310493Y-75122309D01*
X131300000Y-75225013D01*
X129750500Y-75225013D01*
X129750500Y-74124500D01*
X129770185Y-74057461D01*
X129822989Y-74011706D01*
X129874500Y-74000500D01*
X129881113Y-74000500D01*
X129881120Y-74000500D01*
X130141116Y-73966270D01*
X130394419Y-73898398D01*
X130636697Y-73798043D01*
X130636720Y-73798029D01*
X130640340Y-73796246D01*
X130641027Y-73797639D01*
X130702637Y-73782650D01*
X130735132Y-73788580D01*
X130842299Y-73823402D01*
X131013389Y-73850500D01*
X131186611Y-73850500D01*
X133775500Y-73850500D01*
X133842539Y-73870185D01*
X133888294Y-73922989D01*
X133899500Y-73974500D01*
X133899500Y-74412837D01*
X133879815Y-74479876D01*
X133827011Y-74525631D01*
X133801459Y-74534089D01*
X133797207Y-74534999D01*
X133630668Y-74590185D01*
X133630663Y-74590187D01*
X133481342Y-74682289D01*
X133357288Y-74806343D01*
X133357283Y-74806349D01*
X133355241Y-74809661D01*
X133353247Y-74811453D01*
X133352807Y-74812011D01*
X133352711Y-74811935D01*
X133303291Y-74856383D01*
X133234328Y-74867602D01*
X133170247Y-74839755D01*
X133144168Y-74809656D01*
X133142319Y-74806659D01*
X133142316Y-74806655D01*
X133018345Y-74682684D01*
X132869124Y-74590643D01*
X132869119Y-74590641D01*
X132702697Y-74535494D01*
X132702690Y-74535493D01*
X132599986Y-74525000D01*
X132550000Y-74525000D01*
X132550000Y-76974999D01*
X132599972Y-76974999D01*
X132599986Y-76974998D01*
X132702697Y-76964505D01*
X132869119Y-76909358D01*
X132869124Y-76909356D01*
X133018345Y-76817315D01*
X133142318Y-76693342D01*
X133144165Y-76690348D01*
X133145969Y-76688724D01*
X133146798Y-76687677D01*
X133146976Y-76687818D01*
X133196110Y-76643621D01*
X133265073Y-76632396D01*
X133329156Y-76660236D01*
X133355243Y-76690341D01*
X133357288Y-76693656D01*
X133481344Y-76817712D01*
X133630666Y-76909814D01*
X133797203Y-76964999D01*
X133899991Y-76975500D01*
X133975500Y-76975499D01*
X134042538Y-76995183D01*
X134088294Y-77047986D01*
X134099500Y-77099499D01*
X134099500Y-80390893D01*
X134081039Y-80455990D01*
X134012998Y-80566300D01*
X134012996Y-80566305D01*
X133959651Y-80727290D01*
X133949500Y-80826647D01*
X133949500Y-81673337D01*
X133949501Y-81673355D01*
X133959650Y-81772707D01*
X133959651Y-81772710D01*
X134012996Y-81933694D01*
X134013001Y-81933705D01*
X134102029Y-82078040D01*
X134102032Y-82078044D01*
X134221956Y-82197968D01*
X134240596Y-82209465D01*
X134287321Y-82261412D01*
X134299500Y-82315004D01*
X134299500Y-83399902D01*
X134279815Y-83466941D01*
X134263181Y-83487583D01*
X132819481Y-84931282D01*
X132819477Y-84931287D01*
X132771649Y-85014130D01*
X132771648Y-85014129D01*
X132740424Y-85068211D01*
X132740423Y-85068215D01*
X132699499Y-85220943D01*
X132699499Y-85220945D01*
X132699499Y-85389046D01*
X132699500Y-85389059D01*
X132699500Y-85425500D01*
X132679815Y-85492539D01*
X132627011Y-85538294D01*
X132575500Y-85549500D01*
X131446798Y-85549500D01*
X131409932Y-85552401D01*
X131409926Y-85552402D01*
X131252106Y-85598254D01*
X131252103Y-85598255D01*
X131110637Y-85681917D01*
X131110629Y-85681923D01*
X130994423Y-85798129D01*
X130994417Y-85798137D01*
X130910755Y-85939603D01*
X130910754Y-85939606D01*
X130864902Y-86097426D01*
X130864901Y-86097432D01*
X130862000Y-86134298D01*
X130862000Y-86565701D01*
X130864901Y-86602567D01*
X130864902Y-86602573D01*
X130910754Y-86760393D01*
X130910756Y-86760399D01*
X130911926Y-86762377D01*
X130912369Y-86764126D01*
X130913853Y-86767554D01*
X130913299Y-86767793D01*
X130929103Y-86830102D01*
X130913749Y-86882395D01*
X130914317Y-86882641D01*
X130912327Y-86887239D01*
X130911928Y-86888599D01*
X130911222Y-86889791D01*
X130911216Y-86889806D01*
X130865400Y-87047505D01*
X130865399Y-87047511D01*
X130865204Y-87049998D01*
X130865205Y-87050000D01*
X131130685Y-87050000D01*
X131193806Y-87067268D01*
X131252102Y-87101744D01*
X131293724Y-87113836D01*
X131409926Y-87147597D01*
X131409929Y-87147597D01*
X131409931Y-87147598D01*
X131446806Y-87150500D01*
X131446814Y-87150500D01*
X131901000Y-87150500D01*
X131968039Y-87170185D01*
X132013794Y-87222989D01*
X132025000Y-87274500D01*
X132025000Y-87325500D01*
X132005315Y-87392539D01*
X131952511Y-87438294D01*
X131901000Y-87449500D01*
X131446798Y-87449500D01*
X131409932Y-87452401D01*
X131409926Y-87452402D01*
X131252106Y-87498254D01*
X131252103Y-87498255D01*
X131193806Y-87532732D01*
X131130685Y-87550000D01*
X130865205Y-87550000D01*
X130865204Y-87550001D01*
X130865399Y-87552488D01*
X130865400Y-87552494D01*
X130911216Y-87710193D01*
X130911220Y-87710203D01*
X130911927Y-87711398D01*
X130912195Y-87712454D01*
X130914316Y-87717356D01*
X130913524Y-87717698D01*
X130929103Y-87779123D01*
X130913493Y-87832284D01*
X130913855Y-87832441D01*
X130912587Y-87835369D01*
X130911927Y-87837620D01*
X130910759Y-87839594D01*
X130910754Y-87839607D01*
X130864902Y-87997426D01*
X130864901Y-87997432D01*
X130862000Y-88034298D01*
X130862000Y-88465701D01*
X130864901Y-88502567D01*
X130864902Y-88502573D01*
X130910754Y-88660393D01*
X130910755Y-88660396D01*
X130994417Y-88801862D01*
X130994423Y-88801870D01*
X131110629Y-88918076D01*
X131110633Y-88918079D01*
X131110635Y-88918081D01*
X131252102Y-89001744D01*
X131293724Y-89013836D01*
X131409926Y-89047597D01*
X131409929Y-89047597D01*
X131409931Y-89047598D01*
X131446806Y-89050500D01*
X131446814Y-89050500D01*
X132575500Y-89050500D01*
X132642539Y-89070185D01*
X132688294Y-89122989D01*
X132699500Y-89174500D01*
X132699500Y-91401000D01*
X132679815Y-91468039D01*
X132627011Y-91513794D01*
X132575500Y-91525000D01*
X132550000Y-91525000D01*
X132550000Y-93974999D01*
X132599972Y-93974999D01*
X132599986Y-93974998D01*
X132702697Y-93964505D01*
X132869119Y-93909358D01*
X132869124Y-93909356D01*
X133018345Y-93817315D01*
X133142318Y-93693342D01*
X133144165Y-93690348D01*
X133145969Y-93688724D01*
X133146798Y-93687677D01*
X133146976Y-93687818D01*
X133196110Y-93643621D01*
X133265073Y-93632396D01*
X133329156Y-93660236D01*
X133355243Y-93690341D01*
X133357288Y-93693656D01*
X133481344Y-93817712D01*
X133630666Y-93909814D01*
X133797203Y-93964999D01*
X133899991Y-93975500D01*
X134500008Y-93975499D01*
X134500016Y-93975498D01*
X134500019Y-93975498D01*
X134556302Y-93969748D01*
X134602797Y-93964999D01*
X134769334Y-93909814D01*
X134918656Y-93817712D01*
X135042712Y-93693656D01*
X135134814Y-93544334D01*
X135170879Y-93435494D01*
X135210652Y-93378051D01*
X135275167Y-93351228D01*
X135288585Y-93350500D01*
X136475500Y-93350500D01*
X136542539Y-93370185D01*
X136588294Y-93422989D01*
X136599500Y-93474500D01*
X136599500Y-93690701D01*
X136602401Y-93727567D01*
X136602402Y-93727573D01*
X136648254Y-93885393D01*
X136648255Y-93885396D01*
X136731917Y-94026862D01*
X136731923Y-94026870D01*
X136848129Y-94143076D01*
X136848138Y-94143083D01*
X136891569Y-94168768D01*
X136939253Y-94219837D01*
X136951756Y-94288579D01*
X136925111Y-94353168D01*
X136867775Y-94393098D01*
X136828448Y-94399500D01*
X132420940Y-94399500D01*
X132380019Y-94410464D01*
X132380019Y-94410465D01*
X132342751Y-94420451D01*
X132268214Y-94440423D01*
X132268209Y-94440426D01*
X132131290Y-94519475D01*
X132131282Y-94519481D01*
X130519481Y-96131282D01*
X130519480Y-96131284D01*
X130478370Y-96202489D01*
X130440423Y-96268215D01*
X130399499Y-96420943D01*
X130399499Y-96420945D01*
X130399499Y-96589046D01*
X130399500Y-96589059D01*
X130399500Y-110413330D01*
X130399499Y-110413348D01*
X130399499Y-110579054D01*
X130399498Y-110579054D01*
X130440423Y-110731786D01*
X130440424Y-110731787D01*
X130468560Y-110780520D01*
X130519480Y-110868716D01*
X130519482Y-110868718D01*
X130638349Y-110987585D01*
X130638355Y-110987590D01*
X135015139Y-115364374D01*
X135015149Y-115364385D01*
X135019479Y-115368715D01*
X135019480Y-115368716D01*
X135131284Y-115480520D01*
X135201003Y-115520771D01*
X135218095Y-115530639D01*
X135218097Y-115530641D01*
X135243515Y-115545316D01*
X135268215Y-115559577D01*
X135420943Y-115600501D01*
X135420946Y-115600501D01*
X135586653Y-115600501D01*
X135586669Y-115600500D01*
X136417588Y-115600500D01*
X136484627Y-115620185D01*
X136494903Y-115627555D01*
X136497736Y-115629814D01*
X136497738Y-115629816D01*
X136650478Y-115725789D01*
X136820745Y-115785368D01*
X136820750Y-115785369D01*
X136999996Y-115805565D01*
X137000000Y-115805565D01*
X137000004Y-115805565D01*
X137179249Y-115785369D01*
X137179252Y-115785368D01*
X137179255Y-115785368D01*
X137349522Y-115725789D01*
X137502262Y-115629816D01*
X137629816Y-115502262D01*
X137725789Y-115349522D01*
X137785368Y-115179255D01*
X137802881Y-115023815D01*
X137829947Y-114959403D01*
X137887541Y-114919848D01*
X137957378Y-114917709D01*
X138000412Y-114938434D01*
X138057664Y-114981293D01*
X138057671Y-114981297D01*
X138192517Y-115031591D01*
X138192516Y-115031591D01*
X138199444Y-115032335D01*
X138252127Y-115038000D01*
X140247872Y-115037999D01*
X140307483Y-115031591D01*
X140442331Y-114981296D01*
X140467128Y-114962733D01*
X140532592Y-114938316D01*
X140541439Y-114938000D01*
X142075831Y-114938000D01*
X142075847Y-114938001D01*
X142083443Y-114938001D01*
X142241554Y-114938001D01*
X142241557Y-114938001D01*
X142394285Y-114897077D01*
X142474958Y-114850500D01*
X142531216Y-114818020D01*
X142549916Y-114799320D01*
X142611238Y-114765833D01*
X142637599Y-114762999D01*
X143220002Y-114762999D01*
X143220008Y-114762999D01*
X143322797Y-114752499D01*
X143489334Y-114697314D01*
X143638656Y-114605212D01*
X143762712Y-114481156D01*
X143854814Y-114331834D01*
X143909999Y-114165297D01*
X143920500Y-114062509D01*
X143920499Y-113524499D01*
X143940183Y-113457461D01*
X143992987Y-113411706D01*
X144044499Y-113400500D01*
X144759046Y-113400500D01*
X144826085Y-113420185D01*
X144835157Y-113427495D01*
X144835355Y-113427232D01*
X144957664Y-113518793D01*
X144957671Y-113518797D01*
X145092517Y-113569091D01*
X145092516Y-113569091D01*
X145097874Y-113569667D01*
X145152127Y-113575500D01*
X146550500Y-113575499D01*
X146617539Y-113595184D01*
X146663294Y-113647987D01*
X146674500Y-113699499D01*
X146674500Y-115097870D01*
X146674501Y-115097876D01*
X146680908Y-115157483D01*
X146731202Y-115292328D01*
X146731206Y-115292335D01*
X146817452Y-115407544D01*
X146817453Y-115407544D01*
X146817454Y-115407546D01*
X146849581Y-115431596D01*
X146874898Y-115450549D01*
X146916768Y-115506483D01*
X146921752Y-115576175D01*
X146888267Y-115637496D01*
X142212582Y-120313181D01*
X142151259Y-120346666D01*
X142124902Y-120349500D01*
X141891952Y-120349500D01*
X141778461Y-120364440D01*
X141778456Y-120364442D01*
X141747451Y-120377285D01*
X141677982Y-120384754D01*
X141652556Y-120377288D01*
X141621541Y-120364442D01*
X141621538Y-120364441D01*
X141621537Y-120364441D01*
X141539054Y-120353582D01*
X141475157Y-120325315D01*
X141467559Y-120318324D01*
X140537590Y-119388355D01*
X140537588Y-119388352D01*
X140418717Y-119269481D01*
X140418709Y-119269475D01*
X140316936Y-119210717D01*
X140316934Y-119210716D01*
X140281790Y-119190425D01*
X140281789Y-119190424D01*
X140269263Y-119187067D01*
X140129057Y-119149499D01*
X139970943Y-119149499D01*
X139963347Y-119149499D01*
X139963331Y-119149500D01*
X139771685Y-119149500D01*
X139704646Y-119129815D01*
X139658891Y-119077011D01*
X139648947Y-119007853D01*
X139653977Y-118986502D01*
X139689999Y-118877797D01*
X139700500Y-118775009D01*
X139700499Y-117724992D01*
X139689999Y-117622203D01*
X139634814Y-117455666D01*
X139542712Y-117306344D01*
X139418656Y-117182288D01*
X139269334Y-117090186D01*
X139102797Y-117035001D01*
X139102795Y-117035000D01*
X139000010Y-117024500D01*
X138399998Y-117024500D01*
X138399980Y-117024501D01*
X138297203Y-117035000D01*
X138297200Y-117035001D01*
X138130668Y-117090185D01*
X138130663Y-117090187D01*
X137981342Y-117182289D01*
X137857288Y-117306343D01*
X137857283Y-117306349D01*
X137855241Y-117309661D01*
X137853247Y-117311453D01*
X137852807Y-117312011D01*
X137852711Y-117311935D01*
X137803291Y-117356383D01*
X137734328Y-117367602D01*
X137670247Y-117339755D01*
X137644168Y-117309656D01*
X137642319Y-117306659D01*
X137642316Y-117306655D01*
X137518345Y-117182684D01*
X137369124Y-117090643D01*
X137369119Y-117090641D01*
X137202697Y-117035494D01*
X137202690Y-117035493D01*
X137099986Y-117025000D01*
X137050000Y-117025000D01*
X137050000Y-119474999D01*
X137099972Y-119474999D01*
X137099986Y-119474998D01*
X137202697Y-119464505D01*
X137369119Y-119409358D01*
X137369124Y-119409356D01*
X137518345Y-119317315D01*
X137642318Y-119193342D01*
X137644165Y-119190348D01*
X137645969Y-119188724D01*
X137646798Y-119187677D01*
X137646976Y-119187818D01*
X137696110Y-119143621D01*
X137765073Y-119132396D01*
X137829156Y-119160236D01*
X137855243Y-119190341D01*
X137857288Y-119193656D01*
X137981344Y-119317712D01*
X138095870Y-119388352D01*
X138120032Y-119403255D01*
X138166757Y-119455203D01*
X138177980Y-119524165D01*
X138171979Y-119549744D01*
X138164631Y-119570743D01*
X138164631Y-119570746D01*
X138144435Y-119749996D01*
X138144435Y-119750003D01*
X138164630Y-119929249D01*
X138164631Y-119929254D01*
X138224211Y-120099523D01*
X138261915Y-120159528D01*
X138280915Y-120226765D01*
X138260547Y-120293600D01*
X138207279Y-120338814D01*
X138156921Y-120349500D01*
X137491951Y-120349500D01*
X137378464Y-120364440D01*
X137378460Y-120364441D01*
X137237246Y-120422933D01*
X137237243Y-120422934D01*
X137115982Y-120515982D01*
X137022934Y-120637243D01*
X137022933Y-120637246D01*
X136964443Y-120778455D01*
X136964442Y-120778459D01*
X136949500Y-120891945D01*
X136949500Y-122608048D01*
X136964440Y-122721535D01*
X136964441Y-122721539D01*
X137022933Y-122862753D01*
X137022934Y-122862756D01*
X137115982Y-122984017D01*
X137237243Y-123077065D01*
X137237244Y-123077065D01*
X137237245Y-123077066D01*
X137378459Y-123135558D01*
X137491953Y-123150500D01*
X138208046Y-123150499D01*
X138321541Y-123135558D01*
X138352546Y-123122714D01*
X138422015Y-123115245D01*
X138447452Y-123122714D01*
X138478459Y-123135558D01*
X138591953Y-123150500D01*
X139308046Y-123150499D01*
X139421541Y-123135558D01*
X139452546Y-123122714D01*
X139522015Y-123115245D01*
X139547452Y-123122714D01*
X139578459Y-123135558D01*
X139691953Y-123150500D01*
X140408046Y-123150499D01*
X140521541Y-123135558D01*
X140552546Y-123122714D01*
X140622015Y-123115245D01*
X140647452Y-123122714D01*
X140678459Y-123135558D01*
X140791953Y-123150500D01*
X141508046Y-123150499D01*
X141621541Y-123135558D01*
X141652546Y-123122714D01*
X141722015Y-123115245D01*
X141747452Y-123122714D01*
X141778459Y-123135558D01*
X141891953Y-123150500D01*
X142608046Y-123150499D01*
X142721541Y-123135558D01*
X142752546Y-123122714D01*
X142822015Y-123115245D01*
X142847452Y-123122714D01*
X142878459Y-123135558D01*
X142991953Y-123150500D01*
X143708046Y-123150499D01*
X143821541Y-123135558D01*
X143852546Y-123122714D01*
X143922015Y-123115245D01*
X143947452Y-123122714D01*
X143978459Y-123135558D01*
X144091953Y-123150500D01*
X144808046Y-123150499D01*
X144921541Y-123135558D01*
X144952546Y-123122714D01*
X145022015Y-123115245D01*
X145047452Y-123122714D01*
X145078459Y-123135558D01*
X145191953Y-123150500D01*
X145908046Y-123150499D01*
X146021541Y-123135558D01*
X146053201Y-123122443D01*
X146122669Y-123114975D01*
X146148106Y-123122444D01*
X146178589Y-123135070D01*
X146291976Y-123149999D01*
X146291991Y-123150000D01*
X147008009Y-123150000D01*
X147008023Y-123149999D01*
X147121408Y-123135070D01*
X147121413Y-123135069D01*
X147262500Y-123076630D01*
X147383662Y-122983659D01*
X147447245Y-122900795D01*
X146560905Y-122014456D01*
X146527420Y-121953133D01*
X146532404Y-121883442D01*
X146560905Y-121839093D01*
X146649999Y-121749999D01*
X147003552Y-121749999D01*
X147549999Y-122296447D01*
X147550000Y-122296446D01*
X147550000Y-121203552D01*
X147549999Y-121203551D01*
X147003552Y-121749999D01*
X146649999Y-121749999D01*
X146560904Y-121660904D01*
X146527419Y-121599581D01*
X146532403Y-121529889D01*
X146560904Y-121485542D01*
X147447244Y-120599202D01*
X147383661Y-120516339D01*
X147262503Y-120423371D01*
X147262501Y-120423369D01*
X147121413Y-120364930D01*
X147121408Y-120364929D01*
X147008023Y-120350000D01*
X146291991Y-120350000D01*
X146291974Y-120350001D01*
X146290667Y-120350173D01*
X146290277Y-120350112D01*
X146287932Y-120350266D01*
X146287897Y-120349740D01*
X146221634Y-120339397D01*
X146169385Y-120293009D01*
X146150500Y-120227231D01*
X146150500Y-119725096D01*
X146170185Y-119658057D01*
X146186814Y-119637420D01*
X150208504Y-115615729D01*
X150208514Y-115615722D01*
X150218716Y-115605520D01*
X150237415Y-115586820D01*
X150298736Y-115553334D01*
X150325098Y-115550499D01*
X150327118Y-115550499D01*
X150327127Y-115550500D01*
X150972872Y-115550499D01*
X151032483Y-115544091D01*
X151032486Y-115544089D01*
X151036744Y-115543632D01*
X151063254Y-115543632D01*
X151067514Y-115544089D01*
X151067517Y-115544091D01*
X151127127Y-115550500D01*
X151525500Y-115550499D01*
X151592539Y-115570183D01*
X151638294Y-115622987D01*
X151649500Y-115674499D01*
X151649500Y-126655830D01*
X151649499Y-126655848D01*
X151649499Y-126821554D01*
X151649498Y-126821554D01*
X151690424Y-126974289D01*
X151690425Y-126974290D01*
X151709186Y-127006784D01*
X151709187Y-127006785D01*
X151769477Y-127111212D01*
X151769481Y-127111217D01*
X151888349Y-127230085D01*
X151888355Y-127230090D01*
X154628181Y-129969916D01*
X154661666Y-130031239D01*
X154664500Y-130057597D01*
X154664500Y-131170158D01*
X154644815Y-131237197D01*
X154605778Y-131275585D01*
X154553566Y-131307913D01*
X154392573Y-131454676D01*
X154363953Y-131492576D01*
X154307844Y-131534211D01*
X154238132Y-131538902D01*
X154176950Y-131505159D01*
X154166047Y-131492576D01*
X154137426Y-131454676D01*
X153976433Y-131307913D01*
X153976423Y-131307906D01*
X153791213Y-131193229D01*
X153791207Y-131193226D01*
X153706113Y-131160260D01*
X153588069Y-131114530D01*
X153373926Y-131074500D01*
X153156074Y-131074500D01*
X152941931Y-131114530D01*
X152893130Y-131133435D01*
X152738792Y-131193226D01*
X152738786Y-131193229D01*
X152553576Y-131307906D01*
X152553566Y-131307913D01*
X152392574Y-131454676D01*
X152261288Y-131628527D01*
X152164184Y-131823537D01*
X152104564Y-132033081D01*
X152084464Y-132249999D01*
X152084464Y-132250000D01*
X152104564Y-132466918D01*
X152104564Y-132466920D01*
X152104565Y-132466923D01*
X152144805Y-132608353D01*
X152164184Y-132676462D01*
X152261288Y-132871472D01*
X152342747Y-132979341D01*
X152367439Y-133044702D01*
X152352874Y-133113037D01*
X152318105Y-133153334D01*
X152232452Y-133217455D01*
X152146206Y-133332664D01*
X152146202Y-133332671D01*
X152095908Y-133467517D01*
X152089501Y-133527116D01*
X152089500Y-133527135D01*
X152089500Y-134972870D01*
X152089501Y-134972876D01*
X152095908Y-135032483D01*
X152146202Y-135167328D01*
X152146206Y-135167335D01*
X152232452Y-135282544D01*
X152232455Y-135282547D01*
X152347664Y-135368793D01*
X152347671Y-135368797D01*
X152482517Y-135419091D01*
X152482516Y-135419091D01*
X152489444Y-135419835D01*
X152542127Y-135425500D01*
X153987872Y-135425499D01*
X154047483Y-135419091D01*
X154182331Y-135368796D01*
X154297546Y-135282546D01*
X154359785Y-135199404D01*
X154415718Y-135157535D01*
X154485410Y-135152551D01*
X154542588Y-135182078D01*
X154553568Y-135192088D01*
X154553570Y-135192089D01*
X154553571Y-135192090D01*
X154738786Y-135306770D01*
X154738792Y-135306773D01*
X154761664Y-135315633D01*
X154941931Y-135385470D01*
X155156074Y-135425500D01*
X155156076Y-135425500D01*
X155373924Y-135425500D01*
X155373926Y-135425500D01*
X155588069Y-135385470D01*
X155791210Y-135306772D01*
X155976432Y-135192088D01*
X156137427Y-135045322D01*
X156166047Y-135007422D01*
X156222153Y-134965787D01*
X156291865Y-134961094D01*
X156353048Y-134994836D01*
X156363946Y-135007414D01*
X156392573Y-135045322D01*
X156553568Y-135192088D01*
X156553575Y-135192092D01*
X156553576Y-135192093D01*
X156738786Y-135306770D01*
X156738792Y-135306773D01*
X156761664Y-135315633D01*
X156941931Y-135385470D01*
X157156074Y-135425500D01*
X157156076Y-135425500D01*
X157373924Y-135425500D01*
X157373926Y-135425500D01*
X157588069Y-135385470D01*
X157791210Y-135306772D01*
X157976432Y-135192088D01*
X158137427Y-135045322D01*
X158268712Y-134871472D01*
X158365817Y-134676459D01*
X158425435Y-134466923D01*
X158445536Y-134250000D01*
X158425435Y-134033077D01*
X158424494Y-134029769D01*
X158424507Y-134028115D01*
X158424382Y-134027442D01*
X158424513Y-134027417D01*
X158425080Y-133959905D01*
X158456077Y-133908156D01*
X158598506Y-133765728D01*
X158598511Y-133765724D01*
X158608714Y-133755520D01*
X158608716Y-133755520D01*
X158720520Y-133643716D01*
X158774317Y-133550536D01*
X158799577Y-133506785D01*
X158840500Y-133354058D01*
X158840500Y-133195943D01*
X158840500Y-132974500D01*
X158860185Y-132907461D01*
X158912989Y-132861706D01*
X158964500Y-132850500D01*
X161704699Y-132850500D01*
X161771738Y-132870185D01*
X161817493Y-132922989D01*
X161822403Y-132935492D01*
X161850186Y-133019334D01*
X161942288Y-133168656D01*
X162066344Y-133292712D01*
X162215666Y-133384814D01*
X162382203Y-133439999D01*
X162484991Y-133450500D01*
X163110008Y-133450499D01*
X163110016Y-133450498D01*
X163110019Y-133450498D01*
X163166302Y-133444748D01*
X163212797Y-133439999D01*
X163379334Y-133384814D01*
X163528656Y-133292712D01*
X163622319Y-133199049D01*
X163683642Y-133165564D01*
X163753334Y-133170548D01*
X163797681Y-133199049D01*
X163891344Y-133292712D01*
X164003097Y-133361641D01*
X164049821Y-133413587D01*
X164062000Y-133467179D01*
X164062000Y-133804612D01*
X164042994Y-133870583D01*
X164024213Y-133900472D01*
X164024209Y-133900481D01*
X163964633Y-134070737D01*
X163964630Y-134070750D01*
X163944435Y-134249996D01*
X163944435Y-134250003D01*
X163964630Y-134429249D01*
X163964631Y-134429254D01*
X164024211Y-134599523D01*
X164120184Y-134752262D01*
X164247738Y-134879816D01*
X164338080Y-134936582D01*
X164395835Y-134972872D01*
X164400478Y-134975789D01*
X164490886Y-135007424D01*
X164570745Y-135035368D01*
X164570750Y-135035369D01*
X164749996Y-135055565D01*
X164750000Y-135055565D01*
X164750004Y-135055565D01*
X164929249Y-135035369D01*
X164929252Y-135035368D01*
X164929255Y-135035368D01*
X165099522Y-134975789D01*
X165252262Y-134879816D01*
X165379816Y-134752262D01*
X165475789Y-134599522D01*
X165535368Y-134429255D01*
X165555565Y-134250000D01*
X165535368Y-134070745D01*
X165475789Y-133900478D01*
X165379816Y-133747738D01*
X165299319Y-133667241D01*
X165265834Y-133605918D01*
X165263000Y-133579560D01*
X165263000Y-133417835D01*
X165282685Y-133350796D01*
X165321906Y-133312295D01*
X165353654Y-133292713D01*
X165353653Y-133292713D01*
X165353656Y-133292712D01*
X165477712Y-133168656D01*
X165569814Y-133019334D01*
X165624999Y-132852797D01*
X165635500Y-132750009D01*
X165635499Y-132250000D01*
X165635499Y-131749998D01*
X165635498Y-131749980D01*
X165624999Y-131647203D01*
X165624998Y-131647200D01*
X165616631Y-131621949D01*
X165569814Y-131480666D01*
X165477712Y-131331344D01*
X165353656Y-131207288D01*
X165204334Y-131115186D01*
X165037797Y-131060001D01*
X165037795Y-131060000D01*
X164935010Y-131049500D01*
X164309998Y-131049500D01*
X164309980Y-131049501D01*
X164207203Y-131060000D01*
X164207200Y-131060001D01*
X164040668Y-131115185D01*
X164040663Y-131115187D01*
X163891342Y-131207289D01*
X163797681Y-131300951D01*
X163736358Y-131334436D01*
X163666666Y-131329452D01*
X163622319Y-131300951D01*
X163528657Y-131207289D01*
X163528656Y-131207288D01*
X163379334Y-131115186D01*
X163212797Y-131060001D01*
X163212795Y-131060000D01*
X163110010Y-131049500D01*
X162484998Y-131049500D01*
X162484980Y-131049501D01*
X162382203Y-131060000D01*
X162382200Y-131060001D01*
X162215668Y-131115185D01*
X162215663Y-131115187D01*
X162066342Y-131207289D01*
X161942289Y-131331342D01*
X161850187Y-131480663D01*
X161850186Y-131480666D01*
X161830889Y-131538902D01*
X161822405Y-131564504D01*
X161782632Y-131621949D01*
X161718116Y-131648772D01*
X161704699Y-131649500D01*
X158932583Y-131649500D01*
X158865544Y-131629815D01*
X158819789Y-131577011D01*
X158812808Y-131557595D01*
X158799577Y-131508216D01*
X158783671Y-131480666D01*
X158720524Y-131371290D01*
X158720518Y-131371282D01*
X157276819Y-129927583D01*
X157243334Y-129866260D01*
X157240500Y-129839902D01*
X157240500Y-129749996D01*
X160444435Y-129749996D01*
X160444435Y-129750003D01*
X160464630Y-129929249D01*
X160464631Y-129929254D01*
X160524211Y-130099523D01*
X160539195Y-130123369D01*
X160620184Y-130252262D01*
X160747738Y-130379816D01*
X160900478Y-130475789D01*
X161070745Y-130535368D01*
X161070750Y-130535369D01*
X161249996Y-130555565D01*
X161250000Y-130555565D01*
X161250004Y-130555565D01*
X161429249Y-130535369D01*
X161429252Y-130535368D01*
X161429255Y-130535368D01*
X161599522Y-130475789D01*
X161752262Y-130379816D01*
X161752267Y-130379810D01*
X161755097Y-130377555D01*
X161757275Y-130376665D01*
X161758158Y-130376111D01*
X161758255Y-130376265D01*
X161819783Y-130351145D01*
X161832412Y-130350500D01*
X161891344Y-130350500D01*
X161958383Y-130370185D01*
X161979025Y-130386819D01*
X162066344Y-130474138D01*
X162215666Y-130566240D01*
X162382203Y-130621425D01*
X162484991Y-130631926D01*
X163110008Y-130631925D01*
X163110016Y-130631924D01*
X163110019Y-130631924D01*
X163166302Y-130626174D01*
X163212797Y-130621425D01*
X163379334Y-130566240D01*
X163528656Y-130474138D01*
X163622319Y-130380475D01*
X163683642Y-130346990D01*
X163753334Y-130351974D01*
X163797681Y-130380475D01*
X163891344Y-130474138D01*
X164040666Y-130566240D01*
X164207203Y-130621425D01*
X164309991Y-130631926D01*
X164935008Y-130631925D01*
X164935016Y-130631924D01*
X164935019Y-130631924D01*
X164991302Y-130626174D01*
X165037797Y-130621425D01*
X165204334Y-130566240D01*
X165353656Y-130474138D01*
X165477712Y-130350082D01*
X165569814Y-130200760D01*
X165624999Y-130034223D01*
X165635500Y-129931435D01*
X165635499Y-128931418D01*
X165624999Y-128828629D01*
X165569814Y-128662092D01*
X165477712Y-128512770D01*
X165353656Y-128388714D01*
X165353652Y-128388711D01*
X165321901Y-128369126D01*
X165275177Y-128317177D01*
X165263000Y-128263589D01*
X165263000Y-127763125D01*
X165282685Y-127696086D01*
X165321903Y-127657586D01*
X165396003Y-127611881D01*
X165519026Y-127488858D01*
X165610362Y-127340780D01*
X165665087Y-127175630D01*
X165675500Y-127073703D01*
X165675500Y-126062007D01*
X165665087Y-125960080D01*
X165610362Y-125794930D01*
X165610358Y-125794924D01*
X165610357Y-125794921D01*
X165519028Y-125646855D01*
X165519025Y-125646851D01*
X165396003Y-125523829D01*
X165395999Y-125523826D01*
X165247933Y-125432497D01*
X165247927Y-125432494D01*
X165247925Y-125432493D01*
X165247922Y-125432492D01*
X165082776Y-125377768D01*
X164980855Y-125367355D01*
X164980848Y-125367355D01*
X164394152Y-125367355D01*
X164394144Y-125367355D01*
X164292223Y-125377768D01*
X164127077Y-125432492D01*
X164127066Y-125432497D01*
X163979000Y-125523826D01*
X163978996Y-125523829D01*
X163855974Y-125646851D01*
X163855967Y-125646860D01*
X163855234Y-125648049D01*
X163854519Y-125648691D01*
X163851493Y-125652519D01*
X163850838Y-125652001D01*
X163803280Y-125694766D01*
X163734316Y-125705978D01*
X163670238Y-125678126D01*
X163648238Y-125652732D01*
X163648112Y-125652832D01*
X163645885Y-125650016D01*
X163644163Y-125648028D01*
X163643630Y-125647164D01*
X163520691Y-125524225D01*
X163372714Y-125432951D01*
X163372709Y-125432949D01*
X163207673Y-125378262D01*
X163105815Y-125367855D01*
X163062500Y-125367855D01*
X163062500Y-127767855D01*
X163105803Y-127767855D01*
X163105815Y-127767854D01*
X163207673Y-127757447D01*
X163372709Y-127702760D01*
X163372714Y-127702758D01*
X163520691Y-127611484D01*
X163643628Y-127488547D01*
X163644159Y-127487687D01*
X163644680Y-127487218D01*
X163648112Y-127482878D01*
X163648853Y-127483463D01*
X163696101Y-127440957D01*
X163765063Y-127429727D01*
X163829148Y-127457563D01*
X163851413Y-127483253D01*
X163851493Y-127483191D01*
X163852890Y-127484958D01*
X163855238Y-127487667D01*
X163855968Y-127488850D01*
X163855974Y-127488858D01*
X163978997Y-127611881D01*
X164003096Y-127626746D01*
X164049821Y-127678692D01*
X164062000Y-127732284D01*
X164062000Y-128214246D01*
X164042315Y-128281285D01*
X164003098Y-128319783D01*
X163933012Y-128363013D01*
X163891342Y-128388715D01*
X163797681Y-128482377D01*
X163736358Y-128515862D01*
X163666666Y-128510878D01*
X163622319Y-128482377D01*
X163528657Y-128388715D01*
X163528656Y-128388714D01*
X163416904Y-128319785D01*
X163379336Y-128296613D01*
X163379331Y-128296611D01*
X163333080Y-128281285D01*
X163212797Y-128241427D01*
X163212795Y-128241426D01*
X163110010Y-128230926D01*
X162484998Y-128230926D01*
X162484980Y-128230927D01*
X162382203Y-128241426D01*
X162382200Y-128241427D01*
X162215668Y-128296611D01*
X162215663Y-128296613D01*
X162066342Y-128388715D01*
X161942289Y-128512768D01*
X161850187Y-128662089D01*
X161850186Y-128662092D01*
X161795001Y-128828629D01*
X161795001Y-128828630D01*
X161795000Y-128828630D01*
X161784723Y-128929226D01*
X161758326Y-128993917D01*
X161701145Y-129034068D01*
X161631334Y-129036931D01*
X161606267Y-129026250D01*
X161605795Y-129027231D01*
X161599529Y-129024213D01*
X161429254Y-128964631D01*
X161429249Y-128964630D01*
X161250004Y-128944435D01*
X161249996Y-128944435D01*
X161070750Y-128964630D01*
X161070745Y-128964631D01*
X160900476Y-129024211D01*
X160747737Y-129120184D01*
X160620184Y-129247737D01*
X160524211Y-129400476D01*
X160464631Y-129570745D01*
X160464630Y-129570750D01*
X160444435Y-129749996D01*
X157240500Y-129749996D01*
X157240500Y-128686731D01*
X157240499Y-128686724D01*
X157222277Y-128618716D01*
X157199577Y-128534000D01*
X157169772Y-128482377D01*
X157169430Y-128481784D01*
X157169430Y-128481783D01*
X157120524Y-128397075D01*
X157120521Y-128397071D01*
X157120520Y-128397069D01*
X157008716Y-128285265D01*
X157008715Y-128285264D01*
X157004385Y-128280934D01*
X157004374Y-128280924D01*
X155797120Y-127073670D01*
X161825000Y-127073670D01*
X161835407Y-127175528D01*
X161890094Y-127340564D01*
X161890096Y-127340569D01*
X161981370Y-127488546D01*
X162104308Y-127611484D01*
X162252285Y-127702758D01*
X162252290Y-127702760D01*
X162417326Y-127757447D01*
X162519184Y-127767854D01*
X162519197Y-127767855D01*
X162562500Y-127767855D01*
X162562500Y-126817855D01*
X161825000Y-126817855D01*
X161825000Y-127073670D01*
X155797120Y-127073670D01*
X154785489Y-126062039D01*
X161825000Y-126062039D01*
X161825000Y-126317855D01*
X162562500Y-126317855D01*
X162562500Y-125367855D01*
X162519184Y-125367855D01*
X162417326Y-125378262D01*
X162252290Y-125432949D01*
X162252285Y-125432951D01*
X162104308Y-125524225D01*
X161981370Y-125647163D01*
X161890096Y-125795140D01*
X161890094Y-125795145D01*
X161835407Y-125960181D01*
X161825000Y-126062039D01*
X154785489Y-126062039D01*
X154086819Y-125363369D01*
X154053334Y-125302046D01*
X154050500Y-125275688D01*
X154050500Y-117349996D01*
X160444435Y-117349996D01*
X160444435Y-117350003D01*
X160464630Y-117529249D01*
X160464631Y-117529254D01*
X160524211Y-117699523D01*
X160540228Y-117725013D01*
X160620184Y-117852262D01*
X160747738Y-117979816D01*
X160900478Y-118075789D01*
X161070745Y-118135368D01*
X161157669Y-118145161D01*
X161222080Y-118172226D01*
X161231465Y-118180700D01*
X161362281Y-118311516D01*
X161362291Y-118311527D01*
X161366621Y-118315857D01*
X161366622Y-118315858D01*
X161478426Y-118427662D01*
X161555482Y-118472150D01*
X161615357Y-118506719D01*
X161717630Y-118534122D01*
X161777287Y-118570485D01*
X161803240Y-118614892D01*
X161845185Y-118741473D01*
X161845187Y-118741478D01*
X161880069Y-118798030D01*
X161937288Y-118890798D01*
X162061344Y-119014854D01*
X162210666Y-119106956D01*
X162377203Y-119162141D01*
X162479991Y-119172642D01*
X163080008Y-119172641D01*
X163080016Y-119172640D01*
X163080019Y-119172640D01*
X163136302Y-119166890D01*
X163182797Y-119162141D01*
X163349334Y-119106956D01*
X163498656Y-119014854D01*
X163622712Y-118890798D01*
X163624752Y-118887489D01*
X163626745Y-118885697D01*
X163627193Y-118885131D01*
X163627289Y-118885207D01*
X163676694Y-118840765D01*
X163745656Y-118829537D01*
X163809740Y-118857376D01*
X163835829Y-118887481D01*
X163837681Y-118890483D01*
X163837683Y-118890486D01*
X163961654Y-119014457D01*
X164110875Y-119106498D01*
X164110880Y-119106500D01*
X164277302Y-119161647D01*
X164277309Y-119161648D01*
X164380019Y-119172141D01*
X164930000Y-119172141D01*
X164979972Y-119172141D01*
X164979986Y-119172140D01*
X165082697Y-119161647D01*
X165249119Y-119106500D01*
X165249124Y-119106498D01*
X165398345Y-119014457D01*
X165522315Y-118890487D01*
X165614356Y-118741266D01*
X165614358Y-118741261D01*
X165669505Y-118574839D01*
X165669506Y-118574832D01*
X165679999Y-118472128D01*
X165680000Y-118472115D01*
X165680000Y-118197142D01*
X164930000Y-118197142D01*
X164930000Y-119172141D01*
X164380019Y-119172141D01*
X164429999Y-119172140D01*
X164430000Y-119172140D01*
X164430000Y-117697142D01*
X164930000Y-117697142D01*
X165679999Y-117697142D01*
X165679999Y-117422170D01*
X165679998Y-117422155D01*
X165669505Y-117319444D01*
X165614358Y-117153022D01*
X165614356Y-117153017D01*
X165522315Y-117003796D01*
X165398345Y-116879826D01*
X165249124Y-116787785D01*
X165249119Y-116787783D01*
X165082697Y-116732636D01*
X165082690Y-116732635D01*
X164979986Y-116722142D01*
X164930000Y-116722142D01*
X164930000Y-117697142D01*
X164430000Y-117697142D01*
X164430000Y-116722142D01*
X164429999Y-116722141D01*
X164380029Y-116722142D01*
X164380011Y-116722143D01*
X164277302Y-116732636D01*
X164110880Y-116787783D01*
X164110875Y-116787785D01*
X163961654Y-116879826D01*
X163837683Y-117003797D01*
X163837679Y-117003802D01*
X163835826Y-117006807D01*
X163834018Y-117008432D01*
X163833202Y-117009465D01*
X163833025Y-117009325D01*
X163783874Y-117053527D01*
X163714911Y-117064743D01*
X163650831Y-117036894D01*
X163624753Y-117006795D01*
X163624737Y-117006770D01*
X163622712Y-117003486D01*
X163498656Y-116879430D01*
X163498652Y-116879427D01*
X163496901Y-116878347D01*
X163495952Y-116877292D01*
X163492989Y-116874949D01*
X163493389Y-116874442D01*
X163450177Y-116826398D01*
X163438000Y-116772810D01*
X163438000Y-116266406D01*
X163457685Y-116199367D01*
X163496906Y-116160866D01*
X163528654Y-116141284D01*
X163528653Y-116141284D01*
X163528656Y-116141283D01*
X163622319Y-116047620D01*
X163683642Y-116014135D01*
X163753334Y-116019119D01*
X163797681Y-116047620D01*
X163891344Y-116141283D01*
X164040666Y-116233385D01*
X164207203Y-116288570D01*
X164309991Y-116299071D01*
X164935008Y-116299070D01*
X164935016Y-116299069D01*
X164935019Y-116299069D01*
X164991302Y-116293319D01*
X165037797Y-116288570D01*
X165204334Y-116233385D01*
X165353656Y-116141283D01*
X165477712Y-116017227D01*
X165569814Y-115867905D01*
X165624999Y-115701368D01*
X165635500Y-115598580D01*
X165635499Y-114598563D01*
X165624999Y-114495774D01*
X165569814Y-114329237D01*
X165477712Y-114179915D01*
X165353656Y-114055859D01*
X165347989Y-114051378D01*
X165349945Y-114048904D01*
X165312652Y-114007400D01*
X165300500Y-113953865D01*
X165300500Y-113447461D01*
X165320185Y-113380422D01*
X165359402Y-113341923D01*
X165398656Y-113317712D01*
X165522712Y-113193656D01*
X165614814Y-113044334D01*
X165669999Y-112877797D01*
X165680500Y-112775009D01*
X165680499Y-111724992D01*
X165676886Y-111689627D01*
X165669999Y-111622203D01*
X165669998Y-111622200D01*
X165662642Y-111600000D01*
X165614814Y-111455666D01*
X165522712Y-111306344D01*
X165398656Y-111182288D01*
X165269796Y-111102807D01*
X165249336Y-111090187D01*
X165249331Y-111090185D01*
X165220707Y-111080700D01*
X165082797Y-111035001D01*
X165082795Y-111035000D01*
X164980010Y-111024500D01*
X164379998Y-111024500D01*
X164379980Y-111024501D01*
X164277203Y-111035000D01*
X164277200Y-111035001D01*
X164110668Y-111090185D01*
X164110663Y-111090187D01*
X163961342Y-111182289D01*
X163837285Y-111306346D01*
X163835537Y-111309182D01*
X163833829Y-111310717D01*
X163832807Y-111312011D01*
X163832585Y-111311836D01*
X163783589Y-111355905D01*
X163714626Y-111367126D01*
X163650544Y-111339282D01*
X163624463Y-111309182D01*
X163622714Y-111306346D01*
X163498657Y-111182289D01*
X163498656Y-111182288D01*
X163474822Y-111167587D01*
X163459401Y-111158075D01*
X163412678Y-111106126D01*
X163400500Y-111052537D01*
X163400500Y-110755067D01*
X163419507Y-110689094D01*
X163475788Y-110599524D01*
X163487010Y-110567454D01*
X163535368Y-110429255D01*
X163536562Y-110418657D01*
X163555565Y-110250003D01*
X163555565Y-110249996D01*
X163535369Y-110070750D01*
X163535368Y-110070745D01*
X163510616Y-110000008D01*
X163475789Y-109900478D01*
X163448445Y-109856961D01*
X163428470Y-109825171D01*
X163379816Y-109747738D01*
X163252262Y-109620184D01*
X163099523Y-109524211D01*
X162929254Y-109464631D01*
X162929249Y-109464630D01*
X162750004Y-109444435D01*
X162749996Y-109444435D01*
X162570750Y-109464630D01*
X162570745Y-109464631D01*
X162400476Y-109524211D01*
X162247737Y-109620184D01*
X162120184Y-109747737D01*
X162024211Y-109900476D01*
X161964631Y-110070745D01*
X161964630Y-110070750D01*
X161944435Y-110249996D01*
X161944435Y-110250003D01*
X161964630Y-110429249D01*
X161964631Y-110429254D01*
X162024211Y-110599523D01*
X162120184Y-110752262D01*
X162163181Y-110795259D01*
X162196666Y-110856582D01*
X162199500Y-110882940D01*
X162199500Y-111027865D01*
X162179815Y-111094904D01*
X162140598Y-111133403D01*
X162061344Y-111182287D01*
X161937289Y-111306342D01*
X161845187Y-111455663D01*
X161845185Y-111455668D01*
X161832096Y-111495169D01*
X161790001Y-111622203D01*
X161790001Y-111622204D01*
X161790000Y-111622204D01*
X161779500Y-111724983D01*
X161779500Y-112775001D01*
X161779501Y-112775019D01*
X161790000Y-112877796D01*
X161790001Y-112877799D01*
X161830000Y-112998505D01*
X161845186Y-113044334D01*
X161937288Y-113193656D01*
X162061344Y-113317712D01*
X162210666Y-113409814D01*
X162377203Y-113464999D01*
X162479991Y-113475500D01*
X163080008Y-113475499D01*
X163080016Y-113475498D01*
X163080019Y-113475498D01*
X163136302Y-113469748D01*
X163182797Y-113464999D01*
X163349334Y-113409814D01*
X163498656Y-113317712D01*
X163622712Y-113193656D01*
X163624461Y-113190819D01*
X163626169Y-113189283D01*
X163627193Y-113187989D01*
X163627414Y-113188163D01*
X163676406Y-113144096D01*
X163745368Y-113132872D01*
X163809451Y-113160713D01*
X163835537Y-113190817D01*
X163837288Y-113193656D01*
X163961344Y-113317712D01*
X164040596Y-113366594D01*
X164087321Y-113418541D01*
X164099500Y-113472133D01*
X164099500Y-113858261D01*
X164079815Y-113925300D01*
X164040598Y-113963798D01*
X163969909Y-114007400D01*
X163891342Y-114055860D01*
X163797681Y-114149522D01*
X163736358Y-114183007D01*
X163666666Y-114178023D01*
X163622319Y-114149522D01*
X163528657Y-114055860D01*
X163528656Y-114055859D01*
X163379334Y-113963757D01*
X163212797Y-113908572D01*
X163212795Y-113908571D01*
X163110010Y-113898071D01*
X162484998Y-113898071D01*
X162484980Y-113898072D01*
X162382203Y-113908571D01*
X162382200Y-113908572D01*
X162215668Y-113963756D01*
X162215663Y-113963758D01*
X162066342Y-114055860D01*
X161942289Y-114179913D01*
X161850187Y-114329234D01*
X161850185Y-114329239D01*
X161845515Y-114343332D01*
X161795001Y-114495774D01*
X161795001Y-114495775D01*
X161795000Y-114495775D01*
X161784500Y-114598554D01*
X161784500Y-115598572D01*
X161784501Y-115598590D01*
X161795000Y-115701367D01*
X161795001Y-115701370D01*
X161850185Y-115867902D01*
X161850186Y-115867905D01*
X161942288Y-116017227D01*
X162066344Y-116141283D01*
X162178097Y-116210212D01*
X162224821Y-116262158D01*
X162237000Y-116315750D01*
X162237000Y-116701878D01*
X162217315Y-116768917D01*
X162178098Y-116807415D01*
X162061344Y-116879430D01*
X162061341Y-116879432D01*
X162055198Y-116883222D01*
X162054472Y-116882045D01*
X161996945Y-116905241D01*
X161928306Y-116892188D01*
X161885003Y-116852517D01*
X161884163Y-116853188D01*
X161879898Y-116847841D01*
X161879860Y-116847806D01*
X161879821Y-116847744D01*
X161879817Y-116847739D01*
X161752262Y-116720184D01*
X161599523Y-116624211D01*
X161429254Y-116564631D01*
X161429249Y-116564630D01*
X161250004Y-116544435D01*
X161249996Y-116544435D01*
X161070750Y-116564630D01*
X161070745Y-116564631D01*
X160900476Y-116624211D01*
X160747737Y-116720184D01*
X160620184Y-116847737D01*
X160524211Y-117000476D01*
X160464631Y-117170745D01*
X160464630Y-117170750D01*
X160444435Y-117349996D01*
X154050500Y-117349996D01*
X154050500Y-116915782D01*
X154070185Y-116848743D01*
X154086814Y-116828105D01*
X155124020Y-115790899D01*
X155185341Y-115757416D01*
X155252651Y-115761540D01*
X155320745Y-115785368D01*
X155320749Y-115785368D01*
X155320753Y-115785369D01*
X155499996Y-115805565D01*
X155500000Y-115805565D01*
X155500004Y-115805565D01*
X155679249Y-115785369D01*
X155679252Y-115785368D01*
X155679255Y-115785368D01*
X155849522Y-115725789D01*
X156002262Y-115629816D01*
X156129816Y-115502262D01*
X156225789Y-115349522D01*
X156285368Y-115179255D01*
X156294538Y-115097870D01*
X156305565Y-115000003D01*
X156305565Y-114999996D01*
X156285369Y-114820750D01*
X156285368Y-114820745D01*
X156261487Y-114752498D01*
X156225789Y-114650478D01*
X156197346Y-114605212D01*
X156129815Y-114497737D01*
X156002262Y-114370184D01*
X155849523Y-114274211D01*
X155679254Y-114214631D01*
X155679249Y-114214630D01*
X155500004Y-114194435D01*
X155499996Y-114194435D01*
X155320750Y-114214630D01*
X155320745Y-114214631D01*
X155150476Y-114274211D01*
X155040472Y-114343332D01*
X154973235Y-114362332D01*
X154906400Y-114341964D01*
X154861186Y-114288696D01*
X154850500Y-114238338D01*
X154850500Y-113699499D01*
X154870185Y-113632460D01*
X154922989Y-113586705D01*
X154974500Y-113575499D01*
X155347871Y-113575499D01*
X155347872Y-113575499D01*
X155407483Y-113569091D01*
X155542331Y-113518796D01*
X155657546Y-113432546D01*
X155743796Y-113317331D01*
X155794091Y-113182483D01*
X155800500Y-113122873D01*
X155800499Y-112477128D01*
X155794091Y-112417517D01*
X155794089Y-112417513D01*
X155793632Y-112413255D01*
X155793632Y-112386745D01*
X155794089Y-112382486D01*
X155794091Y-112382483D01*
X155800500Y-112322873D01*
X155800499Y-111677128D01*
X155794091Y-111617517D01*
X155794089Y-111617513D01*
X155793632Y-111613255D01*
X155793632Y-111586745D01*
X155794089Y-111582486D01*
X155794091Y-111582483D01*
X155800500Y-111522873D01*
X155800499Y-111149095D01*
X155820183Y-111082057D01*
X155872987Y-111036302D01*
X155942146Y-111026358D01*
X156005701Y-111055383D01*
X156012180Y-111061415D01*
X156489902Y-111539137D01*
X156523387Y-111600460D01*
X156525580Y-111639414D01*
X156524500Y-111649986D01*
X156524500Y-112250001D01*
X156524501Y-112250019D01*
X156535000Y-112352796D01*
X156535001Y-112352799D01*
X156590185Y-112519331D01*
X156590187Y-112519336D01*
X156600076Y-112535368D01*
X156682288Y-112668656D01*
X156806344Y-112792712D01*
X156955666Y-112884814D01*
X157122203Y-112939999D01*
X157224991Y-112950500D01*
X158275008Y-112950499D01*
X158275016Y-112950498D01*
X158275019Y-112950498D01*
X158331302Y-112944748D01*
X158377797Y-112939999D01*
X158544334Y-112884814D01*
X158693656Y-112792712D01*
X158817712Y-112668656D01*
X158909814Y-112519334D01*
X158964999Y-112352797D01*
X158975500Y-112250009D01*
X158975499Y-111649992D01*
X158974418Y-111639414D01*
X158964999Y-111547203D01*
X158964998Y-111547200D01*
X158956934Y-111522864D01*
X158909814Y-111380666D01*
X158817712Y-111231344D01*
X158693656Y-111107288D01*
X158690342Y-111105243D01*
X158688546Y-111103248D01*
X158687989Y-111102807D01*
X158688064Y-111102711D01*
X158643618Y-111053297D01*
X158632397Y-110984334D01*
X158660240Y-110920252D01*
X158690348Y-110894165D01*
X158693342Y-110892318D01*
X158817315Y-110768345D01*
X158909356Y-110619124D01*
X158909358Y-110619119D01*
X158964505Y-110452697D01*
X158964506Y-110452690D01*
X158974999Y-110349986D01*
X158975000Y-110349973D01*
X158975000Y-110300000D01*
X157874000Y-110300000D01*
X157806961Y-110280315D01*
X157761206Y-110227511D01*
X157750000Y-110176000D01*
X157750000Y-109924000D01*
X157769685Y-109856961D01*
X157822489Y-109811206D01*
X157874000Y-109800000D01*
X158974999Y-109800000D01*
X158974999Y-109750028D01*
X158974998Y-109750013D01*
X158964505Y-109647302D01*
X158909358Y-109480880D01*
X158909356Y-109480875D01*
X158817315Y-109331654D01*
X158693345Y-109207684D01*
X158544124Y-109115643D01*
X158544119Y-109115641D01*
X158485920Y-109096356D01*
X158428475Y-109056583D01*
X158401652Y-108992067D01*
X158413967Y-108923291D01*
X158461510Y-108872092D01*
X158485914Y-108860946D01*
X158489334Y-108859814D01*
X158638656Y-108767712D01*
X158762712Y-108643656D01*
X158854814Y-108494334D01*
X158857496Y-108486240D01*
X158897266Y-108428794D01*
X158913205Y-108417852D01*
X158944126Y-108400000D01*
X158956216Y-108393020D01*
X159068020Y-108281216D01*
X159068020Y-108281214D01*
X159078224Y-108271011D01*
X159078228Y-108271006D01*
X159858506Y-107490728D01*
X159858511Y-107490724D01*
X159868714Y-107480520D01*
X159868716Y-107480520D01*
X159980520Y-107368716D01*
X160032284Y-107279057D01*
X160059577Y-107231785D01*
X160100501Y-107079057D01*
X160100501Y-106920943D01*
X160100501Y-106913348D01*
X160100500Y-106913330D01*
X160100500Y-106469102D01*
X160120185Y-106402063D01*
X160172989Y-106356308D01*
X160242147Y-106346364D01*
X160305703Y-106375389D01*
X160312181Y-106381421D01*
X160348438Y-106417678D01*
X160348447Y-106417685D01*
X160489803Y-106501282D01*
X160489806Y-106501283D01*
X160647504Y-106547099D01*
X160647510Y-106547100D01*
X160684350Y-106549999D01*
X160684366Y-106550000D01*
X161125000Y-106550000D01*
X161625000Y-106550000D01*
X162065634Y-106550000D01*
X162065649Y-106549999D01*
X162102489Y-106547100D01*
X162102495Y-106547099D01*
X162260193Y-106501283D01*
X162260196Y-106501282D01*
X162401552Y-106417685D01*
X162401561Y-106417678D01*
X162517678Y-106301561D01*
X162517685Y-106301552D01*
X162601281Y-106160198D01*
X162647100Y-106002486D01*
X162647295Y-106000001D01*
X162647295Y-106000000D01*
X161625000Y-106000000D01*
X161625000Y-106550000D01*
X161125000Y-106550000D01*
X161125000Y-105874000D01*
X161144685Y-105806961D01*
X161197489Y-105761206D01*
X161249000Y-105750000D01*
X161375000Y-105750000D01*
X161375000Y-105674500D01*
X161394685Y-105607461D01*
X161447489Y-105561706D01*
X161499000Y-105550500D01*
X162065686Y-105550500D01*
X162065694Y-105550500D01*
X162102569Y-105547598D01*
X162102571Y-105547597D01*
X162102573Y-105547597D01*
X162249455Y-105504924D01*
X162284050Y-105500000D01*
X162647295Y-105500000D01*
X162647295Y-105499998D01*
X162647099Y-105497503D01*
X162646967Y-105496777D01*
X162647010Y-105496366D01*
X162646603Y-105491191D01*
X162647563Y-105491115D01*
X162654287Y-105427292D01*
X162698011Y-105372795D01*
X162764258Y-105350589D01*
X162768949Y-105350500D01*
X163963331Y-105350500D01*
X163963347Y-105350501D01*
X163970943Y-105350501D01*
X164129054Y-105350501D01*
X164129057Y-105350501D01*
X164281785Y-105309577D01*
X164342081Y-105274765D01*
X164342082Y-105274765D01*
X164418709Y-105230524D01*
X164418708Y-105230524D01*
X164418716Y-105230520D01*
X164530520Y-105118716D01*
X164530520Y-105118714D01*
X164540724Y-105108511D01*
X164540728Y-105108506D01*
X164768535Y-104880698D01*
X164829856Y-104847215D01*
X164842311Y-104845163D01*
X164929255Y-104835368D01*
X165099522Y-104775789D01*
X165252262Y-104679816D01*
X165379816Y-104552262D01*
X165475789Y-104399522D01*
X165535368Y-104229255D01*
X165544354Y-104149500D01*
X165555565Y-104050003D01*
X165555565Y-104049996D01*
X165535369Y-103870750D01*
X165535368Y-103870745D01*
X165531945Y-103860964D01*
X165475789Y-103700478D01*
X165455598Y-103668345D01*
X165379815Y-103547737D01*
X165252262Y-103420184D01*
X165099523Y-103324211D01*
X164929254Y-103264631D01*
X164929249Y-103264630D01*
X164750004Y-103244435D01*
X164749996Y-103244435D01*
X164570750Y-103264630D01*
X164570745Y-103264631D01*
X164400476Y-103324211D01*
X164247737Y-103420184D01*
X164120184Y-103547737D01*
X164024210Y-103700478D01*
X163964630Y-103870750D01*
X163954837Y-103957667D01*
X163927770Y-104022081D01*
X163919299Y-104031463D01*
X163837584Y-104113180D01*
X163776262Y-104146666D01*
X163749902Y-104149500D01*
X162999096Y-104149500D01*
X162932057Y-104129815D01*
X162886302Y-104077011D01*
X162876358Y-104007853D01*
X162905383Y-103944297D01*
X162911415Y-103937819D01*
X163125495Y-103723739D01*
X163358506Y-103490728D01*
X163358511Y-103490724D01*
X163368714Y-103480520D01*
X163368716Y-103480520D01*
X163480520Y-103368716D01*
X163516885Y-103305730D01*
X163537813Y-103269482D01*
X163537814Y-103269480D01*
X163559574Y-103231790D01*
X163559573Y-103231790D01*
X163559577Y-103231785D01*
X163600500Y-103079057D01*
X163600500Y-102920943D01*
X163600500Y-100089060D01*
X163600501Y-100089047D01*
X163600501Y-99920944D01*
X163593205Y-99893716D01*
X163559577Y-99768216D01*
X163520481Y-99700499D01*
X163480524Y-99631290D01*
X163480518Y-99631282D01*
X162323736Y-98474500D01*
X161161415Y-97312180D01*
X161127931Y-97250858D01*
X161132915Y-97181166D01*
X161174787Y-97125233D01*
X161240251Y-97100816D01*
X161249097Y-97100500D01*
X161780336Y-97100500D01*
X161847375Y-97120185D01*
X161893130Y-97172989D01*
X161903626Y-97211246D01*
X161905909Y-97232483D01*
X161956202Y-97367328D01*
X161956206Y-97367335D01*
X162042452Y-97482544D01*
X162042455Y-97482547D01*
X162157664Y-97568793D01*
X162157671Y-97568797D01*
X162292517Y-97619091D01*
X162292516Y-97619091D01*
X162299444Y-97619835D01*
X162352127Y-97625500D01*
X164147872Y-97625499D01*
X164207483Y-97619091D01*
X164342331Y-97568796D01*
X164457546Y-97482546D01*
X164543796Y-97367331D01*
X164594091Y-97232483D01*
X164600500Y-97172873D01*
X164600499Y-95377128D01*
X164594091Y-95317517D01*
X164574763Y-95265697D01*
X164543797Y-95182671D01*
X164543793Y-95182664D01*
X164457547Y-95067455D01*
X164457544Y-95067452D01*
X164342335Y-94981206D01*
X164342328Y-94981202D01*
X164210917Y-94932189D01*
X164154983Y-94890318D01*
X164130566Y-94824853D01*
X164145418Y-94756580D01*
X164166563Y-94728332D01*
X164288495Y-94606401D01*
X164424035Y-94412830D01*
X164523903Y-94198663D01*
X164585063Y-93970408D01*
X164605659Y-93735000D01*
X164585063Y-93499592D01*
X164523903Y-93271337D01*
X164424035Y-93057171D01*
X164385588Y-93002262D01*
X164288494Y-92863597D01*
X164121402Y-92696506D01*
X164121401Y-92696505D01*
X163935405Y-92566269D01*
X163891781Y-92511692D01*
X163884588Y-92442193D01*
X163916110Y-92379839D01*
X163935405Y-92363119D01*
X164121082Y-92233105D01*
X164288105Y-92066082D01*
X164423600Y-91872578D01*
X164523429Y-91658492D01*
X164523432Y-91658486D01*
X164580636Y-91445000D01*
X163683012Y-91445000D01*
X163715925Y-91387993D01*
X163750000Y-91260826D01*
X163750000Y-91129174D01*
X163715925Y-91002007D01*
X163683012Y-90945000D01*
X164580636Y-90945000D01*
X164580635Y-90944999D01*
X164523432Y-90731513D01*
X164523429Y-90731507D01*
X164423600Y-90517422D01*
X164423599Y-90517420D01*
X164288113Y-90323926D01*
X164288108Y-90323920D01*
X164121082Y-90156894D01*
X163927578Y-90021399D01*
X163713492Y-89921570D01*
X163713486Y-89921567D01*
X163500000Y-89864364D01*
X163500000Y-90761988D01*
X163442993Y-90729075D01*
X163315826Y-90695000D01*
X163184174Y-90695000D01*
X163057007Y-90729075D01*
X163000000Y-90761988D01*
X163000000Y-89864364D01*
X162999999Y-89864364D01*
X162786513Y-89921567D01*
X162786507Y-89921570D01*
X162572422Y-90021399D01*
X162572420Y-90021400D01*
X162378926Y-90156886D01*
X162378920Y-90156891D01*
X162211891Y-90323920D01*
X162211886Y-90323926D01*
X162076400Y-90517420D01*
X162076399Y-90517422D01*
X161976570Y-90731507D01*
X161976567Y-90731513D01*
X161919364Y-90944999D01*
X161919364Y-90945000D01*
X162816988Y-90945000D01*
X162784075Y-91002007D01*
X162750000Y-91129174D01*
X162750000Y-91260826D01*
X162784075Y-91387993D01*
X162816988Y-91445000D01*
X161919364Y-91445000D01*
X161976567Y-91658486D01*
X161976570Y-91658492D01*
X162076399Y-91872578D01*
X162211894Y-92066082D01*
X162378917Y-92233105D01*
X162564595Y-92363119D01*
X162608219Y-92417696D01*
X162615412Y-92487195D01*
X162583890Y-92549549D01*
X162564595Y-92566269D01*
X162378594Y-92696508D01*
X162211505Y-92863597D01*
X162075965Y-93057169D01*
X162075964Y-93057171D01*
X161976098Y-93271335D01*
X161976094Y-93271344D01*
X161914938Y-93499586D01*
X161914936Y-93499596D01*
X161894341Y-93734999D01*
X161894341Y-93735000D01*
X161914936Y-93970403D01*
X161914938Y-93970413D01*
X161949327Y-94098756D01*
X161947664Y-94168606D01*
X161917233Y-94218530D01*
X160772584Y-95363181D01*
X160711261Y-95396666D01*
X160684903Y-95399500D01*
X152586669Y-95399500D01*
X152586653Y-95399499D01*
X152579057Y-95399499D01*
X152420943Y-95399499D01*
X152350267Y-95418437D01*
X152268216Y-95440422D01*
X152228354Y-95463437D01*
X152228353Y-95463436D01*
X152131287Y-95519477D01*
X151812181Y-95838583D01*
X151750858Y-95872068D01*
X151681166Y-95867084D01*
X151625233Y-95825212D01*
X151600816Y-95759748D01*
X151600500Y-95750902D01*
X151600500Y-89032138D01*
X153907788Y-89032138D01*
X153907788Y-89200274D01*
X153945905Y-89361101D01*
X153946564Y-89363881D01*
X154002621Y-89475500D01*
X154022022Y-89514131D01*
X154084563Y-89590905D01*
X154084569Y-89590911D01*
X154363181Y-89869523D01*
X154396666Y-89930846D01*
X154399500Y-89957204D01*
X154399500Y-91917587D01*
X154379815Y-91984626D01*
X154372450Y-91994896D01*
X154370186Y-91997734D01*
X154274211Y-92150476D01*
X154214631Y-92320745D01*
X154214630Y-92320750D01*
X154194435Y-92499996D01*
X154194435Y-92500000D01*
X154214630Y-92679249D01*
X154214631Y-92679254D01*
X154274211Y-92849523D01*
X154283056Y-92863599D01*
X154370184Y-93002262D01*
X154497738Y-93129816D01*
X154650478Y-93225789D01*
X154780641Y-93271335D01*
X154820745Y-93285368D01*
X154820750Y-93285369D01*
X154999996Y-93305565D01*
X155000000Y-93305565D01*
X155000004Y-93305565D01*
X155179249Y-93285369D01*
X155179252Y-93285368D01*
X155179255Y-93285368D01*
X155349522Y-93225789D01*
X155502262Y-93129816D01*
X155629816Y-93002262D01*
X155725789Y-92849522D01*
X155785368Y-92679255D01*
X155805565Y-92500000D01*
X155805563Y-92499983D01*
X155785369Y-92320750D01*
X155785368Y-92320745D01*
X155751870Y-92225013D01*
X155725789Y-92150478D01*
X155725174Y-92149500D01*
X155681160Y-92079452D01*
X155629816Y-91997738D01*
X155629814Y-91997736D01*
X155629813Y-91997734D01*
X155627550Y-91994896D01*
X155626659Y-91992715D01*
X155626111Y-91991842D01*
X155626264Y-91991745D01*
X155601144Y-91930209D01*
X155600500Y-91917587D01*
X155600500Y-89829996D01*
X155620185Y-89762957D01*
X155636819Y-89742315D01*
X155654151Y-89724983D01*
X156849500Y-89724983D01*
X156849500Y-90775001D01*
X156849501Y-90775019D01*
X156860000Y-90877796D01*
X156860001Y-90877799D01*
X156882270Y-90945000D01*
X156915186Y-91044334D01*
X157007288Y-91193656D01*
X157131344Y-91317712D01*
X157280666Y-91409814D01*
X157447203Y-91464999D01*
X157549991Y-91475500D01*
X158150008Y-91475499D01*
X158150016Y-91475498D01*
X158150019Y-91475498D01*
X158223037Y-91468039D01*
X158252797Y-91464999D01*
X158419334Y-91409814D01*
X158568656Y-91317712D01*
X158692712Y-91193656D01*
X158694752Y-91190347D01*
X158696745Y-91188555D01*
X158697193Y-91187989D01*
X158697289Y-91188065D01*
X158746694Y-91143623D01*
X158815656Y-91132395D01*
X158879740Y-91160234D01*
X158905829Y-91190339D01*
X158907681Y-91193341D01*
X158907683Y-91193344D01*
X159031654Y-91317315D01*
X159180875Y-91409356D01*
X159180880Y-91409358D01*
X159347302Y-91464505D01*
X159347309Y-91464506D01*
X159450019Y-91474999D01*
X160000000Y-91474999D01*
X160049972Y-91474999D01*
X160049986Y-91474998D01*
X160152697Y-91464505D01*
X160319119Y-91409358D01*
X160319124Y-91409356D01*
X160468345Y-91317315D01*
X160592315Y-91193345D01*
X160684356Y-91044124D01*
X160684358Y-91044119D01*
X160739505Y-90877697D01*
X160739506Y-90877690D01*
X160749999Y-90774986D01*
X160750000Y-90774973D01*
X160750000Y-90500000D01*
X160000000Y-90500000D01*
X160000000Y-91474999D01*
X159450019Y-91474999D01*
X159499999Y-91474998D01*
X159500000Y-91474998D01*
X159500000Y-90000000D01*
X160000000Y-90000000D01*
X160749999Y-90000000D01*
X160749999Y-89725028D01*
X160749998Y-89725013D01*
X160739505Y-89622302D01*
X160684358Y-89455880D01*
X160684356Y-89455875D01*
X160592315Y-89306654D01*
X160468345Y-89182684D01*
X160319124Y-89090643D01*
X160319119Y-89090641D01*
X160152697Y-89035494D01*
X160152690Y-89035493D01*
X160049986Y-89025000D01*
X160000000Y-89025000D01*
X160000000Y-90000000D01*
X159500000Y-90000000D01*
X159500000Y-89025000D01*
X159499999Y-89024999D01*
X159450029Y-89025000D01*
X159450011Y-89025001D01*
X159347302Y-89035494D01*
X159180880Y-89090641D01*
X159180875Y-89090643D01*
X159031654Y-89182684D01*
X158907683Y-89306655D01*
X158907679Y-89306660D01*
X158905826Y-89309665D01*
X158904018Y-89311290D01*
X158903202Y-89312323D01*
X158903025Y-89312183D01*
X158853874Y-89356385D01*
X158784911Y-89367601D01*
X158720831Y-89339752D01*
X158694753Y-89309653D01*
X158694737Y-89309628D01*
X158692712Y-89306344D01*
X158568656Y-89182288D01*
X158472516Y-89122989D01*
X158419336Y-89090187D01*
X158419331Y-89090185D01*
X158417862Y-89089698D01*
X158252797Y-89035001D01*
X158252795Y-89035000D01*
X158150010Y-89024500D01*
X157549998Y-89024500D01*
X157549980Y-89024501D01*
X157447203Y-89035000D01*
X157447200Y-89035001D01*
X157280668Y-89090185D01*
X157280663Y-89090187D01*
X157131342Y-89182289D01*
X157007289Y-89306342D01*
X156915187Y-89455663D01*
X156915185Y-89455668D01*
X156887349Y-89539670D01*
X156860001Y-89622203D01*
X156860001Y-89622204D01*
X156860000Y-89622204D01*
X156849500Y-89724983D01*
X155654151Y-89724983D01*
X155788229Y-89590905D01*
X156018039Y-89361095D01*
X156080580Y-89284321D01*
X156156039Y-89134069D01*
X156194814Y-88970464D01*
X156194814Y-88802328D01*
X156156039Y-88638724D01*
X156080580Y-88488471D01*
X156018039Y-88411697D01*
X155640905Y-88034563D01*
X155564131Y-87972022D01*
X155564126Y-87972019D01*
X155564124Y-87972018D01*
X155413881Y-87896564D01*
X155413879Y-87896563D01*
X155413878Y-87896563D01*
X155250274Y-87857788D01*
X155082138Y-87857788D01*
X154918533Y-87896563D01*
X154918529Y-87896564D01*
X154768285Y-87972019D01*
X154768284Y-87972020D01*
X154768282Y-87972021D01*
X154768281Y-87972022D01*
X154691507Y-88034563D01*
X154691506Y-88034564D01*
X154691500Y-88034569D01*
X154084569Y-88641500D01*
X154084564Y-88641506D01*
X154084563Y-88641507D01*
X154079843Y-88647302D01*
X154022020Y-88718284D01*
X154022019Y-88718285D01*
X153946564Y-88868529D01*
X153946563Y-88868532D01*
X153946563Y-88868533D01*
X153907788Y-89032138D01*
X151600500Y-89032138D01*
X151600500Y-87089059D01*
X151600501Y-87089046D01*
X151600501Y-86920945D01*
X151600501Y-86920943D01*
X151559577Y-86768215D01*
X151509275Y-86681090D01*
X151480520Y-86631284D01*
X151368716Y-86519480D01*
X151368715Y-86519479D01*
X151364385Y-86515149D01*
X151364374Y-86515139D01*
X149151563Y-84302328D01*
X152405186Y-84302328D01*
X152405186Y-84470464D01*
X152433669Y-84590643D01*
X152443962Y-84634072D01*
X152519417Y-84784316D01*
X152519420Y-84784321D01*
X152581961Y-84861095D01*
X152581967Y-84861101D01*
X152911880Y-85191014D01*
X152945365Y-85252337D01*
X152948199Y-85278695D01*
X152948199Y-85863330D01*
X152948198Y-85863348D01*
X152948198Y-86039046D01*
X152948199Y-86039059D01*
X152948199Y-86721305D01*
X152928514Y-86788344D01*
X152911880Y-86808986D01*
X152581967Y-87138898D01*
X152581962Y-87138904D01*
X152581961Y-87138905D01*
X152522079Y-87212416D01*
X152519418Y-87215682D01*
X152519417Y-87215683D01*
X152443962Y-87365927D01*
X152443961Y-87365930D01*
X152443961Y-87365931D01*
X152405186Y-87529536D01*
X152405186Y-87697672D01*
X152443303Y-87858499D01*
X152443962Y-87861279D01*
X152512340Y-87997432D01*
X152519420Y-88011529D01*
X152581961Y-88088303D01*
X152959095Y-88465437D01*
X153035869Y-88527978D01*
X153186122Y-88603437D01*
X153349726Y-88642212D01*
X153349728Y-88642212D01*
X153517860Y-88642212D01*
X153517862Y-88642212D01*
X153681467Y-88603437D01*
X153831719Y-88527978D01*
X153908493Y-88465437D01*
X154515437Y-87858493D01*
X154577978Y-87781719D01*
X154653437Y-87631467D01*
X154692212Y-87467862D01*
X154692212Y-87299726D01*
X154653437Y-87136122D01*
X154577978Y-86985869D01*
X154515437Y-86909095D01*
X154185518Y-86579176D01*
X154152033Y-86517853D01*
X154149199Y-86491495D01*
X154149199Y-86474500D01*
X154168884Y-86407461D01*
X154221688Y-86361706D01*
X154273199Y-86350500D01*
X156761415Y-86350500D01*
X156828454Y-86370185D01*
X156874209Y-86422989D01*
X156879118Y-86435489D01*
X156897677Y-86491495D01*
X156915185Y-86544331D01*
X156915187Y-86544336D01*
X156932254Y-86572006D01*
X157007288Y-86693656D01*
X157131344Y-86817712D01*
X157280666Y-86909814D01*
X157447203Y-86964999D01*
X157549991Y-86975500D01*
X158150008Y-86975499D01*
X158150016Y-86975498D01*
X158150019Y-86975498D01*
X158206302Y-86969748D01*
X158252797Y-86964999D01*
X158419334Y-86909814D01*
X158568656Y-86817712D01*
X158692712Y-86693656D01*
X158694752Y-86690347D01*
X158696745Y-86688555D01*
X158697193Y-86687989D01*
X158697289Y-86688065D01*
X158746694Y-86643623D01*
X158815656Y-86632395D01*
X158879740Y-86660234D01*
X158905829Y-86690339D01*
X158907681Y-86693341D01*
X158907683Y-86693344D01*
X159031654Y-86817315D01*
X159180875Y-86909356D01*
X159180880Y-86909358D01*
X159347302Y-86964505D01*
X159347309Y-86964506D01*
X159450019Y-86974999D01*
X160000000Y-86974999D01*
X160049972Y-86974999D01*
X160049986Y-86974998D01*
X160152697Y-86964505D01*
X160319119Y-86909358D01*
X160319124Y-86909356D01*
X160468345Y-86817315D01*
X160592315Y-86693345D01*
X160684356Y-86544124D01*
X160684358Y-86544119D01*
X160739505Y-86377697D01*
X160739506Y-86377690D01*
X160749999Y-86274986D01*
X160750000Y-86274973D01*
X160750000Y-86000000D01*
X160000000Y-86000000D01*
X160000000Y-86974999D01*
X159450019Y-86974999D01*
X159499999Y-86974998D01*
X159500000Y-86974998D01*
X159500000Y-85500000D01*
X160000000Y-85500000D01*
X160749999Y-85500000D01*
X160749999Y-85225028D01*
X160749998Y-85225013D01*
X160739505Y-85122302D01*
X160684358Y-84955880D01*
X160684356Y-84955875D01*
X160592315Y-84806654D01*
X160468345Y-84682684D01*
X160319124Y-84590643D01*
X160319119Y-84590641D01*
X160152697Y-84535494D01*
X160152690Y-84535493D01*
X160049986Y-84525000D01*
X160000000Y-84525000D01*
X160000000Y-85500000D01*
X159500000Y-85500000D01*
X159500000Y-84525000D01*
X159499999Y-84524999D01*
X159450029Y-84525000D01*
X159450011Y-84525001D01*
X159347302Y-84535494D01*
X159180880Y-84590641D01*
X159180875Y-84590643D01*
X159031654Y-84682684D01*
X158907683Y-84806655D01*
X158907679Y-84806660D01*
X158905826Y-84809665D01*
X158904018Y-84811290D01*
X158903202Y-84812323D01*
X158903025Y-84812183D01*
X158853874Y-84856385D01*
X158784911Y-84867601D01*
X158720831Y-84839752D01*
X158694753Y-84809653D01*
X158694737Y-84809628D01*
X158692712Y-84806344D01*
X158568656Y-84682288D01*
X158419334Y-84590186D01*
X158252797Y-84535001D01*
X158252795Y-84535000D01*
X158150010Y-84524500D01*
X157549998Y-84524500D01*
X157549980Y-84524501D01*
X157447203Y-84535000D01*
X157447200Y-84535001D01*
X157280668Y-84590185D01*
X157280663Y-84590187D01*
X157131342Y-84682289D01*
X157007289Y-84806342D01*
X156915187Y-84955663D01*
X156915186Y-84955665D01*
X156915186Y-84955666D01*
X156884148Y-85049334D01*
X156879121Y-85064504D01*
X156839348Y-85121949D01*
X156774833Y-85148772D01*
X156761415Y-85149500D01*
X154711027Y-85149500D01*
X154643988Y-85129815D01*
X154598233Y-85077011D01*
X154588289Y-85007853D01*
X154600217Y-84969849D01*
X154628236Y-84914058D01*
X154653437Y-84863878D01*
X154692212Y-84700274D01*
X154692212Y-84532138D01*
X154653437Y-84368533D01*
X154577978Y-84218281D01*
X154515437Y-84141507D01*
X153908493Y-83534563D01*
X153831719Y-83472022D01*
X153831714Y-83472019D01*
X153681470Y-83396564D01*
X153681468Y-83396563D01*
X153681467Y-83396563D01*
X153517862Y-83357788D01*
X153349726Y-83357788D01*
X153186122Y-83396563D01*
X153186118Y-83396564D01*
X153035875Y-83472018D01*
X153035870Y-83472021D01*
X153035869Y-83472022D01*
X152988431Y-83510666D01*
X152959094Y-83534564D01*
X152959088Y-83534569D01*
X152581967Y-83911690D01*
X152581962Y-83911696D01*
X152581961Y-83911697D01*
X152529987Y-83975500D01*
X152519421Y-83988470D01*
X152519416Y-83988477D01*
X152443962Y-84138720D01*
X152443961Y-84138723D01*
X152443961Y-84138724D01*
X152405186Y-84302328D01*
X149151563Y-84302328D01*
X148767590Y-83918355D01*
X148767588Y-83918352D01*
X148648717Y-83799481D01*
X148648716Y-83799480D01*
X148561904Y-83749360D01*
X148561904Y-83749359D01*
X148561900Y-83749358D01*
X148511785Y-83720423D01*
X148359057Y-83679499D01*
X148255301Y-83679499D01*
X148188262Y-83659814D01*
X148142507Y-83607010D01*
X148137595Y-83594504D01*
X148135540Y-83588303D01*
X148109814Y-83510666D01*
X148017712Y-83361344D01*
X147893656Y-83237288D01*
X147893655Y-83237287D01*
X147821902Y-83193029D01*
X147775178Y-83141081D01*
X147763000Y-83087491D01*
X147763000Y-82985591D01*
X147782685Y-82918552D01*
X147821903Y-82880052D01*
X147898656Y-82832712D01*
X148022712Y-82708656D01*
X148114814Y-82559334D01*
X148169999Y-82392797D01*
X148180500Y-82290009D01*
X148180499Y-81239992D01*
X148178970Y-81225028D01*
X148169999Y-81137203D01*
X148169998Y-81137200D01*
X148132984Y-81025500D01*
X148114814Y-80970666D01*
X148022712Y-80821344D01*
X147898656Y-80697288D01*
X147898655Y-80697287D01*
X147821902Y-80649945D01*
X147775178Y-80597997D01*
X147763000Y-80544407D01*
X147763000Y-80442507D01*
X147782685Y-80375468D01*
X147821903Y-80336968D01*
X147893656Y-80292712D01*
X148017712Y-80168656D01*
X148101916Y-80032138D01*
X153907788Y-80032138D01*
X153907788Y-80200274D01*
X153945905Y-80361101D01*
X153946564Y-80363881D01*
X154022018Y-80514124D01*
X154022022Y-80514131D01*
X154084563Y-80590905D01*
X154084569Y-80590911D01*
X154414482Y-80920824D01*
X154447967Y-80982147D01*
X154450801Y-81008505D01*
X154450801Y-81863330D01*
X154450800Y-81863348D01*
X154450800Y-81991496D01*
X154431115Y-82058535D01*
X154414481Y-82079177D01*
X154084569Y-82409088D01*
X154084564Y-82409094D01*
X154084563Y-82409095D01*
X154063057Y-82435496D01*
X154022023Y-82485868D01*
X154022018Y-82485875D01*
X153946564Y-82636118D01*
X153946563Y-82636121D01*
X153946563Y-82636122D01*
X153907788Y-82799726D01*
X153907788Y-82967862D01*
X153946563Y-83131467D01*
X153946564Y-83131470D01*
X154018652Y-83275009D01*
X154022022Y-83281719D01*
X154084563Y-83358493D01*
X154691507Y-83965437D01*
X154768281Y-84027978D01*
X154918533Y-84103437D01*
X155082138Y-84142212D01*
X155082140Y-84142212D01*
X155250272Y-84142212D01*
X155250274Y-84142212D01*
X155413878Y-84103437D01*
X155564131Y-84027978D01*
X155640905Y-83965437D01*
X156018039Y-83588303D01*
X156080580Y-83511529D01*
X156156039Y-83361276D01*
X156194814Y-83197672D01*
X156194814Y-83029536D01*
X156156039Y-82865931D01*
X156139156Y-82832315D01*
X156080582Y-82715683D01*
X156080580Y-82715679D01*
X156018039Y-82638905D01*
X155941315Y-82562181D01*
X155907830Y-82500858D01*
X155912814Y-82431166D01*
X155954686Y-82375233D01*
X156020150Y-82350816D01*
X156028996Y-82350500D01*
X156761415Y-82350500D01*
X156828454Y-82370185D01*
X156874209Y-82422989D01*
X156879118Y-82435489D01*
X156915186Y-82544334D01*
X157007288Y-82693656D01*
X157131344Y-82817712D01*
X157280666Y-82909814D01*
X157447203Y-82964999D01*
X157549991Y-82975500D01*
X158150008Y-82975499D01*
X158150016Y-82975498D01*
X158150019Y-82975498D01*
X158206302Y-82969748D01*
X158252797Y-82964999D01*
X158419334Y-82909814D01*
X158568656Y-82817712D01*
X158692712Y-82693656D01*
X158694752Y-82690347D01*
X158696745Y-82688555D01*
X158697193Y-82687989D01*
X158697289Y-82688065D01*
X158746694Y-82643623D01*
X158815656Y-82632395D01*
X158879740Y-82660234D01*
X158905829Y-82690339D01*
X158907681Y-82693341D01*
X158907683Y-82693344D01*
X159031654Y-82817315D01*
X159180875Y-82909356D01*
X159180880Y-82909358D01*
X159347302Y-82964505D01*
X159347309Y-82964506D01*
X159450019Y-82974999D01*
X160000000Y-82974999D01*
X160049972Y-82974999D01*
X160049986Y-82974998D01*
X160152697Y-82964505D01*
X160319119Y-82909358D01*
X160319124Y-82909356D01*
X160468345Y-82817315D01*
X160592315Y-82693345D01*
X160684356Y-82544124D01*
X160684358Y-82544119D01*
X160739505Y-82377697D01*
X160739506Y-82377690D01*
X160749999Y-82274986D01*
X160750000Y-82274973D01*
X160750000Y-82000000D01*
X160000000Y-82000000D01*
X160000000Y-82974999D01*
X159450019Y-82974999D01*
X159499999Y-82974998D01*
X159500000Y-82974998D01*
X159500000Y-81500000D01*
X160000000Y-81500000D01*
X160749999Y-81500000D01*
X160749999Y-81225028D01*
X160749998Y-81225013D01*
X160739505Y-81122302D01*
X160684358Y-80955880D01*
X160684356Y-80955875D01*
X160592315Y-80806654D01*
X160468345Y-80682684D01*
X160319124Y-80590643D01*
X160319119Y-80590641D01*
X160152697Y-80535494D01*
X160152690Y-80535493D01*
X160049986Y-80525000D01*
X160000000Y-80525000D01*
X160000000Y-81500000D01*
X159500000Y-81500000D01*
X159500000Y-80525000D01*
X159499999Y-80524999D01*
X159450029Y-80525000D01*
X159450011Y-80525001D01*
X159347302Y-80535494D01*
X159180880Y-80590641D01*
X159180875Y-80590643D01*
X159031654Y-80682684D01*
X158907683Y-80806655D01*
X158907679Y-80806660D01*
X158905826Y-80809665D01*
X158904018Y-80811290D01*
X158903202Y-80812323D01*
X158903025Y-80812183D01*
X158853874Y-80856385D01*
X158784911Y-80867601D01*
X158720831Y-80839752D01*
X158694753Y-80809653D01*
X158694419Y-80809111D01*
X158692712Y-80806344D01*
X158568656Y-80682288D01*
X158444391Y-80605641D01*
X158419336Y-80590187D01*
X158419331Y-80590185D01*
X158417862Y-80589698D01*
X158252797Y-80535001D01*
X158252795Y-80535000D01*
X158150010Y-80524500D01*
X157549998Y-80524500D01*
X157549980Y-80524501D01*
X157447203Y-80535000D01*
X157447200Y-80535001D01*
X157280668Y-80590185D01*
X157280663Y-80590187D01*
X157131342Y-80682289D01*
X157007289Y-80806342D01*
X156915187Y-80955663D01*
X156915185Y-80955668D01*
X156879121Y-81064504D01*
X156839348Y-81121949D01*
X156774833Y-81148772D01*
X156761415Y-81149500D01*
X155775801Y-81149500D01*
X155708762Y-81129815D01*
X155663007Y-81077011D01*
X155651801Y-81025500D01*
X155651801Y-80778695D01*
X155671486Y-80711656D01*
X155688120Y-80691014D01*
X155844134Y-80535000D01*
X156018039Y-80361095D01*
X156080580Y-80284321D01*
X156156039Y-80134069D01*
X156194814Y-79970464D01*
X156194814Y-79802328D01*
X156156039Y-79638724D01*
X156080580Y-79488471D01*
X156018039Y-79411697D01*
X155640905Y-79034563D01*
X155564131Y-78972022D01*
X155564126Y-78972019D01*
X155564124Y-78972018D01*
X155413881Y-78896564D01*
X155413879Y-78896563D01*
X155413878Y-78896563D01*
X155250274Y-78857788D01*
X155082138Y-78857788D01*
X154918533Y-78896563D01*
X154918529Y-78896564D01*
X154768285Y-78972019D01*
X154768284Y-78972020D01*
X154768282Y-78972021D01*
X154768281Y-78972022D01*
X154768280Y-78972023D01*
X154691506Y-79034564D01*
X154691500Y-79034569D01*
X154084569Y-79641500D01*
X154084564Y-79641506D01*
X154022020Y-79718284D01*
X154022019Y-79718285D01*
X153946564Y-79868529D01*
X153946563Y-79868532D01*
X153946563Y-79868533D01*
X153907788Y-80032138D01*
X148101916Y-80032138D01*
X148109814Y-80019334D01*
X148164999Y-79852797D01*
X148175500Y-79750009D01*
X148175499Y-78749992D01*
X148170154Y-78697672D01*
X148164999Y-78647203D01*
X148164998Y-78647200D01*
X148126008Y-78529537D01*
X148109814Y-78480666D01*
X148017712Y-78331344D01*
X147893656Y-78207288D01*
X147782778Y-78138898D01*
X147744336Y-78115187D01*
X147744331Y-78115185D01*
X147731946Y-78111081D01*
X147577797Y-78060001D01*
X147577795Y-78060000D01*
X147475010Y-78049500D01*
X146849998Y-78049500D01*
X146849980Y-78049501D01*
X146747203Y-78060000D01*
X146747200Y-78060001D01*
X146580668Y-78115185D01*
X146580663Y-78115187D01*
X146431342Y-78207289D01*
X146337681Y-78300951D01*
X146276358Y-78334436D01*
X146206666Y-78329452D01*
X146162319Y-78300951D01*
X146068655Y-78207287D01*
X145996902Y-78163029D01*
X145950178Y-78111081D01*
X145938000Y-78057491D01*
X145938000Y-73967507D01*
X145957685Y-73900468D01*
X145996903Y-73861968D01*
X146068656Y-73817712D01*
X146192712Y-73693656D01*
X146194752Y-73690347D01*
X146196745Y-73688555D01*
X146197193Y-73687989D01*
X146197289Y-73688065D01*
X146246694Y-73643623D01*
X146315656Y-73632395D01*
X146379740Y-73660234D01*
X146405829Y-73690339D01*
X146407681Y-73693341D01*
X146407683Y-73693344D01*
X146531654Y-73817315D01*
X146680875Y-73909356D01*
X146680880Y-73909358D01*
X146847302Y-73964505D01*
X146847309Y-73964506D01*
X146950019Y-73974999D01*
X147500000Y-73974999D01*
X147549972Y-73974999D01*
X147549986Y-73974998D01*
X147652697Y-73964505D01*
X147819119Y-73909358D01*
X147819124Y-73909356D01*
X147968345Y-73817315D01*
X148092315Y-73693345D01*
X148184356Y-73544124D01*
X148184358Y-73544119D01*
X148239505Y-73377697D01*
X148239506Y-73377690D01*
X148243577Y-73337844D01*
X150250000Y-73337844D01*
X150256401Y-73397372D01*
X150256403Y-73397379D01*
X150306645Y-73532086D01*
X150306649Y-73532093D01*
X150392809Y-73647187D01*
X150392812Y-73647190D01*
X150507906Y-73733350D01*
X150507913Y-73733354D01*
X150642620Y-73783596D01*
X150642627Y-73783598D01*
X150702155Y-73789999D01*
X150702172Y-73790000D01*
X151250000Y-73790000D01*
X151750000Y-73790000D01*
X152297828Y-73790000D01*
X152297844Y-73789999D01*
X152357372Y-73783598D01*
X152357379Y-73783596D01*
X152492086Y-73733354D01*
X152492093Y-73733350D01*
X152607187Y-73647190D01*
X152607190Y-73647187D01*
X152693350Y-73532093D01*
X152693354Y-73532086D01*
X152743596Y-73397379D01*
X152743598Y-73397372D01*
X152749999Y-73337844D01*
X152750000Y-73337827D01*
X152750000Y-71000000D01*
X151750000Y-71000000D01*
X151750000Y-73790000D01*
X151250000Y-73790000D01*
X151250000Y-71000000D01*
X150250000Y-71000000D01*
X150250000Y-73337844D01*
X148243577Y-73337844D01*
X148249999Y-73274986D01*
X148250000Y-73274973D01*
X148250000Y-73000000D01*
X147500000Y-73000000D01*
X147500000Y-73974999D01*
X146950019Y-73974999D01*
X146999999Y-73974998D01*
X147000000Y-73974998D01*
X147000000Y-72500000D01*
X147500000Y-72500000D01*
X148249999Y-72500000D01*
X148249999Y-72225028D01*
X148249998Y-72225013D01*
X148239505Y-72122302D01*
X148184358Y-71955880D01*
X148184356Y-71955875D01*
X148092315Y-71806654D01*
X147968345Y-71682684D01*
X147819124Y-71590643D01*
X147819119Y-71590641D01*
X147652697Y-71535494D01*
X147652690Y-71535493D01*
X147549986Y-71525000D01*
X147500000Y-71525000D01*
X147500000Y-72500000D01*
X147000000Y-72500000D01*
X147000000Y-71525000D01*
X146999999Y-71524999D01*
X146950029Y-71525000D01*
X146950011Y-71525001D01*
X146847302Y-71535494D01*
X146680880Y-71590641D01*
X146680875Y-71590643D01*
X146531654Y-71682684D01*
X146407683Y-71806655D01*
X146407679Y-71806660D01*
X146405826Y-71809665D01*
X146404018Y-71811290D01*
X146403202Y-71812323D01*
X146403025Y-71812183D01*
X146353874Y-71856385D01*
X146284911Y-71867601D01*
X146220831Y-71839752D01*
X146194753Y-71809653D01*
X146194737Y-71809628D01*
X146192712Y-71806344D01*
X146068656Y-71682288D01*
X145949650Y-71608885D01*
X145919336Y-71590187D01*
X145919331Y-71590185D01*
X145917862Y-71589698D01*
X145752797Y-71535001D01*
X145752795Y-71535000D01*
X145650010Y-71524500D01*
X145049998Y-71524500D01*
X145049980Y-71524501D01*
X144947203Y-71535000D01*
X144947200Y-71535001D01*
X144780668Y-71590185D01*
X144780663Y-71590187D01*
X144631342Y-71682289D01*
X144507289Y-71806342D01*
X144490122Y-71834174D01*
X144463701Y-71877011D01*
X144455321Y-71890597D01*
X144403373Y-71937321D01*
X144349782Y-71949500D01*
X143074499Y-71949500D01*
X143007460Y-71929815D01*
X142961705Y-71877011D01*
X142950499Y-71825500D01*
X142950499Y-71502129D01*
X142950498Y-71502123D01*
X142950497Y-71502116D01*
X142944091Y-71442517D01*
X142911662Y-71355571D01*
X142893797Y-71307671D01*
X142893793Y-71307664D01*
X142807547Y-71192455D01*
X142807544Y-71192452D01*
X142692335Y-71106206D01*
X142692328Y-71106202D01*
X142557482Y-71055908D01*
X142557483Y-71055908D01*
X142497883Y-71049501D01*
X142497881Y-71049500D01*
X142497873Y-71049500D01*
X142497864Y-71049500D01*
X140002129Y-71049500D01*
X140002123Y-71049501D01*
X139942516Y-71055908D01*
X139807671Y-71106202D01*
X139807664Y-71106206D01*
X139692455Y-71192452D01*
X139692452Y-71192455D01*
X139606206Y-71307664D01*
X139606202Y-71307671D01*
X139555908Y-71442517D01*
X139549501Y-71502116D01*
X139549501Y-71502123D01*
X139549500Y-71502135D01*
X139549500Y-71525500D01*
X139529815Y-71592539D01*
X139477011Y-71638294D01*
X139425500Y-71649500D01*
X131822302Y-71649500D01*
X131755263Y-71629815D01*
X131709508Y-71577011D01*
X131702527Y-71557594D01*
X131687665Y-71502128D01*
X131648398Y-71355581D01*
X131580829Y-71192455D01*
X131548046Y-71113309D01*
X131548041Y-71113299D01*
X131416924Y-70886196D01*
X131257281Y-70678148D01*
X131257274Y-70678140D01*
X131071860Y-70492726D01*
X131071851Y-70492718D01*
X130863803Y-70333075D01*
X130636700Y-70201958D01*
X130636690Y-70201953D01*
X130394428Y-70101605D01*
X130394421Y-70101603D01*
X130394419Y-70101602D01*
X130141116Y-70033730D01*
X130083339Y-70026123D01*
X129881127Y-69999500D01*
X129881120Y-69999500D01*
X129874500Y-69999500D01*
X129807461Y-69979815D01*
X129761706Y-69927011D01*
X129750500Y-69875500D01*
X129750500Y-68374500D01*
X129770185Y-68307461D01*
X129822989Y-68261706D01*
X129874500Y-68250500D01*
X150126000Y-68250500D01*
X150193039Y-68270185D01*
G37*
%TD.AperFunction*%
%TA.AperFunction,Conductor*%
G36*
X139348274Y-94119104D02*
G01*
X139380695Y-94139940D01*
X139381969Y-94138298D01*
X139388132Y-94143078D01*
X139388135Y-94143081D01*
X139529602Y-94226744D01*
X139547793Y-94232029D01*
X139687426Y-94272597D01*
X139687429Y-94272597D01*
X139687431Y-94272598D01*
X139724306Y-94275500D01*
X139724314Y-94275500D01*
X140155686Y-94275500D01*
X140155694Y-94275500D01*
X140192569Y-94272598D01*
X140192571Y-94272597D01*
X140192573Y-94272597D01*
X140258913Y-94253323D01*
X140350398Y-94226744D01*
X140462379Y-94160519D01*
X140530103Y-94143336D01*
X140596366Y-94165496D01*
X140640129Y-94219962D01*
X140649500Y-94267251D01*
X140649500Y-94667587D01*
X140629815Y-94734626D01*
X140622450Y-94744896D01*
X140620186Y-94747734D01*
X140524211Y-94900476D01*
X140464631Y-95070745D01*
X140464630Y-95070750D01*
X140444435Y-95249996D01*
X140444435Y-95250003D01*
X140464630Y-95429249D01*
X140464631Y-95429254D01*
X140524211Y-95599523D01*
X140547646Y-95636819D01*
X140620184Y-95752262D01*
X140747738Y-95879816D01*
X140900478Y-95975789D01*
X141025340Y-96019480D01*
X141065287Y-96033458D01*
X141122063Y-96074180D01*
X141147810Y-96139133D01*
X141134354Y-96207694D01*
X141085967Y-96258097D01*
X141024332Y-96274500D01*
X140994298Y-96274500D01*
X140957432Y-96277401D01*
X140957426Y-96277402D01*
X140799606Y-96323254D01*
X140799603Y-96323255D01*
X140658137Y-96406917D01*
X140651969Y-96411702D01*
X140650072Y-96409256D01*
X140601358Y-96435857D01*
X140531666Y-96430873D01*
X140499296Y-96410069D01*
X140498031Y-96411702D01*
X140491862Y-96406917D01*
X140350396Y-96323255D01*
X140350393Y-96323254D01*
X140192573Y-96277402D01*
X140192567Y-96277401D01*
X140155701Y-96274500D01*
X140155694Y-96274500D01*
X139724306Y-96274500D01*
X139724298Y-96274500D01*
X139687432Y-96277401D01*
X139687426Y-96277402D01*
X139529606Y-96323254D01*
X139529603Y-96323255D01*
X139388137Y-96406917D01*
X139381969Y-96411702D01*
X139380072Y-96409256D01*
X139331358Y-96435857D01*
X139261666Y-96430873D01*
X139229296Y-96410069D01*
X139228031Y-96411702D01*
X139221862Y-96406917D01*
X139080396Y-96323255D01*
X139080393Y-96323254D01*
X138922573Y-96277402D01*
X138922567Y-96277401D01*
X138885701Y-96274500D01*
X138885694Y-96274500D01*
X138454306Y-96274500D01*
X138454298Y-96274500D01*
X138417432Y-96277401D01*
X138417426Y-96277402D01*
X138259606Y-96323254D01*
X138259603Y-96323255D01*
X138118137Y-96406917D01*
X138111969Y-96411702D01*
X138110072Y-96409256D01*
X138061358Y-96435857D01*
X137991666Y-96430873D01*
X137959296Y-96410069D01*
X137958031Y-96411702D01*
X137951862Y-96406917D01*
X137810396Y-96323255D01*
X137810393Y-96323254D01*
X137652573Y-96277402D01*
X137652567Y-96277401D01*
X137615701Y-96274500D01*
X137615694Y-96274500D01*
X137184306Y-96274500D01*
X137184298Y-96274500D01*
X137147432Y-96277401D01*
X137147426Y-96277402D01*
X136989606Y-96323254D01*
X136989603Y-96323255D01*
X136848137Y-96406917D01*
X136848129Y-96406923D01*
X136731923Y-96523129D01*
X136731917Y-96523137D01*
X136648255Y-96664603D01*
X136648254Y-96664606D01*
X136602402Y-96822426D01*
X136602401Y-96822432D01*
X136599500Y-96859298D01*
X136599500Y-97025500D01*
X136579815Y-97092539D01*
X136527011Y-97138294D01*
X136475500Y-97149500D01*
X136332412Y-97149500D01*
X136265373Y-97129815D01*
X136255097Y-97122445D01*
X136252263Y-97120185D01*
X136252262Y-97120184D01*
X136195496Y-97084515D01*
X136099523Y-97024211D01*
X135929254Y-96964631D01*
X135929249Y-96964630D01*
X135750004Y-96944435D01*
X135749996Y-96944435D01*
X135570750Y-96964630D01*
X135570745Y-96964631D01*
X135400476Y-97024211D01*
X135333321Y-97066408D01*
X135266084Y-97085408D01*
X135199249Y-97065040D01*
X135154035Y-97011772D01*
X135149643Y-97000418D01*
X135134814Y-96955666D01*
X135042712Y-96806344D01*
X134918656Y-96682288D01*
X134825888Y-96625069D01*
X134769336Y-96590187D01*
X134769331Y-96590185D01*
X134735749Y-96579057D01*
X134602797Y-96535001D01*
X134602795Y-96535000D01*
X134500010Y-96524500D01*
X133899998Y-96524500D01*
X133899980Y-96524501D01*
X133797203Y-96535000D01*
X133797200Y-96535001D01*
X133630668Y-96590185D01*
X133630663Y-96590187D01*
X133481342Y-96682289D01*
X133357288Y-96806343D01*
X133357283Y-96806349D01*
X133355241Y-96809661D01*
X133353247Y-96811453D01*
X133352807Y-96812011D01*
X133352711Y-96811935D01*
X133303291Y-96856383D01*
X133234328Y-96867602D01*
X133170247Y-96839755D01*
X133144168Y-96809656D01*
X133142319Y-96806659D01*
X133142316Y-96806655D01*
X133018345Y-96682684D01*
X132869124Y-96590643D01*
X132869119Y-96590641D01*
X132702697Y-96535494D01*
X132702690Y-96535493D01*
X132599986Y-96525000D01*
X132550000Y-96525000D01*
X132550000Y-98974999D01*
X132599972Y-98974999D01*
X132599986Y-98974998D01*
X132702697Y-98964505D01*
X132869119Y-98909358D01*
X132869124Y-98909356D01*
X133018345Y-98817315D01*
X133142318Y-98693342D01*
X133144165Y-98690348D01*
X133145969Y-98688724D01*
X133146798Y-98687677D01*
X133146976Y-98687818D01*
X133196110Y-98643621D01*
X133265073Y-98632396D01*
X133329156Y-98660236D01*
X133355243Y-98690341D01*
X133357288Y-98693656D01*
X133481344Y-98817712D01*
X133630666Y-98909814D01*
X133797203Y-98964999D01*
X133899991Y-98975500D01*
X134500008Y-98975499D01*
X134500016Y-98975498D01*
X134500019Y-98975498D01*
X134556302Y-98969748D01*
X134602797Y-98964999D01*
X134769334Y-98909814D01*
X134918656Y-98817712D01*
X135042712Y-98693656D01*
X135134814Y-98544334D01*
X135149643Y-98499580D01*
X135189415Y-98442136D01*
X135253931Y-98415313D01*
X135322707Y-98427628D01*
X135333322Y-98433592D01*
X135400475Y-98475788D01*
X135570745Y-98535368D01*
X135570750Y-98535369D01*
X135749996Y-98555565D01*
X135750000Y-98555565D01*
X135750004Y-98555565D01*
X135929249Y-98535369D01*
X135929252Y-98535368D01*
X135929255Y-98535368D01*
X136099522Y-98475789D01*
X136252262Y-98379816D01*
X136252267Y-98379810D01*
X136255097Y-98377555D01*
X136257275Y-98376665D01*
X136258158Y-98376111D01*
X136258255Y-98376265D01*
X136319783Y-98351145D01*
X136332412Y-98350500D01*
X136475500Y-98350500D01*
X136542539Y-98370185D01*
X136588294Y-98422989D01*
X136599500Y-98474500D01*
X136599500Y-98640701D01*
X136602401Y-98677567D01*
X136602402Y-98677573D01*
X136648254Y-98835393D01*
X136648255Y-98835396D01*
X136648256Y-98835398D01*
X136661317Y-98857483D01*
X136731917Y-98976862D01*
X136731923Y-98976870D01*
X136848129Y-99093076D01*
X136848133Y-99093079D01*
X136848135Y-99093081D01*
X136989602Y-99176744D01*
X137031224Y-99188836D01*
X137147426Y-99222597D01*
X137147429Y-99222597D01*
X137147431Y-99222598D01*
X137184306Y-99225500D01*
X137184314Y-99225500D01*
X137615686Y-99225500D01*
X137615694Y-99225500D01*
X137652569Y-99222598D01*
X137652571Y-99222597D01*
X137652573Y-99222597D01*
X137706243Y-99207004D01*
X137810398Y-99176744D01*
X137882381Y-99134173D01*
X137950102Y-99116991D01*
X138016365Y-99139151D01*
X138060129Y-99193617D01*
X138069500Y-99240906D01*
X138069500Y-100292676D01*
X138050494Y-100358648D01*
X138024211Y-100400476D01*
X137964631Y-100570745D01*
X137964630Y-100570750D01*
X137944435Y-100749996D01*
X137944435Y-100750003D01*
X137964630Y-100929249D01*
X137964631Y-100929254D01*
X138024211Y-101099523D01*
X138064363Y-101163424D01*
X138120184Y-101252262D01*
X138247738Y-101379816D01*
X138400478Y-101475789D01*
X138436104Y-101488255D01*
X138570745Y-101535368D01*
X138570750Y-101535369D01*
X138749996Y-101555565D01*
X138750000Y-101555565D01*
X138750004Y-101555565D01*
X138929249Y-101535369D01*
X138929252Y-101535368D01*
X138929255Y-101535368D01*
X139099522Y-101475789D01*
X139252262Y-101379816D01*
X139379816Y-101252262D01*
X139475789Y-101099522D01*
X139535368Y-100929255D01*
X139544537Y-100847876D01*
X139555565Y-100750003D01*
X139555565Y-100749997D01*
X139548285Y-100685389D01*
X139560339Y-100616567D01*
X139607688Y-100565188D01*
X139675298Y-100547563D01*
X139685385Y-100548284D01*
X139711857Y-100551267D01*
X139749998Y-100555565D01*
X139750000Y-100555565D01*
X139750004Y-100555565D01*
X139929249Y-100535369D01*
X139929252Y-100535368D01*
X139929255Y-100535368D01*
X140099522Y-100475789D01*
X140252262Y-100379816D01*
X140379816Y-100252262D01*
X140380505Y-100251166D01*
X140381132Y-100250610D01*
X140384159Y-100246816D01*
X140384823Y-100247345D01*
X140432838Y-100204873D01*
X140501891Y-100194223D01*
X140565740Y-100222597D01*
X140604114Y-100280985D01*
X140609500Y-100317135D01*
X140609500Y-101623330D01*
X140609499Y-101623348D01*
X140609499Y-101789054D01*
X140609498Y-101789054D01*
X140612781Y-101801305D01*
X140650423Y-101941785D01*
X140650424Y-101941787D01*
X140650423Y-101941787D01*
X140656553Y-101952403D01*
X140656554Y-101952404D01*
X140729477Y-102078712D01*
X140729481Y-102078717D01*
X140848349Y-102197585D01*
X140848355Y-102197590D01*
X144263181Y-105612416D01*
X144296666Y-105673739D01*
X144299500Y-105700097D01*
X144299500Y-107688330D01*
X144299499Y-107688348D01*
X144299499Y-107854054D01*
X144299498Y-107854054D01*
X144303411Y-107868656D01*
X144339005Y-108001494D01*
X144340424Y-108006787D01*
X144354350Y-108030907D01*
X144354351Y-108030909D01*
X144419477Y-108143712D01*
X144419481Y-108143717D01*
X144538349Y-108262585D01*
X144538355Y-108262590D01*
X144640139Y-108364374D01*
X144640160Y-108364397D01*
X144663679Y-108387915D01*
X144697166Y-108449237D01*
X144700000Y-108475598D01*
X144700000Y-108550000D01*
X144718591Y-108550000D01*
X144785630Y-108569685D01*
X144817855Y-108599686D01*
X144842454Y-108632546D01*
X144842455Y-108632546D01*
X144842456Y-108632548D01*
X144933540Y-108700734D01*
X144975411Y-108756668D01*
X144980395Y-108826359D01*
X144946909Y-108887682D01*
X144933540Y-108899266D01*
X144842456Y-108967451D01*
X144836753Y-108975070D01*
X144817856Y-109000312D01*
X144761924Y-109042182D01*
X144718591Y-109050000D01*
X144700000Y-109050000D01*
X144686819Y-109063181D01*
X144625496Y-109096666D01*
X144599138Y-109099500D01*
X143959798Y-109099500D01*
X143892759Y-109079815D01*
X143854259Y-109040597D01*
X143854151Y-109040422D01*
X143817712Y-108981344D01*
X143693656Y-108857288D01*
X143690342Y-108855243D01*
X143688546Y-108853248D01*
X143687989Y-108852807D01*
X143688064Y-108852711D01*
X143643618Y-108803297D01*
X143632397Y-108734334D01*
X143660240Y-108670252D01*
X143690348Y-108644165D01*
X143693342Y-108642318D01*
X143817315Y-108518345D01*
X143909356Y-108369124D01*
X143909358Y-108369119D01*
X143964505Y-108202697D01*
X143964506Y-108202690D01*
X143974999Y-108099986D01*
X143975000Y-108099973D01*
X143975000Y-108050000D01*
X141525001Y-108050000D01*
X141525001Y-108099986D01*
X141535494Y-108202697D01*
X141590641Y-108369119D01*
X141590643Y-108369124D01*
X141682684Y-108518345D01*
X141806655Y-108642316D01*
X141806659Y-108642319D01*
X141809656Y-108644168D01*
X141811279Y-108645972D01*
X141812323Y-108646798D01*
X141812181Y-108646976D01*
X141856381Y-108696116D01*
X141867602Y-108765079D01*
X141839759Y-108829161D01*
X141809661Y-108855241D01*
X141806349Y-108857283D01*
X141806343Y-108857288D01*
X141682289Y-108981342D01*
X141590187Y-109130663D01*
X141590185Y-109130668D01*
X141570826Y-109189090D01*
X141535001Y-109297203D01*
X141535001Y-109297204D01*
X141535000Y-109297204D01*
X141524500Y-109399983D01*
X141524500Y-110000001D01*
X141524501Y-110000019D01*
X141535000Y-110102796D01*
X141535001Y-110102799D01*
X141584529Y-110252262D01*
X141590186Y-110269334D01*
X141682288Y-110418656D01*
X141806344Y-110542712D01*
X141955666Y-110634814D01*
X142115313Y-110687716D01*
X142172757Y-110727488D01*
X142199580Y-110792003D01*
X142187265Y-110860779D01*
X142139722Y-110911979D01*
X142115313Y-110923127D01*
X141950666Y-110977686D01*
X141950663Y-110977687D01*
X141801342Y-111069789D01*
X141677289Y-111193842D01*
X141677288Y-111193844D01*
X141626923Y-111275500D01*
X141625321Y-111278097D01*
X141573373Y-111324821D01*
X141519782Y-111337000D01*
X140541439Y-111337000D01*
X140474400Y-111317315D01*
X140467128Y-111312267D01*
X140442331Y-111293704D01*
X140442328Y-111293702D01*
X140307482Y-111243408D01*
X140307483Y-111243408D01*
X140247883Y-111237001D01*
X140247881Y-111237000D01*
X140247873Y-111237000D01*
X140247864Y-111237000D01*
X138252129Y-111237000D01*
X138252123Y-111237001D01*
X138192516Y-111243408D01*
X138057671Y-111293702D01*
X138057664Y-111293706D01*
X137942455Y-111379952D01*
X137942452Y-111379955D01*
X137856206Y-111495164D01*
X137856202Y-111495171D01*
X137808823Y-111622203D01*
X137805909Y-111630017D01*
X137799500Y-111689627D01*
X137799500Y-111689634D01*
X137799500Y-111689635D01*
X137799500Y-112185370D01*
X137799501Y-112185376D01*
X137805908Y-112244983D01*
X137856202Y-112379828D01*
X137856204Y-112379831D01*
X137918917Y-112463604D01*
X137943335Y-112529069D01*
X137928484Y-112597342D01*
X137918918Y-112612227D01*
X137856647Y-112695410D01*
X137856645Y-112695413D01*
X137806403Y-112830120D01*
X137806401Y-112830127D01*
X137800000Y-112889655D01*
X137800000Y-112937500D01*
X140700000Y-112937500D01*
X140700000Y-112889672D01*
X140699999Y-112889655D01*
X140693598Y-112830127D01*
X140693596Y-112830120D01*
X140647054Y-112705333D01*
X140642070Y-112635642D01*
X140675555Y-112574318D01*
X140736878Y-112540834D01*
X140763236Y-112538000D01*
X141535202Y-112538000D01*
X141602241Y-112557685D01*
X141640739Y-112596901D01*
X141671688Y-112647077D01*
X141677289Y-112656157D01*
X141770951Y-112749819D01*
X141804436Y-112811142D01*
X141799452Y-112880834D01*
X141770951Y-112925181D01*
X141677289Y-113018842D01*
X141585187Y-113168163D01*
X141585185Y-113168168D01*
X141576739Y-113193656D01*
X141530001Y-113334703D01*
X141530001Y-113334704D01*
X141530000Y-113334704D01*
X141519500Y-113437483D01*
X141519500Y-113613000D01*
X141499815Y-113680039D01*
X141447011Y-113725794D01*
X141395500Y-113737000D01*
X140763236Y-113737000D01*
X140696197Y-113717315D01*
X140650442Y-113664511D01*
X140640498Y-113595353D01*
X140647054Y-113569667D01*
X140693596Y-113444879D01*
X140693598Y-113444872D01*
X140699999Y-113385344D01*
X140700000Y-113385327D01*
X140700000Y-113337500D01*
X137800000Y-113337500D01*
X137800000Y-113385344D01*
X137806401Y-113444872D01*
X137806403Y-113444879D01*
X137856645Y-113579586D01*
X137856646Y-113579588D01*
X137918918Y-113662772D01*
X137943335Y-113728236D01*
X137928484Y-113796509D01*
X137918918Y-113811394D01*
X137856204Y-113895169D01*
X137856202Y-113895171D01*
X137808499Y-114023072D01*
X137805909Y-114030017D01*
X137799500Y-114089627D01*
X137799500Y-114089634D01*
X137799500Y-114089635D01*
X137799500Y-114368060D01*
X137779815Y-114435099D01*
X137727011Y-114480854D01*
X137657853Y-114490798D01*
X137594297Y-114461773D01*
X137587819Y-114455741D01*
X137502262Y-114370184D01*
X137349523Y-114274211D01*
X137179254Y-114214631D01*
X137179249Y-114214630D01*
X137000004Y-114194435D01*
X136999996Y-114194435D01*
X136820750Y-114214630D01*
X136820745Y-114214631D01*
X136650476Y-114274211D01*
X136497736Y-114370185D01*
X136494903Y-114372445D01*
X136492724Y-114373334D01*
X136491842Y-114373889D01*
X136491744Y-114373734D01*
X136430217Y-114398855D01*
X136417588Y-114399500D01*
X135800097Y-114399500D01*
X135733058Y-114379815D01*
X135712416Y-114363181D01*
X133328337Y-111979102D01*
X133294852Y-111917779D01*
X133299836Y-111848087D01*
X133328336Y-111803741D01*
X133379816Y-111752262D01*
X133475789Y-111599522D01*
X133535368Y-111429255D01*
X133535369Y-111429249D01*
X133555565Y-111250003D01*
X133555565Y-111249996D01*
X133535369Y-111070750D01*
X133535368Y-111070745D01*
X133519836Y-111026358D01*
X133475789Y-110900478D01*
X133471822Y-110894165D01*
X133409675Y-110795259D01*
X133379816Y-110747738D01*
X133252262Y-110620184D01*
X133250567Y-110619119D01*
X133099523Y-110524211D01*
X132983545Y-110483629D01*
X132926769Y-110442907D01*
X132901022Y-110377954D01*
X132900500Y-110366587D01*
X132900500Y-109959797D01*
X132920185Y-109892758D01*
X132959403Y-109854258D01*
X133018656Y-109817712D01*
X133142712Y-109693656D01*
X133144461Y-109690819D01*
X133146169Y-109689283D01*
X133147193Y-109687989D01*
X133147414Y-109688163D01*
X133196406Y-109644096D01*
X133265368Y-109632872D01*
X133329451Y-109660713D01*
X133355537Y-109690817D01*
X133357288Y-109693656D01*
X133481344Y-109817712D01*
X133630666Y-109909814D01*
X133797203Y-109964999D01*
X133899991Y-109975500D01*
X134500008Y-109975499D01*
X134510576Y-109974419D01*
X134579268Y-109987187D01*
X134610861Y-110010096D01*
X134869298Y-110268533D01*
X134902783Y-110329856D01*
X134904837Y-110342330D01*
X134914630Y-110429249D01*
X134974210Y-110599521D01*
X135031196Y-110690213D01*
X135070184Y-110752262D01*
X135197738Y-110879816D01*
X135265671Y-110922501D01*
X135332721Y-110964632D01*
X135350478Y-110975789D01*
X135421098Y-111000500D01*
X135520745Y-111035368D01*
X135520750Y-111035369D01*
X135699996Y-111055565D01*
X135700000Y-111055565D01*
X135700004Y-111055565D01*
X135879249Y-111035369D01*
X135879252Y-111035368D01*
X135879255Y-111035368D01*
X136049522Y-110975789D01*
X136202262Y-110879816D01*
X136329816Y-110752262D01*
X136425789Y-110599522D01*
X136485368Y-110429255D01*
X136486562Y-110418657D01*
X136505565Y-110250003D01*
X136505565Y-110249996D01*
X136485369Y-110070750D01*
X136485368Y-110070745D01*
X136460616Y-110000008D01*
X136425789Y-109900478D01*
X136398445Y-109856961D01*
X136378470Y-109825171D01*
X136329816Y-109747738D01*
X136202262Y-109620184D01*
X136131148Y-109575500D01*
X136049521Y-109524210D01*
X135879249Y-109464630D01*
X135792330Y-109454837D01*
X135727916Y-109427770D01*
X135718533Y-109419298D01*
X135236818Y-108937583D01*
X135203333Y-108876260D01*
X135200499Y-108849902D01*
X135200499Y-108224998D01*
X135200498Y-108224981D01*
X135189999Y-108122203D01*
X135189998Y-108122200D01*
X135159746Y-108030907D01*
X135134814Y-107955666D01*
X135042712Y-107806344D01*
X134918656Y-107682288D01*
X134769334Y-107590186D01*
X134602797Y-107535001D01*
X134602795Y-107535000D01*
X134500010Y-107524500D01*
X133899998Y-107524500D01*
X133899980Y-107524501D01*
X133797203Y-107535000D01*
X133797200Y-107535001D01*
X133630668Y-107590185D01*
X133630663Y-107590187D01*
X133481342Y-107682289D01*
X133357285Y-107806346D01*
X133355537Y-107809182D01*
X133353829Y-107810717D01*
X133352807Y-107812011D01*
X133352585Y-107811836D01*
X133303589Y-107855905D01*
X133234626Y-107867126D01*
X133170544Y-107839282D01*
X133144463Y-107809182D01*
X133142714Y-107806346D01*
X133018655Y-107682287D01*
X132959402Y-107645739D01*
X132912678Y-107593791D01*
X132900500Y-107540201D01*
X132900500Y-107500013D01*
X141525000Y-107500013D01*
X141525000Y-107550000D01*
X142500000Y-107550000D01*
X143000000Y-107550000D01*
X143974999Y-107550000D01*
X143974999Y-107500028D01*
X143974998Y-107500013D01*
X143964505Y-107397302D01*
X143909358Y-107230880D01*
X143909356Y-107230875D01*
X143817315Y-107081654D01*
X143693345Y-106957684D01*
X143544124Y-106865643D01*
X143544119Y-106865641D01*
X143377697Y-106810494D01*
X143377690Y-106810493D01*
X143274986Y-106800000D01*
X143000000Y-106800000D01*
X143000000Y-107550000D01*
X142500000Y-107550000D01*
X142500000Y-106800000D01*
X142225029Y-106800000D01*
X142225012Y-106800001D01*
X142122302Y-106810494D01*
X141955880Y-106865641D01*
X141955875Y-106865643D01*
X141806654Y-106957684D01*
X141682684Y-107081654D01*
X141590643Y-107230875D01*
X141590641Y-107230880D01*
X141535494Y-107397302D01*
X141535493Y-107397309D01*
X141525000Y-107500013D01*
X132900500Y-107500013D01*
X132900500Y-106938301D01*
X132920185Y-106871262D01*
X132959404Y-106832762D01*
X132982273Y-106818657D01*
X133048656Y-106777712D01*
X133142319Y-106684049D01*
X133203642Y-106650564D01*
X133273334Y-106655548D01*
X133317681Y-106684049D01*
X133411344Y-106777712D01*
X133560666Y-106869814D01*
X133727203Y-106924999D01*
X133829991Y-106935500D01*
X134455008Y-106935499D01*
X134455016Y-106935498D01*
X134455019Y-106935498D01*
X134511302Y-106929748D01*
X134557797Y-106924999D01*
X134724334Y-106869814D01*
X134873656Y-106777712D01*
X134997712Y-106653656D01*
X135089814Y-106504334D01*
X135101428Y-106469285D01*
X135141198Y-106411841D01*
X135205714Y-106385017D01*
X135274490Y-106397331D01*
X135285100Y-106403292D01*
X135400478Y-106475789D01*
X135568207Y-106534480D01*
X135570745Y-106535368D01*
X135570750Y-106535369D01*
X135749996Y-106555565D01*
X135750000Y-106555565D01*
X135750004Y-106555565D01*
X135929249Y-106535369D01*
X135929252Y-106535368D01*
X135929255Y-106535368D01*
X136099522Y-106475789D01*
X136252262Y-106379816D01*
X136379816Y-106252262D01*
X136475789Y-106099522D01*
X136535368Y-105929255D01*
X136540939Y-105879817D01*
X136555565Y-105750000D01*
X136555565Y-105749996D01*
X136535369Y-105570750D01*
X136535368Y-105570745D01*
X136528284Y-105550499D01*
X136475789Y-105400478D01*
X136379816Y-105247738D01*
X136252262Y-105120184D01*
X136233669Y-105108501D01*
X136099523Y-105024211D01*
X135929254Y-104964631D01*
X135929249Y-104964630D01*
X135750004Y-104944435D01*
X135749996Y-104944435D01*
X135570750Y-104964630D01*
X135570745Y-104964631D01*
X135400476Y-105024211D01*
X135293333Y-105091534D01*
X135226096Y-105110534D01*
X135159261Y-105090166D01*
X135114047Y-105036898D01*
X135109659Y-105025555D01*
X135089814Y-104965666D01*
X134997712Y-104816344D01*
X134873656Y-104692288D01*
X134724334Y-104600186D01*
X134557797Y-104545001D01*
X134557795Y-104545000D01*
X134455010Y-104534500D01*
X133829998Y-104534500D01*
X133829980Y-104534501D01*
X133727203Y-104545000D01*
X133727200Y-104545001D01*
X133560668Y-104600185D01*
X133560663Y-104600187D01*
X133411342Y-104692289D01*
X133317681Y-104785951D01*
X133256358Y-104819436D01*
X133186666Y-104814452D01*
X133142319Y-104785951D01*
X133048655Y-104692287D01*
X132996902Y-104660365D01*
X132950178Y-104608416D01*
X132938000Y-104554827D01*
X132938000Y-103930171D01*
X132957685Y-103863132D01*
X132996903Y-103824632D01*
X133048656Y-103792712D01*
X133142675Y-103698692D01*
X133203994Y-103665210D01*
X133273686Y-103670194D01*
X133318034Y-103698695D01*
X133411654Y-103792315D01*
X133560875Y-103884356D01*
X133560880Y-103884358D01*
X133727302Y-103939505D01*
X133727309Y-103939506D01*
X133830019Y-103949999D01*
X134392500Y-103949999D01*
X134454972Y-103949999D01*
X134454986Y-103949998D01*
X134557697Y-103939505D01*
X134724119Y-103884358D01*
X134724124Y-103884356D01*
X134873345Y-103792315D01*
X134997315Y-103668345D01*
X135089356Y-103519124D01*
X135089358Y-103519119D01*
X135144505Y-103352697D01*
X135144506Y-103352690D01*
X135154999Y-103249986D01*
X135155000Y-103249973D01*
X135155000Y-103000000D01*
X134392500Y-103000000D01*
X134392500Y-103949999D01*
X133830019Y-103949999D01*
X133892499Y-103949998D01*
X133892500Y-103949998D01*
X133892500Y-102500000D01*
X134392500Y-102500000D01*
X135154999Y-102500000D01*
X135154999Y-102250028D01*
X135154998Y-102250013D01*
X135144505Y-102147302D01*
X135089358Y-101980880D01*
X135089356Y-101980875D01*
X134997315Y-101831654D01*
X134873345Y-101707684D01*
X134724124Y-101615643D01*
X134724119Y-101615641D01*
X134557697Y-101560494D01*
X134557690Y-101560493D01*
X134454986Y-101550000D01*
X134392500Y-101550000D01*
X134392500Y-102500000D01*
X133892500Y-102500000D01*
X133892500Y-101550000D01*
X133892499Y-101549999D01*
X133830028Y-101550000D01*
X133830011Y-101550001D01*
X133727302Y-101560494D01*
X133560880Y-101615641D01*
X133560875Y-101615643D01*
X133411657Y-101707682D01*
X133318034Y-101801305D01*
X133256710Y-101834789D01*
X133187019Y-101829805D01*
X133142672Y-101801304D01*
X133048657Y-101707289D01*
X133048656Y-101707288D01*
X132955888Y-101650069D01*
X132899336Y-101615187D01*
X132899331Y-101615185D01*
X132897862Y-101614698D01*
X132732797Y-101560001D01*
X132732795Y-101560000D01*
X132630010Y-101549500D01*
X132004998Y-101549500D01*
X132004980Y-101549501D01*
X131902203Y-101560000D01*
X131902200Y-101560001D01*
X131763504Y-101605961D01*
X131693676Y-101608363D01*
X131633634Y-101572631D01*
X131602441Y-101510111D01*
X131600500Y-101488255D01*
X131600500Y-99037874D01*
X131620185Y-98970835D01*
X131672989Y-98925080D01*
X131742147Y-98915136D01*
X131763504Y-98920168D01*
X131897302Y-98964505D01*
X131897309Y-98964506D01*
X132000019Y-98974999D01*
X132049999Y-98974998D01*
X132050000Y-98974998D01*
X132050000Y-96525000D01*
X132024798Y-96499799D01*
X131991313Y-96438476D01*
X131996297Y-96368784D01*
X132024796Y-96324438D01*
X132712416Y-95636819D01*
X132773739Y-95603334D01*
X132800097Y-95600500D01*
X137358330Y-95600500D01*
X137358346Y-95600501D01*
X137365942Y-95600501D01*
X137524053Y-95600501D01*
X137524056Y-95600501D01*
X137676784Y-95559577D01*
X137746232Y-95519481D01*
X137813715Y-95480520D01*
X137925519Y-95368716D01*
X137925519Y-95368714D01*
X137935723Y-95358511D01*
X137935727Y-95358506D01*
X139028505Y-94265727D01*
X139028515Y-94265720D01*
X139038714Y-94255519D01*
X139038716Y-94255519D01*
X139040913Y-94253321D01*
X139073823Y-94230955D01*
X139073682Y-94230716D01*
X139077496Y-94228459D01*
X139079367Y-94227189D01*
X139080384Y-94226747D01*
X139080398Y-94226744D01*
X139221865Y-94143081D01*
X139221869Y-94143076D01*
X139228031Y-94138298D01*
X139229933Y-94140750D01*
X139278579Y-94114155D01*
X139348274Y-94119104D01*
G37*
%TD.AperFunction*%
%TA.AperFunction,Conductor*%
G36*
X147867514Y-107044089D02*
G01*
X147867517Y-107044091D01*
X147927127Y-107050500D01*
X148572872Y-107050499D01*
X148632483Y-107044091D01*
X148632486Y-107044089D01*
X148636744Y-107043632D01*
X148663254Y-107043632D01*
X148667514Y-107044089D01*
X148667517Y-107044091D01*
X148727127Y-107050500D01*
X149258503Y-107050499D01*
X149325542Y-107070183D01*
X149365889Y-107112498D01*
X149369475Y-107118709D01*
X149369481Y-107118717D01*
X149488349Y-107237585D01*
X149488354Y-107237589D01*
X150481284Y-108230520D01*
X150481286Y-108230521D01*
X150481290Y-108230524D01*
X150618209Y-108309573D01*
X150618216Y-108309577D01*
X150770943Y-108350501D01*
X150770945Y-108350501D01*
X150936654Y-108350501D01*
X150936670Y-108350500D01*
X151667588Y-108350500D01*
X151734627Y-108370185D01*
X151744903Y-108377555D01*
X151747736Y-108379814D01*
X151747738Y-108379816D01*
X151900478Y-108475789D01*
X152067951Y-108534390D01*
X152124727Y-108575112D01*
X152150475Y-108640064D01*
X152149937Y-108667609D01*
X152149499Y-108670937D01*
X152149499Y-108839046D01*
X152149500Y-108839059D01*
X152149500Y-111167587D01*
X152129815Y-111234626D01*
X152122450Y-111244896D01*
X152120186Y-111247734D01*
X152024211Y-111400476D01*
X151964631Y-111570745D01*
X151964630Y-111570750D01*
X151944435Y-111749996D01*
X151944435Y-111750003D01*
X151964630Y-111929249D01*
X151964631Y-111929254D01*
X152024211Y-112099523D01*
X152099106Y-112218717D01*
X152120184Y-112252262D01*
X152247738Y-112379816D01*
X152300956Y-112413255D01*
X152383544Y-112465149D01*
X152400478Y-112475789D01*
X152554524Y-112529692D01*
X152570745Y-112535368D01*
X152570750Y-112535369D01*
X152749996Y-112555565D01*
X152750000Y-112555565D01*
X152750004Y-112555565D01*
X152929249Y-112535369D01*
X152929251Y-112535368D01*
X152929255Y-112535368D01*
X152929258Y-112535366D01*
X152929262Y-112535366D01*
X153034545Y-112498526D01*
X153104324Y-112494964D01*
X153164951Y-112529692D01*
X153197179Y-112591686D01*
X153199500Y-112615567D01*
X153199500Y-112825500D01*
X153179815Y-112892539D01*
X153127011Y-112938294D01*
X153075500Y-112949500D01*
X152727130Y-112949500D01*
X152727120Y-112949501D01*
X152663248Y-112956367D01*
X152636742Y-112956367D01*
X152632483Y-112955909D01*
X152572873Y-112949500D01*
X152572867Y-112949500D01*
X152166698Y-112949500D01*
X152099659Y-112929815D01*
X152053904Y-112877011D01*
X152046922Y-112857589D01*
X152045023Y-112850500D01*
X152009577Y-112718215D01*
X151968505Y-112647077D01*
X151968505Y-112647076D01*
X151930522Y-112581287D01*
X151930521Y-112581286D01*
X151930520Y-112581284D01*
X151818716Y-112469480D01*
X151818715Y-112469479D01*
X151814385Y-112465149D01*
X151814374Y-112465139D01*
X151080700Y-111731465D01*
X151047215Y-111670142D01*
X151045163Y-111657686D01*
X151035368Y-111570745D01*
X150975789Y-111400478D01*
X150879816Y-111247738D01*
X150752262Y-111120184D01*
X150704519Y-111090185D01*
X150599523Y-111024211D01*
X150429254Y-110964631D01*
X150429249Y-110964630D01*
X150250004Y-110944435D01*
X150249996Y-110944435D01*
X150070750Y-110964630D01*
X150070739Y-110964633D01*
X150015453Y-110983978D01*
X149945674Y-110987539D01*
X149885047Y-110952809D01*
X149852821Y-110890816D01*
X149850500Y-110866936D01*
X149850500Y-110332412D01*
X149870185Y-110265373D01*
X149877555Y-110255097D01*
X149879810Y-110252267D01*
X149879816Y-110252262D01*
X149975789Y-110099522D01*
X150035368Y-109929255D01*
X150035960Y-109924000D01*
X150055565Y-109750003D01*
X150055565Y-109749996D01*
X150035369Y-109570750D01*
X150035368Y-109570745D01*
X150017190Y-109518796D01*
X149975789Y-109400478D01*
X149879816Y-109247738D01*
X149752262Y-109120184D01*
X149745030Y-109115640D01*
X149599523Y-109024211D01*
X149429254Y-108964631D01*
X149429249Y-108964630D01*
X149250004Y-108944435D01*
X149249996Y-108944435D01*
X149070750Y-108964630D01*
X149070745Y-108964631D01*
X148900476Y-109024211D01*
X148747737Y-109120184D01*
X148620184Y-109247737D01*
X148524211Y-109400476D01*
X148462332Y-109577318D01*
X148459648Y-109576378D01*
X148431738Y-109626200D01*
X148370055Y-109659018D01*
X148300422Y-109653278D01*
X148257332Y-109625254D01*
X148252262Y-109620184D01*
X148099521Y-109524210D01*
X147929249Y-109464630D01*
X147842330Y-109454837D01*
X147777916Y-109427770D01*
X147768533Y-109419298D01*
X147587590Y-109238355D01*
X147587588Y-109238352D01*
X147468717Y-109119481D01*
X147468716Y-109119480D01*
X147381904Y-109069360D01*
X147381904Y-109069359D01*
X147381900Y-109069358D01*
X147331785Y-109040423D01*
X147331784Y-109040422D01*
X147331783Y-109040422D01*
X147331782Y-109040421D01*
X147223608Y-109011435D01*
X147163948Y-108975070D01*
X147158201Y-108968109D01*
X147157548Y-108967457D01*
X147157546Y-108967454D01*
X147066459Y-108899266D01*
X147024588Y-108843332D01*
X147019604Y-108773640D01*
X147053089Y-108712317D01*
X147066451Y-108700739D01*
X147157546Y-108632546D01*
X147182143Y-108599687D01*
X147238076Y-108557818D01*
X147281409Y-108550000D01*
X147300000Y-108550000D01*
X147300000Y-108477172D01*
X147299999Y-108477160D01*
X147293380Y-108415604D01*
X147293380Y-108389090D01*
X147294090Y-108382485D01*
X147294091Y-108382483D01*
X147300500Y-108322873D01*
X147300499Y-107677128D01*
X147294091Y-107617517D01*
X147294089Y-107617513D01*
X147293632Y-107613255D01*
X147293632Y-107586745D01*
X147294089Y-107582486D01*
X147294091Y-107582483D01*
X147300500Y-107522873D01*
X147300499Y-107174499D01*
X147320183Y-107107461D01*
X147372987Y-107061706D01*
X147424499Y-107050500D01*
X147543491Y-107050500D01*
X147543499Y-107050499D01*
X147772871Y-107050499D01*
X147772872Y-107050499D01*
X147832483Y-107044091D01*
X147832486Y-107044089D01*
X147836744Y-107043632D01*
X147863254Y-107043632D01*
X147867514Y-107044089D01*
G37*
%TD.AperFunction*%
%TA.AperFunction,Conductor*%
G36*
X144893541Y-110320185D02*
G01*
X144939296Y-110372989D01*
X144949240Y-110442147D01*
X144920215Y-110505703D01*
X144900816Y-110523764D01*
X144842454Y-110567454D01*
X144817856Y-110600312D01*
X144761924Y-110642182D01*
X144718591Y-110650000D01*
X144700000Y-110650000D01*
X144700000Y-110722844D01*
X144706619Y-110784398D01*
X144706620Y-110810909D01*
X144705909Y-110817514D01*
X144705909Y-110817517D01*
X144699500Y-110877127D01*
X144699500Y-111133403D01*
X144699501Y-111275500D01*
X144679817Y-111342539D01*
X144627013Y-111388294D01*
X144575501Y-111399500D01*
X143958768Y-111399500D01*
X143891729Y-111379815D01*
X143853229Y-111340597D01*
X143852418Y-111339282D01*
X143762712Y-111193844D01*
X143638656Y-111069788D01*
X143505383Y-110987585D01*
X143489336Y-110977687D01*
X143489331Y-110977685D01*
X143349284Y-110931278D01*
X143291839Y-110891505D01*
X143265016Y-110826989D01*
X143277331Y-110758213D01*
X143324874Y-110707014D01*
X143371238Y-110691685D01*
X143371181Y-110691415D01*
X143373668Y-110690882D01*
X143375690Y-110690214D01*
X143377797Y-110689999D01*
X143544334Y-110634814D01*
X143693656Y-110542712D01*
X143817712Y-110418656D01*
X143854259Y-110359402D01*
X143906207Y-110312679D01*
X143959798Y-110300500D01*
X144826502Y-110300500D01*
X144893541Y-110320185D01*
G37*
%TD.AperFunction*%
%TA.AperFunction,Conductor*%
G36*
X156438833Y-105795757D02*
G01*
X156494766Y-105837628D01*
X156519184Y-105903092D01*
X156519500Y-105911939D01*
X156519500Y-106400001D01*
X156519501Y-106400019D01*
X156530000Y-106502796D01*
X156530001Y-106502799D01*
X156578774Y-106649983D01*
X156585186Y-106669334D01*
X156676585Y-106817517D01*
X156677289Y-106818657D01*
X156770951Y-106912319D01*
X156804436Y-106973642D01*
X156799452Y-107043334D01*
X156770951Y-107087681D01*
X156677289Y-107181342D01*
X156585187Y-107330663D01*
X156585185Y-107330668D01*
X156557349Y-107414670D01*
X156530001Y-107497203D01*
X156530001Y-107497204D01*
X156530000Y-107497204D01*
X156519500Y-107599983D01*
X156519500Y-108225001D01*
X156519501Y-108225019D01*
X156530000Y-108327796D01*
X156530001Y-108327799D01*
X156585185Y-108494331D01*
X156585187Y-108494336D01*
X156599996Y-108518345D01*
X156677288Y-108643656D01*
X156801344Y-108767712D01*
X156950666Y-108859814D01*
X156984077Y-108870885D01*
X157041523Y-108910657D01*
X157068346Y-108975173D01*
X157056031Y-109043949D01*
X157008489Y-109095149D01*
X156984081Y-109106296D01*
X156955882Y-109115640D01*
X156955875Y-109115643D01*
X156806654Y-109207684D01*
X156682684Y-109331654D01*
X156590643Y-109480875D01*
X156590641Y-109480880D01*
X156535494Y-109647302D01*
X156535493Y-109647309D01*
X156528325Y-109717467D01*
X156501928Y-109782159D01*
X156444747Y-109822309D01*
X156374935Y-109825171D01*
X156372944Y-109824656D01*
X156279057Y-109799499D01*
X156120943Y-109799499D01*
X156113347Y-109799499D01*
X156113331Y-109799500D01*
X155740954Y-109799500D01*
X155673915Y-109779815D01*
X155664843Y-109772504D01*
X155664645Y-109772769D01*
X155657547Y-109767455D01*
X155657546Y-109767454D01*
X155566457Y-109699265D01*
X155524588Y-109643333D01*
X155519604Y-109573641D01*
X155553089Y-109512318D01*
X155566452Y-109500738D01*
X155657546Y-109432546D01*
X155682143Y-109399687D01*
X155738076Y-109357818D01*
X155781409Y-109350000D01*
X155800000Y-109350000D01*
X155800000Y-109277172D01*
X155799999Y-109277160D01*
X155793380Y-109215604D01*
X155793380Y-109189090D01*
X155794090Y-109182485D01*
X155794091Y-109182483D01*
X155800500Y-109122873D01*
X155800499Y-108477128D01*
X155794091Y-108417517D01*
X155794089Y-108417513D01*
X155793632Y-108413255D01*
X155793632Y-108386745D01*
X155794089Y-108382486D01*
X155794091Y-108382483D01*
X155800500Y-108322873D01*
X155800499Y-107677128D01*
X155794091Y-107617517D01*
X155794089Y-107617513D01*
X155793632Y-107613255D01*
X155793632Y-107586745D01*
X155794089Y-107582486D01*
X155794091Y-107582483D01*
X155800500Y-107522873D01*
X155800499Y-106877128D01*
X155794214Y-106818657D01*
X155794091Y-106817516D01*
X155743797Y-106682671D01*
X155743793Y-106682664D01*
X155657547Y-106567455D01*
X155657544Y-106567452D01*
X155557209Y-106492341D01*
X155515338Y-106436408D01*
X155510354Y-106366716D01*
X155543837Y-106305396D01*
X155768535Y-106080698D01*
X155829856Y-106047215D01*
X155842311Y-106045163D01*
X155929255Y-106035368D01*
X156099522Y-105975789D01*
X156252262Y-105879816D01*
X156307822Y-105824255D01*
X156369141Y-105790773D01*
X156438833Y-105795757D01*
G37*
%TD.AperFunction*%
%TA.AperFunction,Conductor*%
G36*
X149043334Y-93920548D02*
G01*
X149087681Y-93949049D01*
X149181345Y-94042713D01*
X149213094Y-94062295D01*
X149259820Y-94114241D01*
X149272000Y-94167835D01*
X149272000Y-94861938D01*
X149252315Y-94928977D01*
X149233247Y-94950010D01*
X149234104Y-94950867D01*
X149105970Y-95079001D01*
X149105967Y-95079005D01*
X149105234Y-95080194D01*
X149104519Y-95080836D01*
X149101493Y-95084664D01*
X149100838Y-95084146D01*
X149053280Y-95126911D01*
X148984316Y-95138123D01*
X148920238Y-95110271D01*
X148898238Y-95084877D01*
X148898112Y-95084977D01*
X148895885Y-95082161D01*
X148894163Y-95080173D01*
X148893630Y-95079309D01*
X148770691Y-94956370D01*
X148622714Y-94865096D01*
X148622709Y-94865094D01*
X148457673Y-94810407D01*
X148355815Y-94800000D01*
X148312500Y-94800000D01*
X148312500Y-97200000D01*
X148355803Y-97200000D01*
X148355815Y-97199999D01*
X148457673Y-97189592D01*
X148622709Y-97134905D01*
X148622714Y-97134903D01*
X148770691Y-97043629D01*
X148893628Y-96920692D01*
X148894159Y-96919832D01*
X148894680Y-96919363D01*
X148898112Y-96915023D01*
X148898853Y-96915608D01*
X148946101Y-96873102D01*
X149015063Y-96861872D01*
X149079148Y-96889708D01*
X149101413Y-96915398D01*
X149101493Y-96915336D01*
X149102890Y-96917103D01*
X149105238Y-96919812D01*
X149105968Y-96920995D01*
X149105974Y-96921003D01*
X149228996Y-97044025D01*
X149229000Y-97044028D01*
X149329155Y-97105805D01*
X149375880Y-97157753D01*
X149387101Y-97226715D01*
X149359258Y-97290797D01*
X149351739Y-97299024D01*
X148981465Y-97669298D01*
X148920142Y-97702783D01*
X148907668Y-97704837D01*
X148820750Y-97714630D01*
X148650478Y-97774210D01*
X148497737Y-97870184D01*
X148370184Y-97997737D01*
X148274211Y-98150476D01*
X148214631Y-98320745D01*
X148214630Y-98320750D01*
X148194435Y-98499996D01*
X148194435Y-98500003D01*
X148214630Y-98679249D01*
X148214631Y-98679254D01*
X148274211Y-98849523D01*
X148353367Y-98975498D01*
X148370184Y-99002262D01*
X148497738Y-99129816D01*
X148572425Y-99176745D01*
X148645399Y-99222598D01*
X148650478Y-99225789D01*
X148774928Y-99269336D01*
X148820745Y-99285368D01*
X148820750Y-99285369D01*
X148999996Y-99305565D01*
X149000000Y-99305565D01*
X149000004Y-99305565D01*
X149179249Y-99285369D01*
X149179250Y-99285368D01*
X149179255Y-99285368D01*
X149234545Y-99266020D01*
X149304322Y-99262458D01*
X149364950Y-99297186D01*
X149397178Y-99359179D01*
X149399500Y-99383062D01*
X149399500Y-102624166D01*
X149379815Y-102691205D01*
X149363181Y-102711847D01*
X148262181Y-103812847D01*
X148200858Y-103846332D01*
X148131166Y-103841348D01*
X148075233Y-103799476D01*
X148050816Y-103734012D01*
X148050500Y-103725166D01*
X148050500Y-103370945D01*
X148050500Y-103370943D01*
X148049903Y-103368716D01*
X148034057Y-103309577D01*
X148009577Y-103218216D01*
X147967311Y-103145008D01*
X147930524Y-103081290D01*
X147930521Y-103081286D01*
X147930520Y-103081284D01*
X147818716Y-102969480D01*
X147818715Y-102969479D01*
X147814385Y-102965149D01*
X147814374Y-102965139D01*
X144188969Y-99339734D01*
X144155484Y-99278411D01*
X144160468Y-99208719D01*
X144202340Y-99152786D01*
X144213513Y-99145332D01*
X144301865Y-99093081D01*
X144301872Y-99093073D01*
X144308026Y-99088301D01*
X144309839Y-99090638D01*
X144358949Y-99063798D01*
X144428643Y-99068756D01*
X144460996Y-99089551D01*
X144462278Y-99087900D01*
X144468447Y-99092685D01*
X144609801Y-99176281D01*
X144767514Y-99222100D01*
X144767511Y-99222100D01*
X144769998Y-99222295D01*
X144770000Y-99222295D01*
X145270000Y-99222295D01*
X145270001Y-99222295D01*
X145272486Y-99222100D01*
X145430198Y-99176281D01*
X145571552Y-99092685D01*
X145571561Y-99092678D01*
X145687678Y-98976561D01*
X145687685Y-98976552D01*
X145771282Y-98835196D01*
X145771283Y-98835193D01*
X145817099Y-98677495D01*
X145817100Y-98677489D01*
X145819999Y-98640649D01*
X145820000Y-98640634D01*
X145820000Y-98000000D01*
X145270000Y-98000000D01*
X145270000Y-99222295D01*
X144770000Y-99222295D01*
X144770000Y-97874000D01*
X144789685Y-97806961D01*
X144842489Y-97761206D01*
X144894000Y-97750000D01*
X145020000Y-97750000D01*
X145020000Y-97624000D01*
X145039685Y-97556961D01*
X145092489Y-97511206D01*
X145144000Y-97500000D01*
X145820000Y-97500000D01*
X145820000Y-96859365D01*
X145819999Y-96859350D01*
X145817100Y-96822510D01*
X145817099Y-96822504D01*
X145771283Y-96664806D01*
X145771282Y-96664803D01*
X145687685Y-96523447D01*
X145687678Y-96523438D01*
X145670055Y-96505815D01*
X147075000Y-96505815D01*
X147085407Y-96607673D01*
X147140094Y-96772709D01*
X147140096Y-96772714D01*
X147231370Y-96920691D01*
X147354308Y-97043629D01*
X147502285Y-97134903D01*
X147502290Y-97134905D01*
X147667326Y-97189592D01*
X147769184Y-97199999D01*
X147769197Y-97200000D01*
X147812500Y-97200000D01*
X147812500Y-96250000D01*
X147075000Y-96250000D01*
X147075000Y-96505815D01*
X145670055Y-96505815D01*
X145594417Y-96430177D01*
X145560932Y-96368854D01*
X145565916Y-96299162D01*
X145594413Y-96254820D01*
X146355049Y-95494184D01*
X147075000Y-95494184D01*
X147075000Y-95750000D01*
X147812500Y-95750000D01*
X147812500Y-94800000D01*
X147769184Y-94800000D01*
X147667326Y-94810407D01*
X147502290Y-94865094D01*
X147502285Y-94865096D01*
X147354308Y-94956370D01*
X147231370Y-95079308D01*
X147140096Y-95227285D01*
X147140094Y-95227290D01*
X147085407Y-95392326D01*
X147075000Y-95494184D01*
X146355049Y-95494184D01*
X147618773Y-94230460D01*
X147680094Y-94196977D01*
X147719052Y-94194785D01*
X147774991Y-94200500D01*
X148400008Y-94200499D01*
X148400016Y-94200498D01*
X148400019Y-94200498D01*
X148456302Y-94194748D01*
X148502797Y-94189999D01*
X148669334Y-94134814D01*
X148818656Y-94042712D01*
X148912319Y-93949049D01*
X148973642Y-93915564D01*
X149043334Y-93920548D01*
G37*
%TD.AperFunction*%
%TA.AperFunction,Conductor*%
G36*
X152294334Y-98157415D02*
G01*
X152350267Y-98199287D01*
X152374684Y-98264751D01*
X152375000Y-98273597D01*
X152375000Y-98325000D01*
X152900501Y-98325000D01*
X152967540Y-98344685D01*
X153013295Y-98397489D01*
X153024500Y-98448997D01*
X153024501Y-98500000D01*
X153024501Y-98551000D01*
X153004816Y-98618039D01*
X152952012Y-98663794D01*
X152900501Y-98675000D01*
X152375000Y-98675000D01*
X152375000Y-98797844D01*
X152381401Y-98857372D01*
X152381403Y-98857379D01*
X152431645Y-98992086D01*
X152431649Y-98992093D01*
X152517809Y-99107187D01*
X152517812Y-99107190D01*
X152632906Y-99193350D01*
X152632913Y-99193354D01*
X152767620Y-99243596D01*
X152767627Y-99243598D01*
X152827155Y-99249999D01*
X152830479Y-99250177D01*
X152830469Y-99250355D01*
X152830475Y-99250356D01*
X152830463Y-99250459D01*
X152830425Y-99251181D01*
X152893442Y-99269685D01*
X152939197Y-99322489D01*
X152949141Y-99391647D01*
X152920116Y-99455203D01*
X152914089Y-99461674D01*
X152788797Y-99586967D01*
X152681286Y-99694478D01*
X152569481Y-99806282D01*
X152569479Y-99806284D01*
X152549221Y-99841372D01*
X152540659Y-99856204D01*
X152524899Y-99883501D01*
X152490422Y-99943215D01*
X152490421Y-99943218D01*
X152481856Y-99975184D01*
X152461349Y-100017399D01*
X152431206Y-100057665D01*
X152431202Y-100057671D01*
X152380910Y-100192513D01*
X152380909Y-100192517D01*
X152374500Y-100252127D01*
X152374500Y-100252134D01*
X152374500Y-100252135D01*
X152374500Y-100847870D01*
X152374501Y-100847876D01*
X152380908Y-100907483D01*
X152431202Y-101042328D01*
X152431206Y-101042335D01*
X152517452Y-101157544D01*
X152517455Y-101157547D01*
X152632664Y-101243793D01*
X152632671Y-101243797D01*
X152677618Y-101260561D01*
X152767517Y-101294091D01*
X152827127Y-101300500D01*
X153272872Y-101300499D01*
X153332483Y-101294091D01*
X153332489Y-101294088D01*
X153340025Y-101292308D01*
X153340321Y-101293561D01*
X153402063Y-101289142D01*
X153415655Y-101293132D01*
X153417627Y-101293598D01*
X153477155Y-101299999D01*
X153477172Y-101300000D01*
X153525000Y-101300000D01*
X153525000Y-101262694D01*
X153544685Y-101195655D01*
X153574690Y-101163426D01*
X153582546Y-101157546D01*
X153582546Y-101157544D01*
X153582548Y-101157544D01*
X153600733Y-101133252D01*
X153656666Y-101091380D01*
X153726358Y-101086396D01*
X153787681Y-101119881D01*
X153799267Y-101133252D01*
X153817451Y-101157544D01*
X153817454Y-101157546D01*
X153825308Y-101163425D01*
X153867180Y-101219356D01*
X153875000Y-101262694D01*
X153875000Y-101300000D01*
X153922828Y-101300000D01*
X153922844Y-101299999D01*
X153982375Y-101293598D01*
X153989926Y-101291814D01*
X153990315Y-101293462D01*
X154050624Y-101289140D01*
X154067387Y-101294060D01*
X154067511Y-101294088D01*
X154067517Y-101294091D01*
X154127127Y-101300500D01*
X154572872Y-101300499D01*
X154632483Y-101294091D01*
X154632489Y-101294088D01*
X154640025Y-101292308D01*
X154640321Y-101293561D01*
X154702063Y-101289142D01*
X154715655Y-101293132D01*
X154717627Y-101293598D01*
X154777155Y-101299999D01*
X154777172Y-101300000D01*
X154825000Y-101300000D01*
X154825000Y-101262694D01*
X154844685Y-101195655D01*
X154874690Y-101163426D01*
X154882546Y-101157546D01*
X154951733Y-101065123D01*
X155007667Y-101023253D01*
X155077359Y-101018269D01*
X155138682Y-101051754D01*
X155172166Y-101113078D01*
X155175000Y-101139435D01*
X155175000Y-101300000D01*
X155222828Y-101300000D01*
X155222844Y-101299999D01*
X155282372Y-101293598D01*
X155282379Y-101293596D01*
X155417086Y-101243354D01*
X155417093Y-101243350D01*
X155532187Y-101157190D01*
X155532190Y-101157187D01*
X155618350Y-101042093D01*
X155618354Y-101042086D01*
X155668596Y-100907379D01*
X155668598Y-100907372D01*
X155674999Y-100847844D01*
X155675000Y-100847827D01*
X155675000Y-100725000D01*
X155149499Y-100725000D01*
X155082460Y-100705315D01*
X155036705Y-100652511D01*
X155025499Y-100601002D01*
X155025499Y-100498998D01*
X155045184Y-100431961D01*
X155097988Y-100386206D01*
X155149499Y-100375000D01*
X155675000Y-100375000D01*
X155675000Y-100249500D01*
X155694685Y-100182461D01*
X155747489Y-100136706D01*
X155799000Y-100125500D01*
X155917588Y-100125500D01*
X155984627Y-100145185D01*
X155994903Y-100152555D01*
X155997736Y-100154814D01*
X155997738Y-100154816D01*
X156089408Y-100212416D01*
X156148426Y-100249500D01*
X156150478Y-100250789D01*
X156270184Y-100292676D01*
X156320745Y-100310368D01*
X156320750Y-100310369D01*
X156499996Y-100330565D01*
X156500000Y-100330565D01*
X156500004Y-100330565D01*
X156679249Y-100310369D01*
X156679252Y-100310368D01*
X156679255Y-100310368D01*
X156849522Y-100250789D01*
X157002262Y-100154816D01*
X157058524Y-100098553D01*
X157084192Y-100078856D01*
X157124404Y-100055639D01*
X157211216Y-100005520D01*
X157323020Y-99893716D01*
X157323020Y-99893714D01*
X157333228Y-99883507D01*
X157333230Y-99883504D01*
X157479917Y-99736816D01*
X157541238Y-99703333D01*
X157567586Y-99700499D01*
X158180008Y-99700499D01*
X158180016Y-99700498D01*
X158180019Y-99700498D01*
X158258245Y-99692507D01*
X158282797Y-99689999D01*
X158449334Y-99634814D01*
X158598656Y-99542712D01*
X158692319Y-99449049D01*
X158753642Y-99415564D01*
X158823334Y-99420548D01*
X158867681Y-99449049D01*
X158961344Y-99542712D01*
X159033096Y-99586968D01*
X159079821Y-99638915D01*
X159092000Y-99692507D01*
X159092000Y-102775500D01*
X159072315Y-102842539D01*
X159019511Y-102888294D01*
X158968000Y-102899500D01*
X151986669Y-102899500D01*
X151986653Y-102899499D01*
X151979057Y-102899499D01*
X151820943Y-102899499D01*
X151706397Y-102930192D01*
X151668214Y-102940423D01*
X151624445Y-102965694D01*
X151624444Y-102965694D01*
X151531287Y-103019477D01*
X151531282Y-103019481D01*
X151312181Y-103238583D01*
X151250858Y-103272068D01*
X151181166Y-103267084D01*
X151125233Y-103225212D01*
X151100816Y-103159748D01*
X151100500Y-103150902D01*
X151100500Y-99300097D01*
X151120185Y-99233058D01*
X151136819Y-99212416D01*
X152163319Y-98185916D01*
X152224642Y-98152431D01*
X152294334Y-98157415D01*
G37*
%TD.AperFunction*%
%TA.AperFunction,Conductor*%
G36*
X144416821Y-73570185D02*
G01*
X144455319Y-73609401D01*
X144507288Y-73693656D01*
X144631344Y-73817712D01*
X144678096Y-73846548D01*
X144724820Y-73898494D01*
X144737000Y-73952087D01*
X144737000Y-78057491D01*
X144717315Y-78124530D01*
X144678098Y-78163029D01*
X144606344Y-78207287D01*
X144482289Y-78331342D01*
X144390187Y-78480663D01*
X144390186Y-78480666D01*
X144335001Y-78647203D01*
X144335001Y-78647204D01*
X144335000Y-78647204D01*
X144324500Y-78749983D01*
X144324500Y-79750001D01*
X144324501Y-79750019D01*
X144335000Y-79852796D01*
X144335001Y-79852799D01*
X144390185Y-80019331D01*
X144390187Y-80019336D01*
X144398084Y-80032139D01*
X144482288Y-80168656D01*
X144606344Y-80292712D01*
X144746584Y-80379212D01*
X144793308Y-80431159D01*
X144804531Y-80500121D01*
X144776688Y-80564203D01*
X144720498Y-80602454D01*
X144710881Y-80605641D01*
X144710875Y-80605643D01*
X144561654Y-80697684D01*
X144437684Y-80821654D01*
X144345643Y-80970875D01*
X144345641Y-80970880D01*
X144290494Y-81137302D01*
X144290493Y-81137309D01*
X144280000Y-81240013D01*
X144280000Y-81515000D01*
X145156000Y-81515000D01*
X145223039Y-81534685D01*
X145268794Y-81587489D01*
X145280000Y-81639000D01*
X145280000Y-81765000D01*
X145406000Y-81765000D01*
X145473039Y-81784685D01*
X145518794Y-81837489D01*
X145530000Y-81889000D01*
X145530000Y-82950000D01*
X145551181Y-82971181D01*
X145584666Y-83032504D01*
X145587500Y-83058862D01*
X145587500Y-90449999D01*
X145649972Y-90449999D01*
X145649986Y-90449998D01*
X145752697Y-90439505D01*
X145919119Y-90384358D01*
X145919124Y-90384356D01*
X146068342Y-90292317D01*
X146161964Y-90198695D01*
X146223287Y-90165210D01*
X146292979Y-90170194D01*
X146337327Y-90198695D01*
X146431344Y-90292712D01*
X146450456Y-90304500D01*
X146497182Y-90356448D01*
X146508405Y-90425410D01*
X146480562Y-90489493D01*
X146473042Y-90497721D01*
X145603418Y-91367344D01*
X145542095Y-91400829D01*
X145472403Y-91395845D01*
X145452618Y-91386397D01*
X145430393Y-91373253D01*
X145272573Y-91327402D01*
X145272567Y-91327401D01*
X145235701Y-91324500D01*
X145235694Y-91324500D01*
X144804306Y-91324500D01*
X144804298Y-91324500D01*
X144767432Y-91327401D01*
X144767426Y-91327402D01*
X144609606Y-91373254D01*
X144609603Y-91373255D01*
X144468137Y-91456917D01*
X144461969Y-91461702D01*
X144460072Y-91459256D01*
X144411358Y-91485857D01*
X144341666Y-91480873D01*
X144309296Y-91460069D01*
X144308031Y-91461702D01*
X144301862Y-91456917D01*
X144182618Y-91386397D01*
X144160398Y-91373256D01*
X144160397Y-91373255D01*
X144160396Y-91373255D01*
X144160393Y-91373254D01*
X144002573Y-91327402D01*
X144002567Y-91327401D01*
X143965701Y-91324500D01*
X143965694Y-91324500D01*
X143534306Y-91324500D01*
X143534298Y-91324500D01*
X143497432Y-91327401D01*
X143497426Y-91327402D01*
X143339606Y-91373254D01*
X143339603Y-91373255D01*
X143198137Y-91456917D01*
X143191969Y-91461702D01*
X143190072Y-91459256D01*
X143141358Y-91485857D01*
X143071666Y-91480873D01*
X143039296Y-91460069D01*
X143038031Y-91461702D01*
X143031862Y-91456917D01*
X142912618Y-91386397D01*
X142890398Y-91373256D01*
X142890397Y-91373255D01*
X142890396Y-91373255D01*
X142890393Y-91373254D01*
X142732573Y-91327402D01*
X142732567Y-91327401D01*
X142695701Y-91324500D01*
X142695694Y-91324500D01*
X142264306Y-91324500D01*
X142264298Y-91324500D01*
X142227432Y-91327401D01*
X142227426Y-91327402D01*
X142069606Y-91373254D01*
X142069603Y-91373255D01*
X141928137Y-91456917D01*
X141921969Y-91461702D01*
X141920072Y-91459256D01*
X141871358Y-91485857D01*
X141801666Y-91480873D01*
X141769296Y-91460069D01*
X141768031Y-91461702D01*
X141761862Y-91456917D01*
X141642618Y-91386397D01*
X141620398Y-91373256D01*
X141620397Y-91373255D01*
X141620396Y-91373255D01*
X141620393Y-91373254D01*
X141462573Y-91327402D01*
X141462567Y-91327401D01*
X141425701Y-91324500D01*
X141425694Y-91324500D01*
X140994306Y-91324500D01*
X140994298Y-91324500D01*
X140957432Y-91327401D01*
X140957426Y-91327402D01*
X140799606Y-91373254D01*
X140799599Y-91373257D01*
X140727620Y-91415825D01*
X140659896Y-91433008D01*
X140593634Y-91410848D01*
X140549871Y-91356381D01*
X140540500Y-91309093D01*
X140540500Y-91029059D01*
X140540501Y-91029046D01*
X140540501Y-90860945D01*
X140540501Y-90860943D01*
X140499577Y-90708215D01*
X140469903Y-90656818D01*
X140420520Y-90571284D01*
X140330699Y-90481463D01*
X140297215Y-90420139D01*
X140295161Y-90407664D01*
X140285369Y-90320747D01*
X140225789Y-90150478D01*
X140143387Y-90019336D01*
X140129816Y-89997738D01*
X140002262Y-89870184D01*
X139974432Y-89852697D01*
X139849523Y-89774211D01*
X139780292Y-89749986D01*
X144325001Y-89749986D01*
X144335494Y-89852697D01*
X144390641Y-90019119D01*
X144390643Y-90019124D01*
X144482684Y-90168345D01*
X144606654Y-90292315D01*
X144755875Y-90384356D01*
X144755880Y-90384358D01*
X144922302Y-90439505D01*
X144922309Y-90439506D01*
X145025019Y-90449999D01*
X145087499Y-90449998D01*
X145087500Y-90449998D01*
X145087500Y-89500000D01*
X144325001Y-89500000D01*
X144325001Y-89749986D01*
X139780292Y-89749986D01*
X139679254Y-89714631D01*
X139679250Y-89714630D01*
X139649502Y-89711279D01*
X139585088Y-89684212D01*
X139545533Y-89626617D01*
X139544849Y-89604294D01*
X139543644Y-89621157D01*
X139501772Y-89677090D01*
X139441346Y-89701043D01*
X139320749Y-89714630D01*
X139320745Y-89714631D01*
X139150476Y-89774211D01*
X138997737Y-89870184D01*
X138870184Y-89997737D01*
X138774211Y-90150476D01*
X138714631Y-90320745D01*
X138714630Y-90320750D01*
X138694435Y-90499996D01*
X138694435Y-90500000D01*
X138714630Y-90679249D01*
X138714631Y-90679254D01*
X138774211Y-90849523D01*
X138870184Y-91002262D01*
X138980953Y-91113031D01*
X139014438Y-91174354D01*
X139009454Y-91244046D01*
X138967582Y-91299979D01*
X138902118Y-91324396D01*
X138888141Y-91324366D01*
X138888132Y-91324596D01*
X138885701Y-91324500D01*
X138885694Y-91324500D01*
X138454306Y-91324500D01*
X138454298Y-91324500D01*
X138417432Y-91327401D01*
X138417426Y-91327402D01*
X138259606Y-91373254D01*
X138259603Y-91373255D01*
X138118137Y-91456917D01*
X138111969Y-91461702D01*
X138110072Y-91459256D01*
X138061358Y-91485857D01*
X137991666Y-91480873D01*
X137959296Y-91460069D01*
X137958031Y-91461702D01*
X137951862Y-91456917D01*
X137832618Y-91386397D01*
X137810398Y-91373256D01*
X137810397Y-91373255D01*
X137810396Y-91373255D01*
X137810393Y-91373254D01*
X137652573Y-91327402D01*
X137652567Y-91327401D01*
X137615701Y-91324500D01*
X137615694Y-91324500D01*
X137184306Y-91324500D01*
X137184298Y-91324500D01*
X137147432Y-91327401D01*
X137147426Y-91327402D01*
X136989606Y-91373254D01*
X136989603Y-91373255D01*
X136848137Y-91456917D01*
X136848129Y-91456923D01*
X136731923Y-91573129D01*
X136731917Y-91573137D01*
X136648255Y-91714603D01*
X136648254Y-91714606D01*
X136602402Y-91872426D01*
X136602401Y-91872432D01*
X136599500Y-91909298D01*
X136599500Y-92025500D01*
X136579815Y-92092539D01*
X136527011Y-92138294D01*
X136475500Y-92149500D01*
X135288585Y-92149500D01*
X135221546Y-92129815D01*
X135175791Y-92077011D01*
X135170879Y-92064504D01*
X135166388Y-92050951D01*
X135134814Y-91955666D01*
X135042712Y-91806344D01*
X134918656Y-91682288D01*
X134825888Y-91625069D01*
X134769336Y-91590187D01*
X134769331Y-91590185D01*
X134767862Y-91589698D01*
X134602797Y-91535001D01*
X134602795Y-91535000D01*
X134500016Y-91524500D01*
X134500009Y-91524500D01*
X134024500Y-91524500D01*
X133957461Y-91504815D01*
X133911706Y-91452011D01*
X133900500Y-91400500D01*
X133900500Y-89174500D01*
X133920185Y-89107461D01*
X133972989Y-89061706D01*
X134024500Y-89050500D01*
X134878186Y-89050500D01*
X134878194Y-89050500D01*
X134915069Y-89047598D01*
X134915071Y-89047597D01*
X134915073Y-89047597D01*
X134974502Y-89030331D01*
X135072898Y-89001744D01*
X135214365Y-88918081D01*
X135245626Y-88886820D01*
X135306948Y-88853334D01*
X135333308Y-88850500D01*
X136261415Y-88850500D01*
X136328454Y-88870185D01*
X136374209Y-88922989D01*
X136379118Y-88935489D01*
X136408614Y-89024500D01*
X136415185Y-89044331D01*
X136415187Y-89044336D01*
X136418989Y-89050500D01*
X136507288Y-89193656D01*
X136631344Y-89317712D01*
X136780666Y-89409814D01*
X136947203Y-89464999D01*
X137049991Y-89475500D01*
X137650008Y-89475499D01*
X137650016Y-89475498D01*
X137650019Y-89475498D01*
X137706302Y-89469748D01*
X137752797Y-89464999D01*
X137919334Y-89409814D01*
X138068656Y-89317712D01*
X138192712Y-89193656D01*
X138194752Y-89190347D01*
X138196745Y-89188555D01*
X138197193Y-89187989D01*
X138197289Y-89188065D01*
X138246694Y-89143623D01*
X138315656Y-89132395D01*
X138379740Y-89160234D01*
X138405829Y-89190339D01*
X138407681Y-89193341D01*
X138407683Y-89193344D01*
X138531654Y-89317315D01*
X138680875Y-89409356D01*
X138680880Y-89409358D01*
X138847302Y-89464505D01*
X138847309Y-89464506D01*
X138950019Y-89474999D01*
X139500000Y-89474999D01*
X139515143Y-89490142D01*
X139547655Y-89549683D01*
X139579354Y-89496874D01*
X139641992Y-89465918D01*
X139650789Y-89464701D01*
X139652696Y-89464506D01*
X139819119Y-89409358D01*
X139819124Y-89409356D01*
X139968345Y-89317315D01*
X140092315Y-89193345D01*
X140184356Y-89044124D01*
X140184358Y-89044119D01*
X140239505Y-88877697D01*
X140239506Y-88877690D01*
X140249999Y-88774986D01*
X140250000Y-88774973D01*
X140250000Y-88750013D01*
X144325000Y-88750013D01*
X144325000Y-89000000D01*
X145087500Y-89000000D01*
X145087500Y-87015000D01*
X144325001Y-87015000D01*
X144325001Y-87264986D01*
X144335494Y-87367697D01*
X144390641Y-87534119D01*
X144390643Y-87534124D01*
X144482684Y-87683345D01*
X144606655Y-87807316D01*
X144606659Y-87807319D01*
X144760098Y-87901962D01*
X144806823Y-87953910D01*
X144818044Y-88022872D01*
X144790201Y-88086954D01*
X144760098Y-88113038D01*
X144606659Y-88207680D01*
X144606655Y-88207683D01*
X144482684Y-88331654D01*
X144390643Y-88480875D01*
X144390641Y-88480880D01*
X144335494Y-88647302D01*
X144335493Y-88647309D01*
X144325000Y-88750013D01*
X140250000Y-88750013D01*
X140250000Y-88500000D01*
X139500000Y-88500000D01*
X139500000Y-89474999D01*
X138950019Y-89474999D01*
X138999999Y-89474998D01*
X139000000Y-89474998D01*
X139000000Y-88000000D01*
X139500000Y-88000000D01*
X140249999Y-88000000D01*
X140249999Y-87725028D01*
X140249998Y-87725013D01*
X140239505Y-87622302D01*
X140184358Y-87455880D01*
X140184356Y-87455875D01*
X140092315Y-87306654D01*
X139968345Y-87182684D01*
X139819124Y-87090643D01*
X139819119Y-87090641D01*
X139652697Y-87035494D01*
X139652690Y-87035493D01*
X139549986Y-87025000D01*
X139500000Y-87025000D01*
X139500000Y-88000000D01*
X139000000Y-88000000D01*
X139000000Y-87025000D01*
X138999999Y-87024999D01*
X138950029Y-87025000D01*
X138950011Y-87025001D01*
X138847302Y-87035494D01*
X138680880Y-87090641D01*
X138680875Y-87090643D01*
X138531654Y-87182684D01*
X138407683Y-87306655D01*
X138407679Y-87306660D01*
X138405826Y-87309665D01*
X138404018Y-87311290D01*
X138403202Y-87312323D01*
X138403025Y-87312183D01*
X138353874Y-87356385D01*
X138284911Y-87367601D01*
X138220831Y-87339752D01*
X138194753Y-87309653D01*
X138194737Y-87309628D01*
X138192712Y-87306344D01*
X138068656Y-87182288D01*
X137919334Y-87090186D01*
X137752797Y-87035001D01*
X137752795Y-87035000D01*
X137650010Y-87024500D01*
X137049998Y-87024500D01*
X137049980Y-87024501D01*
X136947203Y-87035000D01*
X136947200Y-87035001D01*
X136780668Y-87090185D01*
X136780663Y-87090187D01*
X136631342Y-87182289D01*
X136507289Y-87306342D01*
X136415187Y-87455663D01*
X136415185Y-87455668D01*
X136410546Y-87469668D01*
X136383101Y-87552494D01*
X136379121Y-87564504D01*
X136339348Y-87621949D01*
X136274833Y-87648772D01*
X136261415Y-87649500D01*
X135333308Y-87649500D01*
X135266269Y-87629815D01*
X135245626Y-87613180D01*
X135214370Y-87581923D01*
X135214362Y-87581917D01*
X135131194Y-87532732D01*
X135072898Y-87498256D01*
X135072897Y-87498255D01*
X135072896Y-87498255D01*
X135072893Y-87498254D01*
X134915073Y-87452402D01*
X134915067Y-87452401D01*
X134878201Y-87449500D01*
X134878194Y-87449500D01*
X134024500Y-87449500D01*
X133957461Y-87429815D01*
X133911706Y-87377011D01*
X133900500Y-87325500D01*
X133900500Y-87274500D01*
X133920185Y-87207461D01*
X133972989Y-87161706D01*
X134024500Y-87150500D01*
X134878186Y-87150500D01*
X134878194Y-87150500D01*
X134915069Y-87147598D01*
X134915071Y-87147597D01*
X134915073Y-87147597D01*
X134974502Y-87130331D01*
X135072898Y-87101744D01*
X135214365Y-87018081D01*
X135242231Y-86990214D01*
X135303549Y-86956731D01*
X135373241Y-86961713D01*
X135395883Y-86972903D01*
X135400473Y-86975787D01*
X135400477Y-86975788D01*
X135400478Y-86975789D01*
X135539686Y-87024500D01*
X135570745Y-87035368D01*
X135570750Y-87035369D01*
X135749996Y-87055565D01*
X135750000Y-87055565D01*
X135750004Y-87055565D01*
X135929249Y-87035369D01*
X135929252Y-87035368D01*
X135929255Y-87035368D01*
X136099522Y-86975789D01*
X136252262Y-86879816D01*
X136379816Y-86752262D01*
X136468217Y-86611571D01*
X136520550Y-86565282D01*
X136589604Y-86554633D01*
X136638303Y-86572004D01*
X136780666Y-86659814D01*
X136947203Y-86714999D01*
X137049991Y-86725500D01*
X137650008Y-86725499D01*
X137650016Y-86725498D01*
X137650019Y-86725498D01*
X137706302Y-86719748D01*
X137752797Y-86714999D01*
X137919334Y-86659814D01*
X138068656Y-86567712D01*
X138192712Y-86443656D01*
X138194752Y-86440347D01*
X138196745Y-86438555D01*
X138197193Y-86437989D01*
X138197289Y-86438065D01*
X138246694Y-86393623D01*
X138315656Y-86382395D01*
X138379740Y-86410234D01*
X138405829Y-86440339D01*
X138407681Y-86443341D01*
X138407683Y-86443344D01*
X138531654Y-86567315D01*
X138680875Y-86659356D01*
X138680880Y-86659358D01*
X138847302Y-86714505D01*
X138847309Y-86714506D01*
X138950019Y-86724999D01*
X139500000Y-86724999D01*
X139549972Y-86724999D01*
X139549986Y-86724998D01*
X139652697Y-86714505D01*
X139819119Y-86659358D01*
X139819124Y-86659356D01*
X139968345Y-86567315D01*
X140092315Y-86443345D01*
X140184356Y-86294124D01*
X140184358Y-86294119D01*
X140194003Y-86265013D01*
X144325000Y-86265013D01*
X144325000Y-86515000D01*
X145087500Y-86515000D01*
X145087500Y-84530000D01*
X144325001Y-84530000D01*
X144325001Y-84779986D01*
X144335494Y-84882697D01*
X144390641Y-85049119D01*
X144390643Y-85049124D01*
X144482684Y-85198345D01*
X144606655Y-85322316D01*
X144606659Y-85322319D01*
X144760098Y-85416962D01*
X144806823Y-85468910D01*
X144818044Y-85537872D01*
X144790201Y-85601954D01*
X144760098Y-85628038D01*
X144606659Y-85722680D01*
X144606655Y-85722683D01*
X144482684Y-85846654D01*
X144390643Y-85995875D01*
X144390641Y-85995880D01*
X144335494Y-86162302D01*
X144335493Y-86162309D01*
X144325000Y-86265013D01*
X140194003Y-86265013D01*
X140239505Y-86127697D01*
X140239506Y-86127690D01*
X140249999Y-86024986D01*
X140250000Y-86024973D01*
X140250000Y-85750000D01*
X139500000Y-85750000D01*
X139500000Y-86724999D01*
X138950019Y-86724999D01*
X138999999Y-86724998D01*
X139000000Y-86724998D01*
X139000000Y-85250000D01*
X139500000Y-85250000D01*
X140249999Y-85250000D01*
X140249999Y-84975028D01*
X140249998Y-84975013D01*
X140239505Y-84872302D01*
X140184358Y-84705880D01*
X140184356Y-84705875D01*
X140092315Y-84556654D01*
X139968345Y-84432684D01*
X139819124Y-84340643D01*
X139819119Y-84340641D01*
X139652697Y-84285494D01*
X139652690Y-84285493D01*
X139549986Y-84275000D01*
X139500000Y-84275000D01*
X139500000Y-85250000D01*
X139000000Y-85250000D01*
X139000000Y-84275000D01*
X138999999Y-84274999D01*
X138950029Y-84275000D01*
X138950011Y-84275001D01*
X138847302Y-84285494D01*
X138680880Y-84340641D01*
X138680875Y-84340643D01*
X138531654Y-84432684D01*
X138407683Y-84556655D01*
X138407679Y-84556660D01*
X138405826Y-84559665D01*
X138404018Y-84561290D01*
X138403202Y-84562323D01*
X138403025Y-84562183D01*
X138353874Y-84606385D01*
X138284911Y-84617601D01*
X138220831Y-84589752D01*
X138194753Y-84559653D01*
X138194737Y-84559628D01*
X138192712Y-84556344D01*
X138068656Y-84432288D01*
X137919334Y-84340186D01*
X137752797Y-84285001D01*
X137752795Y-84285000D01*
X137650010Y-84274500D01*
X137049998Y-84274500D01*
X137049980Y-84274501D01*
X136947203Y-84285000D01*
X136947200Y-84285001D01*
X136780668Y-84340185D01*
X136780663Y-84340187D01*
X136631342Y-84432289D01*
X136507289Y-84556342D01*
X136415187Y-84705663D01*
X136415185Y-84705668D01*
X136365167Y-84856613D01*
X136325394Y-84914058D01*
X136279561Y-84937382D01*
X136268218Y-84940421D01*
X136268215Y-84940423D01*
X136241814Y-84955666D01*
X136208340Y-84974992D01*
X136131285Y-85019479D01*
X136131282Y-85019481D01*
X136019478Y-85131286D01*
X135731465Y-85419298D01*
X135670142Y-85452783D01*
X135657668Y-85454837D01*
X135570750Y-85464630D01*
X135400477Y-85524210D01*
X135244959Y-85621929D01*
X135177722Y-85640929D01*
X135115867Y-85623667D01*
X135072900Y-85598257D01*
X135072893Y-85598254D01*
X134915073Y-85552402D01*
X134915067Y-85552401D01*
X134878201Y-85549500D01*
X134878194Y-85549500D01*
X134199097Y-85549500D01*
X134132058Y-85529815D01*
X134086303Y-85477011D01*
X134076359Y-85407853D01*
X134105384Y-85344297D01*
X134111416Y-85337819D01*
X134639582Y-84809653D01*
X135380520Y-84068716D01*
X135459577Y-83931784D01*
X135500501Y-83779057D01*
X135500501Y-83620942D01*
X135500501Y-83613347D01*
X135500500Y-83613329D01*
X135500500Y-83474500D01*
X135520185Y-83407461D01*
X135572989Y-83361706D01*
X135624500Y-83350500D01*
X136261415Y-83350500D01*
X136328454Y-83370185D01*
X136374209Y-83422989D01*
X136379118Y-83435489D01*
X136415186Y-83544334D01*
X136507288Y-83693656D01*
X136631344Y-83817712D01*
X136780666Y-83909814D01*
X136947203Y-83964999D01*
X137049991Y-83975500D01*
X137650008Y-83975499D01*
X137650016Y-83975498D01*
X137650019Y-83975498D01*
X137706302Y-83969748D01*
X137752797Y-83964999D01*
X137919334Y-83909814D01*
X138068656Y-83817712D01*
X138192712Y-83693656D01*
X138194752Y-83690347D01*
X138196745Y-83688555D01*
X138197193Y-83687989D01*
X138197289Y-83688065D01*
X138246694Y-83643623D01*
X138315656Y-83632395D01*
X138379740Y-83660234D01*
X138405829Y-83690339D01*
X138407681Y-83693341D01*
X138407683Y-83693344D01*
X138531654Y-83817315D01*
X138680875Y-83909356D01*
X138680880Y-83909358D01*
X138847302Y-83964505D01*
X138847309Y-83964506D01*
X138950019Y-83974999D01*
X139500000Y-83974999D01*
X139549972Y-83974999D01*
X139549986Y-83974998D01*
X139652697Y-83964505D01*
X139819119Y-83909358D01*
X139819124Y-83909356D01*
X139968345Y-83817315D01*
X140092315Y-83693345D01*
X140184356Y-83544124D01*
X140184358Y-83544119D01*
X140239505Y-83377697D01*
X140239506Y-83377690D01*
X140249999Y-83274986D01*
X140250000Y-83274973D01*
X140250000Y-83000000D01*
X139500000Y-83000000D01*
X139500000Y-83974999D01*
X138950019Y-83974999D01*
X138999999Y-83974998D01*
X139000000Y-83974998D01*
X139000000Y-82500000D01*
X139500000Y-82500000D01*
X140249999Y-82500000D01*
X140249999Y-82289986D01*
X144280001Y-82289986D01*
X144290494Y-82392697D01*
X144345641Y-82559119D01*
X144345643Y-82559124D01*
X144437684Y-82708345D01*
X144561654Y-82832315D01*
X144710875Y-82924356D01*
X144710882Y-82924359D01*
X144721109Y-82927748D01*
X144778555Y-82967520D01*
X144805378Y-83032036D01*
X144793063Y-83100812D01*
X144747203Y-83150993D01*
X144606654Y-83237684D01*
X144482684Y-83361654D01*
X144390643Y-83510875D01*
X144390641Y-83510880D01*
X144335494Y-83677302D01*
X144335493Y-83677309D01*
X144325000Y-83780013D01*
X144325000Y-84030000D01*
X145087500Y-84030000D01*
X145087500Y-83120000D01*
X145066319Y-83098819D01*
X145032834Y-83037496D01*
X145030000Y-83011138D01*
X145030000Y-82015000D01*
X144280001Y-82015000D01*
X144280001Y-82289986D01*
X140249999Y-82289986D01*
X140249999Y-82225028D01*
X140249998Y-82225013D01*
X140239505Y-82122302D01*
X140184358Y-81955880D01*
X140184353Y-81955869D01*
X140090928Y-81804404D01*
X140081164Y-81768725D01*
X140043741Y-81755701D01*
X140028159Y-81742498D01*
X139968345Y-81682684D01*
X139819124Y-81590643D01*
X139819119Y-81590641D01*
X139652697Y-81535494D01*
X139652690Y-81535493D01*
X139549986Y-81525000D01*
X139500000Y-81525000D01*
X139500000Y-82500000D01*
X139000000Y-82500000D01*
X139000000Y-81525000D01*
X138999999Y-81524999D01*
X138950029Y-81525000D01*
X138950011Y-81525001D01*
X138847302Y-81535494D01*
X138680880Y-81590641D01*
X138680875Y-81590643D01*
X138531654Y-81682684D01*
X138407683Y-81806655D01*
X138407679Y-81806660D01*
X138405826Y-81809665D01*
X138404018Y-81811290D01*
X138403202Y-81812323D01*
X138403025Y-81812183D01*
X138353874Y-81856385D01*
X138284911Y-81867601D01*
X138220831Y-81839752D01*
X138194753Y-81809653D01*
X138194737Y-81809628D01*
X138192712Y-81806344D01*
X138068656Y-81682288D01*
X137919334Y-81590186D01*
X137752797Y-81535001D01*
X137752795Y-81535000D01*
X137650010Y-81524500D01*
X137049998Y-81524500D01*
X137049980Y-81524501D01*
X136947203Y-81535000D01*
X136947200Y-81535001D01*
X136780668Y-81590185D01*
X136780663Y-81590187D01*
X136631342Y-81682289D01*
X136507289Y-81806342D01*
X136415187Y-81955663D01*
X136415185Y-81955668D01*
X136379121Y-82064504D01*
X136339348Y-82121949D01*
X136274833Y-82148772D01*
X136261415Y-82149500D01*
X135876069Y-82149500D01*
X135809030Y-82129815D01*
X135763275Y-82077011D01*
X135753331Y-82007853D01*
X135770530Y-81960403D01*
X135776947Y-81950000D01*
X135787003Y-81933697D01*
X135840349Y-81772708D01*
X135850500Y-81673345D01*
X135850499Y-80826656D01*
X135849956Y-80821344D01*
X135840349Y-80727292D01*
X135840348Y-80727289D01*
X135828328Y-80691014D01*
X135787003Y-80566303D01*
X135718960Y-80455989D01*
X135700500Y-80390893D01*
X135700500Y-80249995D01*
X139545233Y-80249995D01*
X139545233Y-80250004D01*
X139564273Y-80504079D01*
X139620968Y-80752477D01*
X139620973Y-80752494D01*
X139714058Y-80989671D01*
X139714057Y-80989671D01*
X139841457Y-81210332D01*
X139883452Y-81262993D01*
X140685387Y-80461058D01*
X140690889Y-80481591D01*
X140769881Y-80618408D01*
X140881592Y-80730119D01*
X141018409Y-80809111D01*
X141038940Y-80814612D01*
X140236812Y-81616738D01*
X140237624Y-81625397D01*
X140266318Y-81636853D01*
X140397623Y-81726375D01*
X140397624Y-81726376D01*
X140627176Y-81836921D01*
X140627174Y-81836921D01*
X140870652Y-81912024D01*
X140870658Y-81912026D01*
X141122595Y-81949999D01*
X141122604Y-81950000D01*
X141377396Y-81950000D01*
X141377404Y-81949999D01*
X141629341Y-81912026D01*
X141629347Y-81912024D01*
X141872824Y-81836921D01*
X142102381Y-81726373D01*
X142263185Y-81616737D01*
X141461059Y-80814612D01*
X141481591Y-80809111D01*
X141618408Y-80730119D01*
X141730119Y-80618408D01*
X141809111Y-80481591D01*
X141814612Y-80461059D01*
X142616545Y-81262993D01*
X142658545Y-81210327D01*
X142785941Y-80989671D01*
X142879026Y-80752494D01*
X142879031Y-80752477D01*
X142935726Y-80504079D01*
X142954767Y-80250004D01*
X142954767Y-80249995D01*
X142935726Y-79995920D01*
X142879031Y-79747522D01*
X142879026Y-79747505D01*
X142785941Y-79510328D01*
X142785942Y-79510328D01*
X142658544Y-79289671D01*
X142616546Y-79237006D01*
X141814612Y-80038939D01*
X141809111Y-80018409D01*
X141730119Y-79881592D01*
X141618408Y-79769881D01*
X141481591Y-79690889D01*
X141461058Y-79685387D01*
X142263185Y-78883261D01*
X142102377Y-78773624D01*
X142102376Y-78773623D01*
X141872823Y-78663078D01*
X141872825Y-78663078D01*
X141629347Y-78587975D01*
X141629341Y-78587973D01*
X141377404Y-78550000D01*
X141122595Y-78550000D01*
X140870658Y-78587973D01*
X140870652Y-78587975D01*
X140627175Y-78663078D01*
X140397624Y-78773623D01*
X140397616Y-78773628D01*
X140236813Y-78883261D01*
X141038940Y-79685387D01*
X141018409Y-79690889D01*
X140881592Y-79769881D01*
X140769881Y-79881592D01*
X140690889Y-80018409D01*
X140685387Y-80038940D01*
X139883453Y-79237006D01*
X139841455Y-79289670D01*
X139714058Y-79510328D01*
X139620973Y-79747505D01*
X139620968Y-79747522D01*
X139564273Y-79995920D01*
X139545233Y-80249995D01*
X135700500Y-80249995D01*
X135700500Y-75871157D01*
X135700499Y-75871156D01*
X135692083Y-75828842D01*
X135692083Y-75828838D01*
X135669739Y-75716510D01*
X135669738Y-75716503D01*
X135609394Y-75570821D01*
X135609392Y-75570818D01*
X135609390Y-75570814D01*
X135521398Y-75439125D01*
X135500520Y-75372447D01*
X135500500Y-75370234D01*
X135500500Y-73974500D01*
X135520185Y-73907461D01*
X135572989Y-73861706D01*
X135624500Y-73850500D01*
X139425501Y-73850500D01*
X139492540Y-73870185D01*
X139538295Y-73922989D01*
X139549501Y-73974500D01*
X139549501Y-73997876D01*
X139555908Y-74057483D01*
X139606202Y-74192328D01*
X139606206Y-74192335D01*
X139692452Y-74307544D01*
X139692455Y-74307547D01*
X139807664Y-74393793D01*
X139807671Y-74393797D01*
X139942517Y-74444091D01*
X139942516Y-74444091D01*
X139949444Y-74444835D01*
X140002127Y-74450500D01*
X142497872Y-74450499D01*
X142557483Y-74444091D01*
X142692331Y-74393796D01*
X142807546Y-74307546D01*
X142893796Y-74192331D01*
X142944091Y-74057483D01*
X142950500Y-73997873D01*
X142950500Y-73674500D01*
X142970185Y-73607461D01*
X143022989Y-73561706D01*
X143074500Y-73550500D01*
X144349782Y-73550500D01*
X144416821Y-73570185D01*
G37*
%TD.AperFunction*%
%TD*%
M02*
