%TF.GenerationSoftware,KiCad,Pcbnew,8.0.7*%
%TF.CreationDate,2025-01-11T16:41:09-06:00*%
%TF.ProjectId,ptSolar,7074536f-6c61-4722-9e6b-696361645f70,rev?*%
%TF.SameCoordinates,Original*%
%TF.FileFunction,Copper,L4,Bot*%
%TF.FilePolarity,Positive*%
%FSLAX46Y46*%
G04 Gerber Fmt 4.6, Leading zero omitted, Abs format (unit mm)*
G04 Created by KiCad (PCBNEW 8.0.7) date 2025-01-11 16:41:09*
%MOMM*%
%LPD*%
G01*
G04 APERTURE LIST*
G04 Aperture macros list*
%AMRoundRect*
0 Rectangle with rounded corners*
0 $1 Rounding radius*
0 $2 $3 $4 $5 $6 $7 $8 $9 X,Y pos of 4 corners*
0 Add a 4 corners polygon primitive as box body*
4,1,4,$2,$3,$4,$5,$6,$7,$8,$9,$2,$3,0*
0 Add four circle primitives for the rounded corners*
1,1,$1+$1,$2,$3*
1,1,$1+$1,$4,$5*
1,1,$1+$1,$6,$7*
1,1,$1+$1,$8,$9*
0 Add four rect primitives between the rounded corners*
20,1,$1+$1,$2,$3,$4,$5,0*
20,1,$1+$1,$4,$5,$6,$7,0*
20,1,$1+$1,$6,$7,$8,$9,0*
20,1,$1+$1,$8,$9,$2,$3,0*%
G04 Aperture macros list end*
%TA.AperFunction,ComponentPad*%
%ADD10O,4.000000X3.000000*%
%TD*%
%TA.AperFunction,SMDPad,CuDef*%
%ADD11R,1.500000X5.080000*%
%TD*%
%TA.AperFunction,ComponentPad*%
%ADD12R,1.350000X1.350000*%
%TD*%
%TA.AperFunction,ComponentPad*%
%ADD13O,1.350000X1.350000*%
%TD*%
%TA.AperFunction,ComponentPad*%
%ADD14R,1.700000X1.700000*%
%TD*%
%TA.AperFunction,ComponentPad*%
%ADD15O,1.700000X1.700000*%
%TD*%
%TA.AperFunction,ComponentPad*%
%ADD16R,2.400000X2.400000*%
%TD*%
%TA.AperFunction,ComponentPad*%
%ADD17C,2.400000*%
%TD*%
%TA.AperFunction,SMDPad,CuDef*%
%ADD18RoundRect,0.125000X-1.125000X-1.125000X1.125000X-1.125000X1.125000X1.125000X-1.125000X1.125000X0*%
%TD*%
%TA.AperFunction,ViaPad*%
%ADD19C,0.600000*%
%TD*%
%TA.AperFunction,Conductor*%
%ADD20C,1.200000*%
%TD*%
%TA.AperFunction,Conductor*%
%ADD21C,0.200000*%
%TD*%
G04 APERTURE END LIST*
D10*
%TO.P,J1,1,V+*%
%TO.N,+BATT*%
X129250000Y-72000000D03*
%TO.P,J1,2,V-*%
%TO.N,GND*%
X129250000Y-137500000D03*
%TD*%
%TO.P,J2,1,V+*%
%TO.N,+BATT*%
X167250000Y-72000000D03*
%TO.P,J2,2,V-*%
%TO.N,GND*%
X167250000Y-137500000D03*
%TD*%
D11*
%TO.P,ANT2,2,Ext*%
%TO.N,GND*%
X151500000Y-70750000D03*
X160000000Y-70750000D03*
%TD*%
D12*
%TO.P,J4,1,Pin_1*%
%TO.N,/MISO*%
X153265000Y-134250000D03*
D13*
%TO.P,J4,2,Pin_2*%
%TO.N,+BATT*%
X153265000Y-132250000D03*
%TO.P,J4,3,Pin_3*%
%TO.N,/SCK*%
X155265000Y-134250000D03*
%TO.P,J4,4,Pin_4*%
%TO.N,/MOSI*%
X155265000Y-132250000D03*
%TO.P,J4,5,Pin_5*%
%TO.N,/RESET*%
X157265000Y-134250000D03*
%TO.P,J4,6,Pin_6*%
%TO.N,GND*%
X157265000Y-132250000D03*
%TD*%
D14*
%TO.P,J3,1,Pin_1*%
%TO.N,Net-(J3-Pin_1)*%
X163250000Y-96275000D03*
D15*
%TO.P,J3,2,Pin_2*%
%TO.N,Net-(J3-Pin_2)*%
X163250000Y-93735000D03*
%TO.P,J3,3,Pin_3*%
%TO.N,GND*%
X163250000Y-91195000D03*
%TD*%
D16*
%TO.P,C1,1*%
%TO.N,+BATT*%
X141250000Y-72750000D03*
D17*
%TO.P,C1,2*%
%TO.N,GND*%
X141250000Y-80250000D03*
%TD*%
D18*
%TO.P,U2,1,Squelch*%
%TO.N,unconnected-(U2-Squelch-Pad1)*%
X158800000Y-119500000D03*
%TO.P,U2,2,NC*%
%TO.N,unconnected-(U2-NC-Pad2)*%
X158800000Y-115100000D03*
%TO.P,U2,3,AF-OUT*%
%TO.N,Net-(U2-AF-OUT)*%
X158800000Y-110700000D03*
%TO.P,U2,4,NC*%
%TO.N,unconnected-(U2-NC-Pad4)*%
X158800000Y-106300000D03*
%TO.P,U2,5,PTT*%
%TO.N,Net-(U2-PTT)*%
X158800000Y-101900000D03*
%TO.P,U2,6,POWER_SAVE*%
%TO.N,Net-(U2-POWER_SAVE)*%
X158800000Y-97500000D03*
%TO.P,U2,7,HIGH/LOW*%
%TO.N,Net-(U2-HIGH{slash}LOW)*%
X158800000Y-93100000D03*
%TO.P,U2,8,VBAT*%
%TO.N,+BATT*%
X156800000Y-89200000D03*
%TO.P,U2,9,GND*%
%TO.N,GND*%
X152166666Y-89200000D03*
%TO.P,U2,10,GND*%
X147533333Y-89200000D03*
%TO.P,U2,11,NC*%
%TO.N,unconnected-(U2-NC-Pad11)*%
X142900000Y-89200000D03*
%TO.P,U2,12,ANTENNA*%
%TO.N,Net-(U2-ANTENNA)*%
X141000000Y-93100000D03*
%TO.P,U2,13,NC*%
%TO.N,unconnected-(U2-NC-Pad13)*%
X141000000Y-97500000D03*
%TO.P,U2,14,NC*%
%TO.N,unconnected-(U2-NC-Pad14)*%
X141000000Y-101900000D03*
%TO.P,U2,15,NC*%
%TO.N,unconnected-(U2-NC-Pad15)*%
X141000000Y-106300000D03*
%TO.P,U2,16,RX_DATA*%
%TO.N,Net-(U2-RX_DATA)*%
X141000000Y-110700000D03*
%TO.P,U2,17,TX_DATA*%
%TO.N,Net-(U2-TX_DATA)*%
X141000000Y-115100000D03*
%TO.P,U2,18,MIC-IN*%
%TO.N,Net-(U2-MIC-IN)*%
X141000000Y-119500000D03*
%TD*%
D19*
%TO.N,GND*%
X144250000Y-110750000D03*
X150250000Y-108750000D03*
X148000000Y-70000000D03*
X144500000Y-116250000D03*
X133500000Y-116000000D03*
X131000000Y-132500000D03*
X151250000Y-78583334D03*
X134750000Y-130250000D03*
X162250000Y-87083332D03*
X149750000Y-126000000D03*
X156000000Y-116500000D03*
X162250000Y-84249999D03*
X156750000Y-126000000D03*
X162250000Y-70000000D03*
X135000000Y-111500000D03*
X134750000Y-127750000D03*
X135750000Y-90250000D03*
X149750000Y-127750000D03*
X161250000Y-138750000D03*
X155000000Y-94500000D03*
X143333332Y-70000000D03*
X146750000Y-99250000D03*
X157500000Y-138750000D03*
X162500000Y-108000000D03*
X134000000Y-70000000D03*
X165000000Y-124000000D03*
X151250000Y-80500000D03*
X165000000Y-121500000D03*
X134750000Y-120750000D03*
X155000000Y-102000000D03*
X134750000Y-123250000D03*
X136750000Y-103750000D03*
X134750000Y-125250000D03*
X151250000Y-86000000D03*
X162250000Y-78583333D03*
X149750000Y-130250000D03*
X162250000Y-75750000D03*
X138666666Y-70000000D03*
X151250000Y-75750001D03*
X153750000Y-138750000D03*
X162250000Y-81416666D03*
X150250000Y-116250000D03*
X144000000Y-106500000D03*
%TO.N,Net-(U2-ANTENNA)*%
X155000000Y-92500000D03*
%TO.N,/RESET*%
X155500000Y-115000000D03*
X152250000Y-107750000D03*
%TO.N,/SCK*%
X161250000Y-129750000D03*
%TO.N,/MISO*%
X154710000Y-128250000D03*
%TO.N,+3.3V*%
X135750000Y-105750000D03*
X164750000Y-134250000D03*
X135750000Y-97750000D03*
X138950000Y-119750000D03*
X147750000Y-110250000D03*
X164750000Y-104050000D03*
X156500000Y-99525000D03*
X135750000Y-86250000D03*
%TO.N,Net-(U2-MIC-IN)*%
X161250000Y-117350000D03*
%TO.N,Net-(U2-HIGH{slash}LOW)*%
X149500000Y-86681090D03*
%TO.N,Net-(U7-PC0)*%
X152750000Y-111750000D03*
X132750000Y-111250000D03*
%TO.N,Net-(U2-POWER_SAVE)*%
X141250000Y-95250000D03*
%TO.N,Net-(U3-A1)*%
X150250000Y-111750000D03*
X138750000Y-100750000D03*
%TO.N,Net-(U2-PTT)*%
X144000000Y-95767959D03*
%TO.N,Net-(U2-TX_DATA)*%
X137000000Y-115000000D03*
%TO.N,Net-(U3-A2)*%
X139750000Y-99750000D03*
X149250000Y-109750000D03*
%TO.N,Net-(U2-RX_DATA)*%
X139500000Y-90500000D03*
%TO.N,/BATT-SENSE*%
X149000000Y-98500000D03*
X155750000Y-105250000D03*
%TO.N,Net-(U7-PD3)*%
X162750000Y-110250000D03*
X144175735Y-103324265D03*
%TO.N,Net-(U2-AF-OUT)*%
X135700000Y-110250000D03*
%TD*%
D20*
%TO.N,+BATT*%
X156800000Y-88800000D02*
X156800000Y-89200000D01*
X141250000Y-73250000D02*
X156800000Y-88800000D01*
X141250000Y-72750000D02*
X141250000Y-73250000D01*
D21*
%TO.N,Net-(U2-ANTENNA)*%
X154150000Y-93350000D02*
X141250000Y-93350000D01*
X155000000Y-92500000D02*
X154150000Y-93350000D01*
X141250000Y-93350000D02*
X141000000Y-93100000D01*
%TO.N,/RESET*%
X152250000Y-108250000D02*
X155500000Y-111500000D01*
X155500000Y-111500000D02*
X155500000Y-115000000D01*
X152250000Y-107750000D02*
X152250000Y-108250000D01*
%TO.N,/SCK*%
X161250000Y-129750000D02*
X161143859Y-129750000D01*
X161143859Y-129750000D02*
X157643859Y-133250000D01*
X157643859Y-133250000D02*
X156265000Y-133250000D01*
X156265000Y-133250000D02*
X155265000Y-134250000D01*
%TO.N,/MISO*%
X154290000Y-133225000D02*
X154290000Y-128670000D01*
X154290000Y-128670000D02*
X154710000Y-128250000D01*
X153265000Y-134250000D02*
X154290000Y-133225000D01*
%TO.N,Net-(U2-MIC-IN)*%
X143000000Y-117500000D02*
X161100000Y-117500000D01*
X141000000Y-119500000D02*
X143000000Y-117500000D01*
X161100000Y-117500000D02*
X161250000Y-117350000D01*
%TO.N,Net-(U2-HIGH{slash}LOW)*%
X155900000Y-91900000D02*
X157100000Y-93100000D01*
X149500000Y-86681090D02*
X150000000Y-87181090D01*
X150900000Y-91900000D02*
X155900000Y-91900000D01*
X150000000Y-87181090D02*
X150000000Y-91000000D01*
X150000000Y-91000000D02*
X150900000Y-91900000D01*
X157100000Y-93100000D02*
X158800000Y-93100000D01*
%TO.N,Net-(U7-PC0)*%
X132750000Y-111250000D02*
X134500000Y-113000000D01*
X151500000Y-113000000D02*
X152750000Y-111750000D01*
X134500000Y-113000000D02*
X151500000Y-113000000D01*
%TO.N,Net-(U2-POWER_SAVE)*%
X150667959Y-95167959D02*
X141332041Y-95167959D01*
X158800000Y-97500000D02*
X153000000Y-97500000D01*
X141332041Y-95167959D02*
X141250000Y-95250000D01*
X153000000Y-97500000D02*
X150667959Y-95167959D01*
%TO.N,Net-(U3-A1)*%
X146750000Y-111750000D02*
X150250000Y-111750000D01*
X139750000Y-108250000D02*
X143250000Y-108250000D01*
X138750000Y-107250000D02*
X139750000Y-108250000D01*
X138750000Y-100750000D02*
X138750000Y-107250000D01*
X143250000Y-108250000D02*
X146750000Y-111750000D01*
%TO.N,Net-(U2-PTT)*%
X150616488Y-95767959D02*
X156748529Y-101900000D01*
X156748529Y-101900000D02*
X158800000Y-101900000D01*
X144000000Y-95767959D02*
X150616488Y-95767959D01*
%TO.N,Net-(U2-TX_DATA)*%
X140900000Y-115000000D02*
X141000000Y-115100000D01*
X137000000Y-115000000D02*
X140900000Y-115000000D01*
%TO.N,Net-(U3-A2)*%
X139750000Y-99750000D02*
X142250000Y-99750000D01*
X143500000Y-101000000D02*
X143500000Y-104000000D01*
X142250000Y-99750000D02*
X143500000Y-101000000D01*
X143500000Y-104000000D02*
X149250000Y-109750000D01*
%TO.N,Net-(U2-RX_DATA)*%
X139000000Y-91000000D02*
X139000000Y-99651471D01*
X139500000Y-90500000D02*
X139000000Y-91000000D01*
X139000000Y-99651471D02*
X138150000Y-100501471D01*
X138150000Y-107850000D02*
X141000000Y-110700000D01*
X138150000Y-100501471D02*
X138150000Y-107850000D01*
%TO.N,/BATT-SENSE*%
X149000000Y-98500000D02*
X155750000Y-105250000D01*
%TO.N,Net-(U7-PD3)*%
X155565686Y-108500000D02*
X153815686Y-106750000D01*
X162750000Y-110250000D02*
X161000000Y-108500000D01*
X147250000Y-106750000D02*
X144175735Y-103675735D01*
X153815686Y-106750000D02*
X147250000Y-106750000D01*
X161000000Y-108500000D02*
X155565686Y-108500000D01*
X144175735Y-103675735D02*
X144175735Y-103324265D01*
%TO.N,Net-(U2-AF-OUT)*%
X137950000Y-112500000D02*
X150500000Y-112500000D01*
X153650000Y-107150000D02*
X157200000Y-110700000D01*
X157200000Y-110700000D02*
X158800000Y-110700000D01*
X135700000Y-110250000D02*
X137950000Y-112500000D01*
X151500000Y-107500000D02*
X151850000Y-107150000D01*
X151850000Y-107150000D02*
X153650000Y-107150000D01*
X158017157Y-110550000D02*
X159250000Y-110550000D01*
X150500000Y-112500000D02*
X151500000Y-111500000D01*
X151500000Y-111500000D02*
X151500000Y-107500000D01*
%TO.N,unconnected-(U2-NC-Pad13)*%
X141250000Y-97150000D02*
X141450000Y-97350000D01*
%TD*%
%TA.AperFunction,Conductor*%
%TO.N,GND*%
G36*
X143016942Y-108870185D02*
G01*
X143037584Y-108886819D01*
X145838584Y-111687819D01*
X145872069Y-111749142D01*
X145867085Y-111818834D01*
X145825213Y-111874767D01*
X145759749Y-111899184D01*
X145750903Y-111899500D01*
X142874500Y-111899500D01*
X142807461Y-111879815D01*
X142761706Y-111827011D01*
X142750500Y-111775500D01*
X142750499Y-109511849D01*
X142750498Y-109511824D01*
X142749864Y-109503763D01*
X142747709Y-109476373D01*
X142703618Y-109324610D01*
X142623170Y-109188580D01*
X142623168Y-109188578D01*
X142623165Y-109188574D01*
X142511424Y-109076833D01*
X142505812Y-109072480D01*
X142464905Y-109015837D01*
X142461115Y-108946070D01*
X142495646Y-108885330D01*
X142557533Y-108852900D01*
X142581812Y-108850500D01*
X142949903Y-108850500D01*
X143016942Y-108870185D01*
G37*
%TD.AperFunction*%
%TA.AperFunction,Conductor*%
G36*
X142853168Y-103300776D02*
G01*
X142893098Y-103358112D01*
X142899500Y-103397439D01*
X142899500Y-103913330D01*
X142899499Y-103913348D01*
X142899499Y-104079054D01*
X142899498Y-104079054D01*
X142940423Y-104231785D01*
X142969358Y-104281900D01*
X142969359Y-104281904D01*
X142969360Y-104281904D01*
X143019479Y-104368714D01*
X143019481Y-104368717D01*
X143138349Y-104487585D01*
X143138355Y-104487590D01*
X147888455Y-109237690D01*
X147921940Y-109299013D01*
X147916956Y-109368705D01*
X147875084Y-109424638D01*
X147809620Y-109449055D01*
X147786891Y-109448591D01*
X147750004Y-109444435D01*
X147749996Y-109444435D01*
X147570750Y-109464630D01*
X147570745Y-109464631D01*
X147400476Y-109524211D01*
X147247737Y-109620184D01*
X147120184Y-109747737D01*
X147024211Y-109900476D01*
X146964631Y-110070745D01*
X146964630Y-110070750D01*
X146944435Y-110249996D01*
X146944435Y-110250003D01*
X146964630Y-110429249D01*
X146964631Y-110429254D01*
X147024211Y-110599523D01*
X147117341Y-110747737D01*
X147120184Y-110752262D01*
X147247738Y-110879816D01*
X147312496Y-110920506D01*
X147358787Y-110972841D01*
X147369435Y-111041894D01*
X147341060Y-111105743D01*
X147282670Y-111144115D01*
X147246524Y-111149500D01*
X147050097Y-111149500D01*
X146983058Y-111129815D01*
X146962416Y-111113181D01*
X143737590Y-107888355D01*
X143737588Y-107888352D01*
X143618717Y-107769481D01*
X143618716Y-107769480D01*
X143514960Y-107709577D01*
X143514959Y-107709576D01*
X143481783Y-107690422D01*
X143425663Y-107675385D01*
X143329057Y-107649499D01*
X143170943Y-107649499D01*
X143163347Y-107649499D01*
X143163331Y-107649500D01*
X142871945Y-107649500D01*
X142804906Y-107629815D01*
X142759151Y-107577011D01*
X142748327Y-107515771D01*
X142750500Y-107488163D01*
X142750499Y-105111838D01*
X142747709Y-105076373D01*
X142703618Y-104924610D01*
X142623170Y-104788580D01*
X142623168Y-104788578D01*
X142623165Y-104788574D01*
X142511425Y-104676834D01*
X142511416Y-104676827D01*
X142375390Y-104596382D01*
X142375385Y-104596380D01*
X142223633Y-104552292D01*
X142223620Y-104552290D01*
X142188163Y-104549500D01*
X139811849Y-104549500D01*
X139811824Y-104549501D01*
X139776372Y-104552291D01*
X139624614Y-104596380D01*
X139624609Y-104596382D01*
X139537621Y-104647827D01*
X139469897Y-104665010D01*
X139403634Y-104642850D01*
X139359871Y-104588384D01*
X139350500Y-104541095D01*
X139350500Y-103658904D01*
X139370185Y-103591865D01*
X139422989Y-103546110D01*
X139492147Y-103536166D01*
X139537616Y-103552169D01*
X139624610Y-103603618D01*
X139776373Y-103647709D01*
X139811837Y-103650500D01*
X142188162Y-103650499D01*
X142223627Y-103647709D01*
X142375390Y-103603618D01*
X142511420Y-103523170D01*
X142623170Y-103411420D01*
X142668768Y-103334317D01*
X142719837Y-103286635D01*
X142788579Y-103274131D01*
X142853168Y-103300776D01*
G37*
%TD.AperFunction*%
%TA.AperFunction,Conductor*%
G36*
X150842538Y-107370185D02*
G01*
X150888293Y-107422989D01*
X150899499Y-107474500D01*
X150899499Y-107589046D01*
X150899500Y-107589059D01*
X150899500Y-110988338D01*
X150879815Y-111055377D01*
X150827011Y-111101132D01*
X150757853Y-111111076D01*
X150709528Y-111093332D01*
X150599523Y-111024211D01*
X150429254Y-110964631D01*
X150429249Y-110964630D01*
X150250004Y-110944435D01*
X150249996Y-110944435D01*
X150070750Y-110964630D01*
X150070745Y-110964631D01*
X149900476Y-111024211D01*
X149747736Y-111120185D01*
X149744903Y-111122445D01*
X149742724Y-111123334D01*
X149741842Y-111123889D01*
X149741744Y-111123734D01*
X149680217Y-111148855D01*
X149667588Y-111149500D01*
X148253476Y-111149500D01*
X148186437Y-111129815D01*
X148140682Y-111077011D01*
X148130738Y-111007853D01*
X148159763Y-110944297D01*
X148187504Y-110920506D01*
X148252262Y-110879816D01*
X148379816Y-110752262D01*
X148475789Y-110599522D01*
X148535368Y-110429255D01*
X148535368Y-110429254D01*
X148537668Y-110422682D01*
X148540370Y-110423627D01*
X148568176Y-110373882D01*
X148629827Y-110341005D01*
X148699466Y-110346678D01*
X148742667Y-110374745D01*
X148747738Y-110379816D01*
X148815959Y-110422682D01*
X148882721Y-110464632D01*
X148900478Y-110475789D01*
X149038860Y-110524211D01*
X149070745Y-110535368D01*
X149070750Y-110535369D01*
X149249996Y-110555565D01*
X149250000Y-110555565D01*
X149250004Y-110555565D01*
X149429249Y-110535369D01*
X149429252Y-110535368D01*
X149429255Y-110535368D01*
X149599522Y-110475789D01*
X149752262Y-110379816D01*
X149879816Y-110252262D01*
X149975789Y-110099522D01*
X150035368Y-109929255D01*
X150035369Y-109929249D01*
X150055565Y-109750003D01*
X150055565Y-109749996D01*
X150035369Y-109570750D01*
X150035368Y-109570745D01*
X150014759Y-109511849D01*
X149975789Y-109400478D01*
X149879816Y-109247738D01*
X149752262Y-109120184D01*
X149720935Y-109100500D01*
X149599521Y-109024210D01*
X149429249Y-108964630D01*
X149342330Y-108954837D01*
X149277916Y-108927770D01*
X149268533Y-108919298D01*
X147911416Y-107562181D01*
X147877931Y-107500858D01*
X147882915Y-107431166D01*
X147924787Y-107375233D01*
X147990251Y-107350816D01*
X147999097Y-107350500D01*
X150775499Y-107350500D01*
X150842538Y-107370185D01*
G37*
%TD.AperFunction*%
%TA.AperFunction,Conductor*%
G36*
X150193039Y-68270185D02*
G01*
X150238794Y-68322989D01*
X150250000Y-68374500D01*
X150250000Y-70500000D01*
X152750000Y-70500000D01*
X152750000Y-68374500D01*
X152769685Y-68307461D01*
X152822489Y-68261706D01*
X152874000Y-68250500D01*
X158626000Y-68250500D01*
X158693039Y-68270185D01*
X158738794Y-68322989D01*
X158750000Y-68374500D01*
X158750000Y-70500000D01*
X161250000Y-70500000D01*
X161250000Y-68374500D01*
X161269685Y-68307461D01*
X161322489Y-68261706D01*
X161374000Y-68250500D01*
X166625500Y-68250500D01*
X166692539Y-68270185D01*
X166738294Y-68322989D01*
X166749500Y-68374500D01*
X166749500Y-69875500D01*
X166729815Y-69942539D01*
X166677011Y-69988294D01*
X166625500Y-69999500D01*
X166618872Y-69999500D01*
X166387772Y-70029926D01*
X166358884Y-70033730D01*
X166105581Y-70101602D01*
X166105571Y-70101605D01*
X165863309Y-70201953D01*
X165863299Y-70201958D01*
X165636196Y-70333075D01*
X165428148Y-70492718D01*
X165242718Y-70678148D01*
X165083075Y-70886196D01*
X164951958Y-71113299D01*
X164951953Y-71113309D01*
X164851605Y-71355571D01*
X164851602Y-71355581D01*
X164812337Y-71502123D01*
X164783730Y-71608885D01*
X164749500Y-71868872D01*
X164749500Y-72131127D01*
X164776123Y-72333339D01*
X164783730Y-72391116D01*
X164851602Y-72644418D01*
X164851605Y-72644428D01*
X164951953Y-72886690D01*
X164951958Y-72886700D01*
X165083075Y-73113803D01*
X165242718Y-73321851D01*
X165242726Y-73321860D01*
X165428140Y-73507274D01*
X165428148Y-73507281D01*
X165636196Y-73666924D01*
X165863299Y-73798041D01*
X165863309Y-73798046D01*
X166105571Y-73898394D01*
X166105581Y-73898398D01*
X166358884Y-73966270D01*
X166618880Y-74000500D01*
X166625500Y-74000500D01*
X166692539Y-74020185D01*
X166738294Y-74072989D01*
X166749500Y-74124500D01*
X166749500Y-135376000D01*
X166729815Y-135443039D01*
X166677011Y-135488794D01*
X166625500Y-135500000D01*
X166618905Y-135500000D01*
X166358990Y-135534220D01*
X166358979Y-135534222D01*
X166105744Y-135602075D01*
X165863528Y-135702404D01*
X165863517Y-135702409D01*
X165636471Y-135833496D01*
X165428480Y-135993092D01*
X165428473Y-135993098D01*
X165243098Y-136178473D01*
X165243092Y-136178480D01*
X165083496Y-136386471D01*
X164952409Y-136613517D01*
X164952404Y-136613528D01*
X164852075Y-136855744D01*
X164784221Y-137108983D01*
X164765654Y-137249999D01*
X164765655Y-137250000D01*
X166024015Y-137250000D01*
X166000000Y-137401623D01*
X166000000Y-137598377D01*
X166024015Y-137750000D01*
X164765655Y-137750000D01*
X164784221Y-137891016D01*
X164852075Y-138144255D01*
X164952404Y-138386471D01*
X164952409Y-138386482D01*
X165083496Y-138613528D01*
X165243092Y-138821519D01*
X165243098Y-138821526D01*
X165428473Y-139006901D01*
X165428480Y-139006907D01*
X165636471Y-139166503D01*
X165863517Y-139297590D01*
X165863528Y-139297595D01*
X166105744Y-139397924D01*
X166358979Y-139465777D01*
X166358990Y-139465779D01*
X166618905Y-139499999D01*
X166618920Y-139500000D01*
X166625500Y-139500000D01*
X166692539Y-139519685D01*
X166738294Y-139572489D01*
X166749500Y-139624000D01*
X166749500Y-140625500D01*
X166729815Y-140692539D01*
X166677011Y-140738294D01*
X166625500Y-140749500D01*
X150874000Y-140749500D01*
X150806961Y-140729815D01*
X150761206Y-140677011D01*
X150750000Y-140625500D01*
X150750000Y-132750000D01*
X132250000Y-132750000D01*
X132250000Y-140625500D01*
X132230315Y-140692539D01*
X132177511Y-140738294D01*
X132126000Y-140749500D01*
X129874500Y-140749500D01*
X129807461Y-140729815D01*
X129761706Y-140677011D01*
X129750500Y-140625500D01*
X129750500Y-139624000D01*
X129770185Y-139556961D01*
X129822989Y-139511206D01*
X129874500Y-139500000D01*
X129881080Y-139500000D01*
X129881094Y-139499999D01*
X130141009Y-139465779D01*
X130141020Y-139465777D01*
X130394255Y-139397924D01*
X130636471Y-139297595D01*
X130636482Y-139297590D01*
X130863528Y-139166503D01*
X131071519Y-139006907D01*
X131071526Y-139006901D01*
X131256901Y-138821526D01*
X131256907Y-138821519D01*
X131416503Y-138613528D01*
X131547590Y-138386482D01*
X131547595Y-138386471D01*
X131647924Y-138144255D01*
X131715778Y-137891016D01*
X131734345Y-137750000D01*
X130475985Y-137750000D01*
X130500000Y-137598377D01*
X130500000Y-137401623D01*
X130475985Y-137250000D01*
X131734345Y-137250000D01*
X131734345Y-137249999D01*
X131715778Y-137108983D01*
X131647924Y-136855744D01*
X131547595Y-136613528D01*
X131547590Y-136613517D01*
X131416503Y-136386471D01*
X131256907Y-136178480D01*
X131256901Y-136178473D01*
X131071526Y-135993098D01*
X131071519Y-135993092D01*
X130863528Y-135833496D01*
X130636482Y-135702409D01*
X130636471Y-135702404D01*
X130394255Y-135602075D01*
X130141020Y-135534222D01*
X130141009Y-135534220D01*
X129881094Y-135500000D01*
X129874500Y-135500000D01*
X129807461Y-135480315D01*
X129761706Y-135427511D01*
X129750500Y-135376000D01*
X129750500Y-132249999D01*
X152084464Y-132249999D01*
X152084464Y-132250000D01*
X152104564Y-132466918D01*
X152164184Y-132676462D01*
X152261288Y-132871472D01*
X152342747Y-132979341D01*
X152367439Y-133044702D01*
X152352874Y-133113037D01*
X152318105Y-133153334D01*
X152232452Y-133217455D01*
X152146206Y-133332664D01*
X152146202Y-133332671D01*
X152095908Y-133467517D01*
X152089501Y-133527116D01*
X152089500Y-133527135D01*
X152089500Y-134972870D01*
X152089501Y-134972876D01*
X152095908Y-135032483D01*
X152146202Y-135167328D01*
X152146206Y-135167335D01*
X152232452Y-135282544D01*
X152232455Y-135282547D01*
X152347664Y-135368793D01*
X152347671Y-135368797D01*
X152482517Y-135419091D01*
X152482516Y-135419091D01*
X152489444Y-135419835D01*
X152542127Y-135425500D01*
X153987872Y-135425499D01*
X154047483Y-135419091D01*
X154182331Y-135368796D01*
X154297546Y-135282546D01*
X154359785Y-135199404D01*
X154415718Y-135157535D01*
X154485410Y-135152551D01*
X154542588Y-135182078D01*
X154553568Y-135192088D01*
X154553570Y-135192089D01*
X154553571Y-135192090D01*
X154738786Y-135306770D01*
X154738792Y-135306773D01*
X154761664Y-135315633D01*
X154941931Y-135385470D01*
X155156074Y-135425500D01*
X155156076Y-135425500D01*
X155373924Y-135425500D01*
X155373926Y-135425500D01*
X155588069Y-135385470D01*
X155791210Y-135306772D01*
X155976432Y-135192088D01*
X156137427Y-135045322D01*
X156166047Y-135007422D01*
X156222153Y-134965787D01*
X156291865Y-134961094D01*
X156353048Y-134994836D01*
X156363946Y-135007414D01*
X156392573Y-135045322D01*
X156553568Y-135192088D01*
X156553575Y-135192092D01*
X156553576Y-135192093D01*
X156738786Y-135306770D01*
X156738792Y-135306773D01*
X156761664Y-135315633D01*
X156941931Y-135385470D01*
X157156074Y-135425500D01*
X157156076Y-135425500D01*
X157373924Y-135425500D01*
X157373926Y-135425500D01*
X157588069Y-135385470D01*
X157791210Y-135306772D01*
X157976432Y-135192088D01*
X158137427Y-135045322D01*
X158268712Y-134871472D01*
X158365817Y-134676459D01*
X158425435Y-134466923D01*
X158445536Y-134250000D01*
X158445536Y-134249996D01*
X163944435Y-134249996D01*
X163944435Y-134250003D01*
X163964630Y-134429249D01*
X163964631Y-134429254D01*
X164024211Y-134599523D01*
X164120184Y-134752262D01*
X164247738Y-134879816D01*
X164338080Y-134936582D01*
X164395835Y-134972872D01*
X164400478Y-134975789D01*
X164490886Y-135007424D01*
X164570745Y-135035368D01*
X164570750Y-135035369D01*
X164749996Y-135055565D01*
X164750000Y-135055565D01*
X164750004Y-135055565D01*
X164929249Y-135035369D01*
X164929252Y-135035368D01*
X164929255Y-135035368D01*
X165099522Y-134975789D01*
X165252262Y-134879816D01*
X165379816Y-134752262D01*
X165475789Y-134599522D01*
X165535368Y-134429255D01*
X165555565Y-134250000D01*
X165535368Y-134070745D01*
X165475789Y-133900478D01*
X165379816Y-133747738D01*
X165252262Y-133620184D01*
X165099523Y-133524211D01*
X164929254Y-133464631D01*
X164929249Y-133464630D01*
X164750004Y-133444435D01*
X164749996Y-133444435D01*
X164570750Y-133464630D01*
X164570745Y-133464631D01*
X164400476Y-133524211D01*
X164247737Y-133620184D01*
X164120184Y-133747737D01*
X164024211Y-133900476D01*
X163964631Y-134070745D01*
X163964630Y-134070750D01*
X163944435Y-134249996D01*
X158445536Y-134249996D01*
X158425435Y-134033077D01*
X158365817Y-133823541D01*
X158268712Y-133628528D01*
X158268711Y-133628527D01*
X158268711Y-133628526D01*
X158267412Y-133626806D01*
X158267045Y-133625835D01*
X158265693Y-133623651D01*
X158266120Y-133623386D01*
X158242724Y-133561443D01*
X158257292Y-133493109D01*
X158278686Y-133464406D01*
X161151630Y-130591462D01*
X161212951Y-130557979D01*
X161243036Y-130556443D01*
X161243036Y-130555565D01*
X161250004Y-130555565D01*
X161429249Y-130535369D01*
X161429252Y-130535368D01*
X161429255Y-130535368D01*
X161599522Y-130475789D01*
X161752262Y-130379816D01*
X161879816Y-130252262D01*
X161975789Y-130099522D01*
X162035368Y-129929255D01*
X162055565Y-129750000D01*
X162039225Y-129604981D01*
X162035369Y-129570750D01*
X162035368Y-129570745D01*
X162030998Y-129558255D01*
X161975789Y-129400478D01*
X161879816Y-129247738D01*
X161752262Y-129120184D01*
X161649917Y-129055876D01*
X161599523Y-129024211D01*
X161429254Y-128964631D01*
X161429249Y-128964630D01*
X161250004Y-128944435D01*
X161249996Y-128944435D01*
X161070750Y-128964630D01*
X161070745Y-128964631D01*
X160900476Y-129024211D01*
X160747737Y-129120184D01*
X160620184Y-129247737D01*
X160524209Y-129400480D01*
X160469001Y-129558255D01*
X160439641Y-129604981D01*
X158432527Y-131612094D01*
X158371204Y-131645579D01*
X158301512Y-131640595D01*
X158245891Y-131599139D01*
X158137053Y-131455013D01*
X157976131Y-131308314D01*
X157790987Y-131193677D01*
X157790985Y-131193676D01*
X157587931Y-131115013D01*
X157587921Y-131115010D01*
X157515001Y-131101378D01*
X157515000Y-131101379D01*
X157515000Y-131934314D01*
X157510606Y-131929920D01*
X157419394Y-131877259D01*
X157317661Y-131850000D01*
X157212339Y-131850000D01*
X157110606Y-131877259D01*
X157019394Y-131929920D01*
X157015000Y-131934314D01*
X157015000Y-131101379D01*
X157014998Y-131101378D01*
X156942078Y-131115010D01*
X156942068Y-131115013D01*
X156739014Y-131193676D01*
X156739012Y-131193677D01*
X156553869Y-131308314D01*
X156553868Y-131308314D01*
X156392945Y-131455014D01*
X156364267Y-131492990D01*
X156308157Y-131534626D01*
X156238445Y-131539317D01*
X156177264Y-131505575D01*
X156166359Y-131492990D01*
X156157547Y-131481321D01*
X156137427Y-131454678D01*
X155976432Y-131307912D01*
X155976428Y-131307909D01*
X155976423Y-131307906D01*
X155791213Y-131193229D01*
X155791207Y-131193226D01*
X155706113Y-131160260D01*
X155588069Y-131114530D01*
X155373926Y-131074500D01*
X155156074Y-131074500D01*
X155126057Y-131080110D01*
X155037284Y-131096705D01*
X154967769Y-131089673D01*
X154913091Y-131046176D01*
X154890609Y-130980022D01*
X154890500Y-130974816D01*
X154890500Y-129122915D01*
X154910185Y-129055876D01*
X154962989Y-129010121D01*
X154973546Y-129005873D01*
X155059522Y-128975789D01*
X155212262Y-128879816D01*
X155339816Y-128752262D01*
X155435789Y-128599522D01*
X155495368Y-128429255D01*
X155495369Y-128429249D01*
X155515565Y-128250003D01*
X155515565Y-128249996D01*
X155495369Y-128070750D01*
X155495368Y-128070745D01*
X155435788Y-127900476D01*
X155339815Y-127747737D01*
X155212262Y-127620184D01*
X155059523Y-127524211D01*
X154889254Y-127464631D01*
X154889249Y-127464630D01*
X154710004Y-127444435D01*
X154709996Y-127444435D01*
X154530750Y-127464630D01*
X154530745Y-127464631D01*
X154360476Y-127524211D01*
X154207737Y-127620184D01*
X154080184Y-127747737D01*
X153984210Y-127900478D01*
X153924630Y-128070750D01*
X153914837Y-128157666D01*
X153887770Y-128222080D01*
X153879299Y-128231462D01*
X153809481Y-128301281D01*
X153759361Y-128388094D01*
X153759359Y-128388096D01*
X153730425Y-128438209D01*
X153730424Y-128438210D01*
X153730423Y-128438215D01*
X153689499Y-128590943D01*
X153689499Y-128590945D01*
X153689499Y-128759046D01*
X153689500Y-128759059D01*
X153689500Y-130984163D01*
X153669815Y-131051202D01*
X153617011Y-131096957D01*
X153547853Y-131106901D01*
X153542715Y-131106052D01*
X153373926Y-131074500D01*
X153156074Y-131074500D01*
X152941931Y-131114530D01*
X152893130Y-131133435D01*
X152738792Y-131193226D01*
X152738786Y-131193229D01*
X152553576Y-131307906D01*
X152553566Y-131307913D01*
X152392574Y-131454676D01*
X152261288Y-131628527D01*
X152164184Y-131823537D01*
X152104564Y-132033081D01*
X152084464Y-132249999D01*
X129750500Y-132249999D01*
X129750500Y-119749996D01*
X138144435Y-119749996D01*
X138144435Y-119750003D01*
X138164630Y-119929249D01*
X138164631Y-119929254D01*
X138224211Y-120099523D01*
X138320184Y-120252262D01*
X138447738Y-120379816D01*
X138600478Y-120475789D01*
X138650499Y-120493292D01*
X138770745Y-120535368D01*
X138770750Y-120535369D01*
X138949996Y-120555565D01*
X138950000Y-120555565D01*
X138950002Y-120555565D01*
X139006478Y-120549201D01*
X139111617Y-120537355D01*
X139180438Y-120549409D01*
X139231817Y-120596758D01*
X139249500Y-120660571D01*
X139249500Y-120688149D01*
X139249501Y-120688176D01*
X139252291Y-120723627D01*
X139296380Y-120875385D01*
X139296382Y-120875390D01*
X139376827Y-121011416D01*
X139376834Y-121011425D01*
X139488574Y-121123165D01*
X139488578Y-121123168D01*
X139488580Y-121123170D01*
X139624610Y-121203618D01*
X139776373Y-121247709D01*
X139811837Y-121250500D01*
X142188162Y-121250499D01*
X142223627Y-121247709D01*
X142375390Y-121203618D01*
X142511420Y-121123170D01*
X142623170Y-121011420D01*
X142703618Y-120875390D01*
X142747709Y-120723627D01*
X142750500Y-120688163D01*
X142750499Y-118650096D01*
X142770184Y-118583058D01*
X142786818Y-118562416D01*
X143212416Y-118136819D01*
X143273739Y-118103334D01*
X143300097Y-118100500D01*
X156938234Y-118100500D01*
X157005273Y-118120185D01*
X157051028Y-118172989D01*
X157060972Y-118242147D01*
X157057311Y-118259092D01*
X157052292Y-118276366D01*
X157052290Y-118276379D01*
X157049500Y-118311829D01*
X157049500Y-120688150D01*
X157049501Y-120688175D01*
X157052291Y-120723627D01*
X157096380Y-120875385D01*
X157096382Y-120875390D01*
X157176827Y-121011416D01*
X157176834Y-121011425D01*
X157288574Y-121123165D01*
X157288578Y-121123168D01*
X157288580Y-121123170D01*
X157424610Y-121203618D01*
X157576373Y-121247709D01*
X157611837Y-121250500D01*
X159988162Y-121250499D01*
X160023627Y-121247709D01*
X160175390Y-121203618D01*
X160311420Y-121123170D01*
X160423170Y-121011420D01*
X160503618Y-120875390D01*
X160547709Y-120723627D01*
X160550500Y-120688163D01*
X160550499Y-118311838D01*
X160547709Y-118276373D01*
X160544922Y-118266780D01*
X160542689Y-118259092D01*
X160542890Y-118189223D01*
X160580833Y-118130554D01*
X160644472Y-118101712D01*
X160661766Y-118100500D01*
X160950028Y-118100500D01*
X160990982Y-118107457D01*
X161039998Y-118124609D01*
X161070745Y-118135368D01*
X161070750Y-118135369D01*
X161249996Y-118155565D01*
X161250000Y-118155565D01*
X161250004Y-118155565D01*
X161429249Y-118135369D01*
X161429252Y-118135368D01*
X161429255Y-118135368D01*
X161599522Y-118075789D01*
X161752262Y-117979816D01*
X161879816Y-117852262D01*
X161975789Y-117699522D01*
X162035368Y-117529255D01*
X162055565Y-117350000D01*
X162035368Y-117170745D01*
X161975789Y-117000478D01*
X161879816Y-116847738D01*
X161752262Y-116720184D01*
X161711063Y-116694297D01*
X161599523Y-116624211D01*
X161429254Y-116564631D01*
X161429249Y-116564630D01*
X161250004Y-116544435D01*
X161249996Y-116544435D01*
X161070750Y-116564630D01*
X161070745Y-116564631D01*
X160900476Y-116624211D01*
X160747737Y-116720184D01*
X160620183Y-116847738D01*
X160616135Y-116852815D01*
X160558946Y-116892954D01*
X160519190Y-116899500D01*
X160434453Y-116899500D01*
X160367414Y-116879815D01*
X160321659Y-116827011D01*
X160311715Y-116757853D01*
X160340740Y-116694297D01*
X160346772Y-116687819D01*
X160423165Y-116611425D01*
X160423170Y-116611420D01*
X160503618Y-116475390D01*
X160547709Y-116323627D01*
X160550500Y-116288163D01*
X160550499Y-113911838D01*
X160547709Y-113876373D01*
X160503618Y-113724610D01*
X160430220Y-113600501D01*
X160423172Y-113588583D01*
X160423165Y-113588574D01*
X160311425Y-113476834D01*
X160311416Y-113476827D01*
X160175390Y-113396382D01*
X160175385Y-113396380D01*
X160023633Y-113352292D01*
X160023620Y-113352290D01*
X159988163Y-113349500D01*
X157611849Y-113349500D01*
X157611824Y-113349501D01*
X157576372Y-113352291D01*
X157424614Y-113396380D01*
X157424609Y-113396382D01*
X157288583Y-113476827D01*
X157288574Y-113476834D01*
X157176834Y-113588574D01*
X157176827Y-113588583D01*
X157096382Y-113724609D01*
X157096380Y-113724614D01*
X157052292Y-113876366D01*
X157052290Y-113876379D01*
X157049500Y-113911829D01*
X157049500Y-116288150D01*
X157049501Y-116288175D01*
X157052291Y-116323627D01*
X157096380Y-116475385D01*
X157096382Y-116475390D01*
X157176827Y-116611416D01*
X157176834Y-116611425D01*
X157253228Y-116687819D01*
X157286713Y-116749142D01*
X157281729Y-116818834D01*
X157239857Y-116874767D01*
X157174393Y-116899184D01*
X157165547Y-116899500D01*
X143079057Y-116899500D01*
X142920943Y-116899500D01*
X142768215Y-116940423D01*
X142768214Y-116940423D01*
X142768212Y-116940424D01*
X142768209Y-116940425D01*
X142718096Y-116969359D01*
X142718095Y-116969360D01*
X142674689Y-116994420D01*
X142631285Y-117019479D01*
X142631282Y-117019481D01*
X142519478Y-117131286D01*
X141937582Y-117713181D01*
X141876259Y-117746666D01*
X141849901Y-117749500D01*
X139811849Y-117749500D01*
X139811824Y-117749501D01*
X139776372Y-117752291D01*
X139624614Y-117796380D01*
X139624609Y-117796382D01*
X139488583Y-117876827D01*
X139488574Y-117876834D01*
X139376834Y-117988574D01*
X139376827Y-117988583D01*
X139296382Y-118124609D01*
X139296380Y-118124614D01*
X139252292Y-118276366D01*
X139252290Y-118276379D01*
X139249500Y-118311829D01*
X139249500Y-118839424D01*
X139229815Y-118906463D01*
X139177011Y-118952218D01*
X139111617Y-118962644D01*
X138950004Y-118944435D01*
X138949996Y-118944435D01*
X138770750Y-118964630D01*
X138770745Y-118964631D01*
X138600476Y-119024211D01*
X138447737Y-119120184D01*
X138320184Y-119247737D01*
X138224211Y-119400476D01*
X138164631Y-119570745D01*
X138164630Y-119570750D01*
X138144435Y-119749996D01*
X129750500Y-119749996D01*
X129750500Y-111249996D01*
X131944435Y-111249996D01*
X131944435Y-111250003D01*
X131964630Y-111429249D01*
X131964631Y-111429254D01*
X132024211Y-111599523D01*
X132095147Y-111712416D01*
X132120184Y-111752262D01*
X132247738Y-111879816D01*
X132400478Y-111975789D01*
X132570745Y-112035368D01*
X132657669Y-112045161D01*
X132722080Y-112072226D01*
X132731464Y-112080699D01*
X134131284Y-113480520D01*
X134131286Y-113480521D01*
X134131290Y-113480524D01*
X134268209Y-113559573D01*
X134268216Y-113559577D01*
X134420943Y-113600501D01*
X134420945Y-113600501D01*
X134586654Y-113600501D01*
X134586670Y-113600500D01*
X139167287Y-113600500D01*
X139234326Y-113620185D01*
X139280081Y-113672989D01*
X139290025Y-113742147D01*
X139286363Y-113759095D01*
X139252292Y-113876366D01*
X139252290Y-113876379D01*
X139249500Y-113911829D01*
X139249500Y-114275500D01*
X139229815Y-114342539D01*
X139177011Y-114388294D01*
X139125500Y-114399500D01*
X137582412Y-114399500D01*
X137515373Y-114379815D01*
X137505097Y-114372445D01*
X137502263Y-114370185D01*
X137502262Y-114370184D01*
X137445496Y-114334515D01*
X137349523Y-114274211D01*
X137179254Y-114214631D01*
X137179249Y-114214630D01*
X137000004Y-114194435D01*
X136999996Y-114194435D01*
X136820750Y-114214630D01*
X136820745Y-114214631D01*
X136650476Y-114274211D01*
X136497737Y-114370184D01*
X136370184Y-114497737D01*
X136274211Y-114650476D01*
X136214631Y-114820745D01*
X136214630Y-114820750D01*
X136194435Y-114999996D01*
X136194435Y-115000003D01*
X136214630Y-115179249D01*
X136214631Y-115179254D01*
X136274211Y-115349523D01*
X136370184Y-115502262D01*
X136497738Y-115629816D01*
X136588080Y-115686582D01*
X136648426Y-115724500D01*
X136650478Y-115725789D01*
X136820745Y-115785368D01*
X136820750Y-115785369D01*
X136999996Y-115805565D01*
X137000000Y-115805565D01*
X137000004Y-115805565D01*
X137179249Y-115785369D01*
X137179252Y-115785368D01*
X137179255Y-115785368D01*
X137349522Y-115725789D01*
X137502262Y-115629816D01*
X137502267Y-115629810D01*
X137505097Y-115627555D01*
X137507275Y-115626665D01*
X137508158Y-115626111D01*
X137508255Y-115626265D01*
X137569783Y-115601145D01*
X137582412Y-115600500D01*
X139125501Y-115600500D01*
X139192540Y-115620185D01*
X139238295Y-115672989D01*
X139249501Y-115724500D01*
X139249501Y-116288175D01*
X139252291Y-116323627D01*
X139296380Y-116475385D01*
X139296382Y-116475390D01*
X139376827Y-116611416D01*
X139376834Y-116611425D01*
X139488574Y-116723165D01*
X139488578Y-116723168D01*
X139488580Y-116723170D01*
X139624610Y-116803618D01*
X139776373Y-116847709D01*
X139811837Y-116850500D01*
X142188162Y-116850499D01*
X142223627Y-116847709D01*
X142375390Y-116803618D01*
X142511420Y-116723170D01*
X142623170Y-116611420D01*
X142703618Y-116475390D01*
X142747709Y-116323627D01*
X142750500Y-116288163D01*
X142750499Y-113911838D01*
X142747709Y-113876373D01*
X142713637Y-113759095D01*
X142713836Y-113689225D01*
X142751778Y-113630555D01*
X142815417Y-113601712D01*
X142832713Y-113600500D01*
X151413331Y-113600500D01*
X151413347Y-113600501D01*
X151420943Y-113600501D01*
X151579054Y-113600501D01*
X151579057Y-113600501D01*
X151731785Y-113559577D01*
X151781904Y-113530639D01*
X151868716Y-113480520D01*
X151980520Y-113368716D01*
X151980520Y-113368714D01*
X151990728Y-113358507D01*
X151990730Y-113358504D01*
X152768535Y-112580698D01*
X152829856Y-112547215D01*
X152842311Y-112545163D01*
X152929255Y-112535368D01*
X153099522Y-112475789D01*
X153252262Y-112379816D01*
X153379816Y-112252262D01*
X153475789Y-112099522D01*
X153535368Y-111929255D01*
X153535369Y-111929249D01*
X153555565Y-111750003D01*
X153555565Y-111749996D01*
X153535369Y-111570750D01*
X153535368Y-111570745D01*
X153475789Y-111400478D01*
X153379816Y-111247738D01*
X153252262Y-111120184D01*
X153221941Y-111101132D01*
X153099523Y-111024211D01*
X152929254Y-110964631D01*
X152929249Y-110964630D01*
X152750004Y-110944435D01*
X152749996Y-110944435D01*
X152570750Y-110964630D01*
X152570745Y-110964631D01*
X152400476Y-111024211D01*
X152290472Y-111093332D01*
X152223235Y-111112332D01*
X152156400Y-111091964D01*
X152111186Y-111038696D01*
X152100500Y-110988338D01*
X152100500Y-109249097D01*
X152120185Y-109182058D01*
X152172989Y-109136303D01*
X152242147Y-109126359D01*
X152305703Y-109155384D01*
X152312181Y-109161416D01*
X154863181Y-111712416D01*
X154896666Y-111773739D01*
X154899500Y-111800097D01*
X154899500Y-114417587D01*
X154879815Y-114484626D01*
X154872450Y-114494896D01*
X154870186Y-114497734D01*
X154774211Y-114650476D01*
X154714631Y-114820745D01*
X154714630Y-114820750D01*
X154694435Y-114999996D01*
X154694435Y-115000003D01*
X154714630Y-115179249D01*
X154714631Y-115179254D01*
X154774211Y-115349523D01*
X154870184Y-115502262D01*
X154997738Y-115629816D01*
X155088080Y-115686582D01*
X155148426Y-115724500D01*
X155150478Y-115725789D01*
X155320745Y-115785368D01*
X155320750Y-115785369D01*
X155499996Y-115805565D01*
X155500000Y-115805565D01*
X155500004Y-115805565D01*
X155679249Y-115785369D01*
X155679252Y-115785368D01*
X155679255Y-115785368D01*
X155849522Y-115725789D01*
X156002262Y-115629816D01*
X156129816Y-115502262D01*
X156225789Y-115349522D01*
X156285368Y-115179255D01*
X156305565Y-115000000D01*
X156285368Y-114820745D01*
X156225789Y-114650478D01*
X156129816Y-114497738D01*
X156129814Y-114497736D01*
X156129813Y-114497734D01*
X156127550Y-114494896D01*
X156126659Y-114492715D01*
X156126111Y-114491842D01*
X156126264Y-114491745D01*
X156101144Y-114430209D01*
X156100500Y-114417587D01*
X156100500Y-111420945D01*
X156100500Y-111420943D01*
X156068228Y-111300501D01*
X156059577Y-111268215D01*
X156049060Y-111250000D01*
X156026380Y-111210717D01*
X156026380Y-111210716D01*
X155980522Y-111131287D01*
X155980521Y-111131286D01*
X155980520Y-111131284D01*
X155868716Y-111019480D01*
X155868715Y-111019479D01*
X155864385Y-111015149D01*
X155864374Y-111015139D01*
X153023875Y-108174640D01*
X152990390Y-108113317D01*
X152994514Y-108046006D01*
X153035368Y-107929255D01*
X153035368Y-107929253D01*
X153035369Y-107929251D01*
X153043102Y-107860617D01*
X153070168Y-107796203D01*
X153127763Y-107756648D01*
X153166322Y-107750500D01*
X153349903Y-107750500D01*
X153416942Y-107770185D01*
X153437584Y-107786819D01*
X156715139Y-111064374D01*
X156715149Y-111064385D01*
X156719479Y-111068715D01*
X156719480Y-111068716D01*
X156831284Y-111180520D01*
X156918095Y-111230639D01*
X156918097Y-111230641D01*
X156968210Y-111259575D01*
X156972950Y-111261538D01*
X157027355Y-111305378D01*
X157049421Y-111371672D01*
X157049500Y-111376100D01*
X157049500Y-111888150D01*
X157049501Y-111888175D01*
X157052291Y-111923627D01*
X157096380Y-112075385D01*
X157096382Y-112075390D01*
X157176827Y-112211416D01*
X157176834Y-112211425D01*
X157288574Y-112323165D01*
X157288578Y-112323168D01*
X157288580Y-112323170D01*
X157424610Y-112403618D01*
X157576373Y-112447709D01*
X157611837Y-112450500D01*
X159988162Y-112450499D01*
X160023627Y-112447709D01*
X160175390Y-112403618D01*
X160311420Y-112323170D01*
X160423170Y-112211420D01*
X160503618Y-112075390D01*
X160547709Y-111923627D01*
X160550500Y-111888163D01*
X160550499Y-109511838D01*
X160547709Y-109476373D01*
X160503618Y-109324610D01*
X160481741Y-109287619D01*
X160464560Y-109219896D01*
X160486720Y-109153634D01*
X160541187Y-109109871D01*
X160588475Y-109100500D01*
X160699903Y-109100500D01*
X160766942Y-109120185D01*
X160787583Y-109136818D01*
X161398501Y-109747737D01*
X161919298Y-110268534D01*
X161952783Y-110329857D01*
X161954837Y-110342331D01*
X161964630Y-110429249D01*
X162024210Y-110599521D01*
X162117341Y-110747737D01*
X162120184Y-110752262D01*
X162247738Y-110879816D01*
X162312496Y-110920506D01*
X162382721Y-110964632D01*
X162400478Y-110975789D01*
X162525334Y-111019478D01*
X162570745Y-111035368D01*
X162570750Y-111035369D01*
X162749996Y-111055565D01*
X162750000Y-111055565D01*
X162750004Y-111055565D01*
X162929249Y-111035369D01*
X162929252Y-111035368D01*
X162929255Y-111035368D01*
X163099522Y-110975789D01*
X163252262Y-110879816D01*
X163379816Y-110752262D01*
X163475789Y-110599522D01*
X163535368Y-110429255D01*
X163536109Y-110422682D01*
X163555565Y-110250003D01*
X163555565Y-110249996D01*
X163535369Y-110070750D01*
X163535368Y-110070745D01*
X163535367Y-110070743D01*
X163475789Y-109900478D01*
X163444132Y-109850097D01*
X163412161Y-109799215D01*
X163379816Y-109747738D01*
X163252262Y-109620184D01*
X163099521Y-109524210D01*
X162929249Y-109464630D01*
X162842331Y-109454837D01*
X162777917Y-109427770D01*
X162768534Y-109419298D01*
X161487590Y-108138355D01*
X161487588Y-108138352D01*
X161368717Y-108019481D01*
X161368716Y-108019480D01*
X161281904Y-107969360D01*
X161281904Y-107969359D01*
X161281900Y-107969358D01*
X161231785Y-107940423D01*
X161079057Y-107899499D01*
X160920943Y-107899499D01*
X160913347Y-107899499D01*
X160913331Y-107899500D01*
X160588475Y-107899500D01*
X160521436Y-107879815D01*
X160475681Y-107827011D01*
X160465737Y-107757853D01*
X160481742Y-107712380D01*
X160494727Y-107690423D01*
X160503618Y-107675390D01*
X160547709Y-107523627D01*
X160550500Y-107488163D01*
X160550499Y-105111838D01*
X160547709Y-105076373D01*
X160503618Y-104924610D01*
X160423170Y-104788580D01*
X160423168Y-104788578D01*
X160423165Y-104788574D01*
X160311425Y-104676834D01*
X160311416Y-104676827D01*
X160175390Y-104596382D01*
X160175385Y-104596380D01*
X160023633Y-104552292D01*
X160023620Y-104552290D01*
X159988163Y-104549500D01*
X157611849Y-104549500D01*
X157611824Y-104549501D01*
X157576372Y-104552291D01*
X157424614Y-104596380D01*
X157424609Y-104596382D01*
X157288583Y-104676827D01*
X157288574Y-104676834D01*
X157176834Y-104788574D01*
X157176827Y-104788583D01*
X157096382Y-104924609D01*
X157096380Y-104924614D01*
X157052292Y-105076366D01*
X157052290Y-105076379D01*
X157049500Y-105111829D01*
X157049500Y-107488150D01*
X157049501Y-107488175D01*
X157052291Y-107523627D01*
X157096380Y-107675385D01*
X157096381Y-107675388D01*
X157118258Y-107712380D01*
X157135440Y-107780104D01*
X157113280Y-107846366D01*
X157058813Y-107890129D01*
X157011525Y-107899500D01*
X155865784Y-107899500D01*
X155798745Y-107879815D01*
X155778103Y-107863181D01*
X154303276Y-106388355D01*
X154303274Y-106388352D01*
X154184403Y-106269481D01*
X154184402Y-106269480D01*
X154097590Y-106219360D01*
X154097590Y-106219359D01*
X154097586Y-106219358D01*
X154047471Y-106190423D01*
X153894743Y-106149499D01*
X153736629Y-106149499D01*
X153729033Y-106149499D01*
X153729017Y-106149500D01*
X147550097Y-106149500D01*
X147483058Y-106129815D01*
X147462416Y-106113181D01*
X144988111Y-103638876D01*
X144954626Y-103577553D01*
X144958752Y-103510236D01*
X144961103Y-103503520D01*
X144971481Y-103411416D01*
X144981300Y-103324268D01*
X144981300Y-103324261D01*
X144961104Y-103145015D01*
X144961103Y-103145010D01*
X144953618Y-103123620D01*
X144901524Y-102974743D01*
X144805551Y-102822003D01*
X144677997Y-102694449D01*
X144525258Y-102598476D01*
X144354989Y-102538896D01*
X144354985Y-102538895D01*
X144210616Y-102522629D01*
X144146202Y-102495562D01*
X144106647Y-102437967D01*
X144100500Y-102399409D01*
X144100500Y-101089059D01*
X144100501Y-101089046D01*
X144100501Y-100920945D01*
X144100501Y-100920943D01*
X144059577Y-100768215D01*
X144027027Y-100711837D01*
X143980520Y-100631284D01*
X143868716Y-100519480D01*
X143868715Y-100519479D01*
X143864385Y-100515149D01*
X143864374Y-100515139D01*
X142737590Y-99388355D01*
X142737588Y-99388352D01*
X142618717Y-99269481D01*
X142618709Y-99269475D01*
X142597885Y-99257452D01*
X142549670Y-99206885D01*
X142536448Y-99138278D01*
X142562416Y-99073413D01*
X142572206Y-99062384D01*
X142623165Y-99011425D01*
X142623170Y-99011420D01*
X142703618Y-98875390D01*
X142747709Y-98723627D01*
X142750500Y-98688163D01*
X142750500Y-98499996D01*
X148194435Y-98499996D01*
X148194435Y-98500003D01*
X148214630Y-98679249D01*
X148214631Y-98679254D01*
X148274211Y-98849523D01*
X148302902Y-98895184D01*
X148370184Y-99002262D01*
X148497738Y-99129816D01*
X148650478Y-99225789D01*
X148820745Y-99285368D01*
X148907669Y-99295161D01*
X148972080Y-99322226D01*
X148981465Y-99330700D01*
X154919298Y-105268534D01*
X154952783Y-105329857D01*
X154954837Y-105342331D01*
X154964630Y-105429249D01*
X155024210Y-105599521D01*
X155118760Y-105749996D01*
X155120184Y-105752262D01*
X155247738Y-105879816D01*
X155400478Y-105975789D01*
X155570745Y-106035368D01*
X155570750Y-106035369D01*
X155749996Y-106055565D01*
X155750000Y-106055565D01*
X155750004Y-106055565D01*
X155929249Y-106035369D01*
X155929252Y-106035368D01*
X155929255Y-106035368D01*
X156099522Y-105975789D01*
X156252262Y-105879816D01*
X156379816Y-105752262D01*
X156475789Y-105599522D01*
X156535368Y-105429255D01*
X156535369Y-105429249D01*
X156555565Y-105250003D01*
X156555565Y-105249996D01*
X156535369Y-105070750D01*
X156535368Y-105070745D01*
X156491170Y-104944435D01*
X156475789Y-104900478D01*
X156379816Y-104747738D01*
X156252262Y-104620184D01*
X156099521Y-104524210D01*
X155929249Y-104464630D01*
X155842331Y-104454837D01*
X155777917Y-104427770D01*
X155768534Y-104419298D01*
X155399232Y-104049996D01*
X163944435Y-104049996D01*
X163944435Y-104050003D01*
X163964630Y-104229249D01*
X163964631Y-104229254D01*
X164024211Y-104399523D01*
X164079548Y-104487590D01*
X164120184Y-104552262D01*
X164247738Y-104679816D01*
X164338080Y-104736582D01*
X164355833Y-104747737D01*
X164400478Y-104775789D01*
X164564266Y-104833101D01*
X164570745Y-104835368D01*
X164570750Y-104835369D01*
X164749996Y-104855565D01*
X164750000Y-104855565D01*
X164750004Y-104855565D01*
X164929249Y-104835369D01*
X164929252Y-104835368D01*
X164929255Y-104835368D01*
X165099522Y-104775789D01*
X165252262Y-104679816D01*
X165379816Y-104552262D01*
X165475789Y-104399522D01*
X165535368Y-104229255D01*
X165552291Y-104079057D01*
X165555565Y-104050003D01*
X165555565Y-104049996D01*
X165535369Y-103870750D01*
X165535368Y-103870745D01*
X165475788Y-103700476D01*
X165379815Y-103547737D01*
X165252262Y-103420184D01*
X165099523Y-103324211D01*
X164929254Y-103264631D01*
X164929249Y-103264630D01*
X164750004Y-103244435D01*
X164749996Y-103244435D01*
X164570750Y-103264630D01*
X164570745Y-103264631D01*
X164400476Y-103324211D01*
X164247737Y-103420184D01*
X164120184Y-103547737D01*
X164024211Y-103700476D01*
X163964631Y-103870745D01*
X163964630Y-103870750D01*
X163944435Y-104049996D01*
X155399232Y-104049996D01*
X149830700Y-98481465D01*
X149797215Y-98420142D01*
X149795163Y-98407686D01*
X149785368Y-98320745D01*
X149725789Y-98150478D01*
X149629816Y-97997738D01*
X149502262Y-97870184D01*
X149349523Y-97774211D01*
X149179254Y-97714631D01*
X149179249Y-97714630D01*
X149000004Y-97694435D01*
X148999996Y-97694435D01*
X148820750Y-97714630D01*
X148820745Y-97714631D01*
X148650476Y-97774211D01*
X148497737Y-97870184D01*
X148370184Y-97997737D01*
X148274211Y-98150476D01*
X148214631Y-98320745D01*
X148214630Y-98320750D01*
X148194435Y-98499996D01*
X142750500Y-98499996D01*
X142750499Y-96311838D01*
X142747709Y-96276373D01*
X142703618Y-96124610D01*
X142623170Y-95988580D01*
X142623168Y-95988578D01*
X142623165Y-95988574D01*
X142614731Y-95980140D01*
X142581246Y-95918817D01*
X142586230Y-95849125D01*
X142628102Y-95793192D01*
X142693566Y-95768775D01*
X142702412Y-95768459D01*
X143083678Y-95768459D01*
X143150717Y-95788144D01*
X143196472Y-95840948D01*
X143206898Y-95878576D01*
X143214630Y-95947208D01*
X143274210Y-96117480D01*
X143278690Y-96124610D01*
X143370184Y-96270221D01*
X143497738Y-96397775D01*
X143650478Y-96493748D01*
X143820745Y-96553327D01*
X143820750Y-96553328D01*
X143999996Y-96573524D01*
X144000000Y-96573524D01*
X144000004Y-96573524D01*
X144179249Y-96553328D01*
X144179252Y-96553327D01*
X144179255Y-96553327D01*
X144349522Y-96493748D01*
X144502262Y-96397775D01*
X144502267Y-96397769D01*
X144505097Y-96395514D01*
X144507275Y-96394624D01*
X144508158Y-96394070D01*
X144508255Y-96394224D01*
X144569783Y-96369104D01*
X144582412Y-96368459D01*
X150316391Y-96368459D01*
X150383430Y-96388144D01*
X150404071Y-96404777D01*
X156379813Y-102380520D01*
X156379815Y-102380521D01*
X156379819Y-102380524D01*
X156479315Y-102437967D01*
X156516745Y-102459577D01*
X156669472Y-102500501D01*
X156669474Y-102500501D01*
X156835183Y-102500501D01*
X156835199Y-102500500D01*
X156925501Y-102500500D01*
X156992540Y-102520185D01*
X157038295Y-102572989D01*
X157049501Y-102624500D01*
X157049501Y-103088175D01*
X157052291Y-103123627D01*
X157096380Y-103275385D01*
X157096382Y-103275390D01*
X157176827Y-103411416D01*
X157176834Y-103411425D01*
X157288574Y-103523165D01*
X157288578Y-103523168D01*
X157288580Y-103523170D01*
X157424610Y-103603618D01*
X157576373Y-103647709D01*
X157611837Y-103650500D01*
X159988162Y-103650499D01*
X160023627Y-103647709D01*
X160175390Y-103603618D01*
X160311420Y-103523170D01*
X160423170Y-103411420D01*
X160503618Y-103275390D01*
X160547709Y-103123627D01*
X160550500Y-103088163D01*
X160550499Y-100711838D01*
X160547709Y-100676373D01*
X160503618Y-100524610D01*
X160423170Y-100388580D01*
X160423168Y-100388578D01*
X160423165Y-100388574D01*
X160311425Y-100276834D01*
X160311416Y-100276827D01*
X160175390Y-100196382D01*
X160175385Y-100196380D01*
X160023633Y-100152292D01*
X160023620Y-100152290D01*
X159988163Y-100149500D01*
X157611849Y-100149500D01*
X157611824Y-100149501D01*
X157576372Y-100152291D01*
X157424614Y-100196380D01*
X157424609Y-100196382D01*
X157288583Y-100276827D01*
X157288574Y-100276834D01*
X157176834Y-100388574D01*
X157176827Y-100388583D01*
X157096382Y-100524609D01*
X157096380Y-100524614D01*
X157052292Y-100676366D01*
X157052290Y-100676379D01*
X157049500Y-100711829D01*
X157049500Y-101052373D01*
X157029815Y-101119412D01*
X156977011Y-101165167D01*
X156907853Y-101175111D01*
X156844297Y-101146086D01*
X156837819Y-101140054D01*
X156618708Y-100920943D01*
X156219014Y-100521249D01*
X156185530Y-100459928D01*
X156190514Y-100390237D01*
X156232385Y-100334303D01*
X156297850Y-100309886D01*
X156320579Y-100310350D01*
X156499996Y-100330565D01*
X156500000Y-100330565D01*
X156500004Y-100330565D01*
X156679249Y-100310369D01*
X156679252Y-100310368D01*
X156679255Y-100310368D01*
X156849522Y-100250789D01*
X157002262Y-100154816D01*
X157129816Y-100027262D01*
X157225789Y-99874522D01*
X157285368Y-99704255D01*
X157305565Y-99525000D01*
X157295881Y-99439054D01*
X157284929Y-99341845D01*
X157296983Y-99273024D01*
X157344333Y-99221644D01*
X157411943Y-99204020D01*
X157442741Y-99208885D01*
X157576373Y-99247709D01*
X157611837Y-99250500D01*
X159988162Y-99250499D01*
X160023627Y-99247709D01*
X160175390Y-99203618D01*
X160311420Y-99123170D01*
X160423170Y-99011420D01*
X160503618Y-98875390D01*
X160547709Y-98723627D01*
X160550500Y-98688163D01*
X160550499Y-96311838D01*
X160547709Y-96276373D01*
X160503618Y-96124610D01*
X160423170Y-95988580D01*
X160423168Y-95988578D01*
X160423165Y-95988574D01*
X160311425Y-95876834D01*
X160311416Y-95876827D01*
X160175390Y-95796382D01*
X160175385Y-95796380D01*
X160023633Y-95752292D01*
X160023620Y-95752290D01*
X159988163Y-95749500D01*
X157611849Y-95749500D01*
X157611824Y-95749501D01*
X157576372Y-95752291D01*
X157424614Y-95796380D01*
X157424609Y-95796382D01*
X157288583Y-95876827D01*
X157288574Y-95876834D01*
X157176834Y-95988574D01*
X157176827Y-95988583D01*
X157096382Y-96124609D01*
X157096380Y-96124614D01*
X157052292Y-96276366D01*
X157052290Y-96276379D01*
X157049500Y-96311829D01*
X157049500Y-96775500D01*
X157029815Y-96842539D01*
X156977011Y-96888294D01*
X156925500Y-96899500D01*
X153300097Y-96899500D01*
X153233058Y-96879815D01*
X153212416Y-96863181D01*
X151155549Y-94806314D01*
X151155547Y-94806311D01*
X151036676Y-94687440D01*
X151036668Y-94687434D01*
X150920186Y-94620184D01*
X150920183Y-94620183D01*
X150899744Y-94608382D01*
X150892332Y-94606396D01*
X150747016Y-94567458D01*
X150588902Y-94567458D01*
X150581306Y-94567458D01*
X150581290Y-94567459D01*
X142842022Y-94567459D01*
X142774983Y-94547774D01*
X142729228Y-94494970D01*
X142719284Y-94425812D01*
X142722945Y-94408865D01*
X142747709Y-94323627D01*
X142750500Y-94288163D01*
X142750500Y-94074500D01*
X142770185Y-94007461D01*
X142822989Y-93961706D01*
X142874500Y-93950500D01*
X154063331Y-93950500D01*
X154063347Y-93950501D01*
X154070943Y-93950501D01*
X154229054Y-93950501D01*
X154229057Y-93950501D01*
X154381785Y-93909577D01*
X154431904Y-93880639D01*
X154518716Y-93830520D01*
X154630520Y-93718716D01*
X154630520Y-93718714D01*
X154640728Y-93708507D01*
X154640730Y-93708504D01*
X155018535Y-93330698D01*
X155079856Y-93297215D01*
X155092311Y-93295163D01*
X155179255Y-93285368D01*
X155349522Y-93225789D01*
X155502262Y-93129816D01*
X155629816Y-93002262D01*
X155725789Y-92849522D01*
X155731762Y-92832449D01*
X155772482Y-92775674D01*
X155837434Y-92749924D01*
X155905996Y-92763379D01*
X155936486Y-92785721D01*
X156615139Y-93464374D01*
X156615149Y-93464385D01*
X156619479Y-93468715D01*
X156619480Y-93468716D01*
X156731284Y-93580520D01*
X156818095Y-93630639D01*
X156818097Y-93630641D01*
X156868212Y-93659576D01*
X156868215Y-93659577D01*
X156957595Y-93683526D01*
X157017254Y-93719889D01*
X157047784Y-93782736D01*
X157049501Y-93803300D01*
X157049501Y-94288175D01*
X157052291Y-94323627D01*
X157096380Y-94475385D01*
X157096382Y-94475390D01*
X157176827Y-94611416D01*
X157176834Y-94611425D01*
X157288574Y-94723165D01*
X157288583Y-94723172D01*
X157297298Y-94728326D01*
X157424610Y-94803618D01*
X157576373Y-94847709D01*
X157611837Y-94850500D01*
X159988162Y-94850499D01*
X160023627Y-94847709D01*
X160175390Y-94803618D01*
X160311420Y-94723170D01*
X160423170Y-94611420D01*
X160503618Y-94475390D01*
X160547709Y-94323627D01*
X160550500Y-94288163D01*
X160550500Y-93734999D01*
X161894341Y-93734999D01*
X161894341Y-93735000D01*
X161914936Y-93970403D01*
X161914938Y-93970413D01*
X161976094Y-94198655D01*
X161976096Y-94198659D01*
X161976097Y-94198663D01*
X162034369Y-94323627D01*
X162075965Y-94412830D01*
X162075967Y-94412834D01*
X162119770Y-94475390D01*
X162211501Y-94606396D01*
X162211506Y-94606402D01*
X162333430Y-94728326D01*
X162366915Y-94789649D01*
X162361931Y-94859341D01*
X162320059Y-94915274D01*
X162289083Y-94932189D01*
X162157669Y-94981203D01*
X162157664Y-94981206D01*
X162042455Y-95067452D01*
X162042452Y-95067455D01*
X161956206Y-95182664D01*
X161956202Y-95182671D01*
X161905908Y-95317517D01*
X161899501Y-95377116D01*
X161899501Y-95377123D01*
X161899500Y-95377135D01*
X161899500Y-97172870D01*
X161899501Y-97172876D01*
X161905908Y-97232483D01*
X161956202Y-97367328D01*
X161956206Y-97367335D01*
X162042452Y-97482544D01*
X162042455Y-97482547D01*
X162157664Y-97568793D01*
X162157671Y-97568797D01*
X162292517Y-97619091D01*
X162292516Y-97619091D01*
X162299444Y-97619835D01*
X162352127Y-97625500D01*
X164147872Y-97625499D01*
X164207483Y-97619091D01*
X164342331Y-97568796D01*
X164457546Y-97482546D01*
X164543796Y-97367331D01*
X164594091Y-97232483D01*
X164600500Y-97172873D01*
X164600499Y-95377128D01*
X164594091Y-95317517D01*
X164568907Y-95249996D01*
X164543797Y-95182671D01*
X164543793Y-95182664D01*
X164457547Y-95067455D01*
X164457544Y-95067452D01*
X164342335Y-94981206D01*
X164342328Y-94981202D01*
X164210917Y-94932189D01*
X164154983Y-94890318D01*
X164130566Y-94824853D01*
X164145418Y-94756580D01*
X164166563Y-94728332D01*
X164288495Y-94606401D01*
X164424035Y-94412830D01*
X164523903Y-94198663D01*
X164585063Y-93970408D01*
X164605659Y-93735000D01*
X164585063Y-93499592D01*
X164523903Y-93271337D01*
X164424035Y-93057171D01*
X164385588Y-93002262D01*
X164288494Y-92863597D01*
X164121402Y-92696506D01*
X164121401Y-92696505D01*
X163935405Y-92566269D01*
X163891781Y-92511692D01*
X163884588Y-92442193D01*
X163916110Y-92379839D01*
X163935405Y-92363119D01*
X164121082Y-92233105D01*
X164288105Y-92066082D01*
X164423600Y-91872578D01*
X164523429Y-91658492D01*
X164523432Y-91658486D01*
X164580636Y-91445000D01*
X163683012Y-91445000D01*
X163715925Y-91387993D01*
X163750000Y-91260826D01*
X163750000Y-91129174D01*
X163715925Y-91002007D01*
X163683012Y-90945000D01*
X164580636Y-90945000D01*
X164580635Y-90944999D01*
X164523432Y-90731513D01*
X164523429Y-90731507D01*
X164423600Y-90517422D01*
X164423599Y-90517420D01*
X164288113Y-90323926D01*
X164288108Y-90323920D01*
X164121082Y-90156894D01*
X163927578Y-90021399D01*
X163713492Y-89921570D01*
X163713486Y-89921567D01*
X163500000Y-89864364D01*
X163500000Y-90761988D01*
X163442993Y-90729075D01*
X163315826Y-90695000D01*
X163184174Y-90695000D01*
X163057007Y-90729075D01*
X163000000Y-90761988D01*
X163000000Y-89864364D01*
X162999999Y-89864364D01*
X162786513Y-89921567D01*
X162786507Y-89921570D01*
X162572422Y-90021399D01*
X162572420Y-90021400D01*
X162378926Y-90156886D01*
X162378920Y-90156891D01*
X162211891Y-90323920D01*
X162211886Y-90323926D01*
X162076400Y-90517420D01*
X162076399Y-90517422D01*
X161976570Y-90731507D01*
X161976567Y-90731513D01*
X161919364Y-90944999D01*
X161919364Y-90945000D01*
X162816988Y-90945000D01*
X162784075Y-91002007D01*
X162750000Y-91129174D01*
X162750000Y-91260826D01*
X162784075Y-91387993D01*
X162816988Y-91445000D01*
X161919364Y-91445000D01*
X161976567Y-91658486D01*
X161976570Y-91658492D01*
X162076399Y-91872578D01*
X162211894Y-92066082D01*
X162378917Y-92233105D01*
X162564595Y-92363119D01*
X162608219Y-92417696D01*
X162615412Y-92487195D01*
X162583890Y-92549549D01*
X162564595Y-92566269D01*
X162378594Y-92696508D01*
X162211505Y-92863597D01*
X162075965Y-93057169D01*
X162075964Y-93057171D01*
X161976098Y-93271335D01*
X161976094Y-93271344D01*
X161914938Y-93499586D01*
X161914936Y-93499596D01*
X161894341Y-93734999D01*
X160550500Y-93734999D01*
X160550499Y-91911838D01*
X160547709Y-91876373D01*
X160503618Y-91724610D01*
X160451804Y-91636998D01*
X160423172Y-91588583D01*
X160423165Y-91588574D01*
X160311425Y-91476834D01*
X160311416Y-91476827D01*
X160175390Y-91396382D01*
X160175385Y-91396380D01*
X160023633Y-91352292D01*
X160023620Y-91352290D01*
X159988163Y-91349500D01*
X157611849Y-91349500D01*
X157611824Y-91349501D01*
X157576372Y-91352291D01*
X157424614Y-91396380D01*
X157424609Y-91396382D01*
X157288583Y-91476827D01*
X157288574Y-91476834D01*
X157176834Y-91588574D01*
X157176827Y-91588583D01*
X157096382Y-91724609D01*
X157096380Y-91724614D01*
X157052292Y-91876366D01*
X157052290Y-91876378D01*
X157049560Y-91911074D01*
X157024676Y-91976362D01*
X156968445Y-92017833D01*
X156898720Y-92022320D01*
X156838261Y-91989026D01*
X156387590Y-91538355D01*
X156387588Y-91538352D01*
X156268717Y-91419481D01*
X156268709Y-91419475D01*
X156180789Y-91368715D01*
X156180788Y-91368715D01*
X156152342Y-91352292D01*
X156131785Y-91340423D01*
X155979057Y-91299499D01*
X155820943Y-91299499D01*
X155813347Y-91299499D01*
X155813331Y-91299500D01*
X151200097Y-91299500D01*
X151133058Y-91279815D01*
X151112416Y-91263181D01*
X151010916Y-91161681D01*
X150977431Y-91100358D01*
X150982415Y-91030666D01*
X151024287Y-90974733D01*
X151089751Y-90950316D01*
X151098597Y-90950000D01*
X153354772Y-90950000D01*
X153354784Y-90949999D01*
X153390213Y-90947211D01*
X153390219Y-90947210D01*
X153522029Y-90908915D01*
X153522029Y-90908914D01*
X152077571Y-89464456D01*
X152044086Y-89403133D01*
X152049070Y-89333441D01*
X152077571Y-89289094D01*
X152255760Y-89110905D01*
X152317083Y-89077420D01*
X152386775Y-89082404D01*
X152431122Y-89110905D01*
X153875580Y-90555363D01*
X153875581Y-90555363D01*
X153913876Y-90423553D01*
X153913877Y-90423547D01*
X153916665Y-90388118D01*
X153916666Y-90388105D01*
X153916666Y-88011894D01*
X153916665Y-88011881D01*
X153913877Y-87976452D01*
X153913876Y-87976446D01*
X153869822Y-87824814D01*
X153869821Y-87824811D01*
X153792486Y-87694043D01*
X153775303Y-87626319D01*
X153793124Y-87573027D01*
X153744589Y-87591131D01*
X153676316Y-87576279D01*
X153672622Y-87574179D01*
X153541854Y-87496844D01*
X153541851Y-87496843D01*
X153390219Y-87452789D01*
X153390213Y-87452788D01*
X153354784Y-87450000D01*
X150978547Y-87450000D01*
X150943118Y-87452788D01*
X150943112Y-87452789D01*
X150791480Y-87496843D01*
X150791477Y-87496844D01*
X150787621Y-87499125D01*
X150719896Y-87516308D01*
X150653634Y-87494148D01*
X150609871Y-87439681D01*
X150600500Y-87392393D01*
X150600500Y-87270150D01*
X150600501Y-87270137D01*
X150600501Y-87102034D01*
X150600501Y-87102033D01*
X150559577Y-86949306D01*
X150559573Y-86949299D01*
X150480524Y-86812380D01*
X150480522Y-86812377D01*
X150480521Y-86812376D01*
X150480520Y-86812374D01*
X150330698Y-86662553D01*
X150297215Y-86601232D01*
X150295163Y-86588776D01*
X150285368Y-86501835D01*
X150225789Y-86331568D01*
X150129816Y-86178828D01*
X150002262Y-86051274D01*
X149849523Y-85955301D01*
X149679254Y-85895721D01*
X149679249Y-85895720D01*
X149500004Y-85875525D01*
X149499996Y-85875525D01*
X149320750Y-85895720D01*
X149320745Y-85895721D01*
X149150476Y-85955301D01*
X148997737Y-86051274D01*
X148870184Y-86178827D01*
X148774211Y-86331566D01*
X148714631Y-86501835D01*
X148714630Y-86501840D01*
X148694435Y-86681086D01*
X148694435Y-86681093D01*
X148714630Y-86860339D01*
X148714631Y-86860344D01*
X148774211Y-87030613D01*
X148870184Y-87183352D01*
X148954855Y-87268023D01*
X148988340Y-87329346D01*
X148983356Y-87399038D01*
X148941484Y-87454971D01*
X148876020Y-87479388D01*
X148832580Y-87474781D01*
X148756880Y-87452788D01*
X148721451Y-87450000D01*
X146345214Y-87450000D01*
X146309789Y-87452788D01*
X146309784Y-87452789D01*
X146177968Y-87491084D01*
X147622427Y-88935543D01*
X147655912Y-88996866D01*
X147650928Y-89066558D01*
X147622428Y-89110905D01*
X147533333Y-89200000D01*
X147622427Y-89289094D01*
X147655912Y-89350417D01*
X147650928Y-89420109D01*
X147622427Y-89464456D01*
X146177969Y-90908914D01*
X146177969Y-90908915D01*
X146309779Y-90947210D01*
X146309785Y-90947211D01*
X146345214Y-90949999D01*
X146345227Y-90950000D01*
X148721439Y-90950000D01*
X148721451Y-90949999D01*
X148756880Y-90947211D01*
X148756886Y-90947210D01*
X148908518Y-90903156D01*
X148908521Y-90903155D01*
X149044441Y-90822773D01*
X149044449Y-90822767D01*
X149156100Y-90711116D01*
X149156109Y-90711105D01*
X149168768Y-90689700D01*
X149219836Y-90642016D01*
X149288578Y-90629512D01*
X149353168Y-90656157D01*
X149393098Y-90713492D01*
X149399500Y-90752820D01*
X149399500Y-90913330D01*
X149399499Y-90913348D01*
X149399499Y-91079054D01*
X149399498Y-91079054D01*
X149440423Y-91231785D01*
X149469358Y-91281900D01*
X149469359Y-91281904D01*
X149469360Y-91281904D01*
X149519479Y-91368715D01*
X149519481Y-91368717D01*
X149638349Y-91487585D01*
X149638355Y-91487590D01*
X150415139Y-92264374D01*
X150415149Y-92264385D01*
X150419479Y-92268715D01*
X150419480Y-92268716D01*
X150531284Y-92380520D01*
X150601298Y-92420942D01*
X150668215Y-92459577D01*
X150820942Y-92500500D01*
X150820943Y-92500500D01*
X153850903Y-92500500D01*
X153917942Y-92520185D01*
X153963697Y-92572989D01*
X153973641Y-92642147D01*
X153944616Y-92705703D01*
X153938584Y-92712181D01*
X153937584Y-92713181D01*
X153876261Y-92746666D01*
X153849903Y-92749500D01*
X142874499Y-92749500D01*
X142807460Y-92729815D01*
X142761705Y-92677011D01*
X142750499Y-92625500D01*
X142750499Y-91911849D01*
X142750498Y-91911824D01*
X142750221Y-91908310D01*
X142747709Y-91876373D01*
X142703618Y-91724610D01*
X142651804Y-91636998D01*
X142623172Y-91588583D01*
X142623165Y-91588574D01*
X142511425Y-91476834D01*
X142511416Y-91476827D01*
X142375390Y-91396382D01*
X142375385Y-91396380D01*
X142223633Y-91352292D01*
X142223620Y-91352290D01*
X142188170Y-91349500D01*
X140081157Y-91349500D01*
X140014118Y-91329815D01*
X139968363Y-91277011D01*
X139958419Y-91207853D01*
X139987444Y-91144297D01*
X139997368Y-91134770D01*
X139997338Y-91134740D01*
X140053024Y-91079054D01*
X140129816Y-91002262D01*
X140225789Y-90849522D01*
X140285368Y-90679255D01*
X140285369Y-90679249D01*
X140305565Y-90500003D01*
X140305565Y-90499996D01*
X140285369Y-90320750D01*
X140285368Y-90320745D01*
X140225788Y-90150476D01*
X140129815Y-89997737D01*
X140002262Y-89870184D01*
X139849523Y-89774211D01*
X139679254Y-89714631D01*
X139679249Y-89714630D01*
X139500004Y-89694435D01*
X139499996Y-89694435D01*
X139320750Y-89714630D01*
X139320745Y-89714631D01*
X139150476Y-89774211D01*
X138997737Y-89870184D01*
X138870184Y-89997737D01*
X138774210Y-90150478D01*
X138714630Y-90320750D01*
X138704837Y-90407666D01*
X138677770Y-90472080D01*
X138669299Y-90481462D01*
X138624237Y-90526524D01*
X138624212Y-90526552D01*
X138519477Y-90631287D01*
X138473214Y-90711419D01*
X138473214Y-90711420D01*
X138440423Y-90768214D01*
X138440423Y-90768215D01*
X138399499Y-90920943D01*
X138399499Y-90920945D01*
X138399499Y-91089046D01*
X138399500Y-91089059D01*
X138399500Y-99351373D01*
X138379815Y-99418412D01*
X138363181Y-99439054D01*
X137669481Y-100132753D01*
X137669479Y-100132756D01*
X137658201Y-100152291D01*
X137624469Y-100210717D01*
X137590423Y-100269686D01*
X137549499Y-100422414D01*
X137549499Y-100422416D01*
X137549499Y-100590517D01*
X137549500Y-100590530D01*
X137549500Y-107763330D01*
X137549499Y-107763348D01*
X137549499Y-107929054D01*
X137549498Y-107929054D01*
X137590423Y-108081786D01*
X137600663Y-108099520D01*
X137600665Y-108099525D01*
X137669475Y-108218709D01*
X137669481Y-108218717D01*
X137788349Y-108337585D01*
X137788355Y-108337590D01*
X139213181Y-109762416D01*
X139246666Y-109823739D01*
X139249500Y-109850097D01*
X139249501Y-111775500D01*
X139229816Y-111842539D01*
X139177013Y-111888294D01*
X139125501Y-111899500D01*
X138250098Y-111899500D01*
X138183059Y-111879815D01*
X138162417Y-111863181D01*
X136530700Y-110231465D01*
X136497215Y-110170142D01*
X136495163Y-110157686D01*
X136485368Y-110070745D01*
X136425789Y-109900478D01*
X136329816Y-109747738D01*
X136202262Y-109620184D01*
X136049523Y-109524211D01*
X135879254Y-109464631D01*
X135879249Y-109464630D01*
X135700004Y-109444435D01*
X135699996Y-109444435D01*
X135520750Y-109464630D01*
X135520745Y-109464631D01*
X135350476Y-109524211D01*
X135197737Y-109620184D01*
X135070184Y-109747737D01*
X134974211Y-109900476D01*
X134914631Y-110070745D01*
X134914630Y-110070750D01*
X134894435Y-110249996D01*
X134894435Y-110250003D01*
X134914630Y-110429249D01*
X134914631Y-110429254D01*
X134974211Y-110599523D01*
X135067341Y-110747737D01*
X135070184Y-110752262D01*
X135197738Y-110879816D01*
X135350478Y-110975789D01*
X135520745Y-111035368D01*
X135607669Y-111045161D01*
X135672080Y-111072226D01*
X135681465Y-111080700D01*
X136788583Y-112187819D01*
X136822068Y-112249142D01*
X136817084Y-112318834D01*
X136775212Y-112374767D01*
X136709748Y-112399184D01*
X136700902Y-112399500D01*
X134800098Y-112399500D01*
X134733059Y-112379815D01*
X134712417Y-112363181D01*
X133580700Y-111231465D01*
X133547215Y-111170142D01*
X133545163Y-111157686D01*
X133535368Y-111070745D01*
X133475789Y-110900478D01*
X133379816Y-110747738D01*
X133252262Y-110620184D01*
X133149422Y-110555565D01*
X133099523Y-110524211D01*
X132929254Y-110464631D01*
X132929249Y-110464630D01*
X132750004Y-110444435D01*
X132749996Y-110444435D01*
X132570750Y-110464630D01*
X132570745Y-110464631D01*
X132400476Y-110524211D01*
X132247737Y-110620184D01*
X132120184Y-110747737D01*
X132024211Y-110900476D01*
X131964631Y-111070745D01*
X131964630Y-111070750D01*
X131944435Y-111249996D01*
X129750500Y-111249996D01*
X129750500Y-105749996D01*
X134944435Y-105749996D01*
X134944435Y-105750003D01*
X134964630Y-105929249D01*
X134964631Y-105929254D01*
X135024211Y-106099523D01*
X135055614Y-106149500D01*
X135120184Y-106252262D01*
X135247738Y-106379816D01*
X135400478Y-106475789D01*
X135570745Y-106535368D01*
X135570750Y-106535369D01*
X135749996Y-106555565D01*
X135750000Y-106555565D01*
X135750004Y-106555565D01*
X135929249Y-106535369D01*
X135929252Y-106535368D01*
X135929255Y-106535368D01*
X136099522Y-106475789D01*
X136252262Y-106379816D01*
X136379816Y-106252262D01*
X136475789Y-106099522D01*
X136535368Y-105929255D01*
X136535369Y-105929249D01*
X136555565Y-105750003D01*
X136555565Y-105749996D01*
X136535369Y-105570750D01*
X136535368Y-105570745D01*
X136475789Y-105400478D01*
X136379816Y-105247738D01*
X136252262Y-105120184D01*
X136238997Y-105111849D01*
X136099523Y-105024211D01*
X135929254Y-104964631D01*
X135929249Y-104964630D01*
X135750004Y-104944435D01*
X135749996Y-104944435D01*
X135570750Y-104964630D01*
X135570745Y-104964631D01*
X135400476Y-105024211D01*
X135247737Y-105120184D01*
X135120184Y-105247737D01*
X135024211Y-105400476D01*
X134964631Y-105570745D01*
X134964630Y-105570750D01*
X134944435Y-105749996D01*
X129750500Y-105749996D01*
X129750500Y-97749996D01*
X134944435Y-97749996D01*
X134944435Y-97750003D01*
X134964630Y-97929249D01*
X134964631Y-97929254D01*
X135024211Y-98099523D01*
X135070373Y-98172989D01*
X135120184Y-98252262D01*
X135247738Y-98379816D01*
X135400478Y-98475789D01*
X135469678Y-98500003D01*
X135570745Y-98535368D01*
X135570750Y-98535369D01*
X135749996Y-98555565D01*
X135750000Y-98555565D01*
X135750004Y-98555565D01*
X135929249Y-98535369D01*
X135929252Y-98535368D01*
X135929255Y-98535368D01*
X136099522Y-98475789D01*
X136252262Y-98379816D01*
X136379816Y-98252262D01*
X136475789Y-98099522D01*
X136535368Y-97929255D01*
X136555565Y-97750000D01*
X136549304Y-97694435D01*
X136535369Y-97570750D01*
X136535368Y-97570745D01*
X136475788Y-97400476D01*
X136379815Y-97247737D01*
X136252262Y-97120184D01*
X136099523Y-97024211D01*
X135929254Y-96964631D01*
X135929249Y-96964630D01*
X135750004Y-96944435D01*
X135749996Y-96944435D01*
X135570750Y-96964630D01*
X135570745Y-96964631D01*
X135400476Y-97024211D01*
X135247737Y-97120184D01*
X135120184Y-97247737D01*
X135024211Y-97400476D01*
X134964631Y-97570745D01*
X134964630Y-97570750D01*
X134944435Y-97749996D01*
X129750500Y-97749996D01*
X129750500Y-88011829D01*
X141149500Y-88011829D01*
X141149500Y-90388150D01*
X141149501Y-90388175D01*
X141152291Y-90423627D01*
X141196380Y-90575385D01*
X141196382Y-90575390D01*
X141276827Y-90711416D01*
X141276834Y-90711425D01*
X141388574Y-90823165D01*
X141388578Y-90823168D01*
X141388580Y-90823170D01*
X141524610Y-90903618D01*
X141650261Y-90940123D01*
X141667048Y-90945000D01*
X141676373Y-90947709D01*
X141711837Y-90950500D01*
X144088162Y-90950499D01*
X144123627Y-90947709D01*
X144275390Y-90903618D01*
X144411420Y-90823170D01*
X144523170Y-90711420D01*
X144603618Y-90575390D01*
X144647709Y-90423627D01*
X144650500Y-90388163D01*
X144650499Y-88011881D01*
X145783333Y-88011881D01*
X145783333Y-90388118D01*
X145786121Y-90423543D01*
X145786122Y-90423548D01*
X145824417Y-90555363D01*
X147179781Y-89200000D01*
X147179781Y-89199999D01*
X145824417Y-87844636D01*
X145786122Y-87976451D01*
X145786121Y-87976456D01*
X145783333Y-88011881D01*
X144650499Y-88011881D01*
X144650499Y-88011838D01*
X144647709Y-87976373D01*
X144603618Y-87824610D01*
X144523170Y-87688580D01*
X144523168Y-87688578D01*
X144523165Y-87688574D01*
X144411425Y-87576834D01*
X144411416Y-87576827D01*
X144275390Y-87496382D01*
X144275385Y-87496380D01*
X144123633Y-87452292D01*
X144123620Y-87452290D01*
X144088163Y-87449500D01*
X141711849Y-87449500D01*
X141711824Y-87449501D01*
X141676372Y-87452291D01*
X141524614Y-87496380D01*
X141524609Y-87496382D01*
X141388583Y-87576827D01*
X141388574Y-87576834D01*
X141276834Y-87688574D01*
X141276827Y-87688583D01*
X141196382Y-87824609D01*
X141196380Y-87824614D01*
X141152292Y-87976366D01*
X141152290Y-87976379D01*
X141149500Y-88011829D01*
X129750500Y-88011829D01*
X129750500Y-86249996D01*
X134944435Y-86249996D01*
X134944435Y-86250003D01*
X134964630Y-86429249D01*
X134964631Y-86429254D01*
X135024211Y-86599523D01*
X135120184Y-86752262D01*
X135247738Y-86879816D01*
X135338080Y-86936582D01*
X135358330Y-86949306D01*
X135400478Y-86975789D01*
X135557153Y-87030612D01*
X135570745Y-87035368D01*
X135570750Y-87035369D01*
X135749996Y-87055565D01*
X135750000Y-87055565D01*
X135750004Y-87055565D01*
X135929249Y-87035369D01*
X135929252Y-87035368D01*
X135929255Y-87035368D01*
X136099522Y-86975789D01*
X136252262Y-86879816D01*
X136379816Y-86752262D01*
X136475789Y-86599522D01*
X136535368Y-86429255D01*
X136555565Y-86250000D01*
X136535368Y-86070745D01*
X136475789Y-85900478D01*
X136472799Y-85895720D01*
X136379815Y-85747737D01*
X136252262Y-85620184D01*
X136099523Y-85524211D01*
X135929254Y-85464631D01*
X135929249Y-85464630D01*
X135750004Y-85444435D01*
X135749996Y-85444435D01*
X135570750Y-85464630D01*
X135570745Y-85464631D01*
X135400476Y-85524211D01*
X135247737Y-85620184D01*
X135120184Y-85747737D01*
X135024211Y-85900476D01*
X134964631Y-86070745D01*
X134964630Y-86070750D01*
X134944435Y-86249996D01*
X129750500Y-86249996D01*
X129750500Y-80249995D01*
X139545233Y-80249995D01*
X139545233Y-80250004D01*
X139564273Y-80504079D01*
X139620968Y-80752477D01*
X139620973Y-80752494D01*
X139714058Y-80989671D01*
X139714057Y-80989671D01*
X139841457Y-81210332D01*
X139883452Y-81262993D01*
X140685387Y-80461058D01*
X140690889Y-80481591D01*
X140769881Y-80618408D01*
X140881592Y-80730119D01*
X141018409Y-80809111D01*
X141038940Y-80814612D01*
X140236813Y-81616737D01*
X140397623Y-81726375D01*
X140397624Y-81726376D01*
X140627176Y-81836921D01*
X140627174Y-81836921D01*
X140870652Y-81912024D01*
X140870658Y-81912026D01*
X141122595Y-81949999D01*
X141122604Y-81950000D01*
X141377396Y-81950000D01*
X141377404Y-81949999D01*
X141629341Y-81912026D01*
X141629347Y-81912024D01*
X141872824Y-81836921D01*
X142102381Y-81726373D01*
X142263185Y-81616737D01*
X141461059Y-80814612D01*
X141481591Y-80809111D01*
X141618408Y-80730119D01*
X141730119Y-80618408D01*
X141809111Y-80481591D01*
X141814612Y-80461059D01*
X142616545Y-81262993D01*
X142658545Y-81210327D01*
X142785941Y-80989671D01*
X142879026Y-80752494D01*
X142879031Y-80752477D01*
X142935726Y-80504079D01*
X142954767Y-80250004D01*
X142954767Y-80249995D01*
X142935726Y-79995920D01*
X142879031Y-79747522D01*
X142879026Y-79747505D01*
X142785941Y-79510328D01*
X142785942Y-79510328D01*
X142658544Y-79289671D01*
X142616546Y-79237006D01*
X141814612Y-80038939D01*
X141809111Y-80018409D01*
X141730119Y-79881592D01*
X141618408Y-79769881D01*
X141481591Y-79690889D01*
X141461058Y-79685387D01*
X142263185Y-78883261D01*
X142102377Y-78773624D01*
X142102376Y-78773623D01*
X141872823Y-78663078D01*
X141872825Y-78663078D01*
X141629347Y-78587975D01*
X141629341Y-78587973D01*
X141377404Y-78550000D01*
X141122595Y-78550000D01*
X140870658Y-78587973D01*
X140870652Y-78587975D01*
X140627175Y-78663078D01*
X140397624Y-78773623D01*
X140397616Y-78773628D01*
X140236813Y-78883261D01*
X141038940Y-79685387D01*
X141018409Y-79690889D01*
X140881592Y-79769881D01*
X140769881Y-79881592D01*
X140690889Y-80018409D01*
X140685387Y-80038940D01*
X139883453Y-79237006D01*
X139841455Y-79289670D01*
X139714058Y-79510328D01*
X139620973Y-79747505D01*
X139620968Y-79747522D01*
X139564273Y-79995920D01*
X139545233Y-80249995D01*
X129750500Y-80249995D01*
X129750500Y-74124500D01*
X129770185Y-74057461D01*
X129822989Y-74011706D01*
X129874500Y-74000500D01*
X129881113Y-74000500D01*
X129881120Y-74000500D01*
X130141116Y-73966270D01*
X130394419Y-73898398D01*
X130636697Y-73798043D01*
X130863803Y-73666924D01*
X131071851Y-73507282D01*
X131071855Y-73507277D01*
X131071860Y-73507274D01*
X131257274Y-73321860D01*
X131257277Y-73321855D01*
X131257282Y-73321851D01*
X131416924Y-73113803D01*
X131548043Y-72886697D01*
X131648398Y-72644419D01*
X131716270Y-72391116D01*
X131750500Y-72131120D01*
X131750500Y-71868880D01*
X131716270Y-71608884D01*
X131687667Y-71502135D01*
X139549500Y-71502135D01*
X139549500Y-73997870D01*
X139549501Y-73997876D01*
X139555908Y-74057483D01*
X139606202Y-74192328D01*
X139606206Y-74192335D01*
X139692452Y-74307544D01*
X139692455Y-74307547D01*
X139807664Y-74393793D01*
X139807671Y-74393797D01*
X139942517Y-74444091D01*
X139942516Y-74444091D01*
X139949444Y-74444835D01*
X140002127Y-74450500D01*
X140842795Y-74450499D01*
X140909834Y-74470183D01*
X140930476Y-74486818D01*
X153823424Y-87379766D01*
X153856909Y-87441089D01*
X153851925Y-87510781D01*
X153841564Y-87524621D01*
X153851929Y-87516293D01*
X153921409Y-87508924D01*
X153983844Y-87540288D01*
X153986899Y-87543241D01*
X155013181Y-88569523D01*
X155046666Y-88630846D01*
X155049500Y-88657204D01*
X155049500Y-90388150D01*
X155049501Y-90388175D01*
X155052291Y-90423627D01*
X155096380Y-90575385D01*
X155096382Y-90575390D01*
X155176827Y-90711416D01*
X155176834Y-90711425D01*
X155288574Y-90823165D01*
X155288578Y-90823168D01*
X155288580Y-90823170D01*
X155424610Y-90903618D01*
X155550261Y-90940123D01*
X155567048Y-90945000D01*
X155576373Y-90947709D01*
X155611837Y-90950500D01*
X157988162Y-90950499D01*
X158023627Y-90947709D01*
X158175390Y-90903618D01*
X158311420Y-90823170D01*
X158423170Y-90711420D01*
X158503618Y-90575390D01*
X158547709Y-90423627D01*
X158550500Y-90388163D01*
X158550499Y-88011838D01*
X158547709Y-87976373D01*
X158503618Y-87824610D01*
X158423170Y-87688580D01*
X158423168Y-87688578D01*
X158423165Y-87688574D01*
X158311425Y-87576834D01*
X158311416Y-87576827D01*
X158175390Y-87496382D01*
X158175385Y-87496380D01*
X158023633Y-87452292D01*
X158023620Y-87452290D01*
X157988170Y-87449500D01*
X157988163Y-87449500D01*
X157057204Y-87449500D01*
X156990165Y-87429815D01*
X156969523Y-87413181D01*
X142986818Y-73430476D01*
X142953333Y-73369153D01*
X142950499Y-73342795D01*
X142950499Y-73337844D01*
X150250000Y-73337844D01*
X150256401Y-73397372D01*
X150256403Y-73397379D01*
X150306645Y-73532086D01*
X150306649Y-73532093D01*
X150392809Y-73647187D01*
X150392812Y-73647190D01*
X150507906Y-73733350D01*
X150507913Y-73733354D01*
X150642620Y-73783596D01*
X150642627Y-73783598D01*
X150702155Y-73789999D01*
X150702172Y-73790000D01*
X151250000Y-73790000D01*
X151750000Y-73790000D01*
X152297828Y-73790000D01*
X152297844Y-73789999D01*
X152357372Y-73783598D01*
X152357379Y-73783596D01*
X152492086Y-73733354D01*
X152492093Y-73733350D01*
X152607187Y-73647190D01*
X152607190Y-73647187D01*
X152693350Y-73532093D01*
X152693354Y-73532086D01*
X152743596Y-73397379D01*
X152743598Y-73397372D01*
X152749999Y-73337844D01*
X158750000Y-73337844D01*
X158756401Y-73397372D01*
X158756403Y-73397379D01*
X158806645Y-73532086D01*
X158806649Y-73532093D01*
X158892809Y-73647187D01*
X158892812Y-73647190D01*
X159007906Y-73733350D01*
X159007913Y-73733354D01*
X159142620Y-73783596D01*
X159142627Y-73783598D01*
X159202155Y-73789999D01*
X159202172Y-73790000D01*
X159750000Y-73790000D01*
X160250000Y-73790000D01*
X160797828Y-73790000D01*
X160797844Y-73789999D01*
X160857372Y-73783598D01*
X160857379Y-73783596D01*
X160992086Y-73733354D01*
X160992093Y-73733350D01*
X161107187Y-73647190D01*
X161107190Y-73647187D01*
X161193350Y-73532093D01*
X161193354Y-73532086D01*
X161243596Y-73397379D01*
X161243598Y-73397372D01*
X161249999Y-73337844D01*
X161250000Y-73337827D01*
X161250000Y-71000000D01*
X160250000Y-71000000D01*
X160250000Y-73790000D01*
X159750000Y-73790000D01*
X159750000Y-71000000D01*
X158750000Y-71000000D01*
X158750000Y-73337844D01*
X152749999Y-73337844D01*
X152750000Y-73337827D01*
X152750000Y-71000000D01*
X151750000Y-71000000D01*
X151750000Y-73790000D01*
X151250000Y-73790000D01*
X151250000Y-71000000D01*
X150250000Y-71000000D01*
X150250000Y-73337844D01*
X142950499Y-73337844D01*
X142950499Y-71502129D01*
X142950498Y-71502123D01*
X142950497Y-71502116D01*
X142944091Y-71442517D01*
X142911662Y-71355571D01*
X142893797Y-71307671D01*
X142893793Y-71307664D01*
X142807547Y-71192455D01*
X142807544Y-71192452D01*
X142692335Y-71106206D01*
X142692328Y-71106202D01*
X142557482Y-71055908D01*
X142557483Y-71055908D01*
X142497883Y-71049501D01*
X142497881Y-71049500D01*
X142497873Y-71049500D01*
X142497864Y-71049500D01*
X140002129Y-71049500D01*
X140002123Y-71049501D01*
X139942516Y-71055908D01*
X139807671Y-71106202D01*
X139807664Y-71106206D01*
X139692455Y-71192452D01*
X139692452Y-71192455D01*
X139606206Y-71307664D01*
X139606202Y-71307671D01*
X139555908Y-71442517D01*
X139549501Y-71502116D01*
X139549501Y-71502123D01*
X139549500Y-71502135D01*
X131687667Y-71502135D01*
X131648398Y-71355581D01*
X131580829Y-71192455D01*
X131548046Y-71113309D01*
X131548041Y-71113299D01*
X131416924Y-70886196D01*
X131257281Y-70678148D01*
X131257274Y-70678140D01*
X131071860Y-70492726D01*
X131071851Y-70492718D01*
X130863803Y-70333075D01*
X130636700Y-70201958D01*
X130636690Y-70201953D01*
X130394428Y-70101605D01*
X130394421Y-70101603D01*
X130394419Y-70101602D01*
X130141116Y-70033730D01*
X130083339Y-70026123D01*
X129881127Y-69999500D01*
X129881120Y-69999500D01*
X129874500Y-69999500D01*
X129807461Y-69979815D01*
X129761706Y-69927011D01*
X129750500Y-69875500D01*
X129750500Y-68374500D01*
X129770185Y-68307461D01*
X129822989Y-68261706D01*
X129874500Y-68250500D01*
X150126000Y-68250500D01*
X150193039Y-68270185D01*
G37*
%TD.AperFunction*%
%TD*%
M02*
