%TF.GenerationSoftware,KiCad,Pcbnew,8.0.8*%
%TF.CreationDate,2025-01-26T19:36:25-06:00*%
%TF.ProjectId,ptSolar-Breakout,7074536f-6c61-4722-9d42-7265616b6f75,rev?*%
%TF.SameCoordinates,Original*%
%TF.FileFunction,Copper,L1,Top*%
%TF.FilePolarity,Positive*%
%FSLAX46Y46*%
G04 Gerber Fmt 4.6, Leading zero omitted, Abs format (unit mm)*
G04 Created by KiCad (PCBNEW 8.0.8) date 2025-01-26 19:36:25*
%MOMM*%
%LPD*%
G01*
G04 APERTURE LIST*
G04 Aperture macros list*
%AMRoundRect*
0 Rectangle with rounded corners*
0 $1 Rounding radius*
0 $2 $3 $4 $5 $6 $7 $8 $9 X,Y pos of 4 corners*
0 Add a 4 corners polygon primitive as box body*
4,1,4,$2,$3,$4,$5,$6,$7,$8,$9,$2,$3,0*
0 Add four circle primitives for the rounded corners*
1,1,$1+$1,$2,$3*
1,1,$1+$1,$4,$5*
1,1,$1+$1,$6,$7*
1,1,$1+$1,$8,$9*
0 Add four rect primitives between the rounded corners*
20,1,$1+$1,$2,$3,$4,$5,0*
20,1,$1+$1,$4,$5,$6,$7,0*
20,1,$1+$1,$6,$7,$8,$9,0*
20,1,$1+$1,$8,$9,$2,$3,0*%
G04 Aperture macros list end*
%TA.AperFunction,SMDPad,CuDef*%
%ADD10R,1.300000X1.550000*%
%TD*%
%TA.AperFunction,SMDPad,CuDef*%
%ADD11RoundRect,0.225000X-0.375000X0.225000X-0.375000X-0.225000X0.375000X-0.225000X0.375000X0.225000X0*%
%TD*%
%TA.AperFunction,ComponentPad*%
%ADD12O,1.700000X1.700000*%
%TD*%
%TA.AperFunction,ComponentPad*%
%ADD13R,1.700000X1.700000*%
%TD*%
%TA.AperFunction,SMDPad,CuDef*%
%ADD14RoundRect,0.250000X2.050000X0.300000X-2.050000X0.300000X-2.050000X-0.300000X2.050000X-0.300000X0*%
%TD*%
%TA.AperFunction,SMDPad,CuDef*%
%ADD15RoundRect,0.250000X2.025000X2.375000X-2.025000X2.375000X-2.025000X-2.375000X2.025000X-2.375000X0*%
%TD*%
%TA.AperFunction,SMDPad,CuDef*%
%ADD16RoundRect,0.250002X4.449998X5.149998X-4.449998X5.149998X-4.449998X-5.149998X4.449998X-5.149998X0*%
%TD*%
%TA.AperFunction,SMDPad,CuDef*%
%ADD17RoundRect,0.250000X0.262500X0.450000X-0.262500X0.450000X-0.262500X-0.450000X0.262500X-0.450000X0*%
%TD*%
%TA.AperFunction,SMDPad,CuDef*%
%ADD18RoundRect,0.150000X-0.150000X0.587500X-0.150000X-0.587500X0.150000X-0.587500X0.150000X0.587500X0*%
%TD*%
%TA.AperFunction,SMDPad,CuDef*%
%ADD19R,2.000000X3.000000*%
%TD*%
%TA.AperFunction,SMDPad,CuDef*%
%ADD20RoundRect,0.150000X-0.625000X0.150000X-0.625000X-0.150000X0.625000X-0.150000X0.625000X0.150000X0*%
%TD*%
%TA.AperFunction,SMDPad,CuDef*%
%ADD21RoundRect,0.250000X-0.650000X0.350000X-0.650000X-0.350000X0.650000X-0.350000X0.650000X0.350000X0*%
%TD*%
%TA.AperFunction,SMDPad,CuDef*%
%ADD22RoundRect,0.250000X-0.475000X0.250000X-0.475000X-0.250000X0.475000X-0.250000X0.475000X0.250000X0*%
%TD*%
%TA.AperFunction,SMDPad,CuDef*%
%ADD23RoundRect,0.250000X0.475000X-0.250000X0.475000X0.250000X-0.475000X0.250000X-0.475000X-0.250000X0*%
%TD*%
%TA.AperFunction,SMDPad,CuDef*%
%ADD24RoundRect,0.250000X0.250000X0.475000X-0.250000X0.475000X-0.250000X-0.475000X0.250000X-0.475000X0*%
%TD*%
%TA.AperFunction,SMDPad,CuDef*%
%ADD25RoundRect,0.250000X-0.250000X-0.475000X0.250000X-0.475000X0.250000X0.475000X-0.250000X0.475000X0*%
%TD*%
%TA.AperFunction,ComponentPad*%
%ADD26R,2.400000X2.400000*%
%TD*%
%TA.AperFunction,ComponentPad*%
%ADD27C,2.400000*%
%TD*%
%TA.AperFunction,ViaPad*%
%ADD28C,0.600000*%
%TD*%
%TA.AperFunction,Conductor*%
%ADD29C,0.600000*%
%TD*%
%TA.AperFunction,Conductor*%
%ADD30C,0.200000*%
%TD*%
G04 APERTURE END LIST*
D10*
%TO.P,SW2,1,A*%
%TO.N,/RESET*%
X156250000Y-122025000D03*
X156250000Y-129975000D03*
%TO.P,SW2,2,B*%
%TO.N,GND*%
X151750000Y-122025000D03*
X151750000Y-129975000D03*
%TD*%
D11*
%TO.P,D1,1,K*%
%TO.N,+BATT*%
X151500000Y-99600000D03*
%TO.P,D1,2,A*%
%TO.N,Net-(D1-A)*%
X151500000Y-102900000D03*
%TD*%
D12*
%TO.P,J5,3,Pin_3*%
%TO.N,GND*%
X145750000Y-90500000D03*
%TO.P,J5,2,Pin_2*%
%TO.N,Net-(J4-Pin_3)*%
X145750000Y-87960000D03*
D13*
%TO.P,J5,1,Pin_1*%
%TO.N,Net-(J4-Pin_1)*%
X145750000Y-85420000D03*
%TD*%
%TO.P,J4,1,Pin_1*%
%TO.N,Net-(J4-Pin_1)*%
X155700000Y-90740000D03*
D12*
%TO.P,J4,2,Pin_2*%
%TO.N,+3.3V*%
X155700000Y-88200000D03*
%TO.P,J4,3,Pin_3*%
%TO.N,Net-(J4-Pin_3)*%
X158240000Y-90740000D03*
%TO.P,J4,4,Pin_4*%
%TO.N,Net-(J2-Pin_4)*%
X158240000Y-88200000D03*
%TO.P,J4,5,Pin_5*%
%TO.N,GND*%
X160780000Y-90740000D03*
%TO.P,J4,6,Pin_6*%
%TO.N,Net-(J2-Pin_3)*%
X160780000Y-88200000D03*
%TO.P,J4,7,Pin_7*%
%TO.N,unconnected-(J4-Pin_7-Pad7)*%
X163320000Y-90740000D03*
%TO.P,J4,8,Pin_8*%
%TO.N,Net-(J4-Pin_8)*%
X163320000Y-88200000D03*
%TD*%
D14*
%TO.P,U1,1,GND*%
%TO.N,GND*%
X158250000Y-116000000D03*
%TO.P,U1,2,VO*%
%TO.N,+BATT*%
X158250000Y-113460000D03*
D15*
X151525000Y-116235000D03*
X151525000Y-110685000D03*
D16*
X149100000Y-113460000D03*
D15*
X146675000Y-116235000D03*
X146675000Y-110685000D03*
D14*
%TO.P,U1,3,VI*%
%TO.N,Net-(U1-VI)*%
X158250000Y-110920000D03*
%TD*%
D17*
%TO.P,R1,1*%
%TO.N,Net-(J4-Pin_8)*%
X147662500Y-97000000D03*
%TO.P,R1,2*%
%TO.N,Net-(Q1-B)*%
X145837500Y-97000000D03*
%TD*%
D18*
%TO.P,Q1,1,B*%
%TO.N,Net-(Q1-B)*%
X147700000Y-100375000D03*
%TO.P,Q1,2,E*%
%TO.N,GND*%
X145800000Y-100375000D03*
%TO.P,Q1,3,C*%
%TO.N,Net-(D1-A)*%
X146750000Y-102250000D03*
%TD*%
D19*
%TO.P,J6,1*%
%TO.N,Net-(U1-VI)*%
X163000000Y-81500000D03*
X157000000Y-81500000D03*
%TO.P,J6,2*%
%TO.N,GND*%
X157000000Y-70500000D03*
%TO.P,J6,3*%
X163000000Y-70500000D03*
%TD*%
D13*
%TO.P,J3,1,Pin_1*%
%TO.N,/MISO*%
X155700000Y-139000000D03*
D12*
%TO.P,J3,2,Pin_2*%
%TO.N,+BATT*%
X155700000Y-136460000D03*
%TO.P,J3,3,Pin_3*%
%TO.N,/SCK*%
X158240000Y-139000000D03*
%TO.P,J3,4,Pin_4*%
%TO.N,/MOSI*%
X158240000Y-136460000D03*
%TO.P,J3,5,Pin_5*%
%TO.N,/RESET*%
X160780000Y-139000000D03*
%TO.P,J3,6,Pin_6*%
%TO.N,GND*%
X160780000Y-136460000D03*
%TD*%
D20*
%TO.P,J2,1,Pin_1*%
%TO.N,GND*%
X148750000Y-74250000D03*
%TO.P,J2,2,Pin_2*%
%TO.N,+3.3V*%
X148750000Y-75250000D03*
%TO.P,J2,3,Pin_3*%
%TO.N,Net-(J2-Pin_3)*%
X148750000Y-76250000D03*
%TO.P,J2,4,Pin_4*%
%TO.N,Net-(J2-Pin_4)*%
X148750000Y-77250000D03*
D21*
%TO.P,J2,MP*%
%TO.N,N/C*%
X144875000Y-72950000D03*
X144875000Y-78550000D03*
%TD*%
D13*
%TO.P,J1,1,Pin_1*%
%TO.N,/MISO*%
X165000000Y-129500000D03*
D12*
%TO.P,J1,2,Pin_2*%
%TO.N,+BATT*%
X162460000Y-129500000D03*
%TO.P,J1,3,Pin_3*%
%TO.N,/SCK*%
X165000000Y-126960000D03*
%TO.P,J1,4,Pin_4*%
%TO.N,/MOSI*%
X162460000Y-126960000D03*
%TO.P,J1,5,Pin_5*%
%TO.N,/RESET*%
X165000000Y-124420000D03*
%TO.P,J1,6,Pin_6*%
%TO.N,GND*%
X162460000Y-124420000D03*
%TD*%
D22*
%TO.P,C6,1*%
%TO.N,+BATT*%
X162750000Y-113550000D03*
%TO.P,C6,2*%
%TO.N,GND*%
X162750000Y-115450000D03*
%TD*%
D23*
%TO.P,C5,1*%
%TO.N,+3.3V*%
X151500000Y-72950000D03*
%TO.P,C5,2*%
%TO.N,GND*%
X151500000Y-71050000D03*
%TD*%
D24*
%TO.P,C4,1*%
%TO.N,+BATT*%
X158950000Y-132500000D03*
%TO.P,C4,2*%
%TO.N,GND*%
X157050000Y-132500000D03*
%TD*%
D22*
%TO.P,C3,1*%
%TO.N,+BATT*%
X165250000Y-113550000D03*
%TO.P,C3,2*%
%TO.N,GND*%
X165250000Y-115450000D03*
%TD*%
D25*
%TO.P,C2,1*%
%TO.N,Net-(U1-VI)*%
X162350000Y-84750000D03*
%TO.P,C2,2*%
%TO.N,GND*%
X164250000Y-84750000D03*
%TD*%
D26*
%TO.P,C1,1*%
%TO.N,+BATT*%
X156926041Y-99750000D03*
D27*
%TO.P,C1,2*%
%TO.N,Net-(D1-A)*%
X164426041Y-99750000D03*
%TD*%
D28*
%TO.N,GND*%
X157750000Y-84500000D03*
X165750000Y-70500000D03*
X160250000Y-70500000D03*
X154000000Y-70500000D03*
X145750000Y-81250000D03*
X163750000Y-107000000D03*
X159500000Y-107000000D03*
X154000000Y-107000000D03*
X149000000Y-106750000D03*
X144750000Y-106750000D03*
X164750000Y-120000000D03*
X159500000Y-120000000D03*
X154000000Y-120000000D03*
X149000000Y-120000000D03*
X144750000Y-120000000D03*
X165500000Y-138750000D03*
%TO.N,+BATT*%
X165500000Y-111750000D03*
%TO.N,Net-(U1-VI)*%
X160000000Y-84250000D03*
X163625000Y-109625000D03*
%TO.N,+3.3V*%
X151500000Y-75250000D03*
%TD*%
D29*
%TO.N,Net-(U1-VI)*%
X163625000Y-109625000D02*
X162330000Y-110920000D01*
X162330000Y-110920000D02*
X158250000Y-110920000D01*
D30*
%TO.N,Net-(J4-Pin_8)*%
X162000000Y-89520000D02*
X163320000Y-88200000D01*
X162000000Y-92500000D02*
X162000000Y-89520000D01*
X157500000Y-97000000D02*
X162000000Y-92500000D01*
X147662500Y-97000000D02*
X157500000Y-97000000D01*
%TO.N,/RESET*%
X166150000Y-125570000D02*
X165000000Y-124420000D01*
X166150000Y-134850000D02*
X166150000Y-125570000D01*
X160780000Y-139000000D02*
X162000000Y-139000000D01*
X162000000Y-139000000D02*
X166150000Y-134850000D01*
%TO.N,/MISO*%
X156950000Y-137750000D02*
X155700000Y-139000000D01*
X162500000Y-137750000D02*
X156950000Y-137750000D01*
X165000000Y-135250000D02*
X162500000Y-137750000D01*
X165000000Y-129500000D02*
X165000000Y-135250000D01*
D29*
%TO.N,+BATT*%
X165250000Y-112000000D02*
X165500000Y-111750000D01*
X165250000Y-113550000D02*
X165250000Y-112000000D01*
X154300000Y-113460000D02*
X151525000Y-110685000D01*
X158250000Y-113460000D02*
X154300000Y-113460000D01*
X162660000Y-113460000D02*
X162750000Y-113550000D01*
X158250000Y-113460000D02*
X162660000Y-113460000D01*
X165250000Y-113550000D02*
X162750000Y-113550000D01*
%TO.N,Net-(U1-VI)*%
X160000000Y-84250000D02*
X160000000Y-81500000D01*
X160000000Y-81500000D02*
X163000000Y-81500000D01*
X157000000Y-81500000D02*
X160000000Y-81500000D01*
D30*
%TO.N,/RESET*%
X156250000Y-122025000D02*
X156250000Y-129975000D01*
X162605000Y-122025000D02*
X156250000Y-122025000D01*
X165000000Y-124420000D02*
X162605000Y-122025000D01*
%TO.N,/MOSI*%
X158240000Y-135760000D02*
X158240000Y-136460000D01*
X163610000Y-130390000D02*
X158240000Y-135760000D01*
X163610000Y-128110000D02*
X163610000Y-130390000D01*
X162460000Y-126960000D02*
X163610000Y-128110000D01*
D29*
%TO.N,+BATT*%
X158950000Y-133210000D02*
X155700000Y-136460000D01*
X158950000Y-132500000D02*
X158950000Y-133210000D01*
X158950000Y-132500000D02*
X159460000Y-132500000D01*
X159460000Y-132500000D02*
X162460000Y-129500000D01*
D30*
X156776041Y-99600000D02*
X156926041Y-99750000D01*
X151500000Y-99600000D02*
X156776041Y-99600000D01*
%TO.N,Net-(D1-A)*%
X161276041Y-102900000D02*
X151500000Y-102900000D01*
X164426041Y-99750000D02*
X161276041Y-102900000D01*
X147400000Y-102900000D02*
X151500000Y-102900000D01*
X146750000Y-102250000D02*
X147400000Y-102900000D01*
%TO.N,Net-(Q1-B)*%
X147700000Y-100375000D02*
X147700000Y-98862500D01*
X147700000Y-98862500D02*
X145837500Y-97000000D01*
%TO.N,Net-(J4-Pin_3)*%
X157090000Y-91890000D02*
X158240000Y-90740000D01*
X150890000Y-91890000D02*
X157090000Y-91890000D01*
X146960000Y-87960000D02*
X150890000Y-91890000D01*
X145750000Y-87960000D02*
X146960000Y-87960000D01*
%TO.N,Net-(J4-Pin_1)*%
X145750000Y-85750000D02*
X145750000Y-85420000D01*
X150740000Y-90740000D02*
X145750000Y-85750000D01*
X155700000Y-90740000D02*
X150740000Y-90740000D01*
%TO.N,+3.3V*%
X151500000Y-75250000D02*
X148750000Y-75250000D01*
D29*
%TO.N,Net-(U1-VI)*%
X162350000Y-82150000D02*
X163000000Y-81500000D01*
X162350000Y-84750000D02*
X162350000Y-82150000D01*
D30*
%TO.N,Net-(J2-Pin_3)*%
X159080000Y-86500000D02*
X160780000Y-88200000D01*
X149825000Y-76909448D02*
X149825000Y-79259314D01*
X149825000Y-79259314D02*
X157065686Y-86500000D01*
X149165552Y-76250000D02*
X149825000Y-76909448D01*
X157065686Y-86500000D02*
X159080000Y-86500000D01*
X148750000Y-76250000D02*
X149165552Y-76250000D01*
%TO.N,Net-(J2-Pin_4)*%
X148750000Y-78750000D02*
X158200000Y-88200000D01*
X148750000Y-77250000D02*
X148750000Y-78750000D01*
X158200000Y-88200000D02*
X158240000Y-88200000D01*
%TO.N,+3.3V*%
X149200000Y-75250000D02*
X151500000Y-72950000D01*
X148750000Y-75250000D02*
X149200000Y-75250000D01*
%TD*%
%TA.AperFunction,Conductor*%
%TO.N,GND*%
G36*
X166692539Y-68270185D02*
G01*
X166738294Y-68322989D01*
X166749500Y-68374500D01*
X166749500Y-125020902D01*
X166729815Y-125087941D01*
X166677011Y-125133696D01*
X166607853Y-125143640D01*
X166544297Y-125114615D01*
X166537819Y-125108583D01*
X166332766Y-124903530D01*
X166299281Y-124842207D01*
X166300672Y-124783755D01*
X166335063Y-124655408D01*
X166355659Y-124420000D01*
X166335063Y-124184592D01*
X166273903Y-123956337D01*
X166174035Y-123742171D01*
X166038495Y-123548599D01*
X166038494Y-123548597D01*
X165871402Y-123381506D01*
X165871395Y-123381501D01*
X165677834Y-123245967D01*
X165677830Y-123245965D01*
X165672222Y-123243350D01*
X165463663Y-123146097D01*
X165463659Y-123146096D01*
X165463655Y-123146094D01*
X165235413Y-123084938D01*
X165235403Y-123084936D01*
X165000001Y-123064341D01*
X164999999Y-123064341D01*
X164764596Y-123084936D01*
X164764583Y-123084939D01*
X164636241Y-123119327D01*
X164566392Y-123117664D01*
X164516468Y-123087233D01*
X163092590Y-121663355D01*
X163092588Y-121663352D01*
X162973717Y-121544481D01*
X162973716Y-121544480D01*
X162886904Y-121494360D01*
X162886904Y-121494359D01*
X162886900Y-121494358D01*
X162836785Y-121465423D01*
X162684057Y-121424499D01*
X162525943Y-121424499D01*
X162518347Y-121424499D01*
X162518331Y-121424500D01*
X157524499Y-121424500D01*
X157457460Y-121404815D01*
X157411705Y-121352011D01*
X157400499Y-121300500D01*
X157400499Y-121202129D01*
X157400498Y-121202123D01*
X157400497Y-121202116D01*
X157394091Y-121142517D01*
X157391991Y-121136887D01*
X157343797Y-121007671D01*
X157343793Y-121007664D01*
X157257547Y-120892455D01*
X157257544Y-120892452D01*
X157142335Y-120806206D01*
X157142328Y-120806202D01*
X157007482Y-120755908D01*
X157007483Y-120755908D01*
X156947883Y-120749501D01*
X156947881Y-120749500D01*
X156947873Y-120749500D01*
X156947864Y-120749500D01*
X155552129Y-120749500D01*
X155552123Y-120749501D01*
X155492516Y-120755908D01*
X155357671Y-120806202D01*
X155357664Y-120806206D01*
X155242455Y-120892452D01*
X155242452Y-120892455D01*
X155156206Y-121007664D01*
X155156202Y-121007671D01*
X155105908Y-121142517D01*
X155099501Y-121202116D01*
X155099501Y-121202123D01*
X155099500Y-121202135D01*
X155099500Y-122847870D01*
X155099501Y-122847876D01*
X155105908Y-122907483D01*
X155156202Y-123042328D01*
X155156206Y-123042335D01*
X155242452Y-123157544D01*
X155242455Y-123157547D01*
X155357664Y-123243793D01*
X155357671Y-123243797D01*
X155492516Y-123294091D01*
X155538757Y-123299063D01*
X155603307Y-123325801D01*
X155643155Y-123383194D01*
X155649500Y-123422352D01*
X155649500Y-128577648D01*
X155629815Y-128644687D01*
X155577011Y-128690442D01*
X155538755Y-128700938D01*
X155492516Y-128705909D01*
X155357671Y-128756202D01*
X155357664Y-128756206D01*
X155242455Y-128842452D01*
X155242452Y-128842455D01*
X155156206Y-128957664D01*
X155156202Y-128957671D01*
X155105908Y-129092517D01*
X155099501Y-129152116D01*
X155099501Y-129152123D01*
X155099500Y-129152135D01*
X155099500Y-130797870D01*
X155099501Y-130797876D01*
X155105908Y-130857483D01*
X155156202Y-130992328D01*
X155156206Y-130992335D01*
X155242452Y-131107544D01*
X155242455Y-131107547D01*
X155357664Y-131193793D01*
X155357671Y-131193797D01*
X155492517Y-131244091D01*
X155492516Y-131244091D01*
X155499444Y-131244835D01*
X155552127Y-131250500D01*
X156214478Y-131250499D01*
X156281516Y-131270183D01*
X156327271Y-131322987D01*
X156337215Y-131392146D01*
X156308190Y-131455702D01*
X156302159Y-131462180D01*
X156207682Y-131556657D01*
X156115643Y-131705875D01*
X156115641Y-131705880D01*
X156060494Y-131872302D01*
X156060493Y-131872309D01*
X156050000Y-131975013D01*
X156050000Y-132250000D01*
X156926000Y-132250000D01*
X156993039Y-132269685D01*
X157038794Y-132322489D01*
X157050000Y-132374000D01*
X157050000Y-132500000D01*
X157176000Y-132500000D01*
X157243039Y-132519685D01*
X157288794Y-132572489D01*
X157300000Y-132624000D01*
X157300000Y-133676558D01*
X157280315Y-133743597D01*
X157263681Y-133764239D01*
X155946479Y-135081441D01*
X155885156Y-135114926D01*
X155847991Y-135117288D01*
X155700002Y-135104341D01*
X155699999Y-135104341D01*
X155464596Y-135124936D01*
X155464586Y-135124938D01*
X155236344Y-135186094D01*
X155236335Y-135186098D01*
X155022171Y-135285964D01*
X155022169Y-135285965D01*
X154828597Y-135421505D01*
X154661505Y-135588597D01*
X154525965Y-135782169D01*
X154525964Y-135782171D01*
X154426098Y-135996335D01*
X154426094Y-135996344D01*
X154364938Y-136224586D01*
X154364936Y-136224596D01*
X154344341Y-136459999D01*
X154344341Y-136460000D01*
X154364936Y-136695403D01*
X154364938Y-136695413D01*
X154426094Y-136923655D01*
X154426096Y-136923659D01*
X154426097Y-136923663D01*
X154449148Y-136973095D01*
X154525965Y-137137830D01*
X154525967Y-137137834D01*
X154661501Y-137331395D01*
X154661506Y-137331402D01*
X154783430Y-137453326D01*
X154816915Y-137514649D01*
X154811931Y-137584341D01*
X154770059Y-137640274D01*
X154739083Y-137657189D01*
X154607669Y-137706203D01*
X154607664Y-137706206D01*
X154492455Y-137792452D01*
X154492452Y-137792455D01*
X154406206Y-137907664D01*
X154406202Y-137907671D01*
X154355908Y-138042517D01*
X154349501Y-138102116D01*
X154349500Y-138102135D01*
X154349500Y-139897870D01*
X154349501Y-139897876D01*
X154355908Y-139957483D01*
X154406202Y-140092328D01*
X154406206Y-140092335D01*
X154492452Y-140207544D01*
X154492455Y-140207547D01*
X154607664Y-140293793D01*
X154607671Y-140293797D01*
X154742517Y-140344091D01*
X154742516Y-140344091D01*
X154749444Y-140344835D01*
X154802127Y-140350500D01*
X156597872Y-140350499D01*
X156657483Y-140344091D01*
X156792331Y-140293796D01*
X156907546Y-140207546D01*
X156993796Y-140092331D01*
X157042810Y-139960916D01*
X157084681Y-139904984D01*
X157150145Y-139880566D01*
X157218418Y-139895417D01*
X157246673Y-139916569D01*
X157368599Y-140038495D01*
X157465384Y-140106265D01*
X157562165Y-140174032D01*
X157562167Y-140174033D01*
X157562170Y-140174035D01*
X157776337Y-140273903D01*
X158004592Y-140335063D01*
X158181034Y-140350500D01*
X158239999Y-140355659D01*
X158240000Y-140355659D01*
X158240001Y-140355659D01*
X158298966Y-140350500D01*
X158475408Y-140335063D01*
X158703663Y-140273903D01*
X158917830Y-140174035D01*
X159111401Y-140038495D01*
X159278495Y-139871401D01*
X159408425Y-139685842D01*
X159463002Y-139642217D01*
X159532500Y-139635023D01*
X159594855Y-139666546D01*
X159611575Y-139685842D01*
X159741500Y-139871395D01*
X159741505Y-139871401D01*
X159908599Y-140038495D01*
X160005384Y-140106265D01*
X160102165Y-140174032D01*
X160102167Y-140174033D01*
X160102170Y-140174035D01*
X160316337Y-140273903D01*
X160544592Y-140335063D01*
X160721034Y-140350500D01*
X160779999Y-140355659D01*
X160780000Y-140355659D01*
X160780001Y-140355659D01*
X160838966Y-140350500D01*
X161015408Y-140335063D01*
X161243663Y-140273903D01*
X161457830Y-140174035D01*
X161651401Y-140038495D01*
X161818495Y-139871401D01*
X161954035Y-139677830D01*
X161956711Y-139672092D01*
X162002885Y-139619655D01*
X162069091Y-139600501D01*
X162079054Y-139600501D01*
X162079057Y-139600501D01*
X162231785Y-139559577D01*
X162281904Y-139530639D01*
X162368716Y-139480520D01*
X162480520Y-139368716D01*
X162480520Y-139368714D01*
X162490728Y-139358507D01*
X162490730Y-139358504D01*
X166508506Y-135340728D01*
X166508511Y-135340724D01*
X166518715Y-135330520D01*
X166518716Y-135330520D01*
X166537819Y-135311417D01*
X166599142Y-135277932D01*
X166668834Y-135282916D01*
X166724767Y-135324788D01*
X166749184Y-135390252D01*
X166749500Y-135399098D01*
X166749500Y-140625500D01*
X166729815Y-140692539D01*
X166677011Y-140738294D01*
X166625500Y-140749500D01*
X153696529Y-140749500D01*
X153629490Y-140729815D01*
X153583735Y-140677011D01*
X153579193Y-140665602D01*
X153471499Y-140350498D01*
X150967843Y-133024986D01*
X156050001Y-133024986D01*
X156060494Y-133127697D01*
X156115641Y-133294119D01*
X156115643Y-133294124D01*
X156207684Y-133443345D01*
X156331654Y-133567315D01*
X156480875Y-133659356D01*
X156480880Y-133659358D01*
X156647302Y-133714505D01*
X156647309Y-133714506D01*
X156750019Y-133724999D01*
X156799999Y-133724998D01*
X156800000Y-133724998D01*
X156800000Y-132750000D01*
X156050001Y-132750000D01*
X156050001Y-133024986D01*
X150967843Y-133024986D01*
X150206668Y-130797844D01*
X150600000Y-130797844D01*
X150606401Y-130857372D01*
X150606403Y-130857379D01*
X150656645Y-130992086D01*
X150656649Y-130992093D01*
X150742809Y-131107187D01*
X150742812Y-131107190D01*
X150857906Y-131193350D01*
X150857913Y-131193354D01*
X150992620Y-131243596D01*
X150992627Y-131243598D01*
X151052155Y-131249999D01*
X151052172Y-131250000D01*
X151500000Y-131250000D01*
X152000000Y-131250000D01*
X152447828Y-131250000D01*
X152447844Y-131249999D01*
X152507372Y-131243598D01*
X152507379Y-131243596D01*
X152642086Y-131193354D01*
X152642093Y-131193350D01*
X152757187Y-131107190D01*
X152757190Y-131107187D01*
X152843350Y-130992093D01*
X152843354Y-130992086D01*
X152893596Y-130857379D01*
X152893598Y-130857372D01*
X152899999Y-130797844D01*
X152900000Y-130797827D01*
X152900000Y-130225000D01*
X152000000Y-130225000D01*
X152000000Y-131250000D01*
X151500000Y-131250000D01*
X151500000Y-130225000D01*
X150600000Y-130225000D01*
X150600000Y-130797844D01*
X150206668Y-130797844D01*
X149644217Y-129152155D01*
X150600000Y-129152155D01*
X150600000Y-129725000D01*
X151500000Y-129725000D01*
X152000000Y-129725000D01*
X152900000Y-129725000D01*
X152900000Y-129152172D01*
X152899999Y-129152155D01*
X152893598Y-129092627D01*
X152893596Y-129092620D01*
X152843354Y-128957913D01*
X152843350Y-128957906D01*
X152757190Y-128842812D01*
X152757187Y-128842809D01*
X152642093Y-128756649D01*
X152642086Y-128756645D01*
X152507379Y-128706403D01*
X152507372Y-128706401D01*
X152447844Y-128700000D01*
X152000000Y-128700000D01*
X152000000Y-129725000D01*
X151500000Y-129725000D01*
X151500000Y-128700000D01*
X151052155Y-128700000D01*
X150992627Y-128706401D01*
X150992620Y-128706403D01*
X150857913Y-128756645D01*
X150857906Y-128756649D01*
X150742812Y-128842809D01*
X150742809Y-128842812D01*
X150656649Y-128957906D01*
X150656645Y-128957913D01*
X150606403Y-129092620D01*
X150606401Y-129092627D01*
X150600000Y-129152155D01*
X149644217Y-129152155D01*
X147489579Y-122847844D01*
X150600000Y-122847844D01*
X150606401Y-122907372D01*
X150606403Y-122907379D01*
X150656645Y-123042086D01*
X150656649Y-123042093D01*
X150742809Y-123157187D01*
X150742812Y-123157190D01*
X150857906Y-123243350D01*
X150857913Y-123243354D01*
X150992620Y-123293596D01*
X150992627Y-123293598D01*
X151052155Y-123299999D01*
X151052172Y-123300000D01*
X151500000Y-123300000D01*
X152000000Y-123300000D01*
X152447828Y-123300000D01*
X152447844Y-123299999D01*
X152507372Y-123293598D01*
X152507379Y-123293596D01*
X152642086Y-123243354D01*
X152642093Y-123243350D01*
X152757187Y-123157190D01*
X152757190Y-123157187D01*
X152843350Y-123042093D01*
X152843354Y-123042086D01*
X152893596Y-122907379D01*
X152893598Y-122907372D01*
X152899999Y-122847844D01*
X152900000Y-122847827D01*
X152900000Y-122275000D01*
X152000000Y-122275000D01*
X152000000Y-123300000D01*
X151500000Y-123300000D01*
X151500000Y-122275000D01*
X150600000Y-122275000D01*
X150600000Y-122847844D01*
X147489579Y-122847844D01*
X146980424Y-121358093D01*
X146977987Y-121350089D01*
X146966392Y-121306814D01*
X146963874Y-121302452D01*
X146953923Y-121280551D01*
X146952294Y-121275785D01*
X146927327Y-121238587D01*
X146922900Y-121231484D01*
X146905967Y-121202155D01*
X150600000Y-121202155D01*
X150600000Y-121775000D01*
X151500000Y-121775000D01*
X152000000Y-121775000D01*
X152900000Y-121775000D01*
X152900000Y-121202172D01*
X152899999Y-121202155D01*
X152893598Y-121142627D01*
X152893596Y-121142620D01*
X152843354Y-121007913D01*
X152843350Y-121007906D01*
X152757190Y-120892812D01*
X152757187Y-120892809D01*
X152642093Y-120806649D01*
X152642086Y-120806645D01*
X152507379Y-120756403D01*
X152507372Y-120756401D01*
X152447844Y-120750000D01*
X152000000Y-120750000D01*
X152000000Y-121775000D01*
X151500000Y-121775000D01*
X151500000Y-120750000D01*
X151052155Y-120750000D01*
X150992627Y-120756401D01*
X150992620Y-120756403D01*
X150857913Y-120806645D01*
X150857906Y-120806649D01*
X150742812Y-120892809D01*
X150742809Y-120892812D01*
X150656649Y-121007906D01*
X150656645Y-121007913D01*
X150606403Y-121142620D01*
X150606401Y-121142627D01*
X150600000Y-121202155D01*
X146905967Y-121202155D01*
X146900500Y-121192686D01*
X146896938Y-121189124D01*
X146881660Y-121170547D01*
X146878851Y-121166362D01*
X146878846Y-121166356D01*
X146845101Y-121136887D01*
X146838983Y-121131169D01*
X146807315Y-121099500D01*
X146802940Y-121096974D01*
X146783388Y-121082993D01*
X146779594Y-121079680D01*
X146779588Y-121079676D01*
X146739373Y-121059947D01*
X146731989Y-121056010D01*
X146693185Y-121033607D01*
X146688304Y-121032299D01*
X146665800Y-121023856D01*
X146661275Y-121021636D01*
X146636687Y-121016797D01*
X146617311Y-121012985D01*
X146609160Y-121011093D01*
X146565895Y-120999500D01*
X146565892Y-120999500D01*
X146560856Y-120999500D01*
X146536918Y-120997167D01*
X146531975Y-120996194D01*
X146531966Y-120996193D01*
X146488965Y-120999102D01*
X146487274Y-120999217D01*
X146478907Y-120999500D01*
X143374500Y-120999500D01*
X143307461Y-120979815D01*
X143261706Y-120927011D01*
X143250500Y-120875500D01*
X143250500Y-108259985D01*
X143899500Y-108259985D01*
X143899500Y-118660001D01*
X143899501Y-118660018D01*
X143910000Y-118762796D01*
X143910001Y-118762799D01*
X143965185Y-118929331D01*
X143965186Y-118929334D01*
X144057288Y-119078656D01*
X144181344Y-119202712D01*
X144330666Y-119294814D01*
X144497203Y-119349999D01*
X144581925Y-119358654D01*
X144589233Y-119360499D01*
X144593665Y-119360499D01*
X144606280Y-119361142D01*
X144613432Y-119361873D01*
X144621384Y-119360499D01*
X149449985Y-119360499D01*
X149449991Y-119360500D01*
X153600008Y-119360499D01*
X153702797Y-119349999D01*
X153869334Y-119294814D01*
X154018656Y-119202712D01*
X154142712Y-119078656D01*
X154234814Y-118929334D01*
X154289999Y-118762797D01*
X154300500Y-118660009D01*
X154300500Y-118660006D01*
X154300500Y-116349986D01*
X155450001Y-116349986D01*
X155460494Y-116452697D01*
X155515641Y-116619119D01*
X155515643Y-116619124D01*
X155607684Y-116768345D01*
X155731654Y-116892315D01*
X155880875Y-116984356D01*
X155880880Y-116984358D01*
X156047302Y-117039505D01*
X156047309Y-117039506D01*
X156150019Y-117049999D01*
X157999999Y-117049999D01*
X158500000Y-117049999D01*
X160349972Y-117049999D01*
X160349986Y-117049998D01*
X160452697Y-117039505D01*
X160619119Y-116984358D01*
X160619124Y-116984356D01*
X160768345Y-116892315D01*
X160892315Y-116768345D01*
X160984356Y-116619124D01*
X160984358Y-116619119D01*
X161039505Y-116452697D01*
X161039506Y-116452690D01*
X161049999Y-116349986D01*
X161050000Y-116349973D01*
X161050000Y-116250000D01*
X158500000Y-116250000D01*
X158500000Y-117049999D01*
X157999999Y-117049999D01*
X158000000Y-117049998D01*
X158000000Y-116250000D01*
X155450001Y-116250000D01*
X155450001Y-116349986D01*
X154300500Y-116349986D01*
X154300500Y-115650013D01*
X155450000Y-115650013D01*
X155450000Y-115750000D01*
X158000000Y-115750000D01*
X158500000Y-115750000D01*
X161049999Y-115750000D01*
X161049999Y-115749986D01*
X161525001Y-115749986D01*
X161535494Y-115852697D01*
X161590641Y-116019119D01*
X161590643Y-116019124D01*
X161682684Y-116168345D01*
X161806654Y-116292315D01*
X161955875Y-116384356D01*
X161955880Y-116384358D01*
X162122302Y-116439505D01*
X162122309Y-116439506D01*
X162225019Y-116449999D01*
X162499999Y-116449999D01*
X163000000Y-116449999D01*
X163274972Y-116449999D01*
X163274986Y-116449998D01*
X163377697Y-116439505D01*
X163544119Y-116384358D01*
X163544124Y-116384356D01*
X163693345Y-116292315D01*
X163817315Y-116168345D01*
X163894461Y-116043273D01*
X163946409Y-115996549D01*
X164015372Y-115985326D01*
X164079454Y-116013170D01*
X164105539Y-116043273D01*
X164182684Y-116168345D01*
X164306654Y-116292315D01*
X164455875Y-116384356D01*
X164455880Y-116384358D01*
X164622302Y-116439505D01*
X164622309Y-116439506D01*
X164725019Y-116449999D01*
X164999999Y-116449999D01*
X165500000Y-116449999D01*
X165774972Y-116449999D01*
X165774986Y-116449998D01*
X165877697Y-116439505D01*
X166044119Y-116384358D01*
X166044124Y-116384356D01*
X166193345Y-116292315D01*
X166317315Y-116168345D01*
X166409356Y-116019124D01*
X166409358Y-116019119D01*
X166464505Y-115852697D01*
X166464506Y-115852690D01*
X166474999Y-115749986D01*
X166475000Y-115749973D01*
X166475000Y-115700000D01*
X165500000Y-115700000D01*
X165500000Y-116449999D01*
X164999999Y-116449999D01*
X165000000Y-116449998D01*
X165000000Y-115700000D01*
X163000000Y-115700000D01*
X163000000Y-116449999D01*
X162499999Y-116449999D01*
X162500000Y-116449998D01*
X162500000Y-115700000D01*
X161525001Y-115700000D01*
X161525001Y-115749986D01*
X161049999Y-115749986D01*
X161049999Y-115650028D01*
X161049998Y-115650013D01*
X161039505Y-115547302D01*
X160984358Y-115380880D01*
X160984356Y-115380875D01*
X160892315Y-115231654D01*
X160768345Y-115107684D01*
X160619124Y-115015643D01*
X160619119Y-115015641D01*
X160452697Y-114960494D01*
X160452690Y-114960493D01*
X160349986Y-114950000D01*
X158500000Y-114950000D01*
X158500000Y-115750000D01*
X158000000Y-115750000D01*
X158000000Y-114950000D01*
X156150028Y-114950000D01*
X156150012Y-114950001D01*
X156047302Y-114960494D01*
X155880880Y-115015641D01*
X155880875Y-115015643D01*
X155731654Y-115107684D01*
X155607684Y-115231654D01*
X155515643Y-115380875D01*
X155515641Y-115380880D01*
X155460494Y-115547302D01*
X155460493Y-115547309D01*
X155450000Y-115650013D01*
X154300500Y-115650013D01*
X154300500Y-114384500D01*
X154320185Y-114317461D01*
X154372989Y-114271706D01*
X154424500Y-114260500D01*
X155587770Y-114260500D01*
X155654809Y-114280185D01*
X155675451Y-114296819D01*
X155731344Y-114352712D01*
X155880666Y-114444814D01*
X156047203Y-114499999D01*
X156149991Y-114510500D01*
X160350008Y-114510499D01*
X160452797Y-114499999D01*
X160619334Y-114444814D01*
X160768656Y-114352712D01*
X160824549Y-114296819D01*
X160885872Y-114263334D01*
X160912230Y-114260500D01*
X161622770Y-114260500D01*
X161689809Y-114280185D01*
X161710451Y-114296819D01*
X161806344Y-114392712D01*
X161809628Y-114394737D01*
X161809653Y-114394753D01*
X161811445Y-114396746D01*
X161812011Y-114397193D01*
X161811934Y-114397289D01*
X161856379Y-114446699D01*
X161867603Y-114515661D01*
X161839761Y-114579744D01*
X161809665Y-114605826D01*
X161806660Y-114607679D01*
X161806655Y-114607683D01*
X161682684Y-114731654D01*
X161590643Y-114880875D01*
X161590641Y-114880880D01*
X161535494Y-115047302D01*
X161535493Y-115047309D01*
X161525000Y-115150013D01*
X161525000Y-115200000D01*
X166474999Y-115200000D01*
X166474999Y-115150028D01*
X166474998Y-115150013D01*
X166464505Y-115047302D01*
X166409358Y-114880880D01*
X166409356Y-114880875D01*
X166317315Y-114731654D01*
X166193344Y-114607683D01*
X166193341Y-114607681D01*
X166190339Y-114605829D01*
X166188713Y-114604021D01*
X166187677Y-114603202D01*
X166187817Y-114603024D01*
X166143617Y-114553880D01*
X166132397Y-114484917D01*
X166160243Y-114420836D01*
X166190344Y-114394754D01*
X166193656Y-114392712D01*
X166317712Y-114268656D01*
X166409814Y-114119334D01*
X166464999Y-113952797D01*
X166475500Y-113850009D01*
X166475499Y-113249992D01*
X166464999Y-113147203D01*
X166409814Y-112980666D01*
X166317712Y-112831344D01*
X166193656Y-112707288D01*
X166193652Y-112707285D01*
X166109403Y-112655319D01*
X166062678Y-112603371D01*
X166050500Y-112549781D01*
X166050500Y-112382940D01*
X166070185Y-112315901D01*
X166086819Y-112295259D01*
X166121788Y-112260290D01*
X166129816Y-112252262D01*
X166170943Y-112186806D01*
X166172761Y-112184001D01*
X166209393Y-112129179D01*
X166209719Y-112128389D01*
X166219293Y-112109859D01*
X166225789Y-112099522D01*
X166247020Y-112038843D01*
X166249494Y-112032365D01*
X166269737Y-111983498D01*
X166272450Y-111969855D01*
X166277021Y-111953107D01*
X166285368Y-111929255D01*
X166291111Y-111878282D01*
X166292707Y-111868015D01*
X166300500Y-111828843D01*
X166300500Y-111801914D01*
X166301280Y-111788029D01*
X166305565Y-111750001D01*
X166305565Y-111749998D01*
X166301280Y-111711969D01*
X166300500Y-111698085D01*
X166300500Y-111671157D01*
X166292711Y-111632003D01*
X166291110Y-111621714D01*
X166285368Y-111570745D01*
X166277023Y-111546898D01*
X166272449Y-111530139D01*
X166269737Y-111516503D01*
X166269735Y-111516498D01*
X166269734Y-111516494D01*
X166249492Y-111467627D01*
X166247022Y-111461160D01*
X166225789Y-111400478D01*
X166219287Y-111390132D01*
X166209717Y-111371603D01*
X166209394Y-111370823D01*
X166209392Y-111370820D01*
X166172791Y-111316043D01*
X166170926Y-111313166D01*
X166129816Y-111247738D01*
X166002262Y-111120184D01*
X165936842Y-111079078D01*
X165933923Y-111077186D01*
X165879179Y-111040607D01*
X165879172Y-111040604D01*
X165878381Y-111040276D01*
X165859869Y-111030712D01*
X165853575Y-111026757D01*
X165849521Y-111024210D01*
X165788856Y-111002982D01*
X165782363Y-111000503D01*
X165733497Y-110980263D01*
X165733493Y-110980262D01*
X165719860Y-110977550D01*
X165703104Y-110972976D01*
X165679260Y-110964633D01*
X165679256Y-110964632D01*
X165679255Y-110964632D01*
X165658575Y-110962301D01*
X165628303Y-110958890D01*
X165618003Y-110957288D01*
X165578844Y-110949500D01*
X165578842Y-110949500D01*
X165551915Y-110949500D01*
X165538031Y-110948720D01*
X165500002Y-110944435D01*
X165499998Y-110944435D01*
X165461969Y-110948720D01*
X165448085Y-110949500D01*
X165421154Y-110949500D01*
X165381996Y-110957288D01*
X165371696Y-110958890D01*
X165320741Y-110964632D01*
X165296895Y-110972976D01*
X165280142Y-110977549D01*
X165266503Y-110980262D01*
X165266500Y-110980263D01*
X165217628Y-111000507D01*
X165211131Y-111002987D01*
X165150476Y-111024211D01*
X165140127Y-111030714D01*
X165121627Y-111040272D01*
X165120825Y-111040604D01*
X165120820Y-111040606D01*
X165066065Y-111077192D01*
X165063150Y-111079082D01*
X164997736Y-111120185D01*
X164997735Y-111120186D01*
X164847921Y-111270001D01*
X164739711Y-111378211D01*
X164683960Y-111433962D01*
X164628209Y-111489712D01*
X164540609Y-111620814D01*
X164540602Y-111620827D01*
X164480264Y-111766498D01*
X164480261Y-111766510D01*
X164449500Y-111921153D01*
X164449500Y-112549781D01*
X164429815Y-112616820D01*
X164390597Y-112655319D01*
X164306347Y-112707285D01*
X164306343Y-112707288D01*
X164300451Y-112713181D01*
X164239128Y-112746666D01*
X164212770Y-112749500D01*
X163787230Y-112749500D01*
X163720191Y-112729815D01*
X163699549Y-112713181D01*
X163693657Y-112707289D01*
X163693656Y-112707288D01*
X163550500Y-112618989D01*
X163544336Y-112615187D01*
X163544331Y-112615185D01*
X163542862Y-112614698D01*
X163377797Y-112560001D01*
X163377795Y-112560000D01*
X163275010Y-112549500D01*
X162224998Y-112549500D01*
X162224980Y-112549501D01*
X162122203Y-112560000D01*
X162122200Y-112560001D01*
X161955668Y-112615185D01*
X161955659Y-112615189D01*
X161913751Y-112641039D01*
X161848655Y-112659500D01*
X160912230Y-112659500D01*
X160845191Y-112639815D01*
X160824549Y-112623181D01*
X160768657Y-112567289D01*
X160768656Y-112567288D01*
X160619334Y-112475186D01*
X160452797Y-112420001D01*
X160452795Y-112420000D01*
X160350010Y-112409500D01*
X156149998Y-112409500D01*
X156149981Y-112409501D01*
X156047203Y-112420000D01*
X156047200Y-112420001D01*
X155880668Y-112475185D01*
X155880663Y-112475187D01*
X155731342Y-112567289D01*
X155675451Y-112623181D01*
X155614128Y-112656666D01*
X155587770Y-112659500D01*
X154682940Y-112659500D01*
X154615901Y-112639815D01*
X154595259Y-112623181D01*
X154336818Y-112364740D01*
X154303333Y-112303417D01*
X154300499Y-112277059D01*
X154300499Y-110569983D01*
X155449500Y-110569983D01*
X155449500Y-111270001D01*
X155449501Y-111270019D01*
X155460000Y-111372796D01*
X155460001Y-111372799D01*
X155512137Y-111530132D01*
X155515186Y-111539334D01*
X155607288Y-111688656D01*
X155731344Y-111812712D01*
X155880666Y-111904814D01*
X156047203Y-111959999D01*
X156149991Y-111970500D01*
X160350008Y-111970499D01*
X160452797Y-111959999D01*
X160619334Y-111904814D01*
X160768656Y-111812712D01*
X160824549Y-111756819D01*
X160885872Y-111723334D01*
X160912230Y-111720500D01*
X162408844Y-111720500D01*
X162408845Y-111720499D01*
X162563497Y-111689737D01*
X162709179Y-111629394D01*
X162840289Y-111541789D01*
X164246789Y-110135289D01*
X164254816Y-110127262D01*
X164295931Y-110061825D01*
X164297777Y-110058979D01*
X164334389Y-110004186D01*
X164334394Y-110004179D01*
X164334720Y-110003390D01*
X164344287Y-109984868D01*
X164350789Y-109974522D01*
X164372022Y-109913837D01*
X164374477Y-109907407D01*
X164394738Y-109858497D01*
X164397449Y-109844860D01*
X164402025Y-109828096D01*
X164410368Y-109804255D01*
X164416109Y-109753287D01*
X164417709Y-109743004D01*
X164425500Y-109703842D01*
X164425500Y-109676914D01*
X164426280Y-109663029D01*
X164430565Y-109625001D01*
X164430565Y-109624998D01*
X164426280Y-109586969D01*
X164425500Y-109573085D01*
X164425500Y-109546157D01*
X164417710Y-109506998D01*
X164416109Y-109496703D01*
X164410368Y-109445745D01*
X164402027Y-109421909D01*
X164397453Y-109405150D01*
X164394739Y-109391508D01*
X164394738Y-109391502D01*
X164374479Y-109342593D01*
X164372015Y-109336140D01*
X164350789Y-109275478D01*
X164350787Y-109275475D01*
X164350787Y-109275474D01*
X164347749Y-109270640D01*
X164344293Y-109265140D01*
X164334721Y-109246610D01*
X164334394Y-109245821D01*
X164297776Y-109191019D01*
X164295890Y-109188108D01*
X164254817Y-109122740D01*
X164254815Y-109122737D01*
X164251129Y-109119051D01*
X164251109Y-109119029D01*
X164132194Y-109000114D01*
X164132163Y-109000085D01*
X164127262Y-108995184D01*
X164061874Y-108954098D01*
X164058955Y-108952206D01*
X164004184Y-108915609D01*
X164004181Y-108915607D01*
X164004179Y-108915606D01*
X164004176Y-108915604D01*
X164004169Y-108915601D01*
X164003381Y-108915275D01*
X163984862Y-108905708D01*
X163974523Y-108899211D01*
X163913876Y-108877989D01*
X163907382Y-108875510D01*
X163899247Y-108872140D01*
X163858498Y-108855262D01*
X163858496Y-108855261D01*
X163858493Y-108855260D01*
X163844841Y-108852544D01*
X163828093Y-108847972D01*
X163804258Y-108839632D01*
X163804248Y-108839630D01*
X163753315Y-108833892D01*
X163743009Y-108832290D01*
X163703843Y-108824500D01*
X163676915Y-108824500D01*
X163663031Y-108823720D01*
X163625002Y-108819435D01*
X163624998Y-108819435D01*
X163586969Y-108823720D01*
X163573085Y-108824500D01*
X163546158Y-108824500D01*
X163506991Y-108832290D01*
X163496685Y-108833892D01*
X163445751Y-108839630D01*
X163445741Y-108839632D01*
X163421904Y-108847973D01*
X163405150Y-108852547D01*
X163391503Y-108855261D01*
X163342619Y-108875509D01*
X163336126Y-108877988D01*
X163275481Y-108899209D01*
X163275469Y-108899215D01*
X163265127Y-108905713D01*
X163246639Y-108915266D01*
X163245832Y-108915600D01*
X163245824Y-108915604D01*
X163191047Y-108952204D01*
X163188132Y-108954092D01*
X163122742Y-108995180D01*
X163122735Y-108995186D01*
X162034741Y-110083181D01*
X161973418Y-110116666D01*
X161947060Y-110119500D01*
X160912230Y-110119500D01*
X160845191Y-110099815D01*
X160824549Y-110083181D01*
X160768657Y-110027289D01*
X160768656Y-110027288D01*
X160619334Y-109935186D01*
X160452797Y-109880001D01*
X160452795Y-109880000D01*
X160350010Y-109869500D01*
X156149998Y-109869500D01*
X156149981Y-109869501D01*
X156047203Y-109880000D01*
X156047200Y-109880001D01*
X155880668Y-109935185D01*
X155880663Y-109935187D01*
X155731342Y-110027289D01*
X155607289Y-110151342D01*
X155515187Y-110300663D01*
X155515186Y-110300666D01*
X155460001Y-110467203D01*
X155460001Y-110467204D01*
X155460000Y-110467204D01*
X155449500Y-110569983D01*
X154300499Y-110569983D01*
X154300499Y-108259998D01*
X154300498Y-108259981D01*
X154289999Y-108157203D01*
X154289998Y-108157200D01*
X154235667Y-107993241D01*
X154234814Y-107990666D01*
X154142712Y-107841344D01*
X154018656Y-107717288D01*
X153869334Y-107625186D01*
X153702797Y-107570001D01*
X153702795Y-107570000D01*
X153600016Y-107559500D01*
X153600009Y-107559500D01*
X153600007Y-107559500D01*
X148750014Y-107559500D01*
X148750009Y-107559500D01*
X144599998Y-107559500D01*
X144599981Y-107559501D01*
X144497203Y-107570000D01*
X144497200Y-107570001D01*
X144330668Y-107625185D01*
X144330663Y-107625187D01*
X144181342Y-107717289D01*
X144057289Y-107841342D01*
X143965061Y-107990868D01*
X143964332Y-107993241D01*
X143910001Y-108157201D01*
X143910000Y-108157205D01*
X143899500Y-108259985D01*
X143250500Y-108259985D01*
X143250500Y-101028149D01*
X145000000Y-101028149D01*
X145002899Y-101064989D01*
X145002900Y-101064995D01*
X145048716Y-101222693D01*
X145048717Y-101222696D01*
X145132314Y-101364052D01*
X145132321Y-101364061D01*
X145248438Y-101480178D01*
X145248447Y-101480185D01*
X145389801Y-101563781D01*
X145547514Y-101609600D01*
X145547511Y-101609600D01*
X145549998Y-101609795D01*
X145550000Y-101609795D01*
X145550000Y-100625000D01*
X145000000Y-100625000D01*
X145000000Y-101028149D01*
X143250500Y-101028149D01*
X143250500Y-99721850D01*
X145000000Y-99721850D01*
X145000000Y-100125000D01*
X145550000Y-100125000D01*
X146050000Y-100125000D01*
X146600000Y-100125000D01*
X146600000Y-99721865D01*
X146599999Y-99721850D01*
X146597100Y-99685010D01*
X146597099Y-99685004D01*
X146551283Y-99527306D01*
X146551282Y-99527303D01*
X146467685Y-99385947D01*
X146467678Y-99385938D01*
X146351561Y-99269821D01*
X146351552Y-99269814D01*
X146210196Y-99186217D01*
X146210193Y-99186216D01*
X146052494Y-99140400D01*
X146052497Y-99140400D01*
X146050000Y-99140203D01*
X146050000Y-100125000D01*
X145550000Y-100125000D01*
X145550000Y-99140203D01*
X145547503Y-99140400D01*
X145389806Y-99186216D01*
X145389803Y-99186217D01*
X145248447Y-99269814D01*
X145248438Y-99269821D01*
X145132321Y-99385938D01*
X145132314Y-99385947D01*
X145048717Y-99527303D01*
X145048716Y-99527306D01*
X145002900Y-99685004D01*
X145002899Y-99685010D01*
X145000000Y-99721850D01*
X143250500Y-99721850D01*
X143250500Y-87959999D01*
X144394341Y-87959999D01*
X144394341Y-87960000D01*
X144414936Y-88195403D01*
X144414938Y-88195413D01*
X144476094Y-88423655D01*
X144476096Y-88423659D01*
X144476097Y-88423663D01*
X144575965Y-88637830D01*
X144575967Y-88637834D01*
X144682472Y-88789938D01*
X144711505Y-88831401D01*
X144878599Y-88998495D01*
X144982719Y-89071401D01*
X145064594Y-89128730D01*
X145108219Y-89183307D01*
X145115413Y-89252805D01*
X145083890Y-89315160D01*
X145064595Y-89331880D01*
X144878922Y-89461890D01*
X144878920Y-89461891D01*
X144711891Y-89628920D01*
X144711886Y-89628926D01*
X144576400Y-89822420D01*
X144576399Y-89822422D01*
X144476570Y-90036507D01*
X144476567Y-90036513D01*
X144419364Y-90249999D01*
X144419364Y-90250000D01*
X145316988Y-90250000D01*
X145284075Y-90307007D01*
X145250000Y-90434174D01*
X145250000Y-90565826D01*
X145284075Y-90692993D01*
X145316988Y-90750000D01*
X144419364Y-90750000D01*
X144476567Y-90963486D01*
X144476570Y-90963492D01*
X144576399Y-91177578D01*
X144711894Y-91371082D01*
X144878917Y-91538105D01*
X145072421Y-91673600D01*
X145286507Y-91773429D01*
X145286516Y-91773433D01*
X145500000Y-91830634D01*
X145500000Y-90933012D01*
X145557007Y-90965925D01*
X145684174Y-91000000D01*
X145815826Y-91000000D01*
X145942993Y-90965925D01*
X146000000Y-90933012D01*
X146000000Y-91830633D01*
X146213483Y-91773433D01*
X146213492Y-91773429D01*
X146427578Y-91673600D01*
X146621082Y-91538105D01*
X146788105Y-91371082D01*
X146923600Y-91177578D01*
X147023429Y-90963492D01*
X147023432Y-90963486D01*
X147080636Y-90750000D01*
X146183012Y-90750000D01*
X146215925Y-90692993D01*
X146250000Y-90565826D01*
X146250000Y-90434174D01*
X146215925Y-90307007D01*
X146183012Y-90250000D01*
X147080636Y-90250000D01*
X147080635Y-90249999D01*
X147023432Y-90036513D01*
X147023429Y-90036507D01*
X146923600Y-89822422D01*
X146923599Y-89822420D01*
X146788113Y-89628926D01*
X146788108Y-89628920D01*
X146621078Y-89461890D01*
X146435405Y-89331879D01*
X146391780Y-89277302D01*
X146384588Y-89207804D01*
X146416110Y-89145449D01*
X146435406Y-89128730D01*
X146517279Y-89071402D01*
X146621401Y-88998495D01*
X146788495Y-88831401D01*
X146788503Y-88831389D01*
X146789859Y-88829774D01*
X146790648Y-88829248D01*
X146792324Y-88827573D01*
X146792660Y-88827909D01*
X146848023Y-88791060D01*
X146917884Y-88789938D01*
X146972545Y-88821780D01*
X150405139Y-92254374D01*
X150405149Y-92254385D01*
X150409479Y-92258715D01*
X150409480Y-92258716D01*
X150521284Y-92370520D01*
X150595435Y-92413330D01*
X150608095Y-92420639D01*
X150608097Y-92420641D01*
X150658213Y-92449576D01*
X150658215Y-92449577D01*
X150810942Y-92490500D01*
X150810943Y-92490500D01*
X157003331Y-92490500D01*
X157003347Y-92490501D01*
X157010943Y-92490501D01*
X157169054Y-92490501D01*
X157169057Y-92490501D01*
X157321785Y-92449577D01*
X157371904Y-92420639D01*
X157458716Y-92370520D01*
X157570520Y-92258716D01*
X157570520Y-92258714D01*
X157580728Y-92248507D01*
X157580730Y-92248504D01*
X157756470Y-92072763D01*
X157817791Y-92039280D01*
X157876238Y-92040670D01*
X158004592Y-92075063D01*
X158192918Y-92091539D01*
X158239999Y-92095659D01*
X158240000Y-92095659D01*
X158240001Y-92095659D01*
X158279234Y-92092226D01*
X158475408Y-92075063D01*
X158703663Y-92013903D01*
X158917830Y-91914035D01*
X159111401Y-91778495D01*
X159278495Y-91611401D01*
X159408730Y-91425405D01*
X159463307Y-91381781D01*
X159532805Y-91374587D01*
X159595160Y-91406110D01*
X159611879Y-91425405D01*
X159741890Y-91611078D01*
X159908917Y-91778105D01*
X160102421Y-91913600D01*
X160316507Y-92013429D01*
X160316516Y-92013433D01*
X160530000Y-92070634D01*
X160530000Y-91173012D01*
X160587007Y-91205925D01*
X160714174Y-91240000D01*
X160845826Y-91240000D01*
X160972993Y-91205925D01*
X161030000Y-91173012D01*
X161030000Y-92070633D01*
X161243407Y-92013453D01*
X161313257Y-92015116D01*
X161371119Y-92054279D01*
X161398623Y-92118507D01*
X161399500Y-92133228D01*
X161399500Y-92199903D01*
X161379815Y-92266942D01*
X161363181Y-92287584D01*
X157287584Y-96363181D01*
X157226261Y-96396666D01*
X157199903Y-96399500D01*
X148755301Y-96399500D01*
X148688262Y-96379815D01*
X148642507Y-96327011D01*
X148637595Y-96314504D01*
X148609814Y-96230666D01*
X148517712Y-96081344D01*
X148393656Y-95957288D01*
X148244334Y-95865186D01*
X148077797Y-95810001D01*
X148077795Y-95810000D01*
X147975010Y-95799500D01*
X147349998Y-95799500D01*
X147349980Y-95799501D01*
X147247203Y-95810000D01*
X147247200Y-95810001D01*
X147080668Y-95865185D01*
X147080663Y-95865187D01*
X146931342Y-95957289D01*
X146837681Y-96050951D01*
X146776358Y-96084436D01*
X146706666Y-96079452D01*
X146662319Y-96050951D01*
X146568657Y-95957289D01*
X146568656Y-95957288D01*
X146419334Y-95865186D01*
X146252797Y-95810001D01*
X146252795Y-95810000D01*
X146150010Y-95799500D01*
X145524998Y-95799500D01*
X145524980Y-95799501D01*
X145422203Y-95810000D01*
X145422200Y-95810001D01*
X145255668Y-95865185D01*
X145255663Y-95865187D01*
X145106342Y-95957289D01*
X144982289Y-96081342D01*
X144890187Y-96230663D01*
X144890186Y-96230666D01*
X144835001Y-96397203D01*
X144835001Y-96397204D01*
X144835000Y-96397204D01*
X144824500Y-96499983D01*
X144824500Y-97500001D01*
X144824501Y-97500019D01*
X144835000Y-97602796D01*
X144835001Y-97602799D01*
X144890185Y-97769331D01*
X144890186Y-97769334D01*
X144982288Y-97918656D01*
X145106344Y-98042712D01*
X145255666Y-98134814D01*
X145422203Y-98189999D01*
X145524991Y-98200500D01*
X146137401Y-98200499D01*
X146204440Y-98220183D01*
X146225082Y-98236818D01*
X147063181Y-99074916D01*
X147096666Y-99136239D01*
X147099500Y-99162597D01*
X147099500Y-99266691D01*
X147079815Y-99333730D01*
X147063181Y-99354372D01*
X147031923Y-99385629D01*
X147031917Y-99385637D01*
X146948255Y-99527103D01*
X146948254Y-99527106D01*
X146902402Y-99684926D01*
X146902401Y-99684932D01*
X146899500Y-99721798D01*
X146899500Y-100888000D01*
X146879815Y-100955039D01*
X146827011Y-101000794D01*
X146775500Y-101012000D01*
X146724000Y-101012000D01*
X146656961Y-100992315D01*
X146611206Y-100939511D01*
X146600000Y-100888000D01*
X146600000Y-100625000D01*
X146050000Y-100625000D01*
X146050000Y-101280684D01*
X146032733Y-101343804D01*
X145998254Y-101402105D01*
X145998254Y-101402106D01*
X145952402Y-101559926D01*
X145952401Y-101559932D01*
X145949500Y-101596798D01*
X145949500Y-102903201D01*
X145952401Y-102940067D01*
X145952402Y-102940073D01*
X145998254Y-103097893D01*
X145998255Y-103097896D01*
X146081917Y-103239362D01*
X146081923Y-103239370D01*
X146198129Y-103355576D01*
X146198133Y-103355579D01*
X146198135Y-103355581D01*
X146339602Y-103439244D01*
X146381224Y-103451336D01*
X146497426Y-103485097D01*
X146497429Y-103485097D01*
X146497431Y-103485098D01*
X146534306Y-103488000D01*
X146534314Y-103488000D01*
X146965686Y-103488000D01*
X146965694Y-103488000D01*
X147002569Y-103485098D01*
X147094492Y-103458390D01*
X147161181Y-103457692D01*
X147168214Y-103459576D01*
X147168215Y-103459577D01*
X147320943Y-103500501D01*
X147320946Y-103500501D01*
X147486653Y-103500501D01*
X147486669Y-103500500D01*
X150434996Y-103500500D01*
X150502035Y-103520185D01*
X150540535Y-103559404D01*
X150552031Y-103578043D01*
X150671955Y-103697967D01*
X150671959Y-103697970D01*
X150816294Y-103786998D01*
X150816297Y-103786999D01*
X150816303Y-103787003D01*
X150977292Y-103840349D01*
X151076655Y-103850500D01*
X151923344Y-103850499D01*
X151923352Y-103850498D01*
X151923355Y-103850498D01*
X151977760Y-103844940D01*
X152022708Y-103840349D01*
X152183697Y-103787003D01*
X152328044Y-103697968D01*
X152447968Y-103578044D01*
X152459465Y-103559403D01*
X152511412Y-103512679D01*
X152565004Y-103500500D01*
X161189372Y-103500500D01*
X161189388Y-103500501D01*
X161196984Y-103500501D01*
X161355095Y-103500501D01*
X161355098Y-103500501D01*
X161507826Y-103459577D01*
X161557945Y-103430639D01*
X161644757Y-103380520D01*
X161756561Y-103268716D01*
X161756561Y-103268714D01*
X161766769Y-103258507D01*
X161766770Y-103258504D01*
X163663104Y-101362171D01*
X163724425Y-101328688D01*
X163794117Y-101333672D01*
X163800493Y-101336390D01*
X163803023Y-101337382D01*
X163803037Y-101337389D01*
X164046583Y-101412513D01*
X164298606Y-101450500D01*
X164553476Y-101450500D01*
X164805499Y-101412513D01*
X165049045Y-101337389D01*
X165278675Y-101226805D01*
X165489258Y-101083232D01*
X165676091Y-100909877D01*
X165835000Y-100710612D01*
X165962434Y-100489888D01*
X166055549Y-100252637D01*
X166112263Y-100004157D01*
X166131309Y-99750000D01*
X166129199Y-99721850D01*
X166114621Y-99527306D01*
X166112263Y-99495843D01*
X166055549Y-99247363D01*
X165962434Y-99010112D01*
X165835000Y-98789388D01*
X165676091Y-98590123D01*
X165489258Y-98416768D01*
X165278675Y-98273195D01*
X165278671Y-98273193D01*
X165278668Y-98273191D01*
X165278667Y-98273190D01*
X165049047Y-98162612D01*
X165049049Y-98162612D01*
X164805507Y-98087489D01*
X164805503Y-98087488D01*
X164805499Y-98087487D01*
X164684272Y-98069214D01*
X164553481Y-98049500D01*
X164553476Y-98049500D01*
X164298606Y-98049500D01*
X164298600Y-98049500D01*
X164141650Y-98073157D01*
X164046583Y-98087487D01*
X164046580Y-98087488D01*
X164046574Y-98087489D01*
X163803033Y-98162612D01*
X163573414Y-98273190D01*
X163573413Y-98273191D01*
X163362823Y-98416768D01*
X163175993Y-98590121D01*
X163175991Y-98590123D01*
X163017082Y-98789388D01*
X162889649Y-99010109D01*
X162796533Y-99247362D01*
X162796531Y-99247369D01*
X162739818Y-99495845D01*
X162720773Y-99749995D01*
X162720773Y-99750004D01*
X162739818Y-100004154D01*
X162784633Y-100200500D01*
X162796533Y-100252637D01*
X162845124Y-100376444D01*
X162851292Y-100446041D01*
X162818854Y-100507925D01*
X162817376Y-100509427D01*
X161063625Y-102263181D01*
X161002302Y-102296666D01*
X160975944Y-102299500D01*
X152565004Y-102299500D01*
X152497965Y-102279815D01*
X152459465Y-102240596D01*
X152457607Y-102237584D01*
X152447968Y-102221956D01*
X152328044Y-102102032D01*
X152328040Y-102102029D01*
X152183705Y-102013001D01*
X152183699Y-102012998D01*
X152183697Y-102012997D01*
X152183694Y-102012996D01*
X152022709Y-101959651D01*
X151923346Y-101949500D01*
X151076662Y-101949500D01*
X151076644Y-101949501D01*
X150977292Y-101959650D01*
X150977289Y-101959651D01*
X150816305Y-102012996D01*
X150816294Y-102013001D01*
X150671959Y-102102029D01*
X150671955Y-102102032D01*
X150552031Y-102221956D01*
X150543571Y-102235672D01*
X150542393Y-102237584D01*
X150540535Y-102240596D01*
X150488588Y-102287321D01*
X150434996Y-102299500D01*
X147700097Y-102299500D01*
X147633058Y-102279815D01*
X147612416Y-102263181D01*
X147586819Y-102237584D01*
X147553334Y-102176261D01*
X147550500Y-102149903D01*
X147550500Y-101737000D01*
X147570185Y-101669961D01*
X147622989Y-101624206D01*
X147674500Y-101613000D01*
X147915686Y-101613000D01*
X147915694Y-101613000D01*
X147952569Y-101610098D01*
X147952571Y-101610097D01*
X147952573Y-101610097D01*
X147998347Y-101596798D01*
X148110398Y-101564244D01*
X148251865Y-101480581D01*
X148368081Y-101364365D01*
X148451744Y-101222898D01*
X148497598Y-101065069D01*
X148500500Y-101028194D01*
X148500500Y-99721806D01*
X148497598Y-99684931D01*
X148451744Y-99527102D01*
X148368081Y-99385635D01*
X148368079Y-99385633D01*
X148368076Y-99385629D01*
X148336819Y-99354372D01*
X148321680Y-99326647D01*
X150399500Y-99326647D01*
X150399500Y-99873337D01*
X150399501Y-99873355D01*
X150409650Y-99972707D01*
X150409651Y-99972710D01*
X150462996Y-100133694D01*
X150463001Y-100133705D01*
X150552029Y-100278040D01*
X150552032Y-100278044D01*
X150671955Y-100397967D01*
X150671959Y-100397970D01*
X150816294Y-100486998D01*
X150816297Y-100486999D01*
X150816303Y-100487003D01*
X150977292Y-100540349D01*
X151076655Y-100550500D01*
X151923344Y-100550499D01*
X151923352Y-100550498D01*
X151923355Y-100550498D01*
X151977760Y-100544940D01*
X152022708Y-100540349D01*
X152183697Y-100487003D01*
X152328044Y-100397968D01*
X152447968Y-100278044D01*
X152459465Y-100259403D01*
X152511412Y-100212679D01*
X152565004Y-100200500D01*
X155101542Y-100200500D01*
X155168581Y-100220185D01*
X155214336Y-100272989D01*
X155225542Y-100324500D01*
X155225542Y-100997876D01*
X155231949Y-101057483D01*
X155282243Y-101192328D01*
X155282247Y-101192335D01*
X155368493Y-101307544D01*
X155368496Y-101307547D01*
X155483705Y-101393793D01*
X155483712Y-101393797D01*
X155618558Y-101444091D01*
X155618557Y-101444091D01*
X155625485Y-101444835D01*
X155678168Y-101450500D01*
X158173913Y-101450499D01*
X158233524Y-101444091D01*
X158368372Y-101393796D01*
X158483587Y-101307546D01*
X158569837Y-101192331D01*
X158620132Y-101057483D01*
X158626541Y-100997873D01*
X158626540Y-98502128D01*
X158620132Y-98442517D01*
X158610528Y-98416768D01*
X158569838Y-98307671D01*
X158569834Y-98307664D01*
X158483588Y-98192455D01*
X158483585Y-98192452D01*
X158368376Y-98106206D01*
X158368369Y-98106202D01*
X158233523Y-98055908D01*
X158233524Y-98055908D01*
X158173924Y-98049501D01*
X158173922Y-98049500D01*
X158173914Y-98049500D01*
X158173905Y-98049500D01*
X155678170Y-98049500D01*
X155678164Y-98049501D01*
X155618557Y-98055908D01*
X155483712Y-98106202D01*
X155483705Y-98106206D01*
X155368496Y-98192452D01*
X155368493Y-98192455D01*
X155282247Y-98307664D01*
X155282243Y-98307671D01*
X155231949Y-98442517D01*
X155226437Y-98493790D01*
X155225542Y-98502123D01*
X155225541Y-98502135D01*
X155225541Y-98875500D01*
X155205856Y-98942539D01*
X155153052Y-98988294D01*
X155101541Y-98999500D01*
X152565004Y-98999500D01*
X152497965Y-98979815D01*
X152459465Y-98940596D01*
X152447968Y-98921956D01*
X152328044Y-98802032D01*
X152328040Y-98802029D01*
X152183705Y-98713001D01*
X152183699Y-98712998D01*
X152183697Y-98712997D01*
X152183694Y-98712996D01*
X152022709Y-98659651D01*
X151923346Y-98649500D01*
X151076662Y-98649500D01*
X151076644Y-98649501D01*
X150977292Y-98659650D01*
X150977289Y-98659651D01*
X150816305Y-98712996D01*
X150816294Y-98713001D01*
X150671959Y-98802029D01*
X150671955Y-98802032D01*
X150552032Y-98921955D01*
X150552029Y-98921959D01*
X150463001Y-99066294D01*
X150462996Y-99066305D01*
X150409651Y-99227290D01*
X150399500Y-99326647D01*
X148321680Y-99326647D01*
X148303334Y-99293049D01*
X148300500Y-99266691D01*
X148300500Y-98951560D01*
X148300501Y-98951547D01*
X148300501Y-98783444D01*
X148300501Y-98783443D01*
X148259577Y-98630716D01*
X148236140Y-98590121D01*
X148180524Y-98493790D01*
X148180522Y-98493787D01*
X148180521Y-98493786D01*
X148180520Y-98493784D01*
X148068927Y-98382191D01*
X148035444Y-98320872D01*
X148040428Y-98251180D01*
X148082299Y-98195246D01*
X148117602Y-98176808D01*
X148244334Y-98134814D01*
X148393656Y-98042712D01*
X148517712Y-97918656D01*
X148609814Y-97769334D01*
X148637595Y-97685495D01*
X148677368Y-97628051D01*
X148741884Y-97601228D01*
X148755301Y-97600500D01*
X157413331Y-97600500D01*
X157413347Y-97600501D01*
X157420943Y-97600501D01*
X157579054Y-97600501D01*
X157579057Y-97600501D01*
X157731785Y-97559577D01*
X157781904Y-97530639D01*
X157868716Y-97480520D01*
X157980520Y-97368716D01*
X157980520Y-97368714D01*
X157990728Y-97358507D01*
X157990730Y-97358504D01*
X162368713Y-92980521D01*
X162368716Y-92980520D01*
X162480520Y-92868716D01*
X162530639Y-92781904D01*
X162559577Y-92731785D01*
X162600501Y-92579057D01*
X162600501Y-92420943D01*
X162600501Y-92413348D01*
X162600500Y-92413330D01*
X162600500Y-92089245D01*
X162620185Y-92022206D01*
X162672989Y-91976451D01*
X162742147Y-91966507D01*
X162776904Y-91976862D01*
X162856337Y-92013903D01*
X162856343Y-92013904D01*
X162856344Y-92013905D01*
X162911285Y-92028626D01*
X163084592Y-92075063D01*
X163272918Y-92091539D01*
X163319999Y-92095659D01*
X163320000Y-92095659D01*
X163320001Y-92095659D01*
X163359234Y-92092226D01*
X163555408Y-92075063D01*
X163783663Y-92013903D01*
X163997830Y-91914035D01*
X164191401Y-91778495D01*
X164358495Y-91611401D01*
X164494035Y-91417830D01*
X164593903Y-91203663D01*
X164655063Y-90975408D01*
X164675659Y-90740000D01*
X164655063Y-90504592D01*
X164593903Y-90276337D01*
X164494035Y-90062171D01*
X164488731Y-90054595D01*
X164358494Y-89868597D01*
X164191402Y-89701506D01*
X164191396Y-89701501D01*
X164005842Y-89571575D01*
X163962217Y-89516998D01*
X163955023Y-89447500D01*
X163986546Y-89385145D01*
X164005842Y-89368425D01*
X164028026Y-89352891D01*
X164191401Y-89238495D01*
X164358495Y-89071401D01*
X164494035Y-88877830D01*
X164593903Y-88663663D01*
X164655063Y-88435408D01*
X164675659Y-88200000D01*
X164655063Y-87964592D01*
X164593903Y-87736337D01*
X164494035Y-87522171D01*
X164488425Y-87514158D01*
X164358494Y-87328597D01*
X164191402Y-87161506D01*
X164191395Y-87161501D01*
X163997834Y-87025967D01*
X163997830Y-87025965D01*
X163870678Y-86966673D01*
X163783663Y-86926097D01*
X163783659Y-86926096D01*
X163783655Y-86926094D01*
X163555413Y-86864938D01*
X163555403Y-86864936D01*
X163320001Y-86844341D01*
X163319999Y-86844341D01*
X163084596Y-86864936D01*
X163084586Y-86864938D01*
X162856344Y-86926094D01*
X162856335Y-86926098D01*
X162642171Y-87025964D01*
X162642169Y-87025965D01*
X162448597Y-87161505D01*
X162281505Y-87328597D01*
X162151575Y-87514158D01*
X162096998Y-87557783D01*
X162027500Y-87564977D01*
X161965145Y-87533454D01*
X161948425Y-87514158D01*
X161818494Y-87328597D01*
X161651402Y-87161506D01*
X161651395Y-87161501D01*
X161457834Y-87025967D01*
X161457830Y-87025965D01*
X161330678Y-86966673D01*
X161243663Y-86926097D01*
X161243659Y-86926096D01*
X161243655Y-86926094D01*
X161015413Y-86864938D01*
X161015403Y-86864936D01*
X160780001Y-86844341D01*
X160779999Y-86844341D01*
X160544596Y-86864936D01*
X160544583Y-86864939D01*
X160416241Y-86899327D01*
X160346392Y-86897664D01*
X160296468Y-86867233D01*
X159567590Y-86138355D01*
X159567588Y-86138352D01*
X159448717Y-86019481D01*
X159448716Y-86019480D01*
X159354351Y-85964999D01*
X159354350Y-85964998D01*
X159311783Y-85940422D01*
X159255881Y-85925443D01*
X159159057Y-85899499D01*
X159000943Y-85899499D01*
X158993347Y-85899499D01*
X158993331Y-85899500D01*
X157365783Y-85899500D01*
X157298744Y-85879815D01*
X157278102Y-85863181D01*
X151367056Y-79952135D01*
X155499500Y-79952135D01*
X155499500Y-83047870D01*
X155499501Y-83047876D01*
X155505908Y-83107483D01*
X155556202Y-83242328D01*
X155556206Y-83242335D01*
X155642452Y-83357544D01*
X155642455Y-83357547D01*
X155757664Y-83443793D01*
X155757671Y-83443797D01*
X155892517Y-83494091D01*
X155892516Y-83494091D01*
X155899444Y-83494835D01*
X155952127Y-83500500D01*
X158047872Y-83500499D01*
X158107483Y-83494091D01*
X158242331Y-83443796D01*
X158357546Y-83357546D01*
X158443796Y-83242331D01*
X158494091Y-83107483D01*
X158500500Y-83047873D01*
X158500500Y-82424500D01*
X158520185Y-82357461D01*
X158572989Y-82311706D01*
X158624500Y-82300500D01*
X159075500Y-82300500D01*
X159142539Y-82320185D01*
X159188294Y-82372989D01*
X159199500Y-82424500D01*
X159199500Y-84198085D01*
X159198720Y-84211969D01*
X159194435Y-84249998D01*
X159194435Y-84250001D01*
X159198720Y-84288029D01*
X159199500Y-84301914D01*
X159199500Y-84328844D01*
X159207288Y-84368003D01*
X159208890Y-84378303D01*
X159214632Y-84429252D01*
X159214633Y-84429260D01*
X159222976Y-84453104D01*
X159227550Y-84469860D01*
X159230262Y-84483496D01*
X159250509Y-84532377D01*
X159252988Y-84538872D01*
X159274212Y-84599524D01*
X159280709Y-84609865D01*
X159290268Y-84628365D01*
X159290603Y-84629173D01*
X159290605Y-84629179D01*
X159327223Y-84683982D01*
X159329114Y-84686900D01*
X159370180Y-84752257D01*
X159370182Y-84752260D01*
X159370184Y-84752262D01*
X159497738Y-84879816D01*
X159563096Y-84920883D01*
X159563131Y-84920905D01*
X159566040Y-84922790D01*
X159620821Y-84959394D01*
X159621606Y-84959719D01*
X159640134Y-84969289D01*
X159650478Y-84975789D01*
X159711175Y-84997028D01*
X159717607Y-84999484D01*
X159746021Y-85011253D01*
X159766497Y-85019735D01*
X159766498Y-85019735D01*
X159766503Y-85019737D01*
X159780139Y-85022449D01*
X159796898Y-85027023D01*
X159820745Y-85035368D01*
X159871714Y-85041110D01*
X159881992Y-85042709D01*
X159909140Y-85048109D01*
X159921157Y-85050500D01*
X159921158Y-85050500D01*
X159948085Y-85050500D01*
X159961969Y-85051280D01*
X159999998Y-85055565D01*
X160000000Y-85055565D01*
X160000002Y-85055565D01*
X160038031Y-85051280D01*
X160051915Y-85050500D01*
X160078841Y-85050500D01*
X160078842Y-85050500D01*
X160118017Y-85042707D01*
X160128283Y-85041110D01*
X160179255Y-85035368D01*
X160203100Y-85027023D01*
X160219862Y-85022448D01*
X160233497Y-85019737D01*
X160282389Y-84999484D01*
X160288837Y-84997023D01*
X160349522Y-84975789D01*
X160359868Y-84969287D01*
X160378390Y-84959720D01*
X160379179Y-84959394D01*
X160433987Y-84922771D01*
X160436825Y-84920931D01*
X160502262Y-84879816D01*
X160629816Y-84752262D01*
X160670931Y-84686825D01*
X160672777Y-84683979D01*
X160709389Y-84629186D01*
X160709394Y-84629179D01*
X160709720Y-84628390D01*
X160719287Y-84609868D01*
X160725789Y-84599522D01*
X160747023Y-84538837D01*
X160749490Y-84532377D01*
X160769737Y-84483497D01*
X160772449Y-84469860D01*
X160777023Y-84453100D01*
X160785368Y-84429255D01*
X160791110Y-84378283D01*
X160792707Y-84368017D01*
X160800500Y-84328842D01*
X160800500Y-84301914D01*
X160801280Y-84288029D01*
X160805565Y-84250001D01*
X160805565Y-84249998D01*
X160801280Y-84211969D01*
X160800500Y-84198085D01*
X160800500Y-82424500D01*
X160820185Y-82357461D01*
X160872989Y-82311706D01*
X160924500Y-82300500D01*
X161375501Y-82300500D01*
X161442540Y-82320185D01*
X161488295Y-82372989D01*
X161499501Y-82424500D01*
X161499501Y-83047876D01*
X161505908Y-83107483D01*
X161541682Y-83203395D01*
X161549500Y-83246728D01*
X161549500Y-83712770D01*
X161529815Y-83779809D01*
X161513181Y-83800451D01*
X161507289Y-83806342D01*
X161415187Y-83955663D01*
X161415185Y-83955668D01*
X161415115Y-83955880D01*
X161360001Y-84122203D01*
X161360001Y-84122204D01*
X161360000Y-84122204D01*
X161349500Y-84224983D01*
X161349500Y-85275001D01*
X161349501Y-85275019D01*
X161360000Y-85377796D01*
X161360001Y-85377799D01*
X161415115Y-85544119D01*
X161415186Y-85544334D01*
X161507288Y-85693656D01*
X161631344Y-85817712D01*
X161780666Y-85909814D01*
X161947203Y-85964999D01*
X162049991Y-85975500D01*
X162650008Y-85975499D01*
X162650016Y-85975498D01*
X162650019Y-85975498D01*
X162706302Y-85969748D01*
X162752797Y-85964999D01*
X162919334Y-85909814D01*
X163068656Y-85817712D01*
X163192712Y-85693656D01*
X163194752Y-85690347D01*
X163196745Y-85688555D01*
X163197193Y-85687989D01*
X163197289Y-85688065D01*
X163246694Y-85643623D01*
X163315656Y-85632395D01*
X163379740Y-85660234D01*
X163405829Y-85690339D01*
X163407681Y-85693341D01*
X163407683Y-85693344D01*
X163531654Y-85817315D01*
X163680875Y-85909356D01*
X163680880Y-85909358D01*
X163847302Y-85964505D01*
X163847309Y-85964506D01*
X163950019Y-85974999D01*
X164500000Y-85974999D01*
X164549972Y-85974999D01*
X164549986Y-85974998D01*
X164652697Y-85964505D01*
X164819119Y-85909358D01*
X164819124Y-85909356D01*
X164968345Y-85817315D01*
X165092315Y-85693345D01*
X165184356Y-85544124D01*
X165184358Y-85544119D01*
X165239505Y-85377697D01*
X165239506Y-85377690D01*
X165249999Y-85274986D01*
X165250000Y-85274973D01*
X165250000Y-85000000D01*
X164500000Y-85000000D01*
X164500000Y-85974999D01*
X163950019Y-85974999D01*
X163999999Y-85974998D01*
X164000000Y-85974998D01*
X164000000Y-84874000D01*
X164019685Y-84806961D01*
X164072489Y-84761206D01*
X164124000Y-84750000D01*
X164250000Y-84750000D01*
X164250000Y-84624000D01*
X164269685Y-84556961D01*
X164322489Y-84511206D01*
X164374000Y-84500000D01*
X165249999Y-84500000D01*
X165249999Y-84225028D01*
X165249998Y-84225013D01*
X165239505Y-84122302D01*
X165184358Y-83955880D01*
X165184356Y-83955875D01*
X165092315Y-83806654D01*
X164968345Y-83682684D01*
X164819124Y-83590643D01*
X164819119Y-83590641D01*
X164652697Y-83535494D01*
X164652690Y-83535493D01*
X164549986Y-83525000D01*
X164479911Y-83525000D01*
X164412872Y-83505315D01*
X164367117Y-83452511D01*
X164357173Y-83383353D01*
X164380643Y-83326691D01*
X164443796Y-83242331D01*
X164494091Y-83107483D01*
X164500500Y-83047873D01*
X164500499Y-79952128D01*
X164494091Y-79892517D01*
X164443796Y-79757669D01*
X164443795Y-79757668D01*
X164443793Y-79757664D01*
X164357547Y-79642455D01*
X164357544Y-79642452D01*
X164242335Y-79556206D01*
X164242328Y-79556202D01*
X164107482Y-79505908D01*
X164107483Y-79505908D01*
X164047883Y-79499501D01*
X164047881Y-79499500D01*
X164047873Y-79499500D01*
X164047864Y-79499500D01*
X161952129Y-79499500D01*
X161952123Y-79499501D01*
X161892516Y-79505908D01*
X161757671Y-79556202D01*
X161757664Y-79556206D01*
X161642455Y-79642452D01*
X161642452Y-79642455D01*
X161556206Y-79757664D01*
X161556202Y-79757671D01*
X161505908Y-79892517D01*
X161499501Y-79952116D01*
X161499501Y-79952123D01*
X161499500Y-79952135D01*
X161499500Y-80575500D01*
X161479815Y-80642539D01*
X161427011Y-80688294D01*
X161375500Y-80699500D01*
X158624499Y-80699500D01*
X158557460Y-80679815D01*
X158511705Y-80627011D01*
X158500499Y-80575500D01*
X158500499Y-79952129D01*
X158500498Y-79952123D01*
X158500497Y-79952116D01*
X158494091Y-79892517D01*
X158443796Y-79757669D01*
X158443795Y-79757668D01*
X158443793Y-79757664D01*
X158357547Y-79642455D01*
X158357544Y-79642452D01*
X158242335Y-79556206D01*
X158242328Y-79556202D01*
X158107482Y-79505908D01*
X158107483Y-79505908D01*
X158047883Y-79499501D01*
X158047881Y-79499500D01*
X158047873Y-79499500D01*
X158047864Y-79499500D01*
X155952129Y-79499500D01*
X155952123Y-79499501D01*
X155892516Y-79505908D01*
X155757671Y-79556202D01*
X155757664Y-79556206D01*
X155642455Y-79642452D01*
X155642452Y-79642455D01*
X155556206Y-79757664D01*
X155556202Y-79757671D01*
X155505908Y-79892517D01*
X155499501Y-79952116D01*
X155499501Y-79952123D01*
X155499500Y-79952135D01*
X151367056Y-79952135D01*
X150461819Y-79046898D01*
X150428334Y-78985575D01*
X150425500Y-78959217D01*
X150425500Y-76830391D01*
X150425499Y-76830387D01*
X150417857Y-76801866D01*
X150417857Y-76801865D01*
X150384577Y-76677663D01*
X150329299Y-76581919D01*
X150305520Y-76540732D01*
X150193716Y-76428928D01*
X150193715Y-76428927D01*
X150189385Y-76424597D01*
X150189374Y-76424587D01*
X150061819Y-76297032D01*
X150028334Y-76235709D01*
X150025500Y-76209351D01*
X150025500Y-76034313D01*
X150025499Y-76034298D01*
X150022598Y-75997431D01*
X150022480Y-75996785D01*
X150022518Y-75996419D01*
X150022101Y-75991114D01*
X150023085Y-75991036D01*
X150029796Y-75927299D01*
X150073517Y-75872799D01*
X150139763Y-75850589D01*
X150144461Y-75850500D01*
X150917588Y-75850500D01*
X150984627Y-75870185D01*
X150994903Y-75877555D01*
X150997736Y-75879814D01*
X150997738Y-75879816D01*
X151150478Y-75975789D01*
X151317687Y-76034298D01*
X151320745Y-76035368D01*
X151320750Y-76035369D01*
X151499996Y-76055565D01*
X151500000Y-76055565D01*
X151500004Y-76055565D01*
X151679249Y-76035369D01*
X151679252Y-76035368D01*
X151679255Y-76035368D01*
X151849522Y-75975789D01*
X151967630Y-75901577D01*
X157249500Y-75901577D01*
X157249500Y-76098422D01*
X157280290Y-76292826D01*
X157341117Y-76480029D01*
X157430476Y-76655405D01*
X157546172Y-76814646D01*
X157685354Y-76953828D01*
X157844595Y-77069524D01*
X157927455Y-77111743D01*
X158019970Y-77158882D01*
X158019972Y-77158882D01*
X158019975Y-77158884D01*
X158120317Y-77191487D01*
X158207173Y-77219709D01*
X158401578Y-77250500D01*
X158401583Y-77250500D01*
X158598422Y-77250500D01*
X158792826Y-77219709D01*
X158980025Y-77158884D01*
X159155405Y-77069524D01*
X159314646Y-76953828D01*
X159453828Y-76814646D01*
X159569524Y-76655405D01*
X159658884Y-76480025D01*
X159701605Y-76348543D01*
X161899499Y-76348543D01*
X161937947Y-76541829D01*
X161937950Y-76541839D01*
X162013364Y-76723907D01*
X162013371Y-76723920D01*
X162122860Y-76887781D01*
X162122863Y-76887785D01*
X162262214Y-77027136D01*
X162262218Y-77027139D01*
X162426079Y-77136628D01*
X162426092Y-77136635D01*
X162608160Y-77212049D01*
X162608165Y-77212051D01*
X162608169Y-77212051D01*
X162608170Y-77212052D01*
X162801456Y-77250500D01*
X162801459Y-77250500D01*
X162998543Y-77250500D01*
X163153336Y-77219709D01*
X163191835Y-77212051D01*
X163373914Y-77136632D01*
X163537782Y-77027139D01*
X163677139Y-76887782D01*
X163786632Y-76723914D01*
X163862051Y-76541835D01*
X163884510Y-76428926D01*
X163900500Y-76348543D01*
X163900500Y-75651456D01*
X163862052Y-75458170D01*
X163862051Y-75458169D01*
X163862051Y-75458165D01*
X163815009Y-75344594D01*
X163786635Y-75276092D01*
X163786628Y-75276079D01*
X163677139Y-75112218D01*
X163677136Y-75112214D01*
X163537785Y-74972863D01*
X163537781Y-74972860D01*
X163373920Y-74863371D01*
X163373907Y-74863364D01*
X163191839Y-74787950D01*
X163191829Y-74787947D01*
X162998543Y-74749500D01*
X162998541Y-74749500D01*
X162801459Y-74749500D01*
X162801457Y-74749500D01*
X162608170Y-74787947D01*
X162608160Y-74787950D01*
X162426092Y-74863364D01*
X162426079Y-74863371D01*
X162262218Y-74972860D01*
X162262214Y-74972863D01*
X162122863Y-75112214D01*
X162122860Y-75112218D01*
X162013371Y-75276079D01*
X162013364Y-75276092D01*
X161937950Y-75458160D01*
X161937947Y-75458170D01*
X161899500Y-75651456D01*
X161899500Y-75651459D01*
X161899500Y-76348541D01*
X161899500Y-76348543D01*
X161899499Y-76348543D01*
X159701605Y-76348543D01*
X159719709Y-76292826D01*
X159724795Y-76260713D01*
X159750500Y-76098422D01*
X159750500Y-75901577D01*
X159719709Y-75707173D01*
X159684731Y-75599523D01*
X159658884Y-75519975D01*
X159658882Y-75519972D01*
X159658882Y-75519970D01*
X159569523Y-75344594D01*
X159519753Y-75276092D01*
X159453828Y-75185354D01*
X159314646Y-75046172D01*
X159155405Y-74930476D01*
X158980029Y-74841117D01*
X158792826Y-74780290D01*
X158598422Y-74749500D01*
X158598417Y-74749500D01*
X158401583Y-74749500D01*
X158401578Y-74749500D01*
X158207173Y-74780290D01*
X158019970Y-74841117D01*
X157844594Y-74930476D01*
X157753741Y-74996485D01*
X157685354Y-75046172D01*
X157685352Y-75046174D01*
X157685351Y-75046174D01*
X157546174Y-75185351D01*
X157546174Y-75185352D01*
X157546172Y-75185354D01*
X157496485Y-75253741D01*
X157430476Y-75344594D01*
X157341117Y-75519970D01*
X157280290Y-75707173D01*
X157249500Y-75901577D01*
X151967630Y-75901577D01*
X152002262Y-75879816D01*
X152129816Y-75752262D01*
X152225789Y-75599522D01*
X152285368Y-75429255D01*
X152294907Y-75344594D01*
X152305565Y-75250003D01*
X152305565Y-75249996D01*
X152285369Y-75070750D01*
X152285368Y-75070745D01*
X152276770Y-75046174D01*
X152225789Y-74900478D01*
X152129816Y-74747738D01*
X152002262Y-74620184D01*
X151849523Y-74524211D01*
X151679254Y-74464631D01*
X151679249Y-74464630D01*
X151500004Y-74444435D01*
X151499996Y-74444435D01*
X151320750Y-74464630D01*
X151320745Y-74464631D01*
X151150476Y-74524211D01*
X151072109Y-74573453D01*
X151004872Y-74592453D01*
X150938037Y-74572085D01*
X150892823Y-74518817D01*
X150883586Y-74449561D01*
X150913257Y-74386304D01*
X150918446Y-74380788D01*
X151312416Y-73986817D01*
X151373739Y-73953333D01*
X151400097Y-73950499D01*
X152025002Y-73950499D01*
X152025008Y-73950499D01*
X152127797Y-73939999D01*
X152294334Y-73884814D01*
X152443656Y-73792712D01*
X152567712Y-73668656D01*
X152659814Y-73519334D01*
X152714999Y-73352797D01*
X152725500Y-73250009D01*
X152725499Y-72649992D01*
X152714999Y-72547203D01*
X152659814Y-72380666D01*
X152567712Y-72231344D01*
X152443656Y-72107288D01*
X152440342Y-72105243D01*
X152438546Y-72103248D01*
X152437989Y-72102807D01*
X152438064Y-72102711D01*
X152393618Y-72053297D01*
X152392731Y-72047844D01*
X155500000Y-72047844D01*
X155506401Y-72107372D01*
X155506403Y-72107379D01*
X155556645Y-72242086D01*
X155556649Y-72242093D01*
X155642809Y-72357187D01*
X155642812Y-72357190D01*
X155757906Y-72443350D01*
X155757913Y-72443354D01*
X155892620Y-72493596D01*
X155892627Y-72493598D01*
X155952155Y-72499999D01*
X155952172Y-72500000D01*
X156750000Y-72500000D01*
X157250000Y-72500000D01*
X158047828Y-72500000D01*
X158047844Y-72499999D01*
X158107372Y-72493598D01*
X158107379Y-72493596D01*
X158242086Y-72443354D01*
X158242093Y-72443350D01*
X158357187Y-72357190D01*
X158357190Y-72357187D01*
X158443350Y-72242093D01*
X158443354Y-72242086D01*
X158493596Y-72107379D01*
X158493598Y-72107372D01*
X158499999Y-72047844D01*
X161500000Y-72047844D01*
X161506401Y-72107372D01*
X161506403Y-72107379D01*
X161556645Y-72242086D01*
X161556649Y-72242093D01*
X161642809Y-72357187D01*
X161642812Y-72357190D01*
X161757906Y-72443350D01*
X161757913Y-72443354D01*
X161892620Y-72493596D01*
X161892627Y-72493598D01*
X161952155Y-72499999D01*
X161952172Y-72500000D01*
X162750000Y-72500000D01*
X163250000Y-72500000D01*
X164047828Y-72500000D01*
X164047844Y-72499999D01*
X164107372Y-72493598D01*
X164107379Y-72493596D01*
X164242086Y-72443354D01*
X164242093Y-72443350D01*
X164357187Y-72357190D01*
X164357190Y-72357187D01*
X164443350Y-72242093D01*
X164443354Y-72242086D01*
X164493596Y-72107379D01*
X164493598Y-72107372D01*
X164499999Y-72047844D01*
X164500000Y-72047827D01*
X164500000Y-70750000D01*
X163250000Y-70750000D01*
X163250000Y-72500000D01*
X162750000Y-72500000D01*
X162750000Y-70750000D01*
X161500000Y-70750000D01*
X161500000Y-72047844D01*
X158499999Y-72047844D01*
X158500000Y-72047827D01*
X158500000Y-70750000D01*
X157250000Y-70750000D01*
X157250000Y-72500000D01*
X156750000Y-72500000D01*
X156750000Y-70750000D01*
X155500000Y-70750000D01*
X155500000Y-72047844D01*
X152392731Y-72047844D01*
X152382397Y-71984334D01*
X152410240Y-71920252D01*
X152440348Y-71894165D01*
X152443342Y-71892318D01*
X152567315Y-71768345D01*
X152659356Y-71619124D01*
X152659358Y-71619119D01*
X152714505Y-71452697D01*
X152714506Y-71452690D01*
X152724999Y-71349986D01*
X152725000Y-71349973D01*
X152725000Y-71300000D01*
X150275001Y-71300000D01*
X150275001Y-71349986D01*
X150285494Y-71452697D01*
X150340641Y-71619119D01*
X150340643Y-71619124D01*
X150432684Y-71768345D01*
X150556655Y-71892316D01*
X150556659Y-71892319D01*
X150559656Y-71894168D01*
X150561279Y-71895972D01*
X150562323Y-71896798D01*
X150562181Y-71896976D01*
X150606381Y-71946116D01*
X150617602Y-72015079D01*
X150589759Y-72079161D01*
X150559661Y-72105241D01*
X150556349Y-72107283D01*
X150556343Y-72107288D01*
X150432289Y-72231342D01*
X150340187Y-72380663D01*
X150340185Y-72380668D01*
X150319413Y-72443354D01*
X150285001Y-72547203D01*
X150285001Y-72547204D01*
X150285000Y-72547204D01*
X150274500Y-72649983D01*
X150274500Y-73250000D01*
X150274501Y-73250011D01*
X150275581Y-73260583D01*
X150262808Y-73329275D01*
X150239903Y-73360860D01*
X149985182Y-73615580D01*
X149923859Y-73649065D01*
X149854167Y-73644081D01*
X149809820Y-73615580D01*
X149776561Y-73582321D01*
X149776552Y-73582314D01*
X149635196Y-73498717D01*
X149635193Y-73498716D01*
X149477495Y-73452900D01*
X149477489Y-73452899D01*
X149440649Y-73450000D01*
X149000000Y-73450000D01*
X149000000Y-74126000D01*
X148980315Y-74193039D01*
X148927511Y-74238794D01*
X148876000Y-74250000D01*
X148750000Y-74250000D01*
X148750000Y-74325500D01*
X148730315Y-74392539D01*
X148677511Y-74438294D01*
X148626000Y-74449500D01*
X148059298Y-74449500D01*
X148022432Y-74452401D01*
X148022426Y-74452402D01*
X147875545Y-74495076D01*
X147840950Y-74500000D01*
X147477705Y-74500000D01*
X147477704Y-74500001D01*
X147477899Y-74502488D01*
X147477900Y-74502494D01*
X147523716Y-74660193D01*
X147523717Y-74660196D01*
X147539207Y-74686388D01*
X147556389Y-74754112D01*
X147539207Y-74812627D01*
X147523258Y-74839595D01*
X147523254Y-74839605D01*
X147477402Y-74997426D01*
X147477401Y-74997432D01*
X147474500Y-75034298D01*
X147474500Y-75465701D01*
X147477401Y-75502567D01*
X147477402Y-75502573D01*
X147523253Y-75660393D01*
X147538918Y-75686881D01*
X147556098Y-75754606D01*
X147538918Y-75813119D01*
X147523253Y-75839606D01*
X147477402Y-75997426D01*
X147477401Y-75997432D01*
X147474500Y-76034298D01*
X147474500Y-76465701D01*
X147477401Y-76502567D01*
X147477402Y-76502573D01*
X147523253Y-76660393D01*
X147538918Y-76686881D01*
X147556098Y-76754606D01*
X147538918Y-76813119D01*
X147523253Y-76839606D01*
X147477402Y-76997426D01*
X147477401Y-76997432D01*
X147474500Y-77034298D01*
X147474500Y-77465701D01*
X147477401Y-77502567D01*
X147477402Y-77502573D01*
X147523254Y-77660393D01*
X147523255Y-77660396D01*
X147606917Y-77801862D01*
X147606923Y-77801870D01*
X147723129Y-77918076D01*
X147723133Y-77918079D01*
X147723135Y-77918081D01*
X147864602Y-78001744D01*
X147906224Y-78013836D01*
X148022426Y-78047597D01*
X148022429Y-78047597D01*
X148022431Y-78047598D01*
X148035227Y-78048605D01*
X148100516Y-78073488D01*
X148141988Y-78129718D01*
X148149500Y-78172223D01*
X148149500Y-78663330D01*
X148149499Y-78663348D01*
X148149499Y-78829054D01*
X148149498Y-78829054D01*
X148181910Y-78950016D01*
X148190423Y-78981785D01*
X148212389Y-79019831D01*
X148216832Y-79027525D01*
X148216833Y-79027529D01*
X148216834Y-79027529D01*
X148269479Y-79118714D01*
X148269481Y-79118717D01*
X148388349Y-79237585D01*
X148388355Y-79237590D01*
X155783425Y-86632660D01*
X155816910Y-86693983D01*
X155811926Y-86763675D01*
X155770054Y-86819608D01*
X155705381Y-86843729D01*
X155705394Y-86843869D01*
X155704890Y-86843913D01*
X155704590Y-86844025D01*
X155702935Y-86844084D01*
X155464596Y-86864936D01*
X155464586Y-86864938D01*
X155236344Y-86926094D01*
X155236335Y-86926098D01*
X155022171Y-87025964D01*
X155022169Y-87025965D01*
X154828597Y-87161505D01*
X154661505Y-87328597D01*
X154525965Y-87522169D01*
X154525964Y-87522171D01*
X154426098Y-87736335D01*
X154426094Y-87736344D01*
X154364938Y-87964586D01*
X154364936Y-87964596D01*
X154344341Y-88199999D01*
X154344341Y-88200000D01*
X154364936Y-88435403D01*
X154364938Y-88435413D01*
X154426094Y-88663655D01*
X154426096Y-88663659D01*
X154426097Y-88663663D01*
X154506004Y-88835023D01*
X154525965Y-88877830D01*
X154525967Y-88877834D01*
X154610458Y-88998498D01*
X154661501Y-89071396D01*
X154661506Y-89071402D01*
X154783430Y-89193326D01*
X154816915Y-89254649D01*
X154811931Y-89324341D01*
X154770059Y-89380274D01*
X154739083Y-89397189D01*
X154607669Y-89446203D01*
X154607664Y-89446206D01*
X154492455Y-89532452D01*
X154492452Y-89532455D01*
X154406206Y-89647664D01*
X154406202Y-89647671D01*
X154355908Y-89782517D01*
X154349501Y-89842116D01*
X154349500Y-89842135D01*
X154349500Y-90015500D01*
X154329815Y-90082539D01*
X154277011Y-90128294D01*
X154225500Y-90139500D01*
X151040098Y-90139500D01*
X150973059Y-90119815D01*
X150952417Y-90103181D01*
X147136818Y-86287582D01*
X147103333Y-86226259D01*
X147100499Y-86199901D01*
X147100499Y-84522129D01*
X147100498Y-84522123D01*
X147100497Y-84522116D01*
X147094091Y-84462517D01*
X147093643Y-84461317D01*
X147043797Y-84327671D01*
X147043793Y-84327664D01*
X146957547Y-84212455D01*
X146957544Y-84212452D01*
X146842335Y-84126206D01*
X146842328Y-84126202D01*
X146707482Y-84075908D01*
X146707483Y-84075908D01*
X146647883Y-84069501D01*
X146647881Y-84069500D01*
X146647873Y-84069500D01*
X146647864Y-84069500D01*
X144852129Y-84069500D01*
X144852123Y-84069501D01*
X144792516Y-84075908D01*
X144657671Y-84126202D01*
X144657664Y-84126206D01*
X144542455Y-84212452D01*
X144542452Y-84212455D01*
X144456206Y-84327664D01*
X144456202Y-84327671D01*
X144405908Y-84462517D01*
X144403653Y-84483496D01*
X144399501Y-84522123D01*
X144399500Y-84522135D01*
X144399500Y-86317870D01*
X144399501Y-86317876D01*
X144405908Y-86377483D01*
X144456202Y-86512328D01*
X144456206Y-86512335D01*
X144542452Y-86627544D01*
X144542455Y-86627547D01*
X144657664Y-86713793D01*
X144657671Y-86713797D01*
X144789081Y-86762810D01*
X144845015Y-86804681D01*
X144869432Y-86870145D01*
X144854580Y-86938418D01*
X144833430Y-86966673D01*
X144711503Y-87088600D01*
X144575965Y-87282169D01*
X144575964Y-87282171D01*
X144476098Y-87496335D01*
X144476094Y-87496344D01*
X144414938Y-87724586D01*
X144414936Y-87724596D01*
X144394341Y-87959999D01*
X143250500Y-87959999D01*
X143250500Y-79113544D01*
X143270185Y-79046505D01*
X143322989Y-79000750D01*
X143392147Y-78990806D01*
X143455703Y-79019831D01*
X143492206Y-79074540D01*
X143540185Y-79219331D01*
X143540187Y-79219336D01*
X143547086Y-79230521D01*
X143632288Y-79368656D01*
X143756344Y-79492712D01*
X143905666Y-79584814D01*
X144072203Y-79639999D01*
X144174991Y-79650500D01*
X145575008Y-79650499D01*
X145677797Y-79639999D01*
X145844334Y-79584814D01*
X145993656Y-79492712D01*
X146117712Y-79368656D01*
X146209814Y-79219334D01*
X146264999Y-79052797D01*
X146275500Y-78950009D01*
X146275499Y-78149992D01*
X146264999Y-78047203D01*
X146209814Y-77880666D01*
X146117712Y-77731344D01*
X145993656Y-77607288D01*
X145844334Y-77515186D01*
X145677797Y-77460001D01*
X145677795Y-77460000D01*
X145575010Y-77449500D01*
X144174998Y-77449500D01*
X144174981Y-77449501D01*
X144072203Y-77460000D01*
X144072200Y-77460001D01*
X143905668Y-77515185D01*
X143905663Y-77515187D01*
X143756342Y-77607289D01*
X143632289Y-77731342D01*
X143540187Y-77880663D01*
X143540185Y-77880668D01*
X143492206Y-78025460D01*
X143452433Y-78082905D01*
X143387917Y-78109728D01*
X143319141Y-78097413D01*
X143267942Y-78049870D01*
X143250500Y-77986456D01*
X143250500Y-73513544D01*
X143270185Y-73446505D01*
X143322989Y-73400750D01*
X143392147Y-73390806D01*
X143455703Y-73419831D01*
X143492205Y-73474539D01*
X143540186Y-73619334D01*
X143632288Y-73768656D01*
X143756344Y-73892712D01*
X143905666Y-73984814D01*
X144072203Y-74039999D01*
X144174991Y-74050500D01*
X145575008Y-74050499D01*
X145677797Y-74039999D01*
X145798512Y-73999998D01*
X147477704Y-73999998D01*
X147477705Y-74000000D01*
X148500000Y-74000000D01*
X148500000Y-73450000D01*
X148059350Y-73450000D01*
X148022510Y-73452899D01*
X148022504Y-73452900D01*
X147864806Y-73498716D01*
X147864803Y-73498717D01*
X147723447Y-73582314D01*
X147723438Y-73582321D01*
X147607321Y-73698438D01*
X147607314Y-73698447D01*
X147523718Y-73839801D01*
X147477899Y-73997513D01*
X147477704Y-73999998D01*
X145798512Y-73999998D01*
X145844334Y-73984814D01*
X145993656Y-73892712D01*
X146117712Y-73768656D01*
X146209814Y-73619334D01*
X146264999Y-73452797D01*
X146275500Y-73350009D01*
X146275499Y-72549992D01*
X146264999Y-72447203D01*
X146209814Y-72280666D01*
X146117712Y-72131344D01*
X145993656Y-72007288D01*
X145894480Y-71946116D01*
X145844336Y-71915187D01*
X145844331Y-71915185D01*
X145842862Y-71914698D01*
X145677797Y-71860001D01*
X145677795Y-71860000D01*
X145575010Y-71849500D01*
X144174998Y-71849500D01*
X144174981Y-71849501D01*
X144072203Y-71860000D01*
X144072200Y-71860001D01*
X143905668Y-71915185D01*
X143905663Y-71915187D01*
X143756342Y-72007289D01*
X143632289Y-72131342D01*
X143540187Y-72280663D01*
X143540185Y-72280668D01*
X143492206Y-72425460D01*
X143452433Y-72482905D01*
X143387917Y-72509728D01*
X143319141Y-72497413D01*
X143267942Y-72449870D01*
X143250500Y-72386456D01*
X143250500Y-70750013D01*
X150275000Y-70750013D01*
X150275000Y-70800000D01*
X151250000Y-70800000D01*
X151750000Y-70800000D01*
X152724999Y-70800000D01*
X152724999Y-70750028D01*
X152724998Y-70750013D01*
X152714505Y-70647302D01*
X152659358Y-70480880D01*
X152659356Y-70480875D01*
X152567315Y-70331654D01*
X152443345Y-70207684D01*
X152294124Y-70115643D01*
X152294119Y-70115641D01*
X152127697Y-70060494D01*
X152127690Y-70060493D01*
X152024986Y-70050000D01*
X151750000Y-70050000D01*
X151750000Y-70800000D01*
X151250000Y-70800000D01*
X151250000Y-70050000D01*
X150975029Y-70050000D01*
X150975012Y-70050001D01*
X150872302Y-70060494D01*
X150705880Y-70115641D01*
X150705875Y-70115643D01*
X150556654Y-70207684D01*
X150432684Y-70331654D01*
X150340643Y-70480875D01*
X150340641Y-70480880D01*
X150285494Y-70647302D01*
X150285493Y-70647309D01*
X150275000Y-70750013D01*
X143250500Y-70750013D01*
X143250500Y-68952155D01*
X155500000Y-68952155D01*
X155500000Y-70250000D01*
X156750000Y-70250000D01*
X157250000Y-70250000D01*
X158500000Y-70250000D01*
X158500000Y-68952172D01*
X158499999Y-68952155D01*
X161500000Y-68952155D01*
X161500000Y-70250000D01*
X162750000Y-70250000D01*
X163250000Y-70250000D01*
X164500000Y-70250000D01*
X164500000Y-68952172D01*
X164499999Y-68952155D01*
X164493598Y-68892627D01*
X164493596Y-68892620D01*
X164443354Y-68757913D01*
X164443350Y-68757906D01*
X164357190Y-68642812D01*
X164357187Y-68642809D01*
X164242093Y-68556649D01*
X164242086Y-68556645D01*
X164107379Y-68506403D01*
X164107372Y-68506401D01*
X164047844Y-68500000D01*
X163250000Y-68500000D01*
X163250000Y-70250000D01*
X162750000Y-70250000D01*
X162750000Y-68500000D01*
X161952155Y-68500000D01*
X161892627Y-68506401D01*
X161892620Y-68506403D01*
X161757913Y-68556645D01*
X161757906Y-68556649D01*
X161642812Y-68642809D01*
X161642809Y-68642812D01*
X161556649Y-68757906D01*
X161556645Y-68757913D01*
X161506403Y-68892620D01*
X161506401Y-68892627D01*
X161500000Y-68952155D01*
X158499999Y-68952155D01*
X158493598Y-68892627D01*
X158493596Y-68892620D01*
X158443354Y-68757913D01*
X158443350Y-68757906D01*
X158357190Y-68642812D01*
X158357187Y-68642809D01*
X158242093Y-68556649D01*
X158242086Y-68556645D01*
X158107379Y-68506403D01*
X158107372Y-68506401D01*
X158047844Y-68500000D01*
X157250000Y-68500000D01*
X157250000Y-70250000D01*
X156750000Y-70250000D01*
X156750000Y-68500000D01*
X155952155Y-68500000D01*
X155892627Y-68506401D01*
X155892620Y-68506403D01*
X155757913Y-68556645D01*
X155757906Y-68556649D01*
X155642812Y-68642809D01*
X155642809Y-68642812D01*
X155556649Y-68757906D01*
X155556645Y-68757913D01*
X155506403Y-68892620D01*
X155506401Y-68892627D01*
X155500000Y-68952155D01*
X143250500Y-68952155D01*
X143250500Y-68374500D01*
X143270185Y-68307461D01*
X143322989Y-68261706D01*
X143374500Y-68250500D01*
X166625500Y-68250500D01*
X166692539Y-68270185D01*
G37*
%TD.AperFunction*%
%TA.AperFunction,Conductor*%
G36*
X164102127Y-130850500D02*
G01*
X164275500Y-130850499D01*
X164342539Y-130870183D01*
X164388294Y-130922987D01*
X164399500Y-130974499D01*
X164399500Y-134949903D01*
X164379815Y-135016942D01*
X164363181Y-135037584D01*
X162287584Y-137113181D01*
X162226261Y-137146666D01*
X162199903Y-137149500D01*
X162142682Y-137149500D01*
X162075643Y-137129815D01*
X162029888Y-137077011D01*
X162019944Y-137007853D01*
X162030300Y-136973095D01*
X162053429Y-136923492D01*
X162053432Y-136923486D01*
X162110636Y-136710000D01*
X161213012Y-136710000D01*
X161245925Y-136652993D01*
X161280000Y-136525826D01*
X161280000Y-136394174D01*
X161245925Y-136267007D01*
X161213012Y-136210000D01*
X162110636Y-136210000D01*
X162110635Y-136209999D01*
X162053432Y-135996513D01*
X162053429Y-135996507D01*
X161953600Y-135782422D01*
X161953599Y-135782420D01*
X161818113Y-135588926D01*
X161818108Y-135588920D01*
X161651082Y-135421894D01*
X161457578Y-135286399D01*
X161243492Y-135186570D01*
X161243486Y-135186567D01*
X161030000Y-135129364D01*
X161030000Y-136026988D01*
X160972993Y-135994075D01*
X160845826Y-135960000D01*
X160714174Y-135960000D01*
X160587007Y-135994075D01*
X160530000Y-136026988D01*
X160530000Y-135129364D01*
X160529999Y-135129364D01*
X160316513Y-135186567D01*
X160316507Y-135186570D01*
X160102422Y-135286399D01*
X160102420Y-135286400D01*
X159908926Y-135421886D01*
X159908920Y-135421891D01*
X159741891Y-135588920D01*
X159741890Y-135588922D01*
X159611880Y-135774595D01*
X159557303Y-135818219D01*
X159487804Y-135825412D01*
X159425450Y-135793890D01*
X159408730Y-135774595D01*
X159330816Y-135663322D01*
X159308491Y-135597120D01*
X159325501Y-135529352D01*
X159344708Y-135504525D01*
X163966823Y-130882410D01*
X164028144Y-130848927D01*
X164067753Y-130846804D01*
X164102127Y-130850500D01*
G37*
%TD.AperFunction*%
%TA.AperFunction,Conductor*%
G36*
X162371942Y-122645185D02*
G01*
X162392584Y-122661819D01*
X162673681Y-122942916D01*
X162707166Y-123004239D01*
X162710000Y-123030597D01*
X162710000Y-123986988D01*
X162652993Y-123954075D01*
X162525826Y-123920000D01*
X162394174Y-123920000D01*
X162267007Y-123954075D01*
X162210000Y-123986988D01*
X162210000Y-123089364D01*
X162209999Y-123089364D01*
X161996513Y-123146567D01*
X161996507Y-123146570D01*
X161782422Y-123246399D01*
X161782420Y-123246400D01*
X161588926Y-123381886D01*
X161588920Y-123381891D01*
X161421891Y-123548920D01*
X161421886Y-123548926D01*
X161286400Y-123742420D01*
X161286399Y-123742422D01*
X161186570Y-123956507D01*
X161186567Y-123956513D01*
X161129364Y-124169999D01*
X161129364Y-124170000D01*
X162026988Y-124170000D01*
X161994075Y-124227007D01*
X161960000Y-124354174D01*
X161960000Y-124485826D01*
X161994075Y-124612993D01*
X162026988Y-124670000D01*
X161129364Y-124670000D01*
X161186567Y-124883486D01*
X161186570Y-124883492D01*
X161286399Y-125097578D01*
X161421894Y-125291082D01*
X161588917Y-125458105D01*
X161774595Y-125588119D01*
X161818219Y-125642696D01*
X161825412Y-125712195D01*
X161793890Y-125774549D01*
X161774595Y-125791269D01*
X161588594Y-125921508D01*
X161421505Y-126088597D01*
X161285965Y-126282169D01*
X161285964Y-126282171D01*
X161186098Y-126496335D01*
X161186094Y-126496344D01*
X161124938Y-126724586D01*
X161124936Y-126724596D01*
X161104341Y-126959999D01*
X161104341Y-126960000D01*
X161124936Y-127195403D01*
X161124938Y-127195413D01*
X161186094Y-127423655D01*
X161186096Y-127423659D01*
X161186097Y-127423663D01*
X161285965Y-127637830D01*
X161285967Y-127637834D01*
X161421501Y-127831395D01*
X161421506Y-127831402D01*
X161588597Y-127998493D01*
X161588603Y-127998498D01*
X161774158Y-128128425D01*
X161817783Y-128183002D01*
X161824977Y-128252500D01*
X161793454Y-128314855D01*
X161774158Y-128331575D01*
X161588597Y-128461505D01*
X161421505Y-128628597D01*
X161285965Y-128822169D01*
X161285964Y-128822171D01*
X161186098Y-129036335D01*
X161186094Y-129036344D01*
X161124938Y-129264586D01*
X161124936Y-129264596D01*
X161104341Y-129499999D01*
X161104341Y-129500002D01*
X161117288Y-129647991D01*
X161103521Y-129716491D01*
X161081441Y-129746479D01*
X159549682Y-131278238D01*
X159488359Y-131311723D01*
X159422997Y-131308263D01*
X159352798Y-131285001D01*
X159250010Y-131274500D01*
X158649998Y-131274500D01*
X158649980Y-131274501D01*
X158547203Y-131285000D01*
X158547200Y-131285001D01*
X158380668Y-131340185D01*
X158380663Y-131340187D01*
X158231342Y-131432289D01*
X158107288Y-131556343D01*
X158107283Y-131556349D01*
X158105241Y-131559661D01*
X158103247Y-131561453D01*
X158102807Y-131562011D01*
X158102711Y-131561935D01*
X158053291Y-131606383D01*
X157984328Y-131617602D01*
X157920247Y-131589755D01*
X157894168Y-131559656D01*
X157892319Y-131556659D01*
X157892316Y-131556655D01*
X157768345Y-131432684D01*
X157619124Y-131340643D01*
X157619119Y-131340641D01*
X157452697Y-131285494D01*
X157452690Y-131285493D01*
X157365631Y-131276599D01*
X157300940Y-131250203D01*
X157260788Y-131193022D01*
X157257925Y-131123211D01*
X157278966Y-131078931D01*
X157343796Y-130992331D01*
X157394091Y-130857483D01*
X157400500Y-130797873D01*
X157400499Y-129152128D01*
X157394091Y-129092517D01*
X157373137Y-129036337D01*
X157343797Y-128957671D01*
X157343793Y-128957664D01*
X157257547Y-128842455D01*
X157257544Y-128842452D01*
X157142335Y-128756206D01*
X157142328Y-128756202D01*
X157007483Y-128705908D01*
X156961243Y-128700937D01*
X156896693Y-128674199D01*
X156856845Y-128616806D01*
X156850500Y-128577648D01*
X156850500Y-123422351D01*
X156870185Y-123355312D01*
X156922989Y-123309557D01*
X156961247Y-123299061D01*
X157007483Y-123294091D01*
X157142331Y-123243796D01*
X157257546Y-123157546D01*
X157343796Y-123042331D01*
X157394091Y-122907483D01*
X157400500Y-122847873D01*
X157400500Y-122749500D01*
X157420185Y-122682461D01*
X157472989Y-122636706D01*
X157524500Y-122625500D01*
X162304903Y-122625500D01*
X162371942Y-122645185D01*
G37*
%TD.AperFunction*%
%TD*%
M02*
