%TF.GenerationSoftware,KiCad,Pcbnew,8.0.8*%
%TF.CreationDate,2025-01-26T19:36:25-06:00*%
%TF.ProjectId,ptSolar-Breakout,7074536f-6c61-4722-9d42-7265616b6f75,rev?*%
%TF.SameCoordinates,Original*%
%TF.FileFunction,Copper,L2,Bot*%
%TF.FilePolarity,Positive*%
%FSLAX46Y46*%
G04 Gerber Fmt 4.6, Leading zero omitted, Abs format (unit mm)*
G04 Created by KiCad (PCBNEW 8.0.8) date 2025-01-26 19:36:25*
%MOMM*%
%LPD*%
G01*
G04 APERTURE LIST*
%TA.AperFunction,ComponentPad*%
%ADD10O,1.700000X1.700000*%
%TD*%
%TA.AperFunction,ComponentPad*%
%ADD11R,1.700000X1.700000*%
%TD*%
%TA.AperFunction,ComponentPad*%
%ADD12R,2.400000X2.400000*%
%TD*%
%TA.AperFunction,ComponentPad*%
%ADD13C,2.400000*%
%TD*%
%TA.AperFunction,ViaPad*%
%ADD14C,0.600000*%
%TD*%
%TA.AperFunction,Conductor*%
%ADD15C,0.600000*%
%TD*%
%TA.AperFunction,Conductor*%
%ADD16C,0.200000*%
%TD*%
G04 APERTURE END LIST*
D10*
%TO.P,J5,3,Pin_3*%
%TO.N,GND*%
X145750000Y-90500000D03*
%TO.P,J5,2,Pin_2*%
%TO.N,Net-(J4-Pin_3)*%
X145750000Y-87960000D03*
D11*
%TO.P,J5,1,Pin_1*%
%TO.N,Net-(J4-Pin_1)*%
X145750000Y-85420000D03*
%TD*%
%TO.P,J4,1,Pin_1*%
%TO.N,Net-(J4-Pin_1)*%
X155700000Y-90740000D03*
D10*
%TO.P,J4,2,Pin_2*%
%TO.N,+3.3V*%
X155700000Y-88200000D03*
%TO.P,J4,3,Pin_3*%
%TO.N,Net-(J4-Pin_3)*%
X158240000Y-90740000D03*
%TO.P,J4,4,Pin_4*%
%TO.N,Net-(J2-Pin_4)*%
X158240000Y-88200000D03*
%TO.P,J4,5,Pin_5*%
%TO.N,GND*%
X160780000Y-90740000D03*
%TO.P,J4,6,Pin_6*%
%TO.N,Net-(J2-Pin_3)*%
X160780000Y-88200000D03*
%TO.P,J4,7,Pin_7*%
%TO.N,unconnected-(J4-Pin_7-Pad7)*%
X163320000Y-90740000D03*
%TO.P,J4,8,Pin_8*%
%TO.N,Net-(J4-Pin_8)*%
X163320000Y-88200000D03*
%TD*%
D11*
%TO.P,J3,1,Pin_1*%
%TO.N,/MISO*%
X155700000Y-139000000D03*
D10*
%TO.P,J3,2,Pin_2*%
%TO.N,+BATT*%
X155700000Y-136460000D03*
%TO.P,J3,3,Pin_3*%
%TO.N,/SCK*%
X158240000Y-139000000D03*
%TO.P,J3,4,Pin_4*%
%TO.N,/MOSI*%
X158240000Y-136460000D03*
%TO.P,J3,5,Pin_5*%
%TO.N,/RESET*%
X160780000Y-139000000D03*
%TO.P,J3,6,Pin_6*%
%TO.N,GND*%
X160780000Y-136460000D03*
%TD*%
D11*
%TO.P,J1,1,Pin_1*%
%TO.N,/MISO*%
X165000000Y-129500000D03*
D10*
%TO.P,J1,2,Pin_2*%
%TO.N,+BATT*%
X162460000Y-129500000D03*
%TO.P,J1,3,Pin_3*%
%TO.N,/SCK*%
X165000000Y-126960000D03*
%TO.P,J1,4,Pin_4*%
%TO.N,/MOSI*%
X162460000Y-126960000D03*
%TO.P,J1,5,Pin_5*%
%TO.N,/RESET*%
X165000000Y-124420000D03*
%TO.P,J1,6,Pin_6*%
%TO.N,GND*%
X162460000Y-124420000D03*
%TD*%
D12*
%TO.P,C1,1*%
%TO.N,+BATT*%
X156926041Y-99750000D03*
D13*
%TO.P,C1,2*%
%TO.N,Net-(D1-A)*%
X164426041Y-99750000D03*
%TD*%
D14*
%TO.N,GND*%
X157750000Y-84500000D03*
X165750000Y-70500000D03*
X160250000Y-70500000D03*
X154000000Y-70500000D03*
X145750000Y-81250000D03*
X163750000Y-107000000D03*
X159500000Y-107000000D03*
X154000000Y-107000000D03*
X149000000Y-106750000D03*
X144750000Y-106750000D03*
X164750000Y-120000000D03*
X159500000Y-120000000D03*
X154000000Y-120000000D03*
X149000000Y-120000000D03*
X144750000Y-120000000D03*
X165500000Y-138750000D03*
%TO.N,+BATT*%
X165500000Y-111750000D03*
%TO.N,Net-(U1-VI)*%
X160000000Y-84250000D03*
X163625000Y-109625000D03*
%TO.N,+3.3V*%
X151500000Y-75250000D03*
%TD*%
D15*
%TO.N,Net-(U1-VI)*%
X163500000Y-84250000D02*
X160000000Y-84250000D01*
X166126041Y-107123959D02*
X166126041Y-86876041D01*
X166126041Y-86876041D02*
X163500000Y-84250000D01*
X163625000Y-109625000D02*
X166126041Y-107123959D01*
%TO.N,+BATT*%
X161000000Y-129500000D02*
X156926041Y-125426041D01*
X156926041Y-125426041D02*
X156926041Y-111750000D01*
X162460000Y-129500000D02*
X161000000Y-129500000D01*
X156926041Y-111750000D02*
X156926041Y-99750000D01*
X165500000Y-111750000D02*
X156926041Y-111750000D01*
D16*
%TO.N,/SCK*%
X159490000Y-137750000D02*
X158240000Y-139000000D01*
X163850000Y-135016346D02*
X161116346Y-137750000D01*
X163850000Y-128110000D02*
X163850000Y-135016346D01*
X161116346Y-137750000D02*
X159490000Y-137750000D01*
X165000000Y-126960000D02*
X163850000Y-128110000D01*
%TO.N,+3.3V*%
X151500000Y-84000000D02*
X151500000Y-75250000D01*
X155700000Y-88200000D02*
X151500000Y-84000000D01*
%TD*%
%TA.AperFunction,Conductor*%
%TO.N,GND*%
G36*
X166692539Y-68270185D02*
G01*
X166738294Y-68322989D01*
X166749500Y-68374500D01*
X166749500Y-86068059D01*
X166729815Y-86135098D01*
X166677011Y-86180853D01*
X166607853Y-86190797D01*
X166544297Y-86161772D01*
X166537819Y-86155740D01*
X164010292Y-83628213D01*
X164010288Y-83628210D01*
X163879185Y-83540609D01*
X163879172Y-83540602D01*
X163733501Y-83480264D01*
X163733489Y-83480261D01*
X163578845Y-83449500D01*
X163578842Y-83449500D01*
X160051915Y-83449500D01*
X160038031Y-83448720D01*
X160000002Y-83444435D01*
X159999998Y-83444435D01*
X159961969Y-83448720D01*
X159948085Y-83449500D01*
X159921152Y-83449500D01*
X159881994Y-83457288D01*
X159871696Y-83458890D01*
X159820742Y-83464632D01*
X159820735Y-83464634D01*
X159796898Y-83472975D01*
X159780140Y-83477550D01*
X159766502Y-83480263D01*
X159766496Y-83480264D01*
X159717631Y-83500504D01*
X159711140Y-83502982D01*
X159650477Y-83524210D01*
X159650474Y-83524212D01*
X159640127Y-83530713D01*
X159621639Y-83540266D01*
X159620832Y-83540600D01*
X159620824Y-83540604D01*
X159566047Y-83577204D01*
X159563132Y-83579092D01*
X159497742Y-83620180D01*
X159497735Y-83620186D01*
X159370186Y-83747735D01*
X159370180Y-83747742D01*
X159329092Y-83813132D01*
X159327204Y-83816047D01*
X159290604Y-83870824D01*
X159290600Y-83870832D01*
X159290266Y-83871639D01*
X159280713Y-83890127D01*
X159274212Y-83900474D01*
X159274210Y-83900477D01*
X159252982Y-83961140D01*
X159250504Y-83967631D01*
X159230264Y-84016496D01*
X159230263Y-84016502D01*
X159227550Y-84030140D01*
X159222975Y-84046898D01*
X159214634Y-84070735D01*
X159214632Y-84070742D01*
X159208890Y-84121696D01*
X159207288Y-84131994D01*
X159199500Y-84171152D01*
X159199500Y-84198085D01*
X159198720Y-84211968D01*
X159194435Y-84250000D01*
X159198720Y-84288029D01*
X159199500Y-84301914D01*
X159199500Y-84328844D01*
X159207288Y-84368003D01*
X159208890Y-84378303D01*
X159214632Y-84429252D01*
X159214633Y-84429260D01*
X159222976Y-84453104D01*
X159227550Y-84469860D01*
X159230262Y-84483496D01*
X159250509Y-84532377D01*
X159252988Y-84538872D01*
X159274212Y-84599524D01*
X159280709Y-84609865D01*
X159290268Y-84628365D01*
X159290603Y-84629173D01*
X159290605Y-84629179D01*
X159327223Y-84683982D01*
X159329114Y-84686900D01*
X159370180Y-84752257D01*
X159370182Y-84752260D01*
X159370184Y-84752262D01*
X159497738Y-84879816D01*
X159563131Y-84920905D01*
X159566040Y-84922790D01*
X159620821Y-84959394D01*
X159621606Y-84959719D01*
X159640134Y-84969289D01*
X159650478Y-84975789D01*
X159711175Y-84997028D01*
X159717607Y-84999484D01*
X159746021Y-85011253D01*
X159766497Y-85019735D01*
X159766498Y-85019735D01*
X159766503Y-85019737D01*
X159780139Y-85022449D01*
X159796898Y-85027023D01*
X159820745Y-85035368D01*
X159871714Y-85041110D01*
X159881992Y-85042709D01*
X159909140Y-85048109D01*
X159921157Y-85050500D01*
X159921158Y-85050500D01*
X159948085Y-85050500D01*
X159961969Y-85051280D01*
X159999998Y-85055565D01*
X160000000Y-85055565D01*
X160000002Y-85055565D01*
X160038031Y-85051280D01*
X160051915Y-85050500D01*
X163117060Y-85050500D01*
X163184099Y-85070185D01*
X163204741Y-85086819D01*
X165289222Y-87171300D01*
X165322707Y-87232623D01*
X165325541Y-87258981D01*
X165325541Y-98098419D01*
X165305856Y-98165458D01*
X165253052Y-98211213D01*
X165183894Y-98221157D01*
X165147740Y-98210140D01*
X165144370Y-98208517D01*
X165049045Y-98162611D01*
X165049042Y-98162610D01*
X164805507Y-98087489D01*
X164805503Y-98087488D01*
X164805499Y-98087487D01*
X164684272Y-98069214D01*
X164553481Y-98049500D01*
X164553476Y-98049500D01*
X164298606Y-98049500D01*
X164298600Y-98049500D01*
X164141650Y-98073157D01*
X164046583Y-98087487D01*
X164046580Y-98087488D01*
X164046574Y-98087489D01*
X163803033Y-98162612D01*
X163573414Y-98273190D01*
X163573413Y-98273191D01*
X163362823Y-98416768D01*
X163175993Y-98590121D01*
X163175991Y-98590123D01*
X163017082Y-98789388D01*
X162889649Y-99010109D01*
X162796533Y-99247362D01*
X162796531Y-99247369D01*
X162739818Y-99495845D01*
X162720773Y-99749995D01*
X162720773Y-99750004D01*
X162739818Y-100004154D01*
X162739819Y-100004157D01*
X162796533Y-100252637D01*
X162889648Y-100489888D01*
X163017082Y-100710612D01*
X163175991Y-100909877D01*
X163362824Y-101083232D01*
X163573407Y-101226805D01*
X163573412Y-101226807D01*
X163573413Y-101226808D01*
X163573414Y-101226809D01*
X163680769Y-101278508D01*
X163803033Y-101337387D01*
X163803034Y-101337387D01*
X163803037Y-101337389D01*
X164046583Y-101412513D01*
X164298606Y-101450500D01*
X164553476Y-101450500D01*
X164805499Y-101412513D01*
X165049045Y-101337389D01*
X165147740Y-101289859D01*
X165216681Y-101278508D01*
X165280815Y-101306230D01*
X165319781Y-101364225D01*
X165325541Y-101401580D01*
X165325541Y-106741019D01*
X165305856Y-106808058D01*
X165289222Y-106828700D01*
X162995186Y-109122735D01*
X162995180Y-109122742D01*
X162954092Y-109188132D01*
X162952204Y-109191047D01*
X162915604Y-109245824D01*
X162915600Y-109245832D01*
X162915266Y-109246639D01*
X162905713Y-109265127D01*
X162899212Y-109275474D01*
X162899210Y-109275477D01*
X162877982Y-109336140D01*
X162875504Y-109342631D01*
X162855264Y-109391496D01*
X162855263Y-109391502D01*
X162852550Y-109405140D01*
X162847975Y-109421898D01*
X162839634Y-109445735D01*
X162839632Y-109445742D01*
X162833890Y-109496696D01*
X162832288Y-109506994D01*
X162824500Y-109546152D01*
X162824500Y-109573085D01*
X162823720Y-109586969D01*
X162819435Y-109624998D01*
X162819435Y-109625001D01*
X162823720Y-109663029D01*
X162824500Y-109676914D01*
X162824500Y-109703844D01*
X162832288Y-109743003D01*
X162833890Y-109753303D01*
X162839632Y-109804252D01*
X162839633Y-109804260D01*
X162847976Y-109828104D01*
X162852550Y-109844860D01*
X162855262Y-109858496D01*
X162875509Y-109907377D01*
X162877988Y-109913872D01*
X162899212Y-109974524D01*
X162905709Y-109984865D01*
X162915268Y-110003365D01*
X162915603Y-110004173D01*
X162915605Y-110004179D01*
X162952223Y-110058982D01*
X162954114Y-110061900D01*
X162995180Y-110127257D01*
X162995182Y-110127260D01*
X162995184Y-110127262D01*
X163122738Y-110254816D01*
X163188096Y-110295883D01*
X163188131Y-110295905D01*
X163191040Y-110297790D01*
X163245821Y-110334394D01*
X163246606Y-110334719D01*
X163265134Y-110344289D01*
X163275478Y-110350789D01*
X163336175Y-110372028D01*
X163342607Y-110374484D01*
X163371021Y-110386253D01*
X163391497Y-110394735D01*
X163391498Y-110394735D01*
X163391503Y-110394737D01*
X163405139Y-110397449D01*
X163421898Y-110402023D01*
X163445745Y-110410368D01*
X163496714Y-110416110D01*
X163506992Y-110417709D01*
X163534140Y-110423109D01*
X163546157Y-110425500D01*
X163546158Y-110425500D01*
X163573085Y-110425500D01*
X163586969Y-110426280D01*
X163624998Y-110430565D01*
X163625000Y-110430565D01*
X163625002Y-110430565D01*
X163663031Y-110426280D01*
X163676915Y-110425500D01*
X163703841Y-110425500D01*
X163703842Y-110425500D01*
X163743017Y-110417707D01*
X163753283Y-110416110D01*
X163804255Y-110410368D01*
X163828100Y-110402023D01*
X163844862Y-110397448D01*
X163858497Y-110394737D01*
X163907389Y-110374484D01*
X163913837Y-110372023D01*
X163974522Y-110350789D01*
X163984868Y-110344287D01*
X164003390Y-110334720D01*
X164004179Y-110334394D01*
X164058987Y-110297771D01*
X164061825Y-110295931D01*
X164127262Y-110254816D01*
X164254816Y-110127262D01*
X166537819Y-107844259D01*
X166599142Y-107810774D01*
X166668834Y-107815758D01*
X166724767Y-107857630D01*
X166749184Y-107923094D01*
X166749500Y-107931940D01*
X166749500Y-140625500D01*
X166729815Y-140692539D01*
X166677011Y-140738294D01*
X166625500Y-140749500D01*
X153696529Y-140749500D01*
X153629490Y-140729815D01*
X153583735Y-140677011D01*
X153579193Y-140665602D01*
X153471499Y-140350498D01*
X152141835Y-136459999D01*
X154344341Y-136459999D01*
X154344341Y-136460000D01*
X154364936Y-136695403D01*
X154364938Y-136695413D01*
X154426094Y-136923655D01*
X154426096Y-136923659D01*
X154426097Y-136923663D01*
X154506004Y-137095023D01*
X154525965Y-137137830D01*
X154525967Y-137137834D01*
X154634281Y-137292521D01*
X154661501Y-137331396D01*
X154661506Y-137331402D01*
X154783430Y-137453326D01*
X154816915Y-137514649D01*
X154811931Y-137584341D01*
X154770059Y-137640274D01*
X154739083Y-137657189D01*
X154607669Y-137706203D01*
X154607664Y-137706206D01*
X154492455Y-137792452D01*
X154492452Y-137792455D01*
X154406206Y-137907664D01*
X154406202Y-137907671D01*
X154355908Y-138042517D01*
X154349501Y-138102116D01*
X154349500Y-138102135D01*
X154349500Y-139897870D01*
X154349501Y-139897876D01*
X154355908Y-139957483D01*
X154406202Y-140092328D01*
X154406206Y-140092335D01*
X154492452Y-140207544D01*
X154492455Y-140207547D01*
X154607664Y-140293793D01*
X154607671Y-140293797D01*
X154742517Y-140344091D01*
X154742516Y-140344091D01*
X154749444Y-140344835D01*
X154802127Y-140350500D01*
X156597872Y-140350499D01*
X156657483Y-140344091D01*
X156792331Y-140293796D01*
X156907546Y-140207546D01*
X156993796Y-140092331D01*
X157042810Y-139960916D01*
X157084681Y-139904984D01*
X157150145Y-139880566D01*
X157218418Y-139895417D01*
X157246673Y-139916569D01*
X157368599Y-140038495D01*
X157465384Y-140106265D01*
X157562165Y-140174032D01*
X157562167Y-140174033D01*
X157562170Y-140174035D01*
X157776337Y-140273903D01*
X158004592Y-140335063D01*
X158181034Y-140350500D01*
X158239999Y-140355659D01*
X158240000Y-140355659D01*
X158240001Y-140355659D01*
X158298966Y-140350500D01*
X158475408Y-140335063D01*
X158703663Y-140273903D01*
X158917830Y-140174035D01*
X159111401Y-140038495D01*
X159278495Y-139871401D01*
X159408425Y-139685842D01*
X159463002Y-139642217D01*
X159532500Y-139635023D01*
X159594855Y-139666546D01*
X159611575Y-139685842D01*
X159741500Y-139871395D01*
X159741505Y-139871401D01*
X159908599Y-140038495D01*
X160005384Y-140106265D01*
X160102165Y-140174032D01*
X160102167Y-140174033D01*
X160102170Y-140174035D01*
X160316337Y-140273903D01*
X160544592Y-140335063D01*
X160721034Y-140350500D01*
X160779999Y-140355659D01*
X160780000Y-140355659D01*
X160780001Y-140355659D01*
X160838966Y-140350500D01*
X161015408Y-140335063D01*
X161243663Y-140273903D01*
X161457830Y-140174035D01*
X161651401Y-140038495D01*
X161818495Y-139871401D01*
X161954035Y-139677830D01*
X162053903Y-139463663D01*
X162115063Y-139235408D01*
X162135659Y-139000000D01*
X162115063Y-138764592D01*
X162053903Y-138536337D01*
X161954035Y-138322171D01*
X161818495Y-138128599D01*
X161818494Y-138128597D01*
X161790419Y-138100522D01*
X161756934Y-138039199D01*
X161761918Y-137969507D01*
X161790417Y-137925162D01*
X164330520Y-135385062D01*
X164409577Y-135248130D01*
X164450501Y-135095403D01*
X164450501Y-134937288D01*
X164450501Y-134929693D01*
X164450500Y-134929675D01*
X164450500Y-130974499D01*
X164470185Y-130907460D01*
X164522989Y-130861705D01*
X164574500Y-130850499D01*
X165897871Y-130850499D01*
X165897872Y-130850499D01*
X165957483Y-130844091D01*
X166092331Y-130793796D01*
X166207546Y-130707546D01*
X166293796Y-130592331D01*
X166344091Y-130457483D01*
X166350500Y-130397873D01*
X166350499Y-128602128D01*
X166344091Y-128542517D01*
X166293796Y-128407669D01*
X166293795Y-128407668D01*
X166293793Y-128407664D01*
X166207547Y-128292455D01*
X166207544Y-128292452D01*
X166092335Y-128206206D01*
X166092328Y-128206202D01*
X165960917Y-128157189D01*
X165904983Y-128115318D01*
X165880566Y-128049853D01*
X165895418Y-127981580D01*
X165916563Y-127953332D01*
X166038495Y-127831401D01*
X166174035Y-127637830D01*
X166273903Y-127423663D01*
X166335063Y-127195408D01*
X166355659Y-126960000D01*
X166335063Y-126724592D01*
X166273903Y-126496337D01*
X166174035Y-126282171D01*
X166168425Y-126274158D01*
X166038494Y-126088597D01*
X165871402Y-125921506D01*
X165871396Y-125921501D01*
X165685842Y-125791575D01*
X165642217Y-125736998D01*
X165635023Y-125667500D01*
X165666546Y-125605145D01*
X165685842Y-125588425D01*
X165805152Y-125504883D01*
X165871401Y-125458495D01*
X166038495Y-125291401D01*
X166174035Y-125097830D01*
X166273903Y-124883663D01*
X166335063Y-124655408D01*
X166355659Y-124420000D01*
X166335063Y-124184592D01*
X166273903Y-123956337D01*
X166174035Y-123742171D01*
X166168731Y-123734595D01*
X166038494Y-123548597D01*
X165871402Y-123381506D01*
X165871395Y-123381501D01*
X165677834Y-123245967D01*
X165677830Y-123245965D01*
X165677828Y-123245964D01*
X165463663Y-123146097D01*
X165463659Y-123146096D01*
X165463655Y-123146094D01*
X165235413Y-123084938D01*
X165235403Y-123084936D01*
X165000001Y-123064341D01*
X164999999Y-123064341D01*
X164764596Y-123084936D01*
X164764586Y-123084938D01*
X164536344Y-123146094D01*
X164536335Y-123146098D01*
X164322171Y-123245964D01*
X164322169Y-123245965D01*
X164128597Y-123381505D01*
X163961508Y-123548594D01*
X163831269Y-123734595D01*
X163776692Y-123778219D01*
X163707193Y-123785412D01*
X163644839Y-123753890D01*
X163628119Y-123734594D01*
X163498113Y-123548926D01*
X163498108Y-123548920D01*
X163331082Y-123381894D01*
X163137578Y-123246399D01*
X162923492Y-123146570D01*
X162923486Y-123146567D01*
X162710000Y-123089364D01*
X162710000Y-123986988D01*
X162652993Y-123954075D01*
X162525826Y-123920000D01*
X162394174Y-123920000D01*
X162267007Y-123954075D01*
X162210000Y-123986988D01*
X162210000Y-123089364D01*
X162209999Y-123089364D01*
X161996513Y-123146567D01*
X161996507Y-123146570D01*
X161782422Y-123246399D01*
X161782420Y-123246400D01*
X161588926Y-123381886D01*
X161588920Y-123381891D01*
X161421891Y-123548920D01*
X161421886Y-123548926D01*
X161286400Y-123742420D01*
X161286399Y-123742422D01*
X161186570Y-123956507D01*
X161186567Y-123956513D01*
X161129364Y-124169999D01*
X161129364Y-124170000D01*
X162026988Y-124170000D01*
X161994075Y-124227007D01*
X161960000Y-124354174D01*
X161960000Y-124485826D01*
X161994075Y-124612993D01*
X162026988Y-124670000D01*
X161129364Y-124670000D01*
X161186567Y-124883486D01*
X161186570Y-124883492D01*
X161286399Y-125097578D01*
X161421894Y-125291082D01*
X161588917Y-125458105D01*
X161774595Y-125588119D01*
X161818219Y-125642696D01*
X161825412Y-125712195D01*
X161793890Y-125774549D01*
X161774595Y-125791269D01*
X161588594Y-125921508D01*
X161421505Y-126088597D01*
X161285965Y-126282169D01*
X161285964Y-126282171D01*
X161186098Y-126496335D01*
X161186094Y-126496344D01*
X161124938Y-126724586D01*
X161124936Y-126724596D01*
X161104341Y-126959999D01*
X161104341Y-126960000D01*
X161124936Y-127195403D01*
X161124938Y-127195413D01*
X161186094Y-127423655D01*
X161186096Y-127423659D01*
X161186097Y-127423663D01*
X161285965Y-127637830D01*
X161285967Y-127637834D01*
X161394281Y-127792521D01*
X161421501Y-127831396D01*
X161421506Y-127831402D01*
X161588597Y-127998493D01*
X161588603Y-127998498D01*
X161774158Y-128128425D01*
X161817783Y-128183002D01*
X161824977Y-128252500D01*
X161793454Y-128314855D01*
X161774158Y-128331575D01*
X161588600Y-128461503D01*
X161428771Y-128621332D01*
X161367448Y-128654816D01*
X161297756Y-128649832D01*
X161253409Y-128621331D01*
X157762860Y-125130782D01*
X157729375Y-125069459D01*
X157726541Y-125043101D01*
X157726541Y-112674500D01*
X157746226Y-112607461D01*
X157799030Y-112561706D01*
X157850541Y-112550500D01*
X165448085Y-112550500D01*
X165461969Y-112551280D01*
X165499998Y-112555565D01*
X165500000Y-112555565D01*
X165500002Y-112555565D01*
X165538031Y-112551280D01*
X165551915Y-112550500D01*
X165578841Y-112550500D01*
X165578842Y-112550500D01*
X165618017Y-112542707D01*
X165628283Y-112541110D01*
X165679255Y-112535368D01*
X165703100Y-112527023D01*
X165719862Y-112522448D01*
X165733497Y-112519737D01*
X165782389Y-112499484D01*
X165788837Y-112497023D01*
X165849522Y-112475789D01*
X165859868Y-112469287D01*
X165878390Y-112459720D01*
X165879179Y-112459394D01*
X165933987Y-112422771D01*
X165936825Y-112420931D01*
X166002262Y-112379816D01*
X166129816Y-112252262D01*
X166170931Y-112186825D01*
X166172777Y-112183979D01*
X166209389Y-112129186D01*
X166209394Y-112129179D01*
X166209720Y-112128390D01*
X166219287Y-112109868D01*
X166225789Y-112099522D01*
X166247023Y-112038837D01*
X166249484Y-112032389D01*
X166269737Y-111983497D01*
X166272448Y-111969862D01*
X166277023Y-111953100D01*
X166285368Y-111929255D01*
X166291110Y-111878283D01*
X166292707Y-111868017D01*
X166300500Y-111828842D01*
X166300500Y-111801914D01*
X166301280Y-111788029D01*
X166305565Y-111750001D01*
X166305565Y-111749998D01*
X166301280Y-111711969D01*
X166300500Y-111698085D01*
X166300500Y-111671157D01*
X166292711Y-111632003D01*
X166291110Y-111621714D01*
X166285368Y-111570745D01*
X166277023Y-111546898D01*
X166272449Y-111530139D01*
X166269737Y-111516503D01*
X166249484Y-111467607D01*
X166247028Y-111461175D01*
X166225789Y-111400478D01*
X166219289Y-111390134D01*
X166209719Y-111371606D01*
X166209394Y-111370821D01*
X166172790Y-111316040D01*
X166170905Y-111313131D01*
X166129815Y-111247737D01*
X166002260Y-111120182D01*
X166002257Y-111120180D01*
X165936900Y-111079114D01*
X165933982Y-111077223D01*
X165879179Y-111040605D01*
X165879173Y-111040603D01*
X165878365Y-111040268D01*
X165859865Y-111030709D01*
X165849524Y-111024212D01*
X165849523Y-111024211D01*
X165849522Y-111024211D01*
X165788867Y-111002986D01*
X165782377Y-111000509D01*
X165733496Y-110980262D01*
X165719860Y-110977550D01*
X165703104Y-110972976D01*
X165679260Y-110964633D01*
X165679256Y-110964632D01*
X165679255Y-110964632D01*
X165658575Y-110962301D01*
X165628303Y-110958890D01*
X165618003Y-110957288D01*
X165578844Y-110949500D01*
X165578842Y-110949500D01*
X165551915Y-110949500D01*
X165538031Y-110948720D01*
X165500002Y-110944435D01*
X165499998Y-110944435D01*
X165461969Y-110948720D01*
X165448085Y-110949500D01*
X157850541Y-110949500D01*
X157783502Y-110929815D01*
X157737747Y-110877011D01*
X157726541Y-110825500D01*
X157726541Y-101574499D01*
X157746226Y-101507460D01*
X157799030Y-101461705D01*
X157850541Y-101450499D01*
X158173912Y-101450499D01*
X158173913Y-101450499D01*
X158233524Y-101444091D01*
X158368372Y-101393796D01*
X158483587Y-101307546D01*
X158569837Y-101192331D01*
X158620132Y-101057483D01*
X158626541Y-100997873D01*
X158626540Y-98502128D01*
X158620132Y-98442517D01*
X158610528Y-98416768D01*
X158569838Y-98307671D01*
X158569834Y-98307664D01*
X158483588Y-98192455D01*
X158483585Y-98192452D01*
X158368376Y-98106206D01*
X158368369Y-98106202D01*
X158233523Y-98055908D01*
X158233524Y-98055908D01*
X158173924Y-98049501D01*
X158173922Y-98049500D01*
X158173914Y-98049500D01*
X158173905Y-98049500D01*
X155678170Y-98049500D01*
X155678164Y-98049501D01*
X155618557Y-98055908D01*
X155483712Y-98106202D01*
X155483705Y-98106206D01*
X155368496Y-98192452D01*
X155368493Y-98192455D01*
X155282247Y-98307664D01*
X155282243Y-98307671D01*
X155231949Y-98442517D01*
X155225542Y-98502116D01*
X155225542Y-98502123D01*
X155225541Y-98502135D01*
X155225541Y-100997870D01*
X155225542Y-100997876D01*
X155231949Y-101057483D01*
X155282243Y-101192328D01*
X155282247Y-101192335D01*
X155368493Y-101307544D01*
X155368496Y-101307547D01*
X155483705Y-101393793D01*
X155483712Y-101393797D01*
X155504580Y-101401580D01*
X155618558Y-101444091D01*
X155678168Y-101450500D01*
X156001541Y-101450499D01*
X156068580Y-101470183D01*
X156114335Y-101522987D01*
X156125541Y-101574499D01*
X156125541Y-125504887D01*
X156156302Y-125659530D01*
X156156305Y-125659542D01*
X156216643Y-125805213D01*
X156216650Y-125805226D01*
X156304251Y-125936329D01*
X156304254Y-125936333D01*
X160378211Y-130010289D01*
X160489711Y-130121789D01*
X160489712Y-130121790D01*
X160620814Y-130209390D01*
X160620827Y-130209397D01*
X160766498Y-130269735D01*
X160766503Y-130269737D01*
X160921153Y-130300499D01*
X160921156Y-130300500D01*
X160921158Y-130300500D01*
X161307309Y-130300500D01*
X161374348Y-130320185D01*
X161408884Y-130353376D01*
X161421508Y-130371405D01*
X161507586Y-130457482D01*
X161588599Y-130538495D01*
X161670499Y-130595842D01*
X161782165Y-130674032D01*
X161782167Y-130674033D01*
X161782170Y-130674035D01*
X161996337Y-130773903D01*
X162224592Y-130835063D01*
X162412918Y-130851539D01*
X162459999Y-130855659D01*
X162460000Y-130855659D01*
X162460001Y-130855659D01*
X162499234Y-130852226D01*
X162695408Y-130835063D01*
X162923663Y-130773903D01*
X163073096Y-130704220D01*
X163142172Y-130693729D01*
X163205956Y-130722249D01*
X163244196Y-130780725D01*
X163249500Y-130816603D01*
X163249500Y-134716247D01*
X163229815Y-134783286D01*
X163213181Y-134803928D01*
X162168211Y-135848897D01*
X162106888Y-135882382D01*
X162037196Y-135877398D01*
X161981263Y-135835526D01*
X161968148Y-135813621D01*
X161953599Y-135782421D01*
X161953597Y-135782417D01*
X161818113Y-135588926D01*
X161818108Y-135588920D01*
X161651082Y-135421894D01*
X161457578Y-135286399D01*
X161243492Y-135186570D01*
X161243486Y-135186567D01*
X161030000Y-135129364D01*
X161030000Y-136026988D01*
X160972993Y-135994075D01*
X160845826Y-135960000D01*
X160714174Y-135960000D01*
X160587007Y-135994075D01*
X160530000Y-136026988D01*
X160530000Y-135129364D01*
X160529999Y-135129364D01*
X160316513Y-135186567D01*
X160316507Y-135186570D01*
X160102422Y-135286399D01*
X160102420Y-135286400D01*
X159908926Y-135421886D01*
X159908920Y-135421891D01*
X159741891Y-135588920D01*
X159741890Y-135588922D01*
X159611880Y-135774595D01*
X159557303Y-135818219D01*
X159487804Y-135825412D01*
X159425450Y-135793890D01*
X159408730Y-135774594D01*
X159278494Y-135588597D01*
X159111402Y-135421506D01*
X159111395Y-135421501D01*
X158917834Y-135285967D01*
X158917830Y-135285965D01*
X158917828Y-135285964D01*
X158703663Y-135186097D01*
X158703659Y-135186096D01*
X158703655Y-135186094D01*
X158475413Y-135124938D01*
X158475403Y-135124936D01*
X158240001Y-135104341D01*
X158239999Y-135104341D01*
X158004596Y-135124936D01*
X158004586Y-135124938D01*
X157776344Y-135186094D01*
X157776335Y-135186098D01*
X157562171Y-135285964D01*
X157562169Y-135285965D01*
X157368597Y-135421505D01*
X157201505Y-135588597D01*
X157071575Y-135774158D01*
X157016998Y-135817783D01*
X156947500Y-135824977D01*
X156885145Y-135793454D01*
X156868425Y-135774158D01*
X156738494Y-135588597D01*
X156571402Y-135421506D01*
X156571395Y-135421501D01*
X156377834Y-135285967D01*
X156377830Y-135285965D01*
X156377828Y-135285964D01*
X156163663Y-135186097D01*
X156163659Y-135186096D01*
X156163655Y-135186094D01*
X155935413Y-135124938D01*
X155935403Y-135124936D01*
X155700001Y-135104341D01*
X155699999Y-135104341D01*
X155464596Y-135124936D01*
X155464586Y-135124938D01*
X155236344Y-135186094D01*
X155236335Y-135186098D01*
X155022171Y-135285964D01*
X155022169Y-135285965D01*
X154828597Y-135421505D01*
X154661505Y-135588597D01*
X154525965Y-135782169D01*
X154525964Y-135782171D01*
X154426098Y-135996335D01*
X154426094Y-135996344D01*
X154364938Y-136224586D01*
X154364936Y-136224596D01*
X154344341Y-136459999D01*
X152141835Y-136459999D01*
X146980424Y-121358093D01*
X146977987Y-121350089D01*
X146966392Y-121306814D01*
X146963874Y-121302452D01*
X146953923Y-121280551D01*
X146952294Y-121275785D01*
X146927327Y-121238587D01*
X146922900Y-121231484D01*
X146900500Y-121192686D01*
X146896938Y-121189124D01*
X146881660Y-121170547D01*
X146878851Y-121166362D01*
X146878846Y-121166356D01*
X146845101Y-121136887D01*
X146838983Y-121131169D01*
X146807315Y-121099500D01*
X146802940Y-121096974D01*
X146783388Y-121082993D01*
X146779594Y-121079680D01*
X146779588Y-121079676D01*
X146739373Y-121059947D01*
X146731989Y-121056010D01*
X146693185Y-121033607D01*
X146688304Y-121032299D01*
X146665800Y-121023856D01*
X146661275Y-121021636D01*
X146636687Y-121016797D01*
X146617311Y-121012985D01*
X146609160Y-121011093D01*
X146565895Y-120999500D01*
X146565892Y-120999500D01*
X146560856Y-120999500D01*
X146536918Y-120997167D01*
X146531975Y-120996194D01*
X146531966Y-120996193D01*
X146488965Y-120999102D01*
X146487274Y-120999217D01*
X146478907Y-120999500D01*
X143374500Y-120999500D01*
X143307461Y-120979815D01*
X143261706Y-120927011D01*
X143250500Y-120875500D01*
X143250500Y-87959999D01*
X144394341Y-87959999D01*
X144394341Y-87960000D01*
X144414936Y-88195403D01*
X144414938Y-88195413D01*
X144476094Y-88423655D01*
X144476096Y-88423659D01*
X144476097Y-88423663D01*
X144575965Y-88637830D01*
X144575967Y-88637834D01*
X144684281Y-88792521D01*
X144711505Y-88831401D01*
X144878599Y-88998495D01*
X144982719Y-89071401D01*
X145064594Y-89128730D01*
X145108219Y-89183307D01*
X145115413Y-89252805D01*
X145083890Y-89315160D01*
X145064595Y-89331880D01*
X144878922Y-89461890D01*
X144878920Y-89461891D01*
X144711891Y-89628920D01*
X144711886Y-89628926D01*
X144576400Y-89822420D01*
X144576399Y-89822422D01*
X144476570Y-90036507D01*
X144476567Y-90036513D01*
X144419364Y-90249999D01*
X144419364Y-90250000D01*
X145316988Y-90250000D01*
X145284075Y-90307007D01*
X145250000Y-90434174D01*
X145250000Y-90565826D01*
X145284075Y-90692993D01*
X145316988Y-90750000D01*
X144419364Y-90750000D01*
X144476567Y-90963486D01*
X144476570Y-90963492D01*
X144576399Y-91177578D01*
X144711894Y-91371082D01*
X144878917Y-91538105D01*
X145072421Y-91673600D01*
X145286507Y-91773429D01*
X145286516Y-91773433D01*
X145500000Y-91830634D01*
X145500000Y-90933012D01*
X145557007Y-90965925D01*
X145684174Y-91000000D01*
X145815826Y-91000000D01*
X145942993Y-90965925D01*
X146000000Y-90933012D01*
X146000000Y-91830633D01*
X146213483Y-91773433D01*
X146213492Y-91773429D01*
X146427578Y-91673600D01*
X146621082Y-91538105D01*
X146788105Y-91371082D01*
X146923600Y-91177578D01*
X147023429Y-90963492D01*
X147023432Y-90963486D01*
X147080636Y-90750000D01*
X146183012Y-90750000D01*
X146215925Y-90692993D01*
X146250000Y-90565826D01*
X146250000Y-90434174D01*
X146215925Y-90307007D01*
X146183012Y-90250000D01*
X147080636Y-90250000D01*
X147080635Y-90249999D01*
X147023432Y-90036513D01*
X147023429Y-90036507D01*
X146923600Y-89822422D01*
X146923599Y-89822420D01*
X146788113Y-89628926D01*
X146788108Y-89628920D01*
X146621078Y-89461890D01*
X146435405Y-89331879D01*
X146391780Y-89277302D01*
X146384588Y-89207804D01*
X146416110Y-89145449D01*
X146435406Y-89128730D01*
X146517279Y-89071402D01*
X146621401Y-88998495D01*
X146788495Y-88831401D01*
X146924035Y-88637830D01*
X147023903Y-88423663D01*
X147085063Y-88195408D01*
X147105659Y-87960000D01*
X147085063Y-87724592D01*
X147023903Y-87496337D01*
X146924035Y-87282171D01*
X146907797Y-87258981D01*
X146788496Y-87088600D01*
X146788495Y-87088599D01*
X146666567Y-86966671D01*
X146633084Y-86905351D01*
X146638068Y-86835659D01*
X146679939Y-86779725D01*
X146710915Y-86762810D01*
X146842331Y-86713796D01*
X146957546Y-86627546D01*
X147043796Y-86512331D01*
X147094091Y-86377483D01*
X147100500Y-86317873D01*
X147100499Y-84522128D01*
X147094091Y-84462517D01*
X147093643Y-84461317D01*
X147043797Y-84327671D01*
X147043793Y-84327664D01*
X146957547Y-84212455D01*
X146957544Y-84212452D01*
X146842335Y-84126206D01*
X146842328Y-84126202D01*
X146707482Y-84075908D01*
X146707483Y-84075908D01*
X146647883Y-84069501D01*
X146647881Y-84069500D01*
X146647873Y-84069500D01*
X146647864Y-84069500D01*
X144852129Y-84069500D01*
X144852123Y-84069501D01*
X144792516Y-84075908D01*
X144657671Y-84126202D01*
X144657664Y-84126206D01*
X144542455Y-84212452D01*
X144542452Y-84212455D01*
X144456206Y-84327664D01*
X144456202Y-84327671D01*
X144405908Y-84462517D01*
X144403213Y-84487590D01*
X144399501Y-84522123D01*
X144399500Y-84522135D01*
X144399500Y-86317870D01*
X144399501Y-86317876D01*
X144405908Y-86377483D01*
X144456202Y-86512328D01*
X144456206Y-86512335D01*
X144542452Y-86627544D01*
X144542455Y-86627547D01*
X144657664Y-86713793D01*
X144657671Y-86713797D01*
X144789081Y-86762810D01*
X144845015Y-86804681D01*
X144869432Y-86870145D01*
X144854580Y-86938418D01*
X144833430Y-86966673D01*
X144711503Y-87088600D01*
X144575965Y-87282169D01*
X144575964Y-87282171D01*
X144476098Y-87496335D01*
X144476094Y-87496344D01*
X144414938Y-87724586D01*
X144414936Y-87724596D01*
X144394341Y-87959999D01*
X143250500Y-87959999D01*
X143250500Y-75249996D01*
X150694435Y-75249996D01*
X150694435Y-75250003D01*
X150714630Y-75429249D01*
X150714631Y-75429254D01*
X150774211Y-75599523D01*
X150870185Y-75752263D01*
X150872445Y-75755097D01*
X150873334Y-75757275D01*
X150873889Y-75758158D01*
X150873734Y-75758255D01*
X150898855Y-75819783D01*
X150899500Y-75832412D01*
X150899500Y-83913330D01*
X150899499Y-83913348D01*
X150899499Y-84079054D01*
X150899498Y-84079054D01*
X150940423Y-84231786D01*
X150948716Y-84246148D01*
X150950940Y-84250000D01*
X151019479Y-84368714D01*
X151019481Y-84368717D01*
X151138349Y-84487585D01*
X151138355Y-84487590D01*
X154367233Y-87716468D01*
X154400718Y-87777791D01*
X154399327Y-87836241D01*
X154364939Y-87964583D01*
X154364936Y-87964596D01*
X154344341Y-88199999D01*
X154344341Y-88200000D01*
X154364936Y-88435403D01*
X154364938Y-88435413D01*
X154426094Y-88663655D01*
X154426096Y-88663659D01*
X154426097Y-88663663D01*
X154430000Y-88672032D01*
X154525965Y-88877830D01*
X154525967Y-88877834D01*
X154610458Y-88998498D01*
X154661501Y-89071396D01*
X154661506Y-89071402D01*
X154783430Y-89193326D01*
X154816915Y-89254649D01*
X154811931Y-89324341D01*
X154770059Y-89380274D01*
X154739083Y-89397189D01*
X154607669Y-89446203D01*
X154607664Y-89446206D01*
X154492455Y-89532452D01*
X154492452Y-89532455D01*
X154406206Y-89647664D01*
X154406202Y-89647671D01*
X154355908Y-89782517D01*
X154349501Y-89842116D01*
X154349500Y-89842135D01*
X154349500Y-91637870D01*
X154349501Y-91637876D01*
X154355908Y-91697483D01*
X154406202Y-91832328D01*
X154406206Y-91832335D01*
X154492452Y-91947544D01*
X154492455Y-91947547D01*
X154607664Y-92033793D01*
X154607671Y-92033797D01*
X154742517Y-92084091D01*
X154742516Y-92084091D01*
X154749444Y-92084835D01*
X154802127Y-92090500D01*
X156597872Y-92090499D01*
X156657483Y-92084091D01*
X156792331Y-92033796D01*
X156907546Y-91947546D01*
X156993796Y-91832331D01*
X157042810Y-91700916D01*
X157084681Y-91644984D01*
X157150145Y-91620566D01*
X157218418Y-91635417D01*
X157246673Y-91656569D01*
X157368599Y-91778495D01*
X157465384Y-91846265D01*
X157562165Y-91914032D01*
X157562167Y-91914033D01*
X157562170Y-91914035D01*
X157776337Y-92013903D01*
X158004592Y-92075063D01*
X158181034Y-92090500D01*
X158239999Y-92095659D01*
X158240000Y-92095659D01*
X158240001Y-92095659D01*
X158298966Y-92090500D01*
X158475408Y-92075063D01*
X158703663Y-92013903D01*
X158917830Y-91914035D01*
X159111401Y-91778495D01*
X159278495Y-91611401D01*
X159408730Y-91425405D01*
X159463307Y-91381781D01*
X159532805Y-91374587D01*
X159595160Y-91406110D01*
X159611879Y-91425405D01*
X159741890Y-91611078D01*
X159908917Y-91778105D01*
X160102421Y-91913600D01*
X160316507Y-92013429D01*
X160316516Y-92013433D01*
X160530000Y-92070634D01*
X160530000Y-91173012D01*
X160587007Y-91205925D01*
X160714174Y-91240000D01*
X160845826Y-91240000D01*
X160972993Y-91205925D01*
X161030000Y-91173012D01*
X161030000Y-92070633D01*
X161243483Y-92013433D01*
X161243492Y-92013429D01*
X161457578Y-91913600D01*
X161651082Y-91778105D01*
X161818105Y-91611082D01*
X161948119Y-91425405D01*
X162002696Y-91381781D01*
X162072195Y-91374588D01*
X162134549Y-91406110D01*
X162151269Y-91425405D01*
X162281505Y-91611401D01*
X162448599Y-91778495D01*
X162545384Y-91846265D01*
X162642165Y-91914032D01*
X162642167Y-91914033D01*
X162642170Y-91914035D01*
X162856337Y-92013903D01*
X163084592Y-92075063D01*
X163261034Y-92090500D01*
X163319999Y-92095659D01*
X163320000Y-92095659D01*
X163320001Y-92095659D01*
X163378966Y-92090500D01*
X163555408Y-92075063D01*
X163783663Y-92013903D01*
X163997830Y-91914035D01*
X164191401Y-91778495D01*
X164358495Y-91611401D01*
X164494035Y-91417830D01*
X164593903Y-91203663D01*
X164655063Y-90975408D01*
X164675659Y-90740000D01*
X164655063Y-90504592D01*
X164593903Y-90276337D01*
X164494035Y-90062171D01*
X164488731Y-90054595D01*
X164358494Y-89868597D01*
X164191402Y-89701506D01*
X164191396Y-89701501D01*
X164005842Y-89571575D01*
X163962217Y-89516998D01*
X163955023Y-89447500D01*
X163986546Y-89385145D01*
X164005842Y-89368425D01*
X164028026Y-89352891D01*
X164191401Y-89238495D01*
X164358495Y-89071401D01*
X164494035Y-88877830D01*
X164593903Y-88663663D01*
X164655063Y-88435408D01*
X164675659Y-88200000D01*
X164655063Y-87964592D01*
X164593903Y-87736337D01*
X164494035Y-87522171D01*
X164488425Y-87514158D01*
X164358494Y-87328597D01*
X164191402Y-87161506D01*
X164191395Y-87161501D01*
X163997834Y-87025967D01*
X163997830Y-87025965D01*
X163870678Y-86966673D01*
X163783663Y-86926097D01*
X163783659Y-86926096D01*
X163783655Y-86926094D01*
X163555413Y-86864938D01*
X163555403Y-86864936D01*
X163320001Y-86844341D01*
X163319999Y-86844341D01*
X163084596Y-86864936D01*
X163084586Y-86864938D01*
X162856344Y-86926094D01*
X162856335Y-86926098D01*
X162642171Y-87025964D01*
X162642169Y-87025965D01*
X162448597Y-87161505D01*
X162281505Y-87328597D01*
X162151575Y-87514158D01*
X162096998Y-87557783D01*
X162027500Y-87564977D01*
X161965145Y-87533454D01*
X161948425Y-87514158D01*
X161818494Y-87328597D01*
X161651402Y-87161506D01*
X161651395Y-87161501D01*
X161457834Y-87025967D01*
X161457830Y-87025965D01*
X161330678Y-86966673D01*
X161243663Y-86926097D01*
X161243659Y-86926096D01*
X161243655Y-86926094D01*
X161015413Y-86864938D01*
X161015403Y-86864936D01*
X160780001Y-86844341D01*
X160779999Y-86844341D01*
X160544596Y-86864936D01*
X160544586Y-86864938D01*
X160316344Y-86926094D01*
X160316335Y-86926098D01*
X160102171Y-87025964D01*
X160102169Y-87025965D01*
X159908597Y-87161505D01*
X159741505Y-87328597D01*
X159611575Y-87514158D01*
X159556998Y-87557783D01*
X159487500Y-87564977D01*
X159425145Y-87533454D01*
X159408425Y-87514158D01*
X159278494Y-87328597D01*
X159111402Y-87161506D01*
X159111395Y-87161501D01*
X158917834Y-87025967D01*
X158917830Y-87025965D01*
X158790678Y-86966673D01*
X158703663Y-86926097D01*
X158703659Y-86926096D01*
X158703655Y-86926094D01*
X158475413Y-86864938D01*
X158475403Y-86864936D01*
X158240001Y-86844341D01*
X158239999Y-86844341D01*
X158004596Y-86864936D01*
X158004586Y-86864938D01*
X157776344Y-86926094D01*
X157776335Y-86926098D01*
X157562171Y-87025964D01*
X157562169Y-87025965D01*
X157368597Y-87161505D01*
X157201505Y-87328597D01*
X157071575Y-87514158D01*
X157016998Y-87557783D01*
X156947500Y-87564977D01*
X156885145Y-87533454D01*
X156868425Y-87514158D01*
X156738494Y-87328597D01*
X156571402Y-87161506D01*
X156571395Y-87161501D01*
X156377834Y-87025967D01*
X156377830Y-87025965D01*
X156250678Y-86966673D01*
X156163663Y-86926097D01*
X156163659Y-86926096D01*
X156163655Y-86926094D01*
X155935413Y-86864938D01*
X155935403Y-86864936D01*
X155700001Y-86844341D01*
X155699999Y-86844341D01*
X155464596Y-86864936D01*
X155464583Y-86864939D01*
X155336241Y-86899327D01*
X155266392Y-86897664D01*
X155216468Y-86867233D01*
X152136819Y-83787584D01*
X152103334Y-83726261D01*
X152100500Y-83699903D01*
X152100500Y-75901577D01*
X157249500Y-75901577D01*
X157249500Y-76098422D01*
X157280290Y-76292826D01*
X157341117Y-76480029D01*
X157430476Y-76655405D01*
X157546172Y-76814646D01*
X157685354Y-76953828D01*
X157844595Y-77069524D01*
X157927455Y-77111743D01*
X158019970Y-77158882D01*
X158019972Y-77158882D01*
X158019975Y-77158884D01*
X158120317Y-77191487D01*
X158207173Y-77219709D01*
X158401578Y-77250500D01*
X158401583Y-77250500D01*
X158598422Y-77250500D01*
X158792826Y-77219709D01*
X158980025Y-77158884D01*
X159155405Y-77069524D01*
X159314646Y-76953828D01*
X159453828Y-76814646D01*
X159569524Y-76655405D01*
X159658884Y-76480025D01*
X159701605Y-76348543D01*
X161899499Y-76348543D01*
X161937947Y-76541829D01*
X161937950Y-76541839D01*
X162013364Y-76723907D01*
X162013371Y-76723920D01*
X162122860Y-76887781D01*
X162122863Y-76887785D01*
X162262214Y-77027136D01*
X162262218Y-77027139D01*
X162426079Y-77136628D01*
X162426092Y-77136635D01*
X162608160Y-77212049D01*
X162608165Y-77212051D01*
X162608169Y-77212051D01*
X162608170Y-77212052D01*
X162801456Y-77250500D01*
X162801459Y-77250500D01*
X162998543Y-77250500D01*
X163153336Y-77219709D01*
X163191835Y-77212051D01*
X163373914Y-77136632D01*
X163537782Y-77027139D01*
X163677139Y-76887782D01*
X163786632Y-76723914D01*
X163862051Y-76541835D01*
X163900500Y-76348541D01*
X163900500Y-75651459D01*
X163900500Y-75651456D01*
X163862052Y-75458170D01*
X163862051Y-75458169D01*
X163862051Y-75458165D01*
X163815009Y-75344594D01*
X163786635Y-75276092D01*
X163786628Y-75276079D01*
X163677139Y-75112218D01*
X163677136Y-75112214D01*
X163537785Y-74972863D01*
X163537781Y-74972860D01*
X163373920Y-74863371D01*
X163373907Y-74863364D01*
X163191839Y-74787950D01*
X163191829Y-74787947D01*
X162998543Y-74749500D01*
X162998541Y-74749500D01*
X162801459Y-74749500D01*
X162801457Y-74749500D01*
X162608170Y-74787947D01*
X162608160Y-74787950D01*
X162426092Y-74863364D01*
X162426079Y-74863371D01*
X162262218Y-74972860D01*
X162262214Y-74972863D01*
X162122863Y-75112214D01*
X162122860Y-75112218D01*
X162013371Y-75276079D01*
X162013364Y-75276092D01*
X161937950Y-75458160D01*
X161937947Y-75458170D01*
X161899500Y-75651456D01*
X161899500Y-75651459D01*
X161899500Y-76348541D01*
X161899500Y-76348543D01*
X161899499Y-76348543D01*
X159701605Y-76348543D01*
X159719709Y-76292826D01*
X159750500Y-76098422D01*
X159750500Y-75901577D01*
X159719709Y-75707173D01*
X159684731Y-75599523D01*
X159658884Y-75519975D01*
X159658882Y-75519972D01*
X159658882Y-75519970D01*
X159569523Y-75344594D01*
X159519753Y-75276092D01*
X159453828Y-75185354D01*
X159314646Y-75046172D01*
X159155405Y-74930476D01*
X158980029Y-74841117D01*
X158792826Y-74780290D01*
X158598422Y-74749500D01*
X158598417Y-74749500D01*
X158401583Y-74749500D01*
X158401578Y-74749500D01*
X158207173Y-74780290D01*
X158019970Y-74841117D01*
X157844594Y-74930476D01*
X157753741Y-74996485D01*
X157685354Y-75046172D01*
X157685352Y-75046174D01*
X157685351Y-75046174D01*
X157546174Y-75185351D01*
X157546174Y-75185352D01*
X157546172Y-75185354D01*
X157496485Y-75253741D01*
X157430476Y-75344594D01*
X157341117Y-75519970D01*
X157280290Y-75707173D01*
X157249500Y-75901577D01*
X152100500Y-75901577D01*
X152100500Y-75832412D01*
X152120185Y-75765373D01*
X152127555Y-75755097D01*
X152129810Y-75752267D01*
X152129816Y-75752262D01*
X152225789Y-75599522D01*
X152285368Y-75429255D01*
X152294907Y-75344594D01*
X152305565Y-75250003D01*
X152305565Y-75249996D01*
X152285369Y-75070750D01*
X152285368Y-75070745D01*
X152276770Y-75046174D01*
X152225789Y-74900478D01*
X152129816Y-74747738D01*
X152002262Y-74620184D01*
X151849523Y-74524211D01*
X151679254Y-74464631D01*
X151679249Y-74464630D01*
X151500004Y-74444435D01*
X151499996Y-74444435D01*
X151320750Y-74464630D01*
X151320745Y-74464631D01*
X151150476Y-74524211D01*
X150997737Y-74620184D01*
X150870184Y-74747737D01*
X150774211Y-74900476D01*
X150714631Y-75070745D01*
X150714630Y-75070750D01*
X150694435Y-75249996D01*
X143250500Y-75249996D01*
X143250500Y-68374500D01*
X143270185Y-68307461D01*
X143322989Y-68261706D01*
X143374500Y-68250500D01*
X166625500Y-68250500D01*
X166692539Y-68270185D01*
G37*
%TD.AperFunction*%
%TD*%
M02*
